G04 #@! TF.FileFunction,Copper,L1,Top,Signal*
%FSLAX46Y46*%
G04 Gerber Fmt 4.6, Leading zero omitted, Abs format (unit mm)*
G04 Created by KiCad (PCBNEW (2015-11-03 BZR 6296)-product) date Thursday, November 12, 2015 'AMt' 10:54:08 AM*
%MOMM*%
G01*
G04 APERTURE LIST*
%ADD10C,0.100000*%
%ADD11C,0.010000*%
%ADD12O,2.032000X2.032000*%
%ADD13C,2.032000*%
%ADD14R,2.032000X2.032000*%
%ADD15R,0.700000X0.200000*%
%ADD16C,0.685800*%
%ADD17C,0.152400*%
%ADD18C,0.812800*%
%ADD19C,0.254000*%
G04 APERTURE END LIST*
D10*
D11*
G36*
X159239423Y-101545069D02*
X159271094Y-101545572D01*
X159298725Y-101546621D01*
X159323824Y-101548340D01*
X159347893Y-101550851D01*
X159372439Y-101554276D01*
X159398967Y-101558740D01*
X159420931Y-101562815D01*
X159479786Y-101575578D01*
X159540883Y-101591645D01*
X159601336Y-101610182D01*
X159658260Y-101630354D01*
X159669639Y-101634777D01*
X159712817Y-101651970D01*
X159755192Y-101669108D01*
X159797150Y-101686370D01*
X159839080Y-101703937D01*
X159881369Y-101721989D01*
X159924404Y-101740707D01*
X159968573Y-101760271D01*
X160014265Y-101780862D01*
X160061866Y-101802659D01*
X160111764Y-101825844D01*
X160164347Y-101850597D01*
X160220003Y-101877099D01*
X160279118Y-101905528D01*
X160342082Y-101936067D01*
X160409280Y-101968896D01*
X160481102Y-102004194D01*
X160557935Y-102042143D01*
X160640166Y-102082923D01*
X160728183Y-102126714D01*
X160750903Y-102138037D01*
X160829183Y-102176981D01*
X160901702Y-102212880D01*
X160968949Y-102245961D01*
X161031415Y-102276448D01*
X161089589Y-102304567D01*
X161143962Y-102330545D01*
X161195024Y-102354606D01*
X161243265Y-102376978D01*
X161289175Y-102397885D01*
X161333244Y-102417553D01*
X161375962Y-102436208D01*
X161417819Y-102454076D01*
X161459306Y-102471382D01*
X161500912Y-102488353D01*
X161543128Y-102505213D01*
X161576403Y-102518281D01*
X161599926Y-102527518D01*
X161621319Y-102536037D01*
X161639688Y-102543473D01*
X161654143Y-102549460D01*
X161663791Y-102553635D01*
X161667732Y-102555624D01*
X161667199Y-102559719D01*
X161661987Y-102567737D01*
X161652739Y-102578968D01*
X161640100Y-102592704D01*
X161624712Y-102608236D01*
X161607219Y-102624855D01*
X161594178Y-102636657D01*
X161526199Y-102692758D01*
X161451764Y-102746253D01*
X161370994Y-102797086D01*
X161284011Y-102845200D01*
X161190938Y-102890538D01*
X161091897Y-102933043D01*
X160987009Y-102972658D01*
X160876398Y-103009327D01*
X160760185Y-103042992D01*
X160673292Y-103065296D01*
X160572697Y-103088538D01*
X160477709Y-103107867D01*
X160388081Y-103123303D01*
X160303561Y-103134868D01*
X160223901Y-103142580D01*
X160148851Y-103146462D01*
X160078163Y-103146535D01*
X160011587Y-103142818D01*
X159948874Y-103135332D01*
X159911082Y-103128660D01*
X159850450Y-103113748D01*
X159795094Y-103094367D01*
X159745086Y-103070590D01*
X159700499Y-103042491D01*
X159661404Y-103010142D01*
X159627873Y-102973617D01*
X159599979Y-102932988D01*
X159577795Y-102888329D01*
X159561392Y-102839713D01*
X159550842Y-102787214D01*
X159547903Y-102760940D01*
X159547085Y-102749833D01*
X159546149Y-102741698D01*
X159544111Y-102735994D01*
X159539991Y-102732178D01*
X159532806Y-102729710D01*
X159521575Y-102728046D01*
X159505315Y-102726646D01*
X159483045Y-102724967D01*
X159482667Y-102724937D01*
X159455115Y-102722710D01*
X159433944Y-102720816D01*
X159418491Y-102719166D01*
X159408094Y-102717673D01*
X159402090Y-102716249D01*
X159399817Y-102714807D01*
X159399918Y-102713974D01*
X159397973Y-102712665D01*
X159391139Y-102712440D01*
X159381468Y-102713114D01*
X159371010Y-102714497D01*
X159361817Y-102716403D01*
X159357431Y-102717859D01*
X159351923Y-102719376D01*
X159340616Y-102721836D01*
X159324669Y-102725008D01*
X159305241Y-102728665D01*
X159283489Y-102732578D01*
X159278056Y-102733529D01*
X159196570Y-102747036D01*
X159119154Y-102758409D01*
X159043266Y-102767987D01*
X158966367Y-102776109D01*
X158942917Y-102778294D01*
X158920487Y-102779888D01*
X158893281Y-102781121D01*
X158862652Y-102781993D01*
X158829951Y-102782504D01*
X158796529Y-102782652D01*
X158763738Y-102782438D01*
X158732930Y-102781861D01*
X158705455Y-102780920D01*
X158682666Y-102779615D01*
X158669514Y-102778402D01*
X158596686Y-102768747D01*
X158525829Y-102756860D01*
X158455068Y-102742349D01*
X158382527Y-102724822D01*
X158306331Y-102703890D01*
X158290857Y-102699368D01*
X158268243Y-102692575D01*
X158251577Y-102687222D01*
X158239982Y-102682959D01*
X158232578Y-102679438D01*
X158228490Y-102676309D01*
X158227057Y-102673968D01*
X158226091Y-102668855D01*
X158224509Y-102657561D01*
X158222410Y-102640925D01*
X158219895Y-102619783D01*
X158217063Y-102594975D01*
X158214013Y-102567338D01*
X158210918Y-102538392D01*
X158207321Y-102504399D01*
X158204435Y-102476757D01*
X158202312Y-102454791D01*
X158201001Y-102437830D01*
X158200553Y-102425198D01*
X158201018Y-102416223D01*
X158202447Y-102410230D01*
X158204890Y-102406547D01*
X158208397Y-102404499D01*
X158213018Y-102403413D01*
X158218805Y-102402615D01*
X158221091Y-102402283D01*
X158232337Y-102400254D01*
X158249389Y-102396797D01*
X158271193Y-102392151D01*
X158296700Y-102386555D01*
X158324858Y-102380249D01*
X158354615Y-102373471D01*
X158384921Y-102366461D01*
X158414725Y-102359457D01*
X158442975Y-102352700D01*
X158468620Y-102346427D01*
X158487833Y-102341593D01*
X158590462Y-102314234D01*
X158686453Y-102286397D01*
X158776213Y-102257945D01*
X158860153Y-102228742D01*
X158938680Y-102198650D01*
X159012203Y-102167534D01*
X159024056Y-102162213D01*
X159094730Y-102127760D01*
X159166700Y-102088022D01*
X159238246Y-102044092D01*
X159307648Y-101997066D01*
X159373190Y-101948037D01*
X159417403Y-101911786D01*
X159435065Y-101896423D01*
X159453398Y-101880012D01*
X159471684Y-101863244D01*
X159489206Y-101846810D01*
X159505249Y-101831401D01*
X159519095Y-101817709D01*
X159530027Y-101806424D01*
X159537329Y-101798238D01*
X159540283Y-101793841D01*
X159540219Y-101793368D01*
X159534114Y-101790119D01*
X159522137Y-101785797D01*
X159505347Y-101780663D01*
X159484801Y-101774980D01*
X159461556Y-101769011D01*
X159436670Y-101763019D01*
X159411199Y-101757265D01*
X159386201Y-101752013D01*
X159362732Y-101747526D01*
X159341852Y-101744065D01*
X159341556Y-101744021D01*
X159286513Y-101737477D01*
X159232179Y-101734423D01*
X159177039Y-101734893D01*
X159119581Y-101738923D01*
X159058289Y-101746548D01*
X159028461Y-101751261D01*
X158935204Y-101769850D01*
X158845771Y-101793707D01*
X158760377Y-101822725D01*
X158679234Y-101856797D01*
X158602557Y-101895818D01*
X158530558Y-101939681D01*
X158463451Y-101988280D01*
X158401449Y-102041509D01*
X158357949Y-102084915D01*
X158315574Y-102133556D01*
X158277536Y-102184333D01*
X158244493Y-102236230D01*
X158217105Y-102288230D01*
X158199656Y-102329355D01*
X158194680Y-102341769D01*
X158190056Y-102351937D01*
X158186789Y-102357652D01*
X158183532Y-102360958D01*
X158175631Y-102368670D01*
X158163561Y-102380334D01*
X158147793Y-102395496D01*
X158128801Y-102413704D01*
X158107057Y-102434504D01*
X158083034Y-102457442D01*
X158057205Y-102482065D01*
X158038042Y-102500309D01*
X158011341Y-102525737D01*
X157986208Y-102549712D01*
X157963104Y-102571794D01*
X157942486Y-102591540D01*
X157924813Y-102608513D01*
X157910545Y-102622270D01*
X157900139Y-102632371D01*
X157894055Y-102638376D01*
X157892607Y-102639922D01*
X157895572Y-102641699D01*
X157904384Y-102646052D01*
X157918436Y-102652701D01*
X157937123Y-102661368D01*
X157959836Y-102671773D01*
X157985972Y-102683637D01*
X158014923Y-102696683D01*
X158046083Y-102710630D01*
X158053468Y-102713923D01*
X158215126Y-102785942D01*
X158231981Y-102846214D01*
X158240094Y-102874199D01*
X158249941Y-102906534D01*
X158260916Y-102941347D01*
X158272411Y-102976762D01*
X158283817Y-103010907D01*
X158294527Y-103041907D01*
X158303511Y-103066757D01*
X158308959Y-103080443D01*
X158313479Y-103088917D01*
X158318136Y-103093733D01*
X158323830Y-103096392D01*
X158331132Y-103097558D01*
X158344453Y-103098496D01*
X158362760Y-103099209D01*
X158385020Y-103099697D01*
X158410201Y-103099965D01*
X158437269Y-103100013D01*
X158465192Y-103099845D01*
X158492937Y-103099461D01*
X158519472Y-103098866D01*
X158543763Y-103098060D01*
X158564777Y-103097046D01*
X158581319Y-103095841D01*
X158744261Y-103078212D01*
X158844139Y-103064838D01*
X158886859Y-103058400D01*
X158923678Y-103052100D01*
X158955734Y-103045624D01*
X158984167Y-103038661D01*
X159010116Y-103030899D01*
X159034721Y-103022025D01*
X159059122Y-103011727D01*
X159084457Y-102999694D01*
X159087556Y-102998147D01*
X159143115Y-102966813D01*
X159197664Y-102929211D01*
X159250233Y-102886128D01*
X159299852Y-102838353D01*
X159340314Y-102793042D01*
X159358347Y-102771319D01*
X159360748Y-102796569D01*
X159367775Y-102843991D01*
X159379681Y-102893168D01*
X159395802Y-102942224D01*
X159415477Y-102989282D01*
X159438042Y-103032463D01*
X159451719Y-103054289D01*
X159489340Y-103104006D01*
X159532141Y-103149003D01*
X159580037Y-103189251D01*
X159632937Y-103224723D01*
X159690757Y-103255389D01*
X159753406Y-103281223D01*
X159820799Y-103302197D01*
X159892848Y-103318282D01*
X159969465Y-103329451D01*
X160050562Y-103335676D01*
X160136053Y-103336929D01*
X160225848Y-103333182D01*
X160304639Y-103326139D01*
X160377782Y-103316822D01*
X160455875Y-103304509D01*
X160537621Y-103289481D01*
X160621724Y-103272024D01*
X160706887Y-103252418D01*
X160791813Y-103230949D01*
X160875205Y-103207899D01*
X160951986Y-103184745D01*
X161049460Y-103152112D01*
X161143786Y-103116670D01*
X161234613Y-103078629D01*
X161321592Y-103038203D01*
X161404372Y-102995600D01*
X161482604Y-102951034D01*
X161555937Y-102904714D01*
X161624021Y-102856853D01*
X161686506Y-102807661D01*
X161743041Y-102757350D01*
X161793278Y-102706131D01*
X161836865Y-102654215D01*
X161841516Y-102648103D01*
X161851132Y-102635676D01*
X161857892Y-102628104D01*
X161862929Y-102624422D01*
X161867377Y-102623664D01*
X161869726Y-102624079D01*
X161889163Y-102628388D01*
X161914240Y-102633070D01*
X161943568Y-102637922D01*
X161975757Y-102642737D01*
X162009415Y-102647313D01*
X162043152Y-102651443D01*
X162075578Y-102654923D01*
X162086167Y-102655932D01*
X162117905Y-102658462D01*
X162149888Y-102660184D01*
X162182791Y-102661067D01*
X162217290Y-102661080D01*
X162254060Y-102660194D01*
X162293775Y-102658377D01*
X162337113Y-102655599D01*
X162384746Y-102651829D01*
X162437352Y-102647037D01*
X162495605Y-102641192D01*
X162557125Y-102634600D01*
X162646165Y-102624237D01*
X162741639Y-102612018D01*
X162843193Y-102598007D01*
X162950469Y-102582269D01*
X163063115Y-102564868D01*
X163180774Y-102545867D01*
X163303091Y-102525332D01*
X163429712Y-102503326D01*
X163560280Y-102479914D01*
X163694441Y-102455160D01*
X163831840Y-102429128D01*
X163972121Y-102401882D01*
X164114930Y-102373486D01*
X164259911Y-102344006D01*
X164406709Y-102313505D01*
X164554969Y-102282046D01*
X164704335Y-102249696D01*
X164791972Y-102230408D01*
X164836466Y-102220554D01*
X164874684Y-102212267D01*
X164907258Y-102205680D01*
X164934823Y-102200928D01*
X164958011Y-102198146D01*
X164977455Y-102197468D01*
X164993788Y-102199028D01*
X165007642Y-102202962D01*
X165019652Y-102209404D01*
X165030449Y-102218488D01*
X165040667Y-102230348D01*
X165050938Y-102245120D01*
X165061896Y-102262938D01*
X165074174Y-102283936D01*
X165078453Y-102291295D01*
X165115722Y-102357072D01*
X165150654Y-102422322D01*
X165182855Y-102486214D01*
X165211929Y-102547915D01*
X165237481Y-102606594D01*
X165259117Y-102661419D01*
X165272982Y-102700859D01*
X165288442Y-102753272D01*
X165299158Y-102802184D01*
X165305158Y-102847367D01*
X165306469Y-102888594D01*
X165303119Y-102925635D01*
X165295134Y-102958262D01*
X165282543Y-102986247D01*
X165265372Y-103009362D01*
X165243649Y-103027378D01*
X165233124Y-103033395D01*
X165222991Y-103038154D01*
X165211941Y-103042524D01*
X165199615Y-103046533D01*
X165185657Y-103050209D01*
X165169709Y-103053581D01*
X165151413Y-103056677D01*
X165130414Y-103059524D01*
X165106352Y-103062152D01*
X165078872Y-103064587D01*
X165047615Y-103066859D01*
X165012225Y-103068995D01*
X164972343Y-103071023D01*
X164927613Y-103072973D01*
X164877677Y-103074871D01*
X164822178Y-103076746D01*
X164760759Y-103078626D01*
X164693062Y-103080540D01*
X164618731Y-103082515D01*
X164605000Y-103082869D01*
X164482923Y-103086207D01*
X164367344Y-103089786D01*
X164257707Y-103093639D01*
X164153456Y-103097794D01*
X164054037Y-103102284D01*
X163958895Y-103107138D01*
X163867474Y-103112388D01*
X163779219Y-103118064D01*
X163693574Y-103124196D01*
X163609985Y-103130816D01*
X163527897Y-103137954D01*
X163446754Y-103145640D01*
X163419667Y-103148345D01*
X163290967Y-103162177D01*
X163166502Y-103177273D01*
X163045523Y-103193805D01*
X162927281Y-103211941D01*
X162811028Y-103231851D01*
X162696016Y-103253705D01*
X162581496Y-103277671D01*
X162466721Y-103303920D01*
X162350941Y-103332620D01*
X162233408Y-103363942D01*
X162113373Y-103398054D01*
X161990090Y-103435127D01*
X161862808Y-103475329D01*
X161730780Y-103518830D01*
X161625792Y-103554551D01*
X161575932Y-103572059D01*
X161528400Y-103589485D01*
X161482527Y-103607150D01*
X161437643Y-103625374D01*
X161393080Y-103644476D01*
X161348167Y-103664779D01*
X161302235Y-103686601D01*
X161254615Y-103710263D01*
X161204637Y-103736085D01*
X161151633Y-103764388D01*
X161094932Y-103795492D01*
X161033865Y-103829717D01*
X160967763Y-103867384D01*
X160946694Y-103879493D01*
X160888073Y-103913223D01*
X160835102Y-103943651D01*
X160787334Y-103971025D01*
X160744321Y-103995591D01*
X160705616Y-104017596D01*
X160670771Y-104037287D01*
X160639338Y-104054910D01*
X160610870Y-104070714D01*
X160584919Y-104084944D01*
X160561037Y-104097848D01*
X160538777Y-104109672D01*
X160517692Y-104120664D01*
X160497332Y-104131070D01*
X160477252Y-104141138D01*
X160457003Y-104151113D01*
X160436138Y-104161244D01*
X160434306Y-104162128D01*
X160366867Y-104193565D01*
X160303250Y-104220819D01*
X160242082Y-104244282D01*
X160181992Y-104264345D01*
X160121609Y-104281402D01*
X160059560Y-104295844D01*
X159994474Y-104308064D01*
X159924978Y-104318454D01*
X159860139Y-104326279D01*
X159819152Y-104330039D01*
X159773206Y-104332999D01*
X159724358Y-104335105D01*
X159674663Y-104336301D01*
X159626179Y-104336532D01*
X159580962Y-104335744D01*
X159551458Y-104334508D01*
X159471912Y-104327865D01*
X159391456Y-104316743D01*
X159311278Y-104301443D01*
X159232567Y-104282263D01*
X159156511Y-104259501D01*
X159084298Y-104233456D01*
X159017116Y-104204427D01*
X158999008Y-104195625D01*
X158918028Y-104151372D01*
X158838806Y-104100408D01*
X158761482Y-104042893D01*
X158686195Y-103978983D01*
X158613086Y-103908836D01*
X158542295Y-103832610D01*
X158473960Y-103750463D01*
X158408223Y-103662552D01*
X158345222Y-103569036D01*
X158285097Y-103470070D01*
X158227989Y-103365814D01*
X158182897Y-103275201D01*
X158164559Y-103235287D01*
X158146937Y-103193922D01*
X158129526Y-103149814D01*
X158111819Y-103101672D01*
X158093310Y-103048204D01*
X158088965Y-103035250D01*
X158081296Y-103011804D01*
X158073193Y-102986214D01*
X158065008Y-102959673D01*
X158057093Y-102933373D01*
X158049801Y-102908508D01*
X158043485Y-102886269D01*
X158038496Y-102867848D01*
X158035187Y-102854440D01*
X158034378Y-102850558D01*
X158032209Y-102838996D01*
X157827595Y-102756428D01*
X157791615Y-102741883D01*
X157757607Y-102728085D01*
X157726132Y-102715266D01*
X157697748Y-102703654D01*
X157673014Y-102693480D01*
X157652490Y-102684974D01*
X157636734Y-102678367D01*
X157626307Y-102673889D01*
X157621768Y-102671769D01*
X157621619Y-102671656D01*
X157623960Y-102669006D01*
X157631162Y-102662050D01*
X157642812Y-102651163D01*
X157658495Y-102636724D01*
X157677797Y-102619108D01*
X157700304Y-102598694D01*
X157725601Y-102575859D01*
X157753274Y-102550979D01*
X157782909Y-102524432D01*
X157808286Y-102501769D01*
X157844302Y-102469640D01*
X157875416Y-102441846D01*
X157901998Y-102418033D01*
X157924415Y-102397848D01*
X157943038Y-102380935D01*
X157958235Y-102366942D01*
X157970376Y-102355513D01*
X157979830Y-102346294D01*
X157986965Y-102338931D01*
X157992152Y-102333071D01*
X157995759Y-102328358D01*
X157998156Y-102324439D01*
X157999712Y-102320959D01*
X158000795Y-102317565D01*
X158000979Y-102316897D01*
X158007388Y-102296348D01*
X158016490Y-102271398D01*
X158027560Y-102243816D01*
X158039874Y-102215375D01*
X158052705Y-102187843D01*
X158059300Y-102174554D01*
X158091749Y-102116345D01*
X158128977Y-102060220D01*
X158171666Y-102005249D01*
X158220499Y-101950502D01*
X158233642Y-101936849D01*
X158289151Y-101883310D01*
X158346431Y-101834827D01*
X158406685Y-101790531D01*
X158471117Y-101749557D01*
X158540931Y-101711037D01*
X158561917Y-101700420D01*
X158629971Y-101668548D01*
X158697985Y-101640713D01*
X158767187Y-101616541D01*
X158838807Y-101595659D01*
X158914072Y-101577692D01*
X158994212Y-101562268D01*
X159040680Y-101554752D01*
X159060516Y-101551832D01*
X159077844Y-101549566D01*
X159094061Y-101547870D01*
X159110562Y-101546659D01*
X159128742Y-101545848D01*
X159149998Y-101545355D01*
X159175724Y-101545094D01*
X159202208Y-101544991D01*
X159239423Y-101545069D01*
X159239423Y-101545069D01*
G37*
X159239423Y-101545069D02*
X159271094Y-101545572D01*
X159298725Y-101546621D01*
X159323824Y-101548340D01*
X159347893Y-101550851D01*
X159372439Y-101554276D01*
X159398967Y-101558740D01*
X159420931Y-101562815D01*
X159479786Y-101575578D01*
X159540883Y-101591645D01*
X159601336Y-101610182D01*
X159658260Y-101630354D01*
X159669639Y-101634777D01*
X159712817Y-101651970D01*
X159755192Y-101669108D01*
X159797150Y-101686370D01*
X159839080Y-101703937D01*
X159881369Y-101721989D01*
X159924404Y-101740707D01*
X159968573Y-101760271D01*
X160014265Y-101780862D01*
X160061866Y-101802659D01*
X160111764Y-101825844D01*
X160164347Y-101850597D01*
X160220003Y-101877099D01*
X160279118Y-101905528D01*
X160342082Y-101936067D01*
X160409280Y-101968896D01*
X160481102Y-102004194D01*
X160557935Y-102042143D01*
X160640166Y-102082923D01*
X160728183Y-102126714D01*
X160750903Y-102138037D01*
X160829183Y-102176981D01*
X160901702Y-102212880D01*
X160968949Y-102245961D01*
X161031415Y-102276448D01*
X161089589Y-102304567D01*
X161143962Y-102330545D01*
X161195024Y-102354606D01*
X161243265Y-102376978D01*
X161289175Y-102397885D01*
X161333244Y-102417553D01*
X161375962Y-102436208D01*
X161417819Y-102454076D01*
X161459306Y-102471382D01*
X161500912Y-102488353D01*
X161543128Y-102505213D01*
X161576403Y-102518281D01*
X161599926Y-102527518D01*
X161621319Y-102536037D01*
X161639688Y-102543473D01*
X161654143Y-102549460D01*
X161663791Y-102553635D01*
X161667732Y-102555624D01*
X161667199Y-102559719D01*
X161661987Y-102567737D01*
X161652739Y-102578968D01*
X161640100Y-102592704D01*
X161624712Y-102608236D01*
X161607219Y-102624855D01*
X161594178Y-102636657D01*
X161526199Y-102692758D01*
X161451764Y-102746253D01*
X161370994Y-102797086D01*
X161284011Y-102845200D01*
X161190938Y-102890538D01*
X161091897Y-102933043D01*
X160987009Y-102972658D01*
X160876398Y-103009327D01*
X160760185Y-103042992D01*
X160673292Y-103065296D01*
X160572697Y-103088538D01*
X160477709Y-103107867D01*
X160388081Y-103123303D01*
X160303561Y-103134868D01*
X160223901Y-103142580D01*
X160148851Y-103146462D01*
X160078163Y-103146535D01*
X160011587Y-103142818D01*
X159948874Y-103135332D01*
X159911082Y-103128660D01*
X159850450Y-103113748D01*
X159795094Y-103094367D01*
X159745086Y-103070590D01*
X159700499Y-103042491D01*
X159661404Y-103010142D01*
X159627873Y-102973617D01*
X159599979Y-102932988D01*
X159577795Y-102888329D01*
X159561392Y-102839713D01*
X159550842Y-102787214D01*
X159547903Y-102760940D01*
X159547085Y-102749833D01*
X159546149Y-102741698D01*
X159544111Y-102735994D01*
X159539991Y-102732178D01*
X159532806Y-102729710D01*
X159521575Y-102728046D01*
X159505315Y-102726646D01*
X159483045Y-102724967D01*
X159482667Y-102724937D01*
X159455115Y-102722710D01*
X159433944Y-102720816D01*
X159418491Y-102719166D01*
X159408094Y-102717673D01*
X159402090Y-102716249D01*
X159399817Y-102714807D01*
X159399918Y-102713974D01*
X159397973Y-102712665D01*
X159391139Y-102712440D01*
X159381468Y-102713114D01*
X159371010Y-102714497D01*
X159361817Y-102716403D01*
X159357431Y-102717859D01*
X159351923Y-102719376D01*
X159340616Y-102721836D01*
X159324669Y-102725008D01*
X159305241Y-102728665D01*
X159283489Y-102732578D01*
X159278056Y-102733529D01*
X159196570Y-102747036D01*
X159119154Y-102758409D01*
X159043266Y-102767987D01*
X158966367Y-102776109D01*
X158942917Y-102778294D01*
X158920487Y-102779888D01*
X158893281Y-102781121D01*
X158862652Y-102781993D01*
X158829951Y-102782504D01*
X158796529Y-102782652D01*
X158763738Y-102782438D01*
X158732930Y-102781861D01*
X158705455Y-102780920D01*
X158682666Y-102779615D01*
X158669514Y-102778402D01*
X158596686Y-102768747D01*
X158525829Y-102756860D01*
X158455068Y-102742349D01*
X158382527Y-102724822D01*
X158306331Y-102703890D01*
X158290857Y-102699368D01*
X158268243Y-102692575D01*
X158251577Y-102687222D01*
X158239982Y-102682959D01*
X158232578Y-102679438D01*
X158228490Y-102676309D01*
X158227057Y-102673968D01*
X158226091Y-102668855D01*
X158224509Y-102657561D01*
X158222410Y-102640925D01*
X158219895Y-102619783D01*
X158217063Y-102594975D01*
X158214013Y-102567338D01*
X158210918Y-102538392D01*
X158207321Y-102504399D01*
X158204435Y-102476757D01*
X158202312Y-102454791D01*
X158201001Y-102437830D01*
X158200553Y-102425198D01*
X158201018Y-102416223D01*
X158202447Y-102410230D01*
X158204890Y-102406547D01*
X158208397Y-102404499D01*
X158213018Y-102403413D01*
X158218805Y-102402615D01*
X158221091Y-102402283D01*
X158232337Y-102400254D01*
X158249389Y-102396797D01*
X158271193Y-102392151D01*
X158296700Y-102386555D01*
X158324858Y-102380249D01*
X158354615Y-102373471D01*
X158384921Y-102366461D01*
X158414725Y-102359457D01*
X158442975Y-102352700D01*
X158468620Y-102346427D01*
X158487833Y-102341593D01*
X158590462Y-102314234D01*
X158686453Y-102286397D01*
X158776213Y-102257945D01*
X158860153Y-102228742D01*
X158938680Y-102198650D01*
X159012203Y-102167534D01*
X159024056Y-102162213D01*
X159094730Y-102127760D01*
X159166700Y-102088022D01*
X159238246Y-102044092D01*
X159307648Y-101997066D01*
X159373190Y-101948037D01*
X159417403Y-101911786D01*
X159435065Y-101896423D01*
X159453398Y-101880012D01*
X159471684Y-101863244D01*
X159489206Y-101846810D01*
X159505249Y-101831401D01*
X159519095Y-101817709D01*
X159530027Y-101806424D01*
X159537329Y-101798238D01*
X159540283Y-101793841D01*
X159540219Y-101793368D01*
X159534114Y-101790119D01*
X159522137Y-101785797D01*
X159505347Y-101780663D01*
X159484801Y-101774980D01*
X159461556Y-101769011D01*
X159436670Y-101763019D01*
X159411199Y-101757265D01*
X159386201Y-101752013D01*
X159362732Y-101747526D01*
X159341852Y-101744065D01*
X159341556Y-101744021D01*
X159286513Y-101737477D01*
X159232179Y-101734423D01*
X159177039Y-101734893D01*
X159119581Y-101738923D01*
X159058289Y-101746548D01*
X159028461Y-101751261D01*
X158935204Y-101769850D01*
X158845771Y-101793707D01*
X158760377Y-101822725D01*
X158679234Y-101856797D01*
X158602557Y-101895818D01*
X158530558Y-101939681D01*
X158463451Y-101988280D01*
X158401449Y-102041509D01*
X158357949Y-102084915D01*
X158315574Y-102133556D01*
X158277536Y-102184333D01*
X158244493Y-102236230D01*
X158217105Y-102288230D01*
X158199656Y-102329355D01*
X158194680Y-102341769D01*
X158190056Y-102351937D01*
X158186789Y-102357652D01*
X158183532Y-102360958D01*
X158175631Y-102368670D01*
X158163561Y-102380334D01*
X158147793Y-102395496D01*
X158128801Y-102413704D01*
X158107057Y-102434504D01*
X158083034Y-102457442D01*
X158057205Y-102482065D01*
X158038042Y-102500309D01*
X158011341Y-102525737D01*
X157986208Y-102549712D01*
X157963104Y-102571794D01*
X157942486Y-102591540D01*
X157924813Y-102608513D01*
X157910545Y-102622270D01*
X157900139Y-102632371D01*
X157894055Y-102638376D01*
X157892607Y-102639922D01*
X157895572Y-102641699D01*
X157904384Y-102646052D01*
X157918436Y-102652701D01*
X157937123Y-102661368D01*
X157959836Y-102671773D01*
X157985972Y-102683637D01*
X158014923Y-102696683D01*
X158046083Y-102710630D01*
X158053468Y-102713923D01*
X158215126Y-102785942D01*
X158231981Y-102846214D01*
X158240094Y-102874199D01*
X158249941Y-102906534D01*
X158260916Y-102941347D01*
X158272411Y-102976762D01*
X158283817Y-103010907D01*
X158294527Y-103041907D01*
X158303511Y-103066757D01*
X158308959Y-103080443D01*
X158313479Y-103088917D01*
X158318136Y-103093733D01*
X158323830Y-103096392D01*
X158331132Y-103097558D01*
X158344453Y-103098496D01*
X158362760Y-103099209D01*
X158385020Y-103099697D01*
X158410201Y-103099965D01*
X158437269Y-103100013D01*
X158465192Y-103099845D01*
X158492937Y-103099461D01*
X158519472Y-103098866D01*
X158543763Y-103098060D01*
X158564777Y-103097046D01*
X158581319Y-103095841D01*
X158744261Y-103078212D01*
X158844139Y-103064838D01*
X158886859Y-103058400D01*
X158923678Y-103052100D01*
X158955734Y-103045624D01*
X158984167Y-103038661D01*
X159010116Y-103030899D01*
X159034721Y-103022025D01*
X159059122Y-103011727D01*
X159084457Y-102999694D01*
X159087556Y-102998147D01*
X159143115Y-102966813D01*
X159197664Y-102929211D01*
X159250233Y-102886128D01*
X159299852Y-102838353D01*
X159340314Y-102793042D01*
X159358347Y-102771319D01*
X159360748Y-102796569D01*
X159367775Y-102843991D01*
X159379681Y-102893168D01*
X159395802Y-102942224D01*
X159415477Y-102989282D01*
X159438042Y-103032463D01*
X159451719Y-103054289D01*
X159489340Y-103104006D01*
X159532141Y-103149003D01*
X159580037Y-103189251D01*
X159632937Y-103224723D01*
X159690757Y-103255389D01*
X159753406Y-103281223D01*
X159820799Y-103302197D01*
X159892848Y-103318282D01*
X159969465Y-103329451D01*
X160050562Y-103335676D01*
X160136053Y-103336929D01*
X160225848Y-103333182D01*
X160304639Y-103326139D01*
X160377782Y-103316822D01*
X160455875Y-103304509D01*
X160537621Y-103289481D01*
X160621724Y-103272024D01*
X160706887Y-103252418D01*
X160791813Y-103230949D01*
X160875205Y-103207899D01*
X160951986Y-103184745D01*
X161049460Y-103152112D01*
X161143786Y-103116670D01*
X161234613Y-103078629D01*
X161321592Y-103038203D01*
X161404372Y-102995600D01*
X161482604Y-102951034D01*
X161555937Y-102904714D01*
X161624021Y-102856853D01*
X161686506Y-102807661D01*
X161743041Y-102757350D01*
X161793278Y-102706131D01*
X161836865Y-102654215D01*
X161841516Y-102648103D01*
X161851132Y-102635676D01*
X161857892Y-102628104D01*
X161862929Y-102624422D01*
X161867377Y-102623664D01*
X161869726Y-102624079D01*
X161889163Y-102628388D01*
X161914240Y-102633070D01*
X161943568Y-102637922D01*
X161975757Y-102642737D01*
X162009415Y-102647313D01*
X162043152Y-102651443D01*
X162075578Y-102654923D01*
X162086167Y-102655932D01*
X162117905Y-102658462D01*
X162149888Y-102660184D01*
X162182791Y-102661067D01*
X162217290Y-102661080D01*
X162254060Y-102660194D01*
X162293775Y-102658377D01*
X162337113Y-102655599D01*
X162384746Y-102651829D01*
X162437352Y-102647037D01*
X162495605Y-102641192D01*
X162557125Y-102634600D01*
X162646165Y-102624237D01*
X162741639Y-102612018D01*
X162843193Y-102598007D01*
X162950469Y-102582269D01*
X163063115Y-102564868D01*
X163180774Y-102545867D01*
X163303091Y-102525332D01*
X163429712Y-102503326D01*
X163560280Y-102479914D01*
X163694441Y-102455160D01*
X163831840Y-102429128D01*
X163972121Y-102401882D01*
X164114930Y-102373486D01*
X164259911Y-102344006D01*
X164406709Y-102313505D01*
X164554969Y-102282046D01*
X164704335Y-102249696D01*
X164791972Y-102230408D01*
X164836466Y-102220554D01*
X164874684Y-102212267D01*
X164907258Y-102205680D01*
X164934823Y-102200928D01*
X164958011Y-102198146D01*
X164977455Y-102197468D01*
X164993788Y-102199028D01*
X165007642Y-102202962D01*
X165019652Y-102209404D01*
X165030449Y-102218488D01*
X165040667Y-102230348D01*
X165050938Y-102245120D01*
X165061896Y-102262938D01*
X165074174Y-102283936D01*
X165078453Y-102291295D01*
X165115722Y-102357072D01*
X165150654Y-102422322D01*
X165182855Y-102486214D01*
X165211929Y-102547915D01*
X165237481Y-102606594D01*
X165259117Y-102661419D01*
X165272982Y-102700859D01*
X165288442Y-102753272D01*
X165299158Y-102802184D01*
X165305158Y-102847367D01*
X165306469Y-102888594D01*
X165303119Y-102925635D01*
X165295134Y-102958262D01*
X165282543Y-102986247D01*
X165265372Y-103009362D01*
X165243649Y-103027378D01*
X165233124Y-103033395D01*
X165222991Y-103038154D01*
X165211941Y-103042524D01*
X165199615Y-103046533D01*
X165185657Y-103050209D01*
X165169709Y-103053581D01*
X165151413Y-103056677D01*
X165130414Y-103059524D01*
X165106352Y-103062152D01*
X165078872Y-103064587D01*
X165047615Y-103066859D01*
X165012225Y-103068995D01*
X164972343Y-103071023D01*
X164927613Y-103072973D01*
X164877677Y-103074871D01*
X164822178Y-103076746D01*
X164760759Y-103078626D01*
X164693062Y-103080540D01*
X164618731Y-103082515D01*
X164605000Y-103082869D01*
X164482923Y-103086207D01*
X164367344Y-103089786D01*
X164257707Y-103093639D01*
X164153456Y-103097794D01*
X164054037Y-103102284D01*
X163958895Y-103107138D01*
X163867474Y-103112388D01*
X163779219Y-103118064D01*
X163693574Y-103124196D01*
X163609985Y-103130816D01*
X163527897Y-103137954D01*
X163446754Y-103145640D01*
X163419667Y-103148345D01*
X163290967Y-103162177D01*
X163166502Y-103177273D01*
X163045523Y-103193805D01*
X162927281Y-103211941D01*
X162811028Y-103231851D01*
X162696016Y-103253705D01*
X162581496Y-103277671D01*
X162466721Y-103303920D01*
X162350941Y-103332620D01*
X162233408Y-103363942D01*
X162113373Y-103398054D01*
X161990090Y-103435127D01*
X161862808Y-103475329D01*
X161730780Y-103518830D01*
X161625792Y-103554551D01*
X161575932Y-103572059D01*
X161528400Y-103589485D01*
X161482527Y-103607150D01*
X161437643Y-103625374D01*
X161393080Y-103644476D01*
X161348167Y-103664779D01*
X161302235Y-103686601D01*
X161254615Y-103710263D01*
X161204637Y-103736085D01*
X161151633Y-103764388D01*
X161094932Y-103795492D01*
X161033865Y-103829717D01*
X160967763Y-103867384D01*
X160946694Y-103879493D01*
X160888073Y-103913223D01*
X160835102Y-103943651D01*
X160787334Y-103971025D01*
X160744321Y-103995591D01*
X160705616Y-104017596D01*
X160670771Y-104037287D01*
X160639338Y-104054910D01*
X160610870Y-104070714D01*
X160584919Y-104084944D01*
X160561037Y-104097848D01*
X160538777Y-104109672D01*
X160517692Y-104120664D01*
X160497332Y-104131070D01*
X160477252Y-104141138D01*
X160457003Y-104151113D01*
X160436138Y-104161244D01*
X160434306Y-104162128D01*
X160366867Y-104193565D01*
X160303250Y-104220819D01*
X160242082Y-104244282D01*
X160181992Y-104264345D01*
X160121609Y-104281402D01*
X160059560Y-104295844D01*
X159994474Y-104308064D01*
X159924978Y-104318454D01*
X159860139Y-104326279D01*
X159819152Y-104330039D01*
X159773206Y-104332999D01*
X159724358Y-104335105D01*
X159674663Y-104336301D01*
X159626179Y-104336532D01*
X159580962Y-104335744D01*
X159551458Y-104334508D01*
X159471912Y-104327865D01*
X159391456Y-104316743D01*
X159311278Y-104301443D01*
X159232567Y-104282263D01*
X159156511Y-104259501D01*
X159084298Y-104233456D01*
X159017116Y-104204427D01*
X158999008Y-104195625D01*
X158918028Y-104151372D01*
X158838806Y-104100408D01*
X158761482Y-104042893D01*
X158686195Y-103978983D01*
X158613086Y-103908836D01*
X158542295Y-103832610D01*
X158473960Y-103750463D01*
X158408223Y-103662552D01*
X158345222Y-103569036D01*
X158285097Y-103470070D01*
X158227989Y-103365814D01*
X158182897Y-103275201D01*
X158164559Y-103235287D01*
X158146937Y-103193922D01*
X158129526Y-103149814D01*
X158111819Y-103101672D01*
X158093310Y-103048204D01*
X158088965Y-103035250D01*
X158081296Y-103011804D01*
X158073193Y-102986214D01*
X158065008Y-102959673D01*
X158057093Y-102933373D01*
X158049801Y-102908508D01*
X158043485Y-102886269D01*
X158038496Y-102867848D01*
X158035187Y-102854440D01*
X158034378Y-102850558D01*
X158032209Y-102838996D01*
X157827595Y-102756428D01*
X157791615Y-102741883D01*
X157757607Y-102728085D01*
X157726132Y-102715266D01*
X157697748Y-102703654D01*
X157673014Y-102693480D01*
X157652490Y-102684974D01*
X157636734Y-102678367D01*
X157626307Y-102673889D01*
X157621768Y-102671769D01*
X157621619Y-102671656D01*
X157623960Y-102669006D01*
X157631162Y-102662050D01*
X157642812Y-102651163D01*
X157658495Y-102636724D01*
X157677797Y-102619108D01*
X157700304Y-102598694D01*
X157725601Y-102575859D01*
X157753274Y-102550979D01*
X157782909Y-102524432D01*
X157808286Y-102501769D01*
X157844302Y-102469640D01*
X157875416Y-102441846D01*
X157901998Y-102418033D01*
X157924415Y-102397848D01*
X157943038Y-102380935D01*
X157958235Y-102366942D01*
X157970376Y-102355513D01*
X157979830Y-102346294D01*
X157986965Y-102338931D01*
X157992152Y-102333071D01*
X157995759Y-102328358D01*
X157998156Y-102324439D01*
X157999712Y-102320959D01*
X158000795Y-102317565D01*
X158000979Y-102316897D01*
X158007388Y-102296348D01*
X158016490Y-102271398D01*
X158027560Y-102243816D01*
X158039874Y-102215375D01*
X158052705Y-102187843D01*
X158059300Y-102174554D01*
X158091749Y-102116345D01*
X158128977Y-102060220D01*
X158171666Y-102005249D01*
X158220499Y-101950502D01*
X158233642Y-101936849D01*
X158289151Y-101883310D01*
X158346431Y-101834827D01*
X158406685Y-101790531D01*
X158471117Y-101749557D01*
X158540931Y-101711037D01*
X158561917Y-101700420D01*
X158629971Y-101668548D01*
X158697985Y-101640713D01*
X158767187Y-101616541D01*
X158838807Y-101595659D01*
X158914072Y-101577692D01*
X158994212Y-101562268D01*
X159040680Y-101554752D01*
X159060516Y-101551832D01*
X159077844Y-101549566D01*
X159094061Y-101547870D01*
X159110562Y-101546659D01*
X159128742Y-101545848D01*
X159149998Y-101545355D01*
X159175724Y-101545094D01*
X159202208Y-101544991D01*
X159239423Y-101545069D01*
D12*
X169490000Y-97640000D03*
D13*
X169490000Y-100180000D03*
X169490000Y-102720000D03*
D14*
X169490000Y-105260000D03*
D13*
X169490000Y-107800000D03*
X169490000Y-116040000D03*
D14*
X169490000Y-118580000D03*
D15*
X157760000Y-109800000D03*
X161540000Y-109800000D03*
X157760000Y-109400000D03*
X161540000Y-109400000D03*
X157760000Y-109000000D03*
X161540000Y-109000000D03*
X157760000Y-108600000D03*
X161540000Y-108600000D03*
X157760000Y-108200000D03*
X161540000Y-108200000D03*
X157760000Y-107800000D03*
X161540000Y-107800000D03*
X157760000Y-107400000D03*
X161540000Y-107400000D03*
X157760000Y-107000000D03*
X161540000Y-107000000D03*
X157760000Y-106600000D03*
X161540000Y-106600000D03*
X157760000Y-106200000D03*
X161540000Y-106200000D03*
D16*
X163510000Y-108370000D03*
X163100000Y-108940000D03*
X163240000Y-109670000D03*
X162480000Y-109520000D03*
X162460000Y-110260000D03*
X163110000Y-107680000D03*
X162440000Y-107440000D03*
X162960000Y-106990000D03*
X162480000Y-106440000D03*
X162580000Y-105700000D03*
X157810000Y-105500000D03*
D17*
X157760000Y-106600000D02*
X159230000Y-106600000D01*
X159230000Y-106600000D02*
X159340000Y-106710000D01*
X157760000Y-107000000D02*
X159050000Y-107000000D01*
X159050000Y-107000000D02*
X159340000Y-106710000D01*
X157760000Y-107400000D02*
X158910000Y-107400000D01*
X158910000Y-107400000D02*
X159340000Y-107830000D01*
D18*
X159340000Y-108260000D02*
X159340000Y-107830000D01*
X159340000Y-107830000D02*
X159340000Y-106710000D01*
D17*
X157760000Y-107800000D02*
X159310000Y-107800000D01*
X159310000Y-107800000D02*
X159340000Y-107830000D01*
D18*
X159340000Y-108950000D02*
X159340000Y-108260000D01*
D17*
X157760000Y-108200000D02*
X159280000Y-108200000D01*
X159280000Y-108200000D02*
X159340000Y-108260000D01*
X157760000Y-108600000D02*
X158990000Y-108600000D01*
X158990000Y-108600000D02*
X159340000Y-108950000D01*
D18*
X159340000Y-109770000D02*
X159340000Y-108950000D01*
D17*
X157760000Y-109000000D02*
X159290000Y-109000000D01*
X159290000Y-109000000D02*
X159340000Y-108950000D01*
X157760000Y-109400000D02*
X158970000Y-109400000D01*
X158970000Y-109400000D02*
X159340000Y-109770000D01*
D18*
X159340000Y-111420000D02*
X159340000Y-109770000D01*
D17*
X157760000Y-109800000D02*
X159310000Y-109800000D01*
X159310000Y-109800000D02*
X159340000Y-109770000D01*
D18*
X161704158Y-111420000D02*
X159340000Y-111420000D01*
X165870000Y-111420000D02*
X161704158Y-111420000D01*
X169490000Y-107800000D02*
X165870000Y-111420000D01*
D17*
X163340000Y-108200000D02*
X163510000Y-108370000D01*
X161540000Y-108200000D02*
X163340000Y-108200000D01*
X162760000Y-108600000D02*
X163100000Y-108940000D01*
X161540000Y-108600000D02*
X162760000Y-108600000D01*
X162570000Y-109000000D02*
X162897101Y-109327101D01*
X161540000Y-109000000D02*
X162570000Y-109000000D01*
X162897101Y-109327101D02*
X163240000Y-109670000D01*
D18*
X169490000Y-118580000D02*
X167661200Y-118580000D01*
X167661200Y-118580000D02*
X167651200Y-118570000D01*
X169490000Y-105260000D02*
X167661200Y-105260000D01*
D17*
X161540000Y-109400000D02*
X162360000Y-109400000D01*
X162360000Y-109400000D02*
X162480000Y-109520000D01*
X161540000Y-109800000D02*
X162000000Y-109800000D01*
X162000000Y-109800000D02*
X162460000Y-110260000D01*
X162122400Y-107880000D02*
X162910000Y-107880000D01*
X162910000Y-107880000D02*
X163110000Y-107680000D01*
X161540000Y-107800000D02*
X162042400Y-107800000D01*
X162042400Y-107800000D02*
X162122400Y-107880000D01*
X161540000Y-107400000D02*
X162400000Y-107400000D01*
X162400000Y-107400000D02*
X162440000Y-107440000D01*
X161540000Y-107000000D02*
X162950000Y-107000000D01*
X162950000Y-107000000D02*
X162960000Y-106990000D01*
X161540000Y-106600000D02*
X162320000Y-106600000D01*
X162320000Y-106600000D02*
X162480000Y-106440000D01*
X161540000Y-106200000D02*
X162080000Y-106200000D01*
X162080000Y-106200000D02*
X162580000Y-105700000D01*
X157810000Y-105500000D02*
X157810000Y-106150000D01*
X157810000Y-106150000D02*
X157760000Y-106200000D01*
D19*
G36*
X171048000Y-115508217D02*
X170883680Y-115110531D01*
X170421900Y-114647945D01*
X169818247Y-114397286D01*
X169164621Y-114396716D01*
X168560531Y-114646320D01*
X168097945Y-115108100D01*
X167847286Y-115711753D01*
X167846716Y-116365379D01*
X168096320Y-116969469D01*
X168141274Y-117014501D01*
X168114302Y-117025673D01*
X167935673Y-117204301D01*
X167839000Y-117437690D01*
X167839000Y-118294250D01*
X167997750Y-118453000D01*
X169363000Y-118453000D01*
X169363000Y-118433000D01*
X169617000Y-118433000D01*
X169617000Y-118453000D01*
X169637000Y-118453000D01*
X169637000Y-118707000D01*
X169617000Y-118707000D01*
X169617000Y-118727000D01*
X169363000Y-118727000D01*
X169363000Y-118707000D01*
X167997750Y-118707000D01*
X167839000Y-118865750D01*
X167839000Y-119722310D01*
X167932048Y-119946948D01*
X167560668Y-120020820D01*
X167307611Y-120125639D01*
X166415446Y-120721764D01*
X166221764Y-120915446D01*
X165625639Y-121807611D01*
X165527899Y-122043578D01*
X165520820Y-122060668D01*
X165371068Y-122813523D01*
X165054234Y-122046726D01*
X164456422Y-121447869D01*
X163674943Y-121123370D01*
X162828770Y-121122632D01*
X162046726Y-121445766D01*
X161447869Y-122043578D01*
X161123370Y-122825057D01*
X161122632Y-123671230D01*
X161445766Y-124453274D01*
X162043578Y-125052131D01*
X162635695Y-125298000D01*
X159569139Y-125298000D01*
X158721529Y-125129400D01*
X158061570Y-124688430D01*
X157620600Y-124028472D01*
X157452000Y-123180861D01*
X157452000Y-110539283D01*
X158110000Y-110539283D01*
X158301765Y-110503200D01*
X158306600Y-110503200D01*
X158306600Y-111420000D01*
X158385263Y-111815465D01*
X158609276Y-112150724D01*
X158944535Y-112374737D01*
X159340000Y-112453400D01*
X165870000Y-112453400D01*
X166265465Y-112374737D01*
X166600724Y-112150724D01*
X169308606Y-109442842D01*
X169815379Y-109443284D01*
X170419469Y-109193680D01*
X170882055Y-108731900D01*
X171048000Y-108332261D01*
X171048000Y-115508217D01*
X171048000Y-115508217D01*
G37*
X171048000Y-115508217D02*
X170883680Y-115110531D01*
X170421900Y-114647945D01*
X169818247Y-114397286D01*
X169164621Y-114396716D01*
X168560531Y-114646320D01*
X168097945Y-115108100D01*
X167847286Y-115711753D01*
X167846716Y-116365379D01*
X168096320Y-116969469D01*
X168141274Y-117014501D01*
X168114302Y-117025673D01*
X167935673Y-117204301D01*
X167839000Y-117437690D01*
X167839000Y-118294250D01*
X167997750Y-118453000D01*
X169363000Y-118453000D01*
X169363000Y-118433000D01*
X169617000Y-118433000D01*
X169617000Y-118453000D01*
X169637000Y-118453000D01*
X169637000Y-118707000D01*
X169617000Y-118707000D01*
X169617000Y-118727000D01*
X169363000Y-118727000D01*
X169363000Y-118707000D01*
X167997750Y-118707000D01*
X167839000Y-118865750D01*
X167839000Y-119722310D01*
X167932048Y-119946948D01*
X167560668Y-120020820D01*
X167307611Y-120125639D01*
X166415446Y-120721764D01*
X166221764Y-120915446D01*
X165625639Y-121807611D01*
X165527899Y-122043578D01*
X165520820Y-122060668D01*
X165371068Y-122813523D01*
X165054234Y-122046726D01*
X164456422Y-121447869D01*
X163674943Y-121123370D01*
X162828770Y-121122632D01*
X162046726Y-121445766D01*
X161447869Y-122043578D01*
X161123370Y-122825057D01*
X161122632Y-123671230D01*
X161445766Y-124453274D01*
X162043578Y-125052131D01*
X162635695Y-125298000D01*
X159569139Y-125298000D01*
X158721529Y-125129400D01*
X158061570Y-124688430D01*
X157620600Y-124028472D01*
X157452000Y-123180861D01*
X157452000Y-110539283D01*
X158110000Y-110539283D01*
X158301765Y-110503200D01*
X158306600Y-110503200D01*
X158306600Y-111420000D01*
X158385263Y-111815465D01*
X158609276Y-112150724D01*
X158944535Y-112374737D01*
X159340000Y-112453400D01*
X165870000Y-112453400D01*
X166265465Y-112374737D01*
X166600724Y-112150724D01*
X169308606Y-109442842D01*
X169815379Y-109443284D01*
X170419469Y-109193680D01*
X170882055Y-108731900D01*
X171048000Y-108332261D01*
X171048000Y-115508217D01*
G36*
X162046726Y-90945766D02*
X161447869Y-91543578D01*
X161123370Y-92325057D01*
X161122632Y-93171230D01*
X161445766Y-93953274D01*
X162043578Y-94552131D01*
X162825057Y-94876630D01*
X163671230Y-94877368D01*
X164453274Y-94554234D01*
X165052131Y-93956422D01*
X165371318Y-93187735D01*
X165520820Y-93939332D01*
X165625639Y-94192389D01*
X166221764Y-95084554D01*
X166415446Y-95278236D01*
X167307611Y-95874361D01*
X167560668Y-95979180D01*
X168613046Y-96188511D01*
X168682187Y-96188511D01*
X168718740Y-96195782D01*
X168296036Y-96478224D01*
X167939878Y-97011251D01*
X167814812Y-97640000D01*
X167939878Y-98268749D01*
X168296036Y-98801776D01*
X168445203Y-98901447D01*
X168097945Y-99248100D01*
X167847286Y-99851753D01*
X167846716Y-100505379D01*
X168096320Y-101109469D01*
X168436446Y-101450189D01*
X168097945Y-101788100D01*
X167847286Y-102391753D01*
X167846716Y-103045379D01*
X168096320Y-103649469D01*
X168141274Y-103694501D01*
X168114302Y-103705673D01*
X167935673Y-103884301D01*
X167839000Y-104117690D01*
X167839000Y-104974250D01*
X167997750Y-105133000D01*
X169363000Y-105133000D01*
X169363000Y-105113000D01*
X169617000Y-105113000D01*
X169617000Y-105133000D01*
X169637000Y-105133000D01*
X169637000Y-105387000D01*
X169617000Y-105387000D01*
X169617000Y-105407000D01*
X169363000Y-105407000D01*
X169363000Y-105387000D01*
X167997750Y-105387000D01*
X167839000Y-105545750D01*
X167839000Y-106402310D01*
X167935673Y-106635699D01*
X168114302Y-106814327D01*
X168140812Y-106825308D01*
X168097945Y-106868100D01*
X167847286Y-107471753D01*
X167846841Y-107981711D01*
X165441952Y-110386600D01*
X162301425Y-110386600D01*
X162428327Y-110259699D01*
X162525000Y-110026310D01*
X162525000Y-110008750D01*
X162402138Y-109885888D01*
X162428327Y-109859699D01*
X162525000Y-109626310D01*
X162525000Y-109608750D01*
X162516250Y-109600000D01*
X162525000Y-109591250D01*
X162525000Y-109573690D01*
X162453055Y-109400000D01*
X162525000Y-109226310D01*
X162525000Y-109208750D01*
X162516250Y-109200000D01*
X162525000Y-109191250D01*
X162525000Y-109173690D01*
X162453055Y-109000000D01*
X162525000Y-108826310D01*
X162525000Y-108808750D01*
X162516250Y-108800000D01*
X162525000Y-108791250D01*
X162525000Y-108773690D01*
X162453055Y-108600000D01*
X162525000Y-108426310D01*
X162525000Y-108408750D01*
X162516250Y-108400000D01*
X162525000Y-108391250D01*
X162525000Y-108373690D01*
X162453055Y-108200000D01*
X162525000Y-108026310D01*
X162525000Y-108008750D01*
X162516250Y-108000000D01*
X162525000Y-107991250D01*
X162525000Y-107973690D01*
X162453055Y-107800000D01*
X162525000Y-107626310D01*
X162525000Y-107608750D01*
X162516250Y-107600000D01*
X162525000Y-107591250D01*
X162525000Y-107573690D01*
X162453055Y-107400000D01*
X162525000Y-107226310D01*
X162525000Y-107208750D01*
X162516250Y-107200000D01*
X162525000Y-107191250D01*
X162525000Y-107173690D01*
X162453055Y-107000000D01*
X162525000Y-106826310D01*
X162525000Y-106808750D01*
X162516250Y-106800000D01*
X162525000Y-106791250D01*
X162525000Y-106773690D01*
X162453055Y-106600000D01*
X162525000Y-106426310D01*
X162525000Y-106408750D01*
X162516250Y-106400000D01*
X162525000Y-106391250D01*
X162525000Y-106373690D01*
X162428327Y-106140301D01*
X162402138Y-106114112D01*
X162525000Y-105991250D01*
X162525000Y-105973690D01*
X162428327Y-105740301D01*
X162249698Y-105561673D01*
X162016309Y-105465000D01*
X161825750Y-105465000D01*
X161667000Y-105623750D01*
X161667000Y-109900000D01*
X161413000Y-109900000D01*
X161413000Y-105623750D01*
X161254250Y-105465000D01*
X161063691Y-105465000D01*
X160830302Y-105561673D01*
X160651673Y-105740301D01*
X160555000Y-105973690D01*
X160555000Y-105991250D01*
X160677862Y-106114112D01*
X160651673Y-106140301D01*
X160555000Y-106373690D01*
X160555000Y-106391250D01*
X160563750Y-106400000D01*
X160555000Y-106408750D01*
X160555000Y-106426310D01*
X160626945Y-106600000D01*
X160555000Y-106773690D01*
X160555000Y-106791250D01*
X160563750Y-106800000D01*
X160555000Y-106808750D01*
X160555000Y-106826310D01*
X160626945Y-107000000D01*
X160555000Y-107173690D01*
X160555000Y-107191250D01*
X160563750Y-107200000D01*
X160555000Y-107208750D01*
X160555000Y-107226310D01*
X160626945Y-107400000D01*
X160555000Y-107573690D01*
X160555000Y-107591250D01*
X160563750Y-107600000D01*
X160555000Y-107608750D01*
X160555000Y-107626310D01*
X160626945Y-107800000D01*
X160555000Y-107973690D01*
X160555000Y-107991250D01*
X160563750Y-108000000D01*
X160555000Y-108008750D01*
X160555000Y-108026310D01*
X160626945Y-108200000D01*
X160555000Y-108373690D01*
X160555000Y-108391250D01*
X160563750Y-108400000D01*
X160555000Y-108408750D01*
X160555000Y-108426310D01*
X160626945Y-108600000D01*
X160555000Y-108773690D01*
X160555000Y-108791250D01*
X160563750Y-108800000D01*
X160555000Y-108808750D01*
X160555000Y-108826310D01*
X160626945Y-109000000D01*
X160555000Y-109173690D01*
X160555000Y-109191250D01*
X160563750Y-109200000D01*
X160555000Y-109208750D01*
X160555000Y-109226310D01*
X160626945Y-109400000D01*
X160555000Y-109573690D01*
X160555000Y-109591250D01*
X160563750Y-109600000D01*
X160555000Y-109608750D01*
X160555000Y-109626310D01*
X160651673Y-109859699D01*
X160677862Y-109885888D01*
X160555000Y-110008750D01*
X160555000Y-110026310D01*
X160651673Y-110259699D01*
X160778575Y-110386600D01*
X160373400Y-110386600D01*
X160373400Y-106710000D01*
X160294737Y-106314535D01*
X160070724Y-105979276D01*
X159735465Y-105755263D01*
X159340000Y-105676600D01*
X158944535Y-105755263D01*
X158732710Y-105896800D01*
X158711048Y-105896800D01*
X158706177Y-105870909D01*
X158779731Y-105693771D01*
X158780068Y-105307921D01*
X158632720Y-104951314D01*
X158360121Y-104678239D01*
X158003771Y-104530269D01*
X157617921Y-104529932D01*
X157452000Y-104598490D01*
X157452000Y-103285947D01*
X157457328Y-103288139D01*
X157457934Y-103288258D01*
X157458446Y-103288597D01*
X157486829Y-103300209D01*
X157487327Y-103300306D01*
X157487747Y-103300583D01*
X157516976Y-103312487D01*
X157517708Y-103313739D01*
X157518668Y-103319837D01*
X157536375Y-103367979D01*
X157540318Y-103374427D01*
X157541668Y-103381863D01*
X157559079Y-103425971D01*
X157563737Y-103433202D01*
X157565500Y-103441621D01*
X157583122Y-103482986D01*
X157588186Y-103490403D01*
X157590271Y-103499137D01*
X157608608Y-103539051D01*
X157614466Y-103547135D01*
X157617084Y-103556768D01*
X157662176Y-103647381D01*
X157669907Y-103657381D01*
X157673699Y-103669436D01*
X157730807Y-103773692D01*
X157740041Y-103784711D01*
X157744965Y-103798218D01*
X157805089Y-103897183D01*
X157815261Y-103908272D01*
X157821072Y-103922152D01*
X157884073Y-104015668D01*
X157895277Y-104026787D01*
X157902081Y-104041028D01*
X157967818Y-104128939D01*
X157980167Y-104140043D01*
X157988093Y-104154638D01*
X158056428Y-104236785D01*
X158070024Y-104247793D01*
X158079199Y-104262687D01*
X158149990Y-104338913D01*
X158164954Y-104349732D01*
X158175528Y-104364870D01*
X158248637Y-104435017D01*
X158265072Y-104445514D01*
X158277193Y-104460794D01*
X158352480Y-104524703D01*
X158370479Y-104534712D01*
X158384291Y-104549994D01*
X158461615Y-104607509D01*
X158481248Y-104616828D01*
X158496878Y-104631924D01*
X158576100Y-104682888D01*
X158597400Y-104691280D01*
X158614960Y-104705965D01*
X158695941Y-104750219D01*
X158710531Y-104754793D01*
X158722715Y-104764032D01*
X158740823Y-104772834D01*
X158754662Y-104776458D01*
X158766433Y-104784584D01*
X158833615Y-104813613D01*
X158852944Y-104817763D01*
X158869875Y-104827970D01*
X158942088Y-104854015D01*
X158959630Y-104856663D01*
X158975307Y-104864967D01*
X159051363Y-104887729D01*
X159067890Y-104889295D01*
X159082942Y-104896296D01*
X159161653Y-104915476D01*
X159177819Y-104916166D01*
X159192814Y-104922241D01*
X159272992Y-104937541D01*
X159289404Y-104937413D01*
X159304913Y-104942790D01*
X159385369Y-104953912D01*
X159402664Y-104952891D01*
X159419316Y-104957673D01*
X159498862Y-104964316D01*
X159512080Y-104962816D01*
X159525005Y-104965954D01*
X159554509Y-104967190D01*
X159562272Y-104965981D01*
X159569950Y-104967648D01*
X159615167Y-104968436D01*
X159622186Y-104967167D01*
X159629190Y-104968525D01*
X159677675Y-104968294D01*
X159683756Y-104967054D01*
X159689869Y-104968118D01*
X159739563Y-104966922D01*
X159745534Y-104965584D01*
X159751580Y-104966518D01*
X159800428Y-104964412D01*
X159807062Y-104962792D01*
X159813837Y-104963692D01*
X159859783Y-104960732D01*
X159868214Y-104958483D01*
X159876887Y-104959396D01*
X159917874Y-104955636D01*
X159926692Y-104953025D01*
X159935862Y-104953726D01*
X160000700Y-104945901D01*
X160009342Y-104943071D01*
X160018427Y-104943507D01*
X160087922Y-104933117D01*
X160099157Y-104929083D01*
X160111095Y-104929211D01*
X160176181Y-104916991D01*
X160189010Y-104911838D01*
X160202829Y-104911391D01*
X160264879Y-104896949D01*
X160278505Y-104890782D01*
X160293413Y-104889602D01*
X160353797Y-104872545D01*
X160367209Y-104865704D01*
X160382144Y-104863814D01*
X160442234Y-104843751D01*
X160454503Y-104836749D01*
X160468426Y-104834360D01*
X160529594Y-104810897D01*
X160540041Y-104804309D01*
X160552127Y-104801753D01*
X160615743Y-104774499D01*
X160624075Y-104768785D01*
X160633890Y-104766385D01*
X160701328Y-104734948D01*
X160704797Y-104732405D01*
X160708963Y-104731327D01*
X160710795Y-104730443D01*
X160711423Y-104729969D01*
X160712186Y-104729770D01*
X160733051Y-104719639D01*
X160734516Y-104718529D01*
X160736288Y-104718055D01*
X160756538Y-104708080D01*
X160758335Y-104706702D01*
X160760521Y-104706101D01*
X160780601Y-104696032D01*
X160782564Y-104694505D01*
X160784957Y-104693827D01*
X160805317Y-104683421D01*
X160807355Y-104681810D01*
X160809848Y-104681082D01*
X160830933Y-104670090D01*
X160832870Y-104668534D01*
X160835251Y-104667818D01*
X160857511Y-104655994D01*
X160859283Y-104654547D01*
X160861470Y-104653873D01*
X160885352Y-104640969D01*
X160886886Y-104639699D01*
X160888786Y-104639100D01*
X160914736Y-104624870D01*
X160916022Y-104623791D01*
X160917625Y-104623277D01*
X160946093Y-104607472D01*
X160947124Y-104606598D01*
X160948409Y-104606180D01*
X160979842Y-104588557D01*
X160980668Y-104587851D01*
X160981703Y-104587510D01*
X161016548Y-104567819D01*
X161017182Y-104567273D01*
X161017975Y-104567010D01*
X161056680Y-104545005D01*
X161057158Y-104544591D01*
X161057757Y-104544391D01*
X161100770Y-104519825D01*
X161101122Y-104519519D01*
X161101569Y-104519369D01*
X161149337Y-104491994D01*
X161149586Y-104491777D01*
X161149900Y-104491671D01*
X161202871Y-104461243D01*
X161203046Y-104461090D01*
X161203268Y-104461015D01*
X161261613Y-104427444D01*
X161261617Y-104427442D01*
X161281655Y-104415925D01*
X161344848Y-104379916D01*
X161401354Y-104348247D01*
X161452475Y-104320204D01*
X161498575Y-104295587D01*
X161540288Y-104274036D01*
X161578462Y-104255068D01*
X161613978Y-104238194D01*
X161647754Y-104222925D01*
X161681056Y-104208650D01*
X161714974Y-104194879D01*
X161750687Y-104181126D01*
X161789364Y-104166945D01*
X161832208Y-104151900D01*
X161931409Y-104118148D01*
X162056902Y-104076800D01*
X162176280Y-104039094D01*
X162290794Y-104004658D01*
X162401125Y-103973304D01*
X162508401Y-103944715D01*
X162613219Y-103918733D01*
X162716678Y-103895072D01*
X162819718Y-103873508D01*
X162923411Y-103853805D01*
X163028501Y-103835807D01*
X163136272Y-103819277D01*
X163247371Y-103804096D01*
X163362798Y-103790096D01*
X163484804Y-103776984D01*
X163507918Y-103774676D01*
X163585120Y-103767363D01*
X163662329Y-103760649D01*
X163741105Y-103754410D01*
X163822025Y-103748617D01*
X163905937Y-103743220D01*
X163993055Y-103738217D01*
X164084456Y-103733554D01*
X164180137Y-103729233D01*
X164281485Y-103725193D01*
X164388255Y-103721441D01*
X164501244Y-103717942D01*
X164621920Y-103714643D01*
X164635020Y-103714305D01*
X164635268Y-103714249D01*
X164635518Y-103714292D01*
X164709848Y-103712317D01*
X164710381Y-103712196D01*
X164710923Y-103712288D01*
X164778620Y-103710374D01*
X164779355Y-103710206D01*
X164780095Y-103710330D01*
X164841514Y-103708450D01*
X164842508Y-103708220D01*
X164843518Y-103708386D01*
X164899017Y-103706511D01*
X164900341Y-103706201D01*
X164901681Y-103706415D01*
X164951617Y-103704517D01*
X164953365Y-103704100D01*
X164955139Y-103704373D01*
X164999868Y-103702423D01*
X165002133Y-103701869D01*
X165004439Y-103702207D01*
X165044321Y-103700179D01*
X165047277Y-103699433D01*
X165050301Y-103699847D01*
X165085690Y-103697711D01*
X165089512Y-103696708D01*
X165093433Y-103697196D01*
X165124689Y-103694924D01*
X165129596Y-103693572D01*
X165134655Y-103694120D01*
X165162135Y-103691685D01*
X165168432Y-103689842D01*
X165174970Y-103690416D01*
X165199032Y-103687788D01*
X165206993Y-103685280D01*
X165215322Y-103685794D01*
X165236321Y-103682947D01*
X165246305Y-103679515D01*
X165256859Y-103679818D01*
X165275155Y-103676722D01*
X165287371Y-103672068D01*
X165300447Y-103671911D01*
X165316395Y-103668539D01*
X165330884Y-103662332D01*
X165346613Y-103661369D01*
X165360571Y-103657693D01*
X165376969Y-103649693D01*
X165395092Y-103647543D01*
X165407418Y-103643534D01*
X165424783Y-103633803D01*
X165444366Y-103630234D01*
X165455416Y-103625864D01*
X165472233Y-103615015D01*
X165491657Y-103610205D01*
X165501790Y-103605446D01*
X165522448Y-103590212D01*
X165546790Y-103582064D01*
X165557316Y-103576046D01*
X165582154Y-103554450D01*
X165589865Y-103551698D01*
X165608775Y-103534586D01*
X165647101Y-103513845D01*
X165668824Y-103495829D01*
X165696284Y-103462015D01*
X165700254Y-103459087D01*
X165703150Y-103454285D01*
X165715788Y-103446380D01*
X165730999Y-103425034D01*
X165743406Y-103414247D01*
X165744762Y-103411526D01*
X165772708Y-103386237D01*
X165789879Y-103363122D01*
X165804511Y-103332248D01*
X165804794Y-103331988D01*
X165808729Y-103323549D01*
X165824277Y-103304404D01*
X165829526Y-103286772D01*
X165858895Y-103245559D01*
X165871486Y-103217574D01*
X165883435Y-103165710D01*
X165895484Y-103140285D01*
X165895639Y-103137189D01*
X165909017Y-103108501D01*
X165917002Y-103075874D01*
X165919082Y-103028269D01*
X165932550Y-102982561D01*
X165935900Y-102945520D01*
X165931781Y-102906862D01*
X165938150Y-102868507D01*
X165936839Y-102827280D01*
X165929601Y-102796106D01*
X165931658Y-102764172D01*
X165925658Y-102718989D01*
X165917032Y-102693671D01*
X165916515Y-102666929D01*
X165905799Y-102618017D01*
X165896680Y-102597151D01*
X165894622Y-102574471D01*
X165879162Y-102522057D01*
X165871531Y-102507513D01*
X165869212Y-102491256D01*
X165855347Y-102451816D01*
X165849163Y-102441368D01*
X165846995Y-102429420D01*
X165825359Y-102374595D01*
X165819305Y-102365196D01*
X165816927Y-102354272D01*
X165791375Y-102295593D01*
X165785940Y-102287768D01*
X165783638Y-102278521D01*
X165754564Y-102216820D01*
X165749503Y-102209975D01*
X165747229Y-102201775D01*
X165715028Y-102137882D01*
X165710141Y-102131626D01*
X165707832Y-102124033D01*
X165672900Y-102058783D01*
X165668010Y-102052832D01*
X165665593Y-102045518D01*
X165628324Y-101979740D01*
X165625972Y-101977013D01*
X165624805Y-101973611D01*
X165620526Y-101966251D01*
X165620008Y-101965664D01*
X165619752Y-101964924D01*
X165607474Y-101943926D01*
X165602725Y-101938570D01*
X165600237Y-101931860D01*
X165589279Y-101914042D01*
X165577033Y-101900837D01*
X165569835Y-101884330D01*
X165559564Y-101869558D01*
X165535754Y-101846614D01*
X165519473Y-101817833D01*
X165509255Y-101805972D01*
X165469140Y-101774627D01*
X165437328Y-101734883D01*
X165426531Y-101725799D01*
X165405790Y-101714385D01*
X165399797Y-101707342D01*
X165360827Y-101687398D01*
X165318387Y-101652465D01*
X165306377Y-101646023D01*
X165290596Y-101641211D01*
X165290064Y-101640777D01*
X165250418Y-101628878D01*
X165210491Y-101606905D01*
X165201626Y-101605922D01*
X165180280Y-101594998D01*
X165166426Y-101591064D01*
X165111702Y-101586659D01*
X165070505Y-101574096D01*
X165068528Y-101574288D01*
X165053878Y-101569891D01*
X165037545Y-101568331D01*
X164996324Y-101572514D01*
X164955431Y-101565852D01*
X164935987Y-101566530D01*
X164909677Y-101572724D01*
X164882726Y-101570646D01*
X164859538Y-101573428D01*
X164843900Y-101578537D01*
X164827455Y-101578115D01*
X164799890Y-101582867D01*
X164791248Y-101586190D01*
X164781992Y-101586219D01*
X164749419Y-101592805D01*
X164745261Y-101594543D01*
X164740756Y-101594620D01*
X164702539Y-101602907D01*
X164701233Y-101603474D01*
X164699809Y-101603505D01*
X164655682Y-101613278D01*
X164569437Y-101632260D01*
X164422593Y-101664063D01*
X164276632Y-101695035D01*
X164132696Y-101724941D01*
X163990401Y-101753875D01*
X163850191Y-101781754D01*
X163712818Y-101808435D01*
X163578260Y-101833929D01*
X163447325Y-101858088D01*
X163319729Y-101880967D01*
X163196789Y-101902333D01*
X163078078Y-101922263D01*
X162964462Y-101940611D01*
X162856359Y-101957310D01*
X162754146Y-101972305D01*
X162658310Y-101985528D01*
X162569534Y-101996889D01*
X162486903Y-102006506D01*
X162430276Y-102012574D01*
X162377170Y-102017903D01*
X162331174Y-102022092D01*
X162291976Y-102025195D01*
X162259112Y-102027301D01*
X162232004Y-102028542D01*
X162209782Y-102029077D01*
X162191405Y-102029070D01*
X162175343Y-102028639D01*
X162159992Y-102027813D01*
X162141272Y-102026320D01*
X162139328Y-102026135D01*
X162115300Y-102023557D01*
X162090397Y-102020509D01*
X162065077Y-102017066D01*
X162041911Y-102013601D01*
X162023832Y-102010610D01*
X162015587Y-102009071D01*
X162006513Y-102007059D01*
X161992624Y-102006756D01*
X161979679Y-102001717D01*
X161977330Y-102001302D01*
X161965462Y-102001557D01*
X161952487Y-101991409D01*
X161948547Y-101989420D01*
X161930334Y-101984359D01*
X161914786Y-101973613D01*
X161905137Y-101969438D01*
X161900190Y-101968373D01*
X161895983Y-101965562D01*
X161881528Y-101959575D01*
X161878995Y-101959071D01*
X161876835Y-101957653D01*
X161858466Y-101950217D01*
X161856669Y-101949875D01*
X161855134Y-101948879D01*
X161833741Y-101940360D01*
X161832224Y-101940080D01*
X161830928Y-101939248D01*
X161807405Y-101930010D01*
X161807402Y-101930010D01*
X161775852Y-101917619D01*
X161737465Y-101902288D01*
X161700333Y-101887142D01*
X161663554Y-101871800D01*
X161626435Y-101855955D01*
X161588576Y-101839421D01*
X161548824Y-101821680D01*
X161507254Y-101802749D01*
X161462613Y-101782047D01*
X161414959Y-101759592D01*
X161363383Y-101734950D01*
X161307453Y-101707916D01*
X161246974Y-101678399D01*
X161181478Y-101646179D01*
X161110253Y-101610921D01*
X161032408Y-101572193D01*
X161032407Y-101572193D01*
X161010085Y-101561068D01*
X161009875Y-101561011D01*
X161009703Y-101560878D01*
X160921686Y-101517087D01*
X160921286Y-101516978D01*
X160920956Y-101516724D01*
X160838724Y-101475944D01*
X160838223Y-101475808D01*
X160837812Y-101475493D01*
X160760979Y-101437544D01*
X160760366Y-101437379D01*
X160759861Y-101436993D01*
X160688040Y-101401695D01*
X160687305Y-101401499D01*
X160686701Y-101401039D01*
X160619503Y-101368210D01*
X160618618Y-101367976D01*
X160617887Y-101367423D01*
X160554923Y-101336884D01*
X160553884Y-101336613D01*
X160553026Y-101335968D01*
X160493910Y-101307539D01*
X160492709Y-101307230D01*
X160491714Y-101306488D01*
X160436058Y-101279986D01*
X160434674Y-101279636D01*
X160433523Y-101278785D01*
X160380939Y-101254032D01*
X160379378Y-101253644D01*
X160378077Y-101252693D01*
X160328179Y-101229509D01*
X160326442Y-101229086D01*
X160324991Y-101228038D01*
X160277390Y-101206241D01*
X160275505Y-101205793D01*
X160273926Y-101204667D01*
X160228234Y-101184076D01*
X160226216Y-101183610D01*
X160224524Y-101182419D01*
X160180355Y-101162855D01*
X160178250Y-101162383D01*
X160176479Y-101161154D01*
X160133445Y-101142436D01*
X160131303Y-101141971D01*
X160129492Y-101140732D01*
X160087202Y-101122680D01*
X160085086Y-101122235D01*
X160083295Y-101121028D01*
X160041366Y-101103461D01*
X160039332Y-101103048D01*
X160037607Y-101101901D01*
X159995649Y-101084639D01*
X159993761Y-101084268D01*
X159992150Y-101083211D01*
X159949775Y-101066073D01*
X159948072Y-101065749D01*
X159946619Y-101064807D01*
X159903441Y-101047614D01*
X159900839Y-101047134D01*
X159898607Y-101045712D01*
X159887229Y-101041289D01*
X159877684Y-101039607D01*
X159869357Y-101034651D01*
X159812434Y-101014479D01*
X159798770Y-101012495D01*
X159786614Y-101005950D01*
X159726162Y-100987413D01*
X159713268Y-100986104D01*
X159701618Y-100980426D01*
X159640521Y-100964359D01*
X159626555Y-100963509D01*
X159613725Y-100957934D01*
X159554870Y-100945171D01*
X159545202Y-100945005D01*
X159536219Y-100941419D01*
X159514255Y-100937344D01*
X159508873Y-100937413D01*
X159503842Y-100935502D01*
X159477314Y-100931038D01*
X159468297Y-100931305D01*
X159459779Y-100928340D01*
X159435232Y-100924915D01*
X159424113Y-100925557D01*
X159413471Y-100922262D01*
X159389402Y-100919751D01*
X159378029Y-100920805D01*
X159367008Y-100917817D01*
X159341909Y-100916098D01*
X159332211Y-100917346D01*
X159322701Y-100915076D01*
X159295070Y-100914027D01*
X159288064Y-100915146D01*
X159281130Y-100913652D01*
X159249459Y-100913149D01*
X159245098Y-100913945D01*
X159240748Y-100913070D01*
X159203533Y-100912992D01*
X159201640Y-100913364D01*
X159199750Y-100912996D01*
X159173266Y-100913099D01*
X159171291Y-100913500D01*
X159169312Y-100913127D01*
X159143586Y-100913388D01*
X159139479Y-100914248D01*
X159135344Y-100913525D01*
X159114088Y-100914018D01*
X159107375Y-100915516D01*
X159100577Y-100914476D01*
X159082397Y-100915287D01*
X159073449Y-100917485D01*
X159064304Y-100916354D01*
X159047803Y-100917565D01*
X159038221Y-100920213D01*
X159028323Y-100919298D01*
X159012107Y-100920994D01*
X159004177Y-100923452D01*
X158995895Y-100922902D01*
X158978566Y-100925168D01*
X158973655Y-100926830D01*
X158968473Y-100926570D01*
X158948637Y-100929490D01*
X158944334Y-100931024D01*
X158939768Y-100930860D01*
X158893300Y-100938376D01*
X158884333Y-100941717D01*
X158874768Y-100941658D01*
X158794627Y-100957082D01*
X158781494Y-100962427D01*
X158767327Y-100962965D01*
X158692061Y-100980932D01*
X158677675Y-100987542D01*
X158661903Y-100988923D01*
X158590283Y-101009805D01*
X158575398Y-101017555D01*
X158558780Y-101019892D01*
X158489578Y-101044064D01*
X158475101Y-101052593D01*
X158458607Y-101055801D01*
X158390593Y-101083636D01*
X158377349Y-101092404D01*
X158361924Y-101096206D01*
X158293870Y-101128078D01*
X158286011Y-101133860D01*
X158276616Y-101136481D01*
X158255629Y-101147098D01*
X158246575Y-101154193D01*
X158235615Y-101157678D01*
X158165800Y-101196198D01*
X158150561Y-101209048D01*
X158131978Y-101216257D01*
X158067546Y-101257231D01*
X158051919Y-101272166D01*
X158032340Y-101281326D01*
X157972086Y-101325622D01*
X157957297Y-101341802D01*
X157938120Y-101352430D01*
X157880840Y-101400913D01*
X157867895Y-101417185D01*
X157850404Y-101428420D01*
X157794895Y-101481958D01*
X157788101Y-101491739D01*
X157778327Y-101498542D01*
X157765184Y-101512195D01*
X157758599Y-101522469D01*
X157748860Y-101529812D01*
X157700027Y-101584558D01*
X157688972Y-101603339D01*
X157672504Y-101617613D01*
X157629815Y-101672584D01*
X157619131Y-101693936D01*
X157602305Y-101710876D01*
X157565078Y-101767001D01*
X157555714Y-101789825D01*
X157539728Y-101808617D01*
X157507279Y-101866826D01*
X157502561Y-101881443D01*
X157493181Y-101893604D01*
X157486586Y-101906892D01*
X157484524Y-101914511D01*
X157479860Y-101920875D01*
X157467029Y-101948406D01*
X157464929Y-101956994D01*
X157459901Y-101964267D01*
X157458980Y-101966393D01*
X157454051Y-101970809D01*
X157452000Y-101972641D01*
X157452000Y-92819139D01*
X157620600Y-91971528D01*
X158061570Y-91311570D01*
X158721529Y-90870600D01*
X159569139Y-90702000D01*
X162636685Y-90702000D01*
X162046726Y-90945766D01*
X162046726Y-90945766D01*
G37*
X162046726Y-90945766D02*
X161447869Y-91543578D01*
X161123370Y-92325057D01*
X161122632Y-93171230D01*
X161445766Y-93953274D01*
X162043578Y-94552131D01*
X162825057Y-94876630D01*
X163671230Y-94877368D01*
X164453274Y-94554234D01*
X165052131Y-93956422D01*
X165371318Y-93187735D01*
X165520820Y-93939332D01*
X165625639Y-94192389D01*
X166221764Y-95084554D01*
X166415446Y-95278236D01*
X167307611Y-95874361D01*
X167560668Y-95979180D01*
X168613046Y-96188511D01*
X168682187Y-96188511D01*
X168718740Y-96195782D01*
X168296036Y-96478224D01*
X167939878Y-97011251D01*
X167814812Y-97640000D01*
X167939878Y-98268749D01*
X168296036Y-98801776D01*
X168445203Y-98901447D01*
X168097945Y-99248100D01*
X167847286Y-99851753D01*
X167846716Y-100505379D01*
X168096320Y-101109469D01*
X168436446Y-101450189D01*
X168097945Y-101788100D01*
X167847286Y-102391753D01*
X167846716Y-103045379D01*
X168096320Y-103649469D01*
X168141274Y-103694501D01*
X168114302Y-103705673D01*
X167935673Y-103884301D01*
X167839000Y-104117690D01*
X167839000Y-104974250D01*
X167997750Y-105133000D01*
X169363000Y-105133000D01*
X169363000Y-105113000D01*
X169617000Y-105113000D01*
X169617000Y-105133000D01*
X169637000Y-105133000D01*
X169637000Y-105387000D01*
X169617000Y-105387000D01*
X169617000Y-105407000D01*
X169363000Y-105407000D01*
X169363000Y-105387000D01*
X167997750Y-105387000D01*
X167839000Y-105545750D01*
X167839000Y-106402310D01*
X167935673Y-106635699D01*
X168114302Y-106814327D01*
X168140812Y-106825308D01*
X168097945Y-106868100D01*
X167847286Y-107471753D01*
X167846841Y-107981711D01*
X165441952Y-110386600D01*
X162301425Y-110386600D01*
X162428327Y-110259699D01*
X162525000Y-110026310D01*
X162525000Y-110008750D01*
X162402138Y-109885888D01*
X162428327Y-109859699D01*
X162525000Y-109626310D01*
X162525000Y-109608750D01*
X162516250Y-109600000D01*
X162525000Y-109591250D01*
X162525000Y-109573690D01*
X162453055Y-109400000D01*
X162525000Y-109226310D01*
X162525000Y-109208750D01*
X162516250Y-109200000D01*
X162525000Y-109191250D01*
X162525000Y-109173690D01*
X162453055Y-109000000D01*
X162525000Y-108826310D01*
X162525000Y-108808750D01*
X162516250Y-108800000D01*
X162525000Y-108791250D01*
X162525000Y-108773690D01*
X162453055Y-108600000D01*
X162525000Y-108426310D01*
X162525000Y-108408750D01*
X162516250Y-108400000D01*
X162525000Y-108391250D01*
X162525000Y-108373690D01*
X162453055Y-108200000D01*
X162525000Y-108026310D01*
X162525000Y-108008750D01*
X162516250Y-108000000D01*
X162525000Y-107991250D01*
X162525000Y-107973690D01*
X162453055Y-107800000D01*
X162525000Y-107626310D01*
X162525000Y-107608750D01*
X162516250Y-107600000D01*
X162525000Y-107591250D01*
X162525000Y-107573690D01*
X162453055Y-107400000D01*
X162525000Y-107226310D01*
X162525000Y-107208750D01*
X162516250Y-107200000D01*
X162525000Y-107191250D01*
X162525000Y-107173690D01*
X162453055Y-107000000D01*
X162525000Y-106826310D01*
X162525000Y-106808750D01*
X162516250Y-106800000D01*
X162525000Y-106791250D01*
X162525000Y-106773690D01*
X162453055Y-106600000D01*
X162525000Y-106426310D01*
X162525000Y-106408750D01*
X162516250Y-106400000D01*
X162525000Y-106391250D01*
X162525000Y-106373690D01*
X162428327Y-106140301D01*
X162402138Y-106114112D01*
X162525000Y-105991250D01*
X162525000Y-105973690D01*
X162428327Y-105740301D01*
X162249698Y-105561673D01*
X162016309Y-105465000D01*
X161825750Y-105465000D01*
X161667000Y-105623750D01*
X161667000Y-109900000D01*
X161413000Y-109900000D01*
X161413000Y-105623750D01*
X161254250Y-105465000D01*
X161063691Y-105465000D01*
X160830302Y-105561673D01*
X160651673Y-105740301D01*
X160555000Y-105973690D01*
X160555000Y-105991250D01*
X160677862Y-106114112D01*
X160651673Y-106140301D01*
X160555000Y-106373690D01*
X160555000Y-106391250D01*
X160563750Y-106400000D01*
X160555000Y-106408750D01*
X160555000Y-106426310D01*
X160626945Y-106600000D01*
X160555000Y-106773690D01*
X160555000Y-106791250D01*
X160563750Y-106800000D01*
X160555000Y-106808750D01*
X160555000Y-106826310D01*
X160626945Y-107000000D01*
X160555000Y-107173690D01*
X160555000Y-107191250D01*
X160563750Y-107200000D01*
X160555000Y-107208750D01*
X160555000Y-107226310D01*
X160626945Y-107400000D01*
X160555000Y-107573690D01*
X160555000Y-107591250D01*
X160563750Y-107600000D01*
X160555000Y-107608750D01*
X160555000Y-107626310D01*
X160626945Y-107800000D01*
X160555000Y-107973690D01*
X160555000Y-107991250D01*
X160563750Y-108000000D01*
X160555000Y-108008750D01*
X160555000Y-108026310D01*
X160626945Y-108200000D01*
X160555000Y-108373690D01*
X160555000Y-108391250D01*
X160563750Y-108400000D01*
X160555000Y-108408750D01*
X160555000Y-108426310D01*
X160626945Y-108600000D01*
X160555000Y-108773690D01*
X160555000Y-108791250D01*
X160563750Y-108800000D01*
X160555000Y-108808750D01*
X160555000Y-108826310D01*
X160626945Y-109000000D01*
X160555000Y-109173690D01*
X160555000Y-109191250D01*
X160563750Y-109200000D01*
X160555000Y-109208750D01*
X160555000Y-109226310D01*
X160626945Y-109400000D01*
X160555000Y-109573690D01*
X160555000Y-109591250D01*
X160563750Y-109600000D01*
X160555000Y-109608750D01*
X160555000Y-109626310D01*
X160651673Y-109859699D01*
X160677862Y-109885888D01*
X160555000Y-110008750D01*
X160555000Y-110026310D01*
X160651673Y-110259699D01*
X160778575Y-110386600D01*
X160373400Y-110386600D01*
X160373400Y-106710000D01*
X160294737Y-106314535D01*
X160070724Y-105979276D01*
X159735465Y-105755263D01*
X159340000Y-105676600D01*
X158944535Y-105755263D01*
X158732710Y-105896800D01*
X158711048Y-105896800D01*
X158706177Y-105870909D01*
X158779731Y-105693771D01*
X158780068Y-105307921D01*
X158632720Y-104951314D01*
X158360121Y-104678239D01*
X158003771Y-104530269D01*
X157617921Y-104529932D01*
X157452000Y-104598490D01*
X157452000Y-103285947D01*
X157457328Y-103288139D01*
X157457934Y-103288258D01*
X157458446Y-103288597D01*
X157486829Y-103300209D01*
X157487327Y-103300306D01*
X157487747Y-103300583D01*
X157516976Y-103312487D01*
X157517708Y-103313739D01*
X157518668Y-103319837D01*
X157536375Y-103367979D01*
X157540318Y-103374427D01*
X157541668Y-103381863D01*
X157559079Y-103425971D01*
X157563737Y-103433202D01*
X157565500Y-103441621D01*
X157583122Y-103482986D01*
X157588186Y-103490403D01*
X157590271Y-103499137D01*
X157608608Y-103539051D01*
X157614466Y-103547135D01*
X157617084Y-103556768D01*
X157662176Y-103647381D01*
X157669907Y-103657381D01*
X157673699Y-103669436D01*
X157730807Y-103773692D01*
X157740041Y-103784711D01*
X157744965Y-103798218D01*
X157805089Y-103897183D01*
X157815261Y-103908272D01*
X157821072Y-103922152D01*
X157884073Y-104015668D01*
X157895277Y-104026787D01*
X157902081Y-104041028D01*
X157967818Y-104128939D01*
X157980167Y-104140043D01*
X157988093Y-104154638D01*
X158056428Y-104236785D01*
X158070024Y-104247793D01*
X158079199Y-104262687D01*
X158149990Y-104338913D01*
X158164954Y-104349732D01*
X158175528Y-104364870D01*
X158248637Y-104435017D01*
X158265072Y-104445514D01*
X158277193Y-104460794D01*
X158352480Y-104524703D01*
X158370479Y-104534712D01*
X158384291Y-104549994D01*
X158461615Y-104607509D01*
X158481248Y-104616828D01*
X158496878Y-104631924D01*
X158576100Y-104682888D01*
X158597400Y-104691280D01*
X158614960Y-104705965D01*
X158695941Y-104750219D01*
X158710531Y-104754793D01*
X158722715Y-104764032D01*
X158740823Y-104772834D01*
X158754662Y-104776458D01*
X158766433Y-104784584D01*
X158833615Y-104813613D01*
X158852944Y-104817763D01*
X158869875Y-104827970D01*
X158942088Y-104854015D01*
X158959630Y-104856663D01*
X158975307Y-104864967D01*
X159051363Y-104887729D01*
X159067890Y-104889295D01*
X159082942Y-104896296D01*
X159161653Y-104915476D01*
X159177819Y-104916166D01*
X159192814Y-104922241D01*
X159272992Y-104937541D01*
X159289404Y-104937413D01*
X159304913Y-104942790D01*
X159385369Y-104953912D01*
X159402664Y-104952891D01*
X159419316Y-104957673D01*
X159498862Y-104964316D01*
X159512080Y-104962816D01*
X159525005Y-104965954D01*
X159554509Y-104967190D01*
X159562272Y-104965981D01*
X159569950Y-104967648D01*
X159615167Y-104968436D01*
X159622186Y-104967167D01*
X159629190Y-104968525D01*
X159677675Y-104968294D01*
X159683756Y-104967054D01*
X159689869Y-104968118D01*
X159739563Y-104966922D01*
X159745534Y-104965584D01*
X159751580Y-104966518D01*
X159800428Y-104964412D01*
X159807062Y-104962792D01*
X159813837Y-104963692D01*
X159859783Y-104960732D01*
X159868214Y-104958483D01*
X159876887Y-104959396D01*
X159917874Y-104955636D01*
X159926692Y-104953025D01*
X159935862Y-104953726D01*
X160000700Y-104945901D01*
X160009342Y-104943071D01*
X160018427Y-104943507D01*
X160087922Y-104933117D01*
X160099157Y-104929083D01*
X160111095Y-104929211D01*
X160176181Y-104916991D01*
X160189010Y-104911838D01*
X160202829Y-104911391D01*
X160264879Y-104896949D01*
X160278505Y-104890782D01*
X160293413Y-104889602D01*
X160353797Y-104872545D01*
X160367209Y-104865704D01*
X160382144Y-104863814D01*
X160442234Y-104843751D01*
X160454503Y-104836749D01*
X160468426Y-104834360D01*
X160529594Y-104810897D01*
X160540041Y-104804309D01*
X160552127Y-104801753D01*
X160615743Y-104774499D01*
X160624075Y-104768785D01*
X160633890Y-104766385D01*
X160701328Y-104734948D01*
X160704797Y-104732405D01*
X160708963Y-104731327D01*
X160710795Y-104730443D01*
X160711423Y-104729969D01*
X160712186Y-104729770D01*
X160733051Y-104719639D01*
X160734516Y-104718529D01*
X160736288Y-104718055D01*
X160756538Y-104708080D01*
X160758335Y-104706702D01*
X160760521Y-104706101D01*
X160780601Y-104696032D01*
X160782564Y-104694505D01*
X160784957Y-104693827D01*
X160805317Y-104683421D01*
X160807355Y-104681810D01*
X160809848Y-104681082D01*
X160830933Y-104670090D01*
X160832870Y-104668534D01*
X160835251Y-104667818D01*
X160857511Y-104655994D01*
X160859283Y-104654547D01*
X160861470Y-104653873D01*
X160885352Y-104640969D01*
X160886886Y-104639699D01*
X160888786Y-104639100D01*
X160914736Y-104624870D01*
X160916022Y-104623791D01*
X160917625Y-104623277D01*
X160946093Y-104607472D01*
X160947124Y-104606598D01*
X160948409Y-104606180D01*
X160979842Y-104588557D01*
X160980668Y-104587851D01*
X160981703Y-104587510D01*
X161016548Y-104567819D01*
X161017182Y-104567273D01*
X161017975Y-104567010D01*
X161056680Y-104545005D01*
X161057158Y-104544591D01*
X161057757Y-104544391D01*
X161100770Y-104519825D01*
X161101122Y-104519519D01*
X161101569Y-104519369D01*
X161149337Y-104491994D01*
X161149586Y-104491777D01*
X161149900Y-104491671D01*
X161202871Y-104461243D01*
X161203046Y-104461090D01*
X161203268Y-104461015D01*
X161261613Y-104427444D01*
X161261617Y-104427442D01*
X161281655Y-104415925D01*
X161344848Y-104379916D01*
X161401354Y-104348247D01*
X161452475Y-104320204D01*
X161498575Y-104295587D01*
X161540288Y-104274036D01*
X161578462Y-104255068D01*
X161613978Y-104238194D01*
X161647754Y-104222925D01*
X161681056Y-104208650D01*
X161714974Y-104194879D01*
X161750687Y-104181126D01*
X161789364Y-104166945D01*
X161832208Y-104151900D01*
X161931409Y-104118148D01*
X162056902Y-104076800D01*
X162176280Y-104039094D01*
X162290794Y-104004658D01*
X162401125Y-103973304D01*
X162508401Y-103944715D01*
X162613219Y-103918733D01*
X162716678Y-103895072D01*
X162819718Y-103873508D01*
X162923411Y-103853805D01*
X163028501Y-103835807D01*
X163136272Y-103819277D01*
X163247371Y-103804096D01*
X163362798Y-103790096D01*
X163484804Y-103776984D01*
X163507918Y-103774676D01*
X163585120Y-103767363D01*
X163662329Y-103760649D01*
X163741105Y-103754410D01*
X163822025Y-103748617D01*
X163905937Y-103743220D01*
X163993055Y-103738217D01*
X164084456Y-103733554D01*
X164180137Y-103729233D01*
X164281485Y-103725193D01*
X164388255Y-103721441D01*
X164501244Y-103717942D01*
X164621920Y-103714643D01*
X164635020Y-103714305D01*
X164635268Y-103714249D01*
X164635518Y-103714292D01*
X164709848Y-103712317D01*
X164710381Y-103712196D01*
X164710923Y-103712288D01*
X164778620Y-103710374D01*
X164779355Y-103710206D01*
X164780095Y-103710330D01*
X164841514Y-103708450D01*
X164842508Y-103708220D01*
X164843518Y-103708386D01*
X164899017Y-103706511D01*
X164900341Y-103706201D01*
X164901681Y-103706415D01*
X164951617Y-103704517D01*
X164953365Y-103704100D01*
X164955139Y-103704373D01*
X164999868Y-103702423D01*
X165002133Y-103701869D01*
X165004439Y-103702207D01*
X165044321Y-103700179D01*
X165047277Y-103699433D01*
X165050301Y-103699847D01*
X165085690Y-103697711D01*
X165089512Y-103696708D01*
X165093433Y-103697196D01*
X165124689Y-103694924D01*
X165129596Y-103693572D01*
X165134655Y-103694120D01*
X165162135Y-103691685D01*
X165168432Y-103689842D01*
X165174970Y-103690416D01*
X165199032Y-103687788D01*
X165206993Y-103685280D01*
X165215322Y-103685794D01*
X165236321Y-103682947D01*
X165246305Y-103679515D01*
X165256859Y-103679818D01*
X165275155Y-103676722D01*
X165287371Y-103672068D01*
X165300447Y-103671911D01*
X165316395Y-103668539D01*
X165330884Y-103662332D01*
X165346613Y-103661369D01*
X165360571Y-103657693D01*
X165376969Y-103649693D01*
X165395092Y-103647543D01*
X165407418Y-103643534D01*
X165424783Y-103633803D01*
X165444366Y-103630234D01*
X165455416Y-103625864D01*
X165472233Y-103615015D01*
X165491657Y-103610205D01*
X165501790Y-103605446D01*
X165522448Y-103590212D01*
X165546790Y-103582064D01*
X165557316Y-103576046D01*
X165582154Y-103554450D01*
X165589865Y-103551698D01*
X165608775Y-103534586D01*
X165647101Y-103513845D01*
X165668824Y-103495829D01*
X165696284Y-103462015D01*
X165700254Y-103459087D01*
X165703150Y-103454285D01*
X165715788Y-103446380D01*
X165730999Y-103425034D01*
X165743406Y-103414247D01*
X165744762Y-103411526D01*
X165772708Y-103386237D01*
X165789879Y-103363122D01*
X165804511Y-103332248D01*
X165804794Y-103331988D01*
X165808729Y-103323549D01*
X165824277Y-103304404D01*
X165829526Y-103286772D01*
X165858895Y-103245559D01*
X165871486Y-103217574D01*
X165883435Y-103165710D01*
X165895484Y-103140285D01*
X165895639Y-103137189D01*
X165909017Y-103108501D01*
X165917002Y-103075874D01*
X165919082Y-103028269D01*
X165932550Y-102982561D01*
X165935900Y-102945520D01*
X165931781Y-102906862D01*
X165938150Y-102868507D01*
X165936839Y-102827280D01*
X165929601Y-102796106D01*
X165931658Y-102764172D01*
X165925658Y-102718989D01*
X165917032Y-102693671D01*
X165916515Y-102666929D01*
X165905799Y-102618017D01*
X165896680Y-102597151D01*
X165894622Y-102574471D01*
X165879162Y-102522057D01*
X165871531Y-102507513D01*
X165869212Y-102491256D01*
X165855347Y-102451816D01*
X165849163Y-102441368D01*
X165846995Y-102429420D01*
X165825359Y-102374595D01*
X165819305Y-102365196D01*
X165816927Y-102354272D01*
X165791375Y-102295593D01*
X165785940Y-102287768D01*
X165783638Y-102278521D01*
X165754564Y-102216820D01*
X165749503Y-102209975D01*
X165747229Y-102201775D01*
X165715028Y-102137882D01*
X165710141Y-102131626D01*
X165707832Y-102124033D01*
X165672900Y-102058783D01*
X165668010Y-102052832D01*
X165665593Y-102045518D01*
X165628324Y-101979740D01*
X165625972Y-101977013D01*
X165624805Y-101973611D01*
X165620526Y-101966251D01*
X165620008Y-101965664D01*
X165619752Y-101964924D01*
X165607474Y-101943926D01*
X165602725Y-101938570D01*
X165600237Y-101931860D01*
X165589279Y-101914042D01*
X165577033Y-101900837D01*
X165569835Y-101884330D01*
X165559564Y-101869558D01*
X165535754Y-101846614D01*
X165519473Y-101817833D01*
X165509255Y-101805972D01*
X165469140Y-101774627D01*
X165437328Y-101734883D01*
X165426531Y-101725799D01*
X165405790Y-101714385D01*
X165399797Y-101707342D01*
X165360827Y-101687398D01*
X165318387Y-101652465D01*
X165306377Y-101646023D01*
X165290596Y-101641211D01*
X165290064Y-101640777D01*
X165250418Y-101628878D01*
X165210491Y-101606905D01*
X165201626Y-101605922D01*
X165180280Y-101594998D01*
X165166426Y-101591064D01*
X165111702Y-101586659D01*
X165070505Y-101574096D01*
X165068528Y-101574288D01*
X165053878Y-101569891D01*
X165037545Y-101568331D01*
X164996324Y-101572514D01*
X164955431Y-101565852D01*
X164935987Y-101566530D01*
X164909677Y-101572724D01*
X164882726Y-101570646D01*
X164859538Y-101573428D01*
X164843900Y-101578537D01*
X164827455Y-101578115D01*
X164799890Y-101582867D01*
X164791248Y-101586190D01*
X164781992Y-101586219D01*
X164749419Y-101592805D01*
X164745261Y-101594543D01*
X164740756Y-101594620D01*
X164702539Y-101602907D01*
X164701233Y-101603474D01*
X164699809Y-101603505D01*
X164655682Y-101613278D01*
X164569437Y-101632260D01*
X164422593Y-101664063D01*
X164276632Y-101695035D01*
X164132696Y-101724941D01*
X163990401Y-101753875D01*
X163850191Y-101781754D01*
X163712818Y-101808435D01*
X163578260Y-101833929D01*
X163447325Y-101858088D01*
X163319729Y-101880967D01*
X163196789Y-101902333D01*
X163078078Y-101922263D01*
X162964462Y-101940611D01*
X162856359Y-101957310D01*
X162754146Y-101972305D01*
X162658310Y-101985528D01*
X162569534Y-101996889D01*
X162486903Y-102006506D01*
X162430276Y-102012574D01*
X162377170Y-102017903D01*
X162331174Y-102022092D01*
X162291976Y-102025195D01*
X162259112Y-102027301D01*
X162232004Y-102028542D01*
X162209782Y-102029077D01*
X162191405Y-102029070D01*
X162175343Y-102028639D01*
X162159992Y-102027813D01*
X162141272Y-102026320D01*
X162139328Y-102026135D01*
X162115300Y-102023557D01*
X162090397Y-102020509D01*
X162065077Y-102017066D01*
X162041911Y-102013601D01*
X162023832Y-102010610D01*
X162015587Y-102009071D01*
X162006513Y-102007059D01*
X161992624Y-102006756D01*
X161979679Y-102001717D01*
X161977330Y-102001302D01*
X161965462Y-102001557D01*
X161952487Y-101991409D01*
X161948547Y-101989420D01*
X161930334Y-101984359D01*
X161914786Y-101973613D01*
X161905137Y-101969438D01*
X161900190Y-101968373D01*
X161895983Y-101965562D01*
X161881528Y-101959575D01*
X161878995Y-101959071D01*
X161876835Y-101957653D01*
X161858466Y-101950217D01*
X161856669Y-101949875D01*
X161855134Y-101948879D01*
X161833741Y-101940360D01*
X161832224Y-101940080D01*
X161830928Y-101939248D01*
X161807405Y-101930010D01*
X161807402Y-101930010D01*
X161775852Y-101917619D01*
X161737465Y-101902288D01*
X161700333Y-101887142D01*
X161663554Y-101871800D01*
X161626435Y-101855955D01*
X161588576Y-101839421D01*
X161548824Y-101821680D01*
X161507254Y-101802749D01*
X161462613Y-101782047D01*
X161414959Y-101759592D01*
X161363383Y-101734950D01*
X161307453Y-101707916D01*
X161246974Y-101678399D01*
X161181478Y-101646179D01*
X161110253Y-101610921D01*
X161032408Y-101572193D01*
X161032407Y-101572193D01*
X161010085Y-101561068D01*
X161009875Y-101561011D01*
X161009703Y-101560878D01*
X160921686Y-101517087D01*
X160921286Y-101516978D01*
X160920956Y-101516724D01*
X160838724Y-101475944D01*
X160838223Y-101475808D01*
X160837812Y-101475493D01*
X160760979Y-101437544D01*
X160760366Y-101437379D01*
X160759861Y-101436993D01*
X160688040Y-101401695D01*
X160687305Y-101401499D01*
X160686701Y-101401039D01*
X160619503Y-101368210D01*
X160618618Y-101367976D01*
X160617887Y-101367423D01*
X160554923Y-101336884D01*
X160553884Y-101336613D01*
X160553026Y-101335968D01*
X160493910Y-101307539D01*
X160492709Y-101307230D01*
X160491714Y-101306488D01*
X160436058Y-101279986D01*
X160434674Y-101279636D01*
X160433523Y-101278785D01*
X160380939Y-101254032D01*
X160379378Y-101253644D01*
X160378077Y-101252693D01*
X160328179Y-101229509D01*
X160326442Y-101229086D01*
X160324991Y-101228038D01*
X160277390Y-101206241D01*
X160275505Y-101205793D01*
X160273926Y-101204667D01*
X160228234Y-101184076D01*
X160226216Y-101183610D01*
X160224524Y-101182419D01*
X160180355Y-101162855D01*
X160178250Y-101162383D01*
X160176479Y-101161154D01*
X160133445Y-101142436D01*
X160131303Y-101141971D01*
X160129492Y-101140732D01*
X160087202Y-101122680D01*
X160085086Y-101122235D01*
X160083295Y-101121028D01*
X160041366Y-101103461D01*
X160039332Y-101103048D01*
X160037607Y-101101901D01*
X159995649Y-101084639D01*
X159993761Y-101084268D01*
X159992150Y-101083211D01*
X159949775Y-101066073D01*
X159948072Y-101065749D01*
X159946619Y-101064807D01*
X159903441Y-101047614D01*
X159900839Y-101047134D01*
X159898607Y-101045712D01*
X159887229Y-101041289D01*
X159877684Y-101039607D01*
X159869357Y-101034651D01*
X159812434Y-101014479D01*
X159798770Y-101012495D01*
X159786614Y-101005950D01*
X159726162Y-100987413D01*
X159713268Y-100986104D01*
X159701618Y-100980426D01*
X159640521Y-100964359D01*
X159626555Y-100963509D01*
X159613725Y-100957934D01*
X159554870Y-100945171D01*
X159545202Y-100945005D01*
X159536219Y-100941419D01*
X159514255Y-100937344D01*
X159508873Y-100937413D01*
X159503842Y-100935502D01*
X159477314Y-100931038D01*
X159468297Y-100931305D01*
X159459779Y-100928340D01*
X159435232Y-100924915D01*
X159424113Y-100925557D01*
X159413471Y-100922262D01*
X159389402Y-100919751D01*
X159378029Y-100920805D01*
X159367008Y-100917817D01*
X159341909Y-100916098D01*
X159332211Y-100917346D01*
X159322701Y-100915076D01*
X159295070Y-100914027D01*
X159288064Y-100915146D01*
X159281130Y-100913652D01*
X159249459Y-100913149D01*
X159245098Y-100913945D01*
X159240748Y-100913070D01*
X159203533Y-100912992D01*
X159201640Y-100913364D01*
X159199750Y-100912996D01*
X159173266Y-100913099D01*
X159171291Y-100913500D01*
X159169312Y-100913127D01*
X159143586Y-100913388D01*
X159139479Y-100914248D01*
X159135344Y-100913525D01*
X159114088Y-100914018D01*
X159107375Y-100915516D01*
X159100577Y-100914476D01*
X159082397Y-100915287D01*
X159073449Y-100917485D01*
X159064304Y-100916354D01*
X159047803Y-100917565D01*
X159038221Y-100920213D01*
X159028323Y-100919298D01*
X159012107Y-100920994D01*
X159004177Y-100923452D01*
X158995895Y-100922902D01*
X158978566Y-100925168D01*
X158973655Y-100926830D01*
X158968473Y-100926570D01*
X158948637Y-100929490D01*
X158944334Y-100931024D01*
X158939768Y-100930860D01*
X158893300Y-100938376D01*
X158884333Y-100941717D01*
X158874768Y-100941658D01*
X158794627Y-100957082D01*
X158781494Y-100962427D01*
X158767327Y-100962965D01*
X158692061Y-100980932D01*
X158677675Y-100987542D01*
X158661903Y-100988923D01*
X158590283Y-101009805D01*
X158575398Y-101017555D01*
X158558780Y-101019892D01*
X158489578Y-101044064D01*
X158475101Y-101052593D01*
X158458607Y-101055801D01*
X158390593Y-101083636D01*
X158377349Y-101092404D01*
X158361924Y-101096206D01*
X158293870Y-101128078D01*
X158286011Y-101133860D01*
X158276616Y-101136481D01*
X158255629Y-101147098D01*
X158246575Y-101154193D01*
X158235615Y-101157678D01*
X158165800Y-101196198D01*
X158150561Y-101209048D01*
X158131978Y-101216257D01*
X158067546Y-101257231D01*
X158051919Y-101272166D01*
X158032340Y-101281326D01*
X157972086Y-101325622D01*
X157957297Y-101341802D01*
X157938120Y-101352430D01*
X157880840Y-101400913D01*
X157867895Y-101417185D01*
X157850404Y-101428420D01*
X157794895Y-101481958D01*
X157788101Y-101491739D01*
X157778327Y-101498542D01*
X157765184Y-101512195D01*
X157758599Y-101522469D01*
X157748860Y-101529812D01*
X157700027Y-101584558D01*
X157688972Y-101603339D01*
X157672504Y-101617613D01*
X157629815Y-101672584D01*
X157619131Y-101693936D01*
X157602305Y-101710876D01*
X157565078Y-101767001D01*
X157555714Y-101789825D01*
X157539728Y-101808617D01*
X157507279Y-101866826D01*
X157502561Y-101881443D01*
X157493181Y-101893604D01*
X157486586Y-101906892D01*
X157484524Y-101914511D01*
X157479860Y-101920875D01*
X157467029Y-101948406D01*
X157464929Y-101956994D01*
X157459901Y-101964267D01*
X157458980Y-101966393D01*
X157454051Y-101970809D01*
X157452000Y-101972641D01*
X157452000Y-92819139D01*
X157620600Y-91971528D01*
X158061570Y-91311570D01*
X158721529Y-90870600D01*
X159569139Y-90702000D01*
X162636685Y-90702000D01*
X162046726Y-90945766D01*
M02*
