G04 #@! TF.FileFunction,Legend,Top*
%FSLAX46Y46*%
G04 Gerber Fmt 4.6, Leading zero omitted, Abs format (unit mm)*
G04 Created by KiCad (PCBNEW 4.0.1-stable) date Sunday, January 10, 2016 'PMt' 10:42:02 PM*
%MOMM*%
G01*
G04 APERTURE LIST*
%ADD10C,0.100000*%
%ADD11C,0.200000*%
%ADD12C,0.300000*%
%ADD13C,0.150000*%
G04 APERTURE END LIST*
D10*
D11*
X158965476Y-116842381D02*
X158965476Y-117556667D01*
X158965476Y-117199524D02*
X157715476Y-117199524D01*
X157894048Y-117318572D01*
X158013095Y-117437619D01*
X158072619Y-117556667D01*
X158846429Y-116306667D02*
X158905952Y-116247143D01*
X158965476Y-116306667D01*
X158905952Y-116366191D01*
X158846429Y-116306667D01*
X158965476Y-116306667D01*
X157715476Y-115116191D02*
X157715476Y-115711429D01*
X158310714Y-115770953D01*
X158251190Y-115711429D01*
X158191667Y-115592381D01*
X158191667Y-115294762D01*
X158251190Y-115175715D01*
X158310714Y-115116191D01*
X158429762Y-115056667D01*
X158727381Y-115056667D01*
X158846429Y-115116191D01*
X158905952Y-115175715D01*
X158965476Y-115294762D01*
X158965476Y-115592381D01*
X158905952Y-115711429D01*
X158846429Y-115770953D01*
X158965476Y-114520953D02*
X158132143Y-114520953D01*
X158251190Y-114520953D02*
X158191667Y-114461429D01*
X158132143Y-114342382D01*
X158132143Y-114163810D01*
X158191667Y-114044762D01*
X158310714Y-113985239D01*
X158965476Y-113985239D01*
X158310714Y-113985239D02*
X158191667Y-113925715D01*
X158132143Y-113806667D01*
X158132143Y-113628096D01*
X158191667Y-113509048D01*
X158310714Y-113449524D01*
X158965476Y-113449524D01*
X158965476Y-112854286D02*
X158132143Y-112854286D01*
X158251190Y-112854286D02*
X158191667Y-112794762D01*
X158132143Y-112675715D01*
X158132143Y-112497143D01*
X158191667Y-112378095D01*
X158310714Y-112318572D01*
X158965476Y-112318572D01*
X158310714Y-112318572D02*
X158191667Y-112259048D01*
X158132143Y-112140000D01*
X158132143Y-111961429D01*
X158191667Y-111842381D01*
X158310714Y-111782857D01*
X158965476Y-111782857D01*
D12*
X164351429Y-110161429D02*
X164422858Y-110090000D01*
X164565715Y-110018571D01*
X164922858Y-110018571D01*
X165065715Y-110090000D01*
X165137144Y-110161429D01*
X165208572Y-110304286D01*
X165208572Y-110447143D01*
X165137144Y-110661429D01*
X164280001Y-111518571D01*
X165208572Y-111518571D01*
X166922857Y-111090000D02*
X167637143Y-111090000D01*
X166780000Y-111518571D02*
X167280000Y-110018571D01*
X167780000Y-111518571D01*
X168280000Y-111518571D02*
X168280000Y-110518571D01*
X168280000Y-110661429D02*
X168351428Y-110590000D01*
X168494286Y-110518571D01*
X168708571Y-110518571D01*
X168851428Y-110590000D01*
X168922857Y-110732857D01*
X168922857Y-111518571D01*
X168922857Y-110732857D02*
X168994286Y-110590000D01*
X169137143Y-110518571D01*
X169351428Y-110518571D01*
X169494286Y-110590000D01*
X169565714Y-110732857D01*
X169565714Y-111518571D01*
X170280000Y-110518571D02*
X170280000Y-112018571D01*
X170280000Y-110590000D02*
X170422857Y-110518571D01*
X170708571Y-110518571D01*
X170851428Y-110590000D01*
X170922857Y-110661429D01*
X170994286Y-110804286D01*
X170994286Y-111232857D01*
X170922857Y-111375714D01*
X170851428Y-111447143D01*
X170708571Y-111518571D01*
X170422857Y-111518571D01*
X170280000Y-111447143D01*
X160851428Y-113918571D02*
X160851428Y-112418571D01*
X161351428Y-113490000D01*
X161851428Y-112418571D01*
X161851428Y-113918571D01*
X163208571Y-113918571D02*
X163208571Y-113132857D01*
X163137142Y-112990000D01*
X162994285Y-112918571D01*
X162708571Y-112918571D01*
X162565714Y-112990000D01*
X163208571Y-113847143D02*
X163065714Y-113918571D01*
X162708571Y-113918571D01*
X162565714Y-113847143D01*
X162494285Y-113704286D01*
X162494285Y-113561429D01*
X162565714Y-113418571D01*
X162708571Y-113347143D01*
X163065714Y-113347143D01*
X163208571Y-113275714D01*
X163780000Y-113918571D02*
X164565714Y-112918571D01*
X163780000Y-112918571D02*
X164565714Y-113918571D01*
X166280000Y-113918571D02*
X166280000Y-112418571D01*
X166637143Y-112418571D01*
X166851428Y-112490000D01*
X166994286Y-112632857D01*
X167065714Y-112775714D01*
X167137143Y-113061429D01*
X167137143Y-113275714D01*
X167065714Y-113561429D01*
X166994286Y-113704286D01*
X166851428Y-113847143D01*
X166637143Y-113918571D01*
X166280000Y-113918571D01*
X167780000Y-113918571D02*
X167780000Y-112918571D01*
X167780000Y-113204286D02*
X167851428Y-113061429D01*
X167922857Y-112990000D01*
X168065714Y-112918571D01*
X168208571Y-112918571D01*
X169351428Y-113918571D02*
X169351428Y-113132857D01*
X169279999Y-112990000D01*
X169137142Y-112918571D01*
X168851428Y-112918571D01*
X168708571Y-112990000D01*
X169351428Y-113847143D02*
X169208571Y-113918571D01*
X168851428Y-113918571D01*
X168708571Y-113847143D01*
X168637142Y-113704286D01*
X168637142Y-113561429D01*
X168708571Y-113418571D01*
X168851428Y-113347143D01*
X169208571Y-113347143D01*
X169351428Y-113275714D01*
X169922857Y-112918571D02*
X170208571Y-113918571D01*
X170494285Y-113204286D01*
X170780000Y-113918571D01*
X171065714Y-112918571D01*
X165984286Y-116648571D02*
X165984286Y-115148571D01*
X166698572Y-116648571D02*
X166698572Y-115148571D01*
X167555715Y-116648571D01*
X167555715Y-115148571D01*
X164467143Y-117870000D02*
X164324286Y-117798571D01*
X164110000Y-117798571D01*
X163895715Y-117870000D01*
X163752857Y-118012857D01*
X163681429Y-118155714D01*
X163610000Y-118441429D01*
X163610000Y-118655714D01*
X163681429Y-118941429D01*
X163752857Y-119084286D01*
X163895715Y-119227143D01*
X164110000Y-119298571D01*
X164252857Y-119298571D01*
X164467143Y-119227143D01*
X164538572Y-119155714D01*
X164538572Y-118655714D01*
X164252857Y-118655714D01*
X165181429Y-119298571D02*
X165181429Y-117798571D01*
X166038572Y-119298571D01*
X166038572Y-117798571D01*
X166752858Y-119298571D02*
X166752858Y-117798571D01*
X167110001Y-117798571D01*
X167324286Y-117870000D01*
X167467144Y-118012857D01*
X167538572Y-118155714D01*
X167610001Y-118441429D01*
X167610001Y-118655714D01*
X167538572Y-118941429D01*
X167467144Y-119084286D01*
X167324286Y-119227143D01*
X167110001Y-119298571D01*
X166752858Y-119298571D01*
X163941429Y-108077143D02*
X165084286Y-108077143D01*
X164512857Y-108648571D02*
X164512857Y-107505714D01*
X166512858Y-107148571D02*
X165798572Y-107148571D01*
X165727143Y-107862857D01*
X165798572Y-107791429D01*
X165941429Y-107720000D01*
X166298572Y-107720000D01*
X166441429Y-107791429D01*
X166512858Y-107862857D01*
X166584286Y-108005714D01*
X166584286Y-108362857D01*
X166512858Y-108505714D01*
X166441429Y-108577143D01*
X166298572Y-108648571D01*
X165941429Y-108648571D01*
X165798572Y-108577143D01*
X165727143Y-108505714D01*
X167012857Y-107148571D02*
X167512857Y-108648571D01*
X168012857Y-107148571D01*
X164897143Y-104580000D02*
X164754286Y-104508571D01*
X164540000Y-104508571D01*
X164325715Y-104580000D01*
X164182857Y-104722857D01*
X164111429Y-104865714D01*
X164040000Y-105151429D01*
X164040000Y-105365714D01*
X164111429Y-105651429D01*
X164182857Y-105794286D01*
X164325715Y-105937143D01*
X164540000Y-106008571D01*
X164682857Y-106008571D01*
X164897143Y-105937143D01*
X164968572Y-105865714D01*
X164968572Y-105365714D01*
X164682857Y-105365714D01*
X165611429Y-106008571D02*
X165611429Y-104508571D01*
X166468572Y-106008571D01*
X166468572Y-104508571D01*
X167182858Y-106008571D02*
X167182858Y-104508571D01*
X167540001Y-104508571D01*
X167754286Y-104580000D01*
X167897144Y-104722857D01*
X167968572Y-104865714D01*
X168040001Y-105151429D01*
X168040001Y-105365714D01*
X167968572Y-105651429D01*
X167897144Y-105794286D01*
X167754286Y-105937143D01*
X167540001Y-106008571D01*
X167182858Y-106008571D01*
X166174286Y-103658571D02*
X166174286Y-102158571D01*
X166888572Y-103658571D02*
X166888572Y-102158571D01*
X167745715Y-103658571D01*
X167745715Y-102158571D01*
X165562857Y-100142857D02*
X166062857Y-100142857D01*
X166277143Y-100928571D02*
X165562857Y-100928571D01*
X165562857Y-99428571D01*
X166277143Y-99428571D01*
X166920000Y-100928571D02*
X166920000Y-99428571D01*
X167777143Y-100928571D01*
X167777143Y-99428571D01*
X165487143Y-98448571D02*
X165487143Y-96948571D01*
X166058571Y-96948571D01*
X166201429Y-97020000D01*
X166272857Y-97091429D01*
X166344286Y-97234286D01*
X166344286Y-97448571D01*
X166272857Y-97591429D01*
X166201429Y-97662857D01*
X166058571Y-97734286D01*
X165487143Y-97734286D01*
X167772857Y-97020000D02*
X167630000Y-96948571D01*
X167415714Y-96948571D01*
X167201429Y-97020000D01*
X167058571Y-97162857D01*
X166987143Y-97305714D01*
X166915714Y-97591429D01*
X166915714Y-97805714D01*
X166987143Y-98091429D01*
X167058571Y-98234286D01*
X167201429Y-98377143D01*
X167415714Y-98448571D01*
X167558571Y-98448571D01*
X167772857Y-98377143D01*
X167844286Y-98305714D01*
X167844286Y-97805714D01*
X167558571Y-97805714D01*
D13*
X157960000Y-104700000D02*
X161340000Y-104700000D01*
X158900000Y-108000000D02*
X160400000Y-108000000D01*
X159650000Y-104700000D02*
X159650000Y-111300000D01*
X157960000Y-111300000D02*
X161340000Y-111300000D01*
X158680000Y-102015000D02*
X159680000Y-102015000D01*
X159680000Y-103365000D02*
X158680000Y-103365000D01*
X159680000Y-101385000D02*
X158680000Y-101385000D01*
X158680000Y-100035000D02*
X159680000Y-100035000D01*
X162093334Y-103142381D02*
X161760000Y-102666190D01*
X161521905Y-103142381D02*
X161521905Y-102142381D01*
X161902858Y-102142381D01*
X161998096Y-102190000D01*
X162045715Y-102237619D01*
X162093334Y-102332857D01*
X162093334Y-102475714D01*
X162045715Y-102570952D01*
X161998096Y-102618571D01*
X161902858Y-102666190D01*
X161521905Y-102666190D01*
X163045715Y-103142381D02*
X162474286Y-103142381D01*
X162760000Y-103142381D02*
X162760000Y-102142381D01*
X162664762Y-102285238D01*
X162569524Y-102380476D01*
X162474286Y-102428095D01*
X162123334Y-101142381D02*
X161790000Y-100666190D01*
X161551905Y-101142381D02*
X161551905Y-100142381D01*
X161932858Y-100142381D01*
X162028096Y-100190000D01*
X162075715Y-100237619D01*
X162123334Y-100332857D01*
X162123334Y-100475714D01*
X162075715Y-100570952D01*
X162028096Y-100618571D01*
X161932858Y-100666190D01*
X161551905Y-100666190D01*
X162504286Y-100237619D02*
X162551905Y-100190000D01*
X162647143Y-100142381D01*
X162885239Y-100142381D01*
X162980477Y-100190000D01*
X163028096Y-100237619D01*
X163075715Y-100332857D01*
X163075715Y-100428095D01*
X163028096Y-100570952D01*
X162456667Y-101142381D01*
X163075715Y-101142381D01*
M02*
