G04 #@! TF.FileFunction,Legend,Bot*
%FSLAX46Y46*%
G04 Gerber Fmt 4.6, Leading zero omitted, Abs format (unit mm)*
G04 Created by KiCad (PCBNEW 4.0.1-stable) date Saturday, January 30, 2016 'AMt' 12:46:15 AM*
%MOMM*%
G01*
G04 APERTURE LIST*
%ADD10C,0.100000*%
%ADD11C,0.300000*%
%ADD12C,0.250000*%
%ADD13C,0.010000*%
G04 APERTURE END LIST*
D10*
D11*
X163472857Y-94680000D02*
X163615714Y-94608571D01*
X163830000Y-94608571D01*
X164044285Y-94680000D01*
X164187143Y-94822857D01*
X164258571Y-94965714D01*
X164330000Y-95251429D01*
X164330000Y-95465714D01*
X164258571Y-95751429D01*
X164187143Y-95894286D01*
X164044285Y-96037143D01*
X163830000Y-96108571D01*
X163687143Y-96108571D01*
X163472857Y-96037143D01*
X163401428Y-95965714D01*
X163401428Y-95465714D01*
X163687143Y-95465714D01*
X162758571Y-96108571D02*
X162758571Y-94608571D01*
X161901428Y-96108571D01*
X161901428Y-94608571D01*
X161187142Y-96108571D02*
X161187142Y-94608571D01*
X160829999Y-94608571D01*
X160615714Y-94680000D01*
X160472856Y-94822857D01*
X160401428Y-94965714D01*
X160329999Y-95251429D01*
X160329999Y-95465714D01*
X160401428Y-95751429D01*
X160472856Y-95894286D01*
X160615714Y-96037143D01*
X160829999Y-96108571D01*
X161187142Y-96108571D01*
X161585714Y-91718571D02*
X161585714Y-90218571D01*
X160871428Y-91718571D02*
X160871428Y-90218571D01*
X160014285Y-91718571D01*
X160014285Y-90218571D01*
X167992857Y-101628571D02*
X167992857Y-100128571D01*
X167421429Y-100128571D01*
X167278571Y-100200000D01*
X167207143Y-100271429D01*
X167135714Y-100414286D01*
X167135714Y-100628571D01*
X167207143Y-100771429D01*
X167278571Y-100842857D01*
X167421429Y-100914286D01*
X167992857Y-100914286D01*
X165707143Y-100200000D02*
X165850000Y-100128571D01*
X166064286Y-100128571D01*
X166278571Y-100200000D01*
X166421429Y-100342857D01*
X166492857Y-100485714D01*
X166564286Y-100771429D01*
X166564286Y-100985714D01*
X166492857Y-101271429D01*
X166421429Y-101414286D01*
X166278571Y-101557143D01*
X166064286Y-101628571D01*
X165921429Y-101628571D01*
X165707143Y-101557143D01*
X165635714Y-101485714D01*
X165635714Y-100985714D01*
X165921429Y-100985714D01*
X167997143Y-103322857D02*
X167497143Y-103322857D01*
X167282857Y-104108571D02*
X167997143Y-104108571D01*
X167997143Y-102608571D01*
X167282857Y-102608571D01*
X166640000Y-104108571D02*
X166640000Y-102608571D01*
X165782857Y-104108571D01*
X165782857Y-102608571D01*
X167965714Y-106838571D02*
X167965714Y-105338571D01*
X167251428Y-106838571D02*
X167251428Y-105338571D01*
X166394285Y-106838571D01*
X166394285Y-105338571D01*
X167402857Y-107760000D02*
X167545714Y-107688571D01*
X167760000Y-107688571D01*
X167974285Y-107760000D01*
X168117143Y-107902857D01*
X168188571Y-108045714D01*
X168260000Y-108331429D01*
X168260000Y-108545714D01*
X168188571Y-108831429D01*
X168117143Y-108974286D01*
X167974285Y-109117143D01*
X167760000Y-109188571D01*
X167617143Y-109188571D01*
X167402857Y-109117143D01*
X167331428Y-109045714D01*
X167331428Y-108545714D01*
X167617143Y-108545714D01*
X166688571Y-109188571D02*
X166688571Y-107688571D01*
X165831428Y-109188571D01*
X165831428Y-107688571D01*
X165117142Y-109188571D02*
X165117142Y-107688571D01*
X164759999Y-107688571D01*
X164545714Y-107760000D01*
X164402856Y-107902857D01*
X164331428Y-108045714D01*
X164259999Y-108331429D01*
X164259999Y-108545714D01*
X164331428Y-108831429D01*
X164402856Y-108974286D01*
X164545714Y-109117143D01*
X164759999Y-109188571D01*
X165117142Y-109188571D01*
X168018571Y-111257143D02*
X166875714Y-111257143D01*
X167447143Y-111828571D02*
X167447143Y-110685714D01*
X165447142Y-110328571D02*
X166161428Y-110328571D01*
X166232857Y-111042857D01*
X166161428Y-110971429D01*
X166018571Y-110900000D01*
X165661428Y-110900000D01*
X165518571Y-110971429D01*
X165447142Y-111042857D01*
X165375714Y-111185714D01*
X165375714Y-111542857D01*
X165447142Y-111685714D01*
X165518571Y-111757143D01*
X165661428Y-111828571D01*
X166018571Y-111828571D01*
X166161428Y-111757143D01*
X166232857Y-111685714D01*
X164947143Y-110328571D02*
X164447143Y-111828571D01*
X163947143Y-110328571D01*
X163202857Y-115260000D02*
X163345714Y-115188571D01*
X163560000Y-115188571D01*
X163774285Y-115260000D01*
X163917143Y-115402857D01*
X163988571Y-115545714D01*
X164060000Y-115831429D01*
X164060000Y-116045714D01*
X163988571Y-116331429D01*
X163917143Y-116474286D01*
X163774285Y-116617143D01*
X163560000Y-116688571D01*
X163417143Y-116688571D01*
X163202857Y-116617143D01*
X163131428Y-116545714D01*
X163131428Y-116045714D01*
X163417143Y-116045714D01*
X162488571Y-116688571D02*
X162488571Y-115188571D01*
X161631428Y-116688571D01*
X161631428Y-115188571D01*
X160917142Y-116688571D02*
X160917142Y-115188571D01*
X160559999Y-115188571D01*
X160345714Y-115260000D01*
X160202856Y-115402857D01*
X160131428Y-115545714D01*
X160059999Y-115831429D01*
X160059999Y-116045714D01*
X160131428Y-116331429D01*
X160202856Y-116474286D01*
X160345714Y-116617143D01*
X160559999Y-116688571D01*
X160917142Y-116688571D01*
X161725714Y-119398571D02*
X161725714Y-117898571D01*
X161011428Y-119398571D02*
X161011428Y-117898571D01*
X160154285Y-119398571D01*
X160154285Y-117898571D01*
D12*
X158426667Y-97516666D02*
X158493333Y-97383333D01*
X158493333Y-97116666D01*
X158426667Y-96983333D01*
X158360000Y-96916666D01*
X158226667Y-96850000D01*
X157826667Y-96850000D01*
X157693333Y-96916666D01*
X157626667Y-96983333D01*
X157560000Y-97116666D01*
X157560000Y-97383333D01*
X157626667Y-97516666D01*
X158493333Y-98116666D02*
X157093333Y-98116666D01*
X157960000Y-98250000D02*
X158493333Y-98650000D01*
X157560000Y-98650000D02*
X158093333Y-98116666D01*
X158493333Y-99849999D02*
X157093333Y-99849999D01*
X158426667Y-99849999D02*
X158493333Y-99716666D01*
X158493333Y-99449999D01*
X158426667Y-99316666D01*
X158360000Y-99249999D01*
X158226667Y-99183333D01*
X157826667Y-99183333D01*
X157693333Y-99249999D01*
X157626667Y-99316666D01*
X157560000Y-99449999D01*
X157560000Y-99716666D01*
X157626667Y-99849999D01*
X158360000Y-100516666D02*
X158426667Y-100583333D01*
X158493333Y-100516666D01*
X158426667Y-100450000D01*
X158360000Y-100516666D01*
X158493333Y-100516666D01*
X157560000Y-100983333D02*
X157560000Y-101516667D01*
X157093333Y-101183333D02*
X158293333Y-101183333D01*
X158426667Y-101250000D01*
X158493333Y-101383333D01*
X158493333Y-101516667D01*
X158426667Y-102516667D02*
X158493333Y-102383333D01*
X158493333Y-102116667D01*
X158426667Y-101983333D01*
X158293333Y-101916667D01*
X157760000Y-101916667D01*
X157626667Y-101983333D01*
X157560000Y-102116667D01*
X157560000Y-102383333D01*
X157626667Y-102516667D01*
X157760000Y-102583333D01*
X157893333Y-102583333D01*
X158026667Y-101916667D01*
X158426667Y-103783333D02*
X158493333Y-103650000D01*
X158493333Y-103383333D01*
X158426667Y-103250000D01*
X158360000Y-103183333D01*
X158226667Y-103116667D01*
X157826667Y-103116667D01*
X157693333Y-103183333D01*
X157626667Y-103250000D01*
X157560000Y-103383333D01*
X157560000Y-103650000D01*
X157626667Y-103783333D01*
X158493333Y-104383333D02*
X157093333Y-104383333D01*
X158493333Y-104983333D02*
X157760000Y-104983333D01*
X157626667Y-104916667D01*
X157560000Y-104783333D01*
X157560000Y-104583333D01*
X157626667Y-104450000D01*
X157693333Y-104383333D01*
X157026667Y-106650000D02*
X158826667Y-105450000D01*
X157560000Y-107116667D02*
X158960000Y-107116667D01*
X157626667Y-107116667D02*
X157560000Y-107250001D01*
X157560000Y-107516667D01*
X157626667Y-107650001D01*
X157693333Y-107716667D01*
X157826667Y-107783334D01*
X158226667Y-107783334D01*
X158360000Y-107716667D01*
X158426667Y-107650001D01*
X158493333Y-107516667D01*
X158493333Y-107250001D01*
X158426667Y-107116667D01*
X157960000Y-108383334D02*
X157960000Y-109450001D01*
X157560000Y-110116667D02*
X158960000Y-110116667D01*
X157626667Y-110116667D02*
X157560000Y-110250001D01*
X157560000Y-110516667D01*
X157626667Y-110650001D01*
X157693333Y-110716667D01*
X157826667Y-110783334D01*
X158226667Y-110783334D01*
X158360000Y-110716667D01*
X158426667Y-110650001D01*
X158493333Y-110516667D01*
X158493333Y-110250001D01*
X158426667Y-110116667D01*
X157026667Y-112383334D02*
X158826667Y-111183334D01*
X157560000Y-112716668D02*
X158493333Y-113050001D01*
X157560000Y-113383335D01*
X157093333Y-113783335D02*
X157093333Y-114650002D01*
X157626667Y-114183335D01*
X157626667Y-114383335D01*
X157693333Y-114516668D01*
X157760000Y-114583335D01*
X157893333Y-114650002D01*
X158226667Y-114650002D01*
X158360000Y-114583335D01*
X158426667Y-114516668D01*
X158493333Y-114383335D01*
X158493333Y-113983335D01*
X158426667Y-113850002D01*
X158360000Y-113783335D01*
D13*
G36*
X167900930Y-113232658D02*
X167831768Y-113233043D01*
X167769879Y-113234188D01*
X167713644Y-113236220D01*
X167661448Y-113239266D01*
X167611672Y-113243454D01*
X167562699Y-113248914D01*
X167512911Y-113255771D01*
X167460692Y-113264155D01*
X167426351Y-113270182D01*
X167396200Y-113275951D01*
X167365163Y-113282480D01*
X167334670Y-113289408D01*
X167306153Y-113296376D01*
X167281044Y-113303024D01*
X167260772Y-113308992D01*
X167246769Y-113313922D01*
X167241295Y-113316682D01*
X167239275Y-113318976D01*
X167238120Y-113323015D01*
X167237945Y-113329819D01*
X167238867Y-113340413D01*
X167241002Y-113355820D01*
X167244468Y-113377063D01*
X167249380Y-113405166D01*
X167254803Y-113435340D01*
X167260451Y-113466379D01*
X167265682Y-113494788D01*
X167270259Y-113519304D01*
X167273944Y-113538665D01*
X167276501Y-113551609D01*
X167277619Y-113556658D01*
X167278450Y-113558133D01*
X167280421Y-113559411D01*
X167284131Y-113560504D01*
X167290183Y-113561428D01*
X167299177Y-113562196D01*
X167311714Y-113562823D01*
X167328395Y-113563322D01*
X167349821Y-113563709D01*
X167376594Y-113563997D01*
X167409313Y-113564201D01*
X167448580Y-113564335D01*
X167494996Y-113564412D01*
X167549162Y-113564448D01*
X167607301Y-113564456D01*
X167674523Y-113564526D01*
X167736336Y-113564732D01*
X167792289Y-113565069D01*
X167841928Y-113565530D01*
X167884802Y-113566109D01*
X167920458Y-113566802D01*
X167948444Y-113567601D01*
X167968308Y-113568502D01*
X167977562Y-113569235D01*
X168048056Y-113581190D01*
X168113919Y-113600682D01*
X168174887Y-113627483D01*
X168230698Y-113661362D01*
X168281089Y-113702089D01*
X168325798Y-113749434D01*
X168364563Y-113803168D01*
X168397120Y-113863061D01*
X168423206Y-113928882D01*
X168435342Y-113969965D01*
X168448873Y-114031874D01*
X168456961Y-114092291D01*
X168459625Y-114150156D01*
X168456881Y-114204414D01*
X168448748Y-114254006D01*
X168435243Y-114297876D01*
X168429610Y-114310918D01*
X168412800Y-114341166D01*
X168389695Y-114374432D01*
X168361656Y-114409173D01*
X168330045Y-114443848D01*
X168296221Y-114476912D01*
X168261549Y-114506824D01*
X168246281Y-114518658D01*
X168223183Y-114534730D01*
X168193226Y-114553732D01*
X168157682Y-114574942D01*
X168117820Y-114597637D01*
X168074912Y-114621094D01*
X168030228Y-114644589D01*
X167985039Y-114667401D01*
X167983369Y-114668225D01*
X167935041Y-114692354D01*
X167893551Y-114713827D01*
X167857531Y-114733470D01*
X167825614Y-114752107D01*
X167796435Y-114770564D01*
X167768624Y-114789666D01*
X167740817Y-114810237D01*
X167716000Y-114829624D01*
X167655054Y-114882307D01*
X167602332Y-114936920D01*
X167557211Y-114994318D01*
X167519067Y-115055356D01*
X167487278Y-115120889D01*
X167468839Y-115168840D01*
X167458463Y-115200573D01*
X167450583Y-115229807D01*
X167444900Y-115258621D01*
X167441120Y-115289091D01*
X167438945Y-115323295D01*
X167438080Y-115363312D01*
X167438041Y-115384789D01*
X167442158Y-115479877D01*
X167453783Y-115573875D01*
X167472641Y-115665901D01*
X167498456Y-115755073D01*
X167530953Y-115840508D01*
X167569855Y-115921325D01*
X167614888Y-115996642D01*
X167640647Y-116033354D01*
X167659752Y-116057383D01*
X167683822Y-116085011D01*
X167710913Y-116114207D01*
X167739081Y-116142943D01*
X167766382Y-116169186D01*
X167790872Y-116190908D01*
X167794038Y-116193532D01*
X167843690Y-116231137D01*
X167896933Y-116265145D01*
X167956286Y-116297151D01*
X167963316Y-116300628D01*
X168038383Y-116333871D01*
X168118207Y-116362185D01*
X168203401Y-116385716D01*
X168294579Y-116404610D01*
X168392355Y-116419014D01*
X168497342Y-116429072D01*
X168504737Y-116429601D01*
X168531242Y-116431002D01*
X168564908Y-116432082D01*
X168603992Y-116432839D01*
X168646748Y-116433275D01*
X168691433Y-116433391D01*
X168736301Y-116433187D01*
X168779609Y-116432665D01*
X168819612Y-116431824D01*
X168854564Y-116430667D01*
X168879053Y-116429431D01*
X169012466Y-116417910D01*
X169140399Y-116400275D01*
X169222176Y-116385258D01*
X169252990Y-116378672D01*
X169282638Y-116371694D01*
X169309903Y-116364674D01*
X169333567Y-116357962D01*
X169352414Y-116351906D01*
X169365225Y-116346856D01*
X169370783Y-116343162D01*
X169370913Y-116342577D01*
X169370011Y-116337245D01*
X169367741Y-116324323D01*
X169364315Y-116304991D01*
X169359940Y-116280431D01*
X169354829Y-116251823D01*
X169349190Y-116220349D01*
X169349036Y-116219494D01*
X169327702Y-116100584D01*
X168952983Y-116098783D01*
X168884658Y-116098435D01*
X168824614Y-116098082D01*
X168772221Y-116097710D01*
X168726847Y-116097305D01*
X168687861Y-116096854D01*
X168654632Y-116096341D01*
X168626531Y-116095754D01*
X168602924Y-116095078D01*
X168583182Y-116094300D01*
X168566673Y-116093405D01*
X168552767Y-116092381D01*
X168540832Y-116091213D01*
X168530238Y-116089886D01*
X168527018Y-116089425D01*
X168453240Y-116076270D01*
X168386942Y-116059513D01*
X168327309Y-116038809D01*
X168273524Y-116013811D01*
X168224772Y-115984173D01*
X168180236Y-115949548D01*
X168165078Y-115935796D01*
X168121571Y-115888774D01*
X168083368Y-115835060D01*
X168050789Y-115775349D01*
X168024150Y-115710335D01*
X168003769Y-115640714D01*
X167989966Y-115567180D01*
X167987533Y-115547855D01*
X167984662Y-115486845D01*
X167990241Y-115428620D01*
X168004287Y-115373135D01*
X168026818Y-115320340D01*
X168057852Y-115270189D01*
X168097406Y-115222633D01*
X168117141Y-115202873D01*
X168137693Y-115183909D01*
X168157975Y-115166570D01*
X168179065Y-115150159D01*
X168202038Y-115133976D01*
X168227970Y-115117323D01*
X168257937Y-115099503D01*
X168293015Y-115079815D01*
X168334279Y-115057562D01*
X168369849Y-115038813D01*
X168436876Y-115003493D01*
X168496464Y-114971526D01*
X168549249Y-114942490D01*
X168595864Y-114915960D01*
X168636944Y-114891514D01*
X168673122Y-114868727D01*
X168705032Y-114847176D01*
X168733310Y-114826438D01*
X168758588Y-114806088D01*
X168781501Y-114785704D01*
X168802683Y-114764861D01*
X168822768Y-114743137D01*
X168836665Y-114726999D01*
X168882798Y-114667015D01*
X168920945Y-114606180D01*
X168951441Y-114543536D01*
X168974627Y-114478123D01*
X168990839Y-114408983D01*
X169000416Y-114335156D01*
X169003696Y-114255684D01*
X169003700Y-114252930D01*
X169000045Y-114152233D01*
X168989054Y-114055071D01*
X168970856Y-113961800D01*
X168945579Y-113872779D01*
X168913352Y-113788365D01*
X168874304Y-113708916D01*
X168828564Y-113634790D01*
X168776260Y-113566344D01*
X168743594Y-113530045D01*
X168678643Y-113468375D01*
X168608379Y-113413857D01*
X168532798Y-113366490D01*
X168451900Y-113326273D01*
X168365681Y-113293205D01*
X168274139Y-113267284D01*
X168227234Y-113257171D01*
X168195525Y-113251123D01*
X168167529Y-113246147D01*
X168141881Y-113242142D01*
X168117211Y-113239005D01*
X168092154Y-113236633D01*
X168065340Y-113234923D01*
X168035404Y-113233773D01*
X168000977Y-113233080D01*
X167960693Y-113232741D01*
X167913183Y-113232653D01*
X167900930Y-113232658D01*
X167900930Y-113232658D01*
G37*
X167900930Y-113232658D02*
X167831768Y-113233043D01*
X167769879Y-113234188D01*
X167713644Y-113236220D01*
X167661448Y-113239266D01*
X167611672Y-113243454D01*
X167562699Y-113248914D01*
X167512911Y-113255771D01*
X167460692Y-113264155D01*
X167426351Y-113270182D01*
X167396200Y-113275951D01*
X167365163Y-113282480D01*
X167334670Y-113289408D01*
X167306153Y-113296376D01*
X167281044Y-113303024D01*
X167260772Y-113308992D01*
X167246769Y-113313922D01*
X167241295Y-113316682D01*
X167239275Y-113318976D01*
X167238120Y-113323015D01*
X167237945Y-113329819D01*
X167238867Y-113340413D01*
X167241002Y-113355820D01*
X167244468Y-113377063D01*
X167249380Y-113405166D01*
X167254803Y-113435340D01*
X167260451Y-113466379D01*
X167265682Y-113494788D01*
X167270259Y-113519304D01*
X167273944Y-113538665D01*
X167276501Y-113551609D01*
X167277619Y-113556658D01*
X167278450Y-113558133D01*
X167280421Y-113559411D01*
X167284131Y-113560504D01*
X167290183Y-113561428D01*
X167299177Y-113562196D01*
X167311714Y-113562823D01*
X167328395Y-113563322D01*
X167349821Y-113563709D01*
X167376594Y-113563997D01*
X167409313Y-113564201D01*
X167448580Y-113564335D01*
X167494996Y-113564412D01*
X167549162Y-113564448D01*
X167607301Y-113564456D01*
X167674523Y-113564526D01*
X167736336Y-113564732D01*
X167792289Y-113565069D01*
X167841928Y-113565530D01*
X167884802Y-113566109D01*
X167920458Y-113566802D01*
X167948444Y-113567601D01*
X167968308Y-113568502D01*
X167977562Y-113569235D01*
X168048056Y-113581190D01*
X168113919Y-113600682D01*
X168174887Y-113627483D01*
X168230698Y-113661362D01*
X168281089Y-113702089D01*
X168325798Y-113749434D01*
X168364563Y-113803168D01*
X168397120Y-113863061D01*
X168423206Y-113928882D01*
X168435342Y-113969965D01*
X168448873Y-114031874D01*
X168456961Y-114092291D01*
X168459625Y-114150156D01*
X168456881Y-114204414D01*
X168448748Y-114254006D01*
X168435243Y-114297876D01*
X168429610Y-114310918D01*
X168412800Y-114341166D01*
X168389695Y-114374432D01*
X168361656Y-114409173D01*
X168330045Y-114443848D01*
X168296221Y-114476912D01*
X168261549Y-114506824D01*
X168246281Y-114518658D01*
X168223183Y-114534730D01*
X168193226Y-114553732D01*
X168157682Y-114574942D01*
X168117820Y-114597637D01*
X168074912Y-114621094D01*
X168030228Y-114644589D01*
X167985039Y-114667401D01*
X167983369Y-114668225D01*
X167935041Y-114692354D01*
X167893551Y-114713827D01*
X167857531Y-114733470D01*
X167825614Y-114752107D01*
X167796435Y-114770564D01*
X167768624Y-114789666D01*
X167740817Y-114810237D01*
X167716000Y-114829624D01*
X167655054Y-114882307D01*
X167602332Y-114936920D01*
X167557211Y-114994318D01*
X167519067Y-115055356D01*
X167487278Y-115120889D01*
X167468839Y-115168840D01*
X167458463Y-115200573D01*
X167450583Y-115229807D01*
X167444900Y-115258621D01*
X167441120Y-115289091D01*
X167438945Y-115323295D01*
X167438080Y-115363312D01*
X167438041Y-115384789D01*
X167442158Y-115479877D01*
X167453783Y-115573875D01*
X167472641Y-115665901D01*
X167498456Y-115755073D01*
X167530953Y-115840508D01*
X167569855Y-115921325D01*
X167614888Y-115996642D01*
X167640647Y-116033354D01*
X167659752Y-116057383D01*
X167683822Y-116085011D01*
X167710913Y-116114207D01*
X167739081Y-116142943D01*
X167766382Y-116169186D01*
X167790872Y-116190908D01*
X167794038Y-116193532D01*
X167843690Y-116231137D01*
X167896933Y-116265145D01*
X167956286Y-116297151D01*
X167963316Y-116300628D01*
X168038383Y-116333871D01*
X168118207Y-116362185D01*
X168203401Y-116385716D01*
X168294579Y-116404610D01*
X168392355Y-116419014D01*
X168497342Y-116429072D01*
X168504737Y-116429601D01*
X168531242Y-116431002D01*
X168564908Y-116432082D01*
X168603992Y-116432839D01*
X168646748Y-116433275D01*
X168691433Y-116433391D01*
X168736301Y-116433187D01*
X168779609Y-116432665D01*
X168819612Y-116431824D01*
X168854564Y-116430667D01*
X168879053Y-116429431D01*
X169012466Y-116417910D01*
X169140399Y-116400275D01*
X169222176Y-116385258D01*
X169252990Y-116378672D01*
X169282638Y-116371694D01*
X169309903Y-116364674D01*
X169333567Y-116357962D01*
X169352414Y-116351906D01*
X169365225Y-116346856D01*
X169370783Y-116343162D01*
X169370913Y-116342577D01*
X169370011Y-116337245D01*
X169367741Y-116324323D01*
X169364315Y-116304991D01*
X169359940Y-116280431D01*
X169354829Y-116251823D01*
X169349190Y-116220349D01*
X169349036Y-116219494D01*
X169327702Y-116100584D01*
X168952983Y-116098783D01*
X168884658Y-116098435D01*
X168824614Y-116098082D01*
X168772221Y-116097710D01*
X168726847Y-116097305D01*
X168687861Y-116096854D01*
X168654632Y-116096341D01*
X168626531Y-116095754D01*
X168602924Y-116095078D01*
X168583182Y-116094300D01*
X168566673Y-116093405D01*
X168552767Y-116092381D01*
X168540832Y-116091213D01*
X168530238Y-116089886D01*
X168527018Y-116089425D01*
X168453240Y-116076270D01*
X168386942Y-116059513D01*
X168327309Y-116038809D01*
X168273524Y-116013811D01*
X168224772Y-115984173D01*
X168180236Y-115949548D01*
X168165078Y-115935796D01*
X168121571Y-115888774D01*
X168083368Y-115835060D01*
X168050789Y-115775349D01*
X168024150Y-115710335D01*
X168003769Y-115640714D01*
X167989966Y-115567180D01*
X167987533Y-115547855D01*
X167984662Y-115486845D01*
X167990241Y-115428620D01*
X168004287Y-115373135D01*
X168026818Y-115320340D01*
X168057852Y-115270189D01*
X168097406Y-115222633D01*
X168117141Y-115202873D01*
X168137693Y-115183909D01*
X168157975Y-115166570D01*
X168179065Y-115150159D01*
X168202038Y-115133976D01*
X168227970Y-115117323D01*
X168257937Y-115099503D01*
X168293015Y-115079815D01*
X168334279Y-115057562D01*
X168369849Y-115038813D01*
X168436876Y-115003493D01*
X168496464Y-114971526D01*
X168549249Y-114942490D01*
X168595864Y-114915960D01*
X168636944Y-114891514D01*
X168673122Y-114868727D01*
X168705032Y-114847176D01*
X168733310Y-114826438D01*
X168758588Y-114806088D01*
X168781501Y-114785704D01*
X168802683Y-114764861D01*
X168822768Y-114743137D01*
X168836665Y-114726999D01*
X168882798Y-114667015D01*
X168920945Y-114606180D01*
X168951441Y-114543536D01*
X168974627Y-114478123D01*
X168990839Y-114408983D01*
X169000416Y-114335156D01*
X169003696Y-114255684D01*
X169003700Y-114252930D01*
X169000045Y-114152233D01*
X168989054Y-114055071D01*
X168970856Y-113961800D01*
X168945579Y-113872779D01*
X168913352Y-113788365D01*
X168874304Y-113708916D01*
X168828564Y-113634790D01*
X168776260Y-113566344D01*
X168743594Y-113530045D01*
X168678643Y-113468375D01*
X168608379Y-113413857D01*
X168532798Y-113366490D01*
X168451900Y-113326273D01*
X168365681Y-113293205D01*
X168274139Y-113267284D01*
X168227234Y-113257171D01*
X168195525Y-113251123D01*
X168167529Y-113246147D01*
X168141881Y-113242142D01*
X168117211Y-113239005D01*
X168092154Y-113236633D01*
X168065340Y-113234923D01*
X168035404Y-113233773D01*
X168000977Y-113233080D01*
X167960693Y-113232741D01*
X167913183Y-113232653D01*
X167900930Y-113232658D01*
G36*
X169102624Y-113447470D02*
X169109313Y-113485701D01*
X169115493Y-113521275D01*
X169120998Y-113553215D01*
X169125662Y-113580544D01*
X169129318Y-113602286D01*
X169131799Y-113617462D01*
X169132940Y-113625096D01*
X169132996Y-113625728D01*
X169134625Y-113626586D01*
X169139758Y-113627356D01*
X169148788Y-113628044D01*
X169162110Y-113628653D01*
X169180118Y-113629187D01*
X169203208Y-113629651D01*
X169231774Y-113630047D01*
X169266209Y-113630381D01*
X169306909Y-113630656D01*
X169354269Y-113630876D01*
X169408682Y-113631045D01*
X169470543Y-113631168D01*
X169540247Y-113631248D01*
X169618188Y-113631290D01*
X169678845Y-113631298D01*
X170224638Y-113631298D01*
X170226911Y-113641324D01*
X170227977Y-113646967D01*
X170230497Y-113660815D01*
X170234369Y-113682295D01*
X170239490Y-113710838D01*
X170245759Y-113745873D01*
X170253073Y-113786828D01*
X170261331Y-113833132D01*
X170270431Y-113884214D01*
X170280272Y-113939504D01*
X170290750Y-113998429D01*
X170301765Y-114060420D01*
X170313214Y-114124905D01*
X170316163Y-114141526D01*
X170327706Y-114206551D01*
X170338840Y-114269226D01*
X170349463Y-114328980D01*
X170359474Y-114385242D01*
X170368771Y-114437441D01*
X170377251Y-114485007D01*
X170384813Y-114527367D01*
X170391355Y-114563951D01*
X170396775Y-114594189D01*
X170400971Y-114617508D01*
X170403841Y-114633338D01*
X170405284Y-114641108D01*
X170405411Y-114641728D01*
X170407679Y-114651754D01*
X169953331Y-114651754D01*
X169890478Y-114651786D01*
X169830167Y-114651880D01*
X169772991Y-114652030D01*
X169719545Y-114652233D01*
X169670422Y-114652484D01*
X169626217Y-114652779D01*
X169587523Y-114653113D01*
X169554933Y-114653483D01*
X169529042Y-114653883D01*
X169510444Y-114654310D01*
X169499733Y-114654759D01*
X169497235Y-114655096D01*
X169497634Y-114659978D01*
X169499417Y-114672482D01*
X169502386Y-114691459D01*
X169506340Y-114715760D01*
X169511082Y-114744238D01*
X169516412Y-114775743D01*
X169522131Y-114809128D01*
X169528040Y-114843242D01*
X169533940Y-114876939D01*
X169539632Y-114909069D01*
X169544916Y-114938483D01*
X169549595Y-114964033D01*
X169553469Y-114984571D01*
X169556338Y-114998948D01*
X169558004Y-115006015D01*
X169558087Y-115006250D01*
X169559409Y-115007309D01*
X169562840Y-115008248D01*
X169568870Y-115009074D01*
X169577987Y-115009794D01*
X169590680Y-115010416D01*
X169607438Y-115010945D01*
X169628750Y-115011389D01*
X169655105Y-115011755D01*
X169686991Y-115012049D01*
X169724897Y-115012279D01*
X169769313Y-115012451D01*
X169820727Y-115012572D01*
X169879627Y-115012650D01*
X169946504Y-115012691D01*
X170015144Y-115012702D01*
X170469725Y-115012702D01*
X170471990Y-115022728D01*
X170472999Y-115028194D01*
X170475444Y-115041954D01*
X170479242Y-115063525D01*
X170484309Y-115092418D01*
X170490558Y-115128149D01*
X170497906Y-115170232D01*
X170506268Y-115218179D01*
X170515559Y-115271507D01*
X170525695Y-115329727D01*
X170536591Y-115392355D01*
X170548161Y-115458904D01*
X170560322Y-115528889D01*
X170572989Y-115601823D01*
X170586077Y-115677221D01*
X170590234Y-115701175D01*
X170603435Y-115777242D01*
X170616242Y-115850997D01*
X170628569Y-115921954D01*
X170640332Y-115989628D01*
X170651446Y-116053531D01*
X170661827Y-116113179D01*
X170671389Y-116168085D01*
X170680048Y-116217764D01*
X170687720Y-116261729D01*
X170694319Y-116299494D01*
X170699762Y-116330573D01*
X170703962Y-116354481D01*
X170706836Y-116370731D01*
X170708300Y-116378837D01*
X170708454Y-116379623D01*
X170710696Y-116389649D01*
X170977980Y-116389649D01*
X171035629Y-116389613D01*
X171084921Y-116389498D01*
X171126410Y-116389293D01*
X171160651Y-116388985D01*
X171188199Y-116388563D01*
X171209609Y-116388016D01*
X171225434Y-116387332D01*
X171236230Y-116386500D01*
X171242552Y-116385507D01*
X171244954Y-116384343D01*
X171245012Y-116384079D01*
X171244230Y-116379322D01*
X171241958Y-116366101D01*
X171238251Y-116344731D01*
X171233164Y-116315526D01*
X171226753Y-116278800D01*
X171219072Y-116234867D01*
X171210177Y-116184041D01*
X171200123Y-116126637D01*
X171188965Y-116062967D01*
X171176757Y-115993347D01*
X171163556Y-115918090D01*
X171149416Y-115837510D01*
X171134392Y-115751922D01*
X171118539Y-115661640D01*
X171101913Y-115566977D01*
X171084569Y-115468248D01*
X171066561Y-115365767D01*
X171047945Y-115259847D01*
X171028775Y-115150804D01*
X171009108Y-115038950D01*
X170988998Y-114924601D01*
X170971966Y-114827772D01*
X170699171Y-113277035D01*
X169072309Y-113274783D01*
X169102624Y-113447470D01*
X169102624Y-113447470D01*
G37*
X169102624Y-113447470D02*
X169109313Y-113485701D01*
X169115493Y-113521275D01*
X169120998Y-113553215D01*
X169125662Y-113580544D01*
X169129318Y-113602286D01*
X169131799Y-113617462D01*
X169132940Y-113625096D01*
X169132996Y-113625728D01*
X169134625Y-113626586D01*
X169139758Y-113627356D01*
X169148788Y-113628044D01*
X169162110Y-113628653D01*
X169180118Y-113629187D01*
X169203208Y-113629651D01*
X169231774Y-113630047D01*
X169266209Y-113630381D01*
X169306909Y-113630656D01*
X169354269Y-113630876D01*
X169408682Y-113631045D01*
X169470543Y-113631168D01*
X169540247Y-113631248D01*
X169618188Y-113631290D01*
X169678845Y-113631298D01*
X170224638Y-113631298D01*
X170226911Y-113641324D01*
X170227977Y-113646967D01*
X170230497Y-113660815D01*
X170234369Y-113682295D01*
X170239490Y-113710838D01*
X170245759Y-113745873D01*
X170253073Y-113786828D01*
X170261331Y-113833132D01*
X170270431Y-113884214D01*
X170280272Y-113939504D01*
X170290750Y-113998429D01*
X170301765Y-114060420D01*
X170313214Y-114124905D01*
X170316163Y-114141526D01*
X170327706Y-114206551D01*
X170338840Y-114269226D01*
X170349463Y-114328980D01*
X170359474Y-114385242D01*
X170368771Y-114437441D01*
X170377251Y-114485007D01*
X170384813Y-114527367D01*
X170391355Y-114563951D01*
X170396775Y-114594189D01*
X170400971Y-114617508D01*
X170403841Y-114633338D01*
X170405284Y-114641108D01*
X170405411Y-114641728D01*
X170407679Y-114651754D01*
X169953331Y-114651754D01*
X169890478Y-114651786D01*
X169830167Y-114651880D01*
X169772991Y-114652030D01*
X169719545Y-114652233D01*
X169670422Y-114652484D01*
X169626217Y-114652779D01*
X169587523Y-114653113D01*
X169554933Y-114653483D01*
X169529042Y-114653883D01*
X169510444Y-114654310D01*
X169499733Y-114654759D01*
X169497235Y-114655096D01*
X169497634Y-114659978D01*
X169499417Y-114672482D01*
X169502386Y-114691459D01*
X169506340Y-114715760D01*
X169511082Y-114744238D01*
X169516412Y-114775743D01*
X169522131Y-114809128D01*
X169528040Y-114843242D01*
X169533940Y-114876939D01*
X169539632Y-114909069D01*
X169544916Y-114938483D01*
X169549595Y-114964033D01*
X169553469Y-114984571D01*
X169556338Y-114998948D01*
X169558004Y-115006015D01*
X169558087Y-115006250D01*
X169559409Y-115007309D01*
X169562840Y-115008248D01*
X169568870Y-115009074D01*
X169577987Y-115009794D01*
X169590680Y-115010416D01*
X169607438Y-115010945D01*
X169628750Y-115011389D01*
X169655105Y-115011755D01*
X169686991Y-115012049D01*
X169724897Y-115012279D01*
X169769313Y-115012451D01*
X169820727Y-115012572D01*
X169879627Y-115012650D01*
X169946504Y-115012691D01*
X170015144Y-115012702D01*
X170469725Y-115012702D01*
X170471990Y-115022728D01*
X170472999Y-115028194D01*
X170475444Y-115041954D01*
X170479242Y-115063525D01*
X170484309Y-115092418D01*
X170490558Y-115128149D01*
X170497906Y-115170232D01*
X170506268Y-115218179D01*
X170515559Y-115271507D01*
X170525695Y-115329727D01*
X170536591Y-115392355D01*
X170548161Y-115458904D01*
X170560322Y-115528889D01*
X170572989Y-115601823D01*
X170586077Y-115677221D01*
X170590234Y-115701175D01*
X170603435Y-115777242D01*
X170616242Y-115850997D01*
X170628569Y-115921954D01*
X170640332Y-115989628D01*
X170651446Y-116053531D01*
X170661827Y-116113179D01*
X170671389Y-116168085D01*
X170680048Y-116217764D01*
X170687720Y-116261729D01*
X170694319Y-116299494D01*
X170699762Y-116330573D01*
X170703962Y-116354481D01*
X170706836Y-116370731D01*
X170708300Y-116378837D01*
X170708454Y-116379623D01*
X170710696Y-116389649D01*
X170977980Y-116389649D01*
X171035629Y-116389613D01*
X171084921Y-116389498D01*
X171126410Y-116389293D01*
X171160651Y-116388985D01*
X171188199Y-116388563D01*
X171209609Y-116388016D01*
X171225434Y-116387332D01*
X171236230Y-116386500D01*
X171242552Y-116385507D01*
X171244954Y-116384343D01*
X171245012Y-116384079D01*
X171244230Y-116379322D01*
X171241958Y-116366101D01*
X171238251Y-116344731D01*
X171233164Y-116315526D01*
X171226753Y-116278800D01*
X171219072Y-116234867D01*
X171210177Y-116184041D01*
X171200123Y-116126637D01*
X171188965Y-116062967D01*
X171176757Y-115993347D01*
X171163556Y-115918090D01*
X171149416Y-115837510D01*
X171134392Y-115751922D01*
X171118539Y-115661640D01*
X171101913Y-115566977D01*
X171084569Y-115468248D01*
X171066561Y-115365767D01*
X171047945Y-115259847D01*
X171028775Y-115150804D01*
X171009108Y-115038950D01*
X170988998Y-114924601D01*
X170971966Y-114827772D01*
X170699171Y-113277035D01*
X169072309Y-113274783D01*
X169102624Y-113447470D01*
M02*
