G04 #@! TF.FileFunction,Copper,L1,Top,Signal*
%FSLAX46Y46*%
G04 Gerber Fmt 4.6, Leading zero omitted, Abs format (unit mm)*
G04 Created by KiCad (PCBNEW 4.0.1-stable) date Sunday, January 10, 2016 'PMt' 10:42:02 PM*
%MOMM*%
G01*
G04 APERTURE LIST*
%ADD10C,0.100000*%
%ADD11C,0.010000*%
%ADD12O,2.032000X2.032000*%
%ADD13C,2.032000*%
%ADD14R,2.032000X2.032000*%
%ADD15R,0.700000X0.200000*%
%ADD16R,1.200000X0.900000*%
%ADD17C,0.685800*%
%ADD18C,0.152400*%
%ADD19C,0.812800*%
%ADD20C,0.254000*%
G04 APERTURE END LIST*
D10*
D11*
G36*
X158939423Y-95335069D02*
X158971094Y-95335572D01*
X158998725Y-95336621D01*
X159023824Y-95338340D01*
X159047893Y-95340851D01*
X159072439Y-95344276D01*
X159098967Y-95348740D01*
X159120931Y-95352815D01*
X159179786Y-95365578D01*
X159240883Y-95381645D01*
X159301336Y-95400182D01*
X159358260Y-95420354D01*
X159369639Y-95424777D01*
X159412817Y-95441970D01*
X159455192Y-95459108D01*
X159497150Y-95476370D01*
X159539080Y-95493937D01*
X159581369Y-95511989D01*
X159624404Y-95530707D01*
X159668573Y-95550271D01*
X159714265Y-95570862D01*
X159761866Y-95592659D01*
X159811764Y-95615844D01*
X159864347Y-95640597D01*
X159920003Y-95667099D01*
X159979118Y-95695528D01*
X160042082Y-95726067D01*
X160109280Y-95758896D01*
X160181102Y-95794194D01*
X160257935Y-95832143D01*
X160340166Y-95872923D01*
X160428183Y-95916714D01*
X160450903Y-95928037D01*
X160529183Y-95966981D01*
X160601702Y-96002880D01*
X160668949Y-96035961D01*
X160731415Y-96066448D01*
X160789589Y-96094567D01*
X160843962Y-96120545D01*
X160895024Y-96144606D01*
X160943265Y-96166978D01*
X160989175Y-96187885D01*
X161033244Y-96207553D01*
X161075962Y-96226208D01*
X161117819Y-96244076D01*
X161159306Y-96261382D01*
X161200912Y-96278353D01*
X161243128Y-96295213D01*
X161276403Y-96308281D01*
X161299926Y-96317518D01*
X161321319Y-96326037D01*
X161339688Y-96333473D01*
X161354143Y-96339460D01*
X161363791Y-96343635D01*
X161367732Y-96345624D01*
X161367199Y-96349719D01*
X161361987Y-96357737D01*
X161352739Y-96368968D01*
X161340100Y-96382704D01*
X161324712Y-96398236D01*
X161307219Y-96414855D01*
X161294178Y-96426657D01*
X161226199Y-96482758D01*
X161151764Y-96536253D01*
X161070994Y-96587086D01*
X160984011Y-96635200D01*
X160890938Y-96680538D01*
X160791897Y-96723043D01*
X160687009Y-96762658D01*
X160576398Y-96799327D01*
X160460185Y-96832992D01*
X160373292Y-96855296D01*
X160272697Y-96878538D01*
X160177709Y-96897867D01*
X160088081Y-96913303D01*
X160003561Y-96924868D01*
X159923901Y-96932580D01*
X159848851Y-96936462D01*
X159778163Y-96936535D01*
X159711587Y-96932818D01*
X159648874Y-96925332D01*
X159611082Y-96918660D01*
X159550450Y-96903748D01*
X159495094Y-96884367D01*
X159445086Y-96860590D01*
X159400499Y-96832491D01*
X159361404Y-96800142D01*
X159327873Y-96763617D01*
X159299979Y-96722988D01*
X159277795Y-96678329D01*
X159261392Y-96629713D01*
X159250842Y-96577214D01*
X159247903Y-96550940D01*
X159247085Y-96539833D01*
X159246149Y-96531698D01*
X159244111Y-96525994D01*
X159239991Y-96522178D01*
X159232806Y-96519710D01*
X159221575Y-96518046D01*
X159205315Y-96516646D01*
X159183045Y-96514967D01*
X159182667Y-96514937D01*
X159155115Y-96512710D01*
X159133944Y-96510816D01*
X159118491Y-96509166D01*
X159108094Y-96507673D01*
X159102090Y-96506249D01*
X159099817Y-96504807D01*
X159099918Y-96503974D01*
X159097973Y-96502665D01*
X159091139Y-96502440D01*
X159081468Y-96503114D01*
X159071010Y-96504497D01*
X159061817Y-96506403D01*
X159057431Y-96507859D01*
X159051923Y-96509376D01*
X159040616Y-96511836D01*
X159024669Y-96515008D01*
X159005241Y-96518665D01*
X158983489Y-96522578D01*
X158978056Y-96523529D01*
X158896570Y-96537036D01*
X158819154Y-96548409D01*
X158743266Y-96557987D01*
X158666367Y-96566109D01*
X158642917Y-96568294D01*
X158620487Y-96569888D01*
X158593281Y-96571121D01*
X158562652Y-96571993D01*
X158529951Y-96572504D01*
X158496529Y-96572652D01*
X158463738Y-96572438D01*
X158432930Y-96571861D01*
X158405455Y-96570920D01*
X158382666Y-96569615D01*
X158369514Y-96568402D01*
X158296686Y-96558747D01*
X158225829Y-96546860D01*
X158155068Y-96532349D01*
X158082527Y-96514822D01*
X158006331Y-96493890D01*
X157990857Y-96489368D01*
X157968243Y-96482575D01*
X157951577Y-96477222D01*
X157939982Y-96472959D01*
X157932578Y-96469438D01*
X157928490Y-96466309D01*
X157927057Y-96463968D01*
X157926091Y-96458855D01*
X157924509Y-96447561D01*
X157922410Y-96430925D01*
X157919895Y-96409783D01*
X157917063Y-96384975D01*
X157914013Y-96357338D01*
X157910918Y-96328392D01*
X157907321Y-96294399D01*
X157904435Y-96266757D01*
X157902312Y-96244791D01*
X157901001Y-96227830D01*
X157900553Y-96215198D01*
X157901018Y-96206223D01*
X157902447Y-96200230D01*
X157904890Y-96196547D01*
X157908397Y-96194499D01*
X157913018Y-96193413D01*
X157918805Y-96192615D01*
X157921091Y-96192283D01*
X157932337Y-96190254D01*
X157949389Y-96186797D01*
X157971193Y-96182151D01*
X157996700Y-96176555D01*
X158024858Y-96170249D01*
X158054615Y-96163471D01*
X158084921Y-96156461D01*
X158114725Y-96149457D01*
X158142975Y-96142700D01*
X158168620Y-96136427D01*
X158187833Y-96131593D01*
X158290462Y-96104234D01*
X158386453Y-96076397D01*
X158476213Y-96047945D01*
X158560153Y-96018742D01*
X158638680Y-95988650D01*
X158712203Y-95957534D01*
X158724056Y-95952213D01*
X158794730Y-95917760D01*
X158866700Y-95878022D01*
X158938246Y-95834092D01*
X159007648Y-95787066D01*
X159073190Y-95738037D01*
X159117403Y-95701786D01*
X159135065Y-95686423D01*
X159153398Y-95670012D01*
X159171684Y-95653244D01*
X159189206Y-95636810D01*
X159205249Y-95621401D01*
X159219095Y-95607709D01*
X159230027Y-95596424D01*
X159237329Y-95588238D01*
X159240283Y-95583841D01*
X159240219Y-95583368D01*
X159234114Y-95580119D01*
X159222137Y-95575797D01*
X159205347Y-95570663D01*
X159184801Y-95564980D01*
X159161556Y-95559011D01*
X159136670Y-95553019D01*
X159111199Y-95547265D01*
X159086201Y-95542013D01*
X159062732Y-95537526D01*
X159041852Y-95534065D01*
X159041556Y-95534021D01*
X158986513Y-95527477D01*
X158932179Y-95524423D01*
X158877039Y-95524893D01*
X158819581Y-95528923D01*
X158758289Y-95536548D01*
X158728461Y-95541261D01*
X158635204Y-95559850D01*
X158545771Y-95583707D01*
X158460377Y-95612725D01*
X158379234Y-95646797D01*
X158302557Y-95685818D01*
X158230558Y-95729681D01*
X158163451Y-95778280D01*
X158101449Y-95831509D01*
X158057949Y-95874915D01*
X158015574Y-95923556D01*
X157977536Y-95974333D01*
X157944493Y-96026230D01*
X157917105Y-96078230D01*
X157899656Y-96119355D01*
X157894680Y-96131769D01*
X157890056Y-96141937D01*
X157886789Y-96147652D01*
X157883532Y-96150958D01*
X157875631Y-96158670D01*
X157863561Y-96170334D01*
X157847793Y-96185496D01*
X157828801Y-96203704D01*
X157807057Y-96224504D01*
X157783034Y-96247442D01*
X157757205Y-96272065D01*
X157738042Y-96290309D01*
X157711341Y-96315737D01*
X157686208Y-96339712D01*
X157663104Y-96361794D01*
X157642486Y-96381540D01*
X157624813Y-96398513D01*
X157610545Y-96412270D01*
X157600139Y-96422371D01*
X157594055Y-96428376D01*
X157592607Y-96429922D01*
X157595572Y-96431699D01*
X157604384Y-96436052D01*
X157618436Y-96442701D01*
X157637123Y-96451368D01*
X157659836Y-96461773D01*
X157685972Y-96473637D01*
X157714923Y-96486683D01*
X157746083Y-96500630D01*
X157753468Y-96503923D01*
X157915126Y-96575942D01*
X157931981Y-96636214D01*
X157940094Y-96664199D01*
X157949941Y-96696534D01*
X157960916Y-96731347D01*
X157972411Y-96766762D01*
X157983817Y-96800907D01*
X157994527Y-96831907D01*
X158003511Y-96856757D01*
X158008959Y-96870443D01*
X158013479Y-96878917D01*
X158018136Y-96883733D01*
X158023830Y-96886392D01*
X158031132Y-96887558D01*
X158044453Y-96888496D01*
X158062760Y-96889209D01*
X158085020Y-96889697D01*
X158110201Y-96889965D01*
X158137269Y-96890013D01*
X158165192Y-96889845D01*
X158192937Y-96889461D01*
X158219472Y-96888866D01*
X158243763Y-96888060D01*
X158264777Y-96887046D01*
X158281319Y-96885841D01*
X158444261Y-96868212D01*
X158544139Y-96854838D01*
X158586859Y-96848400D01*
X158623678Y-96842100D01*
X158655734Y-96835624D01*
X158684167Y-96828661D01*
X158710116Y-96820899D01*
X158734721Y-96812025D01*
X158759122Y-96801727D01*
X158784457Y-96789694D01*
X158787556Y-96788147D01*
X158843115Y-96756813D01*
X158897664Y-96719211D01*
X158950233Y-96676128D01*
X158999852Y-96628353D01*
X159040314Y-96583042D01*
X159058347Y-96561319D01*
X159060748Y-96586569D01*
X159067775Y-96633991D01*
X159079681Y-96683168D01*
X159095802Y-96732224D01*
X159115477Y-96779282D01*
X159138042Y-96822463D01*
X159151719Y-96844289D01*
X159189340Y-96894006D01*
X159232141Y-96939003D01*
X159280037Y-96979251D01*
X159332937Y-97014723D01*
X159390757Y-97045389D01*
X159453406Y-97071223D01*
X159520799Y-97092197D01*
X159592848Y-97108282D01*
X159669465Y-97119451D01*
X159750562Y-97125676D01*
X159836053Y-97126929D01*
X159925848Y-97123182D01*
X160004639Y-97116139D01*
X160077782Y-97106822D01*
X160155875Y-97094509D01*
X160237621Y-97079481D01*
X160321724Y-97062024D01*
X160406887Y-97042418D01*
X160491813Y-97020949D01*
X160575205Y-96997899D01*
X160651986Y-96974745D01*
X160749460Y-96942112D01*
X160843786Y-96906670D01*
X160934613Y-96868629D01*
X161021592Y-96828203D01*
X161104372Y-96785600D01*
X161182604Y-96741034D01*
X161255937Y-96694714D01*
X161324021Y-96646853D01*
X161386506Y-96597661D01*
X161443041Y-96547350D01*
X161493278Y-96496131D01*
X161536865Y-96444215D01*
X161541516Y-96438103D01*
X161551132Y-96425676D01*
X161557892Y-96418104D01*
X161562929Y-96414422D01*
X161567377Y-96413664D01*
X161569726Y-96414079D01*
X161589163Y-96418388D01*
X161614240Y-96423070D01*
X161643568Y-96427922D01*
X161675757Y-96432737D01*
X161709415Y-96437313D01*
X161743152Y-96441443D01*
X161775578Y-96444923D01*
X161786167Y-96445932D01*
X161817905Y-96448462D01*
X161849888Y-96450184D01*
X161882791Y-96451067D01*
X161917290Y-96451080D01*
X161954060Y-96450194D01*
X161993775Y-96448377D01*
X162037113Y-96445599D01*
X162084746Y-96441829D01*
X162137352Y-96437037D01*
X162195605Y-96431192D01*
X162257125Y-96424600D01*
X162346165Y-96414237D01*
X162441639Y-96402018D01*
X162543193Y-96388007D01*
X162650469Y-96372269D01*
X162763115Y-96354868D01*
X162880774Y-96335867D01*
X163003091Y-96315332D01*
X163129712Y-96293326D01*
X163260280Y-96269914D01*
X163394441Y-96245160D01*
X163531840Y-96219128D01*
X163672121Y-96191882D01*
X163814930Y-96163486D01*
X163959911Y-96134006D01*
X164106709Y-96103505D01*
X164254969Y-96072046D01*
X164404335Y-96039696D01*
X164491972Y-96020408D01*
X164536466Y-96010554D01*
X164574684Y-96002267D01*
X164607258Y-95995680D01*
X164634823Y-95990928D01*
X164658011Y-95988146D01*
X164677455Y-95987468D01*
X164693788Y-95989028D01*
X164707642Y-95992962D01*
X164719652Y-95999404D01*
X164730449Y-96008488D01*
X164740667Y-96020348D01*
X164750938Y-96035120D01*
X164761896Y-96052938D01*
X164774174Y-96073936D01*
X164778453Y-96081295D01*
X164815722Y-96147072D01*
X164850654Y-96212322D01*
X164882855Y-96276214D01*
X164911929Y-96337915D01*
X164937481Y-96396594D01*
X164959117Y-96451419D01*
X164972982Y-96490859D01*
X164988442Y-96543272D01*
X164999158Y-96592184D01*
X165005158Y-96637367D01*
X165006469Y-96678594D01*
X165003119Y-96715635D01*
X164995134Y-96748262D01*
X164982543Y-96776247D01*
X164965372Y-96799362D01*
X164943649Y-96817378D01*
X164933124Y-96823395D01*
X164922991Y-96828154D01*
X164911941Y-96832524D01*
X164899615Y-96836533D01*
X164885657Y-96840209D01*
X164869709Y-96843581D01*
X164851413Y-96846677D01*
X164830414Y-96849524D01*
X164806352Y-96852152D01*
X164778872Y-96854587D01*
X164747615Y-96856859D01*
X164712225Y-96858995D01*
X164672343Y-96861023D01*
X164627613Y-96862973D01*
X164577677Y-96864871D01*
X164522178Y-96866746D01*
X164460759Y-96868626D01*
X164393062Y-96870540D01*
X164318731Y-96872515D01*
X164305000Y-96872869D01*
X164182923Y-96876207D01*
X164067344Y-96879786D01*
X163957707Y-96883639D01*
X163853456Y-96887794D01*
X163754037Y-96892284D01*
X163658895Y-96897138D01*
X163567474Y-96902388D01*
X163479219Y-96908064D01*
X163393574Y-96914196D01*
X163309985Y-96920816D01*
X163227897Y-96927954D01*
X163146754Y-96935640D01*
X163119667Y-96938345D01*
X162990967Y-96952177D01*
X162866502Y-96967273D01*
X162745523Y-96983805D01*
X162627281Y-97001941D01*
X162511028Y-97021851D01*
X162396016Y-97043705D01*
X162281496Y-97067671D01*
X162166721Y-97093920D01*
X162050941Y-97122620D01*
X161933408Y-97153942D01*
X161813373Y-97188054D01*
X161690090Y-97225127D01*
X161562808Y-97265329D01*
X161430780Y-97308830D01*
X161325792Y-97344551D01*
X161275932Y-97362059D01*
X161228400Y-97379485D01*
X161182527Y-97397150D01*
X161137643Y-97415374D01*
X161093080Y-97434476D01*
X161048167Y-97454779D01*
X161002235Y-97476601D01*
X160954615Y-97500263D01*
X160904637Y-97526085D01*
X160851633Y-97554388D01*
X160794932Y-97585492D01*
X160733865Y-97619717D01*
X160667763Y-97657384D01*
X160646694Y-97669493D01*
X160588073Y-97703223D01*
X160535102Y-97733651D01*
X160487334Y-97761025D01*
X160444321Y-97785591D01*
X160405616Y-97807596D01*
X160370771Y-97827287D01*
X160339338Y-97844910D01*
X160310870Y-97860714D01*
X160284919Y-97874944D01*
X160261037Y-97887848D01*
X160238777Y-97899672D01*
X160217692Y-97910664D01*
X160197332Y-97921070D01*
X160177252Y-97931138D01*
X160157003Y-97941113D01*
X160136138Y-97951244D01*
X160134306Y-97952128D01*
X160066867Y-97983565D01*
X160003250Y-98010819D01*
X159942082Y-98034282D01*
X159881992Y-98054345D01*
X159821609Y-98071402D01*
X159759560Y-98085844D01*
X159694474Y-98098064D01*
X159624978Y-98108454D01*
X159560139Y-98116279D01*
X159519152Y-98120039D01*
X159473206Y-98122999D01*
X159424358Y-98125105D01*
X159374663Y-98126301D01*
X159326179Y-98126532D01*
X159280962Y-98125744D01*
X159251458Y-98124508D01*
X159171912Y-98117865D01*
X159091456Y-98106743D01*
X159011278Y-98091443D01*
X158932567Y-98072263D01*
X158856511Y-98049501D01*
X158784298Y-98023456D01*
X158717116Y-97994427D01*
X158699008Y-97985625D01*
X158618028Y-97941372D01*
X158538806Y-97890408D01*
X158461482Y-97832893D01*
X158386195Y-97768983D01*
X158313086Y-97698836D01*
X158242295Y-97622610D01*
X158173960Y-97540463D01*
X158108223Y-97452552D01*
X158045222Y-97359036D01*
X157985097Y-97260070D01*
X157927989Y-97155814D01*
X157882897Y-97065201D01*
X157864559Y-97025287D01*
X157846937Y-96983922D01*
X157829526Y-96939814D01*
X157811819Y-96891672D01*
X157793310Y-96838204D01*
X157788965Y-96825250D01*
X157781296Y-96801804D01*
X157773193Y-96776214D01*
X157765008Y-96749673D01*
X157757093Y-96723373D01*
X157749801Y-96698508D01*
X157743485Y-96676269D01*
X157738496Y-96657848D01*
X157735187Y-96644440D01*
X157734378Y-96640558D01*
X157732209Y-96628996D01*
X157527595Y-96546428D01*
X157491615Y-96531883D01*
X157457607Y-96518085D01*
X157426132Y-96505266D01*
X157397748Y-96493654D01*
X157373014Y-96483480D01*
X157352490Y-96474974D01*
X157336734Y-96468367D01*
X157326307Y-96463889D01*
X157321768Y-96461769D01*
X157321619Y-96461656D01*
X157323960Y-96459006D01*
X157331162Y-96452050D01*
X157342812Y-96441163D01*
X157358495Y-96426724D01*
X157377797Y-96409108D01*
X157400304Y-96388694D01*
X157425601Y-96365859D01*
X157453274Y-96340979D01*
X157482909Y-96314432D01*
X157508286Y-96291769D01*
X157544302Y-96259640D01*
X157575416Y-96231846D01*
X157601998Y-96208033D01*
X157624415Y-96187848D01*
X157643038Y-96170935D01*
X157658235Y-96156942D01*
X157670376Y-96145513D01*
X157679830Y-96136294D01*
X157686965Y-96128931D01*
X157692152Y-96123071D01*
X157695759Y-96118358D01*
X157698156Y-96114439D01*
X157699712Y-96110959D01*
X157700795Y-96107565D01*
X157700979Y-96106897D01*
X157707388Y-96086348D01*
X157716490Y-96061398D01*
X157727560Y-96033816D01*
X157739874Y-96005375D01*
X157752705Y-95977843D01*
X157759300Y-95964554D01*
X157791749Y-95906345D01*
X157828977Y-95850220D01*
X157871666Y-95795249D01*
X157920499Y-95740502D01*
X157933642Y-95726849D01*
X157989151Y-95673310D01*
X158046431Y-95624827D01*
X158106685Y-95580531D01*
X158171117Y-95539557D01*
X158240931Y-95501037D01*
X158261917Y-95490420D01*
X158329971Y-95458548D01*
X158397985Y-95430713D01*
X158467187Y-95406541D01*
X158538807Y-95385659D01*
X158614072Y-95367692D01*
X158694212Y-95352268D01*
X158740680Y-95344752D01*
X158760516Y-95341832D01*
X158777844Y-95339566D01*
X158794061Y-95337870D01*
X158810562Y-95336659D01*
X158828742Y-95335848D01*
X158849998Y-95335355D01*
X158875724Y-95335094D01*
X158902208Y-95334991D01*
X158939423Y-95335069D01*
X158939423Y-95335069D01*
G37*
X158939423Y-95335069D02*
X158971094Y-95335572D01*
X158998725Y-95336621D01*
X159023824Y-95338340D01*
X159047893Y-95340851D01*
X159072439Y-95344276D01*
X159098967Y-95348740D01*
X159120931Y-95352815D01*
X159179786Y-95365578D01*
X159240883Y-95381645D01*
X159301336Y-95400182D01*
X159358260Y-95420354D01*
X159369639Y-95424777D01*
X159412817Y-95441970D01*
X159455192Y-95459108D01*
X159497150Y-95476370D01*
X159539080Y-95493937D01*
X159581369Y-95511989D01*
X159624404Y-95530707D01*
X159668573Y-95550271D01*
X159714265Y-95570862D01*
X159761866Y-95592659D01*
X159811764Y-95615844D01*
X159864347Y-95640597D01*
X159920003Y-95667099D01*
X159979118Y-95695528D01*
X160042082Y-95726067D01*
X160109280Y-95758896D01*
X160181102Y-95794194D01*
X160257935Y-95832143D01*
X160340166Y-95872923D01*
X160428183Y-95916714D01*
X160450903Y-95928037D01*
X160529183Y-95966981D01*
X160601702Y-96002880D01*
X160668949Y-96035961D01*
X160731415Y-96066448D01*
X160789589Y-96094567D01*
X160843962Y-96120545D01*
X160895024Y-96144606D01*
X160943265Y-96166978D01*
X160989175Y-96187885D01*
X161033244Y-96207553D01*
X161075962Y-96226208D01*
X161117819Y-96244076D01*
X161159306Y-96261382D01*
X161200912Y-96278353D01*
X161243128Y-96295213D01*
X161276403Y-96308281D01*
X161299926Y-96317518D01*
X161321319Y-96326037D01*
X161339688Y-96333473D01*
X161354143Y-96339460D01*
X161363791Y-96343635D01*
X161367732Y-96345624D01*
X161367199Y-96349719D01*
X161361987Y-96357737D01*
X161352739Y-96368968D01*
X161340100Y-96382704D01*
X161324712Y-96398236D01*
X161307219Y-96414855D01*
X161294178Y-96426657D01*
X161226199Y-96482758D01*
X161151764Y-96536253D01*
X161070994Y-96587086D01*
X160984011Y-96635200D01*
X160890938Y-96680538D01*
X160791897Y-96723043D01*
X160687009Y-96762658D01*
X160576398Y-96799327D01*
X160460185Y-96832992D01*
X160373292Y-96855296D01*
X160272697Y-96878538D01*
X160177709Y-96897867D01*
X160088081Y-96913303D01*
X160003561Y-96924868D01*
X159923901Y-96932580D01*
X159848851Y-96936462D01*
X159778163Y-96936535D01*
X159711587Y-96932818D01*
X159648874Y-96925332D01*
X159611082Y-96918660D01*
X159550450Y-96903748D01*
X159495094Y-96884367D01*
X159445086Y-96860590D01*
X159400499Y-96832491D01*
X159361404Y-96800142D01*
X159327873Y-96763617D01*
X159299979Y-96722988D01*
X159277795Y-96678329D01*
X159261392Y-96629713D01*
X159250842Y-96577214D01*
X159247903Y-96550940D01*
X159247085Y-96539833D01*
X159246149Y-96531698D01*
X159244111Y-96525994D01*
X159239991Y-96522178D01*
X159232806Y-96519710D01*
X159221575Y-96518046D01*
X159205315Y-96516646D01*
X159183045Y-96514967D01*
X159182667Y-96514937D01*
X159155115Y-96512710D01*
X159133944Y-96510816D01*
X159118491Y-96509166D01*
X159108094Y-96507673D01*
X159102090Y-96506249D01*
X159099817Y-96504807D01*
X159099918Y-96503974D01*
X159097973Y-96502665D01*
X159091139Y-96502440D01*
X159081468Y-96503114D01*
X159071010Y-96504497D01*
X159061817Y-96506403D01*
X159057431Y-96507859D01*
X159051923Y-96509376D01*
X159040616Y-96511836D01*
X159024669Y-96515008D01*
X159005241Y-96518665D01*
X158983489Y-96522578D01*
X158978056Y-96523529D01*
X158896570Y-96537036D01*
X158819154Y-96548409D01*
X158743266Y-96557987D01*
X158666367Y-96566109D01*
X158642917Y-96568294D01*
X158620487Y-96569888D01*
X158593281Y-96571121D01*
X158562652Y-96571993D01*
X158529951Y-96572504D01*
X158496529Y-96572652D01*
X158463738Y-96572438D01*
X158432930Y-96571861D01*
X158405455Y-96570920D01*
X158382666Y-96569615D01*
X158369514Y-96568402D01*
X158296686Y-96558747D01*
X158225829Y-96546860D01*
X158155068Y-96532349D01*
X158082527Y-96514822D01*
X158006331Y-96493890D01*
X157990857Y-96489368D01*
X157968243Y-96482575D01*
X157951577Y-96477222D01*
X157939982Y-96472959D01*
X157932578Y-96469438D01*
X157928490Y-96466309D01*
X157927057Y-96463968D01*
X157926091Y-96458855D01*
X157924509Y-96447561D01*
X157922410Y-96430925D01*
X157919895Y-96409783D01*
X157917063Y-96384975D01*
X157914013Y-96357338D01*
X157910918Y-96328392D01*
X157907321Y-96294399D01*
X157904435Y-96266757D01*
X157902312Y-96244791D01*
X157901001Y-96227830D01*
X157900553Y-96215198D01*
X157901018Y-96206223D01*
X157902447Y-96200230D01*
X157904890Y-96196547D01*
X157908397Y-96194499D01*
X157913018Y-96193413D01*
X157918805Y-96192615D01*
X157921091Y-96192283D01*
X157932337Y-96190254D01*
X157949389Y-96186797D01*
X157971193Y-96182151D01*
X157996700Y-96176555D01*
X158024858Y-96170249D01*
X158054615Y-96163471D01*
X158084921Y-96156461D01*
X158114725Y-96149457D01*
X158142975Y-96142700D01*
X158168620Y-96136427D01*
X158187833Y-96131593D01*
X158290462Y-96104234D01*
X158386453Y-96076397D01*
X158476213Y-96047945D01*
X158560153Y-96018742D01*
X158638680Y-95988650D01*
X158712203Y-95957534D01*
X158724056Y-95952213D01*
X158794730Y-95917760D01*
X158866700Y-95878022D01*
X158938246Y-95834092D01*
X159007648Y-95787066D01*
X159073190Y-95738037D01*
X159117403Y-95701786D01*
X159135065Y-95686423D01*
X159153398Y-95670012D01*
X159171684Y-95653244D01*
X159189206Y-95636810D01*
X159205249Y-95621401D01*
X159219095Y-95607709D01*
X159230027Y-95596424D01*
X159237329Y-95588238D01*
X159240283Y-95583841D01*
X159240219Y-95583368D01*
X159234114Y-95580119D01*
X159222137Y-95575797D01*
X159205347Y-95570663D01*
X159184801Y-95564980D01*
X159161556Y-95559011D01*
X159136670Y-95553019D01*
X159111199Y-95547265D01*
X159086201Y-95542013D01*
X159062732Y-95537526D01*
X159041852Y-95534065D01*
X159041556Y-95534021D01*
X158986513Y-95527477D01*
X158932179Y-95524423D01*
X158877039Y-95524893D01*
X158819581Y-95528923D01*
X158758289Y-95536548D01*
X158728461Y-95541261D01*
X158635204Y-95559850D01*
X158545771Y-95583707D01*
X158460377Y-95612725D01*
X158379234Y-95646797D01*
X158302557Y-95685818D01*
X158230558Y-95729681D01*
X158163451Y-95778280D01*
X158101449Y-95831509D01*
X158057949Y-95874915D01*
X158015574Y-95923556D01*
X157977536Y-95974333D01*
X157944493Y-96026230D01*
X157917105Y-96078230D01*
X157899656Y-96119355D01*
X157894680Y-96131769D01*
X157890056Y-96141937D01*
X157886789Y-96147652D01*
X157883532Y-96150958D01*
X157875631Y-96158670D01*
X157863561Y-96170334D01*
X157847793Y-96185496D01*
X157828801Y-96203704D01*
X157807057Y-96224504D01*
X157783034Y-96247442D01*
X157757205Y-96272065D01*
X157738042Y-96290309D01*
X157711341Y-96315737D01*
X157686208Y-96339712D01*
X157663104Y-96361794D01*
X157642486Y-96381540D01*
X157624813Y-96398513D01*
X157610545Y-96412270D01*
X157600139Y-96422371D01*
X157594055Y-96428376D01*
X157592607Y-96429922D01*
X157595572Y-96431699D01*
X157604384Y-96436052D01*
X157618436Y-96442701D01*
X157637123Y-96451368D01*
X157659836Y-96461773D01*
X157685972Y-96473637D01*
X157714923Y-96486683D01*
X157746083Y-96500630D01*
X157753468Y-96503923D01*
X157915126Y-96575942D01*
X157931981Y-96636214D01*
X157940094Y-96664199D01*
X157949941Y-96696534D01*
X157960916Y-96731347D01*
X157972411Y-96766762D01*
X157983817Y-96800907D01*
X157994527Y-96831907D01*
X158003511Y-96856757D01*
X158008959Y-96870443D01*
X158013479Y-96878917D01*
X158018136Y-96883733D01*
X158023830Y-96886392D01*
X158031132Y-96887558D01*
X158044453Y-96888496D01*
X158062760Y-96889209D01*
X158085020Y-96889697D01*
X158110201Y-96889965D01*
X158137269Y-96890013D01*
X158165192Y-96889845D01*
X158192937Y-96889461D01*
X158219472Y-96888866D01*
X158243763Y-96888060D01*
X158264777Y-96887046D01*
X158281319Y-96885841D01*
X158444261Y-96868212D01*
X158544139Y-96854838D01*
X158586859Y-96848400D01*
X158623678Y-96842100D01*
X158655734Y-96835624D01*
X158684167Y-96828661D01*
X158710116Y-96820899D01*
X158734721Y-96812025D01*
X158759122Y-96801727D01*
X158784457Y-96789694D01*
X158787556Y-96788147D01*
X158843115Y-96756813D01*
X158897664Y-96719211D01*
X158950233Y-96676128D01*
X158999852Y-96628353D01*
X159040314Y-96583042D01*
X159058347Y-96561319D01*
X159060748Y-96586569D01*
X159067775Y-96633991D01*
X159079681Y-96683168D01*
X159095802Y-96732224D01*
X159115477Y-96779282D01*
X159138042Y-96822463D01*
X159151719Y-96844289D01*
X159189340Y-96894006D01*
X159232141Y-96939003D01*
X159280037Y-96979251D01*
X159332937Y-97014723D01*
X159390757Y-97045389D01*
X159453406Y-97071223D01*
X159520799Y-97092197D01*
X159592848Y-97108282D01*
X159669465Y-97119451D01*
X159750562Y-97125676D01*
X159836053Y-97126929D01*
X159925848Y-97123182D01*
X160004639Y-97116139D01*
X160077782Y-97106822D01*
X160155875Y-97094509D01*
X160237621Y-97079481D01*
X160321724Y-97062024D01*
X160406887Y-97042418D01*
X160491813Y-97020949D01*
X160575205Y-96997899D01*
X160651986Y-96974745D01*
X160749460Y-96942112D01*
X160843786Y-96906670D01*
X160934613Y-96868629D01*
X161021592Y-96828203D01*
X161104372Y-96785600D01*
X161182604Y-96741034D01*
X161255937Y-96694714D01*
X161324021Y-96646853D01*
X161386506Y-96597661D01*
X161443041Y-96547350D01*
X161493278Y-96496131D01*
X161536865Y-96444215D01*
X161541516Y-96438103D01*
X161551132Y-96425676D01*
X161557892Y-96418104D01*
X161562929Y-96414422D01*
X161567377Y-96413664D01*
X161569726Y-96414079D01*
X161589163Y-96418388D01*
X161614240Y-96423070D01*
X161643568Y-96427922D01*
X161675757Y-96432737D01*
X161709415Y-96437313D01*
X161743152Y-96441443D01*
X161775578Y-96444923D01*
X161786167Y-96445932D01*
X161817905Y-96448462D01*
X161849888Y-96450184D01*
X161882791Y-96451067D01*
X161917290Y-96451080D01*
X161954060Y-96450194D01*
X161993775Y-96448377D01*
X162037113Y-96445599D01*
X162084746Y-96441829D01*
X162137352Y-96437037D01*
X162195605Y-96431192D01*
X162257125Y-96424600D01*
X162346165Y-96414237D01*
X162441639Y-96402018D01*
X162543193Y-96388007D01*
X162650469Y-96372269D01*
X162763115Y-96354868D01*
X162880774Y-96335867D01*
X163003091Y-96315332D01*
X163129712Y-96293326D01*
X163260280Y-96269914D01*
X163394441Y-96245160D01*
X163531840Y-96219128D01*
X163672121Y-96191882D01*
X163814930Y-96163486D01*
X163959911Y-96134006D01*
X164106709Y-96103505D01*
X164254969Y-96072046D01*
X164404335Y-96039696D01*
X164491972Y-96020408D01*
X164536466Y-96010554D01*
X164574684Y-96002267D01*
X164607258Y-95995680D01*
X164634823Y-95990928D01*
X164658011Y-95988146D01*
X164677455Y-95987468D01*
X164693788Y-95989028D01*
X164707642Y-95992962D01*
X164719652Y-95999404D01*
X164730449Y-96008488D01*
X164740667Y-96020348D01*
X164750938Y-96035120D01*
X164761896Y-96052938D01*
X164774174Y-96073936D01*
X164778453Y-96081295D01*
X164815722Y-96147072D01*
X164850654Y-96212322D01*
X164882855Y-96276214D01*
X164911929Y-96337915D01*
X164937481Y-96396594D01*
X164959117Y-96451419D01*
X164972982Y-96490859D01*
X164988442Y-96543272D01*
X164999158Y-96592184D01*
X165005158Y-96637367D01*
X165006469Y-96678594D01*
X165003119Y-96715635D01*
X164995134Y-96748262D01*
X164982543Y-96776247D01*
X164965372Y-96799362D01*
X164943649Y-96817378D01*
X164933124Y-96823395D01*
X164922991Y-96828154D01*
X164911941Y-96832524D01*
X164899615Y-96836533D01*
X164885657Y-96840209D01*
X164869709Y-96843581D01*
X164851413Y-96846677D01*
X164830414Y-96849524D01*
X164806352Y-96852152D01*
X164778872Y-96854587D01*
X164747615Y-96856859D01*
X164712225Y-96858995D01*
X164672343Y-96861023D01*
X164627613Y-96862973D01*
X164577677Y-96864871D01*
X164522178Y-96866746D01*
X164460759Y-96868626D01*
X164393062Y-96870540D01*
X164318731Y-96872515D01*
X164305000Y-96872869D01*
X164182923Y-96876207D01*
X164067344Y-96879786D01*
X163957707Y-96883639D01*
X163853456Y-96887794D01*
X163754037Y-96892284D01*
X163658895Y-96897138D01*
X163567474Y-96902388D01*
X163479219Y-96908064D01*
X163393574Y-96914196D01*
X163309985Y-96920816D01*
X163227897Y-96927954D01*
X163146754Y-96935640D01*
X163119667Y-96938345D01*
X162990967Y-96952177D01*
X162866502Y-96967273D01*
X162745523Y-96983805D01*
X162627281Y-97001941D01*
X162511028Y-97021851D01*
X162396016Y-97043705D01*
X162281496Y-97067671D01*
X162166721Y-97093920D01*
X162050941Y-97122620D01*
X161933408Y-97153942D01*
X161813373Y-97188054D01*
X161690090Y-97225127D01*
X161562808Y-97265329D01*
X161430780Y-97308830D01*
X161325792Y-97344551D01*
X161275932Y-97362059D01*
X161228400Y-97379485D01*
X161182527Y-97397150D01*
X161137643Y-97415374D01*
X161093080Y-97434476D01*
X161048167Y-97454779D01*
X161002235Y-97476601D01*
X160954615Y-97500263D01*
X160904637Y-97526085D01*
X160851633Y-97554388D01*
X160794932Y-97585492D01*
X160733865Y-97619717D01*
X160667763Y-97657384D01*
X160646694Y-97669493D01*
X160588073Y-97703223D01*
X160535102Y-97733651D01*
X160487334Y-97761025D01*
X160444321Y-97785591D01*
X160405616Y-97807596D01*
X160370771Y-97827287D01*
X160339338Y-97844910D01*
X160310870Y-97860714D01*
X160284919Y-97874944D01*
X160261037Y-97887848D01*
X160238777Y-97899672D01*
X160217692Y-97910664D01*
X160197332Y-97921070D01*
X160177252Y-97931138D01*
X160157003Y-97941113D01*
X160136138Y-97951244D01*
X160134306Y-97952128D01*
X160066867Y-97983565D01*
X160003250Y-98010819D01*
X159942082Y-98034282D01*
X159881992Y-98054345D01*
X159821609Y-98071402D01*
X159759560Y-98085844D01*
X159694474Y-98098064D01*
X159624978Y-98108454D01*
X159560139Y-98116279D01*
X159519152Y-98120039D01*
X159473206Y-98122999D01*
X159424358Y-98125105D01*
X159374663Y-98126301D01*
X159326179Y-98126532D01*
X159280962Y-98125744D01*
X159251458Y-98124508D01*
X159171912Y-98117865D01*
X159091456Y-98106743D01*
X159011278Y-98091443D01*
X158932567Y-98072263D01*
X158856511Y-98049501D01*
X158784298Y-98023456D01*
X158717116Y-97994427D01*
X158699008Y-97985625D01*
X158618028Y-97941372D01*
X158538806Y-97890408D01*
X158461482Y-97832893D01*
X158386195Y-97768983D01*
X158313086Y-97698836D01*
X158242295Y-97622610D01*
X158173960Y-97540463D01*
X158108223Y-97452552D01*
X158045222Y-97359036D01*
X157985097Y-97260070D01*
X157927989Y-97155814D01*
X157882897Y-97065201D01*
X157864559Y-97025287D01*
X157846937Y-96983922D01*
X157829526Y-96939814D01*
X157811819Y-96891672D01*
X157793310Y-96838204D01*
X157788965Y-96825250D01*
X157781296Y-96801804D01*
X157773193Y-96776214D01*
X157765008Y-96749673D01*
X157757093Y-96723373D01*
X157749801Y-96698508D01*
X157743485Y-96676269D01*
X157738496Y-96657848D01*
X157735187Y-96644440D01*
X157734378Y-96640558D01*
X157732209Y-96628996D01*
X157527595Y-96546428D01*
X157491615Y-96531883D01*
X157457607Y-96518085D01*
X157426132Y-96505266D01*
X157397748Y-96493654D01*
X157373014Y-96483480D01*
X157352490Y-96474974D01*
X157336734Y-96468367D01*
X157326307Y-96463889D01*
X157321768Y-96461769D01*
X157321619Y-96461656D01*
X157323960Y-96459006D01*
X157331162Y-96452050D01*
X157342812Y-96441163D01*
X157358495Y-96426724D01*
X157377797Y-96409108D01*
X157400304Y-96388694D01*
X157425601Y-96365859D01*
X157453274Y-96340979D01*
X157482909Y-96314432D01*
X157508286Y-96291769D01*
X157544302Y-96259640D01*
X157575416Y-96231846D01*
X157601998Y-96208033D01*
X157624415Y-96187848D01*
X157643038Y-96170935D01*
X157658235Y-96156942D01*
X157670376Y-96145513D01*
X157679830Y-96136294D01*
X157686965Y-96128931D01*
X157692152Y-96123071D01*
X157695759Y-96118358D01*
X157698156Y-96114439D01*
X157699712Y-96110959D01*
X157700795Y-96107565D01*
X157700979Y-96106897D01*
X157707388Y-96086348D01*
X157716490Y-96061398D01*
X157727560Y-96033816D01*
X157739874Y-96005375D01*
X157752705Y-95977843D01*
X157759300Y-95964554D01*
X157791749Y-95906345D01*
X157828977Y-95850220D01*
X157871666Y-95795249D01*
X157920499Y-95740502D01*
X157933642Y-95726849D01*
X157989151Y-95673310D01*
X158046431Y-95624827D01*
X158106685Y-95580531D01*
X158171117Y-95539557D01*
X158240931Y-95501037D01*
X158261917Y-95490420D01*
X158329971Y-95458548D01*
X158397985Y-95430713D01*
X158467187Y-95406541D01*
X158538807Y-95385659D01*
X158614072Y-95367692D01*
X158694212Y-95352268D01*
X158740680Y-95344752D01*
X158760516Y-95341832D01*
X158777844Y-95339566D01*
X158794061Y-95337870D01*
X158810562Y-95336659D01*
X158828742Y-95335848D01*
X158849998Y-95335355D01*
X158875724Y-95335094D01*
X158902208Y-95334991D01*
X158939423Y-95335069D01*
D12*
X169490000Y-97640000D03*
D13*
X169490000Y-100180000D03*
X169490000Y-102720000D03*
D14*
X169490000Y-105260000D03*
D13*
X169490000Y-107800000D03*
X169490000Y-116040000D03*
D14*
X169490000Y-118580000D03*
D15*
X157760000Y-109800000D03*
X161540000Y-109800000D03*
X157760000Y-109400000D03*
X161540000Y-109400000D03*
X157760000Y-109000000D03*
X161540000Y-109000000D03*
X157760000Y-108600000D03*
X161540000Y-108600000D03*
X157760000Y-108200000D03*
X161540000Y-108200000D03*
X157760000Y-107800000D03*
X161540000Y-107800000D03*
X157760000Y-107400000D03*
X161540000Y-107400000D03*
X157760000Y-107000000D03*
X161540000Y-107000000D03*
X157760000Y-106600000D03*
X161540000Y-106600000D03*
X157760000Y-106200000D03*
X161540000Y-106200000D03*
D16*
X160280000Y-102690000D03*
X158080000Y-102690000D03*
X158080000Y-100710000D03*
X160280000Y-100710000D03*
D17*
X163510000Y-108370000D03*
X163100000Y-108940000D03*
X163240000Y-109670000D03*
X162480000Y-109520000D03*
X162460000Y-110260000D03*
X163110000Y-107680000D03*
X162440000Y-107440000D03*
X162960000Y-106990000D03*
X162480000Y-106440000D03*
X162580000Y-105700000D03*
X162240000Y-102860000D03*
D18*
X157760000Y-106600000D02*
X159230000Y-106600000D01*
X159230000Y-106600000D02*
X159340000Y-106710000D01*
X157760000Y-107000000D02*
X159050000Y-107000000D01*
X159050000Y-107000000D02*
X159340000Y-106710000D01*
X157760000Y-107400000D02*
X158910000Y-107400000D01*
X158910000Y-107400000D02*
X159340000Y-107830000D01*
D19*
X159340000Y-108260000D02*
X159340000Y-107830000D01*
X159340000Y-107830000D02*
X159340000Y-106710000D01*
D18*
X157760000Y-107800000D02*
X159310000Y-107800000D01*
X159310000Y-107800000D02*
X159340000Y-107830000D01*
D19*
X159340000Y-108950000D02*
X159340000Y-108260000D01*
D18*
X157760000Y-108200000D02*
X159280000Y-108200000D01*
X159280000Y-108200000D02*
X159340000Y-108260000D01*
X157760000Y-108600000D02*
X158990000Y-108600000D01*
X158990000Y-108600000D02*
X159340000Y-108950000D01*
D19*
X159340000Y-109770000D02*
X159340000Y-108950000D01*
D18*
X157760000Y-109000000D02*
X159290000Y-109000000D01*
X159290000Y-109000000D02*
X159340000Y-108950000D01*
X157760000Y-109400000D02*
X158970000Y-109400000D01*
X158970000Y-109400000D02*
X159340000Y-109770000D01*
D19*
X159340000Y-111420000D02*
X159340000Y-109770000D01*
D18*
X157760000Y-109800000D02*
X159310000Y-109800000D01*
X159310000Y-109800000D02*
X159340000Y-109770000D01*
D19*
X161704158Y-111420000D02*
X159340000Y-111420000D01*
X165870000Y-111420000D02*
X161704158Y-111420000D01*
X169490000Y-107800000D02*
X165870000Y-111420000D01*
D18*
X163340000Y-108200000D02*
X163510000Y-108370000D01*
X161540000Y-108200000D02*
X163340000Y-108200000D01*
X162760000Y-108600000D02*
X163100000Y-108940000D01*
X161540000Y-108600000D02*
X162760000Y-108600000D01*
X162570000Y-109000000D02*
X162897101Y-109327101D01*
X161540000Y-109000000D02*
X162570000Y-109000000D01*
X162897101Y-109327101D02*
X163240000Y-109670000D01*
D19*
X169490000Y-118580000D02*
X167661200Y-118580000D01*
X167661200Y-118580000D02*
X167651200Y-118570000D01*
X169490000Y-105260000D02*
X167661200Y-105260000D01*
D18*
X161540000Y-109400000D02*
X162360000Y-109400000D01*
X162360000Y-109400000D02*
X162480000Y-109520000D01*
X161540000Y-109800000D02*
X162000000Y-109800000D01*
X162000000Y-109800000D02*
X162460000Y-110260000D01*
X162122400Y-107880000D02*
X162910000Y-107880000D01*
X162910000Y-107880000D02*
X163110000Y-107680000D01*
X161540000Y-107800000D02*
X162042400Y-107800000D01*
X162042400Y-107800000D02*
X162122400Y-107880000D01*
X161540000Y-107400000D02*
X162400000Y-107400000D01*
X162400000Y-107400000D02*
X162440000Y-107440000D01*
X161540000Y-107000000D02*
X162950000Y-107000000D01*
X162950000Y-107000000D02*
X162960000Y-106990000D01*
X161540000Y-106600000D02*
X162320000Y-106600000D01*
X162320000Y-106600000D02*
X162480000Y-106440000D01*
X161540000Y-106200000D02*
X162080000Y-106200000D01*
X162080000Y-106200000D02*
X162580000Y-105700000D01*
X162240000Y-102860000D02*
X160450000Y-102860000D01*
X160450000Y-102860000D02*
X160280000Y-102690000D01*
X160310000Y-102720000D02*
X160280000Y-102690000D01*
X158080000Y-102690000D02*
X158080000Y-105230000D01*
X158080000Y-105230000D02*
X157810000Y-105500000D01*
X158080000Y-100710000D02*
X158080000Y-102690000D01*
X157810000Y-105500000D02*
X157810000Y-106150000D01*
X157810000Y-106150000D02*
X157760000Y-106200000D01*
D20*
G36*
X171048000Y-115508217D02*
X170883680Y-115110531D01*
X170421900Y-114647945D01*
X169818247Y-114397286D01*
X169164621Y-114396716D01*
X168560531Y-114646320D01*
X168097945Y-115108100D01*
X167847286Y-115711753D01*
X167846716Y-116365379D01*
X168096320Y-116969469D01*
X168141274Y-117014501D01*
X168114302Y-117025673D01*
X167935673Y-117204301D01*
X167839000Y-117437690D01*
X167839000Y-118294250D01*
X167997750Y-118453000D01*
X169363000Y-118453000D01*
X169363000Y-118433000D01*
X169617000Y-118433000D01*
X169617000Y-118453000D01*
X169637000Y-118453000D01*
X169637000Y-118707000D01*
X169617000Y-118707000D01*
X169617000Y-118727000D01*
X169363000Y-118727000D01*
X169363000Y-118707000D01*
X167997750Y-118707000D01*
X167839000Y-118865750D01*
X167839000Y-119722310D01*
X167932048Y-119946948D01*
X167560668Y-120020820D01*
X167307611Y-120125639D01*
X166415446Y-120721764D01*
X166221764Y-120915446D01*
X165625639Y-121807611D01*
X165527899Y-122043578D01*
X165520820Y-122060668D01*
X165371068Y-122813523D01*
X165054234Y-122046726D01*
X164456422Y-121447869D01*
X163674943Y-121123370D01*
X162828770Y-121122632D01*
X162046726Y-121445766D01*
X161447869Y-122043578D01*
X161123370Y-122825057D01*
X161122632Y-123671230D01*
X161445766Y-124453274D01*
X162043578Y-125052131D01*
X162635695Y-125298000D01*
X159569139Y-125298000D01*
X158721529Y-125129400D01*
X158061570Y-124688430D01*
X157620600Y-124028472D01*
X157452000Y-123180861D01*
X157452000Y-110539283D01*
X158110000Y-110539283D01*
X158301765Y-110503200D01*
X158306600Y-110503200D01*
X158306600Y-111420000D01*
X158385263Y-111815465D01*
X158609276Y-112150724D01*
X158944535Y-112374737D01*
X159340000Y-112453400D01*
X165870000Y-112453400D01*
X166265465Y-112374737D01*
X166600724Y-112150724D01*
X169308606Y-109442842D01*
X169815379Y-109443284D01*
X170419469Y-109193680D01*
X170882055Y-108731900D01*
X171048000Y-108332261D01*
X171048000Y-115508217D01*
X171048000Y-115508217D01*
G37*
X171048000Y-115508217D02*
X170883680Y-115110531D01*
X170421900Y-114647945D01*
X169818247Y-114397286D01*
X169164621Y-114396716D01*
X168560531Y-114646320D01*
X168097945Y-115108100D01*
X167847286Y-115711753D01*
X167846716Y-116365379D01*
X168096320Y-116969469D01*
X168141274Y-117014501D01*
X168114302Y-117025673D01*
X167935673Y-117204301D01*
X167839000Y-117437690D01*
X167839000Y-118294250D01*
X167997750Y-118453000D01*
X169363000Y-118453000D01*
X169363000Y-118433000D01*
X169617000Y-118433000D01*
X169617000Y-118453000D01*
X169637000Y-118453000D01*
X169637000Y-118707000D01*
X169617000Y-118707000D01*
X169617000Y-118727000D01*
X169363000Y-118727000D01*
X169363000Y-118707000D01*
X167997750Y-118707000D01*
X167839000Y-118865750D01*
X167839000Y-119722310D01*
X167932048Y-119946948D01*
X167560668Y-120020820D01*
X167307611Y-120125639D01*
X166415446Y-120721764D01*
X166221764Y-120915446D01*
X165625639Y-121807611D01*
X165527899Y-122043578D01*
X165520820Y-122060668D01*
X165371068Y-122813523D01*
X165054234Y-122046726D01*
X164456422Y-121447869D01*
X163674943Y-121123370D01*
X162828770Y-121122632D01*
X162046726Y-121445766D01*
X161447869Y-122043578D01*
X161123370Y-122825057D01*
X161122632Y-123671230D01*
X161445766Y-124453274D01*
X162043578Y-125052131D01*
X162635695Y-125298000D01*
X159569139Y-125298000D01*
X158721529Y-125129400D01*
X158061570Y-124688430D01*
X157620600Y-124028472D01*
X157452000Y-123180861D01*
X157452000Y-110539283D01*
X158110000Y-110539283D01*
X158301765Y-110503200D01*
X158306600Y-110503200D01*
X158306600Y-111420000D01*
X158385263Y-111815465D01*
X158609276Y-112150724D01*
X158944535Y-112374737D01*
X159340000Y-112453400D01*
X165870000Y-112453400D01*
X166265465Y-112374737D01*
X166600724Y-112150724D01*
X169308606Y-109442842D01*
X169815379Y-109443284D01*
X170419469Y-109193680D01*
X170882055Y-108731900D01*
X171048000Y-108332261D01*
X171048000Y-115508217D01*
G36*
X162046726Y-90945766D02*
X161447869Y-91543578D01*
X161123370Y-92325057D01*
X161122632Y-93171230D01*
X161445766Y-93953274D01*
X162043578Y-94552131D01*
X162825057Y-94876630D01*
X163671230Y-94877368D01*
X164453274Y-94554234D01*
X165052131Y-93956422D01*
X165371318Y-93187735D01*
X165520820Y-93939332D01*
X165625639Y-94192389D01*
X166221764Y-95084554D01*
X166415446Y-95278236D01*
X167307611Y-95874361D01*
X167560668Y-95979180D01*
X168613046Y-96188511D01*
X168682187Y-96188511D01*
X168718740Y-96195782D01*
X168296036Y-96478224D01*
X167939878Y-97011251D01*
X167814812Y-97640000D01*
X167939878Y-98268749D01*
X168296036Y-98801776D01*
X168445203Y-98901447D01*
X168097945Y-99248100D01*
X167847286Y-99851753D01*
X167846716Y-100505379D01*
X168096320Y-101109469D01*
X168436446Y-101450189D01*
X168097945Y-101788100D01*
X167847286Y-102391753D01*
X167846716Y-103045379D01*
X168096320Y-103649469D01*
X168141274Y-103694501D01*
X168114302Y-103705673D01*
X167935673Y-103884301D01*
X167839000Y-104117690D01*
X167839000Y-104974250D01*
X167997750Y-105133000D01*
X169363000Y-105133000D01*
X169363000Y-105113000D01*
X169617000Y-105113000D01*
X169617000Y-105133000D01*
X169637000Y-105133000D01*
X169637000Y-105387000D01*
X169617000Y-105387000D01*
X169617000Y-105407000D01*
X169363000Y-105407000D01*
X169363000Y-105387000D01*
X167997750Y-105387000D01*
X167839000Y-105545750D01*
X167839000Y-106402310D01*
X167935673Y-106635699D01*
X168114302Y-106814327D01*
X168140812Y-106825308D01*
X168097945Y-106868100D01*
X167847286Y-107471753D01*
X167846841Y-107981711D01*
X165441952Y-110386600D01*
X162301425Y-110386600D01*
X162428327Y-110259699D01*
X162525000Y-110026310D01*
X162525000Y-110008750D01*
X162402138Y-109885888D01*
X162428327Y-109859699D01*
X162525000Y-109626310D01*
X162525000Y-109608750D01*
X162516250Y-109600000D01*
X162525000Y-109591250D01*
X162525000Y-109573690D01*
X162453055Y-109400000D01*
X162525000Y-109226310D01*
X162525000Y-109208750D01*
X162516250Y-109200000D01*
X162525000Y-109191250D01*
X162525000Y-109173690D01*
X162453055Y-109000000D01*
X162525000Y-108826310D01*
X162525000Y-108808750D01*
X162516250Y-108800000D01*
X162525000Y-108791250D01*
X162525000Y-108773690D01*
X162453055Y-108600000D01*
X162525000Y-108426310D01*
X162525000Y-108408750D01*
X162516250Y-108400000D01*
X162525000Y-108391250D01*
X162525000Y-108373690D01*
X162453055Y-108200000D01*
X162525000Y-108026310D01*
X162525000Y-108008750D01*
X162516250Y-108000000D01*
X162525000Y-107991250D01*
X162525000Y-107973690D01*
X162453055Y-107800000D01*
X162525000Y-107626310D01*
X162525000Y-107608750D01*
X162516250Y-107600000D01*
X162525000Y-107591250D01*
X162525000Y-107573690D01*
X162453055Y-107400000D01*
X162525000Y-107226310D01*
X162525000Y-107208750D01*
X162516250Y-107200000D01*
X162525000Y-107191250D01*
X162525000Y-107173690D01*
X162453055Y-107000000D01*
X162525000Y-106826310D01*
X162525000Y-106808750D01*
X162516250Y-106800000D01*
X162525000Y-106791250D01*
X162525000Y-106773690D01*
X162453055Y-106600000D01*
X162525000Y-106426310D01*
X162525000Y-106408750D01*
X162516250Y-106400000D01*
X162525000Y-106391250D01*
X162525000Y-106373690D01*
X162428327Y-106140301D01*
X162402138Y-106114112D01*
X162525000Y-105991250D01*
X162525000Y-105973690D01*
X162428327Y-105740301D01*
X162249698Y-105561673D01*
X162016309Y-105465000D01*
X161825750Y-105465000D01*
X161667000Y-105623750D01*
X161667000Y-105753849D01*
X161413000Y-105741868D01*
X161413000Y-105623750D01*
X161254250Y-105465000D01*
X161063691Y-105465000D01*
X160830302Y-105561673D01*
X160651673Y-105740301D01*
X160555000Y-105973690D01*
X160555000Y-105991250D01*
X160677862Y-106114112D01*
X160651673Y-106140301D01*
X160555000Y-106373690D01*
X160555000Y-106391250D01*
X160563750Y-106400000D01*
X160555000Y-106408750D01*
X160555000Y-106426310D01*
X160626945Y-106600000D01*
X160555000Y-106773690D01*
X160555000Y-106791250D01*
X160563750Y-106800000D01*
X160555000Y-106808750D01*
X160555000Y-106826310D01*
X160626945Y-107000000D01*
X160555000Y-107173690D01*
X160555000Y-107191250D01*
X160563750Y-107200000D01*
X160555000Y-107208750D01*
X160555000Y-107226310D01*
X160626945Y-107400000D01*
X160555000Y-107573690D01*
X160555000Y-107591250D01*
X160563750Y-107600000D01*
X160555000Y-107608750D01*
X160555000Y-107626310D01*
X160626945Y-107800000D01*
X160555000Y-107973690D01*
X160555000Y-107991250D01*
X160563750Y-108000000D01*
X160555000Y-108008750D01*
X160555000Y-108026310D01*
X160626945Y-108200000D01*
X160555000Y-108373690D01*
X160555000Y-108391250D01*
X160563750Y-108400000D01*
X160555000Y-108408750D01*
X160555000Y-108426310D01*
X160626945Y-108600000D01*
X160555000Y-108773690D01*
X160555000Y-108791250D01*
X160563750Y-108800000D01*
X160555000Y-108808750D01*
X160555000Y-108826310D01*
X160626945Y-109000000D01*
X160555000Y-109173690D01*
X160555000Y-109191250D01*
X160563750Y-109200000D01*
X160555000Y-109208750D01*
X160555000Y-109226310D01*
X160626945Y-109400000D01*
X160555000Y-109573690D01*
X160555000Y-109591250D01*
X160563750Y-109600000D01*
X160555000Y-109608750D01*
X160555000Y-109626310D01*
X160651673Y-109859699D01*
X160677862Y-109885888D01*
X160555000Y-110008750D01*
X160555000Y-110026310D01*
X160651673Y-110259699D01*
X160778575Y-110386600D01*
X160373400Y-110386600D01*
X160373400Y-106710000D01*
X160294737Y-106314535D01*
X160070724Y-105979276D01*
X159735465Y-105755263D01*
X159340000Y-105676600D01*
X158944535Y-105755263D01*
X158732710Y-105896800D01*
X158711048Y-105896800D01*
X158705563Y-105867648D01*
X158596582Y-105698287D01*
X158729672Y-105499103D01*
X158783200Y-105230000D01*
X158783200Y-103759865D01*
X158912352Y-103735563D01*
X159125753Y-103598243D01*
X159179334Y-103519826D01*
X159221757Y-103585753D01*
X159431283Y-103728917D01*
X159680000Y-103779283D01*
X160880000Y-103779283D01*
X161112352Y-103735563D01*
X161325753Y-103598243D01*
X161349697Y-103563200D01*
X161571525Y-103563200D01*
X161689879Y-103681761D01*
X162046229Y-103829731D01*
X162432079Y-103830068D01*
X162788686Y-103682720D01*
X163061761Y-103410121D01*
X163209731Y-103053771D01*
X163210068Y-102667921D01*
X163062720Y-102311314D01*
X162790121Y-102038239D01*
X162433771Y-101890269D01*
X162047921Y-101889932D01*
X161691314Y-102037280D01*
X161571585Y-102156800D01*
X161503628Y-102156800D01*
X161475563Y-102007648D01*
X161338243Y-101794247D01*
X161213651Y-101709116D01*
X161239698Y-101698327D01*
X161418327Y-101519699D01*
X161515000Y-101286310D01*
X161515000Y-100995750D01*
X161356250Y-100837000D01*
X160407000Y-100837000D01*
X160407000Y-100857000D01*
X160153000Y-100857000D01*
X160153000Y-100837000D01*
X160133000Y-100837000D01*
X160133000Y-100583000D01*
X160153000Y-100583000D01*
X160153000Y-99783750D01*
X160407000Y-99783750D01*
X160407000Y-100583000D01*
X161356250Y-100583000D01*
X161515000Y-100424250D01*
X161515000Y-100133690D01*
X161418327Y-99900301D01*
X161239698Y-99721673D01*
X161006309Y-99625000D01*
X160565750Y-99625000D01*
X160407000Y-99783750D01*
X160153000Y-99783750D01*
X159994250Y-99625000D01*
X159553691Y-99625000D01*
X159320302Y-99721673D01*
X159173279Y-99868695D01*
X159138243Y-99814247D01*
X158928717Y-99671083D01*
X158680000Y-99620717D01*
X157480000Y-99620717D01*
X157452000Y-99625986D01*
X157452000Y-97599798D01*
X157505089Y-97687183D01*
X157515261Y-97698272D01*
X157521072Y-97712152D01*
X157584073Y-97805668D01*
X157595277Y-97816787D01*
X157602081Y-97831028D01*
X157667818Y-97918939D01*
X157680167Y-97930043D01*
X157688093Y-97944638D01*
X157756428Y-98026785D01*
X157770024Y-98037793D01*
X157779199Y-98052687D01*
X157849990Y-98128913D01*
X157864954Y-98139732D01*
X157875528Y-98154870D01*
X157948637Y-98225017D01*
X157965072Y-98235514D01*
X157977193Y-98250794D01*
X158052480Y-98314703D01*
X158070479Y-98324712D01*
X158084291Y-98339994D01*
X158161615Y-98397509D01*
X158181248Y-98406828D01*
X158196878Y-98421924D01*
X158276100Y-98472888D01*
X158297400Y-98481280D01*
X158314960Y-98495965D01*
X158395941Y-98540219D01*
X158410531Y-98544793D01*
X158422715Y-98554032D01*
X158440823Y-98562834D01*
X158454662Y-98566458D01*
X158466433Y-98574584D01*
X158533615Y-98603613D01*
X158552944Y-98607763D01*
X158569875Y-98617970D01*
X158642088Y-98644015D01*
X158659630Y-98646663D01*
X158675307Y-98654967D01*
X158751363Y-98677729D01*
X158767890Y-98679295D01*
X158782942Y-98686296D01*
X158861653Y-98705476D01*
X158877819Y-98706166D01*
X158892814Y-98712241D01*
X158972992Y-98727541D01*
X158989404Y-98727413D01*
X159004913Y-98732790D01*
X159085369Y-98743912D01*
X159102664Y-98742891D01*
X159119316Y-98747673D01*
X159198862Y-98754316D01*
X159212080Y-98752816D01*
X159225005Y-98755954D01*
X159254509Y-98757190D01*
X159262272Y-98755981D01*
X159269950Y-98757648D01*
X159315167Y-98758436D01*
X159322186Y-98757167D01*
X159329190Y-98758525D01*
X159377675Y-98758294D01*
X159383756Y-98757054D01*
X159389869Y-98758118D01*
X159439563Y-98756922D01*
X159445534Y-98755584D01*
X159451580Y-98756518D01*
X159500428Y-98754412D01*
X159507062Y-98752792D01*
X159513837Y-98753692D01*
X159559783Y-98750732D01*
X159568214Y-98748483D01*
X159576887Y-98749396D01*
X159617874Y-98745636D01*
X159626692Y-98743025D01*
X159635862Y-98743726D01*
X159700700Y-98735901D01*
X159709342Y-98733071D01*
X159718427Y-98733507D01*
X159787922Y-98723117D01*
X159799157Y-98719083D01*
X159811095Y-98719211D01*
X159876181Y-98706991D01*
X159889010Y-98701838D01*
X159902829Y-98701391D01*
X159964879Y-98686949D01*
X159978505Y-98680782D01*
X159993413Y-98679602D01*
X160053797Y-98662545D01*
X160067209Y-98655704D01*
X160082144Y-98653814D01*
X160142234Y-98633751D01*
X160154503Y-98626749D01*
X160168426Y-98624360D01*
X160229594Y-98600897D01*
X160240041Y-98594309D01*
X160252127Y-98591753D01*
X160315743Y-98564499D01*
X160324075Y-98558785D01*
X160333890Y-98556385D01*
X160401328Y-98524948D01*
X160404797Y-98522405D01*
X160408963Y-98521327D01*
X160410795Y-98520443D01*
X160411423Y-98519969D01*
X160412186Y-98519770D01*
X160433051Y-98509639D01*
X160434516Y-98508529D01*
X160436288Y-98508055D01*
X160456538Y-98498080D01*
X160458335Y-98496702D01*
X160460521Y-98496101D01*
X160480601Y-98486032D01*
X160482564Y-98484505D01*
X160484957Y-98483827D01*
X160505317Y-98473421D01*
X160507355Y-98471810D01*
X160509848Y-98471082D01*
X160530933Y-98460090D01*
X160532870Y-98458534D01*
X160535251Y-98457818D01*
X160557511Y-98445994D01*
X160559283Y-98444547D01*
X160561470Y-98443873D01*
X160585352Y-98430969D01*
X160586886Y-98429699D01*
X160588786Y-98429100D01*
X160614736Y-98414870D01*
X160616022Y-98413791D01*
X160617625Y-98413277D01*
X160646093Y-98397472D01*
X160647124Y-98396598D01*
X160648409Y-98396180D01*
X160679842Y-98378557D01*
X160680668Y-98377851D01*
X160681703Y-98377510D01*
X160716548Y-98357819D01*
X160717182Y-98357273D01*
X160717975Y-98357010D01*
X160756680Y-98335005D01*
X160757158Y-98334591D01*
X160757757Y-98334391D01*
X160800770Y-98309825D01*
X160801122Y-98309519D01*
X160801569Y-98309369D01*
X160849337Y-98281994D01*
X160849586Y-98281777D01*
X160849900Y-98281671D01*
X160902871Y-98251243D01*
X160903046Y-98251090D01*
X160903268Y-98251015D01*
X160961613Y-98217444D01*
X160961617Y-98217442D01*
X160981655Y-98205925D01*
X161044848Y-98169916D01*
X161101354Y-98138247D01*
X161152475Y-98110204D01*
X161198575Y-98085587D01*
X161240288Y-98064036D01*
X161278462Y-98045068D01*
X161313978Y-98028194D01*
X161347754Y-98012925D01*
X161381056Y-97998650D01*
X161414974Y-97984879D01*
X161450687Y-97971126D01*
X161489364Y-97956945D01*
X161532208Y-97941900D01*
X161631409Y-97908148D01*
X161756902Y-97866800D01*
X161876280Y-97829094D01*
X161990794Y-97794658D01*
X162101125Y-97763304D01*
X162208401Y-97734715D01*
X162313219Y-97708733D01*
X162416678Y-97685072D01*
X162519718Y-97663508D01*
X162623411Y-97643805D01*
X162728501Y-97625807D01*
X162836272Y-97609277D01*
X162947371Y-97594096D01*
X163062798Y-97580096D01*
X163184804Y-97566984D01*
X163207918Y-97564676D01*
X163285120Y-97557363D01*
X163362329Y-97550649D01*
X163441105Y-97544410D01*
X163522025Y-97538617D01*
X163605937Y-97533220D01*
X163693055Y-97528217D01*
X163784456Y-97523554D01*
X163880137Y-97519233D01*
X163981485Y-97515193D01*
X164088255Y-97511441D01*
X164201244Y-97507942D01*
X164321920Y-97504643D01*
X164335020Y-97504305D01*
X164335268Y-97504249D01*
X164335518Y-97504292D01*
X164409848Y-97502317D01*
X164410381Y-97502196D01*
X164410923Y-97502288D01*
X164478620Y-97500374D01*
X164479355Y-97500206D01*
X164480095Y-97500330D01*
X164541514Y-97498450D01*
X164542508Y-97498220D01*
X164543518Y-97498386D01*
X164599017Y-97496511D01*
X164600341Y-97496201D01*
X164601681Y-97496415D01*
X164651617Y-97494517D01*
X164653365Y-97494100D01*
X164655139Y-97494373D01*
X164699868Y-97492423D01*
X164702133Y-97491869D01*
X164704439Y-97492207D01*
X164744321Y-97490179D01*
X164747277Y-97489433D01*
X164750301Y-97489847D01*
X164785690Y-97487711D01*
X164789512Y-97486708D01*
X164793433Y-97487196D01*
X164824689Y-97484924D01*
X164829596Y-97483572D01*
X164834655Y-97484120D01*
X164862135Y-97481685D01*
X164868432Y-97479842D01*
X164874970Y-97480416D01*
X164899032Y-97477788D01*
X164906993Y-97475280D01*
X164915322Y-97475794D01*
X164936321Y-97472947D01*
X164946305Y-97469515D01*
X164956859Y-97469818D01*
X164975155Y-97466722D01*
X164987371Y-97462068D01*
X165000447Y-97461911D01*
X165016395Y-97458539D01*
X165030884Y-97452332D01*
X165046613Y-97451369D01*
X165060571Y-97447693D01*
X165076969Y-97439693D01*
X165095092Y-97437543D01*
X165107418Y-97433534D01*
X165124783Y-97423803D01*
X165144366Y-97420234D01*
X165155416Y-97415864D01*
X165172233Y-97405015D01*
X165191657Y-97400205D01*
X165201790Y-97395446D01*
X165222448Y-97380212D01*
X165246790Y-97372064D01*
X165257316Y-97366046D01*
X165282154Y-97344450D01*
X165289865Y-97341698D01*
X165308775Y-97324586D01*
X165347101Y-97303845D01*
X165368824Y-97285829D01*
X165396284Y-97252015D01*
X165400254Y-97249087D01*
X165403150Y-97244285D01*
X165415788Y-97236380D01*
X165430999Y-97215034D01*
X165443406Y-97204247D01*
X165444762Y-97201526D01*
X165472708Y-97176237D01*
X165489879Y-97153122D01*
X165504511Y-97122248D01*
X165504794Y-97121988D01*
X165508729Y-97113549D01*
X165524277Y-97094404D01*
X165529526Y-97076772D01*
X165558895Y-97035559D01*
X165571486Y-97007574D01*
X165583435Y-96955710D01*
X165595484Y-96930285D01*
X165595639Y-96927189D01*
X165609017Y-96898501D01*
X165617002Y-96865874D01*
X165619082Y-96818269D01*
X165632550Y-96772561D01*
X165635900Y-96735520D01*
X165631781Y-96696862D01*
X165638150Y-96658507D01*
X165636839Y-96617280D01*
X165629601Y-96586106D01*
X165631658Y-96554172D01*
X165625658Y-96508989D01*
X165617032Y-96483671D01*
X165616515Y-96456929D01*
X165605799Y-96408017D01*
X165596680Y-96387151D01*
X165594622Y-96364471D01*
X165579162Y-96312057D01*
X165571531Y-96297513D01*
X165569212Y-96281256D01*
X165555347Y-96241816D01*
X165549163Y-96231368D01*
X165546995Y-96219420D01*
X165525359Y-96164595D01*
X165519305Y-96155196D01*
X165516927Y-96144272D01*
X165491375Y-96085593D01*
X165485940Y-96077768D01*
X165483638Y-96068521D01*
X165454564Y-96006820D01*
X165449503Y-95999975D01*
X165447229Y-95991775D01*
X165415028Y-95927882D01*
X165410141Y-95921626D01*
X165407832Y-95914033D01*
X165372900Y-95848783D01*
X165368010Y-95842832D01*
X165365593Y-95835518D01*
X165328324Y-95769740D01*
X165325972Y-95767013D01*
X165324805Y-95763611D01*
X165320526Y-95756251D01*
X165320008Y-95755664D01*
X165319752Y-95754924D01*
X165307474Y-95733926D01*
X165302725Y-95728570D01*
X165300237Y-95721860D01*
X165289279Y-95704042D01*
X165277033Y-95690837D01*
X165269835Y-95674330D01*
X165259564Y-95659558D01*
X165235754Y-95636614D01*
X165219473Y-95607833D01*
X165209255Y-95595972D01*
X165169140Y-95564627D01*
X165137328Y-95524883D01*
X165126531Y-95515799D01*
X165105790Y-95504385D01*
X165099797Y-95497342D01*
X165060827Y-95477398D01*
X165018387Y-95442465D01*
X165006377Y-95436023D01*
X164990596Y-95431211D01*
X164990064Y-95430777D01*
X164950418Y-95418878D01*
X164910491Y-95396905D01*
X164901626Y-95395922D01*
X164880280Y-95384998D01*
X164866426Y-95381064D01*
X164811702Y-95376659D01*
X164770505Y-95364096D01*
X164768528Y-95364288D01*
X164753878Y-95359891D01*
X164737545Y-95358331D01*
X164696324Y-95362514D01*
X164655431Y-95355852D01*
X164635987Y-95356530D01*
X164609677Y-95362724D01*
X164582726Y-95360646D01*
X164559538Y-95363428D01*
X164543900Y-95368537D01*
X164527455Y-95368115D01*
X164499890Y-95372867D01*
X164491248Y-95376190D01*
X164481992Y-95376219D01*
X164449419Y-95382805D01*
X164445261Y-95384543D01*
X164440756Y-95384620D01*
X164402539Y-95392907D01*
X164401233Y-95393474D01*
X164399809Y-95393505D01*
X164355682Y-95403278D01*
X164269437Y-95422260D01*
X164122593Y-95454063D01*
X163976632Y-95485035D01*
X163832696Y-95514941D01*
X163690401Y-95543875D01*
X163550191Y-95571754D01*
X163412818Y-95598435D01*
X163278260Y-95623929D01*
X163147325Y-95648088D01*
X163019729Y-95670967D01*
X162896789Y-95692333D01*
X162778078Y-95712263D01*
X162664462Y-95730611D01*
X162556359Y-95747310D01*
X162454146Y-95762305D01*
X162358310Y-95775528D01*
X162269534Y-95786889D01*
X162186903Y-95796506D01*
X162130276Y-95802574D01*
X162077170Y-95807903D01*
X162031174Y-95812092D01*
X161991976Y-95815195D01*
X161959112Y-95817301D01*
X161932004Y-95818542D01*
X161909782Y-95819077D01*
X161891405Y-95819070D01*
X161875343Y-95818639D01*
X161859992Y-95817813D01*
X161841272Y-95816320D01*
X161839328Y-95816135D01*
X161815300Y-95813557D01*
X161790397Y-95810509D01*
X161765077Y-95807066D01*
X161741911Y-95803601D01*
X161723832Y-95800610D01*
X161715587Y-95799071D01*
X161706513Y-95797059D01*
X161692624Y-95796756D01*
X161679679Y-95791717D01*
X161677330Y-95791302D01*
X161665462Y-95791557D01*
X161652487Y-95781409D01*
X161648547Y-95779420D01*
X161630334Y-95774359D01*
X161614786Y-95763613D01*
X161605137Y-95759438D01*
X161600190Y-95758373D01*
X161595983Y-95755562D01*
X161581528Y-95749575D01*
X161578995Y-95749071D01*
X161576835Y-95747653D01*
X161558466Y-95740217D01*
X161556669Y-95739875D01*
X161555134Y-95738879D01*
X161533741Y-95730360D01*
X161532224Y-95730080D01*
X161530928Y-95729248D01*
X161507405Y-95720010D01*
X161507402Y-95720010D01*
X161475852Y-95707619D01*
X161437465Y-95692288D01*
X161400333Y-95677142D01*
X161363554Y-95661800D01*
X161326435Y-95645955D01*
X161288576Y-95629421D01*
X161248824Y-95611680D01*
X161207254Y-95592749D01*
X161162613Y-95572047D01*
X161114959Y-95549592D01*
X161063383Y-95524950D01*
X161007453Y-95497916D01*
X160946974Y-95468399D01*
X160881478Y-95436179D01*
X160810253Y-95400921D01*
X160732408Y-95362193D01*
X160732407Y-95362193D01*
X160710085Y-95351068D01*
X160709875Y-95351011D01*
X160709703Y-95350878D01*
X160621686Y-95307087D01*
X160621286Y-95306978D01*
X160620956Y-95306724D01*
X160538724Y-95265944D01*
X160538223Y-95265808D01*
X160537812Y-95265493D01*
X160460979Y-95227544D01*
X160460366Y-95227379D01*
X160459861Y-95226993D01*
X160388040Y-95191695D01*
X160387305Y-95191499D01*
X160386701Y-95191039D01*
X160319503Y-95158210D01*
X160318618Y-95157976D01*
X160317887Y-95157423D01*
X160254923Y-95126884D01*
X160253884Y-95126613D01*
X160253026Y-95125968D01*
X160193910Y-95097539D01*
X160192709Y-95097230D01*
X160191714Y-95096488D01*
X160136058Y-95069986D01*
X160134674Y-95069636D01*
X160133523Y-95068785D01*
X160080939Y-95044032D01*
X160079378Y-95043644D01*
X160078077Y-95042693D01*
X160028179Y-95019509D01*
X160026442Y-95019086D01*
X160024991Y-95018038D01*
X159977390Y-94996241D01*
X159975505Y-94995793D01*
X159973926Y-94994667D01*
X159928234Y-94974076D01*
X159926216Y-94973610D01*
X159924524Y-94972419D01*
X159880355Y-94952855D01*
X159878250Y-94952383D01*
X159876479Y-94951154D01*
X159833445Y-94932436D01*
X159831303Y-94931971D01*
X159829492Y-94930732D01*
X159787202Y-94912680D01*
X159785086Y-94912235D01*
X159783295Y-94911028D01*
X159741366Y-94893461D01*
X159739332Y-94893048D01*
X159737607Y-94891901D01*
X159695649Y-94874639D01*
X159693761Y-94874268D01*
X159692150Y-94873211D01*
X159649775Y-94856073D01*
X159648072Y-94855749D01*
X159646619Y-94854807D01*
X159603441Y-94837614D01*
X159600839Y-94837134D01*
X159598607Y-94835712D01*
X159587229Y-94831289D01*
X159577684Y-94829607D01*
X159569357Y-94824651D01*
X159512434Y-94804479D01*
X159498770Y-94802495D01*
X159486614Y-94795950D01*
X159426162Y-94777413D01*
X159413268Y-94776104D01*
X159401618Y-94770426D01*
X159340521Y-94754359D01*
X159326555Y-94753509D01*
X159313725Y-94747934D01*
X159254870Y-94735171D01*
X159245202Y-94735005D01*
X159236219Y-94731419D01*
X159214255Y-94727344D01*
X159208873Y-94727413D01*
X159203842Y-94725502D01*
X159177314Y-94721038D01*
X159168297Y-94721305D01*
X159159779Y-94718340D01*
X159135232Y-94714915D01*
X159124113Y-94715557D01*
X159113471Y-94712262D01*
X159089402Y-94709751D01*
X159078029Y-94710805D01*
X159067008Y-94707817D01*
X159041909Y-94706098D01*
X159032211Y-94707346D01*
X159022701Y-94705076D01*
X158995070Y-94704027D01*
X158988064Y-94705146D01*
X158981130Y-94703652D01*
X158949459Y-94703149D01*
X158945098Y-94703945D01*
X158940748Y-94703070D01*
X158903533Y-94702992D01*
X158901640Y-94703364D01*
X158899750Y-94702996D01*
X158873266Y-94703099D01*
X158871291Y-94703500D01*
X158869312Y-94703127D01*
X158843586Y-94703388D01*
X158839479Y-94704248D01*
X158835344Y-94703525D01*
X158814088Y-94704018D01*
X158807375Y-94705516D01*
X158800577Y-94704476D01*
X158782397Y-94705287D01*
X158773449Y-94707485D01*
X158764304Y-94706354D01*
X158747803Y-94707565D01*
X158738221Y-94710213D01*
X158728323Y-94709298D01*
X158712107Y-94710994D01*
X158704177Y-94713452D01*
X158695895Y-94712902D01*
X158678566Y-94715168D01*
X158673655Y-94716830D01*
X158668473Y-94716570D01*
X158648637Y-94719490D01*
X158644334Y-94721024D01*
X158639768Y-94720860D01*
X158593300Y-94728376D01*
X158584333Y-94731717D01*
X158574768Y-94731658D01*
X158494627Y-94747082D01*
X158481494Y-94752427D01*
X158467327Y-94752965D01*
X158392061Y-94770932D01*
X158377675Y-94777542D01*
X158361903Y-94778923D01*
X158290283Y-94799805D01*
X158275398Y-94807555D01*
X158258780Y-94809892D01*
X158189578Y-94834064D01*
X158175101Y-94842593D01*
X158158607Y-94845801D01*
X158090593Y-94873636D01*
X158077349Y-94882404D01*
X158061924Y-94886206D01*
X157993870Y-94918078D01*
X157986011Y-94923860D01*
X157976616Y-94926481D01*
X157955629Y-94937098D01*
X157946575Y-94944193D01*
X157935615Y-94947678D01*
X157865800Y-94986198D01*
X157850561Y-94999048D01*
X157831978Y-95006257D01*
X157767546Y-95047231D01*
X157751919Y-95062166D01*
X157732340Y-95071326D01*
X157672086Y-95115622D01*
X157657297Y-95131802D01*
X157638120Y-95142430D01*
X157580840Y-95190913D01*
X157567895Y-95207185D01*
X157550404Y-95218420D01*
X157494895Y-95271958D01*
X157488101Y-95281739D01*
X157478327Y-95288542D01*
X157465184Y-95302195D01*
X157458599Y-95312469D01*
X157452000Y-95317444D01*
X157452000Y-92819139D01*
X157620600Y-91971528D01*
X158061570Y-91311570D01*
X158721529Y-90870600D01*
X159569139Y-90702000D01*
X162636685Y-90702000D01*
X162046726Y-90945766D01*
X162046726Y-90945766D01*
G37*
X162046726Y-90945766D02*
X161447869Y-91543578D01*
X161123370Y-92325057D01*
X161122632Y-93171230D01*
X161445766Y-93953274D01*
X162043578Y-94552131D01*
X162825057Y-94876630D01*
X163671230Y-94877368D01*
X164453274Y-94554234D01*
X165052131Y-93956422D01*
X165371318Y-93187735D01*
X165520820Y-93939332D01*
X165625639Y-94192389D01*
X166221764Y-95084554D01*
X166415446Y-95278236D01*
X167307611Y-95874361D01*
X167560668Y-95979180D01*
X168613046Y-96188511D01*
X168682187Y-96188511D01*
X168718740Y-96195782D01*
X168296036Y-96478224D01*
X167939878Y-97011251D01*
X167814812Y-97640000D01*
X167939878Y-98268749D01*
X168296036Y-98801776D01*
X168445203Y-98901447D01*
X168097945Y-99248100D01*
X167847286Y-99851753D01*
X167846716Y-100505379D01*
X168096320Y-101109469D01*
X168436446Y-101450189D01*
X168097945Y-101788100D01*
X167847286Y-102391753D01*
X167846716Y-103045379D01*
X168096320Y-103649469D01*
X168141274Y-103694501D01*
X168114302Y-103705673D01*
X167935673Y-103884301D01*
X167839000Y-104117690D01*
X167839000Y-104974250D01*
X167997750Y-105133000D01*
X169363000Y-105133000D01*
X169363000Y-105113000D01*
X169617000Y-105113000D01*
X169617000Y-105133000D01*
X169637000Y-105133000D01*
X169637000Y-105387000D01*
X169617000Y-105387000D01*
X169617000Y-105407000D01*
X169363000Y-105407000D01*
X169363000Y-105387000D01*
X167997750Y-105387000D01*
X167839000Y-105545750D01*
X167839000Y-106402310D01*
X167935673Y-106635699D01*
X168114302Y-106814327D01*
X168140812Y-106825308D01*
X168097945Y-106868100D01*
X167847286Y-107471753D01*
X167846841Y-107981711D01*
X165441952Y-110386600D01*
X162301425Y-110386600D01*
X162428327Y-110259699D01*
X162525000Y-110026310D01*
X162525000Y-110008750D01*
X162402138Y-109885888D01*
X162428327Y-109859699D01*
X162525000Y-109626310D01*
X162525000Y-109608750D01*
X162516250Y-109600000D01*
X162525000Y-109591250D01*
X162525000Y-109573690D01*
X162453055Y-109400000D01*
X162525000Y-109226310D01*
X162525000Y-109208750D01*
X162516250Y-109200000D01*
X162525000Y-109191250D01*
X162525000Y-109173690D01*
X162453055Y-109000000D01*
X162525000Y-108826310D01*
X162525000Y-108808750D01*
X162516250Y-108800000D01*
X162525000Y-108791250D01*
X162525000Y-108773690D01*
X162453055Y-108600000D01*
X162525000Y-108426310D01*
X162525000Y-108408750D01*
X162516250Y-108400000D01*
X162525000Y-108391250D01*
X162525000Y-108373690D01*
X162453055Y-108200000D01*
X162525000Y-108026310D01*
X162525000Y-108008750D01*
X162516250Y-108000000D01*
X162525000Y-107991250D01*
X162525000Y-107973690D01*
X162453055Y-107800000D01*
X162525000Y-107626310D01*
X162525000Y-107608750D01*
X162516250Y-107600000D01*
X162525000Y-107591250D01*
X162525000Y-107573690D01*
X162453055Y-107400000D01*
X162525000Y-107226310D01*
X162525000Y-107208750D01*
X162516250Y-107200000D01*
X162525000Y-107191250D01*
X162525000Y-107173690D01*
X162453055Y-107000000D01*
X162525000Y-106826310D01*
X162525000Y-106808750D01*
X162516250Y-106800000D01*
X162525000Y-106791250D01*
X162525000Y-106773690D01*
X162453055Y-106600000D01*
X162525000Y-106426310D01*
X162525000Y-106408750D01*
X162516250Y-106400000D01*
X162525000Y-106391250D01*
X162525000Y-106373690D01*
X162428327Y-106140301D01*
X162402138Y-106114112D01*
X162525000Y-105991250D01*
X162525000Y-105973690D01*
X162428327Y-105740301D01*
X162249698Y-105561673D01*
X162016309Y-105465000D01*
X161825750Y-105465000D01*
X161667000Y-105623750D01*
X161667000Y-105753849D01*
X161413000Y-105741868D01*
X161413000Y-105623750D01*
X161254250Y-105465000D01*
X161063691Y-105465000D01*
X160830302Y-105561673D01*
X160651673Y-105740301D01*
X160555000Y-105973690D01*
X160555000Y-105991250D01*
X160677862Y-106114112D01*
X160651673Y-106140301D01*
X160555000Y-106373690D01*
X160555000Y-106391250D01*
X160563750Y-106400000D01*
X160555000Y-106408750D01*
X160555000Y-106426310D01*
X160626945Y-106600000D01*
X160555000Y-106773690D01*
X160555000Y-106791250D01*
X160563750Y-106800000D01*
X160555000Y-106808750D01*
X160555000Y-106826310D01*
X160626945Y-107000000D01*
X160555000Y-107173690D01*
X160555000Y-107191250D01*
X160563750Y-107200000D01*
X160555000Y-107208750D01*
X160555000Y-107226310D01*
X160626945Y-107400000D01*
X160555000Y-107573690D01*
X160555000Y-107591250D01*
X160563750Y-107600000D01*
X160555000Y-107608750D01*
X160555000Y-107626310D01*
X160626945Y-107800000D01*
X160555000Y-107973690D01*
X160555000Y-107991250D01*
X160563750Y-108000000D01*
X160555000Y-108008750D01*
X160555000Y-108026310D01*
X160626945Y-108200000D01*
X160555000Y-108373690D01*
X160555000Y-108391250D01*
X160563750Y-108400000D01*
X160555000Y-108408750D01*
X160555000Y-108426310D01*
X160626945Y-108600000D01*
X160555000Y-108773690D01*
X160555000Y-108791250D01*
X160563750Y-108800000D01*
X160555000Y-108808750D01*
X160555000Y-108826310D01*
X160626945Y-109000000D01*
X160555000Y-109173690D01*
X160555000Y-109191250D01*
X160563750Y-109200000D01*
X160555000Y-109208750D01*
X160555000Y-109226310D01*
X160626945Y-109400000D01*
X160555000Y-109573690D01*
X160555000Y-109591250D01*
X160563750Y-109600000D01*
X160555000Y-109608750D01*
X160555000Y-109626310D01*
X160651673Y-109859699D01*
X160677862Y-109885888D01*
X160555000Y-110008750D01*
X160555000Y-110026310D01*
X160651673Y-110259699D01*
X160778575Y-110386600D01*
X160373400Y-110386600D01*
X160373400Y-106710000D01*
X160294737Y-106314535D01*
X160070724Y-105979276D01*
X159735465Y-105755263D01*
X159340000Y-105676600D01*
X158944535Y-105755263D01*
X158732710Y-105896800D01*
X158711048Y-105896800D01*
X158705563Y-105867648D01*
X158596582Y-105698287D01*
X158729672Y-105499103D01*
X158783200Y-105230000D01*
X158783200Y-103759865D01*
X158912352Y-103735563D01*
X159125753Y-103598243D01*
X159179334Y-103519826D01*
X159221757Y-103585753D01*
X159431283Y-103728917D01*
X159680000Y-103779283D01*
X160880000Y-103779283D01*
X161112352Y-103735563D01*
X161325753Y-103598243D01*
X161349697Y-103563200D01*
X161571525Y-103563200D01*
X161689879Y-103681761D01*
X162046229Y-103829731D01*
X162432079Y-103830068D01*
X162788686Y-103682720D01*
X163061761Y-103410121D01*
X163209731Y-103053771D01*
X163210068Y-102667921D01*
X163062720Y-102311314D01*
X162790121Y-102038239D01*
X162433771Y-101890269D01*
X162047921Y-101889932D01*
X161691314Y-102037280D01*
X161571585Y-102156800D01*
X161503628Y-102156800D01*
X161475563Y-102007648D01*
X161338243Y-101794247D01*
X161213651Y-101709116D01*
X161239698Y-101698327D01*
X161418327Y-101519699D01*
X161515000Y-101286310D01*
X161515000Y-100995750D01*
X161356250Y-100837000D01*
X160407000Y-100837000D01*
X160407000Y-100857000D01*
X160153000Y-100857000D01*
X160153000Y-100837000D01*
X160133000Y-100837000D01*
X160133000Y-100583000D01*
X160153000Y-100583000D01*
X160153000Y-99783750D01*
X160407000Y-99783750D01*
X160407000Y-100583000D01*
X161356250Y-100583000D01*
X161515000Y-100424250D01*
X161515000Y-100133690D01*
X161418327Y-99900301D01*
X161239698Y-99721673D01*
X161006309Y-99625000D01*
X160565750Y-99625000D01*
X160407000Y-99783750D01*
X160153000Y-99783750D01*
X159994250Y-99625000D01*
X159553691Y-99625000D01*
X159320302Y-99721673D01*
X159173279Y-99868695D01*
X159138243Y-99814247D01*
X158928717Y-99671083D01*
X158680000Y-99620717D01*
X157480000Y-99620717D01*
X157452000Y-99625986D01*
X157452000Y-97599798D01*
X157505089Y-97687183D01*
X157515261Y-97698272D01*
X157521072Y-97712152D01*
X157584073Y-97805668D01*
X157595277Y-97816787D01*
X157602081Y-97831028D01*
X157667818Y-97918939D01*
X157680167Y-97930043D01*
X157688093Y-97944638D01*
X157756428Y-98026785D01*
X157770024Y-98037793D01*
X157779199Y-98052687D01*
X157849990Y-98128913D01*
X157864954Y-98139732D01*
X157875528Y-98154870D01*
X157948637Y-98225017D01*
X157965072Y-98235514D01*
X157977193Y-98250794D01*
X158052480Y-98314703D01*
X158070479Y-98324712D01*
X158084291Y-98339994D01*
X158161615Y-98397509D01*
X158181248Y-98406828D01*
X158196878Y-98421924D01*
X158276100Y-98472888D01*
X158297400Y-98481280D01*
X158314960Y-98495965D01*
X158395941Y-98540219D01*
X158410531Y-98544793D01*
X158422715Y-98554032D01*
X158440823Y-98562834D01*
X158454662Y-98566458D01*
X158466433Y-98574584D01*
X158533615Y-98603613D01*
X158552944Y-98607763D01*
X158569875Y-98617970D01*
X158642088Y-98644015D01*
X158659630Y-98646663D01*
X158675307Y-98654967D01*
X158751363Y-98677729D01*
X158767890Y-98679295D01*
X158782942Y-98686296D01*
X158861653Y-98705476D01*
X158877819Y-98706166D01*
X158892814Y-98712241D01*
X158972992Y-98727541D01*
X158989404Y-98727413D01*
X159004913Y-98732790D01*
X159085369Y-98743912D01*
X159102664Y-98742891D01*
X159119316Y-98747673D01*
X159198862Y-98754316D01*
X159212080Y-98752816D01*
X159225005Y-98755954D01*
X159254509Y-98757190D01*
X159262272Y-98755981D01*
X159269950Y-98757648D01*
X159315167Y-98758436D01*
X159322186Y-98757167D01*
X159329190Y-98758525D01*
X159377675Y-98758294D01*
X159383756Y-98757054D01*
X159389869Y-98758118D01*
X159439563Y-98756922D01*
X159445534Y-98755584D01*
X159451580Y-98756518D01*
X159500428Y-98754412D01*
X159507062Y-98752792D01*
X159513837Y-98753692D01*
X159559783Y-98750732D01*
X159568214Y-98748483D01*
X159576887Y-98749396D01*
X159617874Y-98745636D01*
X159626692Y-98743025D01*
X159635862Y-98743726D01*
X159700700Y-98735901D01*
X159709342Y-98733071D01*
X159718427Y-98733507D01*
X159787922Y-98723117D01*
X159799157Y-98719083D01*
X159811095Y-98719211D01*
X159876181Y-98706991D01*
X159889010Y-98701838D01*
X159902829Y-98701391D01*
X159964879Y-98686949D01*
X159978505Y-98680782D01*
X159993413Y-98679602D01*
X160053797Y-98662545D01*
X160067209Y-98655704D01*
X160082144Y-98653814D01*
X160142234Y-98633751D01*
X160154503Y-98626749D01*
X160168426Y-98624360D01*
X160229594Y-98600897D01*
X160240041Y-98594309D01*
X160252127Y-98591753D01*
X160315743Y-98564499D01*
X160324075Y-98558785D01*
X160333890Y-98556385D01*
X160401328Y-98524948D01*
X160404797Y-98522405D01*
X160408963Y-98521327D01*
X160410795Y-98520443D01*
X160411423Y-98519969D01*
X160412186Y-98519770D01*
X160433051Y-98509639D01*
X160434516Y-98508529D01*
X160436288Y-98508055D01*
X160456538Y-98498080D01*
X160458335Y-98496702D01*
X160460521Y-98496101D01*
X160480601Y-98486032D01*
X160482564Y-98484505D01*
X160484957Y-98483827D01*
X160505317Y-98473421D01*
X160507355Y-98471810D01*
X160509848Y-98471082D01*
X160530933Y-98460090D01*
X160532870Y-98458534D01*
X160535251Y-98457818D01*
X160557511Y-98445994D01*
X160559283Y-98444547D01*
X160561470Y-98443873D01*
X160585352Y-98430969D01*
X160586886Y-98429699D01*
X160588786Y-98429100D01*
X160614736Y-98414870D01*
X160616022Y-98413791D01*
X160617625Y-98413277D01*
X160646093Y-98397472D01*
X160647124Y-98396598D01*
X160648409Y-98396180D01*
X160679842Y-98378557D01*
X160680668Y-98377851D01*
X160681703Y-98377510D01*
X160716548Y-98357819D01*
X160717182Y-98357273D01*
X160717975Y-98357010D01*
X160756680Y-98335005D01*
X160757158Y-98334591D01*
X160757757Y-98334391D01*
X160800770Y-98309825D01*
X160801122Y-98309519D01*
X160801569Y-98309369D01*
X160849337Y-98281994D01*
X160849586Y-98281777D01*
X160849900Y-98281671D01*
X160902871Y-98251243D01*
X160903046Y-98251090D01*
X160903268Y-98251015D01*
X160961613Y-98217444D01*
X160961617Y-98217442D01*
X160981655Y-98205925D01*
X161044848Y-98169916D01*
X161101354Y-98138247D01*
X161152475Y-98110204D01*
X161198575Y-98085587D01*
X161240288Y-98064036D01*
X161278462Y-98045068D01*
X161313978Y-98028194D01*
X161347754Y-98012925D01*
X161381056Y-97998650D01*
X161414974Y-97984879D01*
X161450687Y-97971126D01*
X161489364Y-97956945D01*
X161532208Y-97941900D01*
X161631409Y-97908148D01*
X161756902Y-97866800D01*
X161876280Y-97829094D01*
X161990794Y-97794658D01*
X162101125Y-97763304D01*
X162208401Y-97734715D01*
X162313219Y-97708733D01*
X162416678Y-97685072D01*
X162519718Y-97663508D01*
X162623411Y-97643805D01*
X162728501Y-97625807D01*
X162836272Y-97609277D01*
X162947371Y-97594096D01*
X163062798Y-97580096D01*
X163184804Y-97566984D01*
X163207918Y-97564676D01*
X163285120Y-97557363D01*
X163362329Y-97550649D01*
X163441105Y-97544410D01*
X163522025Y-97538617D01*
X163605937Y-97533220D01*
X163693055Y-97528217D01*
X163784456Y-97523554D01*
X163880137Y-97519233D01*
X163981485Y-97515193D01*
X164088255Y-97511441D01*
X164201244Y-97507942D01*
X164321920Y-97504643D01*
X164335020Y-97504305D01*
X164335268Y-97504249D01*
X164335518Y-97504292D01*
X164409848Y-97502317D01*
X164410381Y-97502196D01*
X164410923Y-97502288D01*
X164478620Y-97500374D01*
X164479355Y-97500206D01*
X164480095Y-97500330D01*
X164541514Y-97498450D01*
X164542508Y-97498220D01*
X164543518Y-97498386D01*
X164599017Y-97496511D01*
X164600341Y-97496201D01*
X164601681Y-97496415D01*
X164651617Y-97494517D01*
X164653365Y-97494100D01*
X164655139Y-97494373D01*
X164699868Y-97492423D01*
X164702133Y-97491869D01*
X164704439Y-97492207D01*
X164744321Y-97490179D01*
X164747277Y-97489433D01*
X164750301Y-97489847D01*
X164785690Y-97487711D01*
X164789512Y-97486708D01*
X164793433Y-97487196D01*
X164824689Y-97484924D01*
X164829596Y-97483572D01*
X164834655Y-97484120D01*
X164862135Y-97481685D01*
X164868432Y-97479842D01*
X164874970Y-97480416D01*
X164899032Y-97477788D01*
X164906993Y-97475280D01*
X164915322Y-97475794D01*
X164936321Y-97472947D01*
X164946305Y-97469515D01*
X164956859Y-97469818D01*
X164975155Y-97466722D01*
X164987371Y-97462068D01*
X165000447Y-97461911D01*
X165016395Y-97458539D01*
X165030884Y-97452332D01*
X165046613Y-97451369D01*
X165060571Y-97447693D01*
X165076969Y-97439693D01*
X165095092Y-97437543D01*
X165107418Y-97433534D01*
X165124783Y-97423803D01*
X165144366Y-97420234D01*
X165155416Y-97415864D01*
X165172233Y-97405015D01*
X165191657Y-97400205D01*
X165201790Y-97395446D01*
X165222448Y-97380212D01*
X165246790Y-97372064D01*
X165257316Y-97366046D01*
X165282154Y-97344450D01*
X165289865Y-97341698D01*
X165308775Y-97324586D01*
X165347101Y-97303845D01*
X165368824Y-97285829D01*
X165396284Y-97252015D01*
X165400254Y-97249087D01*
X165403150Y-97244285D01*
X165415788Y-97236380D01*
X165430999Y-97215034D01*
X165443406Y-97204247D01*
X165444762Y-97201526D01*
X165472708Y-97176237D01*
X165489879Y-97153122D01*
X165504511Y-97122248D01*
X165504794Y-97121988D01*
X165508729Y-97113549D01*
X165524277Y-97094404D01*
X165529526Y-97076772D01*
X165558895Y-97035559D01*
X165571486Y-97007574D01*
X165583435Y-96955710D01*
X165595484Y-96930285D01*
X165595639Y-96927189D01*
X165609017Y-96898501D01*
X165617002Y-96865874D01*
X165619082Y-96818269D01*
X165632550Y-96772561D01*
X165635900Y-96735520D01*
X165631781Y-96696862D01*
X165638150Y-96658507D01*
X165636839Y-96617280D01*
X165629601Y-96586106D01*
X165631658Y-96554172D01*
X165625658Y-96508989D01*
X165617032Y-96483671D01*
X165616515Y-96456929D01*
X165605799Y-96408017D01*
X165596680Y-96387151D01*
X165594622Y-96364471D01*
X165579162Y-96312057D01*
X165571531Y-96297513D01*
X165569212Y-96281256D01*
X165555347Y-96241816D01*
X165549163Y-96231368D01*
X165546995Y-96219420D01*
X165525359Y-96164595D01*
X165519305Y-96155196D01*
X165516927Y-96144272D01*
X165491375Y-96085593D01*
X165485940Y-96077768D01*
X165483638Y-96068521D01*
X165454564Y-96006820D01*
X165449503Y-95999975D01*
X165447229Y-95991775D01*
X165415028Y-95927882D01*
X165410141Y-95921626D01*
X165407832Y-95914033D01*
X165372900Y-95848783D01*
X165368010Y-95842832D01*
X165365593Y-95835518D01*
X165328324Y-95769740D01*
X165325972Y-95767013D01*
X165324805Y-95763611D01*
X165320526Y-95756251D01*
X165320008Y-95755664D01*
X165319752Y-95754924D01*
X165307474Y-95733926D01*
X165302725Y-95728570D01*
X165300237Y-95721860D01*
X165289279Y-95704042D01*
X165277033Y-95690837D01*
X165269835Y-95674330D01*
X165259564Y-95659558D01*
X165235754Y-95636614D01*
X165219473Y-95607833D01*
X165209255Y-95595972D01*
X165169140Y-95564627D01*
X165137328Y-95524883D01*
X165126531Y-95515799D01*
X165105790Y-95504385D01*
X165099797Y-95497342D01*
X165060827Y-95477398D01*
X165018387Y-95442465D01*
X165006377Y-95436023D01*
X164990596Y-95431211D01*
X164990064Y-95430777D01*
X164950418Y-95418878D01*
X164910491Y-95396905D01*
X164901626Y-95395922D01*
X164880280Y-95384998D01*
X164866426Y-95381064D01*
X164811702Y-95376659D01*
X164770505Y-95364096D01*
X164768528Y-95364288D01*
X164753878Y-95359891D01*
X164737545Y-95358331D01*
X164696324Y-95362514D01*
X164655431Y-95355852D01*
X164635987Y-95356530D01*
X164609677Y-95362724D01*
X164582726Y-95360646D01*
X164559538Y-95363428D01*
X164543900Y-95368537D01*
X164527455Y-95368115D01*
X164499890Y-95372867D01*
X164491248Y-95376190D01*
X164481992Y-95376219D01*
X164449419Y-95382805D01*
X164445261Y-95384543D01*
X164440756Y-95384620D01*
X164402539Y-95392907D01*
X164401233Y-95393474D01*
X164399809Y-95393505D01*
X164355682Y-95403278D01*
X164269437Y-95422260D01*
X164122593Y-95454063D01*
X163976632Y-95485035D01*
X163832696Y-95514941D01*
X163690401Y-95543875D01*
X163550191Y-95571754D01*
X163412818Y-95598435D01*
X163278260Y-95623929D01*
X163147325Y-95648088D01*
X163019729Y-95670967D01*
X162896789Y-95692333D01*
X162778078Y-95712263D01*
X162664462Y-95730611D01*
X162556359Y-95747310D01*
X162454146Y-95762305D01*
X162358310Y-95775528D01*
X162269534Y-95786889D01*
X162186903Y-95796506D01*
X162130276Y-95802574D01*
X162077170Y-95807903D01*
X162031174Y-95812092D01*
X161991976Y-95815195D01*
X161959112Y-95817301D01*
X161932004Y-95818542D01*
X161909782Y-95819077D01*
X161891405Y-95819070D01*
X161875343Y-95818639D01*
X161859992Y-95817813D01*
X161841272Y-95816320D01*
X161839328Y-95816135D01*
X161815300Y-95813557D01*
X161790397Y-95810509D01*
X161765077Y-95807066D01*
X161741911Y-95803601D01*
X161723832Y-95800610D01*
X161715587Y-95799071D01*
X161706513Y-95797059D01*
X161692624Y-95796756D01*
X161679679Y-95791717D01*
X161677330Y-95791302D01*
X161665462Y-95791557D01*
X161652487Y-95781409D01*
X161648547Y-95779420D01*
X161630334Y-95774359D01*
X161614786Y-95763613D01*
X161605137Y-95759438D01*
X161600190Y-95758373D01*
X161595983Y-95755562D01*
X161581528Y-95749575D01*
X161578995Y-95749071D01*
X161576835Y-95747653D01*
X161558466Y-95740217D01*
X161556669Y-95739875D01*
X161555134Y-95738879D01*
X161533741Y-95730360D01*
X161532224Y-95730080D01*
X161530928Y-95729248D01*
X161507405Y-95720010D01*
X161507402Y-95720010D01*
X161475852Y-95707619D01*
X161437465Y-95692288D01*
X161400333Y-95677142D01*
X161363554Y-95661800D01*
X161326435Y-95645955D01*
X161288576Y-95629421D01*
X161248824Y-95611680D01*
X161207254Y-95592749D01*
X161162613Y-95572047D01*
X161114959Y-95549592D01*
X161063383Y-95524950D01*
X161007453Y-95497916D01*
X160946974Y-95468399D01*
X160881478Y-95436179D01*
X160810253Y-95400921D01*
X160732408Y-95362193D01*
X160732407Y-95362193D01*
X160710085Y-95351068D01*
X160709875Y-95351011D01*
X160709703Y-95350878D01*
X160621686Y-95307087D01*
X160621286Y-95306978D01*
X160620956Y-95306724D01*
X160538724Y-95265944D01*
X160538223Y-95265808D01*
X160537812Y-95265493D01*
X160460979Y-95227544D01*
X160460366Y-95227379D01*
X160459861Y-95226993D01*
X160388040Y-95191695D01*
X160387305Y-95191499D01*
X160386701Y-95191039D01*
X160319503Y-95158210D01*
X160318618Y-95157976D01*
X160317887Y-95157423D01*
X160254923Y-95126884D01*
X160253884Y-95126613D01*
X160253026Y-95125968D01*
X160193910Y-95097539D01*
X160192709Y-95097230D01*
X160191714Y-95096488D01*
X160136058Y-95069986D01*
X160134674Y-95069636D01*
X160133523Y-95068785D01*
X160080939Y-95044032D01*
X160079378Y-95043644D01*
X160078077Y-95042693D01*
X160028179Y-95019509D01*
X160026442Y-95019086D01*
X160024991Y-95018038D01*
X159977390Y-94996241D01*
X159975505Y-94995793D01*
X159973926Y-94994667D01*
X159928234Y-94974076D01*
X159926216Y-94973610D01*
X159924524Y-94972419D01*
X159880355Y-94952855D01*
X159878250Y-94952383D01*
X159876479Y-94951154D01*
X159833445Y-94932436D01*
X159831303Y-94931971D01*
X159829492Y-94930732D01*
X159787202Y-94912680D01*
X159785086Y-94912235D01*
X159783295Y-94911028D01*
X159741366Y-94893461D01*
X159739332Y-94893048D01*
X159737607Y-94891901D01*
X159695649Y-94874639D01*
X159693761Y-94874268D01*
X159692150Y-94873211D01*
X159649775Y-94856073D01*
X159648072Y-94855749D01*
X159646619Y-94854807D01*
X159603441Y-94837614D01*
X159600839Y-94837134D01*
X159598607Y-94835712D01*
X159587229Y-94831289D01*
X159577684Y-94829607D01*
X159569357Y-94824651D01*
X159512434Y-94804479D01*
X159498770Y-94802495D01*
X159486614Y-94795950D01*
X159426162Y-94777413D01*
X159413268Y-94776104D01*
X159401618Y-94770426D01*
X159340521Y-94754359D01*
X159326555Y-94753509D01*
X159313725Y-94747934D01*
X159254870Y-94735171D01*
X159245202Y-94735005D01*
X159236219Y-94731419D01*
X159214255Y-94727344D01*
X159208873Y-94727413D01*
X159203842Y-94725502D01*
X159177314Y-94721038D01*
X159168297Y-94721305D01*
X159159779Y-94718340D01*
X159135232Y-94714915D01*
X159124113Y-94715557D01*
X159113471Y-94712262D01*
X159089402Y-94709751D01*
X159078029Y-94710805D01*
X159067008Y-94707817D01*
X159041909Y-94706098D01*
X159032211Y-94707346D01*
X159022701Y-94705076D01*
X158995070Y-94704027D01*
X158988064Y-94705146D01*
X158981130Y-94703652D01*
X158949459Y-94703149D01*
X158945098Y-94703945D01*
X158940748Y-94703070D01*
X158903533Y-94702992D01*
X158901640Y-94703364D01*
X158899750Y-94702996D01*
X158873266Y-94703099D01*
X158871291Y-94703500D01*
X158869312Y-94703127D01*
X158843586Y-94703388D01*
X158839479Y-94704248D01*
X158835344Y-94703525D01*
X158814088Y-94704018D01*
X158807375Y-94705516D01*
X158800577Y-94704476D01*
X158782397Y-94705287D01*
X158773449Y-94707485D01*
X158764304Y-94706354D01*
X158747803Y-94707565D01*
X158738221Y-94710213D01*
X158728323Y-94709298D01*
X158712107Y-94710994D01*
X158704177Y-94713452D01*
X158695895Y-94712902D01*
X158678566Y-94715168D01*
X158673655Y-94716830D01*
X158668473Y-94716570D01*
X158648637Y-94719490D01*
X158644334Y-94721024D01*
X158639768Y-94720860D01*
X158593300Y-94728376D01*
X158584333Y-94731717D01*
X158574768Y-94731658D01*
X158494627Y-94747082D01*
X158481494Y-94752427D01*
X158467327Y-94752965D01*
X158392061Y-94770932D01*
X158377675Y-94777542D01*
X158361903Y-94778923D01*
X158290283Y-94799805D01*
X158275398Y-94807555D01*
X158258780Y-94809892D01*
X158189578Y-94834064D01*
X158175101Y-94842593D01*
X158158607Y-94845801D01*
X158090593Y-94873636D01*
X158077349Y-94882404D01*
X158061924Y-94886206D01*
X157993870Y-94918078D01*
X157986011Y-94923860D01*
X157976616Y-94926481D01*
X157955629Y-94937098D01*
X157946575Y-94944193D01*
X157935615Y-94947678D01*
X157865800Y-94986198D01*
X157850561Y-94999048D01*
X157831978Y-95006257D01*
X157767546Y-95047231D01*
X157751919Y-95062166D01*
X157732340Y-95071326D01*
X157672086Y-95115622D01*
X157657297Y-95131802D01*
X157638120Y-95142430D01*
X157580840Y-95190913D01*
X157567895Y-95207185D01*
X157550404Y-95218420D01*
X157494895Y-95271958D01*
X157488101Y-95281739D01*
X157478327Y-95288542D01*
X157465184Y-95302195D01*
X157458599Y-95312469D01*
X157452000Y-95317444D01*
X157452000Y-92819139D01*
X157620600Y-91971528D01*
X158061570Y-91311570D01*
X158721529Y-90870600D01*
X159569139Y-90702000D01*
X162636685Y-90702000D01*
X162046726Y-90945766D01*
M02*
