G04 #@! TF.FileFunction,Soldermask,Bot*
%FSLAX46Y46*%
G04 Gerber Fmt 4.6, Leading zero omitted, Abs format (unit mm)*
G04 Created by KiCad (PCBNEW 4.0.1-stable) date Saturday, January 30, 2016 'AMt' 12:46:15 AM*
%MOMM*%
G01*
G04 APERTURE LIST*
%ADD10C,0.100000*%
%ADD11C,0.010000*%
%ADD12O,2.432000X2.432000*%
%ADD13C,2.432000*%
%ADD14R,2.432000X2.432000*%
%ADD15R,3.400000X2.432000*%
%ADD16O,3.400000X2.432000*%
G04 APERTURE END LIST*
D10*
D11*
G36*
X159202729Y-124420436D02*
X159201512Y-124394492D01*
X159199405Y-124369876D01*
X159196319Y-124345432D01*
X159192163Y-124320001D01*
X159188931Y-124302832D01*
X159183687Y-124277483D01*
X159178076Y-124253301D01*
X159171868Y-124229569D01*
X159164836Y-124205571D01*
X159156750Y-124180588D01*
X159147382Y-124153905D01*
X159136502Y-124124804D01*
X159123882Y-124092567D01*
X159114064Y-124068180D01*
X159100762Y-124035800D01*
X159086953Y-124002927D01*
X159072506Y-123969285D01*
X159057292Y-123934596D01*
X159041180Y-123898583D01*
X159024041Y-123860969D01*
X159005745Y-123821476D01*
X158986161Y-123779828D01*
X158965160Y-123735747D01*
X158942611Y-123688956D01*
X158918385Y-123639178D01*
X158892352Y-123586136D01*
X158864381Y-123529552D01*
X158834343Y-123469150D01*
X158814564Y-123429541D01*
X158786596Y-123373510D01*
X158760721Y-123321441D01*
X158736791Y-123273012D01*
X158714657Y-123227898D01*
X158694170Y-123185776D01*
X158675181Y-123146321D01*
X158657543Y-123109210D01*
X158641105Y-123074119D01*
X158625720Y-123040724D01*
X158611238Y-123008701D01*
X158597511Y-122977727D01*
X158584390Y-122947476D01*
X158571726Y-122917626D01*
X158559371Y-122887852D01*
X158547175Y-122857831D01*
X158534991Y-122827239D01*
X158522669Y-122795751D01*
X158518108Y-122783971D01*
X158511739Y-122767521D01*
X158505795Y-122752243D01*
X158500540Y-122738816D01*
X158496241Y-122727915D01*
X158493163Y-122720220D01*
X158491626Y-122716521D01*
X158488499Y-122709547D01*
X158466854Y-122727626D01*
X158435173Y-122756127D01*
X158403107Y-122788908D01*
X158371033Y-122825472D01*
X158339328Y-122865320D01*
X158308370Y-122907956D01*
X158278536Y-122952883D01*
X158250204Y-122999602D01*
X158223751Y-123047616D01*
X158223102Y-123048857D01*
X158192323Y-123111538D01*
X158163291Y-123178125D01*
X158136203Y-123247941D01*
X158111259Y-123320309D01*
X158088655Y-123394552D01*
X158068590Y-123469992D01*
X158051261Y-123545954D01*
X158036866Y-123621758D01*
X158025604Y-123696729D01*
X158020217Y-123743124D01*
X158019136Y-123756878D01*
X158018287Y-123774158D01*
X158017671Y-123794064D01*
X158017287Y-123815696D01*
X158017135Y-123838153D01*
X158017216Y-123860535D01*
X158017530Y-123881942D01*
X158018076Y-123901473D01*
X158018855Y-123918228D01*
X158019867Y-123931307D01*
X158020197Y-123934229D01*
X158027899Y-123982356D01*
X158038558Y-124026722D01*
X158052167Y-124067307D01*
X158068719Y-124104087D01*
X158088207Y-124137044D01*
X158097192Y-124149643D01*
X158120889Y-124177515D01*
X158147003Y-124201293D01*
X158175864Y-124221217D01*
X158207801Y-124237528D01*
X158228704Y-124245725D01*
X158248013Y-124252044D01*
X158265569Y-124256562D01*
X158282905Y-124259522D01*
X158301552Y-124261170D01*
X158323039Y-124261748D01*
X158329407Y-124261752D01*
X158368424Y-124261615D01*
X158370043Y-124277410D01*
X158371661Y-124293205D01*
X158360054Y-124310264D01*
X158348447Y-124327324D01*
X158325466Y-124328029D01*
X158293256Y-124326958D01*
X158259569Y-124322033D01*
X158225412Y-124313555D01*
X158191792Y-124301821D01*
X158159715Y-124287130D01*
X158131038Y-124270343D01*
X158098226Y-124245807D01*
X158068661Y-124217694D01*
X158042351Y-124186016D01*
X158019303Y-124150788D01*
X157999524Y-124112025D01*
X157983022Y-124069740D01*
X157969803Y-124023949D01*
X157959874Y-123974665D01*
X157953244Y-123921902D01*
X157952712Y-123915835D01*
X157951560Y-123896649D01*
X157950937Y-123873734D01*
X157950819Y-123848167D01*
X157951179Y-123821026D01*
X157951990Y-123793387D01*
X157953227Y-123766328D01*
X157954865Y-123740926D01*
X157956876Y-123718258D01*
X157957647Y-123711304D01*
X157968328Y-123634242D01*
X157982248Y-123556100D01*
X157999193Y-123477641D01*
X158018951Y-123399628D01*
X158041309Y-123322821D01*
X158066055Y-123247982D01*
X158092976Y-123175874D01*
X158121859Y-123107258D01*
X158133200Y-123082481D01*
X158162826Y-123022591D01*
X158194395Y-122965110D01*
X158227677Y-122910356D01*
X158262440Y-122858645D01*
X158298452Y-122810292D01*
X158335481Y-122765615D01*
X158373297Y-122724929D01*
X158411668Y-122688551D01*
X158437461Y-122666833D01*
X158449842Y-122656671D01*
X158458393Y-122649019D01*
X158463303Y-122643692D01*
X158464760Y-122640507D01*
X158464715Y-122640270D01*
X158462220Y-122630275D01*
X158459390Y-122616254D01*
X158456339Y-122598997D01*
X158453182Y-122579295D01*
X158450031Y-122557938D01*
X158447003Y-122535717D01*
X158444211Y-122513424D01*
X158441769Y-122491848D01*
X158439792Y-122471780D01*
X158438988Y-122462238D01*
X158437797Y-122441489D01*
X158437330Y-122418508D01*
X158437605Y-122392991D01*
X158438642Y-122364634D01*
X158440457Y-122333131D01*
X158443071Y-122298177D01*
X158446500Y-122259469D01*
X158450764Y-122216700D01*
X158455881Y-122169567D01*
X158457529Y-122155019D01*
X158465630Y-122087865D01*
X158475084Y-122016268D01*
X158485856Y-121940417D01*
X158497912Y-121860503D01*
X158511216Y-121776717D01*
X158525735Y-121689250D01*
X158541434Y-121598292D01*
X158558278Y-121504034D01*
X158576231Y-121406667D01*
X158595260Y-121306381D01*
X158615330Y-121203368D01*
X158636406Y-121097817D01*
X158658453Y-120989920D01*
X158681436Y-120879867D01*
X158705321Y-120767848D01*
X158730074Y-120654055D01*
X158734343Y-120634648D01*
X158739073Y-120613025D01*
X158743518Y-120592407D01*
X158747555Y-120573376D01*
X158751065Y-120556516D01*
X158753926Y-120542411D01*
X158756018Y-120531644D01*
X158757220Y-120524798D01*
X158757415Y-120523371D01*
X158757358Y-120504597D01*
X158753521Y-120484733D01*
X158746361Y-120465026D01*
X158736334Y-120446721D01*
X158723897Y-120431065D01*
X158723419Y-120430576D01*
X158714943Y-120423199D01*
X158702514Y-120414131D01*
X158686606Y-120403630D01*
X158667694Y-120391956D01*
X158646252Y-120379369D01*
X158622753Y-120366129D01*
X158597672Y-120352496D01*
X158571482Y-120338728D01*
X158544659Y-120325087D01*
X158517676Y-120311831D01*
X158491007Y-120299220D01*
X158465126Y-120287515D01*
X158451334Y-120281528D01*
X158404061Y-120262685D01*
X158359540Y-120247683D01*
X158317796Y-120236527D01*
X158278849Y-120229221D01*
X158242723Y-120225766D01*
X158209440Y-120226167D01*
X158179023Y-120230426D01*
X158152728Y-120238078D01*
X158138834Y-120244648D01*
X158123808Y-120253949D01*
X158109341Y-120264782D01*
X158097126Y-120275950D01*
X158093410Y-120280053D01*
X158085243Y-120290606D01*
X158078032Y-120302001D01*
X158071702Y-120314613D01*
X158066178Y-120328815D01*
X158061384Y-120344979D01*
X158057244Y-120363479D01*
X158053684Y-120384687D01*
X158050627Y-120408978D01*
X158047998Y-120436723D01*
X158045722Y-120468297D01*
X158043723Y-120504072D01*
X158042446Y-120531838D01*
X158041912Y-120545395D01*
X158041285Y-120563106D01*
X158040585Y-120584286D01*
X158039832Y-120608253D01*
X158039049Y-120634323D01*
X158038255Y-120661812D01*
X158037472Y-120690038D01*
X158036719Y-120718316D01*
X158036352Y-120732619D01*
X158034435Y-120805281D01*
X158032472Y-120873516D01*
X158030442Y-120937734D01*
X158028326Y-120998348D01*
X158026103Y-121055767D01*
X158023753Y-121110403D01*
X158021255Y-121162667D01*
X158018590Y-121212969D01*
X158015738Y-121261721D01*
X158012678Y-121309333D01*
X158009389Y-121356217D01*
X158005853Y-121402783D01*
X158002048Y-121449443D01*
X157999941Y-121474057D01*
X157990125Y-121578566D01*
X157979142Y-121679029D01*
X157966851Y-121776127D01*
X157953112Y-121870540D01*
X157937785Y-121962947D01*
X157920730Y-122054028D01*
X157901805Y-122144464D01*
X157880872Y-122234934D01*
X157857790Y-122326118D01*
X157832418Y-122418697D01*
X157804616Y-122513349D01*
X157774243Y-122610755D01*
X157750103Y-122684790D01*
X157737144Y-122723637D01*
X157724962Y-122759588D01*
X157713374Y-122793035D01*
X157702198Y-122824370D01*
X157691252Y-122853986D01*
X157680353Y-122882274D01*
X157669318Y-122909626D01*
X157657965Y-122936435D01*
X157646112Y-122963092D01*
X157633575Y-122989989D01*
X157620173Y-123017519D01*
X157605723Y-123046073D01*
X157590041Y-123076044D01*
X157572947Y-123107824D01*
X157554257Y-123141804D01*
X157533788Y-123178376D01*
X157511359Y-123217934D01*
X157486787Y-123260868D01*
X157461212Y-123305276D01*
X157441376Y-123339694D01*
X157423748Y-123370393D01*
X157408081Y-123397825D01*
X157394127Y-123422438D01*
X157381637Y-123444682D01*
X157370364Y-123465007D01*
X157360059Y-123483864D01*
X157350475Y-123501701D01*
X157341364Y-123518969D01*
X157332477Y-123536118D01*
X157323567Y-123553596D01*
X157315838Y-123568952D01*
X157293949Y-123613741D01*
X157274775Y-123655424D01*
X157258070Y-123694718D01*
X157243585Y-123732342D01*
X157231073Y-123769014D01*
X157220284Y-123805450D01*
X157210972Y-123842371D01*
X157202889Y-123880492D01*
X157197021Y-123913045D01*
X157190588Y-123953692D01*
X157185532Y-123991122D01*
X157181742Y-124026722D01*
X157179104Y-124061880D01*
X157177508Y-124097980D01*
X157176842Y-124136411D01*
X157176851Y-124162829D01*
X157176988Y-124181061D01*
X157177165Y-124198234D01*
X157177370Y-124213598D01*
X157177593Y-124226402D01*
X157177822Y-124235898D01*
X157178045Y-124241333D01*
X157178053Y-124241448D01*
X157184235Y-124303879D01*
X157193591Y-124365463D01*
X157205971Y-124425610D01*
X157221224Y-124483736D01*
X157239200Y-124539253D01*
X157259747Y-124591574D01*
X157278125Y-124631114D01*
X157310284Y-124689972D01*
X157346998Y-124747316D01*
X157388212Y-124803094D01*
X157433870Y-124857253D01*
X157483914Y-124909741D01*
X157538290Y-124960506D01*
X157596940Y-125009496D01*
X157659808Y-125056658D01*
X157726839Y-125101940D01*
X157797976Y-125145290D01*
X157873163Y-125186656D01*
X157878860Y-125189623D01*
X157930297Y-125214999D01*
X157983607Y-125238666D01*
X158039431Y-125260868D01*
X158098406Y-125281853D01*
X158161173Y-125301866D01*
X158199766Y-125313182D01*
X158217998Y-125318370D01*
X158285970Y-125486876D01*
X158296924Y-125513946D01*
X158307400Y-125539671D01*
X158317254Y-125563703D01*
X158326338Y-125585696D01*
X158334509Y-125605301D01*
X158341620Y-125622173D01*
X158347526Y-125635962D01*
X158352082Y-125646324D01*
X158355141Y-125652909D01*
X158356559Y-125655372D01*
X158356591Y-125655381D01*
X158358563Y-125653615D01*
X158363510Y-125648493D01*
X158371192Y-125640276D01*
X158381371Y-125629225D01*
X158393811Y-125615604D01*
X158408272Y-125599673D01*
X158424518Y-125581695D01*
X158442310Y-125561931D01*
X158461410Y-125540643D01*
X158481581Y-125518094D01*
X158497223Y-125500562D01*
X158635206Y-125345743D01*
X158662442Y-125335884D01*
X158710493Y-125316454D01*
X158756369Y-125293656D01*
X158800487Y-125267210D01*
X158843264Y-125236838D01*
X158885117Y-125202261D01*
X158926464Y-125163199D01*
X158937485Y-125151961D01*
X158978750Y-125105802D01*
X159016931Y-125056025D01*
X159051936Y-125002811D01*
X159083676Y-124946341D01*
X159112059Y-124886797D01*
X159136996Y-124824361D01*
X159158395Y-124759215D01*
X159176165Y-124691540D01*
X159183028Y-124659943D01*
X159188950Y-124629499D01*
X159193593Y-124602261D01*
X159197112Y-124576814D01*
X159199665Y-124551744D01*
X159201408Y-124525636D01*
X159202499Y-124497075D01*
X159202857Y-124480933D01*
X159203147Y-124448864D01*
X159202729Y-124420436D01*
X159202729Y-124420436D01*
G37*
X159202729Y-124420436D02*
X159201512Y-124394492D01*
X159199405Y-124369876D01*
X159196319Y-124345432D01*
X159192163Y-124320001D01*
X159188931Y-124302832D01*
X159183687Y-124277483D01*
X159178076Y-124253301D01*
X159171868Y-124229569D01*
X159164836Y-124205571D01*
X159156750Y-124180588D01*
X159147382Y-124153905D01*
X159136502Y-124124804D01*
X159123882Y-124092567D01*
X159114064Y-124068180D01*
X159100762Y-124035800D01*
X159086953Y-124002927D01*
X159072506Y-123969285D01*
X159057292Y-123934596D01*
X159041180Y-123898583D01*
X159024041Y-123860969D01*
X159005745Y-123821476D01*
X158986161Y-123779828D01*
X158965160Y-123735747D01*
X158942611Y-123688956D01*
X158918385Y-123639178D01*
X158892352Y-123586136D01*
X158864381Y-123529552D01*
X158834343Y-123469150D01*
X158814564Y-123429541D01*
X158786596Y-123373510D01*
X158760721Y-123321441D01*
X158736791Y-123273012D01*
X158714657Y-123227898D01*
X158694170Y-123185776D01*
X158675181Y-123146321D01*
X158657543Y-123109210D01*
X158641105Y-123074119D01*
X158625720Y-123040724D01*
X158611238Y-123008701D01*
X158597511Y-122977727D01*
X158584390Y-122947476D01*
X158571726Y-122917626D01*
X158559371Y-122887852D01*
X158547175Y-122857831D01*
X158534991Y-122827239D01*
X158522669Y-122795751D01*
X158518108Y-122783971D01*
X158511739Y-122767521D01*
X158505795Y-122752243D01*
X158500540Y-122738816D01*
X158496241Y-122727915D01*
X158493163Y-122720220D01*
X158491626Y-122716521D01*
X158488499Y-122709547D01*
X158466854Y-122727626D01*
X158435173Y-122756127D01*
X158403107Y-122788908D01*
X158371033Y-122825472D01*
X158339328Y-122865320D01*
X158308370Y-122907956D01*
X158278536Y-122952883D01*
X158250204Y-122999602D01*
X158223751Y-123047616D01*
X158223102Y-123048857D01*
X158192323Y-123111538D01*
X158163291Y-123178125D01*
X158136203Y-123247941D01*
X158111259Y-123320309D01*
X158088655Y-123394552D01*
X158068590Y-123469992D01*
X158051261Y-123545954D01*
X158036866Y-123621758D01*
X158025604Y-123696729D01*
X158020217Y-123743124D01*
X158019136Y-123756878D01*
X158018287Y-123774158D01*
X158017671Y-123794064D01*
X158017287Y-123815696D01*
X158017135Y-123838153D01*
X158017216Y-123860535D01*
X158017530Y-123881942D01*
X158018076Y-123901473D01*
X158018855Y-123918228D01*
X158019867Y-123931307D01*
X158020197Y-123934229D01*
X158027899Y-123982356D01*
X158038558Y-124026722D01*
X158052167Y-124067307D01*
X158068719Y-124104087D01*
X158088207Y-124137044D01*
X158097192Y-124149643D01*
X158120889Y-124177515D01*
X158147003Y-124201293D01*
X158175864Y-124221217D01*
X158207801Y-124237528D01*
X158228704Y-124245725D01*
X158248013Y-124252044D01*
X158265569Y-124256562D01*
X158282905Y-124259522D01*
X158301552Y-124261170D01*
X158323039Y-124261748D01*
X158329407Y-124261752D01*
X158368424Y-124261615D01*
X158370043Y-124277410D01*
X158371661Y-124293205D01*
X158360054Y-124310264D01*
X158348447Y-124327324D01*
X158325466Y-124328029D01*
X158293256Y-124326958D01*
X158259569Y-124322033D01*
X158225412Y-124313555D01*
X158191792Y-124301821D01*
X158159715Y-124287130D01*
X158131038Y-124270343D01*
X158098226Y-124245807D01*
X158068661Y-124217694D01*
X158042351Y-124186016D01*
X158019303Y-124150788D01*
X157999524Y-124112025D01*
X157983022Y-124069740D01*
X157969803Y-124023949D01*
X157959874Y-123974665D01*
X157953244Y-123921902D01*
X157952712Y-123915835D01*
X157951560Y-123896649D01*
X157950937Y-123873734D01*
X157950819Y-123848167D01*
X157951179Y-123821026D01*
X157951990Y-123793387D01*
X157953227Y-123766328D01*
X157954865Y-123740926D01*
X157956876Y-123718258D01*
X157957647Y-123711304D01*
X157968328Y-123634242D01*
X157982248Y-123556100D01*
X157999193Y-123477641D01*
X158018951Y-123399628D01*
X158041309Y-123322821D01*
X158066055Y-123247982D01*
X158092976Y-123175874D01*
X158121859Y-123107258D01*
X158133200Y-123082481D01*
X158162826Y-123022591D01*
X158194395Y-122965110D01*
X158227677Y-122910356D01*
X158262440Y-122858645D01*
X158298452Y-122810292D01*
X158335481Y-122765615D01*
X158373297Y-122724929D01*
X158411668Y-122688551D01*
X158437461Y-122666833D01*
X158449842Y-122656671D01*
X158458393Y-122649019D01*
X158463303Y-122643692D01*
X158464760Y-122640507D01*
X158464715Y-122640270D01*
X158462220Y-122630275D01*
X158459390Y-122616254D01*
X158456339Y-122598997D01*
X158453182Y-122579295D01*
X158450031Y-122557938D01*
X158447003Y-122535717D01*
X158444211Y-122513424D01*
X158441769Y-122491848D01*
X158439792Y-122471780D01*
X158438988Y-122462238D01*
X158437797Y-122441489D01*
X158437330Y-122418508D01*
X158437605Y-122392991D01*
X158438642Y-122364634D01*
X158440457Y-122333131D01*
X158443071Y-122298177D01*
X158446500Y-122259469D01*
X158450764Y-122216700D01*
X158455881Y-122169567D01*
X158457529Y-122155019D01*
X158465630Y-122087865D01*
X158475084Y-122016268D01*
X158485856Y-121940417D01*
X158497912Y-121860503D01*
X158511216Y-121776717D01*
X158525735Y-121689250D01*
X158541434Y-121598292D01*
X158558278Y-121504034D01*
X158576231Y-121406667D01*
X158595260Y-121306381D01*
X158615330Y-121203368D01*
X158636406Y-121097817D01*
X158658453Y-120989920D01*
X158681436Y-120879867D01*
X158705321Y-120767848D01*
X158730074Y-120654055D01*
X158734343Y-120634648D01*
X158739073Y-120613025D01*
X158743518Y-120592407D01*
X158747555Y-120573376D01*
X158751065Y-120556516D01*
X158753926Y-120542411D01*
X158756018Y-120531644D01*
X158757220Y-120524798D01*
X158757415Y-120523371D01*
X158757358Y-120504597D01*
X158753521Y-120484733D01*
X158746361Y-120465026D01*
X158736334Y-120446721D01*
X158723897Y-120431065D01*
X158723419Y-120430576D01*
X158714943Y-120423199D01*
X158702514Y-120414131D01*
X158686606Y-120403630D01*
X158667694Y-120391956D01*
X158646252Y-120379369D01*
X158622753Y-120366129D01*
X158597672Y-120352496D01*
X158571482Y-120338728D01*
X158544659Y-120325087D01*
X158517676Y-120311831D01*
X158491007Y-120299220D01*
X158465126Y-120287515D01*
X158451334Y-120281528D01*
X158404061Y-120262685D01*
X158359540Y-120247683D01*
X158317796Y-120236527D01*
X158278849Y-120229221D01*
X158242723Y-120225766D01*
X158209440Y-120226167D01*
X158179023Y-120230426D01*
X158152728Y-120238078D01*
X158138834Y-120244648D01*
X158123808Y-120253949D01*
X158109341Y-120264782D01*
X158097126Y-120275950D01*
X158093410Y-120280053D01*
X158085243Y-120290606D01*
X158078032Y-120302001D01*
X158071702Y-120314613D01*
X158066178Y-120328815D01*
X158061384Y-120344979D01*
X158057244Y-120363479D01*
X158053684Y-120384687D01*
X158050627Y-120408978D01*
X158047998Y-120436723D01*
X158045722Y-120468297D01*
X158043723Y-120504072D01*
X158042446Y-120531838D01*
X158041912Y-120545395D01*
X158041285Y-120563106D01*
X158040585Y-120584286D01*
X158039832Y-120608253D01*
X158039049Y-120634323D01*
X158038255Y-120661812D01*
X158037472Y-120690038D01*
X158036719Y-120718316D01*
X158036352Y-120732619D01*
X158034435Y-120805281D01*
X158032472Y-120873516D01*
X158030442Y-120937734D01*
X158028326Y-120998348D01*
X158026103Y-121055767D01*
X158023753Y-121110403D01*
X158021255Y-121162667D01*
X158018590Y-121212969D01*
X158015738Y-121261721D01*
X158012678Y-121309333D01*
X158009389Y-121356217D01*
X158005853Y-121402783D01*
X158002048Y-121449443D01*
X157999941Y-121474057D01*
X157990125Y-121578566D01*
X157979142Y-121679029D01*
X157966851Y-121776127D01*
X157953112Y-121870540D01*
X157937785Y-121962947D01*
X157920730Y-122054028D01*
X157901805Y-122144464D01*
X157880872Y-122234934D01*
X157857790Y-122326118D01*
X157832418Y-122418697D01*
X157804616Y-122513349D01*
X157774243Y-122610755D01*
X157750103Y-122684790D01*
X157737144Y-122723637D01*
X157724962Y-122759588D01*
X157713374Y-122793035D01*
X157702198Y-122824370D01*
X157691252Y-122853986D01*
X157680353Y-122882274D01*
X157669318Y-122909626D01*
X157657965Y-122936435D01*
X157646112Y-122963092D01*
X157633575Y-122989989D01*
X157620173Y-123017519D01*
X157605723Y-123046073D01*
X157590041Y-123076044D01*
X157572947Y-123107824D01*
X157554257Y-123141804D01*
X157533788Y-123178376D01*
X157511359Y-123217934D01*
X157486787Y-123260868D01*
X157461212Y-123305276D01*
X157441376Y-123339694D01*
X157423748Y-123370393D01*
X157408081Y-123397825D01*
X157394127Y-123422438D01*
X157381637Y-123444682D01*
X157370364Y-123465007D01*
X157360059Y-123483864D01*
X157350475Y-123501701D01*
X157341364Y-123518969D01*
X157332477Y-123536118D01*
X157323567Y-123553596D01*
X157315838Y-123568952D01*
X157293949Y-123613741D01*
X157274775Y-123655424D01*
X157258070Y-123694718D01*
X157243585Y-123732342D01*
X157231073Y-123769014D01*
X157220284Y-123805450D01*
X157210972Y-123842371D01*
X157202889Y-123880492D01*
X157197021Y-123913045D01*
X157190588Y-123953692D01*
X157185532Y-123991122D01*
X157181742Y-124026722D01*
X157179104Y-124061880D01*
X157177508Y-124097980D01*
X157176842Y-124136411D01*
X157176851Y-124162829D01*
X157176988Y-124181061D01*
X157177165Y-124198234D01*
X157177370Y-124213598D01*
X157177593Y-124226402D01*
X157177822Y-124235898D01*
X157178045Y-124241333D01*
X157178053Y-124241448D01*
X157184235Y-124303879D01*
X157193591Y-124365463D01*
X157205971Y-124425610D01*
X157221224Y-124483736D01*
X157239200Y-124539253D01*
X157259747Y-124591574D01*
X157278125Y-124631114D01*
X157310284Y-124689972D01*
X157346998Y-124747316D01*
X157388212Y-124803094D01*
X157433870Y-124857253D01*
X157483914Y-124909741D01*
X157538290Y-124960506D01*
X157596940Y-125009496D01*
X157659808Y-125056658D01*
X157726839Y-125101940D01*
X157797976Y-125145290D01*
X157873163Y-125186656D01*
X157878860Y-125189623D01*
X157930297Y-125214999D01*
X157983607Y-125238666D01*
X158039431Y-125260868D01*
X158098406Y-125281853D01*
X158161173Y-125301866D01*
X158199766Y-125313182D01*
X158217998Y-125318370D01*
X158285970Y-125486876D01*
X158296924Y-125513946D01*
X158307400Y-125539671D01*
X158317254Y-125563703D01*
X158326338Y-125585696D01*
X158334509Y-125605301D01*
X158341620Y-125622173D01*
X158347526Y-125635962D01*
X158352082Y-125646324D01*
X158355141Y-125652909D01*
X158356559Y-125655372D01*
X158356591Y-125655381D01*
X158358563Y-125653615D01*
X158363510Y-125648493D01*
X158371192Y-125640276D01*
X158381371Y-125629225D01*
X158393811Y-125615604D01*
X158408272Y-125599673D01*
X158424518Y-125581695D01*
X158442310Y-125561931D01*
X158461410Y-125540643D01*
X158481581Y-125518094D01*
X158497223Y-125500562D01*
X158635206Y-125345743D01*
X158662442Y-125335884D01*
X158710493Y-125316454D01*
X158756369Y-125293656D01*
X158800487Y-125267210D01*
X158843264Y-125236838D01*
X158885117Y-125202261D01*
X158926464Y-125163199D01*
X158937485Y-125151961D01*
X158978750Y-125105802D01*
X159016931Y-125056025D01*
X159051936Y-125002811D01*
X159083676Y-124946341D01*
X159112059Y-124886797D01*
X159136996Y-124824361D01*
X159158395Y-124759215D01*
X159176165Y-124691540D01*
X159183028Y-124659943D01*
X159188950Y-124629499D01*
X159193593Y-124602261D01*
X159197112Y-124576814D01*
X159199665Y-124551744D01*
X159201408Y-124525636D01*
X159202499Y-124497075D01*
X159202857Y-124480933D01*
X159203147Y-124448864D01*
X159202729Y-124420436D01*
D12*
X170130000Y-100820000D03*
D13*
X170130000Y-103360000D03*
X170130000Y-105900000D03*
D14*
X170130000Y-108440000D03*
D13*
X170130000Y-110980000D03*
D15*
X158250000Y-95000000D03*
D16*
X158250000Y-92460000D03*
D15*
X157990000Y-116050000D03*
D16*
X157990000Y-118590000D03*
M02*
