G04 #@! TF.FileFunction,Legend,Top*
%FSLAX46Y46*%
G04 Gerber Fmt 4.6, Leading zero omitted, Abs format (unit mm)*
G04 Created by KiCad (PCBNEW 4.0.1-stable) date Saturday, January 30, 2016 'AMt' 12:46:15 AM*
%MOMM*%
G01*
G04 APERTURE LIST*
%ADD10C,0.100000*%
%ADD11C,0.300000*%
%ADD12C,0.200000*%
%ADD13C,0.150000*%
%ADD14C,0.010000*%
G04 APERTURE END LIST*
D10*
D11*
X161187143Y-94680000D02*
X161044286Y-94608571D01*
X160830000Y-94608571D01*
X160615715Y-94680000D01*
X160472857Y-94822857D01*
X160401429Y-94965714D01*
X160330000Y-95251429D01*
X160330000Y-95465714D01*
X160401429Y-95751429D01*
X160472857Y-95894286D01*
X160615715Y-96037143D01*
X160830000Y-96108571D01*
X160972857Y-96108571D01*
X161187143Y-96037143D01*
X161258572Y-95965714D01*
X161258572Y-95465714D01*
X160972857Y-95465714D01*
X161901429Y-96108571D02*
X161901429Y-94608571D01*
X162758572Y-96108571D01*
X162758572Y-94608571D01*
X163472858Y-96108571D02*
X163472858Y-94608571D01*
X163830001Y-94608571D01*
X164044286Y-94680000D01*
X164187144Y-94822857D01*
X164258572Y-94965714D01*
X164330001Y-95251429D01*
X164330001Y-95465714D01*
X164258572Y-95751429D01*
X164187144Y-95894286D01*
X164044286Y-96037143D01*
X163830001Y-96108571D01*
X163472858Y-96108571D01*
X160014286Y-91718571D02*
X160014286Y-90218571D01*
X160728572Y-91718571D02*
X160728572Y-90218571D01*
X161585715Y-91718571D01*
X161585715Y-90218571D01*
D12*
X157867619Y-113555476D02*
X157153333Y-113555476D01*
X157510476Y-113555476D02*
X157510476Y-112305476D01*
X157391428Y-112484048D01*
X157272381Y-112603095D01*
X157153333Y-112662619D01*
X158403333Y-113436429D02*
X158462857Y-113495952D01*
X158403333Y-113555476D01*
X158343809Y-113495952D01*
X158403333Y-113436429D01*
X158403333Y-113555476D01*
X159593809Y-112305476D02*
X158998571Y-112305476D01*
X158939047Y-112900714D01*
X158998571Y-112841190D01*
X159117619Y-112781667D01*
X159415238Y-112781667D01*
X159534285Y-112841190D01*
X159593809Y-112900714D01*
X159653333Y-113019762D01*
X159653333Y-113317381D01*
X159593809Y-113436429D01*
X159534285Y-113495952D01*
X159415238Y-113555476D01*
X159117619Y-113555476D01*
X158998571Y-113495952D01*
X158939047Y-113436429D01*
X160189047Y-113555476D02*
X160189047Y-112722143D01*
X160189047Y-112841190D02*
X160248571Y-112781667D01*
X160367618Y-112722143D01*
X160546190Y-112722143D01*
X160665238Y-112781667D01*
X160724761Y-112900714D01*
X160724761Y-113555476D01*
X160724761Y-112900714D02*
X160784285Y-112781667D01*
X160903333Y-112722143D01*
X161081904Y-112722143D01*
X161200952Y-112781667D01*
X161260476Y-112900714D01*
X161260476Y-113555476D01*
X161855714Y-113555476D02*
X161855714Y-112722143D01*
X161855714Y-112841190D02*
X161915238Y-112781667D01*
X162034285Y-112722143D01*
X162212857Y-112722143D01*
X162331905Y-112781667D01*
X162391428Y-112900714D01*
X162391428Y-113555476D01*
X162391428Y-112900714D02*
X162450952Y-112781667D01*
X162570000Y-112722143D01*
X162748571Y-112722143D01*
X162867619Y-112781667D01*
X162927143Y-112900714D01*
X162927143Y-113555476D01*
D11*
X160154286Y-119398571D02*
X160154286Y-117898571D01*
X160868572Y-119398571D02*
X160868572Y-117898571D01*
X161725715Y-119398571D01*
X161725715Y-117898571D01*
X160917143Y-115260000D02*
X160774286Y-115188571D01*
X160560000Y-115188571D01*
X160345715Y-115260000D01*
X160202857Y-115402857D01*
X160131429Y-115545714D01*
X160060000Y-115831429D01*
X160060000Y-116045714D01*
X160131429Y-116331429D01*
X160202857Y-116474286D01*
X160345715Y-116617143D01*
X160560000Y-116688571D01*
X160702857Y-116688571D01*
X160917143Y-116617143D01*
X160988572Y-116545714D01*
X160988572Y-116045714D01*
X160702857Y-116045714D01*
X161631429Y-116688571D02*
X161631429Y-115188571D01*
X162488572Y-116688571D01*
X162488572Y-115188571D01*
X163202858Y-116688571D02*
X163202858Y-115188571D01*
X163560001Y-115188571D01*
X163774286Y-115260000D01*
X163917144Y-115402857D01*
X163988572Y-115545714D01*
X164060001Y-115831429D01*
X164060001Y-116045714D01*
X163988572Y-116331429D01*
X163917144Y-116474286D01*
X163774286Y-116617143D01*
X163560001Y-116688571D01*
X163202858Y-116688571D01*
X164161429Y-111257143D02*
X165304286Y-111257143D01*
X164732857Y-111828571D02*
X164732857Y-110685714D01*
X166732858Y-110328571D02*
X166018572Y-110328571D01*
X165947143Y-111042857D01*
X166018572Y-110971429D01*
X166161429Y-110900000D01*
X166518572Y-110900000D01*
X166661429Y-110971429D01*
X166732858Y-111042857D01*
X166804286Y-111185714D01*
X166804286Y-111542857D01*
X166732858Y-111685714D01*
X166661429Y-111757143D01*
X166518572Y-111828571D01*
X166161429Y-111828571D01*
X166018572Y-111757143D01*
X165947143Y-111685714D01*
X167232857Y-110328571D02*
X167732857Y-111828571D01*
X168232857Y-110328571D01*
X165117143Y-107760000D02*
X164974286Y-107688571D01*
X164760000Y-107688571D01*
X164545715Y-107760000D01*
X164402857Y-107902857D01*
X164331429Y-108045714D01*
X164260000Y-108331429D01*
X164260000Y-108545714D01*
X164331429Y-108831429D01*
X164402857Y-108974286D01*
X164545715Y-109117143D01*
X164760000Y-109188571D01*
X164902857Y-109188571D01*
X165117143Y-109117143D01*
X165188572Y-109045714D01*
X165188572Y-108545714D01*
X164902857Y-108545714D01*
X165831429Y-109188571D02*
X165831429Y-107688571D01*
X166688572Y-109188571D01*
X166688572Y-107688571D01*
X167402858Y-109188571D02*
X167402858Y-107688571D01*
X167760001Y-107688571D01*
X167974286Y-107760000D01*
X168117144Y-107902857D01*
X168188572Y-108045714D01*
X168260001Y-108331429D01*
X168260001Y-108545714D01*
X168188572Y-108831429D01*
X168117144Y-108974286D01*
X167974286Y-109117143D01*
X167760001Y-109188571D01*
X167402858Y-109188571D01*
X166394286Y-106838571D02*
X166394286Y-105338571D01*
X167108572Y-106838571D02*
X167108572Y-105338571D01*
X167965715Y-106838571D01*
X167965715Y-105338571D01*
X165782857Y-103322857D02*
X166282857Y-103322857D01*
X166497143Y-104108571D02*
X165782857Y-104108571D01*
X165782857Y-102608571D01*
X166497143Y-102608571D01*
X167140000Y-104108571D02*
X167140000Y-102608571D01*
X167997143Y-104108571D01*
X167997143Y-102608571D01*
X165707143Y-101628571D02*
X165707143Y-100128571D01*
X166278571Y-100128571D01*
X166421429Y-100200000D01*
X166492857Y-100271429D01*
X166564286Y-100414286D01*
X166564286Y-100628571D01*
X166492857Y-100771429D01*
X166421429Y-100842857D01*
X166278571Y-100914286D01*
X165707143Y-100914286D01*
X167992857Y-100200000D02*
X167850000Y-100128571D01*
X167635714Y-100128571D01*
X167421429Y-100200000D01*
X167278571Y-100342857D01*
X167207143Y-100485714D01*
X167135714Y-100771429D01*
X167135714Y-100985714D01*
X167207143Y-101271429D01*
X167278571Y-101414286D01*
X167421429Y-101557143D01*
X167635714Y-101628571D01*
X167778571Y-101628571D01*
X167992857Y-101557143D01*
X168064286Y-101485714D01*
X168064286Y-100985714D01*
X167778571Y-100985714D01*
D13*
X157960000Y-104700000D02*
X161340000Y-104700000D01*
X158900000Y-108000000D02*
X160400000Y-108000000D01*
X159650000Y-104700000D02*
X159650000Y-111300000D01*
X157960000Y-111300000D02*
X161340000Y-111300000D01*
X158680000Y-102015000D02*
X159680000Y-102015000D01*
X159680000Y-103365000D02*
X158680000Y-103365000D01*
X159680000Y-101385000D02*
X158680000Y-101385000D01*
X158680000Y-100035000D02*
X159680000Y-100035000D01*
D14*
G36*
X170579070Y-113232658D02*
X170648232Y-113233043D01*
X170710121Y-113234188D01*
X170766356Y-113236220D01*
X170818552Y-113239266D01*
X170868328Y-113243454D01*
X170917301Y-113248914D01*
X170967089Y-113255771D01*
X171019308Y-113264155D01*
X171053649Y-113270182D01*
X171083800Y-113275951D01*
X171114837Y-113282480D01*
X171145330Y-113289408D01*
X171173847Y-113296376D01*
X171198956Y-113303024D01*
X171219228Y-113308992D01*
X171233231Y-113313922D01*
X171238705Y-113316682D01*
X171240725Y-113318976D01*
X171241880Y-113323015D01*
X171242055Y-113329819D01*
X171241133Y-113340413D01*
X171238998Y-113355820D01*
X171235532Y-113377063D01*
X171230620Y-113405166D01*
X171225197Y-113435340D01*
X171219549Y-113466379D01*
X171214318Y-113494788D01*
X171209741Y-113519304D01*
X171206056Y-113538665D01*
X171203499Y-113551609D01*
X171202381Y-113556658D01*
X171201550Y-113558133D01*
X171199579Y-113559411D01*
X171195869Y-113560504D01*
X171189817Y-113561428D01*
X171180823Y-113562196D01*
X171168286Y-113562823D01*
X171151605Y-113563322D01*
X171130179Y-113563709D01*
X171103406Y-113563997D01*
X171070687Y-113564201D01*
X171031420Y-113564335D01*
X170985004Y-113564412D01*
X170930838Y-113564448D01*
X170872699Y-113564456D01*
X170805477Y-113564526D01*
X170743664Y-113564732D01*
X170687711Y-113565069D01*
X170638072Y-113565530D01*
X170595198Y-113566109D01*
X170559542Y-113566802D01*
X170531556Y-113567601D01*
X170511692Y-113568502D01*
X170502438Y-113569235D01*
X170431944Y-113581190D01*
X170366081Y-113600682D01*
X170305113Y-113627483D01*
X170249302Y-113661362D01*
X170198911Y-113702089D01*
X170154202Y-113749434D01*
X170115437Y-113803168D01*
X170082880Y-113863061D01*
X170056794Y-113928882D01*
X170044658Y-113969965D01*
X170031127Y-114031874D01*
X170023039Y-114092291D01*
X170020375Y-114150156D01*
X170023119Y-114204414D01*
X170031252Y-114254006D01*
X170044757Y-114297876D01*
X170050390Y-114310918D01*
X170067200Y-114341166D01*
X170090305Y-114374432D01*
X170118344Y-114409173D01*
X170149955Y-114443848D01*
X170183779Y-114476912D01*
X170218451Y-114506824D01*
X170233719Y-114518658D01*
X170256817Y-114534730D01*
X170286774Y-114553732D01*
X170322318Y-114574942D01*
X170362180Y-114597637D01*
X170405088Y-114621094D01*
X170449772Y-114644589D01*
X170494961Y-114667401D01*
X170496631Y-114668225D01*
X170544959Y-114692354D01*
X170586449Y-114713827D01*
X170622469Y-114733470D01*
X170654386Y-114752107D01*
X170683565Y-114770564D01*
X170711376Y-114789666D01*
X170739183Y-114810237D01*
X170764000Y-114829624D01*
X170824946Y-114882307D01*
X170877668Y-114936920D01*
X170922789Y-114994318D01*
X170960933Y-115055356D01*
X170992722Y-115120889D01*
X171011161Y-115168840D01*
X171021537Y-115200573D01*
X171029417Y-115229807D01*
X171035100Y-115258621D01*
X171038880Y-115289091D01*
X171041055Y-115323295D01*
X171041920Y-115363312D01*
X171041959Y-115384789D01*
X171037842Y-115479877D01*
X171026217Y-115573875D01*
X171007359Y-115665901D01*
X170981544Y-115755073D01*
X170949047Y-115840508D01*
X170910145Y-115921325D01*
X170865112Y-115996642D01*
X170839353Y-116033354D01*
X170820248Y-116057383D01*
X170796178Y-116085011D01*
X170769087Y-116114207D01*
X170740919Y-116142943D01*
X170713618Y-116169186D01*
X170689128Y-116190908D01*
X170685962Y-116193532D01*
X170636310Y-116231137D01*
X170583067Y-116265145D01*
X170523714Y-116297151D01*
X170516684Y-116300628D01*
X170441617Y-116333871D01*
X170361793Y-116362185D01*
X170276599Y-116385716D01*
X170185421Y-116404610D01*
X170087645Y-116419014D01*
X169982658Y-116429072D01*
X169975263Y-116429601D01*
X169948758Y-116431002D01*
X169915092Y-116432082D01*
X169876008Y-116432839D01*
X169833252Y-116433275D01*
X169788567Y-116433391D01*
X169743699Y-116433187D01*
X169700391Y-116432665D01*
X169660388Y-116431824D01*
X169625436Y-116430667D01*
X169600947Y-116429431D01*
X169467534Y-116417910D01*
X169339601Y-116400275D01*
X169257824Y-116385258D01*
X169227010Y-116378672D01*
X169197362Y-116371694D01*
X169170097Y-116364674D01*
X169146433Y-116357962D01*
X169127586Y-116351906D01*
X169114775Y-116346856D01*
X169109217Y-116343162D01*
X169109087Y-116342577D01*
X169109989Y-116337245D01*
X169112259Y-116324323D01*
X169115685Y-116304991D01*
X169120060Y-116280431D01*
X169125171Y-116251823D01*
X169130810Y-116220349D01*
X169130964Y-116219494D01*
X169152298Y-116100584D01*
X169527017Y-116098783D01*
X169595342Y-116098435D01*
X169655386Y-116098082D01*
X169707779Y-116097710D01*
X169753153Y-116097305D01*
X169792139Y-116096854D01*
X169825368Y-116096341D01*
X169853469Y-116095754D01*
X169877076Y-116095078D01*
X169896818Y-116094300D01*
X169913327Y-116093405D01*
X169927233Y-116092381D01*
X169939168Y-116091213D01*
X169949762Y-116089886D01*
X169952982Y-116089425D01*
X170026760Y-116076270D01*
X170093058Y-116059513D01*
X170152691Y-116038809D01*
X170206476Y-116013811D01*
X170255228Y-115984173D01*
X170299764Y-115949548D01*
X170314922Y-115935796D01*
X170358429Y-115888774D01*
X170396632Y-115835060D01*
X170429211Y-115775349D01*
X170455850Y-115710335D01*
X170476231Y-115640714D01*
X170490034Y-115567180D01*
X170492467Y-115547855D01*
X170495338Y-115486845D01*
X170489759Y-115428620D01*
X170475713Y-115373135D01*
X170453182Y-115320340D01*
X170422148Y-115270189D01*
X170382594Y-115222633D01*
X170362859Y-115202873D01*
X170342307Y-115183909D01*
X170322025Y-115166570D01*
X170300935Y-115150159D01*
X170277962Y-115133976D01*
X170252030Y-115117323D01*
X170222063Y-115099503D01*
X170186985Y-115079815D01*
X170145721Y-115057562D01*
X170110151Y-115038813D01*
X170043124Y-115003493D01*
X169983536Y-114971526D01*
X169930751Y-114942490D01*
X169884136Y-114915960D01*
X169843056Y-114891514D01*
X169806878Y-114868727D01*
X169774968Y-114847176D01*
X169746690Y-114826438D01*
X169721412Y-114806088D01*
X169698499Y-114785704D01*
X169677317Y-114764861D01*
X169657232Y-114743137D01*
X169643335Y-114726999D01*
X169597202Y-114667015D01*
X169559055Y-114606180D01*
X169528559Y-114543536D01*
X169505373Y-114478123D01*
X169489161Y-114408983D01*
X169479584Y-114335156D01*
X169476304Y-114255684D01*
X169476300Y-114252930D01*
X169479955Y-114152233D01*
X169490946Y-114055071D01*
X169509144Y-113961800D01*
X169534421Y-113872779D01*
X169566648Y-113788365D01*
X169605696Y-113708916D01*
X169651436Y-113634790D01*
X169703740Y-113566344D01*
X169736406Y-113530045D01*
X169801357Y-113468375D01*
X169871621Y-113413857D01*
X169947202Y-113366490D01*
X170028100Y-113326273D01*
X170114319Y-113293205D01*
X170205861Y-113267284D01*
X170252766Y-113257171D01*
X170284475Y-113251123D01*
X170312471Y-113246147D01*
X170338119Y-113242142D01*
X170362789Y-113239005D01*
X170387846Y-113236633D01*
X170414660Y-113234923D01*
X170444596Y-113233773D01*
X170479023Y-113233080D01*
X170519307Y-113232741D01*
X170566817Y-113232653D01*
X170579070Y-113232658D01*
X170579070Y-113232658D01*
G37*
X170579070Y-113232658D02*
X170648232Y-113233043D01*
X170710121Y-113234188D01*
X170766356Y-113236220D01*
X170818552Y-113239266D01*
X170868328Y-113243454D01*
X170917301Y-113248914D01*
X170967089Y-113255771D01*
X171019308Y-113264155D01*
X171053649Y-113270182D01*
X171083800Y-113275951D01*
X171114837Y-113282480D01*
X171145330Y-113289408D01*
X171173847Y-113296376D01*
X171198956Y-113303024D01*
X171219228Y-113308992D01*
X171233231Y-113313922D01*
X171238705Y-113316682D01*
X171240725Y-113318976D01*
X171241880Y-113323015D01*
X171242055Y-113329819D01*
X171241133Y-113340413D01*
X171238998Y-113355820D01*
X171235532Y-113377063D01*
X171230620Y-113405166D01*
X171225197Y-113435340D01*
X171219549Y-113466379D01*
X171214318Y-113494788D01*
X171209741Y-113519304D01*
X171206056Y-113538665D01*
X171203499Y-113551609D01*
X171202381Y-113556658D01*
X171201550Y-113558133D01*
X171199579Y-113559411D01*
X171195869Y-113560504D01*
X171189817Y-113561428D01*
X171180823Y-113562196D01*
X171168286Y-113562823D01*
X171151605Y-113563322D01*
X171130179Y-113563709D01*
X171103406Y-113563997D01*
X171070687Y-113564201D01*
X171031420Y-113564335D01*
X170985004Y-113564412D01*
X170930838Y-113564448D01*
X170872699Y-113564456D01*
X170805477Y-113564526D01*
X170743664Y-113564732D01*
X170687711Y-113565069D01*
X170638072Y-113565530D01*
X170595198Y-113566109D01*
X170559542Y-113566802D01*
X170531556Y-113567601D01*
X170511692Y-113568502D01*
X170502438Y-113569235D01*
X170431944Y-113581190D01*
X170366081Y-113600682D01*
X170305113Y-113627483D01*
X170249302Y-113661362D01*
X170198911Y-113702089D01*
X170154202Y-113749434D01*
X170115437Y-113803168D01*
X170082880Y-113863061D01*
X170056794Y-113928882D01*
X170044658Y-113969965D01*
X170031127Y-114031874D01*
X170023039Y-114092291D01*
X170020375Y-114150156D01*
X170023119Y-114204414D01*
X170031252Y-114254006D01*
X170044757Y-114297876D01*
X170050390Y-114310918D01*
X170067200Y-114341166D01*
X170090305Y-114374432D01*
X170118344Y-114409173D01*
X170149955Y-114443848D01*
X170183779Y-114476912D01*
X170218451Y-114506824D01*
X170233719Y-114518658D01*
X170256817Y-114534730D01*
X170286774Y-114553732D01*
X170322318Y-114574942D01*
X170362180Y-114597637D01*
X170405088Y-114621094D01*
X170449772Y-114644589D01*
X170494961Y-114667401D01*
X170496631Y-114668225D01*
X170544959Y-114692354D01*
X170586449Y-114713827D01*
X170622469Y-114733470D01*
X170654386Y-114752107D01*
X170683565Y-114770564D01*
X170711376Y-114789666D01*
X170739183Y-114810237D01*
X170764000Y-114829624D01*
X170824946Y-114882307D01*
X170877668Y-114936920D01*
X170922789Y-114994318D01*
X170960933Y-115055356D01*
X170992722Y-115120889D01*
X171011161Y-115168840D01*
X171021537Y-115200573D01*
X171029417Y-115229807D01*
X171035100Y-115258621D01*
X171038880Y-115289091D01*
X171041055Y-115323295D01*
X171041920Y-115363312D01*
X171041959Y-115384789D01*
X171037842Y-115479877D01*
X171026217Y-115573875D01*
X171007359Y-115665901D01*
X170981544Y-115755073D01*
X170949047Y-115840508D01*
X170910145Y-115921325D01*
X170865112Y-115996642D01*
X170839353Y-116033354D01*
X170820248Y-116057383D01*
X170796178Y-116085011D01*
X170769087Y-116114207D01*
X170740919Y-116142943D01*
X170713618Y-116169186D01*
X170689128Y-116190908D01*
X170685962Y-116193532D01*
X170636310Y-116231137D01*
X170583067Y-116265145D01*
X170523714Y-116297151D01*
X170516684Y-116300628D01*
X170441617Y-116333871D01*
X170361793Y-116362185D01*
X170276599Y-116385716D01*
X170185421Y-116404610D01*
X170087645Y-116419014D01*
X169982658Y-116429072D01*
X169975263Y-116429601D01*
X169948758Y-116431002D01*
X169915092Y-116432082D01*
X169876008Y-116432839D01*
X169833252Y-116433275D01*
X169788567Y-116433391D01*
X169743699Y-116433187D01*
X169700391Y-116432665D01*
X169660388Y-116431824D01*
X169625436Y-116430667D01*
X169600947Y-116429431D01*
X169467534Y-116417910D01*
X169339601Y-116400275D01*
X169257824Y-116385258D01*
X169227010Y-116378672D01*
X169197362Y-116371694D01*
X169170097Y-116364674D01*
X169146433Y-116357962D01*
X169127586Y-116351906D01*
X169114775Y-116346856D01*
X169109217Y-116343162D01*
X169109087Y-116342577D01*
X169109989Y-116337245D01*
X169112259Y-116324323D01*
X169115685Y-116304991D01*
X169120060Y-116280431D01*
X169125171Y-116251823D01*
X169130810Y-116220349D01*
X169130964Y-116219494D01*
X169152298Y-116100584D01*
X169527017Y-116098783D01*
X169595342Y-116098435D01*
X169655386Y-116098082D01*
X169707779Y-116097710D01*
X169753153Y-116097305D01*
X169792139Y-116096854D01*
X169825368Y-116096341D01*
X169853469Y-116095754D01*
X169877076Y-116095078D01*
X169896818Y-116094300D01*
X169913327Y-116093405D01*
X169927233Y-116092381D01*
X169939168Y-116091213D01*
X169949762Y-116089886D01*
X169952982Y-116089425D01*
X170026760Y-116076270D01*
X170093058Y-116059513D01*
X170152691Y-116038809D01*
X170206476Y-116013811D01*
X170255228Y-115984173D01*
X170299764Y-115949548D01*
X170314922Y-115935796D01*
X170358429Y-115888774D01*
X170396632Y-115835060D01*
X170429211Y-115775349D01*
X170455850Y-115710335D01*
X170476231Y-115640714D01*
X170490034Y-115567180D01*
X170492467Y-115547855D01*
X170495338Y-115486845D01*
X170489759Y-115428620D01*
X170475713Y-115373135D01*
X170453182Y-115320340D01*
X170422148Y-115270189D01*
X170382594Y-115222633D01*
X170362859Y-115202873D01*
X170342307Y-115183909D01*
X170322025Y-115166570D01*
X170300935Y-115150159D01*
X170277962Y-115133976D01*
X170252030Y-115117323D01*
X170222063Y-115099503D01*
X170186985Y-115079815D01*
X170145721Y-115057562D01*
X170110151Y-115038813D01*
X170043124Y-115003493D01*
X169983536Y-114971526D01*
X169930751Y-114942490D01*
X169884136Y-114915960D01*
X169843056Y-114891514D01*
X169806878Y-114868727D01*
X169774968Y-114847176D01*
X169746690Y-114826438D01*
X169721412Y-114806088D01*
X169698499Y-114785704D01*
X169677317Y-114764861D01*
X169657232Y-114743137D01*
X169643335Y-114726999D01*
X169597202Y-114667015D01*
X169559055Y-114606180D01*
X169528559Y-114543536D01*
X169505373Y-114478123D01*
X169489161Y-114408983D01*
X169479584Y-114335156D01*
X169476304Y-114255684D01*
X169476300Y-114252930D01*
X169479955Y-114152233D01*
X169490946Y-114055071D01*
X169509144Y-113961800D01*
X169534421Y-113872779D01*
X169566648Y-113788365D01*
X169605696Y-113708916D01*
X169651436Y-113634790D01*
X169703740Y-113566344D01*
X169736406Y-113530045D01*
X169801357Y-113468375D01*
X169871621Y-113413857D01*
X169947202Y-113366490D01*
X170028100Y-113326273D01*
X170114319Y-113293205D01*
X170205861Y-113267284D01*
X170252766Y-113257171D01*
X170284475Y-113251123D01*
X170312471Y-113246147D01*
X170338119Y-113242142D01*
X170362789Y-113239005D01*
X170387846Y-113236633D01*
X170414660Y-113234923D01*
X170444596Y-113233773D01*
X170479023Y-113233080D01*
X170519307Y-113232741D01*
X170566817Y-113232653D01*
X170579070Y-113232658D01*
G36*
X169377376Y-113447470D02*
X169370687Y-113485701D01*
X169364507Y-113521275D01*
X169359002Y-113553215D01*
X169354338Y-113580544D01*
X169350682Y-113602286D01*
X169348201Y-113617462D01*
X169347060Y-113625096D01*
X169347004Y-113625728D01*
X169345375Y-113626586D01*
X169340242Y-113627356D01*
X169331212Y-113628044D01*
X169317890Y-113628653D01*
X169299882Y-113629187D01*
X169276792Y-113629651D01*
X169248226Y-113630047D01*
X169213791Y-113630381D01*
X169173091Y-113630656D01*
X169125731Y-113630876D01*
X169071318Y-113631045D01*
X169009457Y-113631168D01*
X168939753Y-113631248D01*
X168861812Y-113631290D01*
X168801155Y-113631298D01*
X168255362Y-113631298D01*
X168253089Y-113641324D01*
X168252023Y-113646967D01*
X168249503Y-113660815D01*
X168245631Y-113682295D01*
X168240510Y-113710838D01*
X168234241Y-113745873D01*
X168226927Y-113786828D01*
X168218669Y-113833132D01*
X168209569Y-113884214D01*
X168199728Y-113939504D01*
X168189250Y-113998429D01*
X168178235Y-114060420D01*
X168166786Y-114124905D01*
X168163837Y-114141526D01*
X168152294Y-114206551D01*
X168141160Y-114269226D01*
X168130537Y-114328980D01*
X168120526Y-114385242D01*
X168111229Y-114437441D01*
X168102749Y-114485007D01*
X168095187Y-114527367D01*
X168088645Y-114563951D01*
X168083225Y-114594189D01*
X168079029Y-114617508D01*
X168076159Y-114633338D01*
X168074716Y-114641108D01*
X168074589Y-114641728D01*
X168072321Y-114651754D01*
X168526669Y-114651754D01*
X168589522Y-114651786D01*
X168649833Y-114651880D01*
X168707009Y-114652030D01*
X168760455Y-114652233D01*
X168809578Y-114652484D01*
X168853783Y-114652779D01*
X168892477Y-114653113D01*
X168925067Y-114653483D01*
X168950958Y-114653883D01*
X168969556Y-114654310D01*
X168980267Y-114654759D01*
X168982765Y-114655096D01*
X168982366Y-114659978D01*
X168980583Y-114672482D01*
X168977614Y-114691459D01*
X168973660Y-114715760D01*
X168968918Y-114744238D01*
X168963588Y-114775743D01*
X168957869Y-114809128D01*
X168951960Y-114843242D01*
X168946060Y-114876939D01*
X168940368Y-114909069D01*
X168935084Y-114938483D01*
X168930405Y-114964033D01*
X168926531Y-114984571D01*
X168923662Y-114998948D01*
X168921996Y-115006015D01*
X168921913Y-115006250D01*
X168920591Y-115007309D01*
X168917160Y-115008248D01*
X168911130Y-115009074D01*
X168902013Y-115009794D01*
X168889320Y-115010416D01*
X168872562Y-115010945D01*
X168851250Y-115011389D01*
X168824895Y-115011755D01*
X168793009Y-115012049D01*
X168755103Y-115012279D01*
X168710687Y-115012451D01*
X168659273Y-115012572D01*
X168600373Y-115012650D01*
X168533496Y-115012691D01*
X168464856Y-115012702D01*
X168010275Y-115012702D01*
X168008010Y-115022728D01*
X168007001Y-115028194D01*
X168004556Y-115041954D01*
X168000758Y-115063525D01*
X167995691Y-115092418D01*
X167989442Y-115128149D01*
X167982094Y-115170232D01*
X167973732Y-115218179D01*
X167964441Y-115271507D01*
X167954305Y-115329727D01*
X167943409Y-115392355D01*
X167931839Y-115458904D01*
X167919678Y-115528889D01*
X167907011Y-115601823D01*
X167893923Y-115677221D01*
X167889766Y-115701175D01*
X167876565Y-115777242D01*
X167863758Y-115850997D01*
X167851431Y-115921954D01*
X167839668Y-115989628D01*
X167828554Y-116053531D01*
X167818173Y-116113179D01*
X167808611Y-116168085D01*
X167799952Y-116217764D01*
X167792280Y-116261729D01*
X167785681Y-116299494D01*
X167780238Y-116330573D01*
X167776038Y-116354481D01*
X167773164Y-116370731D01*
X167771700Y-116378837D01*
X167771546Y-116379623D01*
X167769304Y-116389649D01*
X167502020Y-116389649D01*
X167444371Y-116389613D01*
X167395079Y-116389498D01*
X167353590Y-116389293D01*
X167319349Y-116388985D01*
X167291801Y-116388563D01*
X167270391Y-116388016D01*
X167254566Y-116387332D01*
X167243770Y-116386500D01*
X167237448Y-116385507D01*
X167235046Y-116384343D01*
X167234988Y-116384079D01*
X167235770Y-116379322D01*
X167238042Y-116366101D01*
X167241749Y-116344731D01*
X167246836Y-116315526D01*
X167253247Y-116278800D01*
X167260928Y-116234867D01*
X167269823Y-116184041D01*
X167279877Y-116126637D01*
X167291035Y-116062967D01*
X167303243Y-115993347D01*
X167316444Y-115918090D01*
X167330584Y-115837510D01*
X167345608Y-115751922D01*
X167361461Y-115661640D01*
X167378087Y-115566977D01*
X167395431Y-115468248D01*
X167413439Y-115365767D01*
X167432055Y-115259847D01*
X167451225Y-115150804D01*
X167470892Y-115038950D01*
X167491002Y-114924601D01*
X167508034Y-114827772D01*
X167780829Y-113277035D01*
X169407691Y-113274783D01*
X169377376Y-113447470D01*
X169377376Y-113447470D01*
G37*
X169377376Y-113447470D02*
X169370687Y-113485701D01*
X169364507Y-113521275D01*
X169359002Y-113553215D01*
X169354338Y-113580544D01*
X169350682Y-113602286D01*
X169348201Y-113617462D01*
X169347060Y-113625096D01*
X169347004Y-113625728D01*
X169345375Y-113626586D01*
X169340242Y-113627356D01*
X169331212Y-113628044D01*
X169317890Y-113628653D01*
X169299882Y-113629187D01*
X169276792Y-113629651D01*
X169248226Y-113630047D01*
X169213791Y-113630381D01*
X169173091Y-113630656D01*
X169125731Y-113630876D01*
X169071318Y-113631045D01*
X169009457Y-113631168D01*
X168939753Y-113631248D01*
X168861812Y-113631290D01*
X168801155Y-113631298D01*
X168255362Y-113631298D01*
X168253089Y-113641324D01*
X168252023Y-113646967D01*
X168249503Y-113660815D01*
X168245631Y-113682295D01*
X168240510Y-113710838D01*
X168234241Y-113745873D01*
X168226927Y-113786828D01*
X168218669Y-113833132D01*
X168209569Y-113884214D01*
X168199728Y-113939504D01*
X168189250Y-113998429D01*
X168178235Y-114060420D01*
X168166786Y-114124905D01*
X168163837Y-114141526D01*
X168152294Y-114206551D01*
X168141160Y-114269226D01*
X168130537Y-114328980D01*
X168120526Y-114385242D01*
X168111229Y-114437441D01*
X168102749Y-114485007D01*
X168095187Y-114527367D01*
X168088645Y-114563951D01*
X168083225Y-114594189D01*
X168079029Y-114617508D01*
X168076159Y-114633338D01*
X168074716Y-114641108D01*
X168074589Y-114641728D01*
X168072321Y-114651754D01*
X168526669Y-114651754D01*
X168589522Y-114651786D01*
X168649833Y-114651880D01*
X168707009Y-114652030D01*
X168760455Y-114652233D01*
X168809578Y-114652484D01*
X168853783Y-114652779D01*
X168892477Y-114653113D01*
X168925067Y-114653483D01*
X168950958Y-114653883D01*
X168969556Y-114654310D01*
X168980267Y-114654759D01*
X168982765Y-114655096D01*
X168982366Y-114659978D01*
X168980583Y-114672482D01*
X168977614Y-114691459D01*
X168973660Y-114715760D01*
X168968918Y-114744238D01*
X168963588Y-114775743D01*
X168957869Y-114809128D01*
X168951960Y-114843242D01*
X168946060Y-114876939D01*
X168940368Y-114909069D01*
X168935084Y-114938483D01*
X168930405Y-114964033D01*
X168926531Y-114984571D01*
X168923662Y-114998948D01*
X168921996Y-115006015D01*
X168921913Y-115006250D01*
X168920591Y-115007309D01*
X168917160Y-115008248D01*
X168911130Y-115009074D01*
X168902013Y-115009794D01*
X168889320Y-115010416D01*
X168872562Y-115010945D01*
X168851250Y-115011389D01*
X168824895Y-115011755D01*
X168793009Y-115012049D01*
X168755103Y-115012279D01*
X168710687Y-115012451D01*
X168659273Y-115012572D01*
X168600373Y-115012650D01*
X168533496Y-115012691D01*
X168464856Y-115012702D01*
X168010275Y-115012702D01*
X168008010Y-115022728D01*
X168007001Y-115028194D01*
X168004556Y-115041954D01*
X168000758Y-115063525D01*
X167995691Y-115092418D01*
X167989442Y-115128149D01*
X167982094Y-115170232D01*
X167973732Y-115218179D01*
X167964441Y-115271507D01*
X167954305Y-115329727D01*
X167943409Y-115392355D01*
X167931839Y-115458904D01*
X167919678Y-115528889D01*
X167907011Y-115601823D01*
X167893923Y-115677221D01*
X167889766Y-115701175D01*
X167876565Y-115777242D01*
X167863758Y-115850997D01*
X167851431Y-115921954D01*
X167839668Y-115989628D01*
X167828554Y-116053531D01*
X167818173Y-116113179D01*
X167808611Y-116168085D01*
X167799952Y-116217764D01*
X167792280Y-116261729D01*
X167785681Y-116299494D01*
X167780238Y-116330573D01*
X167776038Y-116354481D01*
X167773164Y-116370731D01*
X167771700Y-116378837D01*
X167771546Y-116379623D01*
X167769304Y-116389649D01*
X167502020Y-116389649D01*
X167444371Y-116389613D01*
X167395079Y-116389498D01*
X167353590Y-116389293D01*
X167319349Y-116388985D01*
X167291801Y-116388563D01*
X167270391Y-116388016D01*
X167254566Y-116387332D01*
X167243770Y-116386500D01*
X167237448Y-116385507D01*
X167235046Y-116384343D01*
X167234988Y-116384079D01*
X167235770Y-116379322D01*
X167238042Y-116366101D01*
X167241749Y-116344731D01*
X167246836Y-116315526D01*
X167253247Y-116278800D01*
X167260928Y-116234867D01*
X167269823Y-116184041D01*
X167279877Y-116126637D01*
X167291035Y-116062967D01*
X167303243Y-115993347D01*
X167316444Y-115918090D01*
X167330584Y-115837510D01*
X167345608Y-115751922D01*
X167361461Y-115661640D01*
X167378087Y-115566977D01*
X167395431Y-115468248D01*
X167413439Y-115365767D01*
X167432055Y-115259847D01*
X167451225Y-115150804D01*
X167470892Y-115038950D01*
X167491002Y-114924601D01*
X167508034Y-114827772D01*
X167780829Y-113277035D01*
X169407691Y-113274783D01*
X169377376Y-113447470D01*
D13*
X162093334Y-103142381D02*
X161760000Y-102666190D01*
X161521905Y-103142381D02*
X161521905Y-102142381D01*
X161902858Y-102142381D01*
X161998096Y-102190000D01*
X162045715Y-102237619D01*
X162093334Y-102332857D01*
X162093334Y-102475714D01*
X162045715Y-102570952D01*
X161998096Y-102618571D01*
X161902858Y-102666190D01*
X161521905Y-102666190D01*
X163045715Y-103142381D02*
X162474286Y-103142381D01*
X162760000Y-103142381D02*
X162760000Y-102142381D01*
X162664762Y-102285238D01*
X162569524Y-102380476D01*
X162474286Y-102428095D01*
X162123334Y-101142381D02*
X161790000Y-100666190D01*
X161551905Y-101142381D02*
X161551905Y-100142381D01*
X161932858Y-100142381D01*
X162028096Y-100190000D01*
X162075715Y-100237619D01*
X162123334Y-100332857D01*
X162123334Y-100475714D01*
X162075715Y-100570952D01*
X162028096Y-100618571D01*
X161932858Y-100666190D01*
X161551905Y-100666190D01*
X162504286Y-100237619D02*
X162551905Y-100190000D01*
X162647143Y-100142381D01*
X162885239Y-100142381D01*
X162980477Y-100190000D01*
X163028096Y-100237619D01*
X163075715Y-100332857D01*
X163075715Y-100428095D01*
X163028096Y-100570952D01*
X162456667Y-101142381D01*
X163075715Y-101142381D01*
M02*
