G04 #@! TF.FileFunction,Legend,Bot*
%FSLAX46Y46*%
G04 Gerber Fmt 4.6, Leading zero omitted, Abs format (unit mm)*
G04 Created by KiCad (PCBNEW 4.0.1-stable) date Sunday, January 10, 2016 'PMt' 10:42:02 PM*
%MOMM*%
G01*
G04 APERTURE LIST*
%ADD10C,0.100000*%
%ADD11C,0.300000*%
G04 APERTURE END LIST*
D10*
D11*
X167772857Y-98448571D02*
X167772857Y-96948571D01*
X167201429Y-96948571D01*
X167058571Y-97020000D01*
X166987143Y-97091429D01*
X166915714Y-97234286D01*
X166915714Y-97448571D01*
X166987143Y-97591429D01*
X167058571Y-97662857D01*
X167201429Y-97734286D01*
X167772857Y-97734286D01*
X165487143Y-97020000D02*
X165630000Y-96948571D01*
X165844286Y-96948571D01*
X166058571Y-97020000D01*
X166201429Y-97162857D01*
X166272857Y-97305714D01*
X166344286Y-97591429D01*
X166344286Y-97805714D01*
X166272857Y-98091429D01*
X166201429Y-98234286D01*
X166058571Y-98377143D01*
X165844286Y-98448571D01*
X165701429Y-98448571D01*
X165487143Y-98377143D01*
X165415714Y-98305714D01*
X165415714Y-97805714D01*
X165701429Y-97805714D01*
X167777143Y-100142857D02*
X167277143Y-100142857D01*
X167062857Y-100928571D02*
X167777143Y-100928571D01*
X167777143Y-99428571D01*
X167062857Y-99428571D01*
X166420000Y-100928571D02*
X166420000Y-99428571D01*
X165562857Y-100928571D01*
X165562857Y-99428571D01*
X167745714Y-103658571D02*
X167745714Y-102158571D01*
X167031428Y-103658571D02*
X167031428Y-102158571D01*
X166174285Y-103658571D01*
X166174285Y-102158571D01*
X167182857Y-104580000D02*
X167325714Y-104508571D01*
X167540000Y-104508571D01*
X167754285Y-104580000D01*
X167897143Y-104722857D01*
X167968571Y-104865714D01*
X168040000Y-105151429D01*
X168040000Y-105365714D01*
X167968571Y-105651429D01*
X167897143Y-105794286D01*
X167754285Y-105937143D01*
X167540000Y-106008571D01*
X167397143Y-106008571D01*
X167182857Y-105937143D01*
X167111428Y-105865714D01*
X167111428Y-105365714D01*
X167397143Y-105365714D01*
X166468571Y-106008571D02*
X166468571Y-104508571D01*
X165611428Y-106008571D01*
X165611428Y-104508571D01*
X164897142Y-106008571D02*
X164897142Y-104508571D01*
X164539999Y-104508571D01*
X164325714Y-104580000D01*
X164182856Y-104722857D01*
X164111428Y-104865714D01*
X164039999Y-105151429D01*
X164039999Y-105365714D01*
X164111428Y-105651429D01*
X164182856Y-105794286D01*
X164325714Y-105937143D01*
X164539999Y-106008571D01*
X164897142Y-106008571D01*
X167798571Y-108077143D02*
X166655714Y-108077143D01*
X167227143Y-108648571D02*
X167227143Y-107505714D01*
X165227142Y-107148571D02*
X165941428Y-107148571D01*
X166012857Y-107862857D01*
X165941428Y-107791429D01*
X165798571Y-107720000D01*
X165441428Y-107720000D01*
X165298571Y-107791429D01*
X165227142Y-107862857D01*
X165155714Y-108005714D01*
X165155714Y-108362857D01*
X165227142Y-108505714D01*
X165298571Y-108577143D01*
X165441428Y-108648571D01*
X165798571Y-108648571D01*
X165941428Y-108577143D01*
X166012857Y-108505714D01*
X164727143Y-107148571D02*
X164227143Y-108648571D01*
X163727143Y-107148571D01*
X166752857Y-117870000D02*
X166895714Y-117798571D01*
X167110000Y-117798571D01*
X167324285Y-117870000D01*
X167467143Y-118012857D01*
X167538571Y-118155714D01*
X167610000Y-118441429D01*
X167610000Y-118655714D01*
X167538571Y-118941429D01*
X167467143Y-119084286D01*
X167324285Y-119227143D01*
X167110000Y-119298571D01*
X166967143Y-119298571D01*
X166752857Y-119227143D01*
X166681428Y-119155714D01*
X166681428Y-118655714D01*
X166967143Y-118655714D01*
X166038571Y-119298571D02*
X166038571Y-117798571D01*
X165181428Y-119298571D01*
X165181428Y-117798571D01*
X164467142Y-119298571D02*
X164467142Y-117798571D01*
X164109999Y-117798571D01*
X163895714Y-117870000D01*
X163752856Y-118012857D01*
X163681428Y-118155714D01*
X163609999Y-118441429D01*
X163609999Y-118655714D01*
X163681428Y-118941429D01*
X163752856Y-119084286D01*
X163895714Y-119227143D01*
X164109999Y-119298571D01*
X164467142Y-119298571D01*
X167555714Y-116648571D02*
X167555714Y-115148571D01*
X166841428Y-116648571D02*
X166841428Y-115148571D01*
X165984285Y-116648571D01*
X165984285Y-115148571D01*
X170984286Y-110161429D02*
X170912857Y-110090000D01*
X170770000Y-110018571D01*
X170412857Y-110018571D01*
X170270000Y-110090000D01*
X170198571Y-110161429D01*
X170127143Y-110304286D01*
X170127143Y-110447143D01*
X170198571Y-110661429D01*
X171055714Y-111518571D01*
X170127143Y-111518571D01*
X168412858Y-111090000D02*
X167698572Y-111090000D01*
X168555715Y-111518571D02*
X168055715Y-110018571D01*
X167555715Y-111518571D01*
X167055715Y-111518571D02*
X167055715Y-110518571D01*
X167055715Y-110661429D02*
X166984287Y-110590000D01*
X166841429Y-110518571D01*
X166627144Y-110518571D01*
X166484287Y-110590000D01*
X166412858Y-110732857D01*
X166412858Y-111518571D01*
X166412858Y-110732857D02*
X166341429Y-110590000D01*
X166198572Y-110518571D01*
X165984287Y-110518571D01*
X165841429Y-110590000D01*
X165770001Y-110732857D01*
X165770001Y-111518571D01*
X165055715Y-110518571D02*
X165055715Y-112018571D01*
X165055715Y-110590000D02*
X164912858Y-110518571D01*
X164627144Y-110518571D01*
X164484287Y-110590000D01*
X164412858Y-110661429D01*
X164341429Y-110804286D01*
X164341429Y-111232857D01*
X164412858Y-111375714D01*
X164484287Y-111447143D01*
X164627144Y-111518571D01*
X164912858Y-111518571D01*
X165055715Y-111447143D01*
X170912857Y-113918571D02*
X170912857Y-112418571D01*
X170412857Y-113490000D01*
X169912857Y-112418571D01*
X169912857Y-113918571D01*
X168555714Y-113918571D02*
X168555714Y-113132857D01*
X168627143Y-112990000D01*
X168770000Y-112918571D01*
X169055714Y-112918571D01*
X169198571Y-112990000D01*
X168555714Y-113847143D02*
X168698571Y-113918571D01*
X169055714Y-113918571D01*
X169198571Y-113847143D01*
X169270000Y-113704286D01*
X169270000Y-113561429D01*
X169198571Y-113418571D01*
X169055714Y-113347143D01*
X168698571Y-113347143D01*
X168555714Y-113275714D01*
X167984285Y-113918571D02*
X167198571Y-112918571D01*
X167984285Y-112918571D02*
X167198571Y-113918571D01*
X165484285Y-113918571D02*
X165484285Y-112418571D01*
X165127142Y-112418571D01*
X164912857Y-112490000D01*
X164769999Y-112632857D01*
X164698571Y-112775714D01*
X164627142Y-113061429D01*
X164627142Y-113275714D01*
X164698571Y-113561429D01*
X164769999Y-113704286D01*
X164912857Y-113847143D01*
X165127142Y-113918571D01*
X165484285Y-113918571D01*
X163984285Y-113918571D02*
X163984285Y-112918571D01*
X163984285Y-113204286D02*
X163912857Y-113061429D01*
X163841428Y-112990000D01*
X163698571Y-112918571D01*
X163555714Y-112918571D01*
X162412857Y-113918571D02*
X162412857Y-113132857D01*
X162484286Y-112990000D01*
X162627143Y-112918571D01*
X162912857Y-112918571D01*
X163055714Y-112990000D01*
X162412857Y-113847143D02*
X162555714Y-113918571D01*
X162912857Y-113918571D01*
X163055714Y-113847143D01*
X163127143Y-113704286D01*
X163127143Y-113561429D01*
X163055714Y-113418571D01*
X162912857Y-113347143D01*
X162555714Y-113347143D01*
X162412857Y-113275714D01*
X161841428Y-112918571D02*
X161555714Y-113918571D01*
X161270000Y-113204286D01*
X160984285Y-113918571D01*
X160698571Y-112918571D01*
X159017143Y-99108571D02*
X159088571Y-98965714D01*
X159088571Y-98680000D01*
X159017143Y-98537142D01*
X158945714Y-98465714D01*
X158802857Y-98394285D01*
X158374286Y-98394285D01*
X158231429Y-98465714D01*
X158160000Y-98537142D01*
X158088571Y-98680000D01*
X158088571Y-98965714D01*
X158160000Y-99108571D01*
X159088571Y-99751428D02*
X157588571Y-99751428D01*
X158517143Y-99894285D02*
X159088571Y-100322856D01*
X158088571Y-100322856D02*
X158660000Y-99751428D01*
X159088571Y-101608571D02*
X157588571Y-101608571D01*
X159017143Y-101608571D02*
X159088571Y-101465714D01*
X159088571Y-101180000D01*
X159017143Y-101037142D01*
X158945714Y-100965714D01*
X158802857Y-100894285D01*
X158374286Y-100894285D01*
X158231429Y-100965714D01*
X158160000Y-101037142D01*
X158088571Y-101180000D01*
X158088571Y-101465714D01*
X158160000Y-101608571D01*
X158945714Y-102322857D02*
X159017143Y-102394285D01*
X159088571Y-102322857D01*
X159017143Y-102251428D01*
X158945714Y-102322857D01*
X159088571Y-102322857D01*
X158088571Y-102822857D02*
X158088571Y-103394286D01*
X157588571Y-103037143D02*
X158874286Y-103037143D01*
X159017143Y-103108571D01*
X159088571Y-103251429D01*
X159088571Y-103394286D01*
X159017143Y-104465714D02*
X159088571Y-104322857D01*
X159088571Y-104037143D01*
X159017143Y-103894286D01*
X158874286Y-103822857D01*
X158302857Y-103822857D01*
X158160000Y-103894286D01*
X158088571Y-104037143D01*
X158088571Y-104322857D01*
X158160000Y-104465714D01*
X158302857Y-104537143D01*
X158445714Y-104537143D01*
X158588571Y-103822857D01*
X159017143Y-105822857D02*
X159088571Y-105680000D01*
X159088571Y-105394286D01*
X159017143Y-105251428D01*
X158945714Y-105180000D01*
X158802857Y-105108571D01*
X158374286Y-105108571D01*
X158231429Y-105180000D01*
X158160000Y-105251428D01*
X158088571Y-105394286D01*
X158088571Y-105680000D01*
X158160000Y-105822857D01*
X159088571Y-106465714D02*
X157588571Y-106465714D01*
X159088571Y-107108571D02*
X158302857Y-107108571D01*
X158160000Y-107037142D01*
X158088571Y-106894285D01*
X158088571Y-106680000D01*
X158160000Y-106537142D01*
X158231429Y-106465714D01*
X157517143Y-108894285D02*
X159445714Y-107608571D01*
X158088571Y-109394286D02*
X159588571Y-109394286D01*
X158160000Y-109394286D02*
X158088571Y-109537143D01*
X158088571Y-109822857D01*
X158160000Y-109965714D01*
X158231429Y-110037143D01*
X158374286Y-110108572D01*
X158802857Y-110108572D01*
X158945714Y-110037143D01*
X159017143Y-109965714D01*
X159088571Y-109822857D01*
X159088571Y-109537143D01*
X159017143Y-109394286D01*
X158517143Y-110751429D02*
X158517143Y-111894286D01*
X158088571Y-112608572D02*
X159588571Y-112608572D01*
X158160000Y-112608572D02*
X158088571Y-112751429D01*
X158088571Y-113037143D01*
X158160000Y-113180000D01*
X158231429Y-113251429D01*
X158374286Y-113322858D01*
X158802857Y-113322858D01*
X158945714Y-113251429D01*
X159017143Y-113180000D01*
X159088571Y-113037143D01*
X159088571Y-112751429D01*
X159017143Y-112608572D01*
X157517143Y-115037143D02*
X159445714Y-113751429D01*
X158088571Y-115394287D02*
X159088571Y-115751430D01*
X158088571Y-116108572D01*
X157731429Y-116608572D02*
X157660000Y-116680001D01*
X157588571Y-116822858D01*
X157588571Y-117180001D01*
X157660000Y-117322858D01*
X157731429Y-117394287D01*
X157874286Y-117465715D01*
X158017143Y-117465715D01*
X158231429Y-117394287D01*
X159088571Y-116537144D01*
X159088571Y-117465715D01*
M02*
