M48
INCH,TZ
T1C0.013
T2C0.040
T3C0.055
T4C0.118
%
G90
G05
T1
X61731Y-42004
X61752Y-43224
X63102Y-40929
X63961Y-43409
X64008Y-41614
X64079Y-41909
X64094Y-42287
X64154Y-43213
X64213Y-42890
X64295Y-42102
X64406Y-42409
X64433Y-43256
X64457Y-42681
T2
X66980Y-39693
X66980Y-40693
X66980Y-41693
X66980Y-42693
X66980Y-43693
T3
X62201Y-45689
X62201Y-46689
X62303Y-36402
X62303Y-37402
T4
X64272Y-36516
X64272Y-48524
T0
M30
