M48
INCH,TZ
T1C0.013
T2C0.040
T3C0.118
%
G90
G05
T1
X62130Y-41535
X63953Y-42299
X63961Y-43409
X63969Y-41906
X63969Y-43118
X64008Y-41614
X64157Y-42122
X64213Y-42890
X64217Y-42394
X64268Y-43177
X64374Y-42665
T2
X66728Y-38441
X66728Y-39441
X66728Y-40441
X66728Y-41441
X66728Y-42441
X66728Y-45685
X66728Y-46685
T3
X64272Y-36516
X64272Y-48524
T0
M30
