G04 #@! TF.FileFunction,Copper,L1,Top,Signal*
%FSLAX46Y46*%
G04 Gerber Fmt 4.6, Leading zero omitted, Abs format (unit mm)*
G04 Created by KiCad (PCBNEW 4.0.1-stable) date Saturday, January 30, 2016 'AMt' 12:46:15 AM*
%MOMM*%
G01*
G04 APERTURE LIST*
%ADD10C,0.100000*%
%ADD11C,0.010000*%
%ADD12O,2.032000X2.032000*%
%ADD13C,2.032000*%
%ADD14R,2.032000X2.032000*%
%ADD15R,0.700000X0.200000*%
%ADD16R,1.200000X0.900000*%
%ADD17R,3.000000X2.032000*%
%ADD18O,3.000000X2.032000*%
%ADD19C,0.685800*%
%ADD20C,0.508000*%
%ADD21C,0.152400*%
%ADD22C,0.254000*%
G04 APERTURE END LIST*
D10*
D11*
G36*
X159146524Y-121437890D02*
X159146179Y-121459607D01*
X159145460Y-121478555D01*
X159144281Y-121495765D01*
X159142559Y-121512270D01*
X159140210Y-121529101D01*
X159137150Y-121547292D01*
X159134355Y-121562352D01*
X159125604Y-121602711D01*
X159114586Y-121644606D01*
X159101875Y-121686059D01*
X159088043Y-121725093D01*
X159085010Y-121732895D01*
X159073220Y-121762503D01*
X159061469Y-121791560D01*
X159049632Y-121820332D01*
X159037586Y-121849083D01*
X159025207Y-121878081D01*
X159012372Y-121907591D01*
X158998957Y-121937879D01*
X158984838Y-121969210D01*
X158969891Y-122001851D01*
X158953992Y-122036067D01*
X158937019Y-122072124D01*
X158918847Y-122110288D01*
X158899352Y-122150824D01*
X158878411Y-122193999D01*
X158855900Y-122240078D01*
X158831695Y-122289327D01*
X158805673Y-122342013D01*
X158777710Y-122398399D01*
X158747682Y-122458754D01*
X158739917Y-122474333D01*
X158714037Y-122526341D01*
X158690226Y-122574400D01*
X158668325Y-122618855D01*
X158648175Y-122660050D01*
X158629617Y-122698331D01*
X158612491Y-122734043D01*
X158596639Y-122767531D01*
X158581901Y-122799140D01*
X158568118Y-122829214D01*
X158555131Y-122858099D01*
X158542779Y-122886140D01*
X158530905Y-122913682D01*
X158519349Y-122941069D01*
X158507952Y-122968648D01*
X158496554Y-122996761D01*
X158484996Y-123025756D01*
X158482614Y-123031784D01*
X158475659Y-123049241D01*
X158469167Y-123065202D01*
X158463373Y-123079121D01*
X158458508Y-123090450D01*
X158454805Y-123098645D01*
X158452497Y-123103158D01*
X158451925Y-123103869D01*
X158449168Y-123102563D01*
X158443749Y-123098180D01*
X158436205Y-123091270D01*
X158427076Y-123082385D01*
X158416901Y-123072075D01*
X158406218Y-123060890D01*
X158395567Y-123049380D01*
X158385485Y-123038096D01*
X158376513Y-123027588D01*
X158372938Y-123023204D01*
X158334812Y-122972211D01*
X158298621Y-122916855D01*
X158264402Y-122857225D01*
X158232190Y-122793406D01*
X158202022Y-122725487D01*
X158173934Y-122653555D01*
X158147960Y-122577696D01*
X158124138Y-122497998D01*
X158102504Y-122414549D01*
X158083093Y-122327435D01*
X158080256Y-122313467D01*
X158069073Y-122253669D01*
X158060289Y-122197688D01*
X158053878Y-122145154D01*
X158049813Y-122095698D01*
X158048069Y-122048950D01*
X158048618Y-122004542D01*
X158051433Y-121962103D01*
X158053575Y-121942375D01*
X158060837Y-121897479D01*
X158071165Y-121856093D01*
X158084525Y-121818274D01*
X158100884Y-121784079D01*
X158120208Y-121753565D01*
X158142465Y-121726788D01*
X158167621Y-121703805D01*
X158195643Y-121684673D01*
X158208814Y-121677520D01*
X158227930Y-121668869D01*
X158248008Y-121661870D01*
X158270053Y-121656258D01*
X158295072Y-121651770D01*
X158318190Y-121648778D01*
X158333896Y-121647017D01*
X158338008Y-121599847D01*
X158339286Y-121585104D01*
X158340417Y-121571916D01*
X158341333Y-121561079D01*
X158341967Y-121553388D01*
X158342253Y-121549639D01*
X158342259Y-121549510D01*
X158343687Y-121547469D01*
X158344714Y-121547773D01*
X158345749Y-121546528D01*
X158346013Y-121541914D01*
X158345621Y-121535321D01*
X158344688Y-121528137D01*
X158343328Y-121521751D01*
X158342325Y-121518810D01*
X158341285Y-121515033D01*
X158339598Y-121507280D01*
X158337423Y-121496345D01*
X158334915Y-121483022D01*
X158332232Y-121468107D01*
X158331580Y-121464381D01*
X158322318Y-121408505D01*
X158314519Y-121355420D01*
X158307952Y-121303382D01*
X158302382Y-121250652D01*
X158300884Y-121234571D01*
X158299791Y-121219191D01*
X158298945Y-121200536D01*
X158298347Y-121179533D01*
X158297997Y-121157109D01*
X158297895Y-121134192D01*
X158298042Y-121111706D01*
X158298438Y-121090581D01*
X158299083Y-121071741D01*
X158299978Y-121056114D01*
X158300810Y-121047095D01*
X158307430Y-120997156D01*
X158315582Y-120948568D01*
X158325532Y-120900046D01*
X158337550Y-120850304D01*
X158351904Y-120798055D01*
X158355004Y-120787445D01*
X158359659Y-120771948D01*
X158363326Y-120760529D01*
X158366244Y-120752586D01*
X158368654Y-120747514D01*
X158370796Y-120744714D01*
X158372422Y-120743722D01*
X158375928Y-120743066D01*
X158383672Y-120741989D01*
X158395080Y-120740557D01*
X158409578Y-120738841D01*
X158426591Y-120736906D01*
X158445544Y-120734823D01*
X158465418Y-120732704D01*
X158489194Y-120730241D01*
X158508571Y-120728316D01*
X158523957Y-120726901D01*
X158535756Y-120725968D01*
X158544377Y-120725489D01*
X158550224Y-120725436D01*
X158553706Y-120725783D01*
X158555227Y-120726500D01*
X158555272Y-120726565D01*
X158556841Y-120730819D01*
X158558377Y-120737571D01*
X158558720Y-120739605D01*
X158560111Y-120747317D01*
X158562482Y-120759009D01*
X158565668Y-120773961D01*
X158569505Y-120791451D01*
X158573829Y-120810760D01*
X158578477Y-120831165D01*
X158583284Y-120851946D01*
X158588086Y-120872383D01*
X158592720Y-120891754D01*
X158597021Y-120909339D01*
X158600336Y-120922514D01*
X158619097Y-120992888D01*
X158638185Y-121058710D01*
X158657695Y-121120260D01*
X158677720Y-121177819D01*
X158698354Y-121231666D01*
X158719691Y-121282082D01*
X158723339Y-121290210D01*
X158746964Y-121338672D01*
X158774213Y-121388023D01*
X158804337Y-121437083D01*
X158836583Y-121484673D01*
X158870203Y-121529616D01*
X158895061Y-121559933D01*
X158905595Y-121572045D01*
X158916849Y-121584616D01*
X158928347Y-121597155D01*
X158939616Y-121609170D01*
X158950182Y-121620171D01*
X158959571Y-121629665D01*
X158967309Y-121637161D01*
X158972923Y-121642168D01*
X158975938Y-121644194D01*
X158976262Y-121644151D01*
X158978009Y-121640610D01*
X158980668Y-121633091D01*
X158984027Y-121622321D01*
X158987871Y-121609025D01*
X158991985Y-121593931D01*
X158996155Y-121577765D01*
X158997875Y-121570819D01*
X159007755Y-121522885D01*
X159013934Y-121474747D01*
X159016400Y-121425937D01*
X159015140Y-121375987D01*
X159010143Y-121324427D01*
X159001395Y-121270790D01*
X158988885Y-121214605D01*
X158988551Y-121213269D01*
X158972272Y-121156150D01*
X158952779Y-121101384D01*
X158930229Y-121049173D01*
X158904780Y-120999722D01*
X158876589Y-120953232D01*
X158845814Y-120909907D01*
X158812612Y-120869950D01*
X158777142Y-120833562D01*
X158739560Y-120800948D01*
X158700023Y-120772311D01*
X158658691Y-120747852D01*
X158615719Y-120727775D01*
X158609704Y-120725373D01*
X158590352Y-120717804D01*
X158493798Y-120616354D01*
X158476154Y-120597831D01*
X158459503Y-120580380D01*
X158444143Y-120564311D01*
X158430373Y-120549936D01*
X158418492Y-120537566D01*
X158408798Y-120527512D01*
X158401591Y-120520085D01*
X158397168Y-120515596D01*
X158395826Y-120514324D01*
X158394596Y-120516351D01*
X158391599Y-120522387D01*
X158387029Y-120532016D01*
X158381076Y-120544824D01*
X158373931Y-120560395D01*
X158365787Y-120578314D01*
X158356835Y-120598164D01*
X158347265Y-120619531D01*
X158344987Y-120624640D01*
X158295564Y-120735536D01*
X158254272Y-120747083D01*
X158235100Y-120752641D01*
X158212941Y-120759390D01*
X158189081Y-120766912D01*
X158164805Y-120774791D01*
X158141398Y-120782611D01*
X158120145Y-120789953D01*
X158103081Y-120796122D01*
X158093696Y-120799858D01*
X158087885Y-120802957D01*
X158084583Y-120806150D01*
X158082759Y-120810055D01*
X158081960Y-120815062D01*
X158081317Y-120824196D01*
X158080828Y-120836750D01*
X158080493Y-120852014D01*
X158080310Y-120869280D01*
X158080276Y-120887842D01*
X158080392Y-120906989D01*
X158080655Y-120926014D01*
X158081063Y-120944209D01*
X158081616Y-120960866D01*
X158082311Y-120975276D01*
X158083137Y-120986619D01*
X158095226Y-121098351D01*
X158104397Y-121166838D01*
X158108811Y-121196132D01*
X158113132Y-121221379D01*
X158117572Y-121243360D01*
X158122347Y-121262857D01*
X158127669Y-121280651D01*
X158133754Y-121297523D01*
X158140816Y-121314255D01*
X158149067Y-121331628D01*
X158150127Y-121333752D01*
X158171748Y-121372076D01*
X158197693Y-121409659D01*
X158227447Y-121445869D01*
X158260498Y-121480073D01*
X158291120Y-121507363D01*
X158306365Y-121520019D01*
X158298013Y-121520019D01*
X158287812Y-121520712D01*
X158274200Y-121522625D01*
X158258376Y-121525512D01*
X158241538Y-121529127D01*
X158224886Y-121533222D01*
X158209619Y-121537550D01*
X158203827Y-121539405D01*
X158163096Y-121555445D01*
X158125284Y-121575322D01*
X158090442Y-121598978D01*
X158058626Y-121626350D01*
X158029889Y-121657380D01*
X158004283Y-121692006D01*
X157981863Y-121730168D01*
X157962681Y-121771805D01*
X157946791Y-121816857D01*
X157941077Y-121836914D01*
X157932661Y-121872741D01*
X157926279Y-121909615D01*
X157921834Y-121948407D01*
X157919225Y-121989988D01*
X157918354Y-122035228D01*
X157918353Y-122036486D01*
X157918771Y-122071578D01*
X157920071Y-122105663D01*
X157922342Y-122139533D01*
X157925674Y-122173982D01*
X157930155Y-122209803D01*
X157935874Y-122247790D01*
X157942920Y-122288735D01*
X157951382Y-122333433D01*
X157951975Y-122336448D01*
X157970066Y-122421094D01*
X157990385Y-122503037D01*
X158012858Y-122582112D01*
X158037409Y-122658153D01*
X158063964Y-122730995D01*
X158092447Y-122800474D01*
X158122784Y-122866424D01*
X158154899Y-122928680D01*
X158188718Y-122987077D01*
X158224166Y-123041450D01*
X158261167Y-123091633D01*
X158299648Y-123137462D01*
X158330368Y-123169810D01*
X158341786Y-123180875D01*
X158353971Y-123192189D01*
X158365689Y-123202638D01*
X158375706Y-123211104D01*
X158378531Y-123213352D01*
X158387406Y-123220273D01*
X158395246Y-123226408D01*
X158401011Y-123230943D01*
X158403225Y-123232705D01*
X158405251Y-123234587D01*
X158406314Y-123236870D01*
X158406409Y-123240577D01*
X158405530Y-123246727D01*
X158403671Y-123256345D01*
X158403071Y-123259314D01*
X158391114Y-123330473D01*
X158383949Y-123402069D01*
X158381568Y-123474224D01*
X158383965Y-123547057D01*
X158384738Y-123558067D01*
X158389585Y-123615880D01*
X158395779Y-123678159D01*
X158403290Y-123744730D01*
X158412088Y-123815420D01*
X158422142Y-123890056D01*
X158433424Y-123968464D01*
X158445903Y-124050473D01*
X158459550Y-124135908D01*
X158474333Y-124224598D01*
X158490224Y-124316368D01*
X158507192Y-124411045D01*
X158525208Y-124508458D01*
X158544242Y-124608432D01*
X158564263Y-124710795D01*
X158585241Y-124815373D01*
X158607148Y-124921995D01*
X158629952Y-125030485D01*
X158653624Y-125140672D01*
X158676577Y-125245352D01*
X158683334Y-125275862D01*
X158689017Y-125302069D01*
X158693534Y-125324406D01*
X158696792Y-125343307D01*
X158698700Y-125359208D01*
X158699165Y-125372541D01*
X158698095Y-125383740D01*
X158695397Y-125393240D01*
X158690980Y-125401475D01*
X158684751Y-125408879D01*
X158676618Y-125415886D01*
X158666489Y-125422929D01*
X158654271Y-125430443D01*
X158639872Y-125438862D01*
X158634826Y-125441797D01*
X158589722Y-125467352D01*
X158544979Y-125491306D01*
X158501167Y-125513386D01*
X158458858Y-125533323D01*
X158418621Y-125550844D01*
X158381027Y-125565680D01*
X158353982Y-125575187D01*
X158318042Y-125585789D01*
X158284502Y-125593137D01*
X158253519Y-125597251D01*
X158225250Y-125598150D01*
X158199850Y-125595853D01*
X158177477Y-125590378D01*
X158158287Y-125581744D01*
X158142437Y-125569969D01*
X158130083Y-125555074D01*
X158125957Y-125547857D01*
X158122694Y-125540908D01*
X158119698Y-125533331D01*
X158116949Y-125524879D01*
X158114428Y-125515307D01*
X158112116Y-125504372D01*
X158109993Y-125491826D01*
X158108040Y-125477427D01*
X158106239Y-125460927D01*
X158104569Y-125442084D01*
X158103011Y-125420650D01*
X158101546Y-125396383D01*
X158100155Y-125369035D01*
X158098819Y-125338363D01*
X158097517Y-125304121D01*
X158096231Y-125266065D01*
X158094942Y-125223949D01*
X158093630Y-125177529D01*
X158092276Y-125126558D01*
X158092033Y-125117143D01*
X158089744Y-125033433D01*
X158087289Y-124954179D01*
X158084648Y-124878999D01*
X158081798Y-124807513D01*
X158078719Y-124739340D01*
X158075391Y-124674099D01*
X158071791Y-124611411D01*
X158067899Y-124550893D01*
X158063694Y-124492165D01*
X158059154Y-124434847D01*
X158054260Y-124378558D01*
X158048989Y-124322917D01*
X158047134Y-124304343D01*
X158037650Y-124216092D01*
X158027298Y-124130744D01*
X158015962Y-124047787D01*
X158003526Y-123966707D01*
X157989873Y-123886991D01*
X157974888Y-123808125D01*
X157958454Y-123729598D01*
X157940455Y-123650894D01*
X157920775Y-123571502D01*
X157899297Y-123490908D01*
X157875905Y-123408599D01*
X157850484Y-123324062D01*
X157822917Y-123236783D01*
X157793088Y-123146249D01*
X157768594Y-123074257D01*
X157756588Y-123040067D01*
X157744639Y-123007474D01*
X157732526Y-122976018D01*
X157720029Y-122945241D01*
X157706930Y-122914683D01*
X157693009Y-122883886D01*
X157678045Y-122852390D01*
X157661820Y-122819736D01*
X157644113Y-122785466D01*
X157624705Y-122749120D01*
X157603377Y-122710239D01*
X157579908Y-122668365D01*
X157554080Y-122623038D01*
X157545776Y-122608590D01*
X157522647Y-122568393D01*
X157501782Y-122532070D01*
X157483011Y-122499315D01*
X157466166Y-122469820D01*
X157451077Y-122443279D01*
X157437575Y-122419386D01*
X157425490Y-122397832D01*
X157414653Y-122378311D01*
X157404895Y-122360516D01*
X157396047Y-122344140D01*
X157387939Y-122328876D01*
X157380402Y-122314417D01*
X157373266Y-122300457D01*
X157366363Y-122286687D01*
X157359522Y-122272802D01*
X157352575Y-122258494D01*
X157351969Y-122257239D01*
X157330412Y-122210995D01*
X157311724Y-122167371D01*
X157295635Y-122125428D01*
X157281877Y-122084223D01*
X157270181Y-122042818D01*
X157260278Y-122000270D01*
X157251899Y-121955639D01*
X157244774Y-121907985D01*
X157239408Y-121863524D01*
X157236830Y-121835419D01*
X157234800Y-121803913D01*
X157233357Y-121770417D01*
X157232537Y-121736340D01*
X157232378Y-121703094D01*
X157232918Y-121672088D01*
X157233766Y-121651857D01*
X157238321Y-121597311D01*
X157245947Y-121542141D01*
X157256439Y-121487162D01*
X157269591Y-121433189D01*
X157285199Y-121381036D01*
X157303059Y-121331518D01*
X157322964Y-121285451D01*
X157329000Y-121273034D01*
X157359345Y-121217505D01*
X157394291Y-121163181D01*
X157433730Y-121110159D01*
X157477554Y-121058534D01*
X157525655Y-121008402D01*
X157577924Y-120959859D01*
X157634254Y-120913001D01*
X157694535Y-120867924D01*
X157758661Y-120824723D01*
X157826523Y-120783495D01*
X157898013Y-120744335D01*
X157960148Y-120713415D01*
X157987518Y-120700840D01*
X158015882Y-120688757D01*
X158046127Y-120676818D01*
X158079139Y-120664676D01*
X158115803Y-120651984D01*
X158124685Y-120649005D01*
X158140763Y-120643746D01*
X158158310Y-120638189D01*
X158176510Y-120632577D01*
X158194544Y-120627149D01*
X158211595Y-120622149D01*
X158226844Y-120617818D01*
X158239475Y-120614397D01*
X158248670Y-120612129D01*
X158251331Y-120611573D01*
X158259259Y-120610086D01*
X158315878Y-120469779D01*
X158325852Y-120445107D01*
X158335313Y-120421788D01*
X158344103Y-120400205D01*
X158352066Y-120380741D01*
X158359042Y-120363781D01*
X158364875Y-120349707D01*
X158369405Y-120338904D01*
X158372476Y-120331754D01*
X158373930Y-120328641D01*
X158374007Y-120328539D01*
X158375824Y-120330144D01*
X158380594Y-120335082D01*
X158388059Y-120343071D01*
X158397961Y-120353825D01*
X158410040Y-120367061D01*
X158424038Y-120382494D01*
X158439697Y-120399841D01*
X158456757Y-120418816D01*
X158474961Y-120439137D01*
X158490501Y-120456539D01*
X158512533Y-120481236D01*
X158531591Y-120502571D01*
X158547920Y-120520798D01*
X158561761Y-120536170D01*
X158573358Y-120548940D01*
X158582954Y-120559361D01*
X158590791Y-120567686D01*
X158597113Y-120574169D01*
X158602161Y-120579062D01*
X158606180Y-120582619D01*
X158609412Y-120585092D01*
X158612099Y-120586736D01*
X158614485Y-120587802D01*
X158616813Y-120588545D01*
X158617270Y-120588671D01*
X158631361Y-120593066D01*
X158648470Y-120599307D01*
X158667383Y-120606899D01*
X158686886Y-120615342D01*
X158705765Y-120624141D01*
X158714877Y-120628663D01*
X158754792Y-120650913D01*
X158793278Y-120676441D01*
X158830972Y-120705714D01*
X158868512Y-120739199D01*
X158877875Y-120748212D01*
X158914587Y-120786275D01*
X158947833Y-120825552D01*
X158978207Y-120866870D01*
X159006304Y-120911052D01*
X159032717Y-120958924D01*
X159039998Y-120973314D01*
X159061853Y-121019980D01*
X159080940Y-121066618D01*
X159097515Y-121114071D01*
X159111834Y-121163182D01*
X159124154Y-121214792D01*
X159134731Y-121269745D01*
X159139884Y-121301609D01*
X159141886Y-121315211D01*
X159143440Y-121327093D01*
X159144603Y-121338213D01*
X159145434Y-121349528D01*
X159145989Y-121361995D01*
X159146328Y-121376570D01*
X159146507Y-121394211D01*
X159146577Y-121412371D01*
X159146524Y-121437890D01*
X159146524Y-121437890D01*
G37*
X159146524Y-121437890D02*
X159146179Y-121459607D01*
X159145460Y-121478555D01*
X159144281Y-121495765D01*
X159142559Y-121512270D01*
X159140210Y-121529101D01*
X159137150Y-121547292D01*
X159134355Y-121562352D01*
X159125604Y-121602711D01*
X159114586Y-121644606D01*
X159101875Y-121686059D01*
X159088043Y-121725093D01*
X159085010Y-121732895D01*
X159073220Y-121762503D01*
X159061469Y-121791560D01*
X159049632Y-121820332D01*
X159037586Y-121849083D01*
X159025207Y-121878081D01*
X159012372Y-121907591D01*
X158998957Y-121937879D01*
X158984838Y-121969210D01*
X158969891Y-122001851D01*
X158953992Y-122036067D01*
X158937019Y-122072124D01*
X158918847Y-122110288D01*
X158899352Y-122150824D01*
X158878411Y-122193999D01*
X158855900Y-122240078D01*
X158831695Y-122289327D01*
X158805673Y-122342013D01*
X158777710Y-122398399D01*
X158747682Y-122458754D01*
X158739917Y-122474333D01*
X158714037Y-122526341D01*
X158690226Y-122574400D01*
X158668325Y-122618855D01*
X158648175Y-122660050D01*
X158629617Y-122698331D01*
X158612491Y-122734043D01*
X158596639Y-122767531D01*
X158581901Y-122799140D01*
X158568118Y-122829214D01*
X158555131Y-122858099D01*
X158542779Y-122886140D01*
X158530905Y-122913682D01*
X158519349Y-122941069D01*
X158507952Y-122968648D01*
X158496554Y-122996761D01*
X158484996Y-123025756D01*
X158482614Y-123031784D01*
X158475659Y-123049241D01*
X158469167Y-123065202D01*
X158463373Y-123079121D01*
X158458508Y-123090450D01*
X158454805Y-123098645D01*
X158452497Y-123103158D01*
X158451925Y-123103869D01*
X158449168Y-123102563D01*
X158443749Y-123098180D01*
X158436205Y-123091270D01*
X158427076Y-123082385D01*
X158416901Y-123072075D01*
X158406218Y-123060890D01*
X158395567Y-123049380D01*
X158385485Y-123038096D01*
X158376513Y-123027588D01*
X158372938Y-123023204D01*
X158334812Y-122972211D01*
X158298621Y-122916855D01*
X158264402Y-122857225D01*
X158232190Y-122793406D01*
X158202022Y-122725487D01*
X158173934Y-122653555D01*
X158147960Y-122577696D01*
X158124138Y-122497998D01*
X158102504Y-122414549D01*
X158083093Y-122327435D01*
X158080256Y-122313467D01*
X158069073Y-122253669D01*
X158060289Y-122197688D01*
X158053878Y-122145154D01*
X158049813Y-122095698D01*
X158048069Y-122048950D01*
X158048618Y-122004542D01*
X158051433Y-121962103D01*
X158053575Y-121942375D01*
X158060837Y-121897479D01*
X158071165Y-121856093D01*
X158084525Y-121818274D01*
X158100884Y-121784079D01*
X158120208Y-121753565D01*
X158142465Y-121726788D01*
X158167621Y-121703805D01*
X158195643Y-121684673D01*
X158208814Y-121677520D01*
X158227930Y-121668869D01*
X158248008Y-121661870D01*
X158270053Y-121656258D01*
X158295072Y-121651770D01*
X158318190Y-121648778D01*
X158333896Y-121647017D01*
X158338008Y-121599847D01*
X158339286Y-121585104D01*
X158340417Y-121571916D01*
X158341333Y-121561079D01*
X158341967Y-121553388D01*
X158342253Y-121549639D01*
X158342259Y-121549510D01*
X158343687Y-121547469D01*
X158344714Y-121547773D01*
X158345749Y-121546528D01*
X158346013Y-121541914D01*
X158345621Y-121535321D01*
X158344688Y-121528137D01*
X158343328Y-121521751D01*
X158342325Y-121518810D01*
X158341285Y-121515033D01*
X158339598Y-121507280D01*
X158337423Y-121496345D01*
X158334915Y-121483022D01*
X158332232Y-121468107D01*
X158331580Y-121464381D01*
X158322318Y-121408505D01*
X158314519Y-121355420D01*
X158307952Y-121303382D01*
X158302382Y-121250652D01*
X158300884Y-121234571D01*
X158299791Y-121219191D01*
X158298945Y-121200536D01*
X158298347Y-121179533D01*
X158297997Y-121157109D01*
X158297895Y-121134192D01*
X158298042Y-121111706D01*
X158298438Y-121090581D01*
X158299083Y-121071741D01*
X158299978Y-121056114D01*
X158300810Y-121047095D01*
X158307430Y-120997156D01*
X158315582Y-120948568D01*
X158325532Y-120900046D01*
X158337550Y-120850304D01*
X158351904Y-120798055D01*
X158355004Y-120787445D01*
X158359659Y-120771948D01*
X158363326Y-120760529D01*
X158366244Y-120752586D01*
X158368654Y-120747514D01*
X158370796Y-120744714D01*
X158372422Y-120743722D01*
X158375928Y-120743066D01*
X158383672Y-120741989D01*
X158395080Y-120740557D01*
X158409578Y-120738841D01*
X158426591Y-120736906D01*
X158445544Y-120734823D01*
X158465418Y-120732704D01*
X158489194Y-120730241D01*
X158508571Y-120728316D01*
X158523957Y-120726901D01*
X158535756Y-120725968D01*
X158544377Y-120725489D01*
X158550224Y-120725436D01*
X158553706Y-120725783D01*
X158555227Y-120726500D01*
X158555272Y-120726565D01*
X158556841Y-120730819D01*
X158558377Y-120737571D01*
X158558720Y-120739605D01*
X158560111Y-120747317D01*
X158562482Y-120759009D01*
X158565668Y-120773961D01*
X158569505Y-120791451D01*
X158573829Y-120810760D01*
X158578477Y-120831165D01*
X158583284Y-120851946D01*
X158588086Y-120872383D01*
X158592720Y-120891754D01*
X158597021Y-120909339D01*
X158600336Y-120922514D01*
X158619097Y-120992888D01*
X158638185Y-121058710D01*
X158657695Y-121120260D01*
X158677720Y-121177819D01*
X158698354Y-121231666D01*
X158719691Y-121282082D01*
X158723339Y-121290210D01*
X158746964Y-121338672D01*
X158774213Y-121388023D01*
X158804337Y-121437083D01*
X158836583Y-121484673D01*
X158870203Y-121529616D01*
X158895061Y-121559933D01*
X158905595Y-121572045D01*
X158916849Y-121584616D01*
X158928347Y-121597155D01*
X158939616Y-121609170D01*
X158950182Y-121620171D01*
X158959571Y-121629665D01*
X158967309Y-121637161D01*
X158972923Y-121642168D01*
X158975938Y-121644194D01*
X158976262Y-121644151D01*
X158978009Y-121640610D01*
X158980668Y-121633091D01*
X158984027Y-121622321D01*
X158987871Y-121609025D01*
X158991985Y-121593931D01*
X158996155Y-121577765D01*
X158997875Y-121570819D01*
X159007755Y-121522885D01*
X159013934Y-121474747D01*
X159016400Y-121425937D01*
X159015140Y-121375987D01*
X159010143Y-121324427D01*
X159001395Y-121270790D01*
X158988885Y-121214605D01*
X158988551Y-121213269D01*
X158972272Y-121156150D01*
X158952779Y-121101384D01*
X158930229Y-121049173D01*
X158904780Y-120999722D01*
X158876589Y-120953232D01*
X158845814Y-120909907D01*
X158812612Y-120869950D01*
X158777142Y-120833562D01*
X158739560Y-120800948D01*
X158700023Y-120772311D01*
X158658691Y-120747852D01*
X158615719Y-120727775D01*
X158609704Y-120725373D01*
X158590352Y-120717804D01*
X158493798Y-120616354D01*
X158476154Y-120597831D01*
X158459503Y-120580380D01*
X158444143Y-120564311D01*
X158430373Y-120549936D01*
X158418492Y-120537566D01*
X158408798Y-120527512D01*
X158401591Y-120520085D01*
X158397168Y-120515596D01*
X158395826Y-120514324D01*
X158394596Y-120516351D01*
X158391599Y-120522387D01*
X158387029Y-120532016D01*
X158381076Y-120544824D01*
X158373931Y-120560395D01*
X158365787Y-120578314D01*
X158356835Y-120598164D01*
X158347265Y-120619531D01*
X158344987Y-120624640D01*
X158295564Y-120735536D01*
X158254272Y-120747083D01*
X158235100Y-120752641D01*
X158212941Y-120759390D01*
X158189081Y-120766912D01*
X158164805Y-120774791D01*
X158141398Y-120782611D01*
X158120145Y-120789953D01*
X158103081Y-120796122D01*
X158093696Y-120799858D01*
X158087885Y-120802957D01*
X158084583Y-120806150D01*
X158082759Y-120810055D01*
X158081960Y-120815062D01*
X158081317Y-120824196D01*
X158080828Y-120836750D01*
X158080493Y-120852014D01*
X158080310Y-120869280D01*
X158080276Y-120887842D01*
X158080392Y-120906989D01*
X158080655Y-120926014D01*
X158081063Y-120944209D01*
X158081616Y-120960866D01*
X158082311Y-120975276D01*
X158083137Y-120986619D01*
X158095226Y-121098351D01*
X158104397Y-121166838D01*
X158108811Y-121196132D01*
X158113132Y-121221379D01*
X158117572Y-121243360D01*
X158122347Y-121262857D01*
X158127669Y-121280651D01*
X158133754Y-121297523D01*
X158140816Y-121314255D01*
X158149067Y-121331628D01*
X158150127Y-121333752D01*
X158171748Y-121372076D01*
X158197693Y-121409659D01*
X158227447Y-121445869D01*
X158260498Y-121480073D01*
X158291120Y-121507363D01*
X158306365Y-121520019D01*
X158298013Y-121520019D01*
X158287812Y-121520712D01*
X158274200Y-121522625D01*
X158258376Y-121525512D01*
X158241538Y-121529127D01*
X158224886Y-121533222D01*
X158209619Y-121537550D01*
X158203827Y-121539405D01*
X158163096Y-121555445D01*
X158125284Y-121575322D01*
X158090442Y-121598978D01*
X158058626Y-121626350D01*
X158029889Y-121657380D01*
X158004283Y-121692006D01*
X157981863Y-121730168D01*
X157962681Y-121771805D01*
X157946791Y-121816857D01*
X157941077Y-121836914D01*
X157932661Y-121872741D01*
X157926279Y-121909615D01*
X157921834Y-121948407D01*
X157919225Y-121989988D01*
X157918354Y-122035228D01*
X157918353Y-122036486D01*
X157918771Y-122071578D01*
X157920071Y-122105663D01*
X157922342Y-122139533D01*
X157925674Y-122173982D01*
X157930155Y-122209803D01*
X157935874Y-122247790D01*
X157942920Y-122288735D01*
X157951382Y-122333433D01*
X157951975Y-122336448D01*
X157970066Y-122421094D01*
X157990385Y-122503037D01*
X158012858Y-122582112D01*
X158037409Y-122658153D01*
X158063964Y-122730995D01*
X158092447Y-122800474D01*
X158122784Y-122866424D01*
X158154899Y-122928680D01*
X158188718Y-122987077D01*
X158224166Y-123041450D01*
X158261167Y-123091633D01*
X158299648Y-123137462D01*
X158330368Y-123169810D01*
X158341786Y-123180875D01*
X158353971Y-123192189D01*
X158365689Y-123202638D01*
X158375706Y-123211104D01*
X158378531Y-123213352D01*
X158387406Y-123220273D01*
X158395246Y-123226408D01*
X158401011Y-123230943D01*
X158403225Y-123232705D01*
X158405251Y-123234587D01*
X158406314Y-123236870D01*
X158406409Y-123240577D01*
X158405530Y-123246727D01*
X158403671Y-123256345D01*
X158403071Y-123259314D01*
X158391114Y-123330473D01*
X158383949Y-123402069D01*
X158381568Y-123474224D01*
X158383965Y-123547057D01*
X158384738Y-123558067D01*
X158389585Y-123615880D01*
X158395779Y-123678159D01*
X158403290Y-123744730D01*
X158412088Y-123815420D01*
X158422142Y-123890056D01*
X158433424Y-123968464D01*
X158445903Y-124050473D01*
X158459550Y-124135908D01*
X158474333Y-124224598D01*
X158490224Y-124316368D01*
X158507192Y-124411045D01*
X158525208Y-124508458D01*
X158544242Y-124608432D01*
X158564263Y-124710795D01*
X158585241Y-124815373D01*
X158607148Y-124921995D01*
X158629952Y-125030485D01*
X158653624Y-125140672D01*
X158676577Y-125245352D01*
X158683334Y-125275862D01*
X158689017Y-125302069D01*
X158693534Y-125324406D01*
X158696792Y-125343307D01*
X158698700Y-125359208D01*
X158699165Y-125372541D01*
X158698095Y-125383740D01*
X158695397Y-125393240D01*
X158690980Y-125401475D01*
X158684751Y-125408879D01*
X158676618Y-125415886D01*
X158666489Y-125422929D01*
X158654271Y-125430443D01*
X158639872Y-125438862D01*
X158634826Y-125441797D01*
X158589722Y-125467352D01*
X158544979Y-125491306D01*
X158501167Y-125513386D01*
X158458858Y-125533323D01*
X158418621Y-125550844D01*
X158381027Y-125565680D01*
X158353982Y-125575187D01*
X158318042Y-125585789D01*
X158284502Y-125593137D01*
X158253519Y-125597251D01*
X158225250Y-125598150D01*
X158199850Y-125595853D01*
X158177477Y-125590378D01*
X158158287Y-125581744D01*
X158142437Y-125569969D01*
X158130083Y-125555074D01*
X158125957Y-125547857D01*
X158122694Y-125540908D01*
X158119698Y-125533331D01*
X158116949Y-125524879D01*
X158114428Y-125515307D01*
X158112116Y-125504372D01*
X158109993Y-125491826D01*
X158108040Y-125477427D01*
X158106239Y-125460927D01*
X158104569Y-125442084D01*
X158103011Y-125420650D01*
X158101546Y-125396383D01*
X158100155Y-125369035D01*
X158098819Y-125338363D01*
X158097517Y-125304121D01*
X158096231Y-125266065D01*
X158094942Y-125223949D01*
X158093630Y-125177529D01*
X158092276Y-125126558D01*
X158092033Y-125117143D01*
X158089744Y-125033433D01*
X158087289Y-124954179D01*
X158084648Y-124878999D01*
X158081798Y-124807513D01*
X158078719Y-124739340D01*
X158075391Y-124674099D01*
X158071791Y-124611411D01*
X158067899Y-124550893D01*
X158063694Y-124492165D01*
X158059154Y-124434847D01*
X158054260Y-124378558D01*
X158048989Y-124322917D01*
X158047134Y-124304343D01*
X158037650Y-124216092D01*
X158027298Y-124130744D01*
X158015962Y-124047787D01*
X158003526Y-123966707D01*
X157989873Y-123886991D01*
X157974888Y-123808125D01*
X157958454Y-123729598D01*
X157940455Y-123650894D01*
X157920775Y-123571502D01*
X157899297Y-123490908D01*
X157875905Y-123408599D01*
X157850484Y-123324062D01*
X157822917Y-123236783D01*
X157793088Y-123146249D01*
X157768594Y-123074257D01*
X157756588Y-123040067D01*
X157744639Y-123007474D01*
X157732526Y-122976018D01*
X157720029Y-122945241D01*
X157706930Y-122914683D01*
X157693009Y-122883886D01*
X157678045Y-122852390D01*
X157661820Y-122819736D01*
X157644113Y-122785466D01*
X157624705Y-122749120D01*
X157603377Y-122710239D01*
X157579908Y-122668365D01*
X157554080Y-122623038D01*
X157545776Y-122608590D01*
X157522647Y-122568393D01*
X157501782Y-122532070D01*
X157483011Y-122499315D01*
X157466166Y-122469820D01*
X157451077Y-122443279D01*
X157437575Y-122419386D01*
X157425490Y-122397832D01*
X157414653Y-122378311D01*
X157404895Y-122360516D01*
X157396047Y-122344140D01*
X157387939Y-122328876D01*
X157380402Y-122314417D01*
X157373266Y-122300457D01*
X157366363Y-122286687D01*
X157359522Y-122272802D01*
X157352575Y-122258494D01*
X157351969Y-122257239D01*
X157330412Y-122210995D01*
X157311724Y-122167371D01*
X157295635Y-122125428D01*
X157281877Y-122084223D01*
X157270181Y-122042818D01*
X157260278Y-122000270D01*
X157251899Y-121955639D01*
X157244774Y-121907985D01*
X157239408Y-121863524D01*
X157236830Y-121835419D01*
X157234800Y-121803913D01*
X157233357Y-121770417D01*
X157232537Y-121736340D01*
X157232378Y-121703094D01*
X157232918Y-121672088D01*
X157233766Y-121651857D01*
X157238321Y-121597311D01*
X157245947Y-121542141D01*
X157256439Y-121487162D01*
X157269591Y-121433189D01*
X157285199Y-121381036D01*
X157303059Y-121331518D01*
X157322964Y-121285451D01*
X157329000Y-121273034D01*
X157359345Y-121217505D01*
X157394291Y-121163181D01*
X157433730Y-121110159D01*
X157477554Y-121058534D01*
X157525655Y-121008402D01*
X157577924Y-120959859D01*
X157634254Y-120913001D01*
X157694535Y-120867924D01*
X157758661Y-120824723D01*
X157826523Y-120783495D01*
X157898013Y-120744335D01*
X157960148Y-120713415D01*
X157987518Y-120700840D01*
X158015882Y-120688757D01*
X158046127Y-120676818D01*
X158079139Y-120664676D01*
X158115803Y-120651984D01*
X158124685Y-120649005D01*
X158140763Y-120643746D01*
X158158310Y-120638189D01*
X158176510Y-120632577D01*
X158194544Y-120627149D01*
X158211595Y-120622149D01*
X158226844Y-120617818D01*
X158239475Y-120614397D01*
X158248670Y-120612129D01*
X158251331Y-120611573D01*
X158259259Y-120610086D01*
X158315878Y-120469779D01*
X158325852Y-120445107D01*
X158335313Y-120421788D01*
X158344103Y-120400205D01*
X158352066Y-120380741D01*
X158359042Y-120363781D01*
X158364875Y-120349707D01*
X158369405Y-120338904D01*
X158372476Y-120331754D01*
X158373930Y-120328641D01*
X158374007Y-120328539D01*
X158375824Y-120330144D01*
X158380594Y-120335082D01*
X158388059Y-120343071D01*
X158397961Y-120353825D01*
X158410040Y-120367061D01*
X158424038Y-120382494D01*
X158439697Y-120399841D01*
X158456757Y-120418816D01*
X158474961Y-120439137D01*
X158490501Y-120456539D01*
X158512533Y-120481236D01*
X158531591Y-120502571D01*
X158547920Y-120520798D01*
X158561761Y-120536170D01*
X158573358Y-120548940D01*
X158582954Y-120559361D01*
X158590791Y-120567686D01*
X158597113Y-120574169D01*
X158602161Y-120579062D01*
X158606180Y-120582619D01*
X158609412Y-120585092D01*
X158612099Y-120586736D01*
X158614485Y-120587802D01*
X158616813Y-120588545D01*
X158617270Y-120588671D01*
X158631361Y-120593066D01*
X158648470Y-120599307D01*
X158667383Y-120606899D01*
X158686886Y-120615342D01*
X158705765Y-120624141D01*
X158714877Y-120628663D01*
X158754792Y-120650913D01*
X158793278Y-120676441D01*
X158830972Y-120705714D01*
X158868512Y-120739199D01*
X158877875Y-120748212D01*
X158914587Y-120786275D01*
X158947833Y-120825552D01*
X158978207Y-120866870D01*
X159006304Y-120911052D01*
X159032717Y-120958924D01*
X159039998Y-120973314D01*
X159061853Y-121019980D01*
X159080940Y-121066618D01*
X159097515Y-121114071D01*
X159111834Y-121163182D01*
X159124154Y-121214792D01*
X159134731Y-121269745D01*
X159139884Y-121301609D01*
X159141886Y-121315211D01*
X159143440Y-121327093D01*
X159144603Y-121338213D01*
X159145434Y-121349528D01*
X159145989Y-121361995D01*
X159146328Y-121376570D01*
X159146507Y-121394211D01*
X159146577Y-121412371D01*
X159146524Y-121437890D01*
D12*
X170130000Y-100820000D03*
D13*
X170130000Y-103360000D03*
X170130000Y-105900000D03*
D14*
X170130000Y-108440000D03*
D13*
X170130000Y-110980000D03*
D15*
X157760000Y-109800000D03*
X161540000Y-109800000D03*
X157760000Y-109400000D03*
X161540000Y-109400000D03*
X157760000Y-109000000D03*
X161540000Y-109000000D03*
X157760000Y-108600000D03*
X161540000Y-108600000D03*
X157760000Y-108200000D03*
X161540000Y-108200000D03*
X157760000Y-107800000D03*
X161540000Y-107800000D03*
X157760000Y-107400000D03*
X161540000Y-107400000D03*
X157760000Y-107000000D03*
X161540000Y-107000000D03*
X157760000Y-106600000D03*
X161540000Y-106600000D03*
X157760000Y-106200000D03*
X161540000Y-106200000D03*
D16*
X160280000Y-102690000D03*
X158080000Y-102690000D03*
X158080000Y-100710000D03*
X160280000Y-100710000D03*
D17*
X158250000Y-95000000D03*
D18*
X158250000Y-92460000D03*
D17*
X157990000Y-116050000D03*
D18*
X157990000Y-118590000D03*
D19*
X156797653Y-106691088D03*
X156850000Y-109790000D03*
X162800000Y-107410000D03*
X163590000Y-107720000D03*
X163720000Y-108410000D03*
X162950000Y-109760000D03*
X163660000Y-109870000D03*
X162760000Y-106450000D03*
X163310000Y-106940000D03*
X163100000Y-108940000D03*
X162460000Y-110260000D03*
X162580000Y-105700000D03*
X160280000Y-103960000D03*
D20*
X156850000Y-109790000D02*
X156850000Y-110800000D01*
X156850000Y-110800000D02*
X157020000Y-110970000D01*
X157020000Y-110970000D02*
X158030000Y-110970000D01*
X165870000Y-111420000D02*
X166310000Y-110980000D01*
X158030000Y-110970000D02*
X158480000Y-111420000D01*
X158480000Y-111420000D02*
X165870000Y-111420000D01*
X166310000Y-110980000D02*
X170130000Y-110980000D01*
X156850000Y-106743435D02*
X156797653Y-106691088D01*
X156850000Y-107000000D02*
X156850000Y-106743435D01*
D21*
X156888741Y-106600000D02*
X156797653Y-106691088D01*
X157760000Y-106600000D02*
X156888741Y-106600000D01*
D20*
X156850000Y-109790000D02*
X156850000Y-109390000D01*
X156850000Y-109390000D02*
X156850000Y-109000000D01*
D21*
X157760000Y-109400000D02*
X156860000Y-109400000D01*
X156860000Y-109400000D02*
X156850000Y-109390000D01*
X157257600Y-109000000D02*
X156850000Y-109000000D01*
D20*
X156850000Y-109000000D02*
X156850000Y-108610000D01*
D21*
X157760000Y-109000000D02*
X157257600Y-109000000D01*
D20*
X156850000Y-108610000D02*
X156850000Y-108200000D01*
D21*
X156860000Y-108600000D02*
X156850000Y-108610000D01*
X157760000Y-108600000D02*
X156860000Y-108600000D01*
X157760000Y-108200000D02*
X157257600Y-108200000D01*
D20*
X156850000Y-108200000D02*
X156850000Y-107770000D01*
D21*
X157257600Y-108200000D02*
X156850000Y-108200000D01*
D20*
X156850000Y-107770000D02*
X156850000Y-107370000D01*
D21*
X157760000Y-107800000D02*
X156880000Y-107800000D01*
X156880000Y-107800000D02*
X156850000Y-107770000D01*
X156880000Y-107400000D02*
X156850000Y-107370000D01*
D20*
X156850000Y-107370000D02*
X156850000Y-107000000D01*
D21*
X157760000Y-107400000D02*
X156880000Y-107400000D01*
X157760000Y-107000000D02*
X157510000Y-107000000D01*
X157510000Y-107000000D02*
X156850000Y-107000000D01*
X157760000Y-109800000D02*
X156860000Y-109800000D01*
X156860000Y-109800000D02*
X156850000Y-109790000D01*
X161540000Y-106200000D02*
X162270000Y-106200000D01*
X162270000Y-106200000D02*
X162580000Y-105890000D01*
X162580000Y-105890000D02*
X162580000Y-105700000D01*
X161540000Y-109800000D02*
X162240000Y-109800000D01*
X162240000Y-109800000D02*
X162460000Y-110020000D01*
X162460000Y-110020000D02*
X162460000Y-110260000D01*
X162790000Y-107400000D02*
X162800000Y-107410000D01*
X161540000Y-107400000D02*
X162790000Y-107400000D01*
X161540000Y-107800000D02*
X163510000Y-107800000D01*
X163510000Y-107800000D02*
X163590000Y-107720000D01*
X163510000Y-108200000D02*
X163720000Y-108410000D01*
X161540000Y-108200000D02*
X163510000Y-108200000D01*
X162607101Y-109417101D02*
X162950000Y-109760000D01*
X162590000Y-109400000D02*
X162607101Y-109417101D01*
X161540000Y-109400000D02*
X162590000Y-109400000D01*
X163317101Y-109527101D02*
X163660000Y-109870000D01*
X162790000Y-109000000D02*
X163317101Y-109527101D01*
X161540000Y-109000000D02*
X162790000Y-109000000D01*
X161540000Y-106600000D02*
X162610000Y-106600000D01*
X162610000Y-106600000D02*
X162760000Y-106450000D01*
X163250000Y-107000000D02*
X163310000Y-106940000D01*
X161540000Y-107000000D02*
X163250000Y-107000000D01*
X162760000Y-108600000D02*
X163100000Y-108940000D01*
X161540000Y-108600000D02*
X162760000Y-108600000D01*
X160280000Y-102690000D02*
X160280000Y-103960000D01*
X160310000Y-102720000D02*
X160280000Y-102690000D01*
X158080000Y-102690000D02*
X158080000Y-104270000D01*
X158080000Y-104270000D02*
X156620000Y-105730000D01*
X156620000Y-105730000D02*
X157090000Y-106200000D01*
X157090000Y-106200000D02*
X157760000Y-106200000D01*
X158080000Y-100710000D02*
X158080000Y-102690000D01*
D22*
G36*
X156728395Y-111673996D02*
X157020000Y-111732000D01*
X157714370Y-111732000D01*
X157941185Y-111958815D01*
X158188395Y-112123996D01*
X158480000Y-112182000D01*
X165870000Y-112182000D01*
X166161605Y-112123996D01*
X166408815Y-111958815D01*
X166625630Y-111742000D01*
X168795881Y-111742000D01*
X168837262Y-111842149D01*
X169265596Y-112271231D01*
X169825528Y-112503735D01*
X170431812Y-112504264D01*
X170992149Y-112272738D01*
X171167000Y-112098192D01*
X171167000Y-115942580D01*
X171124706Y-116155208D01*
X171036788Y-116286787D01*
X170905208Y-116374706D01*
X170692580Y-116417000D01*
X168750000Y-116417000D01*
X168693684Y-116428202D01*
X168636262Y-116428202D01*
X167583883Y-116637533D01*
X167373723Y-116724584D01*
X166481559Y-117320709D01*
X166320709Y-117481559D01*
X165724584Y-118373724D01*
X165637533Y-118583884D01*
X165428202Y-119636262D01*
X165428202Y-119693684D01*
X165417000Y-119750000D01*
X165417000Y-123192579D01*
X165241495Y-124074905D01*
X164774225Y-124774223D01*
X164074904Y-125241495D01*
X163192578Y-125417000D01*
X159209399Y-125417000D01*
X159206444Y-125387864D01*
X159211853Y-125354660D01*
X159211388Y-125341328D01*
X159207584Y-125325169D01*
X159207648Y-125324372D01*
X159206718Y-125321493D01*
X159206360Y-125319969D01*
X159208046Y-125298090D01*
X159206138Y-125282189D01*
X159201995Y-125269507D01*
X159202337Y-125256166D01*
X159199079Y-125237264D01*
X159196380Y-125230244D01*
X159196356Y-125222725D01*
X159191839Y-125200388D01*
X159190428Y-125197012D01*
X159190365Y-125193351D01*
X159184682Y-125167145D01*
X159184223Y-125166088D01*
X159184198Y-125164936D01*
X159177496Y-125134676D01*
X159154972Y-125031953D01*
X159131762Y-124923913D01*
X159109407Y-124817561D01*
X159087966Y-124713206D01*
X159067511Y-124611234D01*
X159047975Y-124511356D01*
X159029384Y-124413711D01*
X159011893Y-124319134D01*
X158995442Y-124227339D01*
X158980081Y-124138631D01*
X158965855Y-124053278D01*
X158952779Y-123971422D01*
X158940907Y-123893402D01*
X158930236Y-123819236D01*
X158920836Y-123749461D01*
X158912734Y-123684358D01*
X158908594Y-123647664D01*
X161241652Y-123647664D01*
X161546708Y-124385955D01*
X162111074Y-124951307D01*
X162848832Y-125257651D01*
X163647664Y-125258348D01*
X164385955Y-124953292D01*
X164951307Y-124388926D01*
X165257651Y-123651168D01*
X165258348Y-122852336D01*
X164953292Y-122114045D01*
X164388926Y-121548693D01*
X163651168Y-121242349D01*
X162852336Y-121241652D01*
X162114045Y-121546708D01*
X161548693Y-122111074D01*
X161242349Y-122848832D01*
X161241652Y-123647664D01*
X158908594Y-123647664D01*
X158905919Y-123623958D01*
X158900461Y-123569068D01*
X158896355Y-123520101D01*
X158894846Y-123474254D01*
X158896105Y-123436103D01*
X158899858Y-123398605D01*
X158907767Y-123351538D01*
X158909208Y-123344080D01*
X158909169Y-123336822D01*
X158909234Y-123336739D01*
X158911542Y-123332226D01*
X158913083Y-123326792D01*
X158915539Y-123323485D01*
X158917146Y-123317086D01*
X158922295Y-123309885D01*
X158925998Y-123301690D01*
X158927107Y-123296913D01*
X158929883Y-123292872D01*
X158934748Y-123281543D01*
X158935354Y-123278690D01*
X158936979Y-123276267D01*
X158942773Y-123262348D01*
X158943192Y-123260261D01*
X158944363Y-123258484D01*
X158950855Y-123242523D01*
X158951209Y-123240682D01*
X158952229Y-123239110D01*
X158959184Y-123221653D01*
X158959318Y-123220929D01*
X158959715Y-123220313D01*
X158961729Y-123215215D01*
X158972541Y-123188091D01*
X158982695Y-123163047D01*
X158992739Y-123138742D01*
X159002782Y-123114942D01*
X159013061Y-123091097D01*
X159023786Y-123066750D01*
X159035244Y-123041265D01*
X159047595Y-123014316D01*
X159060930Y-122985716D01*
X159075615Y-122954694D01*
X159091785Y-122920976D01*
X159109360Y-122884723D01*
X159128816Y-122844946D01*
X159150263Y-122801414D01*
X159173574Y-122754365D01*
X159199045Y-122703179D01*
X159199047Y-122703176D01*
X159206812Y-122687597D01*
X159206862Y-122687412D01*
X159206977Y-122687264D01*
X159237005Y-122626909D01*
X159237093Y-122626587D01*
X159237299Y-122626319D01*
X159265262Y-122569933D01*
X159265373Y-122569524D01*
X159265630Y-122569189D01*
X159291652Y-122516503D01*
X159291785Y-122516009D01*
X159292094Y-122515605D01*
X159316299Y-122466356D01*
X159316460Y-122465753D01*
X159316836Y-122465259D01*
X159339347Y-122419180D01*
X159339536Y-122418465D01*
X159339983Y-122417874D01*
X159360924Y-122374699D01*
X159361143Y-122373859D01*
X159361665Y-122373165D01*
X159381160Y-122332629D01*
X159381413Y-122331646D01*
X159382021Y-122330831D01*
X159400193Y-122292666D01*
X159400477Y-122291543D01*
X159401166Y-122290611D01*
X159418139Y-122254554D01*
X159418452Y-122253293D01*
X159419220Y-122252243D01*
X159435119Y-122218027D01*
X159435463Y-122216614D01*
X159436314Y-122215436D01*
X159451261Y-122182794D01*
X159451625Y-122181261D01*
X159452542Y-122179976D01*
X159466661Y-122148645D01*
X159467040Y-122147004D01*
X159468008Y-122145629D01*
X159481423Y-122115341D01*
X159481806Y-122113635D01*
X159482802Y-122112199D01*
X159495637Y-122082689D01*
X159496013Y-122080957D01*
X159497015Y-122079492D01*
X159509394Y-122050494D01*
X159509755Y-122048776D01*
X159510735Y-122047322D01*
X159522782Y-122018570D01*
X159523118Y-122016918D01*
X159524052Y-122015512D01*
X159535889Y-121986739D01*
X159536191Y-121985202D01*
X159537051Y-121983891D01*
X159548801Y-121954834D01*
X159549062Y-121953461D01*
X159549823Y-121952288D01*
X159561613Y-121922680D01*
X159562002Y-121920576D01*
X159563151Y-121918771D01*
X159566184Y-121910969D01*
X159567551Y-121903211D01*
X159571582Y-121896439D01*
X159585414Y-121857405D01*
X159587024Y-121846316D01*
X159592335Y-121836452D01*
X159605046Y-121794999D01*
X159606108Y-121784538D01*
X159610716Y-121775084D01*
X159621734Y-121733188D01*
X159622425Y-121721842D01*
X159626954Y-121711418D01*
X159635705Y-121671059D01*
X159635839Y-121663232D01*
X159638742Y-121655962D01*
X159641537Y-121640902D01*
X159641480Y-121636502D01*
X159643042Y-121632391D01*
X159646103Y-121614199D01*
X159645886Y-121606903D01*
X159648286Y-121600010D01*
X159650635Y-121583179D01*
X159650113Y-121574146D01*
X159652790Y-121565503D01*
X159654512Y-121548998D01*
X159653657Y-121539769D01*
X159656081Y-121530827D01*
X159657260Y-121513617D01*
X159656246Y-121505737D01*
X159658091Y-121498007D01*
X159658810Y-121479059D01*
X159657902Y-121473379D01*
X159659114Y-121467756D01*
X159659459Y-121446038D01*
X159658812Y-121442491D01*
X159659523Y-121438955D01*
X159659576Y-121413436D01*
X159659277Y-121411914D01*
X159659573Y-121410393D01*
X159659503Y-121392234D01*
X159659176Y-121390624D01*
X159659481Y-121389006D01*
X159659302Y-121371365D01*
X159658600Y-121368012D01*
X159659189Y-121364641D01*
X159658850Y-121350066D01*
X159657643Y-121344657D01*
X159658481Y-121339180D01*
X159657926Y-121326713D01*
X159656133Y-121319414D01*
X159657056Y-121311953D01*
X159656225Y-121300638D01*
X159654079Y-121292873D01*
X159654820Y-121284852D01*
X159653657Y-121273731D01*
X159651661Y-121267292D01*
X159652108Y-121260566D01*
X159650554Y-121248684D01*
X159649207Y-121244705D01*
X159649418Y-121240511D01*
X159647416Y-121226908D01*
X159646171Y-121223417D01*
X159646305Y-121219711D01*
X159641152Y-121187847D01*
X159638437Y-121180560D01*
X159638485Y-121172786D01*
X159627908Y-121117833D01*
X159623571Y-121107176D01*
X159623134Y-121095679D01*
X159610814Y-121044069D01*
X159605449Y-121032392D01*
X159604328Y-121019589D01*
X159590009Y-120970478D01*
X159583718Y-120958395D01*
X159581821Y-120944906D01*
X159565246Y-120897453D01*
X159558322Y-120885701D01*
X159555718Y-120872312D01*
X159536631Y-120825673D01*
X159529514Y-120814923D01*
X159526429Y-120802406D01*
X159504574Y-120755740D01*
X159499872Y-120749350D01*
X159497740Y-120741707D01*
X159490459Y-120727318D01*
X159484709Y-120719982D01*
X159481885Y-120711099D01*
X159455472Y-120663227D01*
X159445040Y-120650855D01*
X159439186Y-120635766D01*
X159411089Y-120591584D01*
X159398971Y-120578905D01*
X159391539Y-120563018D01*
X159361165Y-120521700D01*
X159348022Y-120509687D01*
X159339393Y-120494117D01*
X159306147Y-120454839D01*
X159292944Y-120444336D01*
X159283827Y-120430142D01*
X159247114Y-120392078D01*
X159239172Y-120386561D01*
X159233647Y-120378624D01*
X159224284Y-120369611D01*
X159215951Y-120364270D01*
X159209992Y-120356367D01*
X159172452Y-120322882D01*
X159157210Y-120313910D01*
X159145625Y-120300544D01*
X159107931Y-120271271D01*
X159090597Y-120262597D01*
X159076844Y-120248937D01*
X159038358Y-120223409D01*
X159019826Y-120215806D01*
X159004570Y-120202828D01*
X158964655Y-120180578D01*
X158952794Y-120176750D01*
X158942925Y-120169138D01*
X158933813Y-120164616D01*
X158927639Y-120162945D01*
X158922479Y-120159163D01*
X158905726Y-120151355D01*
X158895120Y-120139481D01*
X158895118Y-120139479D01*
X158873312Y-120115036D01*
X158873207Y-120114957D01*
X158873140Y-120114843D01*
X158857600Y-120097440D01*
X158857271Y-120097192D01*
X158857063Y-120096841D01*
X158838860Y-120076520D01*
X158838482Y-120076236D01*
X158838242Y-120075832D01*
X158821182Y-120056857D01*
X158820765Y-120056545D01*
X158820497Y-120056096D01*
X158818053Y-120053388D01*
X159096549Y-119997992D01*
X159590970Y-119667631D01*
X159921331Y-119173210D01*
X160037339Y-118590000D01*
X159921331Y-118006790D01*
X159695180Y-117668331D01*
X159849698Y-117604327D01*
X160028327Y-117425699D01*
X160125000Y-117192310D01*
X160125000Y-116335750D01*
X159966250Y-116177000D01*
X158117000Y-116177000D01*
X158117000Y-116197000D01*
X157863000Y-116197000D01*
X157863000Y-116177000D01*
X157843000Y-116177000D01*
X157843000Y-115923000D01*
X157863000Y-115923000D01*
X157863000Y-114557750D01*
X158117000Y-114557750D01*
X158117000Y-115923000D01*
X159966250Y-115923000D01*
X160125000Y-115764250D01*
X160125000Y-114907690D01*
X160028327Y-114674301D01*
X159849698Y-114495673D01*
X159616309Y-114399000D01*
X158275750Y-114399000D01*
X158117000Y-114557750D01*
X157863000Y-114557750D01*
X157704250Y-114399000D01*
X156583000Y-114399000D01*
X156583000Y-111576846D01*
X156728395Y-111673996D01*
X156728395Y-111673996D01*
G37*
X156728395Y-111673996D02*
X157020000Y-111732000D01*
X157714370Y-111732000D01*
X157941185Y-111958815D01*
X158188395Y-112123996D01*
X158480000Y-112182000D01*
X165870000Y-112182000D01*
X166161605Y-112123996D01*
X166408815Y-111958815D01*
X166625630Y-111742000D01*
X168795881Y-111742000D01*
X168837262Y-111842149D01*
X169265596Y-112271231D01*
X169825528Y-112503735D01*
X170431812Y-112504264D01*
X170992149Y-112272738D01*
X171167000Y-112098192D01*
X171167000Y-115942580D01*
X171124706Y-116155208D01*
X171036788Y-116286787D01*
X170905208Y-116374706D01*
X170692580Y-116417000D01*
X168750000Y-116417000D01*
X168693684Y-116428202D01*
X168636262Y-116428202D01*
X167583883Y-116637533D01*
X167373723Y-116724584D01*
X166481559Y-117320709D01*
X166320709Y-117481559D01*
X165724584Y-118373724D01*
X165637533Y-118583884D01*
X165428202Y-119636262D01*
X165428202Y-119693684D01*
X165417000Y-119750000D01*
X165417000Y-123192579D01*
X165241495Y-124074905D01*
X164774225Y-124774223D01*
X164074904Y-125241495D01*
X163192578Y-125417000D01*
X159209399Y-125417000D01*
X159206444Y-125387864D01*
X159211853Y-125354660D01*
X159211388Y-125341328D01*
X159207584Y-125325169D01*
X159207648Y-125324372D01*
X159206718Y-125321493D01*
X159206360Y-125319969D01*
X159208046Y-125298090D01*
X159206138Y-125282189D01*
X159201995Y-125269507D01*
X159202337Y-125256166D01*
X159199079Y-125237264D01*
X159196380Y-125230244D01*
X159196356Y-125222725D01*
X159191839Y-125200388D01*
X159190428Y-125197012D01*
X159190365Y-125193351D01*
X159184682Y-125167145D01*
X159184223Y-125166088D01*
X159184198Y-125164936D01*
X159177496Y-125134676D01*
X159154972Y-125031953D01*
X159131762Y-124923913D01*
X159109407Y-124817561D01*
X159087966Y-124713206D01*
X159067511Y-124611234D01*
X159047975Y-124511356D01*
X159029384Y-124413711D01*
X159011893Y-124319134D01*
X158995442Y-124227339D01*
X158980081Y-124138631D01*
X158965855Y-124053278D01*
X158952779Y-123971422D01*
X158940907Y-123893402D01*
X158930236Y-123819236D01*
X158920836Y-123749461D01*
X158912734Y-123684358D01*
X158908594Y-123647664D01*
X161241652Y-123647664D01*
X161546708Y-124385955D01*
X162111074Y-124951307D01*
X162848832Y-125257651D01*
X163647664Y-125258348D01*
X164385955Y-124953292D01*
X164951307Y-124388926D01*
X165257651Y-123651168D01*
X165258348Y-122852336D01*
X164953292Y-122114045D01*
X164388926Y-121548693D01*
X163651168Y-121242349D01*
X162852336Y-121241652D01*
X162114045Y-121546708D01*
X161548693Y-122111074D01*
X161242349Y-122848832D01*
X161241652Y-123647664D01*
X158908594Y-123647664D01*
X158905919Y-123623958D01*
X158900461Y-123569068D01*
X158896355Y-123520101D01*
X158894846Y-123474254D01*
X158896105Y-123436103D01*
X158899858Y-123398605D01*
X158907767Y-123351538D01*
X158909208Y-123344080D01*
X158909169Y-123336822D01*
X158909234Y-123336739D01*
X158911542Y-123332226D01*
X158913083Y-123326792D01*
X158915539Y-123323485D01*
X158917146Y-123317086D01*
X158922295Y-123309885D01*
X158925998Y-123301690D01*
X158927107Y-123296913D01*
X158929883Y-123292872D01*
X158934748Y-123281543D01*
X158935354Y-123278690D01*
X158936979Y-123276267D01*
X158942773Y-123262348D01*
X158943192Y-123260261D01*
X158944363Y-123258484D01*
X158950855Y-123242523D01*
X158951209Y-123240682D01*
X158952229Y-123239110D01*
X158959184Y-123221653D01*
X158959318Y-123220929D01*
X158959715Y-123220313D01*
X158961729Y-123215215D01*
X158972541Y-123188091D01*
X158982695Y-123163047D01*
X158992739Y-123138742D01*
X159002782Y-123114942D01*
X159013061Y-123091097D01*
X159023786Y-123066750D01*
X159035244Y-123041265D01*
X159047595Y-123014316D01*
X159060930Y-122985716D01*
X159075615Y-122954694D01*
X159091785Y-122920976D01*
X159109360Y-122884723D01*
X159128816Y-122844946D01*
X159150263Y-122801414D01*
X159173574Y-122754365D01*
X159199045Y-122703179D01*
X159199047Y-122703176D01*
X159206812Y-122687597D01*
X159206862Y-122687412D01*
X159206977Y-122687264D01*
X159237005Y-122626909D01*
X159237093Y-122626587D01*
X159237299Y-122626319D01*
X159265262Y-122569933D01*
X159265373Y-122569524D01*
X159265630Y-122569189D01*
X159291652Y-122516503D01*
X159291785Y-122516009D01*
X159292094Y-122515605D01*
X159316299Y-122466356D01*
X159316460Y-122465753D01*
X159316836Y-122465259D01*
X159339347Y-122419180D01*
X159339536Y-122418465D01*
X159339983Y-122417874D01*
X159360924Y-122374699D01*
X159361143Y-122373859D01*
X159361665Y-122373165D01*
X159381160Y-122332629D01*
X159381413Y-122331646D01*
X159382021Y-122330831D01*
X159400193Y-122292666D01*
X159400477Y-122291543D01*
X159401166Y-122290611D01*
X159418139Y-122254554D01*
X159418452Y-122253293D01*
X159419220Y-122252243D01*
X159435119Y-122218027D01*
X159435463Y-122216614D01*
X159436314Y-122215436D01*
X159451261Y-122182794D01*
X159451625Y-122181261D01*
X159452542Y-122179976D01*
X159466661Y-122148645D01*
X159467040Y-122147004D01*
X159468008Y-122145629D01*
X159481423Y-122115341D01*
X159481806Y-122113635D01*
X159482802Y-122112199D01*
X159495637Y-122082689D01*
X159496013Y-122080957D01*
X159497015Y-122079492D01*
X159509394Y-122050494D01*
X159509755Y-122048776D01*
X159510735Y-122047322D01*
X159522782Y-122018570D01*
X159523118Y-122016918D01*
X159524052Y-122015512D01*
X159535889Y-121986739D01*
X159536191Y-121985202D01*
X159537051Y-121983891D01*
X159548801Y-121954834D01*
X159549062Y-121953461D01*
X159549823Y-121952288D01*
X159561613Y-121922680D01*
X159562002Y-121920576D01*
X159563151Y-121918771D01*
X159566184Y-121910969D01*
X159567551Y-121903211D01*
X159571582Y-121896439D01*
X159585414Y-121857405D01*
X159587024Y-121846316D01*
X159592335Y-121836452D01*
X159605046Y-121794999D01*
X159606108Y-121784538D01*
X159610716Y-121775084D01*
X159621734Y-121733188D01*
X159622425Y-121721842D01*
X159626954Y-121711418D01*
X159635705Y-121671059D01*
X159635839Y-121663232D01*
X159638742Y-121655962D01*
X159641537Y-121640902D01*
X159641480Y-121636502D01*
X159643042Y-121632391D01*
X159646103Y-121614199D01*
X159645886Y-121606903D01*
X159648286Y-121600010D01*
X159650635Y-121583179D01*
X159650113Y-121574146D01*
X159652790Y-121565503D01*
X159654512Y-121548998D01*
X159653657Y-121539769D01*
X159656081Y-121530827D01*
X159657260Y-121513617D01*
X159656246Y-121505737D01*
X159658091Y-121498007D01*
X159658810Y-121479059D01*
X159657902Y-121473379D01*
X159659114Y-121467756D01*
X159659459Y-121446038D01*
X159658812Y-121442491D01*
X159659523Y-121438955D01*
X159659576Y-121413436D01*
X159659277Y-121411914D01*
X159659573Y-121410393D01*
X159659503Y-121392234D01*
X159659176Y-121390624D01*
X159659481Y-121389006D01*
X159659302Y-121371365D01*
X159658600Y-121368012D01*
X159659189Y-121364641D01*
X159658850Y-121350066D01*
X159657643Y-121344657D01*
X159658481Y-121339180D01*
X159657926Y-121326713D01*
X159656133Y-121319414D01*
X159657056Y-121311953D01*
X159656225Y-121300638D01*
X159654079Y-121292873D01*
X159654820Y-121284852D01*
X159653657Y-121273731D01*
X159651661Y-121267292D01*
X159652108Y-121260566D01*
X159650554Y-121248684D01*
X159649207Y-121244705D01*
X159649418Y-121240511D01*
X159647416Y-121226908D01*
X159646171Y-121223417D01*
X159646305Y-121219711D01*
X159641152Y-121187847D01*
X159638437Y-121180560D01*
X159638485Y-121172786D01*
X159627908Y-121117833D01*
X159623571Y-121107176D01*
X159623134Y-121095679D01*
X159610814Y-121044069D01*
X159605449Y-121032392D01*
X159604328Y-121019589D01*
X159590009Y-120970478D01*
X159583718Y-120958395D01*
X159581821Y-120944906D01*
X159565246Y-120897453D01*
X159558322Y-120885701D01*
X159555718Y-120872312D01*
X159536631Y-120825673D01*
X159529514Y-120814923D01*
X159526429Y-120802406D01*
X159504574Y-120755740D01*
X159499872Y-120749350D01*
X159497740Y-120741707D01*
X159490459Y-120727318D01*
X159484709Y-120719982D01*
X159481885Y-120711099D01*
X159455472Y-120663227D01*
X159445040Y-120650855D01*
X159439186Y-120635766D01*
X159411089Y-120591584D01*
X159398971Y-120578905D01*
X159391539Y-120563018D01*
X159361165Y-120521700D01*
X159348022Y-120509687D01*
X159339393Y-120494117D01*
X159306147Y-120454839D01*
X159292944Y-120444336D01*
X159283827Y-120430142D01*
X159247114Y-120392078D01*
X159239172Y-120386561D01*
X159233647Y-120378624D01*
X159224284Y-120369611D01*
X159215951Y-120364270D01*
X159209992Y-120356367D01*
X159172452Y-120322882D01*
X159157210Y-120313910D01*
X159145625Y-120300544D01*
X159107931Y-120271271D01*
X159090597Y-120262597D01*
X159076844Y-120248937D01*
X159038358Y-120223409D01*
X159019826Y-120215806D01*
X159004570Y-120202828D01*
X158964655Y-120180578D01*
X158952794Y-120176750D01*
X158942925Y-120169138D01*
X158933813Y-120164616D01*
X158927639Y-120162945D01*
X158922479Y-120159163D01*
X158905726Y-120151355D01*
X158895120Y-120139481D01*
X158895118Y-120139479D01*
X158873312Y-120115036D01*
X158873207Y-120114957D01*
X158873140Y-120114843D01*
X158857600Y-120097440D01*
X158857271Y-120097192D01*
X158857063Y-120096841D01*
X158838860Y-120076520D01*
X158838482Y-120076236D01*
X158838242Y-120075832D01*
X158821182Y-120056857D01*
X158820765Y-120056545D01*
X158820497Y-120056096D01*
X158818053Y-120053388D01*
X159096549Y-119997992D01*
X159590970Y-119667631D01*
X159921331Y-119173210D01*
X160037339Y-118590000D01*
X159921331Y-118006790D01*
X159695180Y-117668331D01*
X159849698Y-117604327D01*
X160028327Y-117425699D01*
X160125000Y-117192310D01*
X160125000Y-116335750D01*
X159966250Y-116177000D01*
X158117000Y-116177000D01*
X158117000Y-116197000D01*
X157863000Y-116197000D01*
X157863000Y-116177000D01*
X157843000Y-116177000D01*
X157843000Y-115923000D01*
X157863000Y-115923000D01*
X157863000Y-114557750D01*
X158117000Y-114557750D01*
X158117000Y-115923000D01*
X159966250Y-115923000D01*
X160125000Y-115764250D01*
X160125000Y-114907690D01*
X160028327Y-114674301D01*
X159849698Y-114495673D01*
X159616309Y-114399000D01*
X158275750Y-114399000D01*
X158117000Y-114557750D01*
X157863000Y-114557750D01*
X157704250Y-114399000D01*
X156583000Y-114399000D01*
X156583000Y-111576846D01*
X156728395Y-111673996D01*
G36*
X164074904Y-90758505D02*
X164774225Y-91225777D01*
X165241495Y-91925095D01*
X165417000Y-92807421D01*
X165417000Y-96250000D01*
X165428202Y-96306316D01*
X165428202Y-96363738D01*
X165637533Y-97416116D01*
X165637533Y-97416117D01*
X165724584Y-97626276D01*
X166320709Y-98518441D01*
X166481559Y-98679291D01*
X167373723Y-99275416D01*
X167583883Y-99362467D01*
X168636262Y-99571798D01*
X168693684Y-99571798D01*
X168750000Y-99583000D01*
X169261025Y-99583000D01*
X169022512Y-99742369D01*
X168692151Y-100236790D01*
X168576143Y-100820000D01*
X168692151Y-101403210D01*
X169022512Y-101897631D01*
X169273123Y-102065084D01*
X169267851Y-102067262D01*
X168838769Y-102495596D01*
X168606265Y-103055528D01*
X168605736Y-103661812D01*
X168837262Y-104222149D01*
X169244737Y-104630336D01*
X168838769Y-105035596D01*
X168606265Y-105595528D01*
X168605736Y-106201812D01*
X168837262Y-106762149D01*
X168900230Y-106825227D01*
X168754302Y-106885673D01*
X168575673Y-107064301D01*
X168479000Y-107297690D01*
X168479000Y-108154250D01*
X168637750Y-108313000D01*
X170003000Y-108313000D01*
X170003000Y-108293000D01*
X170257000Y-108293000D01*
X170257000Y-108313000D01*
X170277000Y-108313000D01*
X170277000Y-108567000D01*
X170257000Y-108567000D01*
X170257000Y-108587000D01*
X170003000Y-108587000D01*
X170003000Y-108567000D01*
X168637750Y-108567000D01*
X168479000Y-108725750D01*
X168479000Y-109582310D01*
X168575673Y-109815699D01*
X168754302Y-109994327D01*
X168899855Y-110054617D01*
X168838769Y-110115596D01*
X168796247Y-110218000D01*
X166310000Y-110218000D01*
X166018395Y-110276004D01*
X165858968Y-110382530D01*
X165771185Y-110441185D01*
X165554370Y-110658000D01*
X158795630Y-110658000D01*
X158568815Y-110431185D01*
X158495998Y-110382530D01*
X158398987Y-110317709D01*
X158471153Y-110271272D01*
X158513482Y-110209321D01*
X160640819Y-110233495D01*
X160651673Y-110259699D01*
X160830302Y-110438327D01*
X161063691Y-110535000D01*
X161254250Y-110535000D01*
X161413000Y-110376250D01*
X161413000Y-110272889D01*
X161667000Y-110270158D01*
X161667000Y-110376250D01*
X161825750Y-110535000D01*
X162016309Y-110535000D01*
X162249698Y-110438327D01*
X162428327Y-110259699D01*
X162525000Y-110026310D01*
X162525000Y-110008750D01*
X162402138Y-109885888D01*
X162428327Y-109859699D01*
X162525000Y-109626310D01*
X162525000Y-109608750D01*
X162516250Y-109600000D01*
X162525000Y-109591250D01*
X162525000Y-109573690D01*
X162453055Y-109400000D01*
X162525000Y-109226310D01*
X162525000Y-109208750D01*
X162516250Y-109200000D01*
X162525000Y-109191250D01*
X162525000Y-109173690D01*
X162453055Y-109000000D01*
X162525000Y-108826310D01*
X162525000Y-108808750D01*
X162516250Y-108800000D01*
X162525000Y-108791250D01*
X162525000Y-108773690D01*
X162453055Y-108600000D01*
X162525000Y-108426310D01*
X162525000Y-108408750D01*
X162516250Y-108400000D01*
X162525000Y-108391250D01*
X162525000Y-108373690D01*
X162453055Y-108200000D01*
X162525000Y-108026310D01*
X162525000Y-108008750D01*
X162516250Y-108000000D01*
X162525000Y-107991250D01*
X162525000Y-107973690D01*
X162453055Y-107800000D01*
X162525000Y-107626310D01*
X162525000Y-107608750D01*
X162516250Y-107600000D01*
X162525000Y-107591250D01*
X162525000Y-107573690D01*
X162453055Y-107400000D01*
X162525000Y-107226310D01*
X162525000Y-107208750D01*
X162516250Y-107200000D01*
X162525000Y-107191250D01*
X162525000Y-107173690D01*
X162453055Y-107000000D01*
X162525000Y-106826310D01*
X162525000Y-106808750D01*
X162516250Y-106800000D01*
X162525000Y-106791250D01*
X162525000Y-106773690D01*
X162453055Y-106600000D01*
X162525000Y-106426310D01*
X162525000Y-106408750D01*
X162516250Y-106400000D01*
X162525000Y-106391250D01*
X162525000Y-106373690D01*
X162428327Y-106140301D01*
X162402138Y-106114112D01*
X162525000Y-105991250D01*
X162525000Y-105973690D01*
X162428327Y-105740301D01*
X162249698Y-105561673D01*
X162016309Y-105465000D01*
X161825750Y-105465000D01*
X161667000Y-105623750D01*
X161667000Y-105753849D01*
X161413000Y-105741868D01*
X161413000Y-105623750D01*
X161254250Y-105465000D01*
X161063691Y-105465000D01*
X160830302Y-105561673D01*
X160651673Y-105740301D01*
X160636088Y-105777927D01*
X158485451Y-105745341D01*
X158481272Y-105738847D01*
X158311512Y-105622855D01*
X158110000Y-105582048D01*
X157594136Y-105582048D01*
X158493092Y-104683092D01*
X158619731Y-104493563D01*
X158664200Y-104270000D01*
X158664200Y-103657952D01*
X158680000Y-103657952D01*
X158868253Y-103622530D01*
X159041153Y-103511272D01*
X159157145Y-103341512D01*
X159179341Y-103231905D01*
X159197470Y-103328253D01*
X159308728Y-103501153D01*
X159478488Y-103617145D01*
X159499277Y-103621355D01*
X159429248Y-103790003D01*
X159428953Y-104128512D01*
X159558222Y-104441366D01*
X159797375Y-104680937D01*
X160110003Y-104810752D01*
X160448512Y-104811047D01*
X160761366Y-104681778D01*
X161000937Y-104442625D01*
X161130752Y-104129997D01*
X161131047Y-103791488D01*
X161061741Y-103623755D01*
X161068253Y-103622530D01*
X161241153Y-103511272D01*
X161357145Y-103341512D01*
X161397952Y-103140000D01*
X161397952Y-102240000D01*
X161362530Y-102051747D01*
X161251272Y-101878847D01*
X161082418Y-101763474D01*
X161239698Y-101698327D01*
X161418327Y-101519699D01*
X161515000Y-101286310D01*
X161515000Y-100995750D01*
X161356250Y-100837000D01*
X160407000Y-100837000D01*
X160407000Y-100857000D01*
X160153000Y-100857000D01*
X160153000Y-100837000D01*
X160133000Y-100837000D01*
X160133000Y-100583000D01*
X160153000Y-100583000D01*
X160153000Y-99783750D01*
X160407000Y-99783750D01*
X160407000Y-100583000D01*
X161356250Y-100583000D01*
X161515000Y-100424250D01*
X161515000Y-100133690D01*
X161418327Y-99900301D01*
X161239698Y-99721673D01*
X161006309Y-99625000D01*
X160565750Y-99625000D01*
X160407000Y-99783750D01*
X160153000Y-99783750D01*
X159994250Y-99625000D01*
X159553691Y-99625000D01*
X159320302Y-99721673D01*
X159141673Y-99900301D01*
X159106637Y-99984886D01*
X159051272Y-99898847D01*
X158881512Y-99782855D01*
X158680000Y-99742048D01*
X157480000Y-99742048D01*
X157291747Y-99777470D01*
X157118847Y-99888728D01*
X157002855Y-100058488D01*
X156962048Y-100260000D01*
X156962048Y-101160000D01*
X156997470Y-101348253D01*
X157108728Y-101521153D01*
X157278488Y-101637145D01*
X157480000Y-101677952D01*
X157495800Y-101677952D01*
X157495800Y-101722048D01*
X157480000Y-101722048D01*
X157291747Y-101757470D01*
X157118847Y-101868728D01*
X157002855Y-102038488D01*
X156962048Y-102240000D01*
X156962048Y-103140000D01*
X156997470Y-103328253D01*
X157108728Y-103501153D01*
X157278488Y-103617145D01*
X157480000Y-103657952D01*
X157495800Y-103657952D01*
X157495800Y-104028016D01*
X156583000Y-104940816D01*
X156583000Y-96634145D01*
X156623691Y-96651000D01*
X157964250Y-96651000D01*
X158123000Y-96492250D01*
X158123000Y-95127000D01*
X158377000Y-95127000D01*
X158377000Y-96492250D01*
X158535750Y-96651000D01*
X159876309Y-96651000D01*
X160109698Y-96554327D01*
X160288327Y-96375699D01*
X160385000Y-96142310D01*
X160385000Y-95285750D01*
X160226250Y-95127000D01*
X158377000Y-95127000D01*
X158123000Y-95127000D01*
X158103000Y-95127000D01*
X158103000Y-94873000D01*
X158123000Y-94873000D01*
X158123000Y-94853000D01*
X158377000Y-94853000D01*
X158377000Y-94873000D01*
X160226250Y-94873000D01*
X160385000Y-94714250D01*
X160385000Y-93857690D01*
X160288327Y-93624301D01*
X160109698Y-93445673D01*
X159955180Y-93381669D01*
X160111537Y-93147664D01*
X161241652Y-93147664D01*
X161546708Y-93885955D01*
X162111074Y-94451307D01*
X162848832Y-94757651D01*
X163647664Y-94758348D01*
X164385955Y-94453292D01*
X164951307Y-93888926D01*
X165257651Y-93151168D01*
X165258348Y-92352336D01*
X164953292Y-91614045D01*
X164388926Y-91048693D01*
X163651168Y-90742349D01*
X162852336Y-90741652D01*
X162114045Y-91046708D01*
X161548693Y-91611074D01*
X161242349Y-92348832D01*
X161241652Y-93147664D01*
X160111537Y-93147664D01*
X160181331Y-93043210D01*
X160297339Y-92460000D01*
X160181331Y-91876790D01*
X159850970Y-91382369D01*
X159356549Y-91052008D01*
X158773339Y-90936000D01*
X157726661Y-90936000D01*
X157630969Y-90955034D01*
X157925095Y-90758505D01*
X158807421Y-90583000D01*
X163192578Y-90583000D01*
X164074904Y-90758505D01*
X164074904Y-90758505D01*
G37*
X164074904Y-90758505D02*
X164774225Y-91225777D01*
X165241495Y-91925095D01*
X165417000Y-92807421D01*
X165417000Y-96250000D01*
X165428202Y-96306316D01*
X165428202Y-96363738D01*
X165637533Y-97416116D01*
X165637533Y-97416117D01*
X165724584Y-97626276D01*
X166320709Y-98518441D01*
X166481559Y-98679291D01*
X167373723Y-99275416D01*
X167583883Y-99362467D01*
X168636262Y-99571798D01*
X168693684Y-99571798D01*
X168750000Y-99583000D01*
X169261025Y-99583000D01*
X169022512Y-99742369D01*
X168692151Y-100236790D01*
X168576143Y-100820000D01*
X168692151Y-101403210D01*
X169022512Y-101897631D01*
X169273123Y-102065084D01*
X169267851Y-102067262D01*
X168838769Y-102495596D01*
X168606265Y-103055528D01*
X168605736Y-103661812D01*
X168837262Y-104222149D01*
X169244737Y-104630336D01*
X168838769Y-105035596D01*
X168606265Y-105595528D01*
X168605736Y-106201812D01*
X168837262Y-106762149D01*
X168900230Y-106825227D01*
X168754302Y-106885673D01*
X168575673Y-107064301D01*
X168479000Y-107297690D01*
X168479000Y-108154250D01*
X168637750Y-108313000D01*
X170003000Y-108313000D01*
X170003000Y-108293000D01*
X170257000Y-108293000D01*
X170257000Y-108313000D01*
X170277000Y-108313000D01*
X170277000Y-108567000D01*
X170257000Y-108567000D01*
X170257000Y-108587000D01*
X170003000Y-108587000D01*
X170003000Y-108567000D01*
X168637750Y-108567000D01*
X168479000Y-108725750D01*
X168479000Y-109582310D01*
X168575673Y-109815699D01*
X168754302Y-109994327D01*
X168899855Y-110054617D01*
X168838769Y-110115596D01*
X168796247Y-110218000D01*
X166310000Y-110218000D01*
X166018395Y-110276004D01*
X165858968Y-110382530D01*
X165771185Y-110441185D01*
X165554370Y-110658000D01*
X158795630Y-110658000D01*
X158568815Y-110431185D01*
X158495998Y-110382530D01*
X158398987Y-110317709D01*
X158471153Y-110271272D01*
X158513482Y-110209321D01*
X160640819Y-110233495D01*
X160651673Y-110259699D01*
X160830302Y-110438327D01*
X161063691Y-110535000D01*
X161254250Y-110535000D01*
X161413000Y-110376250D01*
X161413000Y-110272889D01*
X161667000Y-110270158D01*
X161667000Y-110376250D01*
X161825750Y-110535000D01*
X162016309Y-110535000D01*
X162249698Y-110438327D01*
X162428327Y-110259699D01*
X162525000Y-110026310D01*
X162525000Y-110008750D01*
X162402138Y-109885888D01*
X162428327Y-109859699D01*
X162525000Y-109626310D01*
X162525000Y-109608750D01*
X162516250Y-109600000D01*
X162525000Y-109591250D01*
X162525000Y-109573690D01*
X162453055Y-109400000D01*
X162525000Y-109226310D01*
X162525000Y-109208750D01*
X162516250Y-109200000D01*
X162525000Y-109191250D01*
X162525000Y-109173690D01*
X162453055Y-109000000D01*
X162525000Y-108826310D01*
X162525000Y-108808750D01*
X162516250Y-108800000D01*
X162525000Y-108791250D01*
X162525000Y-108773690D01*
X162453055Y-108600000D01*
X162525000Y-108426310D01*
X162525000Y-108408750D01*
X162516250Y-108400000D01*
X162525000Y-108391250D01*
X162525000Y-108373690D01*
X162453055Y-108200000D01*
X162525000Y-108026310D01*
X162525000Y-108008750D01*
X162516250Y-108000000D01*
X162525000Y-107991250D01*
X162525000Y-107973690D01*
X162453055Y-107800000D01*
X162525000Y-107626310D01*
X162525000Y-107608750D01*
X162516250Y-107600000D01*
X162525000Y-107591250D01*
X162525000Y-107573690D01*
X162453055Y-107400000D01*
X162525000Y-107226310D01*
X162525000Y-107208750D01*
X162516250Y-107200000D01*
X162525000Y-107191250D01*
X162525000Y-107173690D01*
X162453055Y-107000000D01*
X162525000Y-106826310D01*
X162525000Y-106808750D01*
X162516250Y-106800000D01*
X162525000Y-106791250D01*
X162525000Y-106773690D01*
X162453055Y-106600000D01*
X162525000Y-106426310D01*
X162525000Y-106408750D01*
X162516250Y-106400000D01*
X162525000Y-106391250D01*
X162525000Y-106373690D01*
X162428327Y-106140301D01*
X162402138Y-106114112D01*
X162525000Y-105991250D01*
X162525000Y-105973690D01*
X162428327Y-105740301D01*
X162249698Y-105561673D01*
X162016309Y-105465000D01*
X161825750Y-105465000D01*
X161667000Y-105623750D01*
X161667000Y-105753849D01*
X161413000Y-105741868D01*
X161413000Y-105623750D01*
X161254250Y-105465000D01*
X161063691Y-105465000D01*
X160830302Y-105561673D01*
X160651673Y-105740301D01*
X160636088Y-105777927D01*
X158485451Y-105745341D01*
X158481272Y-105738847D01*
X158311512Y-105622855D01*
X158110000Y-105582048D01*
X157594136Y-105582048D01*
X158493092Y-104683092D01*
X158619731Y-104493563D01*
X158664200Y-104270000D01*
X158664200Y-103657952D01*
X158680000Y-103657952D01*
X158868253Y-103622530D01*
X159041153Y-103511272D01*
X159157145Y-103341512D01*
X159179341Y-103231905D01*
X159197470Y-103328253D01*
X159308728Y-103501153D01*
X159478488Y-103617145D01*
X159499277Y-103621355D01*
X159429248Y-103790003D01*
X159428953Y-104128512D01*
X159558222Y-104441366D01*
X159797375Y-104680937D01*
X160110003Y-104810752D01*
X160448512Y-104811047D01*
X160761366Y-104681778D01*
X161000937Y-104442625D01*
X161130752Y-104129997D01*
X161131047Y-103791488D01*
X161061741Y-103623755D01*
X161068253Y-103622530D01*
X161241153Y-103511272D01*
X161357145Y-103341512D01*
X161397952Y-103140000D01*
X161397952Y-102240000D01*
X161362530Y-102051747D01*
X161251272Y-101878847D01*
X161082418Y-101763474D01*
X161239698Y-101698327D01*
X161418327Y-101519699D01*
X161515000Y-101286310D01*
X161515000Y-100995750D01*
X161356250Y-100837000D01*
X160407000Y-100837000D01*
X160407000Y-100857000D01*
X160153000Y-100857000D01*
X160153000Y-100837000D01*
X160133000Y-100837000D01*
X160133000Y-100583000D01*
X160153000Y-100583000D01*
X160153000Y-99783750D01*
X160407000Y-99783750D01*
X160407000Y-100583000D01*
X161356250Y-100583000D01*
X161515000Y-100424250D01*
X161515000Y-100133690D01*
X161418327Y-99900301D01*
X161239698Y-99721673D01*
X161006309Y-99625000D01*
X160565750Y-99625000D01*
X160407000Y-99783750D01*
X160153000Y-99783750D01*
X159994250Y-99625000D01*
X159553691Y-99625000D01*
X159320302Y-99721673D01*
X159141673Y-99900301D01*
X159106637Y-99984886D01*
X159051272Y-99898847D01*
X158881512Y-99782855D01*
X158680000Y-99742048D01*
X157480000Y-99742048D01*
X157291747Y-99777470D01*
X157118847Y-99888728D01*
X157002855Y-100058488D01*
X156962048Y-100260000D01*
X156962048Y-101160000D01*
X156997470Y-101348253D01*
X157108728Y-101521153D01*
X157278488Y-101637145D01*
X157480000Y-101677952D01*
X157495800Y-101677952D01*
X157495800Y-101722048D01*
X157480000Y-101722048D01*
X157291747Y-101757470D01*
X157118847Y-101868728D01*
X157002855Y-102038488D01*
X156962048Y-102240000D01*
X156962048Y-103140000D01*
X156997470Y-103328253D01*
X157108728Y-103501153D01*
X157278488Y-103617145D01*
X157480000Y-103657952D01*
X157495800Y-103657952D01*
X157495800Y-104028016D01*
X156583000Y-104940816D01*
X156583000Y-96634145D01*
X156623691Y-96651000D01*
X157964250Y-96651000D01*
X158123000Y-96492250D01*
X158123000Y-95127000D01*
X158377000Y-95127000D01*
X158377000Y-96492250D01*
X158535750Y-96651000D01*
X159876309Y-96651000D01*
X160109698Y-96554327D01*
X160288327Y-96375699D01*
X160385000Y-96142310D01*
X160385000Y-95285750D01*
X160226250Y-95127000D01*
X158377000Y-95127000D01*
X158123000Y-95127000D01*
X158103000Y-95127000D01*
X158103000Y-94873000D01*
X158123000Y-94873000D01*
X158123000Y-94853000D01*
X158377000Y-94853000D01*
X158377000Y-94873000D01*
X160226250Y-94873000D01*
X160385000Y-94714250D01*
X160385000Y-93857690D01*
X160288327Y-93624301D01*
X160109698Y-93445673D01*
X159955180Y-93381669D01*
X160111537Y-93147664D01*
X161241652Y-93147664D01*
X161546708Y-93885955D01*
X162111074Y-94451307D01*
X162848832Y-94757651D01*
X163647664Y-94758348D01*
X164385955Y-94453292D01*
X164951307Y-93888926D01*
X165257651Y-93151168D01*
X165258348Y-92352336D01*
X164953292Y-91614045D01*
X164388926Y-91048693D01*
X163651168Y-90742349D01*
X162852336Y-90741652D01*
X162114045Y-91046708D01*
X161548693Y-91611074D01*
X161242349Y-92348832D01*
X161241652Y-93147664D01*
X160111537Y-93147664D01*
X160181331Y-93043210D01*
X160297339Y-92460000D01*
X160181331Y-91876790D01*
X159850970Y-91382369D01*
X159356549Y-91052008D01*
X158773339Y-90936000D01*
X157726661Y-90936000D01*
X157630969Y-90955034D01*
X157925095Y-90758505D01*
X158807421Y-90583000D01*
X163192578Y-90583000D01*
X164074904Y-90758505D01*
M02*
