G04 #@! TF.FileFunction,Soldermask,Top*
%FSLAX46Y46*%
G04 Gerber Fmt 4.6, Leading zero omitted, Abs format (unit mm)*
G04 Created by KiCad (PCBNEW (2015-11-03 BZR 6296)-product) date Thursday, November 12, 2015 'AMt' 10:54:08 AM*
%MOMM*%
G01*
G04 APERTURE LIST*
%ADD10C,0.100000*%
%ADD11C,0.010000*%
%ADD12O,2.432000X2.432000*%
%ADD13C,2.432000*%
%ADD14R,2.432000X2.432000*%
%ADD15R,1.100000X0.600000*%
G04 APERTURE END LIST*
D10*
D11*
G36*
X159271031Y-101463103D02*
X159308866Y-101464878D01*
X159344763Y-101467950D01*
X159380412Y-101472451D01*
X159417499Y-101478512D01*
X159442537Y-101483226D01*
X159479505Y-101490873D01*
X159514770Y-101499056D01*
X159549378Y-101508108D01*
X159584376Y-101518364D01*
X159620809Y-101530156D01*
X159659722Y-101543818D01*
X159702161Y-101559684D01*
X159749173Y-101578088D01*
X159784737Y-101592406D01*
X159831958Y-101611805D01*
X159879898Y-101631943D01*
X159928959Y-101653011D01*
X159979547Y-101675199D01*
X160032066Y-101698695D01*
X160086921Y-101723689D01*
X160144514Y-101750372D01*
X160205251Y-101778932D01*
X160269536Y-101809559D01*
X160337773Y-101842442D01*
X160410365Y-101877772D01*
X160487719Y-101915737D01*
X160570236Y-101956528D01*
X160658323Y-102000333D01*
X160716085Y-102029177D01*
X160797799Y-102069964D01*
X160873732Y-102107698D01*
X160944358Y-102142596D01*
X161010149Y-102174875D01*
X161071577Y-102204752D01*
X161129115Y-102232444D01*
X161183235Y-102258167D01*
X161234409Y-102282138D01*
X161283111Y-102304575D01*
X161329811Y-102325695D01*
X161374982Y-102345714D01*
X161419097Y-102364848D01*
X161462629Y-102383316D01*
X161506049Y-102401334D01*
X161549829Y-102419119D01*
X161594443Y-102436888D01*
X161640363Y-102454857D01*
X161657542Y-102461509D01*
X161681524Y-102470793D01*
X161703788Y-102479455D01*
X161723348Y-102487109D01*
X161739219Y-102493366D01*
X161750414Y-102497840D01*
X161755784Y-102500070D01*
X161765832Y-102504573D01*
X161750698Y-102523849D01*
X161738889Y-102537902D01*
X161722920Y-102555482D01*
X161703921Y-102575449D01*
X161683023Y-102596663D01*
X161661357Y-102617986D01*
X161640055Y-102638277D01*
X161620246Y-102656397D01*
X161611681Y-102663920D01*
X161536102Y-102725039D01*
X161454352Y-102783238D01*
X161366747Y-102838375D01*
X161273601Y-102890306D01*
X161175231Y-102938886D01*
X161071952Y-102983973D01*
X160964079Y-103025422D01*
X160851928Y-103063091D01*
X160735814Y-103096835D01*
X160616054Y-103126510D01*
X160576278Y-103135281D01*
X160517253Y-103147567D01*
X160463414Y-103158013D01*
X160413205Y-103166877D01*
X160365074Y-103174413D01*
X160317469Y-103180877D01*
X160268835Y-103186526D01*
X160258778Y-103187588D01*
X160238732Y-103189185D01*
X160213512Y-103190438D01*
X160184439Y-103191348D01*
X160152833Y-103191913D01*
X160120014Y-103192134D01*
X160087303Y-103192011D01*
X160056020Y-103191543D01*
X160027485Y-103190730D01*
X160003019Y-103189572D01*
X159983941Y-103188069D01*
X159980083Y-103187629D01*
X159909587Y-103176359D01*
X159844668Y-103160777D01*
X159785314Y-103140875D01*
X159731511Y-103116642D01*
X159683246Y-103088071D01*
X159640506Y-103055152D01*
X159603275Y-103017875D01*
X159571542Y-102976233D01*
X159545292Y-102930216D01*
X159525814Y-102883556D01*
X159516564Y-102855336D01*
X159509950Y-102829790D01*
X159505611Y-102804670D01*
X159503189Y-102777726D01*
X159502323Y-102746710D01*
X159502311Y-102736690D01*
X159502506Y-102679783D01*
X159479541Y-102677430D01*
X159456577Y-102675078D01*
X159406819Y-102709010D01*
X159407261Y-102758359D01*
X159411246Y-102816590D01*
X159422027Y-102873341D01*
X159439427Y-102928195D01*
X159463267Y-102980732D01*
X159493369Y-103030536D01*
X159529554Y-103077188D01*
X159554774Y-103104155D01*
X159595410Y-103141000D01*
X159639140Y-103173371D01*
X159686472Y-103201491D01*
X159737911Y-103225584D01*
X159793966Y-103245873D01*
X159855143Y-103262584D01*
X159921948Y-103275938D01*
X159955389Y-103281113D01*
X159976455Y-103283389D01*
X160003303Y-103285185D01*
X160034675Y-103286500D01*
X160069315Y-103287334D01*
X160105966Y-103287688D01*
X160143369Y-103287562D01*
X160180269Y-103286956D01*
X160215407Y-103285870D01*
X160247526Y-103284303D01*
X160275370Y-103282257D01*
X160287000Y-103281088D01*
X160401247Y-103265915D01*
X160516379Y-103246055D01*
X160631524Y-103221770D01*
X160745809Y-103193321D01*
X160858359Y-103160969D01*
X160968303Y-103124975D01*
X161074766Y-103085600D01*
X161176876Y-103043106D01*
X161273760Y-102997754D01*
X161328608Y-102969498D01*
X161411718Y-102922751D01*
X161490658Y-102873631D01*
X161564981Y-102822487D01*
X161634241Y-102769668D01*
X161697993Y-102715522D01*
X161755791Y-102660397D01*
X161807188Y-102604643D01*
X161828880Y-102578480D01*
X161843589Y-102560572D01*
X161854647Y-102548259D01*
X161862321Y-102541267D01*
X161866878Y-102539322D01*
X161867106Y-102539373D01*
X161881682Y-102543012D01*
X161902129Y-102547139D01*
X161927296Y-102551588D01*
X161956029Y-102556193D01*
X161987174Y-102560787D01*
X162019579Y-102565204D01*
X162052091Y-102569276D01*
X162083556Y-102572837D01*
X162112821Y-102575720D01*
X162126736Y-102576893D01*
X162156996Y-102578630D01*
X162190509Y-102579311D01*
X162227721Y-102578909D01*
X162269075Y-102577398D01*
X162315017Y-102574750D01*
X162365991Y-102570938D01*
X162422441Y-102565937D01*
X162484812Y-102559719D01*
X162553548Y-102552256D01*
X162574764Y-102549853D01*
X162672696Y-102538039D01*
X162777110Y-102524253D01*
X162887726Y-102508544D01*
X163004267Y-102490962D01*
X163126454Y-102471559D01*
X163254011Y-102450386D01*
X163386657Y-102427492D01*
X163524117Y-102402928D01*
X163666110Y-102376746D01*
X163812360Y-102348995D01*
X163962588Y-102319727D01*
X164116517Y-102288991D01*
X164273867Y-102256840D01*
X164434361Y-102223322D01*
X164597721Y-102188489D01*
X164763669Y-102152392D01*
X164791972Y-102146166D01*
X164823505Y-102139268D01*
X164853573Y-102132787D01*
X164881326Y-102126899D01*
X164905913Y-102121780D01*
X164926484Y-102117607D01*
X164942186Y-102114556D01*
X164952170Y-102112804D01*
X164954250Y-102112520D01*
X164981629Y-102112603D01*
X165010597Y-102118198D01*
X165039337Y-102128640D01*
X165066032Y-102143263D01*
X165088863Y-102161400D01*
X165089577Y-102162097D01*
X165100334Y-102174458D01*
X165113559Y-102192584D01*
X165128873Y-102215782D01*
X165145898Y-102243362D01*
X165164253Y-102274633D01*
X165183562Y-102308902D01*
X165203444Y-102345479D01*
X165223521Y-102383671D01*
X165243415Y-102422789D01*
X165262747Y-102462139D01*
X165281137Y-102501031D01*
X165298208Y-102538774D01*
X165306938Y-102558888D01*
X165334418Y-102627828D01*
X165356295Y-102692753D01*
X165372564Y-102753631D01*
X165383220Y-102810428D01*
X165388258Y-102863112D01*
X165387674Y-102911650D01*
X165381462Y-102956008D01*
X165370303Y-102994355D01*
X165360721Y-103014617D01*
X165347158Y-103036530D01*
X165331359Y-103057628D01*
X165315072Y-103075441D01*
X165309089Y-103080860D01*
X165293700Y-103092771D01*
X165277081Y-103103287D01*
X165258689Y-103112518D01*
X165237978Y-103120574D01*
X165214406Y-103127565D01*
X165187427Y-103133602D01*
X165156498Y-103138794D01*
X165121074Y-103143252D01*
X165080612Y-103147086D01*
X165034567Y-103150405D01*
X164982396Y-103153321D01*
X164941903Y-103155182D01*
X164922132Y-103155961D01*
X164896304Y-103156876D01*
X164865416Y-103157897D01*
X164830464Y-103158994D01*
X164792446Y-103160137D01*
X164752357Y-103161294D01*
X164711195Y-103162437D01*
X164669956Y-103163534D01*
X164649097Y-103164070D01*
X164543132Y-103166865D01*
X164443623Y-103169728D01*
X164349971Y-103172688D01*
X164261576Y-103175774D01*
X164177840Y-103179016D01*
X164098162Y-103182444D01*
X164021944Y-103186086D01*
X163948587Y-103189972D01*
X163877491Y-103194132D01*
X163808056Y-103198595D01*
X163739683Y-103203390D01*
X163671774Y-103208548D01*
X163603729Y-103214096D01*
X163567833Y-103217168D01*
X163415425Y-103231484D01*
X163268916Y-103247501D01*
X163127314Y-103265426D01*
X162989629Y-103285462D01*
X162854869Y-103307813D01*
X162722042Y-103332686D01*
X162590156Y-103360283D01*
X162458221Y-103390811D01*
X162325244Y-103424473D01*
X162190234Y-103461474D01*
X162052199Y-103502018D01*
X161910149Y-103546311D01*
X161802181Y-103581516D01*
X161745529Y-103600415D01*
X161693101Y-103618181D01*
X161644324Y-103635079D01*
X161598627Y-103651377D01*
X161555437Y-103667340D01*
X161514184Y-103683235D01*
X161474295Y-103699327D01*
X161435199Y-103715884D01*
X161396325Y-103733170D01*
X161357099Y-103751452D01*
X161316952Y-103770997D01*
X161275310Y-103792071D01*
X161231602Y-103814939D01*
X161185257Y-103839869D01*
X161135703Y-103867125D01*
X161082368Y-103896975D01*
X161024680Y-103929684D01*
X160962068Y-103965519D01*
X160897306Y-104002815D01*
X160847113Y-104031743D01*
X160802343Y-104057450D01*
X160762339Y-104080298D01*
X160726445Y-104100648D01*
X160694006Y-104118863D01*
X160664365Y-104135303D01*
X160636866Y-104150330D01*
X160610853Y-104164307D01*
X160585670Y-104177594D01*
X160560662Y-104190554D01*
X160535172Y-104203549D01*
X160512778Y-104214820D01*
X160447461Y-104246741D01*
X160386674Y-104274702D01*
X160329369Y-104299064D01*
X160274501Y-104320188D01*
X160221022Y-104338436D01*
X160167885Y-104354169D01*
X160114043Y-104367748D01*
X160058449Y-104379537D01*
X160010975Y-104388094D01*
X159951699Y-104397475D01*
X159897114Y-104404849D01*
X159845196Y-104410377D01*
X159793926Y-104414223D01*
X159741279Y-104416550D01*
X159685234Y-104417522D01*
X159646708Y-104417509D01*
X159620120Y-104417309D01*
X159595076Y-104417051D01*
X159572670Y-104416751D01*
X159553997Y-104416426D01*
X159540149Y-104416092D01*
X159532223Y-104415767D01*
X159532056Y-104415755D01*
X159441009Y-104406740D01*
X159351200Y-104393096D01*
X159263485Y-104375042D01*
X159178718Y-104352798D01*
X159097756Y-104326583D01*
X159021455Y-104296619D01*
X158963791Y-104269817D01*
X158877957Y-104222919D01*
X158794330Y-104169377D01*
X158712988Y-104109273D01*
X158634006Y-104042690D01*
X158557461Y-103969708D01*
X158483429Y-103890411D01*
X158411985Y-103804879D01*
X158343207Y-103713196D01*
X158277171Y-103615442D01*
X158213952Y-103511701D01*
X158153627Y-103402053D01*
X158149300Y-103393746D01*
X158112293Y-103318734D01*
X158077779Y-103240989D01*
X158045400Y-103159580D01*
X158014798Y-103073574D01*
X157985612Y-102982039D01*
X157969110Y-102925758D01*
X157961543Y-102899169D01*
X157715806Y-102800044D01*
X157676329Y-102784069D01*
X157638813Y-102768791D01*
X157603766Y-102754422D01*
X157571694Y-102741173D01*
X157543102Y-102729257D01*
X157518498Y-102718887D01*
X157498388Y-102710274D01*
X157483278Y-102703630D01*
X157473674Y-102699168D01*
X157470083Y-102697101D01*
X157470069Y-102697055D01*
X157472644Y-102694178D01*
X157480115Y-102686965D01*
X157492098Y-102675762D01*
X157508213Y-102660917D01*
X157528078Y-102642776D01*
X157551310Y-102621686D01*
X157577529Y-102597994D01*
X157606351Y-102572048D01*
X157637395Y-102544193D01*
X157670280Y-102514778D01*
X157695847Y-102491966D01*
X157921625Y-102290741D01*
X157936003Y-102251022D01*
X157964338Y-102180948D01*
X157997586Y-102114045D01*
X158036152Y-102049707D01*
X158080445Y-101987324D01*
X158130870Y-101926287D01*
X158187835Y-101865990D01*
X158204224Y-101849917D01*
X158271538Y-101789739D01*
X158344130Y-101734059D01*
X158421734Y-101683010D01*
X158504086Y-101636722D01*
X158590921Y-101595330D01*
X158681974Y-101558964D01*
X158776979Y-101527758D01*
X158875671Y-101501842D01*
X158921750Y-101491834D01*
X158966147Y-101483197D01*
X159005869Y-101476427D01*
X159042979Y-101471295D01*
X159079540Y-101467572D01*
X159117614Y-101465029D01*
X159159265Y-101463439D01*
X159182806Y-101462916D01*
X159229574Y-101462493D01*
X159271031Y-101463103D01*
X159271031Y-101463103D01*
G37*
X159271031Y-101463103D02*
X159308866Y-101464878D01*
X159344763Y-101467950D01*
X159380412Y-101472451D01*
X159417499Y-101478512D01*
X159442537Y-101483226D01*
X159479505Y-101490873D01*
X159514770Y-101499056D01*
X159549378Y-101508108D01*
X159584376Y-101518364D01*
X159620809Y-101530156D01*
X159659722Y-101543818D01*
X159702161Y-101559684D01*
X159749173Y-101578088D01*
X159784737Y-101592406D01*
X159831958Y-101611805D01*
X159879898Y-101631943D01*
X159928959Y-101653011D01*
X159979547Y-101675199D01*
X160032066Y-101698695D01*
X160086921Y-101723689D01*
X160144514Y-101750372D01*
X160205251Y-101778932D01*
X160269536Y-101809559D01*
X160337773Y-101842442D01*
X160410365Y-101877772D01*
X160487719Y-101915737D01*
X160570236Y-101956528D01*
X160658323Y-102000333D01*
X160716085Y-102029177D01*
X160797799Y-102069964D01*
X160873732Y-102107698D01*
X160944358Y-102142596D01*
X161010149Y-102174875D01*
X161071577Y-102204752D01*
X161129115Y-102232444D01*
X161183235Y-102258167D01*
X161234409Y-102282138D01*
X161283111Y-102304575D01*
X161329811Y-102325695D01*
X161374982Y-102345714D01*
X161419097Y-102364848D01*
X161462629Y-102383316D01*
X161506049Y-102401334D01*
X161549829Y-102419119D01*
X161594443Y-102436888D01*
X161640363Y-102454857D01*
X161657542Y-102461509D01*
X161681524Y-102470793D01*
X161703788Y-102479455D01*
X161723348Y-102487109D01*
X161739219Y-102493366D01*
X161750414Y-102497840D01*
X161755784Y-102500070D01*
X161765832Y-102504573D01*
X161750698Y-102523849D01*
X161738889Y-102537902D01*
X161722920Y-102555482D01*
X161703921Y-102575449D01*
X161683023Y-102596663D01*
X161661357Y-102617986D01*
X161640055Y-102638277D01*
X161620246Y-102656397D01*
X161611681Y-102663920D01*
X161536102Y-102725039D01*
X161454352Y-102783238D01*
X161366747Y-102838375D01*
X161273601Y-102890306D01*
X161175231Y-102938886D01*
X161071952Y-102983973D01*
X160964079Y-103025422D01*
X160851928Y-103063091D01*
X160735814Y-103096835D01*
X160616054Y-103126510D01*
X160576278Y-103135281D01*
X160517253Y-103147567D01*
X160463414Y-103158013D01*
X160413205Y-103166877D01*
X160365074Y-103174413D01*
X160317469Y-103180877D01*
X160268835Y-103186526D01*
X160258778Y-103187588D01*
X160238732Y-103189185D01*
X160213512Y-103190438D01*
X160184439Y-103191348D01*
X160152833Y-103191913D01*
X160120014Y-103192134D01*
X160087303Y-103192011D01*
X160056020Y-103191543D01*
X160027485Y-103190730D01*
X160003019Y-103189572D01*
X159983941Y-103188069D01*
X159980083Y-103187629D01*
X159909587Y-103176359D01*
X159844668Y-103160777D01*
X159785314Y-103140875D01*
X159731511Y-103116642D01*
X159683246Y-103088071D01*
X159640506Y-103055152D01*
X159603275Y-103017875D01*
X159571542Y-102976233D01*
X159545292Y-102930216D01*
X159525814Y-102883556D01*
X159516564Y-102855336D01*
X159509950Y-102829790D01*
X159505611Y-102804670D01*
X159503189Y-102777726D01*
X159502323Y-102746710D01*
X159502311Y-102736690D01*
X159502506Y-102679783D01*
X159479541Y-102677430D01*
X159456577Y-102675078D01*
X159406819Y-102709010D01*
X159407261Y-102758359D01*
X159411246Y-102816590D01*
X159422027Y-102873341D01*
X159439427Y-102928195D01*
X159463267Y-102980732D01*
X159493369Y-103030536D01*
X159529554Y-103077188D01*
X159554774Y-103104155D01*
X159595410Y-103141000D01*
X159639140Y-103173371D01*
X159686472Y-103201491D01*
X159737911Y-103225584D01*
X159793966Y-103245873D01*
X159855143Y-103262584D01*
X159921948Y-103275938D01*
X159955389Y-103281113D01*
X159976455Y-103283389D01*
X160003303Y-103285185D01*
X160034675Y-103286500D01*
X160069315Y-103287334D01*
X160105966Y-103287688D01*
X160143369Y-103287562D01*
X160180269Y-103286956D01*
X160215407Y-103285870D01*
X160247526Y-103284303D01*
X160275370Y-103282257D01*
X160287000Y-103281088D01*
X160401247Y-103265915D01*
X160516379Y-103246055D01*
X160631524Y-103221770D01*
X160745809Y-103193321D01*
X160858359Y-103160969D01*
X160968303Y-103124975D01*
X161074766Y-103085600D01*
X161176876Y-103043106D01*
X161273760Y-102997754D01*
X161328608Y-102969498D01*
X161411718Y-102922751D01*
X161490658Y-102873631D01*
X161564981Y-102822487D01*
X161634241Y-102769668D01*
X161697993Y-102715522D01*
X161755791Y-102660397D01*
X161807188Y-102604643D01*
X161828880Y-102578480D01*
X161843589Y-102560572D01*
X161854647Y-102548259D01*
X161862321Y-102541267D01*
X161866878Y-102539322D01*
X161867106Y-102539373D01*
X161881682Y-102543012D01*
X161902129Y-102547139D01*
X161927296Y-102551588D01*
X161956029Y-102556193D01*
X161987174Y-102560787D01*
X162019579Y-102565204D01*
X162052091Y-102569276D01*
X162083556Y-102572837D01*
X162112821Y-102575720D01*
X162126736Y-102576893D01*
X162156996Y-102578630D01*
X162190509Y-102579311D01*
X162227721Y-102578909D01*
X162269075Y-102577398D01*
X162315017Y-102574750D01*
X162365991Y-102570938D01*
X162422441Y-102565937D01*
X162484812Y-102559719D01*
X162553548Y-102552256D01*
X162574764Y-102549853D01*
X162672696Y-102538039D01*
X162777110Y-102524253D01*
X162887726Y-102508544D01*
X163004267Y-102490962D01*
X163126454Y-102471559D01*
X163254011Y-102450386D01*
X163386657Y-102427492D01*
X163524117Y-102402928D01*
X163666110Y-102376746D01*
X163812360Y-102348995D01*
X163962588Y-102319727D01*
X164116517Y-102288991D01*
X164273867Y-102256840D01*
X164434361Y-102223322D01*
X164597721Y-102188489D01*
X164763669Y-102152392D01*
X164791972Y-102146166D01*
X164823505Y-102139268D01*
X164853573Y-102132787D01*
X164881326Y-102126899D01*
X164905913Y-102121780D01*
X164926484Y-102117607D01*
X164942186Y-102114556D01*
X164952170Y-102112804D01*
X164954250Y-102112520D01*
X164981629Y-102112603D01*
X165010597Y-102118198D01*
X165039337Y-102128640D01*
X165066032Y-102143263D01*
X165088863Y-102161400D01*
X165089577Y-102162097D01*
X165100334Y-102174458D01*
X165113559Y-102192584D01*
X165128873Y-102215782D01*
X165145898Y-102243362D01*
X165164253Y-102274633D01*
X165183562Y-102308902D01*
X165203444Y-102345479D01*
X165223521Y-102383671D01*
X165243415Y-102422789D01*
X165262747Y-102462139D01*
X165281137Y-102501031D01*
X165298208Y-102538774D01*
X165306938Y-102558888D01*
X165334418Y-102627828D01*
X165356295Y-102692753D01*
X165372564Y-102753631D01*
X165383220Y-102810428D01*
X165388258Y-102863112D01*
X165387674Y-102911650D01*
X165381462Y-102956008D01*
X165370303Y-102994355D01*
X165360721Y-103014617D01*
X165347158Y-103036530D01*
X165331359Y-103057628D01*
X165315072Y-103075441D01*
X165309089Y-103080860D01*
X165293700Y-103092771D01*
X165277081Y-103103287D01*
X165258689Y-103112518D01*
X165237978Y-103120574D01*
X165214406Y-103127565D01*
X165187427Y-103133602D01*
X165156498Y-103138794D01*
X165121074Y-103143252D01*
X165080612Y-103147086D01*
X165034567Y-103150405D01*
X164982396Y-103153321D01*
X164941903Y-103155182D01*
X164922132Y-103155961D01*
X164896304Y-103156876D01*
X164865416Y-103157897D01*
X164830464Y-103158994D01*
X164792446Y-103160137D01*
X164752357Y-103161294D01*
X164711195Y-103162437D01*
X164669956Y-103163534D01*
X164649097Y-103164070D01*
X164543132Y-103166865D01*
X164443623Y-103169728D01*
X164349971Y-103172688D01*
X164261576Y-103175774D01*
X164177840Y-103179016D01*
X164098162Y-103182444D01*
X164021944Y-103186086D01*
X163948587Y-103189972D01*
X163877491Y-103194132D01*
X163808056Y-103198595D01*
X163739683Y-103203390D01*
X163671774Y-103208548D01*
X163603729Y-103214096D01*
X163567833Y-103217168D01*
X163415425Y-103231484D01*
X163268916Y-103247501D01*
X163127314Y-103265426D01*
X162989629Y-103285462D01*
X162854869Y-103307813D01*
X162722042Y-103332686D01*
X162590156Y-103360283D01*
X162458221Y-103390811D01*
X162325244Y-103424473D01*
X162190234Y-103461474D01*
X162052199Y-103502018D01*
X161910149Y-103546311D01*
X161802181Y-103581516D01*
X161745529Y-103600415D01*
X161693101Y-103618181D01*
X161644324Y-103635079D01*
X161598627Y-103651377D01*
X161555437Y-103667340D01*
X161514184Y-103683235D01*
X161474295Y-103699327D01*
X161435199Y-103715884D01*
X161396325Y-103733170D01*
X161357099Y-103751452D01*
X161316952Y-103770997D01*
X161275310Y-103792071D01*
X161231602Y-103814939D01*
X161185257Y-103839869D01*
X161135703Y-103867125D01*
X161082368Y-103896975D01*
X161024680Y-103929684D01*
X160962068Y-103965519D01*
X160897306Y-104002815D01*
X160847113Y-104031743D01*
X160802343Y-104057450D01*
X160762339Y-104080298D01*
X160726445Y-104100648D01*
X160694006Y-104118863D01*
X160664365Y-104135303D01*
X160636866Y-104150330D01*
X160610853Y-104164307D01*
X160585670Y-104177594D01*
X160560662Y-104190554D01*
X160535172Y-104203549D01*
X160512778Y-104214820D01*
X160447461Y-104246741D01*
X160386674Y-104274702D01*
X160329369Y-104299064D01*
X160274501Y-104320188D01*
X160221022Y-104338436D01*
X160167885Y-104354169D01*
X160114043Y-104367748D01*
X160058449Y-104379537D01*
X160010975Y-104388094D01*
X159951699Y-104397475D01*
X159897114Y-104404849D01*
X159845196Y-104410377D01*
X159793926Y-104414223D01*
X159741279Y-104416550D01*
X159685234Y-104417522D01*
X159646708Y-104417509D01*
X159620120Y-104417309D01*
X159595076Y-104417051D01*
X159572670Y-104416751D01*
X159553997Y-104416426D01*
X159540149Y-104416092D01*
X159532223Y-104415767D01*
X159532056Y-104415755D01*
X159441009Y-104406740D01*
X159351200Y-104393096D01*
X159263485Y-104375042D01*
X159178718Y-104352798D01*
X159097756Y-104326583D01*
X159021455Y-104296619D01*
X158963791Y-104269817D01*
X158877957Y-104222919D01*
X158794330Y-104169377D01*
X158712988Y-104109273D01*
X158634006Y-104042690D01*
X158557461Y-103969708D01*
X158483429Y-103890411D01*
X158411985Y-103804879D01*
X158343207Y-103713196D01*
X158277171Y-103615442D01*
X158213952Y-103511701D01*
X158153627Y-103402053D01*
X158149300Y-103393746D01*
X158112293Y-103318734D01*
X158077779Y-103240989D01*
X158045400Y-103159580D01*
X158014798Y-103073574D01*
X157985612Y-102982039D01*
X157969110Y-102925758D01*
X157961543Y-102899169D01*
X157715806Y-102800044D01*
X157676329Y-102784069D01*
X157638813Y-102768791D01*
X157603766Y-102754422D01*
X157571694Y-102741173D01*
X157543102Y-102729257D01*
X157518498Y-102718887D01*
X157498388Y-102710274D01*
X157483278Y-102703630D01*
X157473674Y-102699168D01*
X157470083Y-102697101D01*
X157470069Y-102697055D01*
X157472644Y-102694178D01*
X157480115Y-102686965D01*
X157492098Y-102675762D01*
X157508213Y-102660917D01*
X157528078Y-102642776D01*
X157551310Y-102621686D01*
X157577529Y-102597994D01*
X157606351Y-102572048D01*
X157637395Y-102544193D01*
X157670280Y-102514778D01*
X157695847Y-102491966D01*
X157921625Y-102290741D01*
X157936003Y-102251022D01*
X157964338Y-102180948D01*
X157997586Y-102114045D01*
X158036152Y-102049707D01*
X158080445Y-101987324D01*
X158130870Y-101926287D01*
X158187835Y-101865990D01*
X158204224Y-101849917D01*
X158271538Y-101789739D01*
X158344130Y-101734059D01*
X158421734Y-101683010D01*
X158504086Y-101636722D01*
X158590921Y-101595330D01*
X158681974Y-101558964D01*
X158776979Y-101527758D01*
X158875671Y-101501842D01*
X158921750Y-101491834D01*
X158966147Y-101483197D01*
X159005869Y-101476427D01*
X159042979Y-101471295D01*
X159079540Y-101467572D01*
X159117614Y-101465029D01*
X159159265Y-101463439D01*
X159182806Y-101462916D01*
X159229574Y-101462493D01*
X159271031Y-101463103D01*
D12*
X169490000Y-97640000D03*
D13*
X169490000Y-100180000D03*
X169490000Y-102720000D03*
D14*
X169490000Y-105260000D03*
D13*
X169490000Y-107800000D03*
X169490000Y-116040000D03*
D14*
X169490000Y-118580000D03*
D15*
X157760000Y-109800000D03*
X161540000Y-109800000D03*
X157760000Y-109400000D03*
X161540000Y-109400000D03*
X157760000Y-109000000D03*
X161540000Y-109000000D03*
X157760000Y-108600000D03*
X161540000Y-108600000D03*
X157760000Y-108200000D03*
X161540000Y-108200000D03*
X157760000Y-107800000D03*
X161540000Y-107800000D03*
X157760000Y-107400000D03*
X161540000Y-107400000D03*
X157760000Y-107000000D03*
X161540000Y-107000000D03*
X157760000Y-106600000D03*
X161540000Y-106600000D03*
X157760000Y-106200000D03*
X161540000Y-106200000D03*
M02*
