G04 #@! TF.FileFunction,Soldermask,Top*
%FSLAX46Y46*%
G04 Gerber Fmt 4.6, Leading zero omitted, Abs format (unit mm)*
G04 Created by KiCad (PCBNEW 4.0.1-stable) date Saturday, January 30, 2016 'AMt' 12:46:15 AM*
%MOMM*%
G01*
G04 APERTURE LIST*
%ADD10C,0.100000*%
%ADD11C,0.010000*%
%ADD12O,2.432000X2.432000*%
%ADD13C,2.432000*%
%ADD14R,2.432000X2.432000*%
%ADD15R,1.100000X0.600000*%
%ADD16R,1.600000X1.300000*%
%ADD17R,3.400000X2.432000*%
%ADD18O,3.400000X2.432000*%
G04 APERTURE END LIST*
D10*
D11*
G36*
X159202729Y-121459564D02*
X159201512Y-121485508D01*
X159199405Y-121510124D01*
X159196319Y-121534568D01*
X159192163Y-121559999D01*
X159188931Y-121577168D01*
X159183687Y-121602517D01*
X159178076Y-121626699D01*
X159171868Y-121650431D01*
X159164836Y-121674429D01*
X159156750Y-121699412D01*
X159147382Y-121726095D01*
X159136502Y-121755196D01*
X159123882Y-121787433D01*
X159114064Y-121811820D01*
X159100762Y-121844200D01*
X159086953Y-121877073D01*
X159072506Y-121910715D01*
X159057292Y-121945404D01*
X159041180Y-121981417D01*
X159024041Y-122019031D01*
X159005745Y-122058524D01*
X158986161Y-122100172D01*
X158965160Y-122144253D01*
X158942611Y-122191044D01*
X158918385Y-122240822D01*
X158892352Y-122293864D01*
X158864381Y-122350448D01*
X158834343Y-122410850D01*
X158814564Y-122450459D01*
X158786596Y-122506490D01*
X158760721Y-122558559D01*
X158736791Y-122606988D01*
X158714657Y-122652102D01*
X158694170Y-122694224D01*
X158675181Y-122733679D01*
X158657543Y-122770790D01*
X158641105Y-122805881D01*
X158625720Y-122839276D01*
X158611238Y-122871299D01*
X158597511Y-122902273D01*
X158584390Y-122932524D01*
X158571726Y-122962374D01*
X158559371Y-122992148D01*
X158547175Y-123022169D01*
X158534991Y-123052761D01*
X158522669Y-123084249D01*
X158518108Y-123096029D01*
X158511739Y-123112479D01*
X158505795Y-123127757D01*
X158500540Y-123141184D01*
X158496241Y-123152085D01*
X158493163Y-123159780D01*
X158491626Y-123163479D01*
X158488499Y-123170453D01*
X158466854Y-123152374D01*
X158435173Y-123123873D01*
X158403107Y-123091092D01*
X158371033Y-123054528D01*
X158339328Y-123014680D01*
X158308370Y-122972044D01*
X158278536Y-122927117D01*
X158250204Y-122880398D01*
X158223751Y-122832384D01*
X158223102Y-122831143D01*
X158192323Y-122768462D01*
X158163291Y-122701875D01*
X158136203Y-122632059D01*
X158111259Y-122559691D01*
X158088655Y-122485448D01*
X158068590Y-122410008D01*
X158051261Y-122334046D01*
X158036866Y-122258242D01*
X158025604Y-122183271D01*
X158020217Y-122136876D01*
X158019136Y-122123122D01*
X158018287Y-122105842D01*
X158017671Y-122085936D01*
X158017287Y-122064304D01*
X158017135Y-122041847D01*
X158017216Y-122019465D01*
X158017530Y-121998058D01*
X158018076Y-121978527D01*
X158018855Y-121961772D01*
X158019867Y-121948693D01*
X158020197Y-121945771D01*
X158027899Y-121897644D01*
X158038558Y-121853278D01*
X158052167Y-121812693D01*
X158068719Y-121775913D01*
X158088207Y-121742956D01*
X158097192Y-121730357D01*
X158120889Y-121702485D01*
X158147003Y-121678707D01*
X158175864Y-121658783D01*
X158207801Y-121642472D01*
X158228704Y-121634275D01*
X158248013Y-121627956D01*
X158265569Y-121623438D01*
X158282905Y-121620478D01*
X158301552Y-121618830D01*
X158323039Y-121618252D01*
X158329407Y-121618248D01*
X158368424Y-121618385D01*
X158370043Y-121602590D01*
X158371661Y-121586795D01*
X158360054Y-121569736D01*
X158348447Y-121552676D01*
X158325466Y-121551971D01*
X158293256Y-121553042D01*
X158259569Y-121557967D01*
X158225412Y-121566445D01*
X158191792Y-121578179D01*
X158159715Y-121592870D01*
X158131038Y-121609657D01*
X158098226Y-121634193D01*
X158068661Y-121662306D01*
X158042351Y-121693984D01*
X158019303Y-121729212D01*
X157999524Y-121767975D01*
X157983022Y-121810260D01*
X157969803Y-121856051D01*
X157959874Y-121905335D01*
X157953244Y-121958098D01*
X157952712Y-121964165D01*
X157951560Y-121983351D01*
X157950937Y-122006266D01*
X157950819Y-122031833D01*
X157951179Y-122058974D01*
X157951990Y-122086613D01*
X157953227Y-122113672D01*
X157954865Y-122139074D01*
X157956876Y-122161742D01*
X157957647Y-122168696D01*
X157968328Y-122245758D01*
X157982248Y-122323900D01*
X157999193Y-122402359D01*
X158018951Y-122480372D01*
X158041309Y-122557179D01*
X158066055Y-122632018D01*
X158092976Y-122704126D01*
X158121859Y-122772742D01*
X158133200Y-122797519D01*
X158162826Y-122857409D01*
X158194395Y-122914890D01*
X158227677Y-122969644D01*
X158262440Y-123021355D01*
X158298452Y-123069708D01*
X158335481Y-123114385D01*
X158373297Y-123155071D01*
X158411668Y-123191449D01*
X158437461Y-123213167D01*
X158449842Y-123223329D01*
X158458393Y-123230981D01*
X158463303Y-123236308D01*
X158464760Y-123239493D01*
X158464715Y-123239730D01*
X158462220Y-123249725D01*
X158459390Y-123263746D01*
X158456339Y-123281003D01*
X158453182Y-123300705D01*
X158450031Y-123322062D01*
X158447003Y-123344283D01*
X158444211Y-123366576D01*
X158441769Y-123388152D01*
X158439792Y-123408220D01*
X158438988Y-123417762D01*
X158437797Y-123438511D01*
X158437330Y-123461492D01*
X158437605Y-123487009D01*
X158438642Y-123515366D01*
X158440457Y-123546869D01*
X158443071Y-123581823D01*
X158446500Y-123620531D01*
X158450764Y-123663300D01*
X158455881Y-123710433D01*
X158457529Y-123724981D01*
X158465630Y-123792135D01*
X158475084Y-123863732D01*
X158485856Y-123939583D01*
X158497912Y-124019497D01*
X158511216Y-124103283D01*
X158525735Y-124190750D01*
X158541434Y-124281708D01*
X158558278Y-124375966D01*
X158576231Y-124473333D01*
X158595260Y-124573619D01*
X158615330Y-124676632D01*
X158636406Y-124782183D01*
X158658453Y-124890080D01*
X158681436Y-125000133D01*
X158705321Y-125112152D01*
X158730074Y-125225945D01*
X158734343Y-125245352D01*
X158739073Y-125266975D01*
X158743518Y-125287593D01*
X158747555Y-125306624D01*
X158751065Y-125323484D01*
X158753926Y-125337589D01*
X158756018Y-125348356D01*
X158757220Y-125355202D01*
X158757415Y-125356629D01*
X158757358Y-125375403D01*
X158753521Y-125395267D01*
X158746361Y-125414974D01*
X158736334Y-125433279D01*
X158723897Y-125448935D01*
X158723419Y-125449424D01*
X158714943Y-125456801D01*
X158702514Y-125465869D01*
X158686606Y-125476370D01*
X158667694Y-125488044D01*
X158646252Y-125500631D01*
X158622753Y-125513871D01*
X158597672Y-125527504D01*
X158571482Y-125541272D01*
X158544659Y-125554913D01*
X158517676Y-125568169D01*
X158491007Y-125580780D01*
X158465126Y-125592485D01*
X158451334Y-125598472D01*
X158404061Y-125617315D01*
X158359540Y-125632317D01*
X158317796Y-125643473D01*
X158278849Y-125650779D01*
X158242723Y-125654234D01*
X158209440Y-125653833D01*
X158179023Y-125649574D01*
X158152728Y-125641922D01*
X158138834Y-125635352D01*
X158123808Y-125626051D01*
X158109341Y-125615218D01*
X158097126Y-125604050D01*
X158093410Y-125599947D01*
X158085243Y-125589394D01*
X158078032Y-125577999D01*
X158071702Y-125565387D01*
X158066178Y-125551185D01*
X158061384Y-125535021D01*
X158057244Y-125516521D01*
X158053684Y-125495313D01*
X158050627Y-125471022D01*
X158047998Y-125443277D01*
X158045722Y-125411703D01*
X158043723Y-125375928D01*
X158042446Y-125348162D01*
X158041912Y-125334605D01*
X158041285Y-125316894D01*
X158040585Y-125295714D01*
X158039832Y-125271747D01*
X158039049Y-125245677D01*
X158038255Y-125218188D01*
X158037472Y-125189962D01*
X158036719Y-125161684D01*
X158036352Y-125147381D01*
X158034435Y-125074719D01*
X158032472Y-125006484D01*
X158030442Y-124942266D01*
X158028326Y-124881652D01*
X158026103Y-124824233D01*
X158023753Y-124769597D01*
X158021255Y-124717333D01*
X158018590Y-124667031D01*
X158015738Y-124618279D01*
X158012678Y-124570667D01*
X158009389Y-124523783D01*
X158005853Y-124477217D01*
X158002048Y-124430557D01*
X157999941Y-124405943D01*
X157990125Y-124301434D01*
X157979142Y-124200971D01*
X157966851Y-124103873D01*
X157953112Y-124009460D01*
X157937785Y-123917053D01*
X157920730Y-123825972D01*
X157901805Y-123735536D01*
X157880872Y-123645066D01*
X157857790Y-123553882D01*
X157832418Y-123461303D01*
X157804616Y-123366651D01*
X157774243Y-123269245D01*
X157750103Y-123195210D01*
X157737144Y-123156363D01*
X157724962Y-123120412D01*
X157713374Y-123086965D01*
X157702198Y-123055630D01*
X157691252Y-123026014D01*
X157680353Y-122997726D01*
X157669318Y-122970374D01*
X157657965Y-122943565D01*
X157646112Y-122916908D01*
X157633575Y-122890011D01*
X157620173Y-122862481D01*
X157605723Y-122833927D01*
X157590041Y-122803956D01*
X157572947Y-122772176D01*
X157554257Y-122738196D01*
X157533788Y-122701624D01*
X157511359Y-122662066D01*
X157486787Y-122619132D01*
X157461212Y-122574724D01*
X157441376Y-122540306D01*
X157423748Y-122509607D01*
X157408081Y-122482175D01*
X157394127Y-122457562D01*
X157381637Y-122435318D01*
X157370364Y-122414993D01*
X157360059Y-122396136D01*
X157350475Y-122378299D01*
X157341364Y-122361031D01*
X157332477Y-122343882D01*
X157323567Y-122326404D01*
X157315838Y-122311048D01*
X157293949Y-122266259D01*
X157274775Y-122224576D01*
X157258070Y-122185282D01*
X157243585Y-122147658D01*
X157231073Y-122110986D01*
X157220284Y-122074550D01*
X157210972Y-122037629D01*
X157202889Y-121999508D01*
X157197021Y-121966955D01*
X157190588Y-121926308D01*
X157185532Y-121888878D01*
X157181742Y-121853278D01*
X157179104Y-121818120D01*
X157177508Y-121782020D01*
X157176842Y-121743589D01*
X157176851Y-121717171D01*
X157176988Y-121698939D01*
X157177165Y-121681766D01*
X157177370Y-121666402D01*
X157177593Y-121653598D01*
X157177822Y-121644102D01*
X157178045Y-121638667D01*
X157178053Y-121638552D01*
X157184235Y-121576121D01*
X157193591Y-121514537D01*
X157205971Y-121454390D01*
X157221224Y-121396264D01*
X157239200Y-121340747D01*
X157259747Y-121288426D01*
X157278125Y-121248886D01*
X157310284Y-121190028D01*
X157346998Y-121132684D01*
X157388212Y-121076906D01*
X157433870Y-121022747D01*
X157483914Y-120970259D01*
X157538290Y-120919494D01*
X157596940Y-120870504D01*
X157659808Y-120823342D01*
X157726839Y-120778060D01*
X157797976Y-120734710D01*
X157873163Y-120693344D01*
X157878860Y-120690377D01*
X157930297Y-120665001D01*
X157983607Y-120641334D01*
X158039431Y-120619132D01*
X158098406Y-120598147D01*
X158161173Y-120578134D01*
X158199766Y-120566818D01*
X158217998Y-120561630D01*
X158285970Y-120393124D01*
X158296924Y-120366054D01*
X158307400Y-120340329D01*
X158317254Y-120316297D01*
X158326338Y-120294304D01*
X158334509Y-120274699D01*
X158341620Y-120257827D01*
X158347526Y-120244038D01*
X158352082Y-120233676D01*
X158355141Y-120227091D01*
X158356559Y-120224628D01*
X158356591Y-120224619D01*
X158358563Y-120226385D01*
X158363510Y-120231507D01*
X158371192Y-120239724D01*
X158381371Y-120250775D01*
X158393811Y-120264396D01*
X158408272Y-120280327D01*
X158424518Y-120298305D01*
X158442310Y-120318069D01*
X158461410Y-120339357D01*
X158481581Y-120361906D01*
X158497223Y-120379438D01*
X158635206Y-120534257D01*
X158662442Y-120544116D01*
X158710493Y-120563546D01*
X158756369Y-120586344D01*
X158800487Y-120612790D01*
X158843264Y-120643162D01*
X158885117Y-120677739D01*
X158926464Y-120716801D01*
X158937485Y-120728039D01*
X158978750Y-120774198D01*
X159016931Y-120823975D01*
X159051936Y-120877189D01*
X159083676Y-120933659D01*
X159112059Y-120993203D01*
X159136996Y-121055639D01*
X159158395Y-121120785D01*
X159176165Y-121188460D01*
X159183028Y-121220057D01*
X159188950Y-121250501D01*
X159193593Y-121277739D01*
X159197112Y-121303186D01*
X159199665Y-121328256D01*
X159201408Y-121354364D01*
X159202499Y-121382925D01*
X159202857Y-121399067D01*
X159203147Y-121431136D01*
X159202729Y-121459564D01*
X159202729Y-121459564D01*
G37*
X159202729Y-121459564D02*
X159201512Y-121485508D01*
X159199405Y-121510124D01*
X159196319Y-121534568D01*
X159192163Y-121559999D01*
X159188931Y-121577168D01*
X159183687Y-121602517D01*
X159178076Y-121626699D01*
X159171868Y-121650431D01*
X159164836Y-121674429D01*
X159156750Y-121699412D01*
X159147382Y-121726095D01*
X159136502Y-121755196D01*
X159123882Y-121787433D01*
X159114064Y-121811820D01*
X159100762Y-121844200D01*
X159086953Y-121877073D01*
X159072506Y-121910715D01*
X159057292Y-121945404D01*
X159041180Y-121981417D01*
X159024041Y-122019031D01*
X159005745Y-122058524D01*
X158986161Y-122100172D01*
X158965160Y-122144253D01*
X158942611Y-122191044D01*
X158918385Y-122240822D01*
X158892352Y-122293864D01*
X158864381Y-122350448D01*
X158834343Y-122410850D01*
X158814564Y-122450459D01*
X158786596Y-122506490D01*
X158760721Y-122558559D01*
X158736791Y-122606988D01*
X158714657Y-122652102D01*
X158694170Y-122694224D01*
X158675181Y-122733679D01*
X158657543Y-122770790D01*
X158641105Y-122805881D01*
X158625720Y-122839276D01*
X158611238Y-122871299D01*
X158597511Y-122902273D01*
X158584390Y-122932524D01*
X158571726Y-122962374D01*
X158559371Y-122992148D01*
X158547175Y-123022169D01*
X158534991Y-123052761D01*
X158522669Y-123084249D01*
X158518108Y-123096029D01*
X158511739Y-123112479D01*
X158505795Y-123127757D01*
X158500540Y-123141184D01*
X158496241Y-123152085D01*
X158493163Y-123159780D01*
X158491626Y-123163479D01*
X158488499Y-123170453D01*
X158466854Y-123152374D01*
X158435173Y-123123873D01*
X158403107Y-123091092D01*
X158371033Y-123054528D01*
X158339328Y-123014680D01*
X158308370Y-122972044D01*
X158278536Y-122927117D01*
X158250204Y-122880398D01*
X158223751Y-122832384D01*
X158223102Y-122831143D01*
X158192323Y-122768462D01*
X158163291Y-122701875D01*
X158136203Y-122632059D01*
X158111259Y-122559691D01*
X158088655Y-122485448D01*
X158068590Y-122410008D01*
X158051261Y-122334046D01*
X158036866Y-122258242D01*
X158025604Y-122183271D01*
X158020217Y-122136876D01*
X158019136Y-122123122D01*
X158018287Y-122105842D01*
X158017671Y-122085936D01*
X158017287Y-122064304D01*
X158017135Y-122041847D01*
X158017216Y-122019465D01*
X158017530Y-121998058D01*
X158018076Y-121978527D01*
X158018855Y-121961772D01*
X158019867Y-121948693D01*
X158020197Y-121945771D01*
X158027899Y-121897644D01*
X158038558Y-121853278D01*
X158052167Y-121812693D01*
X158068719Y-121775913D01*
X158088207Y-121742956D01*
X158097192Y-121730357D01*
X158120889Y-121702485D01*
X158147003Y-121678707D01*
X158175864Y-121658783D01*
X158207801Y-121642472D01*
X158228704Y-121634275D01*
X158248013Y-121627956D01*
X158265569Y-121623438D01*
X158282905Y-121620478D01*
X158301552Y-121618830D01*
X158323039Y-121618252D01*
X158329407Y-121618248D01*
X158368424Y-121618385D01*
X158370043Y-121602590D01*
X158371661Y-121586795D01*
X158360054Y-121569736D01*
X158348447Y-121552676D01*
X158325466Y-121551971D01*
X158293256Y-121553042D01*
X158259569Y-121557967D01*
X158225412Y-121566445D01*
X158191792Y-121578179D01*
X158159715Y-121592870D01*
X158131038Y-121609657D01*
X158098226Y-121634193D01*
X158068661Y-121662306D01*
X158042351Y-121693984D01*
X158019303Y-121729212D01*
X157999524Y-121767975D01*
X157983022Y-121810260D01*
X157969803Y-121856051D01*
X157959874Y-121905335D01*
X157953244Y-121958098D01*
X157952712Y-121964165D01*
X157951560Y-121983351D01*
X157950937Y-122006266D01*
X157950819Y-122031833D01*
X157951179Y-122058974D01*
X157951990Y-122086613D01*
X157953227Y-122113672D01*
X157954865Y-122139074D01*
X157956876Y-122161742D01*
X157957647Y-122168696D01*
X157968328Y-122245758D01*
X157982248Y-122323900D01*
X157999193Y-122402359D01*
X158018951Y-122480372D01*
X158041309Y-122557179D01*
X158066055Y-122632018D01*
X158092976Y-122704126D01*
X158121859Y-122772742D01*
X158133200Y-122797519D01*
X158162826Y-122857409D01*
X158194395Y-122914890D01*
X158227677Y-122969644D01*
X158262440Y-123021355D01*
X158298452Y-123069708D01*
X158335481Y-123114385D01*
X158373297Y-123155071D01*
X158411668Y-123191449D01*
X158437461Y-123213167D01*
X158449842Y-123223329D01*
X158458393Y-123230981D01*
X158463303Y-123236308D01*
X158464760Y-123239493D01*
X158464715Y-123239730D01*
X158462220Y-123249725D01*
X158459390Y-123263746D01*
X158456339Y-123281003D01*
X158453182Y-123300705D01*
X158450031Y-123322062D01*
X158447003Y-123344283D01*
X158444211Y-123366576D01*
X158441769Y-123388152D01*
X158439792Y-123408220D01*
X158438988Y-123417762D01*
X158437797Y-123438511D01*
X158437330Y-123461492D01*
X158437605Y-123487009D01*
X158438642Y-123515366D01*
X158440457Y-123546869D01*
X158443071Y-123581823D01*
X158446500Y-123620531D01*
X158450764Y-123663300D01*
X158455881Y-123710433D01*
X158457529Y-123724981D01*
X158465630Y-123792135D01*
X158475084Y-123863732D01*
X158485856Y-123939583D01*
X158497912Y-124019497D01*
X158511216Y-124103283D01*
X158525735Y-124190750D01*
X158541434Y-124281708D01*
X158558278Y-124375966D01*
X158576231Y-124473333D01*
X158595260Y-124573619D01*
X158615330Y-124676632D01*
X158636406Y-124782183D01*
X158658453Y-124890080D01*
X158681436Y-125000133D01*
X158705321Y-125112152D01*
X158730074Y-125225945D01*
X158734343Y-125245352D01*
X158739073Y-125266975D01*
X158743518Y-125287593D01*
X158747555Y-125306624D01*
X158751065Y-125323484D01*
X158753926Y-125337589D01*
X158756018Y-125348356D01*
X158757220Y-125355202D01*
X158757415Y-125356629D01*
X158757358Y-125375403D01*
X158753521Y-125395267D01*
X158746361Y-125414974D01*
X158736334Y-125433279D01*
X158723897Y-125448935D01*
X158723419Y-125449424D01*
X158714943Y-125456801D01*
X158702514Y-125465869D01*
X158686606Y-125476370D01*
X158667694Y-125488044D01*
X158646252Y-125500631D01*
X158622753Y-125513871D01*
X158597672Y-125527504D01*
X158571482Y-125541272D01*
X158544659Y-125554913D01*
X158517676Y-125568169D01*
X158491007Y-125580780D01*
X158465126Y-125592485D01*
X158451334Y-125598472D01*
X158404061Y-125617315D01*
X158359540Y-125632317D01*
X158317796Y-125643473D01*
X158278849Y-125650779D01*
X158242723Y-125654234D01*
X158209440Y-125653833D01*
X158179023Y-125649574D01*
X158152728Y-125641922D01*
X158138834Y-125635352D01*
X158123808Y-125626051D01*
X158109341Y-125615218D01*
X158097126Y-125604050D01*
X158093410Y-125599947D01*
X158085243Y-125589394D01*
X158078032Y-125577999D01*
X158071702Y-125565387D01*
X158066178Y-125551185D01*
X158061384Y-125535021D01*
X158057244Y-125516521D01*
X158053684Y-125495313D01*
X158050627Y-125471022D01*
X158047998Y-125443277D01*
X158045722Y-125411703D01*
X158043723Y-125375928D01*
X158042446Y-125348162D01*
X158041912Y-125334605D01*
X158041285Y-125316894D01*
X158040585Y-125295714D01*
X158039832Y-125271747D01*
X158039049Y-125245677D01*
X158038255Y-125218188D01*
X158037472Y-125189962D01*
X158036719Y-125161684D01*
X158036352Y-125147381D01*
X158034435Y-125074719D01*
X158032472Y-125006484D01*
X158030442Y-124942266D01*
X158028326Y-124881652D01*
X158026103Y-124824233D01*
X158023753Y-124769597D01*
X158021255Y-124717333D01*
X158018590Y-124667031D01*
X158015738Y-124618279D01*
X158012678Y-124570667D01*
X158009389Y-124523783D01*
X158005853Y-124477217D01*
X158002048Y-124430557D01*
X157999941Y-124405943D01*
X157990125Y-124301434D01*
X157979142Y-124200971D01*
X157966851Y-124103873D01*
X157953112Y-124009460D01*
X157937785Y-123917053D01*
X157920730Y-123825972D01*
X157901805Y-123735536D01*
X157880872Y-123645066D01*
X157857790Y-123553882D01*
X157832418Y-123461303D01*
X157804616Y-123366651D01*
X157774243Y-123269245D01*
X157750103Y-123195210D01*
X157737144Y-123156363D01*
X157724962Y-123120412D01*
X157713374Y-123086965D01*
X157702198Y-123055630D01*
X157691252Y-123026014D01*
X157680353Y-122997726D01*
X157669318Y-122970374D01*
X157657965Y-122943565D01*
X157646112Y-122916908D01*
X157633575Y-122890011D01*
X157620173Y-122862481D01*
X157605723Y-122833927D01*
X157590041Y-122803956D01*
X157572947Y-122772176D01*
X157554257Y-122738196D01*
X157533788Y-122701624D01*
X157511359Y-122662066D01*
X157486787Y-122619132D01*
X157461212Y-122574724D01*
X157441376Y-122540306D01*
X157423748Y-122509607D01*
X157408081Y-122482175D01*
X157394127Y-122457562D01*
X157381637Y-122435318D01*
X157370364Y-122414993D01*
X157360059Y-122396136D01*
X157350475Y-122378299D01*
X157341364Y-122361031D01*
X157332477Y-122343882D01*
X157323567Y-122326404D01*
X157315838Y-122311048D01*
X157293949Y-122266259D01*
X157274775Y-122224576D01*
X157258070Y-122185282D01*
X157243585Y-122147658D01*
X157231073Y-122110986D01*
X157220284Y-122074550D01*
X157210972Y-122037629D01*
X157202889Y-121999508D01*
X157197021Y-121966955D01*
X157190588Y-121926308D01*
X157185532Y-121888878D01*
X157181742Y-121853278D01*
X157179104Y-121818120D01*
X157177508Y-121782020D01*
X157176842Y-121743589D01*
X157176851Y-121717171D01*
X157176988Y-121698939D01*
X157177165Y-121681766D01*
X157177370Y-121666402D01*
X157177593Y-121653598D01*
X157177822Y-121644102D01*
X157178045Y-121638667D01*
X157178053Y-121638552D01*
X157184235Y-121576121D01*
X157193591Y-121514537D01*
X157205971Y-121454390D01*
X157221224Y-121396264D01*
X157239200Y-121340747D01*
X157259747Y-121288426D01*
X157278125Y-121248886D01*
X157310284Y-121190028D01*
X157346998Y-121132684D01*
X157388212Y-121076906D01*
X157433870Y-121022747D01*
X157483914Y-120970259D01*
X157538290Y-120919494D01*
X157596940Y-120870504D01*
X157659808Y-120823342D01*
X157726839Y-120778060D01*
X157797976Y-120734710D01*
X157873163Y-120693344D01*
X157878860Y-120690377D01*
X157930297Y-120665001D01*
X157983607Y-120641334D01*
X158039431Y-120619132D01*
X158098406Y-120598147D01*
X158161173Y-120578134D01*
X158199766Y-120566818D01*
X158217998Y-120561630D01*
X158285970Y-120393124D01*
X158296924Y-120366054D01*
X158307400Y-120340329D01*
X158317254Y-120316297D01*
X158326338Y-120294304D01*
X158334509Y-120274699D01*
X158341620Y-120257827D01*
X158347526Y-120244038D01*
X158352082Y-120233676D01*
X158355141Y-120227091D01*
X158356559Y-120224628D01*
X158356591Y-120224619D01*
X158358563Y-120226385D01*
X158363510Y-120231507D01*
X158371192Y-120239724D01*
X158381371Y-120250775D01*
X158393811Y-120264396D01*
X158408272Y-120280327D01*
X158424518Y-120298305D01*
X158442310Y-120318069D01*
X158461410Y-120339357D01*
X158481581Y-120361906D01*
X158497223Y-120379438D01*
X158635206Y-120534257D01*
X158662442Y-120544116D01*
X158710493Y-120563546D01*
X158756369Y-120586344D01*
X158800487Y-120612790D01*
X158843264Y-120643162D01*
X158885117Y-120677739D01*
X158926464Y-120716801D01*
X158937485Y-120728039D01*
X158978750Y-120774198D01*
X159016931Y-120823975D01*
X159051936Y-120877189D01*
X159083676Y-120933659D01*
X159112059Y-120993203D01*
X159136996Y-121055639D01*
X159158395Y-121120785D01*
X159176165Y-121188460D01*
X159183028Y-121220057D01*
X159188950Y-121250501D01*
X159193593Y-121277739D01*
X159197112Y-121303186D01*
X159199665Y-121328256D01*
X159201408Y-121354364D01*
X159202499Y-121382925D01*
X159202857Y-121399067D01*
X159203147Y-121431136D01*
X159202729Y-121459564D01*
D12*
X170130000Y-100820000D03*
D13*
X170130000Y-103360000D03*
X170130000Y-105900000D03*
D14*
X170130000Y-108440000D03*
D13*
X170130000Y-110980000D03*
D15*
X157760000Y-109800000D03*
X161540000Y-109800000D03*
X157760000Y-109400000D03*
X161540000Y-109400000D03*
X157760000Y-109000000D03*
X161540000Y-109000000D03*
X157760000Y-108600000D03*
X161540000Y-108600000D03*
X157760000Y-108200000D03*
X161540000Y-108200000D03*
X157760000Y-107800000D03*
X161540000Y-107800000D03*
X157760000Y-107400000D03*
X161540000Y-107400000D03*
X157760000Y-107000000D03*
X161540000Y-107000000D03*
X157760000Y-106600000D03*
X161540000Y-106600000D03*
X157760000Y-106200000D03*
X161540000Y-106200000D03*
D16*
X160280000Y-102690000D03*
X158080000Y-102690000D03*
X158080000Y-100710000D03*
X160280000Y-100710000D03*
D17*
X158250000Y-95000000D03*
D18*
X158250000Y-92460000D03*
D17*
X157990000Y-116050000D03*
D18*
X157990000Y-118590000D03*
M02*
