G04 #@! TF.FileFunction,Copper,L1,Top,Signal*
%FSLAX46Y46*%
G04 Gerber Fmt 4.6, Leading zero omitted, Abs format (unit mm)*
G04 Created by KiCad (PCBNEW 4.0.1-stable) date Friday, March 04, 2016 'AMt' 12:55:25 AM*
%MOMM*%
G01*
G04 APERTURE LIST*
%ADD10C,0.100000*%
%ADD11C,0.010000*%
%ADD12C,1.000000*%
%ADD13O,2.032000X2.032000*%
%ADD14C,2.032000*%
%ADD15R,2.032000X2.032000*%
%ADD16R,1.200000X0.900000*%
%ADD17R,3.000000X2.032000*%
%ADD18O,3.000000X2.032000*%
%ADD19R,0.700000X0.200000*%
%ADD20C,0.685800*%
%ADD21C,0.508000*%
%ADD22C,0.152400*%
%ADD23C,0.250000*%
%ADD24C,0.254000*%
G04 APERTURE END LIST*
D10*
D11*
G36*
X159141912Y-121189328D02*
X159179087Y-121189340D01*
X159211821Y-121189366D01*
X159240406Y-121189411D01*
X159265137Y-121189481D01*
X159286306Y-121189581D01*
X159304208Y-121189715D01*
X159319136Y-121189889D01*
X159331384Y-121190109D01*
X159341247Y-121190379D01*
X159349017Y-121190705D01*
X159354988Y-121191092D01*
X159359454Y-121191544D01*
X159362709Y-121192067D01*
X159365046Y-121192667D01*
X159366760Y-121193349D01*
X159368032Y-121194048D01*
X159374217Y-121199369D01*
X159378517Y-121205738D01*
X159378618Y-121205984D01*
X159379468Y-121209432D01*
X159381162Y-121217481D01*
X159383633Y-121229785D01*
X159386816Y-121245999D01*
X159390644Y-121265777D01*
X159395052Y-121288772D01*
X159399972Y-121314640D01*
X159405339Y-121343034D01*
X159411087Y-121373609D01*
X159417150Y-121406019D01*
X159423461Y-121439918D01*
X159426888Y-121458396D01*
X159433321Y-121493102D01*
X159439535Y-121526614D01*
X159445466Y-121558574D01*
X159451046Y-121588625D01*
X159456209Y-121616411D01*
X159460889Y-121641572D01*
X159465018Y-121663753D01*
X159468531Y-121682596D01*
X159471362Y-121697743D01*
X159473443Y-121708837D01*
X159474708Y-121715522D01*
X159475013Y-121717096D01*
X159475885Y-121721591D01*
X159476785Y-121725572D01*
X159478016Y-121729199D01*
X159479879Y-121732631D01*
X159482678Y-121736027D01*
X159486715Y-121739546D01*
X159492292Y-121743349D01*
X159499712Y-121747593D01*
X159509277Y-121752440D01*
X159521290Y-121758046D01*
X159536054Y-121764573D01*
X159553871Y-121772180D01*
X159575043Y-121781025D01*
X159599873Y-121791268D01*
X159628663Y-121803068D01*
X159661716Y-121816586D01*
X159671628Y-121820639D01*
X159706076Y-121834740D01*
X159736188Y-121847060D01*
X159762294Y-121857692D01*
X159784727Y-121866727D01*
X159803816Y-121874258D01*
X159819894Y-121880378D01*
X159833292Y-121885177D01*
X159844341Y-121888748D01*
X159853372Y-121891184D01*
X159860717Y-121892576D01*
X159866707Y-121893017D01*
X159871673Y-121892599D01*
X159875947Y-121891413D01*
X159879860Y-121889553D01*
X159883743Y-121887110D01*
X159887927Y-121884176D01*
X159891390Y-121881759D01*
X159895895Y-121878675D01*
X159904234Y-121872960D01*
X159916094Y-121864828D01*
X159931161Y-121854496D01*
X159949123Y-121842176D01*
X159969666Y-121828085D01*
X159992477Y-121812437D01*
X160017244Y-121795447D01*
X160043652Y-121777329D01*
X160071388Y-121758299D01*
X160100140Y-121738571D01*
X160111367Y-121730867D01*
X160144967Y-121707819D01*
X160174678Y-121687457D01*
X160200756Y-121669616D01*
X160223454Y-121654130D01*
X160243028Y-121640833D01*
X160259732Y-121629561D01*
X160273819Y-121620146D01*
X160285546Y-121612424D01*
X160295166Y-121606229D01*
X160302934Y-121601394D01*
X160309104Y-121597754D01*
X160313931Y-121595144D01*
X160317669Y-121593398D01*
X160320573Y-121592350D01*
X160322897Y-121591833D01*
X160324895Y-121591684D01*
X160325110Y-121591683D01*
X160336011Y-121591683D01*
X160522758Y-121778429D01*
X160552582Y-121808256D01*
X160579048Y-121834738D01*
X160602358Y-121858086D01*
X160622712Y-121878513D01*
X160640310Y-121896229D01*
X160655352Y-121911445D01*
X160668040Y-121924372D01*
X160678573Y-121935223D01*
X160687152Y-121944207D01*
X160693977Y-121951537D01*
X160699249Y-121957423D01*
X160703168Y-121962076D01*
X160705935Y-121965708D01*
X160707749Y-121968530D01*
X160708812Y-121970754D01*
X160709323Y-121972589D01*
X160709484Y-121974249D01*
X160709495Y-121975217D01*
X160708249Y-121984021D01*
X160705215Y-121992217D01*
X160704773Y-121992985D01*
X160702686Y-121996153D01*
X160697958Y-122003162D01*
X160690798Y-122013709D01*
X160681414Y-122027491D01*
X160670012Y-122044203D01*
X160656801Y-122063542D01*
X160641987Y-122085204D01*
X160625780Y-122108884D01*
X160608385Y-122134279D01*
X160590012Y-122161086D01*
X160570866Y-122188999D01*
X160568179Y-122192916D01*
X160548759Y-122221219D01*
X160529948Y-122248639D01*
X160511966Y-122274850D01*
X160495037Y-122299529D01*
X160479383Y-122322353D01*
X160465226Y-122342997D01*
X160452787Y-122361137D01*
X160442289Y-122376450D01*
X160433954Y-122388611D01*
X160428005Y-122397297D01*
X160424663Y-122402184D01*
X160424525Y-122402386D01*
X160421271Y-122407029D01*
X160418436Y-122411113D01*
X160416117Y-122414966D01*
X160414410Y-122418916D01*
X160413412Y-122423290D01*
X160413218Y-122428418D01*
X160413927Y-122434628D01*
X160415635Y-122442247D01*
X160418437Y-122451604D01*
X160422431Y-122463027D01*
X160427713Y-122476845D01*
X160434381Y-122493385D01*
X160442529Y-122512975D01*
X160452256Y-122535945D01*
X160463657Y-122562621D01*
X160476830Y-122593333D01*
X160489234Y-122622256D01*
X160501459Y-122650761D01*
X160513181Y-122678056D01*
X160524240Y-122703768D01*
X160534475Y-122727524D01*
X160543723Y-122748952D01*
X160551825Y-122767678D01*
X160558620Y-122783330D01*
X160563945Y-122795536D01*
X160567640Y-122803921D01*
X160569544Y-122808114D01*
X160569671Y-122808370D01*
X160574634Y-122815307D01*
X160581041Y-122821298D01*
X160581084Y-122821329D01*
X160582257Y-122822180D01*
X160583418Y-122822962D01*
X160584835Y-122823728D01*
X160586774Y-122824531D01*
X160589505Y-122825425D01*
X160593294Y-122826463D01*
X160598410Y-122827699D01*
X160605119Y-122829185D01*
X160613691Y-122830974D01*
X160624392Y-122833121D01*
X160637490Y-122835678D01*
X160653253Y-122838699D01*
X160671948Y-122842236D01*
X160693845Y-122846344D01*
X160719209Y-122851075D01*
X160748308Y-122856483D01*
X160781412Y-122862621D01*
X160818786Y-122869543D01*
X160860700Y-122877300D01*
X160884287Y-122881666D01*
X160914902Y-122887339D01*
X160944300Y-122892800D01*
X160972076Y-122897972D01*
X160997820Y-122902779D01*
X161021124Y-122907143D01*
X161041580Y-122910989D01*
X161058782Y-122914240D01*
X161072319Y-122916819D01*
X161081786Y-122918650D01*
X161086773Y-122919656D01*
X161087099Y-122919729D01*
X161095862Y-122922846D01*
X161103200Y-122927326D01*
X161104703Y-122928716D01*
X161110623Y-122935018D01*
X161111262Y-123198246D01*
X161111362Y-123240381D01*
X161111443Y-123277778D01*
X161111500Y-123310730D01*
X161111528Y-123339530D01*
X161111523Y-123364469D01*
X161111481Y-123385841D01*
X161111396Y-123403938D01*
X161111265Y-123419052D01*
X161111083Y-123431475D01*
X161110845Y-123441500D01*
X161110546Y-123449419D01*
X161110183Y-123455525D01*
X161109751Y-123460110D01*
X161109245Y-123463466D01*
X161108660Y-123465886D01*
X161107993Y-123467663D01*
X161107238Y-123469088D01*
X161107056Y-123469389D01*
X161100775Y-123476182D01*
X161093843Y-123480019D01*
X161089972Y-123480937D01*
X161081590Y-123482681D01*
X161069132Y-123485167D01*
X161053035Y-123488312D01*
X161033733Y-123492032D01*
X161011662Y-123496243D01*
X160987258Y-123500861D01*
X160960957Y-123505803D01*
X160933193Y-123510984D01*
X160922010Y-123513062D01*
X160876078Y-123521585D01*
X160834833Y-123529241D01*
X160798017Y-123536081D01*
X160765370Y-123542152D01*
X160736635Y-123547503D01*
X160711553Y-123552184D01*
X160689865Y-123556244D01*
X160671313Y-123559731D01*
X160655637Y-123562695D01*
X160642580Y-123565184D01*
X160631883Y-123567248D01*
X160623287Y-123568935D01*
X160616533Y-123570294D01*
X160611364Y-123571375D01*
X160607520Y-123572226D01*
X160604743Y-123572896D01*
X160602774Y-123573435D01*
X160602077Y-123573649D01*
X160594794Y-123577446D01*
X160588208Y-123583110D01*
X160587927Y-123583437D01*
X160586055Y-123586873D01*
X160582476Y-123594645D01*
X160577329Y-123606416D01*
X160570757Y-123621844D01*
X160562901Y-123640589D01*
X160553901Y-123662313D01*
X160543899Y-123686674D01*
X160533037Y-123713333D01*
X160521454Y-123741951D01*
X160509294Y-123772186D01*
X160503193Y-123787423D01*
X160489259Y-123822282D01*
X160477081Y-123852781D01*
X160466543Y-123879233D01*
X160457533Y-123901948D01*
X160449936Y-123921239D01*
X160443639Y-123937415D01*
X160438527Y-123950787D01*
X160434487Y-123961668D01*
X160431406Y-123970367D01*
X160429168Y-123977196D01*
X160427661Y-123982467D01*
X160426770Y-123986489D01*
X160426381Y-123989575D01*
X160426382Y-123992035D01*
X160426657Y-123994180D01*
X160426961Y-123995703D01*
X160427914Y-123998459D01*
X160429976Y-124002672D01*
X160433294Y-124008563D01*
X160438016Y-124016354D01*
X160444288Y-124026268D01*
X160452257Y-124038525D01*
X160462070Y-124053349D01*
X160473875Y-124070961D01*
X160487818Y-124091583D01*
X160504045Y-124115436D01*
X160522705Y-124142743D01*
X160543943Y-124173726D01*
X160567907Y-124208606D01*
X160568620Y-124209643D01*
X160588339Y-124238371D01*
X160607248Y-124266022D01*
X160625151Y-124292303D01*
X160641851Y-124316922D01*
X160657151Y-124339585D01*
X160670857Y-124360000D01*
X160682771Y-124377874D01*
X160692698Y-124392914D01*
X160700441Y-124404828D01*
X160705804Y-124413324D01*
X160708590Y-124418107D01*
X160708951Y-124418972D01*
X160709189Y-124426912D01*
X160708379Y-124432804D01*
X160706445Y-124435722D01*
X160701277Y-124441774D01*
X160692837Y-124451002D01*
X160681086Y-124463444D01*
X160665985Y-124479142D01*
X160647494Y-124498136D01*
X160625575Y-124520466D01*
X160600189Y-124546172D01*
X160571296Y-124575294D01*
X160538858Y-124607873D01*
X160525143Y-124621619D01*
X160499929Y-124646847D01*
X160475621Y-124671107D01*
X160452468Y-124694157D01*
X160430714Y-124715753D01*
X160410608Y-124735654D01*
X160392395Y-124753615D01*
X160376321Y-124769396D01*
X160362634Y-124782752D01*
X160351579Y-124793442D01*
X160343404Y-124801223D01*
X160338354Y-124805851D01*
X160336803Y-124807089D01*
X160326833Y-124810352D01*
X160316612Y-124809312D01*
X160305289Y-124803848D01*
X160303010Y-124802346D01*
X160299136Y-124799695D01*
X160291436Y-124794419D01*
X160280229Y-124786737D01*
X160265836Y-124776870D01*
X160248578Y-124765037D01*
X160228776Y-124751458D01*
X160206749Y-124736352D01*
X160182818Y-124719940D01*
X160157305Y-124702442D01*
X160130529Y-124684077D01*
X160105940Y-124667211D01*
X160078417Y-124648348D01*
X160051938Y-124630232D01*
X160026816Y-124613074D01*
X160003363Y-124597087D01*
X159981892Y-124582482D01*
X159962716Y-124569473D01*
X159946147Y-124558271D01*
X159932498Y-124549088D01*
X159922082Y-124542136D01*
X159915212Y-124537629D01*
X159912297Y-124535825D01*
X159900483Y-124532294D01*
X159894107Y-124532398D01*
X159889402Y-124533917D01*
X159880635Y-124537726D01*
X159868135Y-124543662D01*
X159852231Y-124551562D01*
X159833253Y-124561264D01*
X159811529Y-124572606D01*
X159794559Y-124581596D01*
X159770834Y-124594199D01*
X159751102Y-124604565D01*
X159734942Y-124612860D01*
X159721927Y-124619252D01*
X159711636Y-124623908D01*
X159703644Y-124626995D01*
X159697526Y-124628680D01*
X159692861Y-124629131D01*
X159689223Y-124628513D01*
X159686189Y-124626994D01*
X159683889Y-124625222D01*
X159682309Y-124622374D01*
X159678885Y-124615011D01*
X159673675Y-124603274D01*
X159666737Y-124587305D01*
X159658133Y-124567245D01*
X159647920Y-124543234D01*
X159636159Y-124515413D01*
X159622908Y-124483924D01*
X159608227Y-124448906D01*
X159592175Y-124410501D01*
X159574812Y-124368850D01*
X159556196Y-124324094D01*
X159536388Y-124276374D01*
X159515446Y-124225830D01*
X159498588Y-124185080D01*
X159476707Y-124132154D01*
X159456672Y-124083674D01*
X159438403Y-124039444D01*
X159421821Y-123999263D01*
X159406845Y-123962932D01*
X159393396Y-123930253D01*
X159381395Y-123901026D01*
X159370763Y-123875052D01*
X159361419Y-123852131D01*
X159353285Y-123832066D01*
X159346280Y-123814657D01*
X159340325Y-123799704D01*
X159335342Y-123787009D01*
X159331249Y-123776373D01*
X159327968Y-123767595D01*
X159325419Y-123760478D01*
X159323522Y-123754823D01*
X159322199Y-123750429D01*
X159321369Y-123747099D01*
X159320953Y-123744632D01*
X159320871Y-123742830D01*
X159321045Y-123741494D01*
X159321199Y-123740950D01*
X159323599Y-123735298D01*
X159327242Y-123730243D01*
X159332912Y-123725085D01*
X159341395Y-123719125D01*
X159353475Y-123711663D01*
X159355257Y-123710602D01*
X159367135Y-123703219D01*
X159380052Y-123694680D01*
X159391491Y-123686656D01*
X159392980Y-123685558D01*
X159402649Y-123678368D01*
X159414572Y-123669506D01*
X159426963Y-123660299D01*
X159434475Y-123654719D01*
X159475725Y-123620988D01*
X159513516Y-123583697D01*
X159547598Y-123543121D01*
X159577724Y-123499533D01*
X159583524Y-123490024D01*
X159606301Y-123447314D01*
X159625628Y-123401638D01*
X159641173Y-123353973D01*
X159652607Y-123305300D01*
X159658232Y-123269155D01*
X159659830Y-123250627D01*
X159660694Y-123228600D01*
X159660850Y-123204549D01*
X159660321Y-123179948D01*
X159659129Y-123156271D01*
X159657300Y-123134991D01*
X159655914Y-123124045D01*
X159645747Y-123071737D01*
X159630996Y-123021214D01*
X159611839Y-122972723D01*
X159588456Y-122926508D01*
X159561024Y-122882817D01*
X159529724Y-122841897D01*
X159494732Y-122803992D01*
X159456229Y-122769350D01*
X159414393Y-122738217D01*
X159369403Y-122710840D01*
X159347977Y-122699712D01*
X159300646Y-122678956D01*
X159252462Y-122662984D01*
X159203044Y-122651707D01*
X159152010Y-122645039D01*
X159100000Y-122642891D01*
X159054843Y-122644365D01*
X159012475Y-122648928D01*
X158971562Y-122656788D01*
X158930769Y-122668152D01*
X158923960Y-122670378D01*
X158874705Y-122689370D01*
X158827852Y-122712596D01*
X158783643Y-122739815D01*
X158742319Y-122770788D01*
X158704122Y-122805275D01*
X158669295Y-122843036D01*
X158638078Y-122883832D01*
X158610714Y-122927422D01*
X158587445Y-122973567D01*
X158568512Y-123022026D01*
X158568074Y-123023329D01*
X158556907Y-123060050D01*
X158548666Y-123095126D01*
X158543102Y-123130130D01*
X158539965Y-123166637D01*
X158539004Y-123206084D01*
X158539990Y-123243824D01*
X158543057Y-123278572D01*
X158548476Y-123312030D01*
X158556521Y-123345900D01*
X158566756Y-123379742D01*
X158585700Y-123429412D01*
X158608995Y-123476635D01*
X158636490Y-123521205D01*
X158668038Y-123562917D01*
X158703490Y-123601564D01*
X158742697Y-123636943D01*
X158765524Y-123654723D01*
X158776681Y-123662991D01*
X158787963Y-123671394D01*
X158797838Y-123678788D01*
X158803247Y-123682869D01*
X158811470Y-123688763D01*
X158822332Y-123696081D01*
X158834134Y-123703693D01*
X158840970Y-123707937D01*
X158854169Y-123716145D01*
X158863686Y-123722542D01*
X158870241Y-123727755D01*
X158874550Y-123732410D01*
X158877333Y-123737134D01*
X158878805Y-123740963D01*
X158879075Y-123742144D01*
X158879131Y-123743689D01*
X158878892Y-123745799D01*
X158878280Y-123748672D01*
X158877214Y-123752506D01*
X158875615Y-123757503D01*
X158873404Y-123763860D01*
X158870501Y-123771776D01*
X158866826Y-123781451D01*
X158862300Y-123793084D01*
X158856844Y-123806874D01*
X158850377Y-123823020D01*
X158842821Y-123841722D01*
X158834096Y-123863177D01*
X158824121Y-123887586D01*
X158812819Y-123915148D01*
X158800108Y-123946061D01*
X158785911Y-123980526D01*
X158770146Y-124018740D01*
X158752735Y-124060903D01*
X158733598Y-124107214D01*
X158712655Y-124157873D01*
X158701400Y-124185093D01*
X158679840Y-124237188D01*
X158659326Y-124286673D01*
X158639918Y-124333400D01*
X158621680Y-124377222D01*
X158604674Y-124417990D01*
X158588960Y-124455558D01*
X158574603Y-124489776D01*
X158561664Y-124520499D01*
X158550205Y-124547577D01*
X158540288Y-124570864D01*
X158531976Y-124590211D01*
X158525331Y-124605471D01*
X158520415Y-124616495D01*
X158517290Y-124623138D01*
X158516094Y-124625222D01*
X158509755Y-124628499D01*
X158503425Y-124629623D01*
X158498868Y-124628370D01*
X158490014Y-124624631D01*
X158476924Y-124618434D01*
X158459655Y-124609809D01*
X158438269Y-124598785D01*
X158412823Y-124585390D01*
X158406253Y-124581898D01*
X158386434Y-124571410D01*
X158367737Y-124561640D01*
X158350684Y-124552852D01*
X158335798Y-124545310D01*
X158323603Y-124539279D01*
X158314622Y-124535022D01*
X158309377Y-124532804D01*
X158308575Y-124532569D01*
X158300146Y-124532265D01*
X158292779Y-124533666D01*
X158289584Y-124535468D01*
X158282560Y-124539915D01*
X158272019Y-124546797D01*
X158258271Y-124555905D01*
X158241630Y-124567028D01*
X158222407Y-124579958D01*
X158200914Y-124594484D01*
X158177463Y-124610396D01*
X158152365Y-124627486D01*
X158125933Y-124645542D01*
X158102155Y-124661834D01*
X158074535Y-124680782D01*
X158047794Y-124699127D01*
X158022265Y-124716639D01*
X157998281Y-124733089D01*
X157976177Y-124748249D01*
X157956285Y-124761890D01*
X157938940Y-124773784D01*
X157924475Y-124783700D01*
X157913223Y-124791411D01*
X157905520Y-124796688D01*
X157902143Y-124798997D01*
X157890080Y-124806348D01*
X157880284Y-124810042D01*
X157871756Y-124810249D01*
X157863499Y-124807140D01*
X157861435Y-124805912D01*
X157858636Y-124803496D01*
X157852539Y-124797759D01*
X157843394Y-124788946D01*
X157831448Y-124777303D01*
X157816951Y-124763076D01*
X157800151Y-124746510D01*
X157781297Y-124727851D01*
X157760638Y-124707345D01*
X157738423Y-124685237D01*
X157714900Y-124661772D01*
X157690318Y-124637196D01*
X157673599Y-124620451D01*
X157639864Y-124586593D01*
X157609690Y-124556208D01*
X157583039Y-124529257D01*
X157559874Y-124505702D01*
X157540155Y-124485503D01*
X157523845Y-124468619D01*
X157510905Y-124455013D01*
X157501297Y-124444645D01*
X157494984Y-124437474D01*
X157491926Y-124433463D01*
X157491620Y-124432804D01*
X157490720Y-124424838D01*
X157491035Y-124418972D01*
X157492592Y-124415961D01*
X157496814Y-124409106D01*
X157503504Y-124398700D01*
X157512468Y-124385035D01*
X157523508Y-124368405D01*
X157536428Y-124349102D01*
X157551032Y-124327418D01*
X157567124Y-124303647D01*
X157584507Y-124278081D01*
X157602986Y-124251013D01*
X157622364Y-124222735D01*
X157631360Y-124209643D01*
X157655411Y-124174639D01*
X157676733Y-124143539D01*
X157695470Y-124116121D01*
X157711771Y-124092165D01*
X157725781Y-124071447D01*
X157737648Y-124053747D01*
X157747518Y-124038844D01*
X157755539Y-124026515D01*
X157761856Y-124016539D01*
X157766616Y-124008694D01*
X157769967Y-124002759D01*
X157772054Y-123998513D01*
X157773025Y-123995733D01*
X157773032Y-123995703D01*
X157773436Y-123993591D01*
X157773648Y-123991390D01*
X157773553Y-123988789D01*
X157773037Y-123985475D01*
X157771987Y-123981139D01*
X157770289Y-123975468D01*
X157767829Y-123968151D01*
X157764492Y-123958877D01*
X157760166Y-123947335D01*
X157754736Y-123933213D01*
X157748087Y-123916201D01*
X157740107Y-123895986D01*
X157730682Y-123872258D01*
X157719696Y-123844705D01*
X157707038Y-123813017D01*
X157696905Y-123787669D01*
X157684860Y-123757618D01*
X157673256Y-123728812D01*
X157662239Y-123701606D01*
X157651957Y-123676358D01*
X157642556Y-123653425D01*
X157634185Y-123633164D01*
X157626989Y-123615931D01*
X157621117Y-123602083D01*
X157616716Y-123591977D01*
X157613932Y-123585970D01*
X157613088Y-123584467D01*
X157606838Y-123578611D01*
X157600097Y-123574588D01*
X157596559Y-123573678D01*
X157588425Y-123571925D01*
X157576048Y-123569397D01*
X157559779Y-123566162D01*
X157539970Y-123562289D01*
X157516973Y-123557844D01*
X157491139Y-123552896D01*
X157462820Y-123547512D01*
X157432367Y-123541761D01*
X157400133Y-123535710D01*
X157366468Y-123529427D01*
X157353435Y-123527004D01*
X157319307Y-123520655D01*
X157286465Y-123514523D01*
X157255261Y-123508675D01*
X157226049Y-123503179D01*
X157199181Y-123498101D01*
X157175011Y-123493509D01*
X157153890Y-123489469D01*
X157136171Y-123486049D01*
X157122208Y-123483316D01*
X157112352Y-123481337D01*
X157106958Y-123480179D01*
X157106157Y-123479970D01*
X157098245Y-123475394D01*
X157092943Y-123469389D01*
X157092168Y-123468002D01*
X157091481Y-123466330D01*
X157090879Y-123464080D01*
X157090355Y-123460959D01*
X157089907Y-123456675D01*
X157089529Y-123450936D01*
X157089216Y-123443449D01*
X157088965Y-123433921D01*
X157088771Y-123422061D01*
X157088628Y-123407577D01*
X157088534Y-123390175D01*
X157088482Y-123369563D01*
X157088470Y-123345449D01*
X157088491Y-123317540D01*
X157088541Y-123285545D01*
X157088617Y-123249170D01*
X157088713Y-123208123D01*
X157088737Y-123198246D01*
X157089376Y-122935018D01*
X157095371Y-122928637D01*
X157096249Y-122927558D01*
X157096863Y-122926630D01*
X157097492Y-122925794D01*
X157098412Y-122924993D01*
X157099901Y-122924170D01*
X157102235Y-122923267D01*
X157105692Y-122922228D01*
X157110550Y-122920993D01*
X157117085Y-122919507D01*
X157125575Y-122917712D01*
X157136297Y-122915550D01*
X157149528Y-122912964D01*
X157165546Y-122909897D01*
X157184627Y-122906290D01*
X157207049Y-122902087D01*
X157233089Y-122897231D01*
X157263025Y-122891663D01*
X157297133Y-122885327D01*
X157335691Y-122878165D01*
X157369033Y-122871969D01*
X157409894Y-122864373D01*
X157446104Y-122857633D01*
X157477952Y-122851678D01*
X157505730Y-122846438D01*
X157529729Y-122841841D01*
X157550240Y-122837816D01*
X157567555Y-122834294D01*
X157581964Y-122831202D01*
X157593759Y-122828470D01*
X157603232Y-122826027D01*
X157610672Y-122823802D01*
X157616372Y-122821724D01*
X157620622Y-122819723D01*
X157623714Y-122817728D01*
X157625938Y-122815667D01*
X157627587Y-122813470D01*
X157628951Y-122811066D01*
X157630321Y-122808384D01*
X157630328Y-122808370D01*
X157631932Y-122804878D01*
X157635354Y-122797134D01*
X157640431Y-122785510D01*
X157647002Y-122770381D01*
X157654907Y-122752119D01*
X157663985Y-122731096D01*
X157674073Y-122707685D01*
X157685012Y-122682259D01*
X157696640Y-122655190D01*
X157708795Y-122626853D01*
X157710765Y-122622256D01*
X157725488Y-122587931D01*
X157738358Y-122557914D01*
X157749474Y-122531878D01*
X157758931Y-122509494D01*
X157766826Y-122490435D01*
X157773256Y-122474371D01*
X157778317Y-122460975D01*
X157782107Y-122449918D01*
X157784721Y-122440873D01*
X157786256Y-122433511D01*
X157786809Y-122427503D01*
X157786477Y-122422522D01*
X157785356Y-122418240D01*
X157783543Y-122414328D01*
X157781134Y-122410457D01*
X157778226Y-122406301D01*
X157775494Y-122402386D01*
X157772369Y-122397811D01*
X157766618Y-122389410D01*
X157758463Y-122377505D01*
X157748122Y-122362415D01*
X157735816Y-122344463D01*
X157721766Y-122323969D01*
X157706191Y-122301255D01*
X157689312Y-122276642D01*
X157671348Y-122250451D01*
X157652521Y-122223003D01*
X157633050Y-122194620D01*
X157630030Y-122190217D01*
X157610707Y-122162039D01*
X157592160Y-122134966D01*
X157574592Y-122109298D01*
X157558206Y-122085329D01*
X157543202Y-122063359D01*
X157529785Y-122043683D01*
X157518157Y-122026599D01*
X157508520Y-122012404D01*
X157501077Y-122001394D01*
X157496030Y-121993867D01*
X157493582Y-121990120D01*
X157493407Y-121989823D01*
X157491443Y-121983596D01*
X157490507Y-121975669D01*
X157490495Y-121974753D01*
X157490576Y-121973141D01*
X157490955Y-121971404D01*
X157491831Y-121969332D01*
X157493405Y-121966714D01*
X157495877Y-121963339D01*
X157499448Y-121958996D01*
X157504318Y-121953476D01*
X157510686Y-121946567D01*
X157518754Y-121938059D01*
X157528723Y-121927740D01*
X157540791Y-121915402D01*
X157555160Y-121900832D01*
X157572031Y-121883820D01*
X157591602Y-121864155D01*
X157614076Y-121841628D01*
X157639652Y-121816027D01*
X157668530Y-121787141D01*
X157677241Y-121778429D01*
X157863988Y-121591683D01*
X157874972Y-121591683D01*
X157876369Y-121591594D01*
X157877491Y-121591417D01*
X157878543Y-121591286D01*
X157879727Y-121591335D01*
X157881247Y-121591700D01*
X157883305Y-121592514D01*
X157886105Y-121593912D01*
X157889851Y-121596028D01*
X157894744Y-121598997D01*
X157900989Y-121602953D01*
X157908789Y-121608030D01*
X157918346Y-121614364D01*
X157929864Y-121622087D01*
X157943546Y-121631336D01*
X157959595Y-121642243D01*
X157978215Y-121654944D01*
X157999608Y-121669574D01*
X158023978Y-121686265D01*
X158051528Y-121705153D01*
X158082460Y-121726373D01*
X158116979Y-121750058D01*
X158155287Y-121776344D01*
X158188033Y-121798809D01*
X158215331Y-121817530D01*
X158238804Y-121833605D01*
X158258772Y-121847235D01*
X158275556Y-121858622D01*
X158289475Y-121867967D01*
X158300851Y-121875472D01*
X158310003Y-121881339D01*
X158317253Y-121885769D01*
X158322919Y-121888963D01*
X158327323Y-121891124D01*
X158330786Y-121892454D01*
X158333627Y-121893152D01*
X158336166Y-121893422D01*
X158338451Y-121893465D01*
X158341406Y-121893229D01*
X158345398Y-121892441D01*
X158350742Y-121890979D01*
X158357755Y-121888723D01*
X158366754Y-121885553D01*
X158378054Y-121881347D01*
X158391972Y-121875985D01*
X158408824Y-121869345D01*
X158428927Y-121861308D01*
X158452596Y-121851752D01*
X158480148Y-121840556D01*
X158511900Y-121827600D01*
X158526141Y-121821777D01*
X158554446Y-121810172D01*
X158581495Y-121799031D01*
X158606912Y-121788511D01*
X158630319Y-121778772D01*
X158651341Y-121769970D01*
X158669601Y-121762266D01*
X158684722Y-121755816D01*
X158696327Y-121750779D01*
X158704041Y-121747313D01*
X158707486Y-121745577D01*
X158707527Y-121745547D01*
X158709785Y-121743863D01*
X158711830Y-121742155D01*
X158713729Y-121740136D01*
X158715547Y-121737517D01*
X158717351Y-121734014D01*
X158719207Y-121729338D01*
X158721181Y-121723203D01*
X158723339Y-121715322D01*
X158725747Y-121705407D01*
X158728471Y-121693173D01*
X158731577Y-121678331D01*
X158735131Y-121660596D01*
X158739200Y-121639680D01*
X158743849Y-121615296D01*
X158749144Y-121587158D01*
X158755152Y-121554977D01*
X158761939Y-121518468D01*
X158769570Y-121477344D01*
X158770771Y-121470869D01*
X158777357Y-121435447D01*
X158783728Y-121401329D01*
X158789819Y-121368850D01*
X158795567Y-121338348D01*
X158800907Y-121310159D01*
X158805774Y-121284620D01*
X158810105Y-121262068D01*
X158813834Y-121242838D01*
X158816898Y-121227269D01*
X158819233Y-121215695D01*
X158820773Y-121208455D01*
X158821400Y-121205984D01*
X158825549Y-121199638D01*
X158831701Y-121194214D01*
X158831968Y-121194048D01*
X158833368Y-121193288D01*
X158835123Y-121192614D01*
X158837526Y-121192020D01*
X158840872Y-121191503D01*
X158845454Y-121191056D01*
X158851565Y-121190675D01*
X158859501Y-121190354D01*
X158869553Y-121190089D01*
X158882017Y-121189873D01*
X158897185Y-121189702D01*
X158915351Y-121189571D01*
X158936810Y-121189474D01*
X158961855Y-121189406D01*
X158990779Y-121189363D01*
X159023876Y-121189338D01*
X159061441Y-121189328D01*
X159100000Y-121189325D01*
X159141912Y-121189328D01*
X159141912Y-121189328D01*
G37*
X159141912Y-121189328D02*
X159179087Y-121189340D01*
X159211821Y-121189366D01*
X159240406Y-121189411D01*
X159265137Y-121189481D01*
X159286306Y-121189581D01*
X159304208Y-121189715D01*
X159319136Y-121189889D01*
X159331384Y-121190109D01*
X159341247Y-121190379D01*
X159349017Y-121190705D01*
X159354988Y-121191092D01*
X159359454Y-121191544D01*
X159362709Y-121192067D01*
X159365046Y-121192667D01*
X159366760Y-121193349D01*
X159368032Y-121194048D01*
X159374217Y-121199369D01*
X159378517Y-121205738D01*
X159378618Y-121205984D01*
X159379468Y-121209432D01*
X159381162Y-121217481D01*
X159383633Y-121229785D01*
X159386816Y-121245999D01*
X159390644Y-121265777D01*
X159395052Y-121288772D01*
X159399972Y-121314640D01*
X159405339Y-121343034D01*
X159411087Y-121373609D01*
X159417150Y-121406019D01*
X159423461Y-121439918D01*
X159426888Y-121458396D01*
X159433321Y-121493102D01*
X159439535Y-121526614D01*
X159445466Y-121558574D01*
X159451046Y-121588625D01*
X159456209Y-121616411D01*
X159460889Y-121641572D01*
X159465018Y-121663753D01*
X159468531Y-121682596D01*
X159471362Y-121697743D01*
X159473443Y-121708837D01*
X159474708Y-121715522D01*
X159475013Y-121717096D01*
X159475885Y-121721591D01*
X159476785Y-121725572D01*
X159478016Y-121729199D01*
X159479879Y-121732631D01*
X159482678Y-121736027D01*
X159486715Y-121739546D01*
X159492292Y-121743349D01*
X159499712Y-121747593D01*
X159509277Y-121752440D01*
X159521290Y-121758046D01*
X159536054Y-121764573D01*
X159553871Y-121772180D01*
X159575043Y-121781025D01*
X159599873Y-121791268D01*
X159628663Y-121803068D01*
X159661716Y-121816586D01*
X159671628Y-121820639D01*
X159706076Y-121834740D01*
X159736188Y-121847060D01*
X159762294Y-121857692D01*
X159784727Y-121866727D01*
X159803816Y-121874258D01*
X159819894Y-121880378D01*
X159833292Y-121885177D01*
X159844341Y-121888748D01*
X159853372Y-121891184D01*
X159860717Y-121892576D01*
X159866707Y-121893017D01*
X159871673Y-121892599D01*
X159875947Y-121891413D01*
X159879860Y-121889553D01*
X159883743Y-121887110D01*
X159887927Y-121884176D01*
X159891390Y-121881759D01*
X159895895Y-121878675D01*
X159904234Y-121872960D01*
X159916094Y-121864828D01*
X159931161Y-121854496D01*
X159949123Y-121842176D01*
X159969666Y-121828085D01*
X159992477Y-121812437D01*
X160017244Y-121795447D01*
X160043652Y-121777329D01*
X160071388Y-121758299D01*
X160100140Y-121738571D01*
X160111367Y-121730867D01*
X160144967Y-121707819D01*
X160174678Y-121687457D01*
X160200756Y-121669616D01*
X160223454Y-121654130D01*
X160243028Y-121640833D01*
X160259732Y-121629561D01*
X160273819Y-121620146D01*
X160285546Y-121612424D01*
X160295166Y-121606229D01*
X160302934Y-121601394D01*
X160309104Y-121597754D01*
X160313931Y-121595144D01*
X160317669Y-121593398D01*
X160320573Y-121592350D01*
X160322897Y-121591833D01*
X160324895Y-121591684D01*
X160325110Y-121591683D01*
X160336011Y-121591683D01*
X160522758Y-121778429D01*
X160552582Y-121808256D01*
X160579048Y-121834738D01*
X160602358Y-121858086D01*
X160622712Y-121878513D01*
X160640310Y-121896229D01*
X160655352Y-121911445D01*
X160668040Y-121924372D01*
X160678573Y-121935223D01*
X160687152Y-121944207D01*
X160693977Y-121951537D01*
X160699249Y-121957423D01*
X160703168Y-121962076D01*
X160705935Y-121965708D01*
X160707749Y-121968530D01*
X160708812Y-121970754D01*
X160709323Y-121972589D01*
X160709484Y-121974249D01*
X160709495Y-121975217D01*
X160708249Y-121984021D01*
X160705215Y-121992217D01*
X160704773Y-121992985D01*
X160702686Y-121996153D01*
X160697958Y-122003162D01*
X160690798Y-122013709D01*
X160681414Y-122027491D01*
X160670012Y-122044203D01*
X160656801Y-122063542D01*
X160641987Y-122085204D01*
X160625780Y-122108884D01*
X160608385Y-122134279D01*
X160590012Y-122161086D01*
X160570866Y-122188999D01*
X160568179Y-122192916D01*
X160548759Y-122221219D01*
X160529948Y-122248639D01*
X160511966Y-122274850D01*
X160495037Y-122299529D01*
X160479383Y-122322353D01*
X160465226Y-122342997D01*
X160452787Y-122361137D01*
X160442289Y-122376450D01*
X160433954Y-122388611D01*
X160428005Y-122397297D01*
X160424663Y-122402184D01*
X160424525Y-122402386D01*
X160421271Y-122407029D01*
X160418436Y-122411113D01*
X160416117Y-122414966D01*
X160414410Y-122418916D01*
X160413412Y-122423290D01*
X160413218Y-122428418D01*
X160413927Y-122434628D01*
X160415635Y-122442247D01*
X160418437Y-122451604D01*
X160422431Y-122463027D01*
X160427713Y-122476845D01*
X160434381Y-122493385D01*
X160442529Y-122512975D01*
X160452256Y-122535945D01*
X160463657Y-122562621D01*
X160476830Y-122593333D01*
X160489234Y-122622256D01*
X160501459Y-122650761D01*
X160513181Y-122678056D01*
X160524240Y-122703768D01*
X160534475Y-122727524D01*
X160543723Y-122748952D01*
X160551825Y-122767678D01*
X160558620Y-122783330D01*
X160563945Y-122795536D01*
X160567640Y-122803921D01*
X160569544Y-122808114D01*
X160569671Y-122808370D01*
X160574634Y-122815307D01*
X160581041Y-122821298D01*
X160581084Y-122821329D01*
X160582257Y-122822180D01*
X160583418Y-122822962D01*
X160584835Y-122823728D01*
X160586774Y-122824531D01*
X160589505Y-122825425D01*
X160593294Y-122826463D01*
X160598410Y-122827699D01*
X160605119Y-122829185D01*
X160613691Y-122830974D01*
X160624392Y-122833121D01*
X160637490Y-122835678D01*
X160653253Y-122838699D01*
X160671948Y-122842236D01*
X160693845Y-122846344D01*
X160719209Y-122851075D01*
X160748308Y-122856483D01*
X160781412Y-122862621D01*
X160818786Y-122869543D01*
X160860700Y-122877300D01*
X160884287Y-122881666D01*
X160914902Y-122887339D01*
X160944300Y-122892800D01*
X160972076Y-122897972D01*
X160997820Y-122902779D01*
X161021124Y-122907143D01*
X161041580Y-122910989D01*
X161058782Y-122914240D01*
X161072319Y-122916819D01*
X161081786Y-122918650D01*
X161086773Y-122919656D01*
X161087099Y-122919729D01*
X161095862Y-122922846D01*
X161103200Y-122927326D01*
X161104703Y-122928716D01*
X161110623Y-122935018D01*
X161111262Y-123198246D01*
X161111362Y-123240381D01*
X161111443Y-123277778D01*
X161111500Y-123310730D01*
X161111528Y-123339530D01*
X161111523Y-123364469D01*
X161111481Y-123385841D01*
X161111396Y-123403938D01*
X161111265Y-123419052D01*
X161111083Y-123431475D01*
X161110845Y-123441500D01*
X161110546Y-123449419D01*
X161110183Y-123455525D01*
X161109751Y-123460110D01*
X161109245Y-123463466D01*
X161108660Y-123465886D01*
X161107993Y-123467663D01*
X161107238Y-123469088D01*
X161107056Y-123469389D01*
X161100775Y-123476182D01*
X161093843Y-123480019D01*
X161089972Y-123480937D01*
X161081590Y-123482681D01*
X161069132Y-123485167D01*
X161053035Y-123488312D01*
X161033733Y-123492032D01*
X161011662Y-123496243D01*
X160987258Y-123500861D01*
X160960957Y-123505803D01*
X160933193Y-123510984D01*
X160922010Y-123513062D01*
X160876078Y-123521585D01*
X160834833Y-123529241D01*
X160798017Y-123536081D01*
X160765370Y-123542152D01*
X160736635Y-123547503D01*
X160711553Y-123552184D01*
X160689865Y-123556244D01*
X160671313Y-123559731D01*
X160655637Y-123562695D01*
X160642580Y-123565184D01*
X160631883Y-123567248D01*
X160623287Y-123568935D01*
X160616533Y-123570294D01*
X160611364Y-123571375D01*
X160607520Y-123572226D01*
X160604743Y-123572896D01*
X160602774Y-123573435D01*
X160602077Y-123573649D01*
X160594794Y-123577446D01*
X160588208Y-123583110D01*
X160587927Y-123583437D01*
X160586055Y-123586873D01*
X160582476Y-123594645D01*
X160577329Y-123606416D01*
X160570757Y-123621844D01*
X160562901Y-123640589D01*
X160553901Y-123662313D01*
X160543899Y-123686674D01*
X160533037Y-123713333D01*
X160521454Y-123741951D01*
X160509294Y-123772186D01*
X160503193Y-123787423D01*
X160489259Y-123822282D01*
X160477081Y-123852781D01*
X160466543Y-123879233D01*
X160457533Y-123901948D01*
X160449936Y-123921239D01*
X160443639Y-123937415D01*
X160438527Y-123950787D01*
X160434487Y-123961668D01*
X160431406Y-123970367D01*
X160429168Y-123977196D01*
X160427661Y-123982467D01*
X160426770Y-123986489D01*
X160426381Y-123989575D01*
X160426382Y-123992035D01*
X160426657Y-123994180D01*
X160426961Y-123995703D01*
X160427914Y-123998459D01*
X160429976Y-124002672D01*
X160433294Y-124008563D01*
X160438016Y-124016354D01*
X160444288Y-124026268D01*
X160452257Y-124038525D01*
X160462070Y-124053349D01*
X160473875Y-124070961D01*
X160487818Y-124091583D01*
X160504045Y-124115436D01*
X160522705Y-124142743D01*
X160543943Y-124173726D01*
X160567907Y-124208606D01*
X160568620Y-124209643D01*
X160588339Y-124238371D01*
X160607248Y-124266022D01*
X160625151Y-124292303D01*
X160641851Y-124316922D01*
X160657151Y-124339585D01*
X160670857Y-124360000D01*
X160682771Y-124377874D01*
X160692698Y-124392914D01*
X160700441Y-124404828D01*
X160705804Y-124413324D01*
X160708590Y-124418107D01*
X160708951Y-124418972D01*
X160709189Y-124426912D01*
X160708379Y-124432804D01*
X160706445Y-124435722D01*
X160701277Y-124441774D01*
X160692837Y-124451002D01*
X160681086Y-124463444D01*
X160665985Y-124479142D01*
X160647494Y-124498136D01*
X160625575Y-124520466D01*
X160600189Y-124546172D01*
X160571296Y-124575294D01*
X160538858Y-124607873D01*
X160525143Y-124621619D01*
X160499929Y-124646847D01*
X160475621Y-124671107D01*
X160452468Y-124694157D01*
X160430714Y-124715753D01*
X160410608Y-124735654D01*
X160392395Y-124753615D01*
X160376321Y-124769396D01*
X160362634Y-124782752D01*
X160351579Y-124793442D01*
X160343404Y-124801223D01*
X160338354Y-124805851D01*
X160336803Y-124807089D01*
X160326833Y-124810352D01*
X160316612Y-124809312D01*
X160305289Y-124803848D01*
X160303010Y-124802346D01*
X160299136Y-124799695D01*
X160291436Y-124794419D01*
X160280229Y-124786737D01*
X160265836Y-124776870D01*
X160248578Y-124765037D01*
X160228776Y-124751458D01*
X160206749Y-124736352D01*
X160182818Y-124719940D01*
X160157305Y-124702442D01*
X160130529Y-124684077D01*
X160105940Y-124667211D01*
X160078417Y-124648348D01*
X160051938Y-124630232D01*
X160026816Y-124613074D01*
X160003363Y-124597087D01*
X159981892Y-124582482D01*
X159962716Y-124569473D01*
X159946147Y-124558271D01*
X159932498Y-124549088D01*
X159922082Y-124542136D01*
X159915212Y-124537629D01*
X159912297Y-124535825D01*
X159900483Y-124532294D01*
X159894107Y-124532398D01*
X159889402Y-124533917D01*
X159880635Y-124537726D01*
X159868135Y-124543662D01*
X159852231Y-124551562D01*
X159833253Y-124561264D01*
X159811529Y-124572606D01*
X159794559Y-124581596D01*
X159770834Y-124594199D01*
X159751102Y-124604565D01*
X159734942Y-124612860D01*
X159721927Y-124619252D01*
X159711636Y-124623908D01*
X159703644Y-124626995D01*
X159697526Y-124628680D01*
X159692861Y-124629131D01*
X159689223Y-124628513D01*
X159686189Y-124626994D01*
X159683889Y-124625222D01*
X159682309Y-124622374D01*
X159678885Y-124615011D01*
X159673675Y-124603274D01*
X159666737Y-124587305D01*
X159658133Y-124567245D01*
X159647920Y-124543234D01*
X159636159Y-124515413D01*
X159622908Y-124483924D01*
X159608227Y-124448906D01*
X159592175Y-124410501D01*
X159574812Y-124368850D01*
X159556196Y-124324094D01*
X159536388Y-124276374D01*
X159515446Y-124225830D01*
X159498588Y-124185080D01*
X159476707Y-124132154D01*
X159456672Y-124083674D01*
X159438403Y-124039444D01*
X159421821Y-123999263D01*
X159406845Y-123962932D01*
X159393396Y-123930253D01*
X159381395Y-123901026D01*
X159370763Y-123875052D01*
X159361419Y-123852131D01*
X159353285Y-123832066D01*
X159346280Y-123814657D01*
X159340325Y-123799704D01*
X159335342Y-123787009D01*
X159331249Y-123776373D01*
X159327968Y-123767595D01*
X159325419Y-123760478D01*
X159323522Y-123754823D01*
X159322199Y-123750429D01*
X159321369Y-123747099D01*
X159320953Y-123744632D01*
X159320871Y-123742830D01*
X159321045Y-123741494D01*
X159321199Y-123740950D01*
X159323599Y-123735298D01*
X159327242Y-123730243D01*
X159332912Y-123725085D01*
X159341395Y-123719125D01*
X159353475Y-123711663D01*
X159355257Y-123710602D01*
X159367135Y-123703219D01*
X159380052Y-123694680D01*
X159391491Y-123686656D01*
X159392980Y-123685558D01*
X159402649Y-123678368D01*
X159414572Y-123669506D01*
X159426963Y-123660299D01*
X159434475Y-123654719D01*
X159475725Y-123620988D01*
X159513516Y-123583697D01*
X159547598Y-123543121D01*
X159577724Y-123499533D01*
X159583524Y-123490024D01*
X159606301Y-123447314D01*
X159625628Y-123401638D01*
X159641173Y-123353973D01*
X159652607Y-123305300D01*
X159658232Y-123269155D01*
X159659830Y-123250627D01*
X159660694Y-123228600D01*
X159660850Y-123204549D01*
X159660321Y-123179948D01*
X159659129Y-123156271D01*
X159657300Y-123134991D01*
X159655914Y-123124045D01*
X159645747Y-123071737D01*
X159630996Y-123021214D01*
X159611839Y-122972723D01*
X159588456Y-122926508D01*
X159561024Y-122882817D01*
X159529724Y-122841897D01*
X159494732Y-122803992D01*
X159456229Y-122769350D01*
X159414393Y-122738217D01*
X159369403Y-122710840D01*
X159347977Y-122699712D01*
X159300646Y-122678956D01*
X159252462Y-122662984D01*
X159203044Y-122651707D01*
X159152010Y-122645039D01*
X159100000Y-122642891D01*
X159054843Y-122644365D01*
X159012475Y-122648928D01*
X158971562Y-122656788D01*
X158930769Y-122668152D01*
X158923960Y-122670378D01*
X158874705Y-122689370D01*
X158827852Y-122712596D01*
X158783643Y-122739815D01*
X158742319Y-122770788D01*
X158704122Y-122805275D01*
X158669295Y-122843036D01*
X158638078Y-122883832D01*
X158610714Y-122927422D01*
X158587445Y-122973567D01*
X158568512Y-123022026D01*
X158568074Y-123023329D01*
X158556907Y-123060050D01*
X158548666Y-123095126D01*
X158543102Y-123130130D01*
X158539965Y-123166637D01*
X158539004Y-123206084D01*
X158539990Y-123243824D01*
X158543057Y-123278572D01*
X158548476Y-123312030D01*
X158556521Y-123345900D01*
X158566756Y-123379742D01*
X158585700Y-123429412D01*
X158608995Y-123476635D01*
X158636490Y-123521205D01*
X158668038Y-123562917D01*
X158703490Y-123601564D01*
X158742697Y-123636943D01*
X158765524Y-123654723D01*
X158776681Y-123662991D01*
X158787963Y-123671394D01*
X158797838Y-123678788D01*
X158803247Y-123682869D01*
X158811470Y-123688763D01*
X158822332Y-123696081D01*
X158834134Y-123703693D01*
X158840970Y-123707937D01*
X158854169Y-123716145D01*
X158863686Y-123722542D01*
X158870241Y-123727755D01*
X158874550Y-123732410D01*
X158877333Y-123737134D01*
X158878805Y-123740963D01*
X158879075Y-123742144D01*
X158879131Y-123743689D01*
X158878892Y-123745799D01*
X158878280Y-123748672D01*
X158877214Y-123752506D01*
X158875615Y-123757503D01*
X158873404Y-123763860D01*
X158870501Y-123771776D01*
X158866826Y-123781451D01*
X158862300Y-123793084D01*
X158856844Y-123806874D01*
X158850377Y-123823020D01*
X158842821Y-123841722D01*
X158834096Y-123863177D01*
X158824121Y-123887586D01*
X158812819Y-123915148D01*
X158800108Y-123946061D01*
X158785911Y-123980526D01*
X158770146Y-124018740D01*
X158752735Y-124060903D01*
X158733598Y-124107214D01*
X158712655Y-124157873D01*
X158701400Y-124185093D01*
X158679840Y-124237188D01*
X158659326Y-124286673D01*
X158639918Y-124333400D01*
X158621680Y-124377222D01*
X158604674Y-124417990D01*
X158588960Y-124455558D01*
X158574603Y-124489776D01*
X158561664Y-124520499D01*
X158550205Y-124547577D01*
X158540288Y-124570864D01*
X158531976Y-124590211D01*
X158525331Y-124605471D01*
X158520415Y-124616495D01*
X158517290Y-124623138D01*
X158516094Y-124625222D01*
X158509755Y-124628499D01*
X158503425Y-124629623D01*
X158498868Y-124628370D01*
X158490014Y-124624631D01*
X158476924Y-124618434D01*
X158459655Y-124609809D01*
X158438269Y-124598785D01*
X158412823Y-124585390D01*
X158406253Y-124581898D01*
X158386434Y-124571410D01*
X158367737Y-124561640D01*
X158350684Y-124552852D01*
X158335798Y-124545310D01*
X158323603Y-124539279D01*
X158314622Y-124535022D01*
X158309377Y-124532804D01*
X158308575Y-124532569D01*
X158300146Y-124532265D01*
X158292779Y-124533666D01*
X158289584Y-124535468D01*
X158282560Y-124539915D01*
X158272019Y-124546797D01*
X158258271Y-124555905D01*
X158241630Y-124567028D01*
X158222407Y-124579958D01*
X158200914Y-124594484D01*
X158177463Y-124610396D01*
X158152365Y-124627486D01*
X158125933Y-124645542D01*
X158102155Y-124661834D01*
X158074535Y-124680782D01*
X158047794Y-124699127D01*
X158022265Y-124716639D01*
X157998281Y-124733089D01*
X157976177Y-124748249D01*
X157956285Y-124761890D01*
X157938940Y-124773784D01*
X157924475Y-124783700D01*
X157913223Y-124791411D01*
X157905520Y-124796688D01*
X157902143Y-124798997D01*
X157890080Y-124806348D01*
X157880284Y-124810042D01*
X157871756Y-124810249D01*
X157863499Y-124807140D01*
X157861435Y-124805912D01*
X157858636Y-124803496D01*
X157852539Y-124797759D01*
X157843394Y-124788946D01*
X157831448Y-124777303D01*
X157816951Y-124763076D01*
X157800151Y-124746510D01*
X157781297Y-124727851D01*
X157760638Y-124707345D01*
X157738423Y-124685237D01*
X157714900Y-124661772D01*
X157690318Y-124637196D01*
X157673599Y-124620451D01*
X157639864Y-124586593D01*
X157609690Y-124556208D01*
X157583039Y-124529257D01*
X157559874Y-124505702D01*
X157540155Y-124485503D01*
X157523845Y-124468619D01*
X157510905Y-124455013D01*
X157501297Y-124444645D01*
X157494984Y-124437474D01*
X157491926Y-124433463D01*
X157491620Y-124432804D01*
X157490720Y-124424838D01*
X157491035Y-124418972D01*
X157492592Y-124415961D01*
X157496814Y-124409106D01*
X157503504Y-124398700D01*
X157512468Y-124385035D01*
X157523508Y-124368405D01*
X157536428Y-124349102D01*
X157551032Y-124327418D01*
X157567124Y-124303647D01*
X157584507Y-124278081D01*
X157602986Y-124251013D01*
X157622364Y-124222735D01*
X157631360Y-124209643D01*
X157655411Y-124174639D01*
X157676733Y-124143539D01*
X157695470Y-124116121D01*
X157711771Y-124092165D01*
X157725781Y-124071447D01*
X157737648Y-124053747D01*
X157747518Y-124038844D01*
X157755539Y-124026515D01*
X157761856Y-124016539D01*
X157766616Y-124008694D01*
X157769967Y-124002759D01*
X157772054Y-123998513D01*
X157773025Y-123995733D01*
X157773032Y-123995703D01*
X157773436Y-123993591D01*
X157773648Y-123991390D01*
X157773553Y-123988789D01*
X157773037Y-123985475D01*
X157771987Y-123981139D01*
X157770289Y-123975468D01*
X157767829Y-123968151D01*
X157764492Y-123958877D01*
X157760166Y-123947335D01*
X157754736Y-123933213D01*
X157748087Y-123916201D01*
X157740107Y-123895986D01*
X157730682Y-123872258D01*
X157719696Y-123844705D01*
X157707038Y-123813017D01*
X157696905Y-123787669D01*
X157684860Y-123757618D01*
X157673256Y-123728812D01*
X157662239Y-123701606D01*
X157651957Y-123676358D01*
X157642556Y-123653425D01*
X157634185Y-123633164D01*
X157626989Y-123615931D01*
X157621117Y-123602083D01*
X157616716Y-123591977D01*
X157613932Y-123585970D01*
X157613088Y-123584467D01*
X157606838Y-123578611D01*
X157600097Y-123574588D01*
X157596559Y-123573678D01*
X157588425Y-123571925D01*
X157576048Y-123569397D01*
X157559779Y-123566162D01*
X157539970Y-123562289D01*
X157516973Y-123557844D01*
X157491139Y-123552896D01*
X157462820Y-123547512D01*
X157432367Y-123541761D01*
X157400133Y-123535710D01*
X157366468Y-123529427D01*
X157353435Y-123527004D01*
X157319307Y-123520655D01*
X157286465Y-123514523D01*
X157255261Y-123508675D01*
X157226049Y-123503179D01*
X157199181Y-123498101D01*
X157175011Y-123493509D01*
X157153890Y-123489469D01*
X157136171Y-123486049D01*
X157122208Y-123483316D01*
X157112352Y-123481337D01*
X157106958Y-123480179D01*
X157106157Y-123479970D01*
X157098245Y-123475394D01*
X157092943Y-123469389D01*
X157092168Y-123468002D01*
X157091481Y-123466330D01*
X157090879Y-123464080D01*
X157090355Y-123460959D01*
X157089907Y-123456675D01*
X157089529Y-123450936D01*
X157089216Y-123443449D01*
X157088965Y-123433921D01*
X157088771Y-123422061D01*
X157088628Y-123407577D01*
X157088534Y-123390175D01*
X157088482Y-123369563D01*
X157088470Y-123345449D01*
X157088491Y-123317540D01*
X157088541Y-123285545D01*
X157088617Y-123249170D01*
X157088713Y-123208123D01*
X157088737Y-123198246D01*
X157089376Y-122935018D01*
X157095371Y-122928637D01*
X157096249Y-122927558D01*
X157096863Y-122926630D01*
X157097492Y-122925794D01*
X157098412Y-122924993D01*
X157099901Y-122924170D01*
X157102235Y-122923267D01*
X157105692Y-122922228D01*
X157110550Y-122920993D01*
X157117085Y-122919507D01*
X157125575Y-122917712D01*
X157136297Y-122915550D01*
X157149528Y-122912964D01*
X157165546Y-122909897D01*
X157184627Y-122906290D01*
X157207049Y-122902087D01*
X157233089Y-122897231D01*
X157263025Y-122891663D01*
X157297133Y-122885327D01*
X157335691Y-122878165D01*
X157369033Y-122871969D01*
X157409894Y-122864373D01*
X157446104Y-122857633D01*
X157477952Y-122851678D01*
X157505730Y-122846438D01*
X157529729Y-122841841D01*
X157550240Y-122837816D01*
X157567555Y-122834294D01*
X157581964Y-122831202D01*
X157593759Y-122828470D01*
X157603232Y-122826027D01*
X157610672Y-122823802D01*
X157616372Y-122821724D01*
X157620622Y-122819723D01*
X157623714Y-122817728D01*
X157625938Y-122815667D01*
X157627587Y-122813470D01*
X157628951Y-122811066D01*
X157630321Y-122808384D01*
X157630328Y-122808370D01*
X157631932Y-122804878D01*
X157635354Y-122797134D01*
X157640431Y-122785510D01*
X157647002Y-122770381D01*
X157654907Y-122752119D01*
X157663985Y-122731096D01*
X157674073Y-122707685D01*
X157685012Y-122682259D01*
X157696640Y-122655190D01*
X157708795Y-122626853D01*
X157710765Y-122622256D01*
X157725488Y-122587931D01*
X157738358Y-122557914D01*
X157749474Y-122531878D01*
X157758931Y-122509494D01*
X157766826Y-122490435D01*
X157773256Y-122474371D01*
X157778317Y-122460975D01*
X157782107Y-122449918D01*
X157784721Y-122440873D01*
X157786256Y-122433511D01*
X157786809Y-122427503D01*
X157786477Y-122422522D01*
X157785356Y-122418240D01*
X157783543Y-122414328D01*
X157781134Y-122410457D01*
X157778226Y-122406301D01*
X157775494Y-122402386D01*
X157772369Y-122397811D01*
X157766618Y-122389410D01*
X157758463Y-122377505D01*
X157748122Y-122362415D01*
X157735816Y-122344463D01*
X157721766Y-122323969D01*
X157706191Y-122301255D01*
X157689312Y-122276642D01*
X157671348Y-122250451D01*
X157652521Y-122223003D01*
X157633050Y-122194620D01*
X157630030Y-122190217D01*
X157610707Y-122162039D01*
X157592160Y-122134966D01*
X157574592Y-122109298D01*
X157558206Y-122085329D01*
X157543202Y-122063359D01*
X157529785Y-122043683D01*
X157518157Y-122026599D01*
X157508520Y-122012404D01*
X157501077Y-122001394D01*
X157496030Y-121993867D01*
X157493582Y-121990120D01*
X157493407Y-121989823D01*
X157491443Y-121983596D01*
X157490507Y-121975669D01*
X157490495Y-121974753D01*
X157490576Y-121973141D01*
X157490955Y-121971404D01*
X157491831Y-121969332D01*
X157493405Y-121966714D01*
X157495877Y-121963339D01*
X157499448Y-121958996D01*
X157504318Y-121953476D01*
X157510686Y-121946567D01*
X157518754Y-121938059D01*
X157528723Y-121927740D01*
X157540791Y-121915402D01*
X157555160Y-121900832D01*
X157572031Y-121883820D01*
X157591602Y-121864155D01*
X157614076Y-121841628D01*
X157639652Y-121816027D01*
X157668530Y-121787141D01*
X157677241Y-121778429D01*
X157863988Y-121591683D01*
X157874972Y-121591683D01*
X157876369Y-121591594D01*
X157877491Y-121591417D01*
X157878543Y-121591286D01*
X157879727Y-121591335D01*
X157881247Y-121591700D01*
X157883305Y-121592514D01*
X157886105Y-121593912D01*
X157889851Y-121596028D01*
X157894744Y-121598997D01*
X157900989Y-121602953D01*
X157908789Y-121608030D01*
X157918346Y-121614364D01*
X157929864Y-121622087D01*
X157943546Y-121631336D01*
X157959595Y-121642243D01*
X157978215Y-121654944D01*
X157999608Y-121669574D01*
X158023978Y-121686265D01*
X158051528Y-121705153D01*
X158082460Y-121726373D01*
X158116979Y-121750058D01*
X158155287Y-121776344D01*
X158188033Y-121798809D01*
X158215331Y-121817530D01*
X158238804Y-121833605D01*
X158258772Y-121847235D01*
X158275556Y-121858622D01*
X158289475Y-121867967D01*
X158300851Y-121875472D01*
X158310003Y-121881339D01*
X158317253Y-121885769D01*
X158322919Y-121888963D01*
X158327323Y-121891124D01*
X158330786Y-121892454D01*
X158333627Y-121893152D01*
X158336166Y-121893422D01*
X158338451Y-121893465D01*
X158341406Y-121893229D01*
X158345398Y-121892441D01*
X158350742Y-121890979D01*
X158357755Y-121888723D01*
X158366754Y-121885553D01*
X158378054Y-121881347D01*
X158391972Y-121875985D01*
X158408824Y-121869345D01*
X158428927Y-121861308D01*
X158452596Y-121851752D01*
X158480148Y-121840556D01*
X158511900Y-121827600D01*
X158526141Y-121821777D01*
X158554446Y-121810172D01*
X158581495Y-121799031D01*
X158606912Y-121788511D01*
X158630319Y-121778772D01*
X158651341Y-121769970D01*
X158669601Y-121762266D01*
X158684722Y-121755816D01*
X158696327Y-121750779D01*
X158704041Y-121747313D01*
X158707486Y-121745577D01*
X158707527Y-121745547D01*
X158709785Y-121743863D01*
X158711830Y-121742155D01*
X158713729Y-121740136D01*
X158715547Y-121737517D01*
X158717351Y-121734014D01*
X158719207Y-121729338D01*
X158721181Y-121723203D01*
X158723339Y-121715322D01*
X158725747Y-121705407D01*
X158728471Y-121693173D01*
X158731577Y-121678331D01*
X158735131Y-121660596D01*
X158739200Y-121639680D01*
X158743849Y-121615296D01*
X158749144Y-121587158D01*
X158755152Y-121554977D01*
X158761939Y-121518468D01*
X158769570Y-121477344D01*
X158770771Y-121470869D01*
X158777357Y-121435447D01*
X158783728Y-121401329D01*
X158789819Y-121368850D01*
X158795567Y-121338348D01*
X158800907Y-121310159D01*
X158805774Y-121284620D01*
X158810105Y-121262068D01*
X158813834Y-121242838D01*
X158816898Y-121227269D01*
X158819233Y-121215695D01*
X158820773Y-121208455D01*
X158821400Y-121205984D01*
X158825549Y-121199638D01*
X158831701Y-121194214D01*
X158831968Y-121194048D01*
X158833368Y-121193288D01*
X158835123Y-121192614D01*
X158837526Y-121192020D01*
X158840872Y-121191503D01*
X158845454Y-121191056D01*
X158851565Y-121190675D01*
X158859501Y-121190354D01*
X158869553Y-121190089D01*
X158882017Y-121189873D01*
X158897185Y-121189702D01*
X158915351Y-121189571D01*
X158936810Y-121189474D01*
X158961855Y-121189406D01*
X158990779Y-121189363D01*
X159023876Y-121189338D01*
X159061441Y-121189328D01*
X159100000Y-121189325D01*
X159141912Y-121189328D01*
G36*
X159209423Y-117305069D02*
X159241094Y-117305572D01*
X159268725Y-117306621D01*
X159293824Y-117308340D01*
X159317893Y-117310851D01*
X159342439Y-117314276D01*
X159368967Y-117318740D01*
X159390931Y-117322815D01*
X159449786Y-117335578D01*
X159510883Y-117351645D01*
X159571336Y-117370182D01*
X159628260Y-117390354D01*
X159639639Y-117394777D01*
X159682817Y-117411970D01*
X159725192Y-117429108D01*
X159767150Y-117446370D01*
X159809080Y-117463937D01*
X159851369Y-117481989D01*
X159894404Y-117500707D01*
X159938573Y-117520271D01*
X159984265Y-117540862D01*
X160031866Y-117562659D01*
X160081764Y-117585844D01*
X160134347Y-117610597D01*
X160190003Y-117637099D01*
X160249118Y-117665528D01*
X160312082Y-117696067D01*
X160379280Y-117728896D01*
X160451102Y-117764194D01*
X160527935Y-117802143D01*
X160610166Y-117842923D01*
X160698183Y-117886714D01*
X160720903Y-117898037D01*
X160799183Y-117936981D01*
X160871702Y-117972880D01*
X160938949Y-118005961D01*
X161001415Y-118036448D01*
X161059589Y-118064567D01*
X161113962Y-118090545D01*
X161165024Y-118114606D01*
X161213265Y-118136978D01*
X161259175Y-118157885D01*
X161303244Y-118177553D01*
X161345962Y-118196208D01*
X161387819Y-118214076D01*
X161429306Y-118231382D01*
X161470912Y-118248353D01*
X161513128Y-118265213D01*
X161546403Y-118278281D01*
X161569926Y-118287518D01*
X161591319Y-118296037D01*
X161609688Y-118303473D01*
X161624143Y-118309460D01*
X161633791Y-118313635D01*
X161637732Y-118315624D01*
X161637199Y-118319719D01*
X161631987Y-118327737D01*
X161622739Y-118338968D01*
X161610100Y-118352704D01*
X161594712Y-118368236D01*
X161577219Y-118384855D01*
X161564178Y-118396657D01*
X161496199Y-118452758D01*
X161421764Y-118506253D01*
X161340994Y-118557086D01*
X161254011Y-118605200D01*
X161160938Y-118650538D01*
X161061897Y-118693043D01*
X160957009Y-118732658D01*
X160846398Y-118769327D01*
X160730185Y-118802992D01*
X160643292Y-118825296D01*
X160542697Y-118848538D01*
X160447709Y-118867867D01*
X160358081Y-118883303D01*
X160273561Y-118894868D01*
X160193901Y-118902580D01*
X160118851Y-118906462D01*
X160048163Y-118906535D01*
X159981587Y-118902818D01*
X159918874Y-118895332D01*
X159881082Y-118888660D01*
X159820450Y-118873748D01*
X159765094Y-118854367D01*
X159715086Y-118830590D01*
X159670499Y-118802491D01*
X159631404Y-118770142D01*
X159597873Y-118733617D01*
X159569979Y-118692988D01*
X159547795Y-118648329D01*
X159531392Y-118599713D01*
X159520842Y-118547214D01*
X159517903Y-118520940D01*
X159517085Y-118509833D01*
X159516149Y-118501698D01*
X159514111Y-118495994D01*
X159509991Y-118492178D01*
X159502806Y-118489710D01*
X159491575Y-118488046D01*
X159475315Y-118486646D01*
X159453045Y-118484967D01*
X159452667Y-118484937D01*
X159425115Y-118482710D01*
X159403944Y-118480816D01*
X159388491Y-118479166D01*
X159378094Y-118477673D01*
X159372090Y-118476249D01*
X159369817Y-118474807D01*
X159369918Y-118473974D01*
X159367973Y-118472665D01*
X159361139Y-118472440D01*
X159351468Y-118473114D01*
X159341010Y-118474497D01*
X159331817Y-118476403D01*
X159327431Y-118477859D01*
X159321923Y-118479376D01*
X159310616Y-118481836D01*
X159294669Y-118485008D01*
X159275241Y-118488665D01*
X159253489Y-118492578D01*
X159248056Y-118493529D01*
X159166570Y-118507036D01*
X159089154Y-118518409D01*
X159013266Y-118527987D01*
X158936367Y-118536109D01*
X158912917Y-118538294D01*
X158890487Y-118539888D01*
X158863281Y-118541121D01*
X158832652Y-118541993D01*
X158799951Y-118542504D01*
X158766529Y-118542652D01*
X158733738Y-118542438D01*
X158702930Y-118541861D01*
X158675455Y-118540920D01*
X158652666Y-118539615D01*
X158639514Y-118538402D01*
X158566686Y-118528747D01*
X158495829Y-118516860D01*
X158425068Y-118502349D01*
X158352527Y-118484822D01*
X158276331Y-118463890D01*
X158260857Y-118459368D01*
X158238243Y-118452575D01*
X158221577Y-118447222D01*
X158209982Y-118442959D01*
X158202578Y-118439438D01*
X158198490Y-118436309D01*
X158197057Y-118433968D01*
X158196091Y-118428855D01*
X158194509Y-118417561D01*
X158192410Y-118400925D01*
X158189895Y-118379783D01*
X158187063Y-118354975D01*
X158184013Y-118327338D01*
X158180918Y-118298392D01*
X158177321Y-118264399D01*
X158174435Y-118236757D01*
X158172312Y-118214791D01*
X158171001Y-118197830D01*
X158170553Y-118185198D01*
X158171018Y-118176223D01*
X158172447Y-118170230D01*
X158174890Y-118166547D01*
X158178397Y-118164499D01*
X158183018Y-118163413D01*
X158188805Y-118162615D01*
X158191091Y-118162283D01*
X158202337Y-118160254D01*
X158219389Y-118156797D01*
X158241193Y-118152151D01*
X158266700Y-118146555D01*
X158294858Y-118140249D01*
X158324615Y-118133471D01*
X158354921Y-118126461D01*
X158384725Y-118119457D01*
X158412975Y-118112700D01*
X158438620Y-118106427D01*
X158457833Y-118101593D01*
X158560462Y-118074234D01*
X158656453Y-118046397D01*
X158746213Y-118017945D01*
X158830153Y-117988742D01*
X158908680Y-117958650D01*
X158982203Y-117927534D01*
X158994056Y-117922213D01*
X159064730Y-117887760D01*
X159136700Y-117848022D01*
X159208246Y-117804092D01*
X159277648Y-117757066D01*
X159343190Y-117708037D01*
X159387403Y-117671786D01*
X159405065Y-117656423D01*
X159423398Y-117640012D01*
X159441684Y-117623244D01*
X159459206Y-117606810D01*
X159475249Y-117591401D01*
X159489095Y-117577709D01*
X159500027Y-117566424D01*
X159507329Y-117558238D01*
X159510283Y-117553841D01*
X159510219Y-117553368D01*
X159504114Y-117550119D01*
X159492137Y-117545797D01*
X159475347Y-117540663D01*
X159454801Y-117534980D01*
X159431556Y-117529011D01*
X159406670Y-117523019D01*
X159381199Y-117517265D01*
X159356201Y-117512013D01*
X159332732Y-117507526D01*
X159311852Y-117504065D01*
X159311556Y-117504021D01*
X159256513Y-117497477D01*
X159202179Y-117494423D01*
X159147039Y-117494893D01*
X159089581Y-117498923D01*
X159028289Y-117506548D01*
X158998461Y-117511261D01*
X158905204Y-117529850D01*
X158815771Y-117553707D01*
X158730377Y-117582725D01*
X158649234Y-117616797D01*
X158572557Y-117655818D01*
X158500558Y-117699681D01*
X158433451Y-117748280D01*
X158371449Y-117801509D01*
X158327949Y-117844915D01*
X158285574Y-117893556D01*
X158247536Y-117944333D01*
X158214493Y-117996230D01*
X158187105Y-118048230D01*
X158169656Y-118089355D01*
X158164680Y-118101769D01*
X158160056Y-118111937D01*
X158156789Y-118117652D01*
X158153532Y-118120958D01*
X158145631Y-118128670D01*
X158133561Y-118140334D01*
X158117793Y-118155496D01*
X158098801Y-118173704D01*
X158077057Y-118194504D01*
X158053034Y-118217442D01*
X158027205Y-118242065D01*
X158008042Y-118260309D01*
X157981341Y-118285737D01*
X157956208Y-118309712D01*
X157933104Y-118331794D01*
X157912486Y-118351540D01*
X157894813Y-118368513D01*
X157880545Y-118382270D01*
X157870139Y-118392371D01*
X157864055Y-118398376D01*
X157862607Y-118399922D01*
X157865572Y-118401699D01*
X157874384Y-118406052D01*
X157888436Y-118412701D01*
X157907123Y-118421368D01*
X157929836Y-118431773D01*
X157955972Y-118443637D01*
X157984923Y-118456683D01*
X158016083Y-118470630D01*
X158023468Y-118473923D01*
X158185126Y-118545942D01*
X158201981Y-118606214D01*
X158210094Y-118634199D01*
X158219941Y-118666534D01*
X158230916Y-118701347D01*
X158242411Y-118736762D01*
X158253817Y-118770907D01*
X158264527Y-118801907D01*
X158273511Y-118826757D01*
X158278959Y-118840443D01*
X158283479Y-118848917D01*
X158288136Y-118853733D01*
X158293830Y-118856392D01*
X158301132Y-118857558D01*
X158314453Y-118858496D01*
X158332760Y-118859209D01*
X158355020Y-118859697D01*
X158380201Y-118859965D01*
X158407269Y-118860013D01*
X158435192Y-118859845D01*
X158462937Y-118859461D01*
X158489472Y-118858866D01*
X158513763Y-118858060D01*
X158534777Y-118857046D01*
X158551319Y-118855841D01*
X158714261Y-118838212D01*
X158814139Y-118824838D01*
X158856859Y-118818400D01*
X158893678Y-118812100D01*
X158925734Y-118805624D01*
X158954167Y-118798661D01*
X158980116Y-118790899D01*
X159004721Y-118782025D01*
X159029122Y-118771727D01*
X159054457Y-118759694D01*
X159057556Y-118758147D01*
X159113115Y-118726813D01*
X159167664Y-118689211D01*
X159220233Y-118646128D01*
X159269852Y-118598353D01*
X159310314Y-118553042D01*
X159328347Y-118531319D01*
X159330748Y-118556569D01*
X159337775Y-118603991D01*
X159349681Y-118653168D01*
X159365802Y-118702224D01*
X159385477Y-118749282D01*
X159408042Y-118792463D01*
X159421719Y-118814289D01*
X159459340Y-118864006D01*
X159502141Y-118909003D01*
X159550037Y-118949251D01*
X159602937Y-118984723D01*
X159660757Y-119015389D01*
X159723406Y-119041223D01*
X159790799Y-119062197D01*
X159862848Y-119078282D01*
X159939465Y-119089451D01*
X160020562Y-119095676D01*
X160106053Y-119096929D01*
X160195848Y-119093182D01*
X160274639Y-119086139D01*
X160347782Y-119076822D01*
X160425875Y-119064509D01*
X160507621Y-119049481D01*
X160591724Y-119032024D01*
X160676887Y-119012418D01*
X160761813Y-118990949D01*
X160845205Y-118967899D01*
X160921986Y-118944745D01*
X161019460Y-118912112D01*
X161113786Y-118876670D01*
X161204613Y-118838629D01*
X161291592Y-118798203D01*
X161374372Y-118755600D01*
X161452604Y-118711034D01*
X161525937Y-118664714D01*
X161594021Y-118616853D01*
X161656506Y-118567661D01*
X161713041Y-118517350D01*
X161763278Y-118466131D01*
X161806865Y-118414215D01*
X161811516Y-118408103D01*
X161821132Y-118395676D01*
X161827892Y-118388104D01*
X161832929Y-118384422D01*
X161837377Y-118383664D01*
X161839726Y-118384079D01*
X161859163Y-118388388D01*
X161884240Y-118393070D01*
X161913568Y-118397922D01*
X161945757Y-118402737D01*
X161979415Y-118407313D01*
X162013152Y-118411443D01*
X162045578Y-118414923D01*
X162056167Y-118415932D01*
X162087905Y-118418462D01*
X162119888Y-118420184D01*
X162152791Y-118421067D01*
X162187290Y-118421080D01*
X162224060Y-118420194D01*
X162263775Y-118418377D01*
X162307113Y-118415599D01*
X162354746Y-118411829D01*
X162407352Y-118407037D01*
X162465605Y-118401192D01*
X162527125Y-118394600D01*
X162616165Y-118384237D01*
X162711639Y-118372018D01*
X162813193Y-118358007D01*
X162920469Y-118342269D01*
X163033115Y-118324868D01*
X163150774Y-118305867D01*
X163273091Y-118285332D01*
X163399712Y-118263326D01*
X163530280Y-118239914D01*
X163664441Y-118215160D01*
X163801840Y-118189128D01*
X163942121Y-118161882D01*
X164084930Y-118133486D01*
X164229911Y-118104006D01*
X164376709Y-118073505D01*
X164524969Y-118042046D01*
X164674335Y-118009696D01*
X164761972Y-117990408D01*
X164806466Y-117980554D01*
X164844684Y-117972267D01*
X164877258Y-117965680D01*
X164904823Y-117960928D01*
X164928011Y-117958146D01*
X164947455Y-117957468D01*
X164963788Y-117959028D01*
X164977642Y-117962962D01*
X164989652Y-117969404D01*
X165000449Y-117978488D01*
X165010667Y-117990348D01*
X165020938Y-118005120D01*
X165031896Y-118022938D01*
X165044174Y-118043936D01*
X165048453Y-118051295D01*
X165085722Y-118117072D01*
X165120654Y-118182322D01*
X165152855Y-118246214D01*
X165181929Y-118307915D01*
X165207481Y-118366594D01*
X165229117Y-118421419D01*
X165242982Y-118460859D01*
X165258442Y-118513272D01*
X165269158Y-118562184D01*
X165275158Y-118607367D01*
X165276469Y-118648594D01*
X165273119Y-118685635D01*
X165265134Y-118718262D01*
X165252543Y-118746247D01*
X165235372Y-118769362D01*
X165213649Y-118787378D01*
X165203124Y-118793395D01*
X165192991Y-118798154D01*
X165181941Y-118802524D01*
X165169615Y-118806533D01*
X165155657Y-118810209D01*
X165139709Y-118813581D01*
X165121413Y-118816677D01*
X165100414Y-118819524D01*
X165076352Y-118822152D01*
X165048872Y-118824587D01*
X165017615Y-118826859D01*
X164982225Y-118828995D01*
X164942343Y-118831023D01*
X164897613Y-118832973D01*
X164847677Y-118834871D01*
X164792178Y-118836746D01*
X164730759Y-118838626D01*
X164663062Y-118840540D01*
X164588731Y-118842515D01*
X164575000Y-118842869D01*
X164452923Y-118846207D01*
X164337344Y-118849786D01*
X164227707Y-118853639D01*
X164123456Y-118857794D01*
X164024037Y-118862284D01*
X163928895Y-118867138D01*
X163837474Y-118872388D01*
X163749219Y-118878064D01*
X163663574Y-118884196D01*
X163579985Y-118890816D01*
X163497897Y-118897954D01*
X163416754Y-118905640D01*
X163389667Y-118908345D01*
X163260967Y-118922177D01*
X163136502Y-118937273D01*
X163015523Y-118953805D01*
X162897281Y-118971941D01*
X162781028Y-118991851D01*
X162666016Y-119013705D01*
X162551496Y-119037671D01*
X162436721Y-119063920D01*
X162320941Y-119092620D01*
X162203408Y-119123942D01*
X162083373Y-119158054D01*
X161960090Y-119195127D01*
X161832808Y-119235329D01*
X161700780Y-119278830D01*
X161595792Y-119314551D01*
X161545932Y-119332059D01*
X161498400Y-119349485D01*
X161452527Y-119367150D01*
X161407643Y-119385374D01*
X161363080Y-119404476D01*
X161318167Y-119424779D01*
X161272235Y-119446601D01*
X161224615Y-119470263D01*
X161174637Y-119496085D01*
X161121633Y-119524388D01*
X161064932Y-119555492D01*
X161003865Y-119589717D01*
X160937763Y-119627384D01*
X160916694Y-119639493D01*
X160858073Y-119673223D01*
X160805102Y-119703651D01*
X160757334Y-119731025D01*
X160714321Y-119755591D01*
X160675616Y-119777596D01*
X160640771Y-119797287D01*
X160609338Y-119814910D01*
X160580870Y-119830714D01*
X160554919Y-119844944D01*
X160531037Y-119857848D01*
X160508777Y-119869672D01*
X160487692Y-119880664D01*
X160467332Y-119891070D01*
X160447252Y-119901138D01*
X160427003Y-119911113D01*
X160406138Y-119921244D01*
X160404306Y-119922128D01*
X160336867Y-119953565D01*
X160273250Y-119980819D01*
X160212082Y-120004282D01*
X160151992Y-120024345D01*
X160091609Y-120041402D01*
X160029560Y-120055844D01*
X159964474Y-120068064D01*
X159894978Y-120078454D01*
X159830139Y-120086279D01*
X159789152Y-120090039D01*
X159743206Y-120092999D01*
X159694358Y-120095105D01*
X159644663Y-120096301D01*
X159596179Y-120096532D01*
X159550962Y-120095744D01*
X159521458Y-120094508D01*
X159441912Y-120087865D01*
X159361456Y-120076743D01*
X159281278Y-120061443D01*
X159202567Y-120042263D01*
X159126511Y-120019501D01*
X159054298Y-119993456D01*
X158987116Y-119964427D01*
X158969008Y-119955625D01*
X158888028Y-119911372D01*
X158808806Y-119860408D01*
X158731482Y-119802893D01*
X158656195Y-119738983D01*
X158583086Y-119668836D01*
X158512295Y-119592610D01*
X158443960Y-119510463D01*
X158378223Y-119422552D01*
X158315222Y-119329036D01*
X158255097Y-119230070D01*
X158197989Y-119125814D01*
X158152897Y-119035201D01*
X158134559Y-118995287D01*
X158116937Y-118953922D01*
X158099526Y-118909814D01*
X158081819Y-118861672D01*
X158063310Y-118808204D01*
X158058965Y-118795250D01*
X158051296Y-118771804D01*
X158043193Y-118746214D01*
X158035008Y-118719673D01*
X158027093Y-118693373D01*
X158019801Y-118668508D01*
X158013485Y-118646269D01*
X158008496Y-118627848D01*
X158005187Y-118614440D01*
X158004378Y-118610558D01*
X158002209Y-118598996D01*
X157797595Y-118516428D01*
X157761615Y-118501883D01*
X157727607Y-118488085D01*
X157696132Y-118475266D01*
X157667748Y-118463654D01*
X157643014Y-118453480D01*
X157622490Y-118444974D01*
X157606734Y-118438367D01*
X157596307Y-118433889D01*
X157591768Y-118431769D01*
X157591619Y-118431656D01*
X157593960Y-118429006D01*
X157601162Y-118422050D01*
X157612812Y-118411163D01*
X157628495Y-118396724D01*
X157647797Y-118379108D01*
X157670304Y-118358694D01*
X157695601Y-118335859D01*
X157723274Y-118310979D01*
X157752909Y-118284432D01*
X157778286Y-118261769D01*
X157814302Y-118229640D01*
X157845416Y-118201846D01*
X157871998Y-118178033D01*
X157894415Y-118157848D01*
X157913038Y-118140935D01*
X157928235Y-118126942D01*
X157940376Y-118115513D01*
X157949830Y-118106294D01*
X157956965Y-118098931D01*
X157962152Y-118093071D01*
X157965759Y-118088358D01*
X157968156Y-118084439D01*
X157969712Y-118080959D01*
X157970795Y-118077565D01*
X157970979Y-118076897D01*
X157977388Y-118056348D01*
X157986490Y-118031398D01*
X157997560Y-118003816D01*
X158009874Y-117975375D01*
X158022705Y-117947843D01*
X158029300Y-117934554D01*
X158061749Y-117876345D01*
X158098977Y-117820220D01*
X158141666Y-117765249D01*
X158190499Y-117710502D01*
X158203642Y-117696849D01*
X158259151Y-117643310D01*
X158316431Y-117594827D01*
X158376685Y-117550531D01*
X158441117Y-117509557D01*
X158510931Y-117471037D01*
X158531917Y-117460420D01*
X158599971Y-117428548D01*
X158667985Y-117400713D01*
X158737187Y-117376541D01*
X158808807Y-117355659D01*
X158884072Y-117337692D01*
X158964212Y-117322268D01*
X159010680Y-117314752D01*
X159030516Y-117311832D01*
X159047844Y-117309566D01*
X159064061Y-117307870D01*
X159080562Y-117306659D01*
X159098742Y-117305848D01*
X159119998Y-117305355D01*
X159145724Y-117305094D01*
X159172208Y-117304991D01*
X159209423Y-117305069D01*
X159209423Y-117305069D01*
G37*
X159209423Y-117305069D02*
X159241094Y-117305572D01*
X159268725Y-117306621D01*
X159293824Y-117308340D01*
X159317893Y-117310851D01*
X159342439Y-117314276D01*
X159368967Y-117318740D01*
X159390931Y-117322815D01*
X159449786Y-117335578D01*
X159510883Y-117351645D01*
X159571336Y-117370182D01*
X159628260Y-117390354D01*
X159639639Y-117394777D01*
X159682817Y-117411970D01*
X159725192Y-117429108D01*
X159767150Y-117446370D01*
X159809080Y-117463937D01*
X159851369Y-117481989D01*
X159894404Y-117500707D01*
X159938573Y-117520271D01*
X159984265Y-117540862D01*
X160031866Y-117562659D01*
X160081764Y-117585844D01*
X160134347Y-117610597D01*
X160190003Y-117637099D01*
X160249118Y-117665528D01*
X160312082Y-117696067D01*
X160379280Y-117728896D01*
X160451102Y-117764194D01*
X160527935Y-117802143D01*
X160610166Y-117842923D01*
X160698183Y-117886714D01*
X160720903Y-117898037D01*
X160799183Y-117936981D01*
X160871702Y-117972880D01*
X160938949Y-118005961D01*
X161001415Y-118036448D01*
X161059589Y-118064567D01*
X161113962Y-118090545D01*
X161165024Y-118114606D01*
X161213265Y-118136978D01*
X161259175Y-118157885D01*
X161303244Y-118177553D01*
X161345962Y-118196208D01*
X161387819Y-118214076D01*
X161429306Y-118231382D01*
X161470912Y-118248353D01*
X161513128Y-118265213D01*
X161546403Y-118278281D01*
X161569926Y-118287518D01*
X161591319Y-118296037D01*
X161609688Y-118303473D01*
X161624143Y-118309460D01*
X161633791Y-118313635D01*
X161637732Y-118315624D01*
X161637199Y-118319719D01*
X161631987Y-118327737D01*
X161622739Y-118338968D01*
X161610100Y-118352704D01*
X161594712Y-118368236D01*
X161577219Y-118384855D01*
X161564178Y-118396657D01*
X161496199Y-118452758D01*
X161421764Y-118506253D01*
X161340994Y-118557086D01*
X161254011Y-118605200D01*
X161160938Y-118650538D01*
X161061897Y-118693043D01*
X160957009Y-118732658D01*
X160846398Y-118769327D01*
X160730185Y-118802992D01*
X160643292Y-118825296D01*
X160542697Y-118848538D01*
X160447709Y-118867867D01*
X160358081Y-118883303D01*
X160273561Y-118894868D01*
X160193901Y-118902580D01*
X160118851Y-118906462D01*
X160048163Y-118906535D01*
X159981587Y-118902818D01*
X159918874Y-118895332D01*
X159881082Y-118888660D01*
X159820450Y-118873748D01*
X159765094Y-118854367D01*
X159715086Y-118830590D01*
X159670499Y-118802491D01*
X159631404Y-118770142D01*
X159597873Y-118733617D01*
X159569979Y-118692988D01*
X159547795Y-118648329D01*
X159531392Y-118599713D01*
X159520842Y-118547214D01*
X159517903Y-118520940D01*
X159517085Y-118509833D01*
X159516149Y-118501698D01*
X159514111Y-118495994D01*
X159509991Y-118492178D01*
X159502806Y-118489710D01*
X159491575Y-118488046D01*
X159475315Y-118486646D01*
X159453045Y-118484967D01*
X159452667Y-118484937D01*
X159425115Y-118482710D01*
X159403944Y-118480816D01*
X159388491Y-118479166D01*
X159378094Y-118477673D01*
X159372090Y-118476249D01*
X159369817Y-118474807D01*
X159369918Y-118473974D01*
X159367973Y-118472665D01*
X159361139Y-118472440D01*
X159351468Y-118473114D01*
X159341010Y-118474497D01*
X159331817Y-118476403D01*
X159327431Y-118477859D01*
X159321923Y-118479376D01*
X159310616Y-118481836D01*
X159294669Y-118485008D01*
X159275241Y-118488665D01*
X159253489Y-118492578D01*
X159248056Y-118493529D01*
X159166570Y-118507036D01*
X159089154Y-118518409D01*
X159013266Y-118527987D01*
X158936367Y-118536109D01*
X158912917Y-118538294D01*
X158890487Y-118539888D01*
X158863281Y-118541121D01*
X158832652Y-118541993D01*
X158799951Y-118542504D01*
X158766529Y-118542652D01*
X158733738Y-118542438D01*
X158702930Y-118541861D01*
X158675455Y-118540920D01*
X158652666Y-118539615D01*
X158639514Y-118538402D01*
X158566686Y-118528747D01*
X158495829Y-118516860D01*
X158425068Y-118502349D01*
X158352527Y-118484822D01*
X158276331Y-118463890D01*
X158260857Y-118459368D01*
X158238243Y-118452575D01*
X158221577Y-118447222D01*
X158209982Y-118442959D01*
X158202578Y-118439438D01*
X158198490Y-118436309D01*
X158197057Y-118433968D01*
X158196091Y-118428855D01*
X158194509Y-118417561D01*
X158192410Y-118400925D01*
X158189895Y-118379783D01*
X158187063Y-118354975D01*
X158184013Y-118327338D01*
X158180918Y-118298392D01*
X158177321Y-118264399D01*
X158174435Y-118236757D01*
X158172312Y-118214791D01*
X158171001Y-118197830D01*
X158170553Y-118185198D01*
X158171018Y-118176223D01*
X158172447Y-118170230D01*
X158174890Y-118166547D01*
X158178397Y-118164499D01*
X158183018Y-118163413D01*
X158188805Y-118162615D01*
X158191091Y-118162283D01*
X158202337Y-118160254D01*
X158219389Y-118156797D01*
X158241193Y-118152151D01*
X158266700Y-118146555D01*
X158294858Y-118140249D01*
X158324615Y-118133471D01*
X158354921Y-118126461D01*
X158384725Y-118119457D01*
X158412975Y-118112700D01*
X158438620Y-118106427D01*
X158457833Y-118101593D01*
X158560462Y-118074234D01*
X158656453Y-118046397D01*
X158746213Y-118017945D01*
X158830153Y-117988742D01*
X158908680Y-117958650D01*
X158982203Y-117927534D01*
X158994056Y-117922213D01*
X159064730Y-117887760D01*
X159136700Y-117848022D01*
X159208246Y-117804092D01*
X159277648Y-117757066D01*
X159343190Y-117708037D01*
X159387403Y-117671786D01*
X159405065Y-117656423D01*
X159423398Y-117640012D01*
X159441684Y-117623244D01*
X159459206Y-117606810D01*
X159475249Y-117591401D01*
X159489095Y-117577709D01*
X159500027Y-117566424D01*
X159507329Y-117558238D01*
X159510283Y-117553841D01*
X159510219Y-117553368D01*
X159504114Y-117550119D01*
X159492137Y-117545797D01*
X159475347Y-117540663D01*
X159454801Y-117534980D01*
X159431556Y-117529011D01*
X159406670Y-117523019D01*
X159381199Y-117517265D01*
X159356201Y-117512013D01*
X159332732Y-117507526D01*
X159311852Y-117504065D01*
X159311556Y-117504021D01*
X159256513Y-117497477D01*
X159202179Y-117494423D01*
X159147039Y-117494893D01*
X159089581Y-117498923D01*
X159028289Y-117506548D01*
X158998461Y-117511261D01*
X158905204Y-117529850D01*
X158815771Y-117553707D01*
X158730377Y-117582725D01*
X158649234Y-117616797D01*
X158572557Y-117655818D01*
X158500558Y-117699681D01*
X158433451Y-117748280D01*
X158371449Y-117801509D01*
X158327949Y-117844915D01*
X158285574Y-117893556D01*
X158247536Y-117944333D01*
X158214493Y-117996230D01*
X158187105Y-118048230D01*
X158169656Y-118089355D01*
X158164680Y-118101769D01*
X158160056Y-118111937D01*
X158156789Y-118117652D01*
X158153532Y-118120958D01*
X158145631Y-118128670D01*
X158133561Y-118140334D01*
X158117793Y-118155496D01*
X158098801Y-118173704D01*
X158077057Y-118194504D01*
X158053034Y-118217442D01*
X158027205Y-118242065D01*
X158008042Y-118260309D01*
X157981341Y-118285737D01*
X157956208Y-118309712D01*
X157933104Y-118331794D01*
X157912486Y-118351540D01*
X157894813Y-118368513D01*
X157880545Y-118382270D01*
X157870139Y-118392371D01*
X157864055Y-118398376D01*
X157862607Y-118399922D01*
X157865572Y-118401699D01*
X157874384Y-118406052D01*
X157888436Y-118412701D01*
X157907123Y-118421368D01*
X157929836Y-118431773D01*
X157955972Y-118443637D01*
X157984923Y-118456683D01*
X158016083Y-118470630D01*
X158023468Y-118473923D01*
X158185126Y-118545942D01*
X158201981Y-118606214D01*
X158210094Y-118634199D01*
X158219941Y-118666534D01*
X158230916Y-118701347D01*
X158242411Y-118736762D01*
X158253817Y-118770907D01*
X158264527Y-118801907D01*
X158273511Y-118826757D01*
X158278959Y-118840443D01*
X158283479Y-118848917D01*
X158288136Y-118853733D01*
X158293830Y-118856392D01*
X158301132Y-118857558D01*
X158314453Y-118858496D01*
X158332760Y-118859209D01*
X158355020Y-118859697D01*
X158380201Y-118859965D01*
X158407269Y-118860013D01*
X158435192Y-118859845D01*
X158462937Y-118859461D01*
X158489472Y-118858866D01*
X158513763Y-118858060D01*
X158534777Y-118857046D01*
X158551319Y-118855841D01*
X158714261Y-118838212D01*
X158814139Y-118824838D01*
X158856859Y-118818400D01*
X158893678Y-118812100D01*
X158925734Y-118805624D01*
X158954167Y-118798661D01*
X158980116Y-118790899D01*
X159004721Y-118782025D01*
X159029122Y-118771727D01*
X159054457Y-118759694D01*
X159057556Y-118758147D01*
X159113115Y-118726813D01*
X159167664Y-118689211D01*
X159220233Y-118646128D01*
X159269852Y-118598353D01*
X159310314Y-118553042D01*
X159328347Y-118531319D01*
X159330748Y-118556569D01*
X159337775Y-118603991D01*
X159349681Y-118653168D01*
X159365802Y-118702224D01*
X159385477Y-118749282D01*
X159408042Y-118792463D01*
X159421719Y-118814289D01*
X159459340Y-118864006D01*
X159502141Y-118909003D01*
X159550037Y-118949251D01*
X159602937Y-118984723D01*
X159660757Y-119015389D01*
X159723406Y-119041223D01*
X159790799Y-119062197D01*
X159862848Y-119078282D01*
X159939465Y-119089451D01*
X160020562Y-119095676D01*
X160106053Y-119096929D01*
X160195848Y-119093182D01*
X160274639Y-119086139D01*
X160347782Y-119076822D01*
X160425875Y-119064509D01*
X160507621Y-119049481D01*
X160591724Y-119032024D01*
X160676887Y-119012418D01*
X160761813Y-118990949D01*
X160845205Y-118967899D01*
X160921986Y-118944745D01*
X161019460Y-118912112D01*
X161113786Y-118876670D01*
X161204613Y-118838629D01*
X161291592Y-118798203D01*
X161374372Y-118755600D01*
X161452604Y-118711034D01*
X161525937Y-118664714D01*
X161594021Y-118616853D01*
X161656506Y-118567661D01*
X161713041Y-118517350D01*
X161763278Y-118466131D01*
X161806865Y-118414215D01*
X161811516Y-118408103D01*
X161821132Y-118395676D01*
X161827892Y-118388104D01*
X161832929Y-118384422D01*
X161837377Y-118383664D01*
X161839726Y-118384079D01*
X161859163Y-118388388D01*
X161884240Y-118393070D01*
X161913568Y-118397922D01*
X161945757Y-118402737D01*
X161979415Y-118407313D01*
X162013152Y-118411443D01*
X162045578Y-118414923D01*
X162056167Y-118415932D01*
X162087905Y-118418462D01*
X162119888Y-118420184D01*
X162152791Y-118421067D01*
X162187290Y-118421080D01*
X162224060Y-118420194D01*
X162263775Y-118418377D01*
X162307113Y-118415599D01*
X162354746Y-118411829D01*
X162407352Y-118407037D01*
X162465605Y-118401192D01*
X162527125Y-118394600D01*
X162616165Y-118384237D01*
X162711639Y-118372018D01*
X162813193Y-118358007D01*
X162920469Y-118342269D01*
X163033115Y-118324868D01*
X163150774Y-118305867D01*
X163273091Y-118285332D01*
X163399712Y-118263326D01*
X163530280Y-118239914D01*
X163664441Y-118215160D01*
X163801840Y-118189128D01*
X163942121Y-118161882D01*
X164084930Y-118133486D01*
X164229911Y-118104006D01*
X164376709Y-118073505D01*
X164524969Y-118042046D01*
X164674335Y-118009696D01*
X164761972Y-117990408D01*
X164806466Y-117980554D01*
X164844684Y-117972267D01*
X164877258Y-117965680D01*
X164904823Y-117960928D01*
X164928011Y-117958146D01*
X164947455Y-117957468D01*
X164963788Y-117959028D01*
X164977642Y-117962962D01*
X164989652Y-117969404D01*
X165000449Y-117978488D01*
X165010667Y-117990348D01*
X165020938Y-118005120D01*
X165031896Y-118022938D01*
X165044174Y-118043936D01*
X165048453Y-118051295D01*
X165085722Y-118117072D01*
X165120654Y-118182322D01*
X165152855Y-118246214D01*
X165181929Y-118307915D01*
X165207481Y-118366594D01*
X165229117Y-118421419D01*
X165242982Y-118460859D01*
X165258442Y-118513272D01*
X165269158Y-118562184D01*
X165275158Y-118607367D01*
X165276469Y-118648594D01*
X165273119Y-118685635D01*
X165265134Y-118718262D01*
X165252543Y-118746247D01*
X165235372Y-118769362D01*
X165213649Y-118787378D01*
X165203124Y-118793395D01*
X165192991Y-118798154D01*
X165181941Y-118802524D01*
X165169615Y-118806533D01*
X165155657Y-118810209D01*
X165139709Y-118813581D01*
X165121413Y-118816677D01*
X165100414Y-118819524D01*
X165076352Y-118822152D01*
X165048872Y-118824587D01*
X165017615Y-118826859D01*
X164982225Y-118828995D01*
X164942343Y-118831023D01*
X164897613Y-118832973D01*
X164847677Y-118834871D01*
X164792178Y-118836746D01*
X164730759Y-118838626D01*
X164663062Y-118840540D01*
X164588731Y-118842515D01*
X164575000Y-118842869D01*
X164452923Y-118846207D01*
X164337344Y-118849786D01*
X164227707Y-118853639D01*
X164123456Y-118857794D01*
X164024037Y-118862284D01*
X163928895Y-118867138D01*
X163837474Y-118872388D01*
X163749219Y-118878064D01*
X163663574Y-118884196D01*
X163579985Y-118890816D01*
X163497897Y-118897954D01*
X163416754Y-118905640D01*
X163389667Y-118908345D01*
X163260967Y-118922177D01*
X163136502Y-118937273D01*
X163015523Y-118953805D01*
X162897281Y-118971941D01*
X162781028Y-118991851D01*
X162666016Y-119013705D01*
X162551496Y-119037671D01*
X162436721Y-119063920D01*
X162320941Y-119092620D01*
X162203408Y-119123942D01*
X162083373Y-119158054D01*
X161960090Y-119195127D01*
X161832808Y-119235329D01*
X161700780Y-119278830D01*
X161595792Y-119314551D01*
X161545932Y-119332059D01*
X161498400Y-119349485D01*
X161452527Y-119367150D01*
X161407643Y-119385374D01*
X161363080Y-119404476D01*
X161318167Y-119424779D01*
X161272235Y-119446601D01*
X161224615Y-119470263D01*
X161174637Y-119496085D01*
X161121633Y-119524388D01*
X161064932Y-119555492D01*
X161003865Y-119589717D01*
X160937763Y-119627384D01*
X160916694Y-119639493D01*
X160858073Y-119673223D01*
X160805102Y-119703651D01*
X160757334Y-119731025D01*
X160714321Y-119755591D01*
X160675616Y-119777596D01*
X160640771Y-119797287D01*
X160609338Y-119814910D01*
X160580870Y-119830714D01*
X160554919Y-119844944D01*
X160531037Y-119857848D01*
X160508777Y-119869672D01*
X160487692Y-119880664D01*
X160467332Y-119891070D01*
X160447252Y-119901138D01*
X160427003Y-119911113D01*
X160406138Y-119921244D01*
X160404306Y-119922128D01*
X160336867Y-119953565D01*
X160273250Y-119980819D01*
X160212082Y-120004282D01*
X160151992Y-120024345D01*
X160091609Y-120041402D01*
X160029560Y-120055844D01*
X159964474Y-120068064D01*
X159894978Y-120078454D01*
X159830139Y-120086279D01*
X159789152Y-120090039D01*
X159743206Y-120092999D01*
X159694358Y-120095105D01*
X159644663Y-120096301D01*
X159596179Y-120096532D01*
X159550962Y-120095744D01*
X159521458Y-120094508D01*
X159441912Y-120087865D01*
X159361456Y-120076743D01*
X159281278Y-120061443D01*
X159202567Y-120042263D01*
X159126511Y-120019501D01*
X159054298Y-119993456D01*
X158987116Y-119964427D01*
X158969008Y-119955625D01*
X158888028Y-119911372D01*
X158808806Y-119860408D01*
X158731482Y-119802893D01*
X158656195Y-119738983D01*
X158583086Y-119668836D01*
X158512295Y-119592610D01*
X158443960Y-119510463D01*
X158378223Y-119422552D01*
X158315222Y-119329036D01*
X158255097Y-119230070D01*
X158197989Y-119125814D01*
X158152897Y-119035201D01*
X158134559Y-118995287D01*
X158116937Y-118953922D01*
X158099526Y-118909814D01*
X158081819Y-118861672D01*
X158063310Y-118808204D01*
X158058965Y-118795250D01*
X158051296Y-118771804D01*
X158043193Y-118746214D01*
X158035008Y-118719673D01*
X158027093Y-118693373D01*
X158019801Y-118668508D01*
X158013485Y-118646269D01*
X158008496Y-118627848D01*
X158005187Y-118614440D01*
X158004378Y-118610558D01*
X158002209Y-118598996D01*
X157797595Y-118516428D01*
X157761615Y-118501883D01*
X157727607Y-118488085D01*
X157696132Y-118475266D01*
X157667748Y-118463654D01*
X157643014Y-118453480D01*
X157622490Y-118444974D01*
X157606734Y-118438367D01*
X157596307Y-118433889D01*
X157591768Y-118431769D01*
X157591619Y-118431656D01*
X157593960Y-118429006D01*
X157601162Y-118422050D01*
X157612812Y-118411163D01*
X157628495Y-118396724D01*
X157647797Y-118379108D01*
X157670304Y-118358694D01*
X157695601Y-118335859D01*
X157723274Y-118310979D01*
X157752909Y-118284432D01*
X157778286Y-118261769D01*
X157814302Y-118229640D01*
X157845416Y-118201846D01*
X157871998Y-118178033D01*
X157894415Y-118157848D01*
X157913038Y-118140935D01*
X157928235Y-118126942D01*
X157940376Y-118115513D01*
X157949830Y-118106294D01*
X157956965Y-118098931D01*
X157962152Y-118093071D01*
X157965759Y-118088358D01*
X157968156Y-118084439D01*
X157969712Y-118080959D01*
X157970795Y-118077565D01*
X157970979Y-118076897D01*
X157977388Y-118056348D01*
X157986490Y-118031398D01*
X157997560Y-118003816D01*
X158009874Y-117975375D01*
X158022705Y-117947843D01*
X158029300Y-117934554D01*
X158061749Y-117876345D01*
X158098977Y-117820220D01*
X158141666Y-117765249D01*
X158190499Y-117710502D01*
X158203642Y-117696849D01*
X158259151Y-117643310D01*
X158316431Y-117594827D01*
X158376685Y-117550531D01*
X158441117Y-117509557D01*
X158510931Y-117471037D01*
X158531917Y-117460420D01*
X158599971Y-117428548D01*
X158667985Y-117400713D01*
X158737187Y-117376541D01*
X158808807Y-117355659D01*
X158884072Y-117337692D01*
X158964212Y-117322268D01*
X159010680Y-117314752D01*
X159030516Y-117311832D01*
X159047844Y-117309566D01*
X159064061Y-117307870D01*
X159080562Y-117306659D01*
X159098742Y-117305848D01*
X159119998Y-117305355D01*
X159145724Y-117305094D01*
X159172208Y-117304991D01*
X159209423Y-117305069D01*
D12*
X164500000Y-120400000D03*
D13*
X171130000Y-100820000D03*
D14*
X171130000Y-103360000D03*
X171130000Y-105900000D03*
D15*
X171130000Y-108440000D03*
D14*
X171130000Y-110980000D03*
D16*
X160280000Y-102690000D03*
X158080000Y-102690000D03*
X158080000Y-100710000D03*
X160280000Y-100710000D03*
D17*
X167610000Y-108440000D03*
D18*
X167610000Y-105900000D03*
D12*
X164500000Y-98000000D03*
X158000000Y-98000000D03*
D19*
X158110000Y-109800000D03*
X161190000Y-109800000D03*
X158110000Y-109400000D03*
X161190000Y-109400000D03*
X158110000Y-109000000D03*
X161190000Y-109000000D03*
X158110000Y-108600000D03*
X161190000Y-108600000D03*
X158110000Y-108200000D03*
X161190000Y-108200000D03*
X158110000Y-107800000D03*
X161190000Y-107800000D03*
X158110000Y-107400000D03*
X161190000Y-107400000D03*
X158110000Y-107000000D03*
X161190000Y-107000000D03*
X158110000Y-106600000D03*
X161190000Y-106600000D03*
X158110000Y-106200000D03*
X161190000Y-106200000D03*
D20*
X157170000Y-106790000D03*
X157180000Y-110130000D03*
X160280000Y-103960000D03*
D21*
X157180000Y-110130000D02*
X157180000Y-109420000D01*
X157180000Y-109420000D02*
X157180000Y-109000000D01*
D22*
X158110000Y-109400000D02*
X157200000Y-109400000D01*
X157200000Y-109400000D02*
X157180000Y-109420000D01*
X158110000Y-109000000D02*
X157607600Y-109000000D01*
D21*
X157180000Y-109000000D02*
X157180000Y-108620000D01*
D22*
X157607600Y-109000000D02*
X157180000Y-109000000D01*
D21*
X157180000Y-108620000D02*
X157180000Y-108200000D01*
D22*
X158110000Y-108600000D02*
X157200000Y-108600000D01*
X157200000Y-108600000D02*
X157180000Y-108620000D01*
X157607600Y-108200000D02*
X157180000Y-108200000D01*
D21*
X157180000Y-108200000D02*
X157180000Y-107800000D01*
D22*
X158110000Y-108200000D02*
X157607600Y-108200000D01*
D21*
X157180000Y-107800000D02*
X157180000Y-107400000D01*
D22*
X158110000Y-107800000D02*
X157607600Y-107800000D01*
X157607600Y-107800000D02*
X157180000Y-107800000D01*
D21*
X157180000Y-107400000D02*
X157180000Y-106800000D01*
D22*
X158110000Y-107400000D02*
X157607600Y-107400000D01*
X157607600Y-107400000D02*
X157180000Y-107400000D01*
X158110000Y-107000000D02*
X157380000Y-107000000D01*
X157380000Y-107000000D02*
X157170000Y-106790000D01*
X158110000Y-106600000D02*
X157360000Y-106600000D01*
X157360000Y-106600000D02*
X157170000Y-106790000D01*
D21*
X157180000Y-106800000D02*
X157170000Y-106790000D01*
X158030000Y-110970000D02*
X158020000Y-110970000D01*
X158020000Y-110970000D02*
X157180000Y-110130000D01*
X158030000Y-110970000D02*
X158480000Y-111420000D01*
X158480000Y-111420000D02*
X165870000Y-111420000D01*
X165870000Y-111420000D02*
X166310000Y-110980000D01*
X166310000Y-110980000D02*
X171130000Y-110980000D01*
D23*
X158460000Y-110500000D02*
X159325000Y-110500000D01*
X158110000Y-109800000D02*
X158110000Y-110150000D01*
X158110000Y-110150000D02*
X158460000Y-110500000D01*
D22*
X161190000Y-106200000D02*
X162270000Y-106200000D01*
X162270000Y-106200000D02*
X162580000Y-105890000D01*
X162580000Y-105890000D02*
X162580000Y-105700000D01*
X161190000Y-106600000D02*
X162610000Y-106600000D01*
X162610000Y-106600000D02*
X162760000Y-106450000D01*
X161190000Y-107000000D02*
X163250000Y-107000000D01*
X163250000Y-107000000D02*
X163310000Y-106940000D01*
X161190000Y-107400000D02*
X162790000Y-107400000D01*
X162790000Y-107400000D02*
X162800000Y-107410000D01*
X161190000Y-107800000D02*
X163510000Y-107800000D01*
X163510000Y-107800000D02*
X163590000Y-107720000D01*
X161190000Y-108200000D02*
X163510000Y-108200000D01*
X163510000Y-108200000D02*
X163720000Y-108410000D01*
X161190000Y-108600000D02*
X162760000Y-108600000D01*
X162760000Y-108600000D02*
X163100000Y-108940000D01*
X161190000Y-109000000D02*
X162790000Y-109000000D01*
X162790000Y-109000000D02*
X163317101Y-109527101D01*
X163317101Y-109527101D02*
X163660000Y-109870000D01*
X161190000Y-109400000D02*
X162590000Y-109400000D01*
X162590000Y-109400000D02*
X162607101Y-109417101D01*
X162607101Y-109417101D02*
X162950000Y-109760000D01*
X161190000Y-109800000D02*
X162240000Y-109800000D01*
X162460000Y-110020000D02*
X162460000Y-110260000D01*
X162240000Y-109800000D02*
X162460000Y-110020000D01*
D21*
X170130000Y-105900000D02*
X166610000Y-105900000D01*
D22*
X160280000Y-102690000D02*
X160280000Y-103960000D01*
X160310000Y-102720000D02*
X160280000Y-102690000D01*
X158110000Y-106200000D02*
X157440000Y-106200000D01*
X157440000Y-106200000D02*
X157320000Y-106080000D01*
X157320000Y-106080000D02*
X157320000Y-105050000D01*
X157320000Y-105050000D02*
X158080000Y-104290000D01*
X158080000Y-104290000D02*
X158080000Y-102690000D01*
X158080000Y-100710000D02*
X158080000Y-102690000D01*
D24*
G36*
X164074904Y-90758505D02*
X164774225Y-91225777D01*
X165241495Y-91925095D01*
X165417000Y-92807421D01*
X165417000Y-96250000D01*
X165428202Y-96306316D01*
X165428202Y-96363738D01*
X165637533Y-97416116D01*
X165637533Y-97416117D01*
X165724584Y-97626276D01*
X166320709Y-98518441D01*
X166481559Y-98679291D01*
X167373723Y-99275416D01*
X167583883Y-99362467D01*
X168636262Y-99571798D01*
X168693684Y-99571798D01*
X168750000Y-99583000D01*
X170261025Y-99583000D01*
X170022512Y-99742369D01*
X169692151Y-100236790D01*
X169576143Y-100820000D01*
X169692151Y-101403210D01*
X170022512Y-101897631D01*
X170273123Y-102065084D01*
X170267851Y-102067262D01*
X169838769Y-102495596D01*
X169606265Y-103055528D01*
X169605736Y-103661812D01*
X169837262Y-104222149D01*
X170244737Y-104630336D01*
X169838769Y-105035596D01*
X169796247Y-105138000D01*
X169421868Y-105138000D01*
X169210970Y-104822369D01*
X168716549Y-104492008D01*
X168133339Y-104376000D01*
X167086661Y-104376000D01*
X166503451Y-104492008D01*
X166009030Y-104822369D01*
X165678669Y-105316790D01*
X165562661Y-105900000D01*
X165678669Y-106483210D01*
X165904820Y-106821669D01*
X165750302Y-106885673D01*
X165571673Y-107064301D01*
X165475000Y-107297690D01*
X165475000Y-108154250D01*
X165633750Y-108313000D01*
X167483000Y-108313000D01*
X167483000Y-108293000D01*
X167737000Y-108293000D01*
X167737000Y-108313000D01*
X169586250Y-108313000D01*
X169612000Y-108287250D01*
X169637750Y-108313000D01*
X171003000Y-108313000D01*
X171003000Y-108293000D01*
X171257000Y-108293000D01*
X171257000Y-108313000D01*
X171277000Y-108313000D01*
X171277000Y-108567000D01*
X171257000Y-108567000D01*
X171257000Y-108587000D01*
X171003000Y-108587000D01*
X171003000Y-108567000D01*
X169637750Y-108567000D01*
X169612000Y-108592750D01*
X169586250Y-108567000D01*
X167737000Y-108567000D01*
X167737000Y-109932250D01*
X167895750Y-110091000D01*
X169236309Y-110091000D01*
X169469698Y-109994327D01*
X169612000Y-109852026D01*
X169754302Y-109994327D01*
X169899855Y-110054617D01*
X169838769Y-110115596D01*
X169796247Y-110218000D01*
X166310000Y-110218000D01*
X166018395Y-110276004D01*
X165786153Y-110431184D01*
X165771185Y-110441185D01*
X165554370Y-110658000D01*
X158795630Y-110658000D01*
X158647347Y-110509717D01*
X158819698Y-110438327D01*
X158998327Y-110259699D01*
X159016825Y-110215041D01*
X160289164Y-110229499D01*
X160301673Y-110259699D01*
X160480302Y-110438327D01*
X160713691Y-110535000D01*
X160904250Y-110535000D01*
X161063000Y-110376250D01*
X161063000Y-110276653D01*
X161317000Y-110273922D01*
X161317000Y-110376250D01*
X161475750Y-110535000D01*
X161666309Y-110535000D01*
X161899698Y-110438327D01*
X162078327Y-110259699D01*
X162175000Y-110026310D01*
X162175000Y-110008750D01*
X162092586Y-109926336D01*
X162095383Y-109818523D01*
X162175000Y-109626310D01*
X162175000Y-109608750D01*
X162166250Y-109600000D01*
X162175000Y-109591250D01*
X162175000Y-109573690D01*
X162106053Y-109407237D01*
X162106453Y-109391796D01*
X162175000Y-109226310D01*
X162175000Y-109208750D01*
X162166250Y-109200000D01*
X162175000Y-109191250D01*
X162175000Y-109173690D01*
X162115819Y-109030813D01*
X162117524Y-108965069D01*
X162175000Y-108826310D01*
X162175000Y-108808750D01*
X162166250Y-108800000D01*
X162175000Y-108791250D01*
X162175000Y-108773690D01*
X162155143Y-108725750D01*
X165475000Y-108725750D01*
X165475000Y-109582310D01*
X165571673Y-109815699D01*
X165750302Y-109994327D01*
X165983691Y-110091000D01*
X167324250Y-110091000D01*
X167483000Y-109932250D01*
X167483000Y-108567000D01*
X165633750Y-108567000D01*
X165475000Y-108725750D01*
X162155143Y-108725750D01*
X162125584Y-108654390D01*
X162128595Y-108538342D01*
X162175000Y-108426310D01*
X162175000Y-108408750D01*
X162166250Y-108400000D01*
X162175000Y-108391250D01*
X162175000Y-108373690D01*
X162135350Y-108277966D01*
X162139666Y-108111615D01*
X162175000Y-108026310D01*
X162175000Y-108008750D01*
X162166250Y-108000000D01*
X162175000Y-107991250D01*
X162175000Y-107973690D01*
X162145116Y-107901543D01*
X162150736Y-107684887D01*
X162175000Y-107626310D01*
X162175000Y-107608750D01*
X162166250Y-107600000D01*
X162175000Y-107591250D01*
X162175000Y-107573690D01*
X162154881Y-107525119D01*
X162161807Y-107258160D01*
X162175000Y-107226310D01*
X162175000Y-107208750D01*
X162166250Y-107200000D01*
X162175000Y-107191250D01*
X162175000Y-107173690D01*
X162164647Y-107148696D01*
X162172878Y-106831433D01*
X162175000Y-106826310D01*
X162175000Y-106808750D01*
X162173505Y-106807255D01*
X162173892Y-106792358D01*
X162175000Y-106791250D01*
X162175000Y-106773690D01*
X162174413Y-106772272D01*
X162196957Y-105903294D01*
X162190358Y-105859467D01*
X162165106Y-105815834D01*
X162124868Y-105785464D01*
X162093789Y-105777629D01*
X162078327Y-105740301D01*
X161899698Y-105561673D01*
X161666309Y-105465000D01*
X161475750Y-105465000D01*
X161317000Y-105623750D01*
X161317000Y-105737340D01*
X161063000Y-105725359D01*
X161063000Y-105623750D01*
X160904250Y-105465000D01*
X160713691Y-105465000D01*
X160480302Y-105561673D01*
X160301673Y-105740301D01*
X160288271Y-105772657D01*
X158838897Y-105750696D01*
X158831272Y-105738847D01*
X158661512Y-105622855D01*
X158460000Y-105582048D01*
X157904200Y-105582048D01*
X157904200Y-105291984D01*
X158493092Y-104703092D01*
X158527744Y-104651231D01*
X158619730Y-104513564D01*
X158664200Y-104290000D01*
X158664200Y-103657952D01*
X158680000Y-103657952D01*
X158868253Y-103622530D01*
X159041153Y-103511272D01*
X159157145Y-103341512D01*
X159179341Y-103231905D01*
X159197470Y-103328253D01*
X159308728Y-103501153D01*
X159478488Y-103617145D01*
X159499277Y-103621355D01*
X159429248Y-103790003D01*
X159428953Y-104128512D01*
X159558222Y-104441366D01*
X159797375Y-104680937D01*
X160110003Y-104810752D01*
X160448512Y-104811047D01*
X160761366Y-104681778D01*
X161000937Y-104442625D01*
X161130752Y-104129997D01*
X161131047Y-103791488D01*
X161061741Y-103623755D01*
X161068253Y-103622530D01*
X161241153Y-103511272D01*
X161357145Y-103341512D01*
X161397952Y-103140000D01*
X161397952Y-102240000D01*
X161362530Y-102051747D01*
X161251272Y-101878847D01*
X161082418Y-101763474D01*
X161239698Y-101698327D01*
X161418327Y-101519699D01*
X161515000Y-101286310D01*
X161515000Y-100995750D01*
X161356250Y-100837000D01*
X160407000Y-100837000D01*
X160407000Y-100857000D01*
X160153000Y-100857000D01*
X160153000Y-100837000D01*
X160133000Y-100837000D01*
X160133000Y-100583000D01*
X160153000Y-100583000D01*
X160153000Y-99783750D01*
X160407000Y-99783750D01*
X160407000Y-100583000D01*
X161356250Y-100583000D01*
X161515000Y-100424250D01*
X161515000Y-100133690D01*
X161418327Y-99900301D01*
X161239698Y-99721673D01*
X161006309Y-99625000D01*
X160565750Y-99625000D01*
X160407000Y-99783750D01*
X160153000Y-99783750D01*
X159994250Y-99625000D01*
X159553691Y-99625000D01*
X159320302Y-99721673D01*
X159141673Y-99900301D01*
X159106637Y-99984886D01*
X159051272Y-99898847D01*
X158881512Y-99782855D01*
X158680000Y-99742048D01*
X157480000Y-99742048D01*
X157291747Y-99777470D01*
X157118847Y-99888728D01*
X157083000Y-99941192D01*
X157083000Y-98676609D01*
X157360772Y-98954867D01*
X157774842Y-99126804D01*
X158223191Y-99127195D01*
X158637560Y-98955981D01*
X158954867Y-98639228D01*
X159126804Y-98225158D01*
X159126805Y-98223191D01*
X163372805Y-98223191D01*
X163544019Y-98637560D01*
X163860772Y-98954867D01*
X164274842Y-99126804D01*
X164723191Y-99127195D01*
X165137560Y-98955981D01*
X165454867Y-98639228D01*
X165626804Y-98225158D01*
X165627195Y-97776809D01*
X165455981Y-97362440D01*
X165139228Y-97045133D01*
X164725158Y-96873196D01*
X164276809Y-96872805D01*
X163862440Y-97044019D01*
X163545133Y-97360772D01*
X163373196Y-97774842D01*
X163372805Y-98223191D01*
X159126805Y-98223191D01*
X159127195Y-97776809D01*
X158955981Y-97362440D01*
X158639228Y-97045133D01*
X158225158Y-96873196D01*
X157776809Y-96872805D01*
X157362440Y-97044019D01*
X157083000Y-97322971D01*
X157083000Y-93147664D01*
X161241652Y-93147664D01*
X161546708Y-93885955D01*
X162111074Y-94451307D01*
X162848832Y-94757651D01*
X163647664Y-94758348D01*
X164385955Y-94453292D01*
X164951307Y-93888926D01*
X165257651Y-93151168D01*
X165258348Y-92352336D01*
X164953292Y-91614045D01*
X164388926Y-91048693D01*
X163651168Y-90742349D01*
X162852336Y-90741652D01*
X162114045Y-91046708D01*
X161548693Y-91611074D01*
X161242349Y-92348832D01*
X161241652Y-93147664D01*
X157083000Y-93147664D01*
X157083000Y-92807422D01*
X157258505Y-91925096D01*
X157725777Y-91225775D01*
X158425095Y-90758505D01*
X159307421Y-90583000D01*
X163192578Y-90583000D01*
X164074904Y-90758505D01*
X164074904Y-90758505D01*
G37*
X164074904Y-90758505D02*
X164774225Y-91225777D01*
X165241495Y-91925095D01*
X165417000Y-92807421D01*
X165417000Y-96250000D01*
X165428202Y-96306316D01*
X165428202Y-96363738D01*
X165637533Y-97416116D01*
X165637533Y-97416117D01*
X165724584Y-97626276D01*
X166320709Y-98518441D01*
X166481559Y-98679291D01*
X167373723Y-99275416D01*
X167583883Y-99362467D01*
X168636262Y-99571798D01*
X168693684Y-99571798D01*
X168750000Y-99583000D01*
X170261025Y-99583000D01*
X170022512Y-99742369D01*
X169692151Y-100236790D01*
X169576143Y-100820000D01*
X169692151Y-101403210D01*
X170022512Y-101897631D01*
X170273123Y-102065084D01*
X170267851Y-102067262D01*
X169838769Y-102495596D01*
X169606265Y-103055528D01*
X169605736Y-103661812D01*
X169837262Y-104222149D01*
X170244737Y-104630336D01*
X169838769Y-105035596D01*
X169796247Y-105138000D01*
X169421868Y-105138000D01*
X169210970Y-104822369D01*
X168716549Y-104492008D01*
X168133339Y-104376000D01*
X167086661Y-104376000D01*
X166503451Y-104492008D01*
X166009030Y-104822369D01*
X165678669Y-105316790D01*
X165562661Y-105900000D01*
X165678669Y-106483210D01*
X165904820Y-106821669D01*
X165750302Y-106885673D01*
X165571673Y-107064301D01*
X165475000Y-107297690D01*
X165475000Y-108154250D01*
X165633750Y-108313000D01*
X167483000Y-108313000D01*
X167483000Y-108293000D01*
X167737000Y-108293000D01*
X167737000Y-108313000D01*
X169586250Y-108313000D01*
X169612000Y-108287250D01*
X169637750Y-108313000D01*
X171003000Y-108313000D01*
X171003000Y-108293000D01*
X171257000Y-108293000D01*
X171257000Y-108313000D01*
X171277000Y-108313000D01*
X171277000Y-108567000D01*
X171257000Y-108567000D01*
X171257000Y-108587000D01*
X171003000Y-108587000D01*
X171003000Y-108567000D01*
X169637750Y-108567000D01*
X169612000Y-108592750D01*
X169586250Y-108567000D01*
X167737000Y-108567000D01*
X167737000Y-109932250D01*
X167895750Y-110091000D01*
X169236309Y-110091000D01*
X169469698Y-109994327D01*
X169612000Y-109852026D01*
X169754302Y-109994327D01*
X169899855Y-110054617D01*
X169838769Y-110115596D01*
X169796247Y-110218000D01*
X166310000Y-110218000D01*
X166018395Y-110276004D01*
X165786153Y-110431184D01*
X165771185Y-110441185D01*
X165554370Y-110658000D01*
X158795630Y-110658000D01*
X158647347Y-110509717D01*
X158819698Y-110438327D01*
X158998327Y-110259699D01*
X159016825Y-110215041D01*
X160289164Y-110229499D01*
X160301673Y-110259699D01*
X160480302Y-110438327D01*
X160713691Y-110535000D01*
X160904250Y-110535000D01*
X161063000Y-110376250D01*
X161063000Y-110276653D01*
X161317000Y-110273922D01*
X161317000Y-110376250D01*
X161475750Y-110535000D01*
X161666309Y-110535000D01*
X161899698Y-110438327D01*
X162078327Y-110259699D01*
X162175000Y-110026310D01*
X162175000Y-110008750D01*
X162092586Y-109926336D01*
X162095383Y-109818523D01*
X162175000Y-109626310D01*
X162175000Y-109608750D01*
X162166250Y-109600000D01*
X162175000Y-109591250D01*
X162175000Y-109573690D01*
X162106053Y-109407237D01*
X162106453Y-109391796D01*
X162175000Y-109226310D01*
X162175000Y-109208750D01*
X162166250Y-109200000D01*
X162175000Y-109191250D01*
X162175000Y-109173690D01*
X162115819Y-109030813D01*
X162117524Y-108965069D01*
X162175000Y-108826310D01*
X162175000Y-108808750D01*
X162166250Y-108800000D01*
X162175000Y-108791250D01*
X162175000Y-108773690D01*
X162155143Y-108725750D01*
X165475000Y-108725750D01*
X165475000Y-109582310D01*
X165571673Y-109815699D01*
X165750302Y-109994327D01*
X165983691Y-110091000D01*
X167324250Y-110091000D01*
X167483000Y-109932250D01*
X167483000Y-108567000D01*
X165633750Y-108567000D01*
X165475000Y-108725750D01*
X162155143Y-108725750D01*
X162125584Y-108654390D01*
X162128595Y-108538342D01*
X162175000Y-108426310D01*
X162175000Y-108408750D01*
X162166250Y-108400000D01*
X162175000Y-108391250D01*
X162175000Y-108373690D01*
X162135350Y-108277966D01*
X162139666Y-108111615D01*
X162175000Y-108026310D01*
X162175000Y-108008750D01*
X162166250Y-108000000D01*
X162175000Y-107991250D01*
X162175000Y-107973690D01*
X162145116Y-107901543D01*
X162150736Y-107684887D01*
X162175000Y-107626310D01*
X162175000Y-107608750D01*
X162166250Y-107600000D01*
X162175000Y-107591250D01*
X162175000Y-107573690D01*
X162154881Y-107525119D01*
X162161807Y-107258160D01*
X162175000Y-107226310D01*
X162175000Y-107208750D01*
X162166250Y-107200000D01*
X162175000Y-107191250D01*
X162175000Y-107173690D01*
X162164647Y-107148696D01*
X162172878Y-106831433D01*
X162175000Y-106826310D01*
X162175000Y-106808750D01*
X162173505Y-106807255D01*
X162173892Y-106792358D01*
X162175000Y-106791250D01*
X162175000Y-106773690D01*
X162174413Y-106772272D01*
X162196957Y-105903294D01*
X162190358Y-105859467D01*
X162165106Y-105815834D01*
X162124868Y-105785464D01*
X162093789Y-105777629D01*
X162078327Y-105740301D01*
X161899698Y-105561673D01*
X161666309Y-105465000D01*
X161475750Y-105465000D01*
X161317000Y-105623750D01*
X161317000Y-105737340D01*
X161063000Y-105725359D01*
X161063000Y-105623750D01*
X160904250Y-105465000D01*
X160713691Y-105465000D01*
X160480302Y-105561673D01*
X160301673Y-105740301D01*
X160288271Y-105772657D01*
X158838897Y-105750696D01*
X158831272Y-105738847D01*
X158661512Y-105622855D01*
X158460000Y-105582048D01*
X157904200Y-105582048D01*
X157904200Y-105291984D01*
X158493092Y-104703092D01*
X158527744Y-104651231D01*
X158619730Y-104513564D01*
X158664200Y-104290000D01*
X158664200Y-103657952D01*
X158680000Y-103657952D01*
X158868253Y-103622530D01*
X159041153Y-103511272D01*
X159157145Y-103341512D01*
X159179341Y-103231905D01*
X159197470Y-103328253D01*
X159308728Y-103501153D01*
X159478488Y-103617145D01*
X159499277Y-103621355D01*
X159429248Y-103790003D01*
X159428953Y-104128512D01*
X159558222Y-104441366D01*
X159797375Y-104680937D01*
X160110003Y-104810752D01*
X160448512Y-104811047D01*
X160761366Y-104681778D01*
X161000937Y-104442625D01*
X161130752Y-104129997D01*
X161131047Y-103791488D01*
X161061741Y-103623755D01*
X161068253Y-103622530D01*
X161241153Y-103511272D01*
X161357145Y-103341512D01*
X161397952Y-103140000D01*
X161397952Y-102240000D01*
X161362530Y-102051747D01*
X161251272Y-101878847D01*
X161082418Y-101763474D01*
X161239698Y-101698327D01*
X161418327Y-101519699D01*
X161515000Y-101286310D01*
X161515000Y-100995750D01*
X161356250Y-100837000D01*
X160407000Y-100837000D01*
X160407000Y-100857000D01*
X160153000Y-100857000D01*
X160153000Y-100837000D01*
X160133000Y-100837000D01*
X160133000Y-100583000D01*
X160153000Y-100583000D01*
X160153000Y-99783750D01*
X160407000Y-99783750D01*
X160407000Y-100583000D01*
X161356250Y-100583000D01*
X161515000Y-100424250D01*
X161515000Y-100133690D01*
X161418327Y-99900301D01*
X161239698Y-99721673D01*
X161006309Y-99625000D01*
X160565750Y-99625000D01*
X160407000Y-99783750D01*
X160153000Y-99783750D01*
X159994250Y-99625000D01*
X159553691Y-99625000D01*
X159320302Y-99721673D01*
X159141673Y-99900301D01*
X159106637Y-99984886D01*
X159051272Y-99898847D01*
X158881512Y-99782855D01*
X158680000Y-99742048D01*
X157480000Y-99742048D01*
X157291747Y-99777470D01*
X157118847Y-99888728D01*
X157083000Y-99941192D01*
X157083000Y-98676609D01*
X157360772Y-98954867D01*
X157774842Y-99126804D01*
X158223191Y-99127195D01*
X158637560Y-98955981D01*
X158954867Y-98639228D01*
X159126804Y-98225158D01*
X159126805Y-98223191D01*
X163372805Y-98223191D01*
X163544019Y-98637560D01*
X163860772Y-98954867D01*
X164274842Y-99126804D01*
X164723191Y-99127195D01*
X165137560Y-98955981D01*
X165454867Y-98639228D01*
X165626804Y-98225158D01*
X165627195Y-97776809D01*
X165455981Y-97362440D01*
X165139228Y-97045133D01*
X164725158Y-96873196D01*
X164276809Y-96872805D01*
X163862440Y-97044019D01*
X163545133Y-97360772D01*
X163373196Y-97774842D01*
X163372805Y-98223191D01*
X159126805Y-98223191D01*
X159127195Y-97776809D01*
X158955981Y-97362440D01*
X158639228Y-97045133D01*
X158225158Y-96873196D01*
X157776809Y-96872805D01*
X157362440Y-97044019D01*
X157083000Y-97322971D01*
X157083000Y-93147664D01*
X161241652Y-93147664D01*
X161546708Y-93885955D01*
X162111074Y-94451307D01*
X162848832Y-94757651D01*
X163647664Y-94758348D01*
X164385955Y-94453292D01*
X164951307Y-93888926D01*
X165257651Y-93151168D01*
X165258348Y-92352336D01*
X164953292Y-91614045D01*
X164388926Y-91048693D01*
X163651168Y-90742349D01*
X162852336Y-90741652D01*
X162114045Y-91046708D01*
X161548693Y-91611074D01*
X161242349Y-92348832D01*
X161241652Y-93147664D01*
X157083000Y-93147664D01*
X157083000Y-92807422D01*
X157258505Y-91925096D01*
X157725777Y-91225775D01*
X158425095Y-90758505D01*
X159307421Y-90583000D01*
X163192578Y-90583000D01*
X164074904Y-90758505D01*
M02*
