G04 #@! TF.FileFunction,Legend,Top*
%FSLAX46Y46*%
G04 Gerber Fmt 4.6, Leading zero omitted, Abs format (unit mm)*
G04 Created by KiCad (PCBNEW 4.0.1-stable) date Tuesday, May 31, 2016 'PMt' 12:19:51 PM*
%MOMM*%
G01*
G04 APERTURE LIST*
%ADD10C,0.100000*%
%ADD11C,0.410000*%
%ADD12C,0.200000*%
%ADD13C,0.230000*%
%ADD14C,0.150000*%
G04 APERTURE END LIST*
D10*
D11*
X157550000Y-105000000D02*
G75*
G03X157550000Y-105000000I-200000J0D01*
G01*
D12*
X158297619Y-113515476D02*
X157583333Y-113515476D01*
X157940476Y-113515476D02*
X157940476Y-112265476D01*
X157821428Y-112444048D01*
X157702381Y-112563095D01*
X157583333Y-112622619D01*
X158833333Y-113396429D02*
X158892857Y-113455952D01*
X158833333Y-113515476D01*
X158773809Y-113455952D01*
X158833333Y-113396429D01*
X158833333Y-113515476D01*
X160023809Y-112265476D02*
X159428571Y-112265476D01*
X159369047Y-112860714D01*
X159428571Y-112801190D01*
X159547619Y-112741667D01*
X159845238Y-112741667D01*
X159964285Y-112801190D01*
X160023809Y-112860714D01*
X160083333Y-112979762D01*
X160083333Y-113277381D01*
X160023809Y-113396429D01*
X159964285Y-113455952D01*
X159845238Y-113515476D01*
X159547619Y-113515476D01*
X159428571Y-113455952D01*
X159369047Y-113396429D01*
X160619047Y-113515476D02*
X160619047Y-112682143D01*
X160619047Y-112801190D02*
X160678571Y-112741667D01*
X160797618Y-112682143D01*
X160976190Y-112682143D01*
X161095238Y-112741667D01*
X161154761Y-112860714D01*
X161154761Y-113515476D01*
X161154761Y-112860714D02*
X161214285Y-112741667D01*
X161333333Y-112682143D01*
X161511904Y-112682143D01*
X161630952Y-112741667D01*
X161690476Y-112860714D01*
X161690476Y-113515476D01*
X162285714Y-113515476D02*
X162285714Y-112682143D01*
X162285714Y-112801190D02*
X162345238Y-112741667D01*
X162464285Y-112682143D01*
X162642857Y-112682143D01*
X162761905Y-112741667D01*
X162821428Y-112860714D01*
X162821428Y-113515476D01*
X162821428Y-112860714D02*
X162880952Y-112741667D01*
X163000000Y-112682143D01*
X163178571Y-112682143D01*
X163297619Y-112741667D01*
X163357143Y-112860714D01*
X163357143Y-113515476D01*
D13*
X165892857Y-111289286D02*
X166845238Y-111289286D01*
X166369048Y-111765476D02*
X166369048Y-110813095D01*
X168035714Y-110515476D02*
X167440476Y-110515476D01*
X167380952Y-111110714D01*
X167440476Y-111051190D01*
X167559524Y-110991667D01*
X167857143Y-110991667D01*
X167976190Y-111051190D01*
X168035714Y-111110714D01*
X168095238Y-111229762D01*
X168095238Y-111527381D01*
X168035714Y-111646429D01*
X167976190Y-111705952D01*
X167857143Y-111765476D01*
X167559524Y-111765476D01*
X167440476Y-111705952D01*
X167380952Y-111646429D01*
X168452381Y-110515476D02*
X168869047Y-111765476D01*
X169285714Y-110515476D01*
X163137619Y-107885000D02*
X163018571Y-107825476D01*
X162840000Y-107825476D01*
X162661428Y-107885000D01*
X162542381Y-108004048D01*
X162482857Y-108123095D01*
X162423333Y-108361190D01*
X162423333Y-108539762D01*
X162482857Y-108777857D01*
X162542381Y-108896905D01*
X162661428Y-109015952D01*
X162840000Y-109075476D01*
X162959048Y-109075476D01*
X163137619Y-109015952D01*
X163197143Y-108956429D01*
X163197143Y-108539762D01*
X162959048Y-108539762D01*
X163732857Y-109075476D02*
X163732857Y-107825476D01*
X164447143Y-109075476D01*
X164447143Y-107825476D01*
X165042381Y-109075476D02*
X165042381Y-107825476D01*
X165340000Y-107825476D01*
X165518572Y-107885000D01*
X165637619Y-108004048D01*
X165697143Y-108123095D01*
X165756667Y-108361190D01*
X165756667Y-108539762D01*
X165697143Y-108777857D01*
X165637619Y-108896905D01*
X165518572Y-109015952D01*
X165340000Y-109075476D01*
X165042381Y-109075476D01*
X162381191Y-105790714D02*
X162559762Y-105850238D01*
X162619286Y-105909762D01*
X162678810Y-106028810D01*
X162678810Y-106207381D01*
X162619286Y-106326429D01*
X162559762Y-106385952D01*
X162440715Y-106445476D01*
X161964524Y-106445476D01*
X161964524Y-105195476D01*
X162381191Y-105195476D01*
X162500238Y-105255000D01*
X162559762Y-105314524D01*
X162619286Y-105433571D01*
X162619286Y-105552619D01*
X162559762Y-105671667D01*
X162500238Y-105731190D01*
X162381191Y-105790714D01*
X161964524Y-105790714D01*
X163155000Y-106088333D02*
X163750238Y-106088333D01*
X163035953Y-106445476D02*
X163452619Y-105195476D01*
X163869286Y-106445476D01*
X164107382Y-105195476D02*
X164821667Y-105195476D01*
X164464524Y-106445476D02*
X164464524Y-105195476D01*
X165059763Y-105195476D02*
X165774048Y-105195476D01*
X165416905Y-106445476D02*
X165416905Y-105195476D01*
D14*
X167821905Y-103328571D02*
X168155239Y-103328571D01*
X168298096Y-103852381D02*
X167821905Y-103852381D01*
X167821905Y-102852381D01*
X168298096Y-102852381D01*
X168726667Y-103852381D02*
X168726667Y-102852381D01*
X169298096Y-103852381D01*
X169298096Y-102852381D01*
X167778095Y-101292381D02*
X167778095Y-100292381D01*
X168159048Y-100292381D01*
X168254286Y-100340000D01*
X168301905Y-100387619D01*
X168349524Y-100482857D01*
X168349524Y-100625714D01*
X168301905Y-100720952D01*
X168254286Y-100768571D01*
X168159048Y-100816190D01*
X167778095Y-100816190D01*
X169301905Y-100340000D02*
X169206667Y-100292381D01*
X169063810Y-100292381D01*
X168920952Y-100340000D01*
X168825714Y-100435238D01*
X168778095Y-100530476D01*
X168730476Y-100720952D01*
X168730476Y-100863810D01*
X168778095Y-101054286D01*
X168825714Y-101149524D01*
X168920952Y-101244762D01*
X169063810Y-101292381D01*
X169159048Y-101292381D01*
X169301905Y-101244762D01*
X169349524Y-101197143D01*
X169349524Y-100863810D01*
X169159048Y-100863810D01*
X158680000Y-102015000D02*
X159680000Y-102015000D01*
X159680000Y-103365000D02*
X158680000Y-103365000D01*
X159680000Y-101385000D02*
X158680000Y-101385000D01*
X158680000Y-100035000D02*
X159680000Y-100035000D01*
X157960000Y-104700000D02*
X161340000Y-104700000D01*
X157960000Y-111300000D02*
X161340000Y-111300000D01*
D10*
G36*
X157100853Y-116960161D02*
X157530858Y-116035727D01*
X157553630Y-116038624D01*
X157575966Y-116041246D01*
X157597865Y-116043591D01*
X157619328Y-116045661D01*
X157640355Y-116047455D01*
X157660945Y-116048972D01*
X157681099Y-116050214D01*
X157700816Y-116051180D01*
X157720097Y-116051870D01*
X157738942Y-116052284D01*
X157757350Y-116052422D01*
X157780175Y-116052027D01*
X157802348Y-116050842D01*
X157823868Y-116048868D01*
X157844736Y-116046104D01*
X157864952Y-116042551D01*
X157884515Y-116038208D01*
X157903426Y-116033075D01*
X157921685Y-116027152D01*
X157939291Y-116020440D01*
X157956245Y-116012938D01*
X157972547Y-116004646D01*
X157988197Y-115995565D01*
X158003194Y-115985694D01*
X158017539Y-115975034D01*
X158031232Y-115963583D01*
X158044272Y-115951343D01*
X158056660Y-115938314D01*
X158065916Y-115927428D01*
X158074741Y-115915819D01*
X158083135Y-115903485D01*
X158091100Y-115890426D01*
X158098633Y-115876644D01*
X158105736Y-115862137D01*
X158112409Y-115846906D01*
X158118651Y-115830951D01*
X158124463Y-115814271D01*
X158129844Y-115796868D01*
X158134795Y-115778740D01*
X158139315Y-115759887D01*
X158143405Y-115740311D01*
X158147064Y-115720010D01*
X158150293Y-115698985D01*
X158153091Y-115677235D01*
X158155459Y-115654762D01*
X158157396Y-115631564D01*
X158158903Y-115607642D01*
X158159979Y-115582995D01*
X158160625Y-115557625D01*
X158160840Y-115531530D01*
X158160679Y-115504811D01*
X158160197Y-115478776D01*
X158159395Y-115453424D01*
X158158270Y-115428755D01*
X158156825Y-115404770D01*
X158155059Y-115381468D01*
X158152971Y-115358850D01*
X158150563Y-115336915D01*
X158147833Y-115315663D01*
X158144782Y-115295095D01*
X158141409Y-115275210D01*
X158137716Y-115256009D01*
X158133702Y-115237491D01*
X158129366Y-115219656D01*
X158124709Y-115202505D01*
X158119731Y-115186037D01*
X158114432Y-115170252D01*
X158108811Y-115155151D01*
X158102870Y-115140734D01*
X158096607Y-115127000D01*
X158090023Y-115113949D01*
X158083118Y-115101581D01*
X158073574Y-115086474D01*
X158063229Y-115072282D01*
X158052082Y-115059005D01*
X158040135Y-115046645D01*
X158027387Y-115035199D01*
X158013837Y-115024670D01*
X157999486Y-115015056D01*
X157984335Y-115006358D01*
X157968382Y-114998575D01*
X157951628Y-114991708D01*
X157934073Y-114985756D01*
X157915717Y-114980721D01*
X157896560Y-114976600D01*
X157876601Y-114973396D01*
X157855842Y-114971107D01*
X157834282Y-114969733D01*
X157811920Y-114969275D01*
X157786037Y-114969619D01*
X157761305Y-114970651D01*
X157737722Y-114972370D01*
X157715290Y-114974777D01*
X157694008Y-114977872D01*
X157673877Y-114981655D01*
X157654896Y-114986125D01*
X157637065Y-114991283D01*
X157620385Y-114997129D01*
X157604855Y-115003663D01*
X157590476Y-115010884D01*
X157577247Y-115018793D01*
X157565168Y-115027390D01*
X157554239Y-115036675D01*
X157544461Y-115046647D01*
X157535834Y-115057307D01*
X157528356Y-115068655D01*
X157522029Y-115080691D01*
X157516853Y-115093414D01*
X157512826Y-115106825D01*
X157509950Y-115120924D01*
X157508225Y-115135710D01*
X157507650Y-115151185D01*
X157507650Y-116032576D01*
X157507650Y-116032553D01*
X157530858Y-116035727D01*
X157100853Y-116960161D01*
X157100853Y-115189115D01*
X157101181Y-115168965D01*
X157102166Y-115149066D01*
X157103807Y-115129416D01*
X157106104Y-115110016D01*
X157109058Y-115090866D01*
X157112669Y-115071967D01*
X157116936Y-115053317D01*
X157121859Y-115034917D01*
X157127439Y-115016768D01*
X157133676Y-114998868D01*
X157140568Y-114981218D01*
X157148118Y-114963819D01*
X157156323Y-114946669D01*
X157165186Y-114929769D01*
X157174704Y-114913120D01*
X157184879Y-114896720D01*
X157195711Y-114880571D01*
X157207199Y-114864671D01*
X157219343Y-114849022D01*
X157232144Y-114833622D01*
X157245601Y-114818473D01*
X157259715Y-114803574D01*
X157274486Y-114788924D01*
X157286796Y-114777492D01*
X157299552Y-114766460D01*
X157312751Y-114755830D01*
X157326395Y-114745601D01*
X157340484Y-114735773D01*
X157355017Y-114726347D01*
X157369994Y-114717321D01*
X157385416Y-114708697D01*
X157401281Y-114700473D01*
X157417592Y-114692651D01*
X157434347Y-114685230D01*
X157451546Y-114678210D01*
X157469189Y-114671591D01*
X157487277Y-114665374D01*
X157505809Y-114659557D01*
X157524786Y-114654142D01*
X157544207Y-114649128D01*
X157564072Y-114644514D01*
X157584382Y-114640303D01*
X157605136Y-114636492D01*
X157626335Y-114633082D01*
X157647978Y-114630074D01*
X157670065Y-114627466D01*
X157692596Y-114625260D01*
X157715572Y-114623455D01*
X157738993Y-114622051D01*
X157762858Y-114621048D01*
X157787167Y-114620446D01*
X157811920Y-114620246D01*
X157832979Y-114620454D01*
X157853985Y-114621078D01*
X157874940Y-114622119D01*
X157895843Y-114623576D01*
X157916694Y-114625449D01*
X157937494Y-114627739D01*
X157958242Y-114630444D01*
X157978939Y-114633567D01*
X157996087Y-114636659D01*
X158013798Y-114640607D01*
X158032070Y-114645412D01*
X158050905Y-114651072D01*
X158070303Y-114657589D01*
X158090262Y-114664962D01*
X158110784Y-114673191D01*
X158131868Y-114682277D01*
X158153514Y-114692218D01*
X158175723Y-114703016D01*
X158194510Y-114712619D01*
X158212838Y-114722681D01*
X158230706Y-114733202D01*
X158248116Y-114744183D01*
X158265065Y-114755622D01*
X158281556Y-114767520D01*
X158297587Y-114779878D01*
X158313159Y-114792695D01*
X158328271Y-114805970D01*
X158342925Y-114819705D01*
X158357118Y-114833899D01*
X158370853Y-114848552D01*
X158381561Y-114860833D01*
X158392078Y-114873863D01*
X158402404Y-114887643D01*
X158412539Y-114902173D01*
X158422483Y-114917452D01*
X158432236Y-114933481D01*
X158441798Y-114950259D01*
X158451169Y-114967787D01*
X158460348Y-114986064D01*
X158469337Y-115005091D01*
X158478134Y-115024868D01*
X158486740Y-115045394D01*
X158495155Y-115066670D01*
X158503380Y-115088695D01*
X158511413Y-115111470D01*
X158517217Y-115128804D01*
X158522724Y-115146411D01*
X158527933Y-115164291D01*
X158532844Y-115182444D01*
X158537458Y-115200870D01*
X158541774Y-115219569D01*
X158545792Y-115238540D01*
X158549513Y-115257785D01*
X158552936Y-115277303D01*
X158556061Y-115297094D01*
X158558889Y-115317157D01*
X158561419Y-115337494D01*
X158563651Y-115358103D01*
X158565586Y-115378986D01*
X158567223Y-115400141D01*
X158568563Y-115421570D01*
X158569604Y-115443271D01*
X158570349Y-115465246D01*
X158570795Y-115487493D01*
X158570944Y-115510013D01*
X158570768Y-115534165D01*
X158570240Y-115557985D01*
X158569360Y-115581473D01*
X158568129Y-115604629D01*
X158566545Y-115627453D01*
X158564610Y-115649946D01*
X158562322Y-115672107D01*
X158559683Y-115693935D01*
X158556692Y-115715432D01*
X158553349Y-115736598D01*
X158549654Y-115757431D01*
X158545607Y-115777933D01*
X158541208Y-115798102D01*
X158536458Y-115817940D01*
X158531355Y-115837446D01*
X158525901Y-115856620D01*
X158520094Y-115875463D01*
X158513936Y-115893973D01*
X158507426Y-115912152D01*
X158500564Y-115929999D01*
X158493350Y-115947514D01*
X158485784Y-115964697D01*
X158477866Y-115981549D01*
X158469597Y-115998068D01*
X158460975Y-116014256D01*
X158452002Y-116030112D01*
X158442676Y-116045636D01*
X158432999Y-116060828D01*
X158422970Y-116075689D01*
X158412589Y-116090217D01*
X158401856Y-116104414D01*
X158390771Y-116118279D01*
X158379334Y-116131812D01*
X158367545Y-116145013D01*
X158355057Y-116158239D01*
X158342247Y-116171057D01*
X158329115Y-116183469D01*
X158315661Y-116195474D01*
X158301886Y-116207071D01*
X158287788Y-116218262D01*
X158273368Y-116229046D01*
X158258627Y-116239423D01*
X158243563Y-116249393D01*
X158228178Y-116258956D01*
X158212470Y-116268112D01*
X158196441Y-116276861D01*
X158180090Y-116285204D01*
X158163417Y-116293139D01*
X158146422Y-116300667D01*
X158129105Y-116307789D01*
X158111466Y-116314503D01*
X158093505Y-116320811D01*
X158075222Y-116326712D01*
X158056618Y-116332205D01*
X158037691Y-116337292D01*
X158018442Y-116341972D01*
X157998872Y-116346245D01*
X157978980Y-116350111D01*
X157958765Y-116353569D01*
X157938229Y-116356622D01*
X157917371Y-116359267D01*
X157896191Y-116361505D01*
X157874689Y-116363336D01*
X157852865Y-116364760D01*
X157830719Y-116365778D01*
X157808252Y-116366388D01*
X157785462Y-116366592D01*
X157765180Y-116366440D01*
X157744965Y-116365984D01*
X157724817Y-116365225D01*
X157704737Y-116364162D01*
X157684725Y-116362796D01*
X157664780Y-116361126D01*
X157644902Y-116359152D01*
X157625092Y-116356875D01*
X157605350Y-116354294D01*
X157585675Y-116351409D01*
X157566067Y-116348221D01*
X157546527Y-116344729D01*
X157527055Y-116340933D01*
X157507650Y-116336834D01*
X157507650Y-116960252D01*
X157100853Y-116960252D01*
X157100853Y-116960161D01*
X157100853Y-116960161D01*
G37*
G36*
X159119954Y-116134989D02*
X159348581Y-115208179D01*
X159344023Y-115227148D01*
X159339862Y-115246963D01*
X159336097Y-115267627D01*
X159332728Y-115289137D01*
X159329756Y-115311495D01*
X159327179Y-115334700D01*
X159325000Y-115358753D01*
X159323216Y-115383653D01*
X159321829Y-115409400D01*
X159320838Y-115435994D01*
X159320244Y-115463436D01*
X159320045Y-115491725D01*
X159320244Y-115519868D01*
X159320838Y-115547170D01*
X159321829Y-115573632D01*
X159323216Y-115599253D01*
X159325000Y-115624034D01*
X159327179Y-115647974D01*
X159329756Y-115671073D01*
X159332728Y-115693332D01*
X159336097Y-115714751D01*
X159339862Y-115735329D01*
X159344023Y-115755067D01*
X159348581Y-115773964D01*
X159353535Y-115792020D01*
X159358886Y-115809237D01*
X159364632Y-115825612D01*
X159370776Y-115841147D01*
X159377315Y-115855842D01*
X159384251Y-115869696D01*
X159391583Y-115882709D01*
X159399311Y-115894882D01*
X159407436Y-115906215D01*
X159415957Y-115916707D01*
X159427790Y-115929169D01*
X159440333Y-115940876D01*
X159453585Y-115951828D01*
X159467546Y-115962025D01*
X159482217Y-115971466D01*
X159497598Y-115980152D01*
X159513688Y-115988083D01*
X159530488Y-115995258D01*
X159547997Y-116001678D01*
X159566216Y-116007343D01*
X159585144Y-116012252D01*
X159604782Y-116016406D01*
X159625129Y-116019805D01*
X159646186Y-116022449D01*
X159667952Y-116024337D01*
X159690428Y-116025470D01*
X159713613Y-116025848D01*
X159736793Y-116025470D01*
X159759252Y-116024337D01*
X159780989Y-116022449D01*
X159802006Y-116019805D01*
X159822302Y-116016406D01*
X159841877Y-116012252D01*
X159860730Y-116007343D01*
X159878863Y-116001678D01*
X159896275Y-115995258D01*
X159912966Y-115988083D01*
X159928936Y-115980152D01*
X159944185Y-115971466D01*
X159958713Y-115962025D01*
X159972520Y-115951828D01*
X159985606Y-115940876D01*
X159997972Y-115929169D01*
X160009616Y-115916707D01*
X160018137Y-115906215D01*
X160026262Y-115894882D01*
X160033990Y-115882709D01*
X160041322Y-115869696D01*
X160048258Y-115855842D01*
X160054797Y-115841147D01*
X160060940Y-115825612D01*
X160066687Y-115809237D01*
X160072037Y-115792020D01*
X160076992Y-115773964D01*
X160081549Y-115755067D01*
X160085711Y-115735329D01*
X160089476Y-115714751D01*
X160092845Y-115693332D01*
X160095817Y-115671073D01*
X160098393Y-115647974D01*
X160100573Y-115624034D01*
X160102357Y-115599253D01*
X160103744Y-115573632D01*
X160104735Y-115547170D01*
X160105329Y-115519868D01*
X160105527Y-115491725D01*
X160105329Y-115463436D01*
X160104735Y-115435994D01*
X160103744Y-115409400D01*
X160102357Y-115383653D01*
X160100573Y-115358753D01*
X160098393Y-115334700D01*
X160095817Y-115311495D01*
X160092845Y-115289137D01*
X160089476Y-115267627D01*
X160085711Y-115246963D01*
X160081549Y-115227148D01*
X160076992Y-115208179D01*
X160072037Y-115190058D01*
X160066687Y-115172784D01*
X160060940Y-115156357D01*
X160054797Y-115140778D01*
X160048258Y-115126046D01*
X160041322Y-115112161D01*
X160033990Y-115099124D01*
X160026262Y-115086934D01*
X160018137Y-115075591D01*
X160009616Y-115065096D01*
X159997972Y-115052442D01*
X159985606Y-115040556D01*
X159972520Y-115029436D01*
X159958713Y-115019084D01*
X159944185Y-115009498D01*
X159928936Y-115000679D01*
X159912966Y-114992627D01*
X159896275Y-114985342D01*
X159878863Y-114978823D01*
X159860730Y-114973072D01*
X159841877Y-114968087D01*
X159822302Y-114963870D01*
X159802006Y-114960419D01*
X159780989Y-114957735D01*
X159759252Y-114955818D01*
X159736793Y-114954667D01*
X159713613Y-114954284D01*
X159690428Y-114954667D01*
X159667952Y-114955818D01*
X159646186Y-114957735D01*
X159625129Y-114960419D01*
X159604782Y-114963870D01*
X159585144Y-114968087D01*
X159566216Y-114973072D01*
X159547997Y-114978823D01*
X159530488Y-114985342D01*
X159513688Y-114992627D01*
X159497598Y-115000679D01*
X159482217Y-115009498D01*
X159467546Y-115019084D01*
X159453585Y-115029436D01*
X159440333Y-115040556D01*
X159427790Y-115052442D01*
X159415957Y-115065096D01*
X159407436Y-115075591D01*
X159399311Y-115086934D01*
X159391583Y-115099124D01*
X159384251Y-115112161D01*
X159377315Y-115126046D01*
X159370776Y-115140778D01*
X159364632Y-115156357D01*
X159358886Y-115172784D01*
X159353535Y-115190058D01*
X159348581Y-115208179D01*
X159119954Y-116134989D01*
X159108311Y-116121978D01*
X159097006Y-116108649D01*
X159086038Y-116095001D01*
X159075407Y-116081035D01*
X159065114Y-116066750D01*
X159055158Y-116052147D01*
X159045540Y-116037225D01*
X159036260Y-116021985D01*
X159027316Y-116006426D01*
X159018711Y-115990548D01*
X159010442Y-115974352D01*
X159002512Y-115957837D01*
X158994918Y-115941004D01*
X158987663Y-115923852D01*
X158980744Y-115906382D01*
X158974163Y-115888593D01*
X158967920Y-115870485D01*
X158962014Y-115852059D01*
X158956446Y-115833315D01*
X158951215Y-115814252D01*
X158946321Y-115794870D01*
X158941766Y-115775170D01*
X158937547Y-115755151D01*
X158933666Y-115734813D01*
X158930122Y-115714157D01*
X158926916Y-115693183D01*
X158924048Y-115671890D01*
X158921517Y-115650278D01*
X158919323Y-115628348D01*
X158917467Y-115606099D01*
X158915948Y-115583532D01*
X158914767Y-115560646D01*
X158913923Y-115537442D01*
X158913417Y-115513919D01*
X158913249Y-115490077D01*
X158913417Y-115466234D01*
X158913923Y-115442710D01*
X158914767Y-115419504D01*
X158915948Y-115396617D01*
X158917467Y-115374049D01*
X158919323Y-115351799D01*
X158921517Y-115329868D01*
X158924048Y-115308255D01*
X158926916Y-115286961D01*
X158930122Y-115265986D01*
X158933666Y-115245329D01*
X158937547Y-115224991D01*
X158941766Y-115204971D01*
X158946321Y-115185270D01*
X158951215Y-115165887D01*
X158956446Y-115146823D01*
X158962014Y-115128078D01*
X158967920Y-115109652D01*
X158974163Y-115091543D01*
X158980744Y-115073754D01*
X158987663Y-115056283D01*
X158994918Y-115039131D01*
X159002512Y-115022297D01*
X159010442Y-115005782D01*
X159018711Y-114989585D01*
X159027316Y-114973707D01*
X159036260Y-114958148D01*
X159045540Y-114942907D01*
X159055158Y-114927985D01*
X159065114Y-114913382D01*
X159075407Y-114899097D01*
X159086038Y-114885130D01*
X159097006Y-114871483D01*
X159108311Y-114858153D01*
X159119954Y-114845143D01*
X159132646Y-114831719D01*
X159145666Y-114818709D01*
X159159013Y-114806111D01*
X159172689Y-114793927D01*
X159186692Y-114782155D01*
X159201024Y-114770797D01*
X159215684Y-114759851D01*
X159230671Y-114749319D01*
X159245987Y-114739200D01*
X159261630Y-114729493D01*
X159277602Y-114720200D01*
X159293902Y-114711320D01*
X159310529Y-114702853D01*
X159327485Y-114694798D01*
X159344768Y-114687157D01*
X159362380Y-114679929D01*
X159380319Y-114673114D01*
X159398587Y-114666712D01*
X159417182Y-114660723D01*
X159436106Y-114655147D01*
X159455357Y-114649984D01*
X159474937Y-114645234D01*
X159494845Y-114640897D01*
X159515080Y-114636974D01*
X159535644Y-114633463D01*
X159556535Y-114630365D01*
X159577755Y-114627680D01*
X159599302Y-114625409D01*
X159621178Y-114623550D01*
X159643381Y-114622104D01*
X159665913Y-114621072D01*
X159688772Y-114620452D01*
X159711960Y-114620246D01*
X159735246Y-114620452D01*
X159758201Y-114621072D01*
X159780825Y-114622104D01*
X159803118Y-114623550D01*
X159825080Y-114625409D01*
X159846711Y-114627680D01*
X159868011Y-114630365D01*
X159888980Y-114633463D01*
X159909618Y-114636974D01*
X159929925Y-114640897D01*
X159949901Y-114645234D01*
X159969546Y-114649984D01*
X159988859Y-114655147D01*
X160007842Y-114660723D01*
X160026494Y-114666712D01*
X160044815Y-114673114D01*
X160062804Y-114679929D01*
X160080463Y-114687157D01*
X160097791Y-114694798D01*
X160114787Y-114702853D01*
X160131453Y-114711320D01*
X160147787Y-114720200D01*
X160163791Y-114729493D01*
X160179463Y-114739200D01*
X160194804Y-114749319D01*
X160209815Y-114759851D01*
X160224494Y-114770797D01*
X160238842Y-114782155D01*
X160252860Y-114793927D01*
X160266546Y-114806111D01*
X160279901Y-114818709D01*
X160292925Y-114831719D01*
X160305619Y-114845143D01*
X160317262Y-114858153D01*
X160328567Y-114871483D01*
X160339535Y-114885130D01*
X160350166Y-114899097D01*
X160360459Y-114913382D01*
X160370414Y-114927985D01*
X160380033Y-114942907D01*
X160389313Y-114958148D01*
X160398256Y-114973707D01*
X160406862Y-114989585D01*
X160415130Y-115005782D01*
X160423061Y-115022297D01*
X160430654Y-115039131D01*
X160437910Y-115056283D01*
X160444828Y-115073754D01*
X160451409Y-115091543D01*
X160457653Y-115109652D01*
X160463559Y-115128078D01*
X160469127Y-115146823D01*
X160474358Y-115165887D01*
X160479251Y-115185270D01*
X160483807Y-115204971D01*
X160488026Y-115224991D01*
X160491907Y-115245329D01*
X160495450Y-115265986D01*
X160498656Y-115286961D01*
X160501525Y-115308255D01*
X160504056Y-115329868D01*
X160506250Y-115351799D01*
X160508106Y-115374049D01*
X160509624Y-115396617D01*
X160510806Y-115419504D01*
X160511649Y-115442710D01*
X160512155Y-115466234D01*
X160512324Y-115490077D01*
X160512155Y-115513919D01*
X160511649Y-115537442D01*
X160510806Y-115560646D01*
X160509624Y-115583532D01*
X160508106Y-115606099D01*
X160506250Y-115628348D01*
X160504056Y-115650278D01*
X160501525Y-115671890D01*
X160498656Y-115693183D01*
X160495450Y-115714157D01*
X160491907Y-115734813D01*
X160488026Y-115755151D01*
X160483807Y-115775170D01*
X160479251Y-115794870D01*
X160474358Y-115814252D01*
X160469127Y-115833315D01*
X160463559Y-115852059D01*
X160457653Y-115870485D01*
X160451409Y-115888593D01*
X160444828Y-115906382D01*
X160437910Y-115923852D01*
X160430654Y-115941004D01*
X160423061Y-115957837D01*
X160415130Y-115974352D01*
X160406862Y-115990548D01*
X160398256Y-116006426D01*
X160389313Y-116021985D01*
X160380033Y-116037225D01*
X160370414Y-116052147D01*
X160360459Y-116066750D01*
X160350166Y-116081035D01*
X160339535Y-116095001D01*
X160328567Y-116108649D01*
X160317262Y-116121978D01*
X160305619Y-116134989D01*
X160292925Y-116148412D01*
X160279901Y-116161423D01*
X160266546Y-116174020D01*
X160252860Y-116186205D01*
X160238842Y-116197976D01*
X160224494Y-116209335D01*
X160209815Y-116220280D01*
X160194804Y-116230813D01*
X160179463Y-116240932D01*
X160163791Y-116250638D01*
X160147787Y-116259932D01*
X160131453Y-116268812D01*
X160114787Y-116277279D01*
X160097791Y-116285333D01*
X160080463Y-116292974D01*
X160062804Y-116300202D01*
X160044815Y-116307018D01*
X160026494Y-116313420D01*
X160007842Y-116319409D01*
X159988859Y-116324985D01*
X159969546Y-116330147D01*
X159949901Y-116334897D01*
X159929925Y-116339234D01*
X159909618Y-116343158D01*
X159888980Y-116346669D01*
X159868011Y-116349767D01*
X159846711Y-116352451D01*
X159825080Y-116354723D01*
X159803118Y-116356582D01*
X159780825Y-116358027D01*
X159758201Y-116359060D01*
X159735246Y-116359679D01*
X159711960Y-116359886D01*
X159688772Y-116359679D01*
X159665913Y-116359060D01*
X159643381Y-116358027D01*
X159621178Y-116356582D01*
X159599302Y-116354723D01*
X159577755Y-116352451D01*
X159556535Y-116349767D01*
X159535644Y-116346669D01*
X159515080Y-116343158D01*
X159494845Y-116339234D01*
X159474937Y-116334897D01*
X159455357Y-116330147D01*
X159436106Y-116324985D01*
X159417182Y-116319409D01*
X159398587Y-116313420D01*
X159380319Y-116307018D01*
X159362380Y-116300202D01*
X159344768Y-116292974D01*
X159327485Y-116285333D01*
X159310529Y-116277279D01*
X159293902Y-116268812D01*
X159277602Y-116259932D01*
X159261630Y-116250638D01*
X159245987Y-116240932D01*
X159230671Y-116230813D01*
X159215684Y-116220280D01*
X159201024Y-116209335D01*
X159186692Y-116197976D01*
X159172689Y-116186205D01*
X159159013Y-116174020D01*
X159145666Y-116161423D01*
X159132646Y-116148412D01*
X159119954Y-116134989D01*
X159119954Y-116134989D01*
G37*
G36*
X160948887Y-116333425D02*
X160948887Y-114000147D01*
X161355683Y-114000147D01*
X161355683Y-116333425D01*
X160948887Y-116333425D01*
X160948887Y-116333425D01*
G37*
G36*
X161722793Y-114643410D02*
X162154394Y-114643410D01*
X162533079Y-115822445D01*
X162905150Y-114643410D01*
X163335098Y-114643410D01*
X162691829Y-116374765D01*
X162682450Y-116399910D01*
X162673016Y-116424480D01*
X162663527Y-116448477D01*
X162653982Y-116471899D01*
X162644383Y-116494748D01*
X162634728Y-116517022D01*
X162625019Y-116538722D01*
X162615254Y-116559848D01*
X162605435Y-116580399D01*
X162595560Y-116600377D01*
X162585630Y-116619781D01*
X162575645Y-116638610D01*
X162565606Y-116656865D01*
X162555511Y-116674546D01*
X162545361Y-116691653D01*
X162535156Y-116708186D01*
X162524896Y-116724145D01*
X162514581Y-116739529D01*
X162504210Y-116754340D01*
X162493785Y-116768576D01*
X162483305Y-116782238D01*
X162472769Y-116795326D01*
X162462179Y-116807840D01*
X162451534Y-116819780D01*
X162440833Y-116831145D01*
X162430077Y-116841937D01*
X162419267Y-116852154D01*
X162408401Y-116861797D01*
X162397480Y-116870866D01*
X162379806Y-116884800D01*
X162362060Y-116897938D01*
X162344242Y-116910279D01*
X162326353Y-116921824D01*
X162308393Y-116932573D01*
X162290361Y-116942526D01*
X162272258Y-116951682D01*
X162254083Y-116960042D01*
X162235837Y-116967606D01*
X162217519Y-116974374D01*
X162199130Y-116980346D01*
X162180669Y-116985521D01*
X162162137Y-116989900D01*
X162143534Y-116993483D01*
X162124859Y-116996270D01*
X162106112Y-116998261D01*
X162087294Y-116999455D01*
X162068405Y-116999853D01*
X162049041Y-116999579D01*
X162029618Y-116998757D01*
X162010136Y-116997387D01*
X161990596Y-116995469D01*
X161970996Y-116993003D01*
X161951339Y-116989989D01*
X161931622Y-116986427D01*
X161911847Y-116982317D01*
X161892013Y-116977659D01*
X161872120Y-116972452D01*
X161852169Y-116966698D01*
X161832159Y-116960396D01*
X161812090Y-116953546D01*
X161812090Y-116614541D01*
X161831570Y-116622395D01*
X161850984Y-116629423D01*
X161870331Y-116635624D01*
X161889613Y-116640998D01*
X161908828Y-116645546D01*
X161927977Y-116649266D01*
X161947060Y-116652160D01*
X161966077Y-116654227D01*
X161985028Y-116655467D01*
X162003913Y-116655881D01*
X162015972Y-116655393D01*
X162027972Y-116653930D01*
X162039913Y-116651492D01*
X162051796Y-116648078D01*
X162063619Y-116643690D01*
X162075383Y-116638326D01*
X162087089Y-116631986D01*
X162098735Y-116624672D01*
X162110322Y-116616382D01*
X162121850Y-116607117D01*
X162133320Y-116596877D01*
X162144730Y-116585661D01*
X162156082Y-116573470D01*
X162167374Y-116560304D01*
X162178607Y-116546162D01*
X162189782Y-116531046D01*
X162200897Y-116514953D01*
X162211954Y-116497886D01*
X162222951Y-116479844D01*
X162233889Y-116460826D01*
X162244769Y-116440833D01*
X162255589Y-116419864D01*
X162266351Y-116397921D01*
X162277053Y-116375002D01*
X162287697Y-116351107D01*
X162298281Y-116326238D01*
X162308807Y-116300393D01*
X162319273Y-116273573D01*
X162329681Y-116245778D01*
X161722793Y-114643410D01*
X161722793Y-114643410D01*
G37*
G36*
X163569915Y-115144456D02*
X163570253Y-115122538D01*
X163571266Y-115101069D01*
X163572954Y-115080050D01*
X163575317Y-115059482D01*
X163578355Y-115039363D01*
X163582069Y-115019695D01*
X163586458Y-115000477D01*
X163591522Y-114981709D01*
X163597261Y-114963391D01*
X163603676Y-114945523D01*
X163610766Y-114928105D01*
X163618531Y-114911137D01*
X163626971Y-114894620D01*
X163636086Y-114878552D01*
X163645877Y-114862935D01*
X163656343Y-114847768D01*
X163667484Y-114833050D01*
X163679300Y-114818783D01*
X163691791Y-114804966D01*
X163704958Y-114791600D01*
X163718800Y-114778683D01*
X163733317Y-114766216D01*
X163748509Y-114754200D01*
X163763682Y-114743000D01*
X163779159Y-114732278D01*
X163794940Y-114722032D01*
X163811026Y-114712262D01*
X163827416Y-114702969D01*
X163844111Y-114694153D01*
X163861109Y-114685813D01*
X163878412Y-114677949D01*
X163896020Y-114670563D01*
X163913931Y-114663652D01*
X163932147Y-114657219D01*
X163950667Y-114651262D01*
X163969492Y-114645781D01*
X163988621Y-114640777D01*
X164008054Y-114636250D01*
X164027792Y-114632199D01*
X164047833Y-114628625D01*
X164068180Y-114625527D01*
X164088830Y-114622906D01*
X164109785Y-114620762D01*
X164131044Y-114619094D01*
X164152607Y-114617902D01*
X164174475Y-114617188D01*
X164196647Y-114616949D01*
X164217522Y-114617159D01*
X164238252Y-114617788D01*
X164258840Y-114618836D01*
X164279283Y-114620303D01*
X164299584Y-114622189D01*
X164319740Y-114624494D01*
X164339754Y-114627219D01*
X164359623Y-114630363D01*
X164379349Y-114633926D01*
X164398932Y-114637908D01*
X164418371Y-114642310D01*
X164437666Y-114647130D01*
X164456818Y-114652370D01*
X164475826Y-114658029D01*
X164494691Y-114664107D01*
X164513412Y-114670604D01*
X164531990Y-114677521D01*
X164550424Y-114684856D01*
X164568715Y-114692611D01*
X164586862Y-114700785D01*
X164604865Y-114709378D01*
X164622725Y-114718390D01*
X164640441Y-114727822D01*
X164658014Y-114737673D01*
X164658014Y-115046898D01*
X164640701Y-115038997D01*
X164623155Y-115031502D01*
X164605379Y-115024412D01*
X164587371Y-115017726D01*
X164569131Y-115011447D01*
X164550660Y-115005572D01*
X164531957Y-115000102D01*
X164513023Y-114995038D01*
X164493857Y-114990378D01*
X164474460Y-114986124D01*
X164454831Y-114982275D01*
X164434971Y-114978831D01*
X164414879Y-114975793D01*
X164394556Y-114973159D01*
X164374001Y-114970931D01*
X164353214Y-114969107D01*
X164332197Y-114967689D01*
X164310947Y-114966677D01*
X164289466Y-114966069D01*
X164267754Y-114965866D01*
X164240696Y-114966189D01*
X164214957Y-114967156D01*
X164190539Y-114968769D01*
X164167440Y-114971026D01*
X164145662Y-114973928D01*
X164125203Y-114977476D01*
X164106064Y-114981668D01*
X164088245Y-114986505D01*
X164071746Y-114991988D01*
X164056567Y-114998115D01*
X164042708Y-115004887D01*
X164030169Y-115012305D01*
X164018950Y-115020367D01*
X164009050Y-115029074D01*
X164000471Y-115038426D01*
X163993211Y-115048423D01*
X163987272Y-115059065D01*
X163982652Y-115070353D01*
X163979352Y-115082285D01*
X163977372Y-115094862D01*
X163976712Y-115108084D01*
X163978004Y-115125393D01*
X163981880Y-115141773D01*
X163988339Y-115157222D01*
X163997383Y-115171742D01*
X164009010Y-115185331D01*
X164023221Y-115197991D01*
X164040016Y-115209721D01*
X164059395Y-115220521D01*
X164074728Y-115227669D01*
X164090663Y-115234681D01*
X164107200Y-115241556D01*
X164124338Y-115248295D01*
X164142077Y-115254897D01*
X164160417Y-115261363D01*
X164179359Y-115267691D01*
X164198902Y-115273884D01*
X164219047Y-115279939D01*
X164239792Y-115285858D01*
X164261139Y-115291641D01*
X164280972Y-115296761D01*
X164300781Y-115302204D01*
X164320567Y-115307968D01*
X164340331Y-115314053D01*
X164360071Y-115320461D01*
X164379788Y-115327190D01*
X164399483Y-115334241D01*
X164419154Y-115341613D01*
X164438803Y-115349307D01*
X164458428Y-115357323D01*
X164478031Y-115365661D01*
X164497611Y-115374321D01*
X164514434Y-115382014D01*
X164530886Y-115390449D01*
X164546967Y-115399627D01*
X164562677Y-115409548D01*
X164578015Y-115420211D01*
X164592982Y-115431616D01*
X164607578Y-115443764D01*
X164621803Y-115456655D01*
X164635656Y-115470288D01*
X164649139Y-115484664D01*
X164662250Y-115499782D01*
X164674990Y-115515643D01*
X164687358Y-115532246D01*
X164699356Y-115549592D01*
X164708986Y-115564420D01*
X164718032Y-115579717D01*
X164726495Y-115595482D01*
X164734374Y-115611717D01*
X164741669Y-115628421D01*
X164748381Y-115645594D01*
X164754509Y-115663236D01*
X164760054Y-115681348D01*
X164765015Y-115699928D01*
X164769392Y-115718977D01*
X164773186Y-115738495D01*
X164776396Y-115758483D01*
X164779022Y-115778939D01*
X164781065Y-115799864D01*
X164782524Y-115821259D01*
X164783400Y-115843123D01*
X164783691Y-115865455D01*
X164783298Y-115885606D01*
X164782117Y-115905427D01*
X164780148Y-115924918D01*
X164777392Y-115944079D01*
X164773848Y-115962910D01*
X164769517Y-115981411D01*
X164764399Y-115999582D01*
X164758493Y-116017424D01*
X164751800Y-116034935D01*
X164744319Y-116052117D01*
X164736051Y-116068968D01*
X164726995Y-116085490D01*
X164717152Y-116101682D01*
X164706521Y-116117544D01*
X164695103Y-116133076D01*
X164682898Y-116148278D01*
X164669905Y-116163150D01*
X164656124Y-116177692D01*
X164641557Y-116191904D01*
X164626201Y-116205787D01*
X164610059Y-116219339D01*
X164595532Y-116230807D01*
X164580615Y-116241788D01*
X164565307Y-116252280D01*
X164549609Y-116262284D01*
X164533520Y-116271800D01*
X164517041Y-116280828D01*
X164500172Y-116289369D01*
X164482912Y-116297421D01*
X164465261Y-116304985D01*
X164447220Y-116312061D01*
X164428789Y-116318649D01*
X164409967Y-116324749D01*
X164390755Y-116330361D01*
X164371153Y-116335485D01*
X164351160Y-116340122D01*
X164330776Y-116344270D01*
X164310002Y-116347930D01*
X164288838Y-116351102D01*
X164267283Y-116353786D01*
X164245338Y-116355982D01*
X164223002Y-116357690D01*
X164200276Y-116358910D01*
X164177159Y-116359642D01*
X164153652Y-116359886D01*
X164132923Y-116359709D01*
X164112311Y-116359177D01*
X164091818Y-116358291D01*
X164071443Y-116357051D01*
X164051185Y-116355457D01*
X164031046Y-116353508D01*
X164011025Y-116351205D01*
X163991123Y-116348547D01*
X163971338Y-116345535D01*
X163951671Y-116342169D01*
X163932123Y-116338449D01*
X163912693Y-116334374D01*
X163893380Y-116329945D01*
X163874186Y-116325161D01*
X163855110Y-116320023D01*
X163836152Y-116314531D01*
X163817313Y-116308685D01*
X163798591Y-116302484D01*
X163779987Y-116295929D01*
X163761502Y-116289019D01*
X163743135Y-116281756D01*
X163724886Y-116274137D01*
X163706755Y-116266165D01*
X163688742Y-116257838D01*
X163670847Y-116249157D01*
X163653070Y-116240121D01*
X163635412Y-116230732D01*
X163617871Y-116220987D01*
X163617871Y-115858840D01*
X163635781Y-115870508D01*
X163653791Y-115881701D01*
X163671902Y-115892417D01*
X163690113Y-115902656D01*
X163708425Y-115912420D01*
X163726837Y-115921707D01*
X163745350Y-115930518D01*
X163763963Y-115938852D01*
X163782677Y-115946711D01*
X163801492Y-115954093D01*
X163820407Y-115960999D01*
X163839423Y-115967428D01*
X163858539Y-115973382D01*
X163877755Y-115978859D01*
X163897073Y-115983859D01*
X163916490Y-115988384D01*
X163936009Y-115992432D01*
X163955628Y-115996004D01*
X163975347Y-115999100D01*
X163995167Y-116001719D01*
X164015087Y-116003862D01*
X164035108Y-116005529D01*
X164055230Y-116006720D01*
X164075452Y-116007434D01*
X164095775Y-116007673D01*
X164124139Y-116007397D01*
X164150804Y-116006570D01*
X164175770Y-116005192D01*
X164199036Y-116003262D01*
X164220602Y-116000782D01*
X164240469Y-115997750D01*
X164258636Y-115994166D01*
X164275103Y-115990032D01*
X164289871Y-115985346D01*
X164302940Y-115980109D01*
X164314309Y-115974321D01*
X164323978Y-115967981D01*
X164336380Y-115957026D01*
X164347129Y-115944830D01*
X164356224Y-115931394D01*
X164363665Y-115916718D01*
X164369453Y-115900801D01*
X164373587Y-115883644D01*
X164376068Y-115865247D01*
X164376895Y-115845609D01*
X164375853Y-115829440D01*
X164372730Y-115814005D01*
X164367524Y-115799305D01*
X164360236Y-115785339D01*
X164350865Y-115772109D01*
X164339412Y-115759613D01*
X164325877Y-115747852D01*
X164310259Y-115736826D01*
X164292559Y-115726534D01*
X164277225Y-115718228D01*
X164261290Y-115710140D01*
X164244753Y-115702270D01*
X164227615Y-115694619D01*
X164209876Y-115687186D01*
X164191536Y-115679972D01*
X164172594Y-115672975D01*
X164153051Y-115666197D01*
X164132907Y-115659638D01*
X164112161Y-115653296D01*
X164090814Y-115647173D01*
X164071234Y-115641305D01*
X164051632Y-115635277D01*
X164032006Y-115629087D01*
X164012358Y-115622737D01*
X163992686Y-115616225D01*
X163972992Y-115609553D01*
X163953274Y-115602720D01*
X163933534Y-115595726D01*
X163913770Y-115588571D01*
X163893984Y-115581256D01*
X163874175Y-115573779D01*
X163854342Y-115566142D01*
X163836475Y-115558665D01*
X163818999Y-115550485D01*
X163801915Y-115541600D01*
X163785222Y-115532010D01*
X163768920Y-115521717D01*
X163753010Y-115510719D01*
X163737491Y-115499017D01*
X163722364Y-115486610D01*
X163707628Y-115473499D01*
X163693283Y-115459684D01*
X163679330Y-115445165D01*
X163665768Y-115429941D01*
X163652598Y-115414013D01*
X163641941Y-115399438D01*
X163632019Y-115384378D01*
X163622832Y-115368833D01*
X163614380Y-115352802D01*
X163606663Y-115336287D01*
X163599681Y-115319287D01*
X163593434Y-115301802D01*
X163587922Y-115283831D01*
X163583144Y-115265376D01*
X163579102Y-115246435D01*
X163575795Y-115227010D01*
X163573223Y-115207099D01*
X163571385Y-115186703D01*
X163570283Y-115165822D01*
X163569915Y-115144456D01*
X163569915Y-115144456D01*
G37*
G36*
X165040007Y-114992327D02*
X165040007Y-114643410D01*
X165324434Y-114643410D01*
X165324434Y-114142342D01*
X165731230Y-114142342D01*
X165731230Y-114643410D01*
X166131413Y-114643410D01*
X166131413Y-114992327D01*
X165731230Y-114992327D01*
X165731230Y-115825763D01*
X165731928Y-115851937D01*
X165734021Y-115875889D01*
X165737509Y-115897618D01*
X165742393Y-115917124D01*
X165748671Y-115934408D01*
X165756345Y-115949470D01*
X165765414Y-115962309D01*
X165775879Y-115972925D01*
X165787026Y-115980910D01*
X165799887Y-115987955D01*
X165814464Y-115994061D01*
X165830755Y-115999227D01*
X165848762Y-116003454D01*
X165868483Y-116006742D01*
X165889919Y-116009090D01*
X165913070Y-116010499D01*
X165937936Y-116010969D01*
X165959516Y-116010605D01*
X165980600Y-116009514D01*
X166001188Y-116007695D01*
X166021280Y-116005149D01*
X166040876Y-116001876D01*
X166059975Y-115997875D01*
X166078579Y-115993146D01*
X166096686Y-115987690D01*
X166114298Y-115981507D01*
X166131413Y-115974596D01*
X166131413Y-116310283D01*
X166112968Y-116317620D01*
X166094269Y-116324371D01*
X166075316Y-116330535D01*
X166056108Y-116336112D01*
X166036646Y-116341101D01*
X166016930Y-116345504D01*
X165996959Y-116349320D01*
X165976733Y-116352548D01*
X165956254Y-116355190D01*
X165935519Y-116357244D01*
X165914531Y-116358712D01*
X165893288Y-116359592D01*
X165871790Y-116359886D01*
X165863522Y-116359886D01*
X165840894Y-116359578D01*
X165818710Y-116358656D01*
X165796970Y-116357118D01*
X165775674Y-116354966D01*
X165754823Y-116352198D01*
X165734415Y-116348816D01*
X165714452Y-116344818D01*
X165694933Y-116340206D01*
X165675858Y-116334978D01*
X165657227Y-116329135D01*
X165639040Y-116322678D01*
X165621298Y-116315605D01*
X165603999Y-116307917D01*
X165587145Y-116299615D01*
X165570735Y-116290697D01*
X165554769Y-116281165D01*
X165539247Y-116271017D01*
X165524170Y-116260254D01*
X165509536Y-116248876D01*
X165495347Y-116236884D01*
X165481602Y-116224276D01*
X165468301Y-116211053D01*
X165456063Y-116197901D01*
X165444369Y-116184323D01*
X165433218Y-116170320D01*
X165422612Y-116155891D01*
X165412549Y-116141037D01*
X165403031Y-116125758D01*
X165394056Y-116110054D01*
X165385625Y-116093925D01*
X165377738Y-116077370D01*
X165370395Y-116060390D01*
X165363596Y-116042985D01*
X165357341Y-116025154D01*
X165351630Y-116006898D01*
X165346463Y-115988217D01*
X165341839Y-115969111D01*
X165337760Y-115949579D01*
X165334224Y-115929622D01*
X165331233Y-115909240D01*
X165328785Y-115888433D01*
X165326881Y-115867200D01*
X165325522Y-115845542D01*
X165324706Y-115823459D01*
X165324434Y-115800950D01*
X165324434Y-114992327D01*
X165040007Y-114992327D01*
X165040007Y-114992327D01*
X165040007Y-114992327D01*
G37*
G36*
X166452220Y-115781105D02*
X166854055Y-115729853D01*
X166854462Y-115748879D01*
X166855683Y-115767213D01*
X166857719Y-115784855D01*
X166860568Y-115801805D01*
X166864232Y-115818064D01*
X166868710Y-115833630D01*
X166874002Y-115848505D01*
X166880108Y-115862688D01*
X166887029Y-115876179D01*
X166894763Y-115888978D01*
X166903312Y-115901085D01*
X166912675Y-115912501D01*
X166922852Y-115923224D01*
X166933843Y-115933256D01*
X166945649Y-115942596D01*
X166958268Y-115951244D01*
X166971702Y-115959201D01*
X166985950Y-115966465D01*
X167001012Y-115973037D01*
X167016888Y-115978918D01*
X167033579Y-115984107D01*
X167051083Y-115988604D01*
X167069402Y-115992409D01*
X167088535Y-115995523D01*
X167108482Y-115997944D01*
X167129244Y-115999674D01*
X167150819Y-116000711D01*
X167173209Y-116001057D01*
X167176516Y-116001057D01*
X167198637Y-116000706D01*
X167219924Y-115999651D01*
X167240376Y-115997893D01*
X167259992Y-115995432D01*
X167278775Y-115992267D01*
X167296722Y-115988399D01*
X167313835Y-115983828D01*
X167330113Y-115978554D01*
X167345556Y-115972577D01*
X167360164Y-115965896D01*
X167373938Y-115958512D01*
X167386876Y-115950425D01*
X167398980Y-115941635D01*
X167410250Y-115932141D01*
X167420684Y-115921945D01*
X167430284Y-115911045D01*
X167439049Y-115899441D01*
X167446979Y-115887135D01*
X167454075Y-115874125D01*
X167460336Y-115860412D01*
X167465762Y-115845996D01*
X167470353Y-115830877D01*
X167474109Y-115815054D01*
X167477031Y-115798529D01*
X167479118Y-115781300D01*
X167480370Y-115763367D01*
X167480787Y-115744732D01*
X167480787Y-115531417D01*
X167457372Y-115528233D01*
X167434531Y-115525302D01*
X167412264Y-115522626D01*
X167390572Y-115520203D01*
X167369453Y-115518035D01*
X167348909Y-115516121D01*
X167328939Y-115514460D01*
X167309543Y-115513054D01*
X167290721Y-115511901D01*
X167272474Y-115511003D01*
X167254800Y-115510358D01*
X167237701Y-115509968D01*
X167211809Y-115510230D01*
X167186822Y-115511014D01*
X167162739Y-115512322D01*
X167139560Y-115514152D01*
X167117286Y-115516506D01*
X167095916Y-115519382D01*
X167075451Y-115522782D01*
X167055891Y-115526705D01*
X167037235Y-115531150D01*
X167019483Y-115536119D01*
X167002636Y-115541611D01*
X166986693Y-115547626D01*
X166971655Y-115554163D01*
X166957521Y-115561224D01*
X166944292Y-115568808D01*
X166931967Y-115576915D01*
X166920547Y-115585545D01*
X166910032Y-115594697D01*
X166900420Y-115604373D01*
X166891714Y-115614572D01*
X166883911Y-115625294D01*
X166877014Y-115636539D01*
X166871021Y-115648307D01*
X166865932Y-115660598D01*
X166861748Y-115673412D01*
X166858468Y-115686749D01*
X166856092Y-115700609D01*
X166854622Y-115714992D01*
X166854055Y-115729898D01*
X166854055Y-115729853D01*
X166452220Y-115781105D01*
X166452617Y-115760537D01*
X166453808Y-115739836D01*
X166455792Y-115719001D01*
X166458569Y-115698033D01*
X166462141Y-115676931D01*
X166465617Y-115660799D01*
X166470376Y-115643588D01*
X166476417Y-115625296D01*
X166483740Y-115605924D01*
X166492346Y-115585472D01*
X166502234Y-115563940D01*
X166513404Y-115541329D01*
X166523326Y-115523567D01*
X166533983Y-115506295D01*
X166545374Y-115489513D01*
X166557501Y-115473221D01*
X166570363Y-115457419D01*
X166583959Y-115442107D01*
X166598291Y-115427285D01*
X166613358Y-115412953D01*
X166629159Y-115399111D01*
X166641768Y-115389040D01*
X166655342Y-115379221D01*
X166669880Y-115369656D01*
X166685383Y-115360343D01*
X166701851Y-115351282D01*
X166719283Y-115342475D01*
X166737680Y-115333920D01*
X166757041Y-115325618D01*
X166777367Y-115317569D01*
X166798658Y-115309772D01*
X166820913Y-115302228D01*
X166844133Y-115294937D01*
X166861042Y-115289840D01*
X166878305Y-115285052D01*
X166895923Y-115280573D01*
X166913895Y-115276403D01*
X166932223Y-115272542D01*
X166950905Y-115268990D01*
X166969942Y-115265746D01*
X166989333Y-115262812D01*
X167009080Y-115260186D01*
X167029181Y-115257869D01*
X167049637Y-115255861D01*
X167070448Y-115254162D01*
X167091613Y-115252772D01*
X167113134Y-115251691D01*
X167135009Y-115250919D01*
X167157239Y-115250456D01*
X167179823Y-115250301D01*
X167198432Y-115250404D01*
X167217218Y-115250712D01*
X167236179Y-115251227D01*
X167255318Y-115251947D01*
X167274632Y-115252872D01*
X167294123Y-115254004D01*
X167313790Y-115255341D01*
X167333634Y-115256884D01*
X167353654Y-115258632D01*
X167373851Y-115260587D01*
X167394224Y-115262746D01*
X167414773Y-115265112D01*
X167435499Y-115267683D01*
X167456401Y-115270461D01*
X167477479Y-115273443D01*
X167477150Y-115254393D01*
X167476161Y-115235930D01*
X167474514Y-115218052D01*
X167472207Y-115200761D01*
X167469242Y-115184055D01*
X167465617Y-115167936D01*
X167461333Y-115152403D01*
X167456390Y-115137456D01*
X167450789Y-115123095D01*
X167444528Y-115109321D01*
X167437608Y-115096132D01*
X167430029Y-115083530D01*
X167421791Y-115071514D01*
X167412895Y-115060084D01*
X167403339Y-115049240D01*
X167393124Y-115038983D01*
X167382250Y-115029311D01*
X167370717Y-115020226D01*
X167358525Y-115011727D01*
X167345674Y-115003814D01*
X167332164Y-114996487D01*
X167317994Y-114989746D01*
X167303166Y-114983591D01*
X167287679Y-114978023D01*
X167271533Y-114973041D01*
X167254728Y-114968645D01*
X167237263Y-114964835D01*
X167219140Y-114961611D01*
X167200358Y-114958973D01*
X167180917Y-114956922D01*
X167160816Y-114955456D01*
X167140057Y-114954577D01*
X167118638Y-114954284D01*
X167096003Y-114954421D01*
X167073606Y-114954834D01*
X167051447Y-114955522D01*
X167029527Y-114956485D01*
X167007844Y-114957724D01*
X166986400Y-114959237D01*
X166965193Y-114961026D01*
X166944225Y-114963090D01*
X166923495Y-114965429D01*
X166903003Y-114968044D01*
X166882749Y-114970933D01*
X166862733Y-114974098D01*
X166842956Y-114977538D01*
X166823416Y-114981253D01*
X166804115Y-114985243D01*
X166785052Y-114989509D01*
X166766226Y-114994050D01*
X166747639Y-114998866D01*
X166729291Y-115003957D01*
X166711180Y-115009323D01*
X166693307Y-115014965D01*
X166675673Y-115020881D01*
X166658276Y-115027073D01*
X166641118Y-115033540D01*
X166624198Y-115040283D01*
X166624198Y-114711211D01*
X166642210Y-114704100D01*
X166660373Y-114697267D01*
X166678688Y-114690714D01*
X166697154Y-114684439D01*
X166715772Y-114678443D01*
X166734542Y-114672726D01*
X166753464Y-114667288D01*
X166772537Y-114662128D01*
X166791762Y-114657248D01*
X166811138Y-114652646D01*
X166830667Y-114648324D01*
X166850346Y-114644280D01*
X166870178Y-114640515D01*
X166890161Y-114637029D01*
X166910296Y-114633822D01*
X166930583Y-114630893D01*
X166951021Y-114628244D01*
X166971611Y-114625873D01*
X166992352Y-114623782D01*
X167013245Y-114621969D01*
X167034290Y-114620435D01*
X167055487Y-114619180D01*
X167076835Y-114618204D01*
X167098335Y-114617507D01*
X167119986Y-114617089D01*
X167141789Y-114616949D01*
X167165743Y-114617155D01*
X167189319Y-114617772D01*
X167212516Y-114618801D01*
X167235334Y-114620242D01*
X167257774Y-114622094D01*
X167279836Y-114624357D01*
X167301519Y-114627033D01*
X167322823Y-114630119D01*
X167343749Y-114633618D01*
X167364297Y-114637528D01*
X167384466Y-114641849D01*
X167404256Y-114646582D01*
X167423668Y-114651727D01*
X167442701Y-114657283D01*
X167461356Y-114663251D01*
X167479633Y-114669630D01*
X167497531Y-114676421D01*
X167515050Y-114683623D01*
X167532191Y-114691237D01*
X167548954Y-114699263D01*
X167565338Y-114707700D01*
X167581343Y-114716549D01*
X167596970Y-114725809D01*
X167612218Y-114735481D01*
X167627088Y-114745564D01*
X167641580Y-114756059D01*
X167655693Y-114766966D01*
X167669427Y-114778284D01*
X167682783Y-114790014D01*
X167695761Y-114802155D01*
X167708336Y-114814576D01*
X167720485Y-114827364D01*
X167732207Y-114840520D01*
X167743503Y-114854043D01*
X167754373Y-114867934D01*
X167764817Y-114882192D01*
X167774834Y-114896818D01*
X167784426Y-114911811D01*
X167793590Y-114927172D01*
X167802329Y-114942900D01*
X167810641Y-114958995D01*
X167818527Y-114975458D01*
X167825987Y-114992289D01*
X167833021Y-115009487D01*
X167839628Y-115027052D01*
X167845809Y-115044985D01*
X167851564Y-115063285D01*
X167856892Y-115081953D01*
X167861794Y-115100988D01*
X167866270Y-115120391D01*
X167870320Y-115140161D01*
X167873943Y-115160299D01*
X167877140Y-115180804D01*
X167879911Y-115201677D01*
X167882255Y-115222917D01*
X167884174Y-115244524D01*
X167885665Y-115266499D01*
X167886731Y-115288842D01*
X167887371Y-115311552D01*
X167887584Y-115334629D01*
X167887584Y-115791039D01*
X167887252Y-115811192D01*
X167886258Y-115831101D01*
X167884602Y-115850766D01*
X167882282Y-115870188D01*
X167879300Y-115889366D01*
X167875655Y-115908300D01*
X167871347Y-115926990D01*
X167866377Y-115945436D01*
X167860744Y-115963639D01*
X167854448Y-115981598D01*
X167847490Y-115999313D01*
X167839869Y-116016784D01*
X167831585Y-116034012D01*
X167822638Y-116050995D01*
X167813029Y-116067735D01*
X167802757Y-116084231D01*
X167791822Y-116100484D01*
X167780225Y-116116492D01*
X167767965Y-116132257D01*
X167755042Y-116147778D01*
X167741456Y-116163055D01*
X167727208Y-116178089D01*
X167712297Y-116192878D01*
X167700098Y-116204197D01*
X167687451Y-116215119D01*
X167674356Y-116225644D01*
X167660812Y-116235772D01*
X167646820Y-116245502D01*
X167632379Y-116254836D01*
X167617491Y-116263772D01*
X167602154Y-116272311D01*
X167586368Y-116280453D01*
X167570135Y-116288198D01*
X167553453Y-116295545D01*
X167536322Y-116302496D01*
X167518744Y-116309049D01*
X167500717Y-116315205D01*
X167482242Y-116320964D01*
X167463318Y-116326326D01*
X167443946Y-116331290D01*
X167424126Y-116335857D01*
X167403858Y-116340028D01*
X167383141Y-116343801D01*
X167361976Y-116347177D01*
X167340362Y-116350155D01*
X167318301Y-116352737D01*
X167295791Y-116354921D01*
X167272832Y-116356709D01*
X167249426Y-116358099D01*
X167225571Y-116359092D01*
X167201267Y-116359687D01*
X167176516Y-116359886D01*
X167151928Y-116359699D01*
X167127774Y-116359136D01*
X167104053Y-116358199D01*
X167080766Y-116356887D01*
X167057913Y-116355200D01*
X167035493Y-116353139D01*
X167013507Y-116350702D01*
X166991954Y-116347891D01*
X166970835Y-116344705D01*
X166950150Y-116341144D01*
X166929898Y-116337208D01*
X166910080Y-116332897D01*
X166890696Y-116328212D01*
X166871745Y-116323151D01*
X166853228Y-116317716D01*
X166835145Y-116311906D01*
X166817495Y-116305721D01*
X166800278Y-116299162D01*
X166783496Y-116292227D01*
X166767147Y-116284918D01*
X166751231Y-116277233D01*
X166735749Y-116269174D01*
X166720701Y-116260740D01*
X166706087Y-116251932D01*
X166691906Y-116242748D01*
X166678158Y-116233190D01*
X166664845Y-116223256D01*
X166651965Y-116212948D01*
X166639518Y-116202265D01*
X166627505Y-116191207D01*
X166612595Y-116176404D01*
X166598346Y-116161325D01*
X166584761Y-116145972D01*
X166571838Y-116130343D01*
X166559578Y-116114439D01*
X166547980Y-116098259D01*
X166537046Y-116081805D01*
X166526774Y-116065075D01*
X166517165Y-116048070D01*
X166508218Y-116030790D01*
X166499934Y-116013235D01*
X166492313Y-115995404D01*
X166485354Y-115977298D01*
X166479059Y-115958917D01*
X166473426Y-115940261D01*
X166468455Y-115921330D01*
X166464148Y-115902123D01*
X166460503Y-115882641D01*
X166457521Y-115862884D01*
X166455201Y-115842852D01*
X166453544Y-115822545D01*
X166452550Y-115801962D01*
X166452219Y-115781105D01*
X166452220Y-115781105D01*
X166452220Y-115781105D01*
G37*
G36*
X168244772Y-115490077D02*
X168244941Y-115466049D01*
X168245447Y-115442344D01*
X168246291Y-115418964D01*
X168247472Y-115395907D01*
X168248991Y-115373174D01*
X168250847Y-115350766D01*
X168253041Y-115328681D01*
X168255572Y-115306921D01*
X168258440Y-115285484D01*
X168261646Y-115264371D01*
X168265190Y-115243582D01*
X168269071Y-115223118D01*
X168273289Y-115202977D01*
X168277845Y-115183160D01*
X168282739Y-115163667D01*
X168287970Y-115144499D01*
X168293538Y-115125654D01*
X168299444Y-115107133D01*
X168305687Y-115088936D01*
X168312268Y-115071063D01*
X168319186Y-115053514D01*
X168326442Y-115036289D01*
X168334035Y-115019388D01*
X168341966Y-115002811D01*
X168350234Y-114986558D01*
X168358840Y-114970629D01*
X168367783Y-114955024D01*
X168377064Y-114939743D01*
X168386682Y-114924786D01*
X168396638Y-114910153D01*
X168406931Y-114895843D01*
X168417561Y-114881858D01*
X168428529Y-114868197D01*
X168439835Y-114854860D01*
X168451478Y-114841847D01*
X168464170Y-114828423D01*
X168477189Y-114815412D01*
X168490537Y-114802815D01*
X168504212Y-114790630D01*
X168518216Y-114778859D01*
X168532548Y-114767500D01*
X168547207Y-114756555D01*
X168562195Y-114746023D01*
X168577510Y-114735903D01*
X168593154Y-114726197D01*
X168609125Y-114716904D01*
X168625425Y-114708023D01*
X168642053Y-114699556D01*
X168659008Y-114691502D01*
X168676292Y-114683861D01*
X168693903Y-114676633D01*
X168711843Y-114669818D01*
X168730110Y-114663416D01*
X168748706Y-114657427D01*
X168767629Y-114651851D01*
X168786881Y-114646688D01*
X168806461Y-114641938D01*
X168826368Y-114637601D01*
X168846604Y-114633677D01*
X168867167Y-114630166D01*
X168888059Y-114627069D01*
X168909278Y-114624384D01*
X168930826Y-114622112D01*
X168952701Y-114620254D01*
X168974905Y-114618808D01*
X168997436Y-114617775D01*
X169020296Y-114617156D01*
X169043483Y-114616949D01*
X169064139Y-114617113D01*
X169084767Y-114617604D01*
X169105366Y-114618422D01*
X169125936Y-114619568D01*
X169146477Y-114621041D01*
X169166990Y-114622841D01*
X169187474Y-114624968D01*
X169207929Y-114627423D01*
X169228356Y-114630205D01*
X169248753Y-114633314D01*
X169269123Y-114636751D01*
X169289463Y-114640515D01*
X169309775Y-114644606D01*
X169330058Y-114649025D01*
X169350312Y-114653770D01*
X169370538Y-114658844D01*
X169390734Y-114664244D01*
X169410903Y-114669972D01*
X169431042Y-114676027D01*
X169451153Y-114682409D01*
X169471235Y-114689119D01*
X169491288Y-114696156D01*
X169511313Y-114703520D01*
X169531309Y-114711211D01*
X169531309Y-115050194D01*
X169512207Y-115042661D01*
X169493016Y-115035495D01*
X169473735Y-115028696D01*
X169454364Y-115022265D01*
X169434902Y-115016201D01*
X169415351Y-115010505D01*
X169395710Y-115005177D01*
X169375979Y-115000216D01*
X169356157Y-114995622D01*
X169336246Y-114991396D01*
X169316245Y-114987537D01*
X169296154Y-114984046D01*
X169275972Y-114980922D01*
X169255701Y-114978166D01*
X169235340Y-114975777D01*
X169214889Y-114973756D01*
X169194347Y-114972103D01*
X169173716Y-114970816D01*
X169152995Y-114969898D01*
X169132184Y-114969346D01*
X169111283Y-114969163D01*
X169087069Y-114969460D01*
X169063515Y-114970354D01*
X169040620Y-114971842D01*
X169018385Y-114973927D01*
X168996810Y-114976607D01*
X168975894Y-114979882D01*
X168955638Y-114983753D01*
X168936042Y-114988219D01*
X168917105Y-114993281D01*
X168898828Y-114998939D01*
X168881211Y-115005192D01*
X168864253Y-115012041D01*
X168847954Y-115019485D01*
X168832316Y-115027524D01*
X168817337Y-115036159D01*
X168803017Y-115045390D01*
X168789358Y-115055216D01*
X168776357Y-115065638D01*
X168764017Y-115076655D01*
X168754027Y-115086694D01*
X168744501Y-115097567D01*
X168735440Y-115109273D01*
X168726844Y-115121813D01*
X168718713Y-115135187D01*
X168711046Y-115149394D01*
X168703843Y-115164434D01*
X168697106Y-115180309D01*
X168690833Y-115197017D01*
X168685025Y-115214558D01*
X168679681Y-115232933D01*
X168674802Y-115252142D01*
X168670388Y-115272184D01*
X168666438Y-115293060D01*
X168662953Y-115314770D01*
X168659933Y-115337313D01*
X168657377Y-115360689D01*
X168655286Y-115384900D01*
X168653660Y-115409944D01*
X168652499Y-115435821D01*
X168651802Y-115462532D01*
X168651569Y-115490077D01*
X168651802Y-115517334D01*
X168652499Y-115543784D01*
X168653660Y-115569428D01*
X168655286Y-115594266D01*
X168657377Y-115618298D01*
X168659933Y-115641523D01*
X168662953Y-115663942D01*
X168666438Y-115685555D01*
X168670388Y-115706362D01*
X168674802Y-115726362D01*
X168679681Y-115745556D01*
X168685025Y-115763944D01*
X168690833Y-115781525D01*
X168697106Y-115798300D01*
X168703843Y-115814269D01*
X168711046Y-115829432D01*
X168718713Y-115843788D01*
X168726844Y-115857338D01*
X168735440Y-115870082D01*
X168744501Y-115882020D01*
X168754027Y-115893151D01*
X168764017Y-115903476D01*
X168776357Y-115914493D01*
X168789358Y-115924915D01*
X168803017Y-115934741D01*
X168817337Y-115943972D01*
X168832316Y-115952607D01*
X168847954Y-115960647D01*
X168864253Y-115968091D01*
X168881211Y-115974940D01*
X168898828Y-115981193D01*
X168917105Y-115986850D01*
X168936042Y-115991912D01*
X168955638Y-115996379D01*
X168975894Y-116000249D01*
X168996810Y-116003525D01*
X169018385Y-116006205D01*
X169040620Y-116008289D01*
X169063515Y-116009778D01*
X169087069Y-116010671D01*
X169111283Y-116010969D01*
X169131284Y-116010778D01*
X169151285Y-116010204D01*
X169171286Y-116009248D01*
X169191288Y-116007909D01*
X169211289Y-116006188D01*
X169231290Y-116004085D01*
X169251291Y-116001599D01*
X169271293Y-115998731D01*
X169291294Y-115995480D01*
X169311295Y-115991847D01*
X169331296Y-115987831D01*
X169351298Y-115983433D01*
X169371299Y-115978653D01*
X169391300Y-115973490D01*
X169411301Y-115967944D01*
X169431302Y-115962017D01*
X169451304Y-115955706D01*
X169471305Y-115949014D01*
X169491306Y-115941939D01*
X169511307Y-115934481D01*
X169531309Y-115926641D01*
X169531309Y-116265624D01*
X169511313Y-116273315D01*
X169491288Y-116280679D01*
X169471235Y-116287716D01*
X169451153Y-116294426D01*
X169431042Y-116300808D01*
X169410903Y-116306863D01*
X169390734Y-116312591D01*
X169370538Y-116317992D01*
X169350312Y-116323065D01*
X169330058Y-116327811D01*
X169309775Y-116332229D01*
X169289463Y-116336320D01*
X169269123Y-116340084D01*
X169248753Y-116343521D01*
X169228356Y-116346630D01*
X169207929Y-116349412D01*
X169187474Y-116351867D01*
X169166990Y-116353995D01*
X169146477Y-116355795D01*
X169125936Y-116357268D01*
X169105366Y-116358413D01*
X169084767Y-116359231D01*
X169064139Y-116359722D01*
X169043483Y-116359886D01*
X169020296Y-116359679D01*
X168997436Y-116359060D01*
X168974905Y-116358027D01*
X168952701Y-116356582D01*
X168930826Y-116354723D01*
X168909278Y-116352451D01*
X168888059Y-116349767D01*
X168867167Y-116346669D01*
X168846604Y-116343158D01*
X168826368Y-116339234D01*
X168806461Y-116334897D01*
X168786881Y-116330147D01*
X168767629Y-116324985D01*
X168748706Y-116319409D01*
X168730110Y-116313420D01*
X168711843Y-116307018D01*
X168693903Y-116300202D01*
X168676292Y-116292974D01*
X168659008Y-116285333D01*
X168642053Y-116277279D01*
X168625425Y-116268812D01*
X168609125Y-116259932D01*
X168593154Y-116250638D01*
X168577510Y-116240932D01*
X168562195Y-116230813D01*
X168547207Y-116220280D01*
X168532548Y-116209335D01*
X168518216Y-116197976D01*
X168504212Y-116186205D01*
X168490537Y-116174020D01*
X168477189Y-116161423D01*
X168464170Y-116148412D01*
X168451478Y-116134989D01*
X168439835Y-116121978D01*
X168428529Y-116108649D01*
X168417561Y-116095001D01*
X168406931Y-116081035D01*
X168396638Y-116066750D01*
X168386682Y-116052147D01*
X168377064Y-116037225D01*
X168367783Y-116021985D01*
X168358840Y-116006426D01*
X168350234Y-115990548D01*
X168341966Y-115974352D01*
X168334035Y-115957837D01*
X168326442Y-115941004D01*
X168319186Y-115923852D01*
X168312268Y-115906382D01*
X168305687Y-115888593D01*
X168299444Y-115870485D01*
X168293538Y-115852059D01*
X168287970Y-115833315D01*
X168282739Y-115814252D01*
X168277845Y-115794870D01*
X168273289Y-115775170D01*
X168269071Y-115755151D01*
X168265190Y-115734813D01*
X168261646Y-115714157D01*
X168258440Y-115693183D01*
X168255572Y-115671890D01*
X168253041Y-115650278D01*
X168250847Y-115628348D01*
X168248991Y-115606099D01*
X168247472Y-115583532D01*
X168246291Y-115560646D01*
X168245447Y-115537442D01*
X168244941Y-115513919D01*
X168244772Y-115490077D01*
X168244772Y-115490077D01*
G37*
G36*
X169906686Y-116333425D02*
X169906686Y-114010059D01*
X170313483Y-114010059D01*
X170313483Y-115263532D01*
X170882337Y-114643410D01*
X171421426Y-114643410D01*
X170685554Y-115395815D01*
X171499147Y-116333425D01*
X170984863Y-116333425D01*
X170425931Y-115667019D01*
X170313483Y-115781105D01*
X170313483Y-116333425D01*
X169906686Y-116333425D01*
X169906686Y-116333425D01*
G37*
D14*
X162291667Y-120328571D02*
X161958333Y-120328571D01*
X161958333Y-120852381D02*
X161958333Y-119852381D01*
X162434524Y-119852381D01*
X162720238Y-119852381D02*
X163339286Y-119852381D01*
X163005952Y-120233333D01*
X163148810Y-120233333D01*
X163244048Y-120280952D01*
X163291667Y-120328571D01*
X163339286Y-120423810D01*
X163339286Y-120661905D01*
X163291667Y-120757143D01*
X163244048Y-120804762D01*
X163148810Y-120852381D01*
X162863095Y-120852381D01*
X162767857Y-120804762D01*
X162720238Y-120757143D01*
X162093334Y-103142381D02*
X161760000Y-102666190D01*
X161521905Y-103142381D02*
X161521905Y-102142381D01*
X161902858Y-102142381D01*
X161998096Y-102190000D01*
X162045715Y-102237619D01*
X162093334Y-102332857D01*
X162093334Y-102475714D01*
X162045715Y-102570952D01*
X161998096Y-102618571D01*
X161902858Y-102666190D01*
X161521905Y-102666190D01*
X163045715Y-103142381D02*
X162474286Y-103142381D01*
X162760000Y-103142381D02*
X162760000Y-102142381D01*
X162664762Y-102285238D01*
X162569524Y-102380476D01*
X162474286Y-102428095D01*
X162123334Y-101142381D02*
X161790000Y-100666190D01*
X161551905Y-101142381D02*
X161551905Y-100142381D01*
X161932858Y-100142381D01*
X162028096Y-100190000D01*
X162075715Y-100237619D01*
X162123334Y-100332857D01*
X162123334Y-100475714D01*
X162075715Y-100570952D01*
X162028096Y-100618571D01*
X161932858Y-100666190D01*
X161551905Y-100666190D01*
X162504286Y-100237619D02*
X162551905Y-100190000D01*
X162647143Y-100142381D01*
X162885239Y-100142381D01*
X162980477Y-100190000D01*
X163028096Y-100237619D01*
X163075715Y-100332857D01*
X163075715Y-100428095D01*
X163028096Y-100570952D01*
X162456667Y-101142381D01*
X163075715Y-101142381D01*
X162291667Y-97928571D02*
X161958333Y-97928571D01*
X161958333Y-98452381D02*
X161958333Y-97452381D01*
X162434524Y-97452381D01*
X162767857Y-97547619D02*
X162815476Y-97500000D01*
X162910714Y-97452381D01*
X163148810Y-97452381D01*
X163244048Y-97500000D01*
X163291667Y-97547619D01*
X163339286Y-97642857D01*
X163339286Y-97738095D01*
X163291667Y-97880952D01*
X162720238Y-98452381D01*
X163339286Y-98452381D01*
X159516667Y-97953571D02*
X159183333Y-97953571D01*
X159183333Y-98477381D02*
X159183333Y-97477381D01*
X159659524Y-97477381D01*
X160564286Y-98477381D02*
X159992857Y-98477381D01*
X160278571Y-98477381D02*
X160278571Y-97477381D01*
X160183333Y-97620238D01*
X160088095Y-97715476D01*
X159992857Y-97763095D01*
M02*
