G04 #@! TF.FileFunction,Legend,Top*
%FSLAX46Y46*%
G04 Gerber Fmt 4.6, Leading zero omitted, Abs format (unit mm)*
G04 Created by KiCad (PCBNEW 4.0.1-stable) date Tuesday, April 12, 2016 'PMt' 11:21:32 PM*
%MOMM*%
G01*
G04 APERTURE LIST*
%ADD10C,0.100000*%
%ADD11C,0.200000*%
%ADD12C,0.300000*%
%ADD13C,0.150000*%
G04 APERTURE END LIST*
D10*
D11*
X158297619Y-113515476D02*
X157583333Y-113515476D01*
X157940476Y-113515476D02*
X157940476Y-112265476D01*
X157821428Y-112444048D01*
X157702381Y-112563095D01*
X157583333Y-112622619D01*
X158833333Y-113396429D02*
X158892857Y-113455952D01*
X158833333Y-113515476D01*
X158773809Y-113455952D01*
X158833333Y-113396429D01*
X158833333Y-113515476D01*
X160023809Y-112265476D02*
X159428571Y-112265476D01*
X159369047Y-112860714D01*
X159428571Y-112801190D01*
X159547619Y-112741667D01*
X159845238Y-112741667D01*
X159964285Y-112801190D01*
X160023809Y-112860714D01*
X160083333Y-112979762D01*
X160083333Y-113277381D01*
X160023809Y-113396429D01*
X159964285Y-113455952D01*
X159845238Y-113515476D01*
X159547619Y-113515476D01*
X159428571Y-113455952D01*
X159369047Y-113396429D01*
X160619047Y-113515476D02*
X160619047Y-112682143D01*
X160619047Y-112801190D02*
X160678571Y-112741667D01*
X160797618Y-112682143D01*
X160976190Y-112682143D01*
X161095238Y-112741667D01*
X161154761Y-112860714D01*
X161154761Y-113515476D01*
X161154761Y-112860714D02*
X161214285Y-112741667D01*
X161333333Y-112682143D01*
X161511904Y-112682143D01*
X161630952Y-112741667D01*
X161690476Y-112860714D01*
X161690476Y-113515476D01*
X162285714Y-113515476D02*
X162285714Y-112682143D01*
X162285714Y-112801190D02*
X162345238Y-112741667D01*
X162464285Y-112682143D01*
X162642857Y-112682143D01*
X162761905Y-112741667D01*
X162821428Y-112860714D01*
X162821428Y-113515476D01*
X162821428Y-112860714D02*
X162880952Y-112741667D01*
X163000000Y-112682143D01*
X163178571Y-112682143D01*
X163297619Y-112741667D01*
X163357143Y-112860714D01*
X163357143Y-113515476D01*
D12*
X164161429Y-111257143D02*
X165304286Y-111257143D01*
X164732857Y-111828571D02*
X164732857Y-110685714D01*
X166732858Y-110328571D02*
X166018572Y-110328571D01*
X165947143Y-111042857D01*
X166018572Y-110971429D01*
X166161429Y-110900000D01*
X166518572Y-110900000D01*
X166661429Y-110971429D01*
X166732858Y-111042857D01*
X166804286Y-111185714D01*
X166804286Y-111542857D01*
X166732858Y-111685714D01*
X166661429Y-111757143D01*
X166518572Y-111828571D01*
X166161429Y-111828571D01*
X166018572Y-111757143D01*
X165947143Y-111685714D01*
X167232857Y-110328571D02*
X167732857Y-111828571D01*
X168232857Y-110328571D01*
X164892857Y-107750000D02*
X164750000Y-107678571D01*
X164535714Y-107678571D01*
X164321429Y-107750000D01*
X164178571Y-107892857D01*
X164107143Y-108035714D01*
X164035714Y-108321429D01*
X164035714Y-108535714D01*
X164107143Y-108821429D01*
X164178571Y-108964286D01*
X164321429Y-109107143D01*
X164535714Y-109178571D01*
X164678571Y-109178571D01*
X164892857Y-109107143D01*
X164964286Y-109035714D01*
X164964286Y-108535714D01*
X164678571Y-108535714D01*
X163214286Y-106653571D02*
X163214286Y-105153571D01*
X163928572Y-106653571D02*
X163928572Y-105153571D01*
X164785715Y-106653571D01*
X164785715Y-105153571D01*
X165782857Y-103322857D02*
X166282857Y-103322857D01*
X166497143Y-104108571D02*
X165782857Y-104108571D01*
X165782857Y-102608571D01*
X166497143Y-102608571D01*
X167140000Y-104108571D02*
X167140000Y-102608571D01*
X167997143Y-104108571D01*
X167997143Y-102608571D01*
X165707143Y-101628571D02*
X165707143Y-100128571D01*
X166278571Y-100128571D01*
X166421429Y-100200000D01*
X166492857Y-100271429D01*
X166564286Y-100414286D01*
X166564286Y-100628571D01*
X166492857Y-100771429D01*
X166421429Y-100842857D01*
X166278571Y-100914286D01*
X165707143Y-100914286D01*
X167992857Y-100200000D02*
X167850000Y-100128571D01*
X167635714Y-100128571D01*
X167421429Y-100200000D01*
X167278571Y-100342857D01*
X167207143Y-100485714D01*
X167135714Y-100771429D01*
X167135714Y-100985714D01*
X167207143Y-101271429D01*
X167278571Y-101414286D01*
X167421429Y-101557143D01*
X167635714Y-101628571D01*
X167778571Y-101628571D01*
X167992857Y-101557143D01*
X168064286Y-101485714D01*
X168064286Y-100985714D01*
X167778571Y-100985714D01*
D13*
X158680000Y-102015000D02*
X159680000Y-102015000D01*
X159680000Y-103365000D02*
X158680000Y-103365000D01*
X159680000Y-101385000D02*
X158680000Y-101385000D01*
X158680000Y-100035000D02*
X159680000Y-100035000D01*
X157960000Y-104700000D02*
X161340000Y-104700000D01*
X157960000Y-111300000D02*
X161340000Y-111300000D01*
D10*
G36*
X157260430Y-116976711D02*
X157260430Y-115161006D01*
X157688677Y-114939733D01*
X157675276Y-114947368D01*
X157662687Y-114955529D01*
X157650910Y-114964217D01*
X157639946Y-114973432D01*
X157629793Y-114983173D01*
X157620453Y-114993441D01*
X157611925Y-115004235D01*
X157604209Y-115015556D01*
X157597305Y-115027403D01*
X157591214Y-115039777D01*
X157585934Y-115052677D01*
X157581467Y-115066104D01*
X157577813Y-115080058D01*
X157574970Y-115094538D01*
X157572939Y-115109545D01*
X157571721Y-115125078D01*
X157571315Y-115141138D01*
X157571315Y-116014265D01*
X157571315Y-116014243D01*
X157590817Y-116021567D01*
X157610370Y-116028473D01*
X157629973Y-116034960D01*
X157649628Y-116041028D01*
X157669334Y-116046678D01*
X157689091Y-116051910D01*
X157708899Y-116056723D01*
X157728758Y-116061118D01*
X157748668Y-116065094D01*
X157768630Y-116068651D01*
X157788642Y-116071790D01*
X157808705Y-116074510D01*
X157828819Y-116076812D01*
X157848985Y-116078696D01*
X157869201Y-116080160D01*
X157889468Y-116081207D01*
X157909787Y-116081835D01*
X157930156Y-116082044D01*
X157952919Y-116081799D01*
X157974907Y-116081063D01*
X157996118Y-116079836D01*
X158016554Y-116078119D01*
X158036214Y-116075912D01*
X158055098Y-116073213D01*
X158073207Y-116070025D01*
X158090539Y-116066345D01*
X158107096Y-116062175D01*
X158125648Y-116056641D01*
X158144097Y-116049971D01*
X158162442Y-116042165D01*
X158180683Y-116033225D01*
X158198822Y-116023149D01*
X158216857Y-116011938D01*
X158234789Y-115999592D01*
X158252617Y-115986111D01*
X158265259Y-115975366D01*
X158277326Y-115963583D01*
X158288820Y-115950762D01*
X158299739Y-115936902D01*
X158310085Y-115922005D01*
X158319856Y-115906069D01*
X158329054Y-115889095D01*
X158337677Y-115871083D01*
X158345727Y-115852032D01*
X158353202Y-115831944D01*
X158360104Y-115810817D01*
X158365006Y-115794441D01*
X158369570Y-115777507D01*
X158373796Y-115760014D01*
X158377684Y-115741963D01*
X158381234Y-115723353D01*
X158384446Y-115704185D01*
X158387319Y-115684458D01*
X158389855Y-115664173D01*
X158392052Y-115643329D01*
X158393912Y-115621926D01*
X158395433Y-115599965D01*
X158396617Y-115577446D01*
X158397462Y-115554368D01*
X158397969Y-115530731D01*
X158398138Y-115506536D01*
X158397989Y-115482205D01*
X158397544Y-115458404D01*
X158396801Y-115435132D01*
X158395761Y-115412390D01*
X158394424Y-115390177D01*
X158392789Y-115368494D01*
X158390858Y-115347340D01*
X158388629Y-115326716D01*
X158386104Y-115306621D01*
X158383281Y-115287056D01*
X158380161Y-115268020D01*
X158376744Y-115249514D01*
X158373030Y-115231537D01*
X158369018Y-115214090D01*
X158364710Y-115197172D01*
X158360104Y-115180784D01*
X158353216Y-115157616D01*
X158345782Y-115135624D01*
X158337800Y-115114808D01*
X158329272Y-115095168D01*
X158320198Y-115076703D01*
X158310577Y-115059415D01*
X158300409Y-115043302D01*
X158289694Y-115028366D01*
X158278433Y-115014605D01*
X158266625Y-115002020D01*
X158254271Y-114990611D01*
X158236933Y-114976322D01*
X158219647Y-114963220D01*
X158202413Y-114951308D01*
X158185231Y-114940585D01*
X158168100Y-114931050D01*
X158151021Y-114922705D01*
X158133994Y-114915548D01*
X158117018Y-114909580D01*
X158099758Y-114904553D01*
X158081878Y-114900196D01*
X158063378Y-114896509D01*
X158044258Y-114893493D01*
X158024517Y-114891147D01*
X158004157Y-114889472D01*
X157983176Y-114888466D01*
X157961575Y-114888131D01*
X157936803Y-114888394D01*
X157912844Y-114889184D01*
X157889696Y-114890500D01*
X157867361Y-114892343D01*
X157845837Y-114894713D01*
X157825126Y-114897609D01*
X157805228Y-114901031D01*
X157786141Y-114904980D01*
X157767867Y-114909456D01*
X157750404Y-114914458D01*
X157733754Y-114919987D01*
X157717916Y-114926042D01*
X157702891Y-114932624D01*
X157688677Y-114939733D01*
X157260430Y-115161006D01*
X157260705Y-115142862D01*
X157261532Y-115124809D01*
X157262910Y-115106848D01*
X157264839Y-115088978D01*
X157267320Y-115071200D01*
X157270351Y-115053513D01*
X157273794Y-115037348D01*
X157278451Y-115020035D01*
X157284323Y-115001576D01*
X157291410Y-114981968D01*
X157299712Y-114961214D01*
X157309229Y-114939312D01*
X157319961Y-114916263D01*
X157329495Y-114898135D01*
X157339723Y-114880496D01*
X157350645Y-114863348D01*
X157362261Y-114846690D01*
X157374572Y-114830522D01*
X157387577Y-114814843D01*
X157401275Y-114799655D01*
X157415668Y-114784957D01*
X157430755Y-114770749D01*
X157442813Y-114760400D01*
X157455835Y-114750303D01*
X157469822Y-114740460D01*
X157484774Y-114730869D01*
X157500690Y-114721532D01*
X157517571Y-114712448D01*
X157535417Y-114703616D01*
X157554227Y-114695038D01*
X157574002Y-114686713D01*
X157594742Y-114678641D01*
X157616446Y-114670822D01*
X157639114Y-114663256D01*
X157656652Y-114657649D01*
X157674539Y-114652403D01*
X157692774Y-114647519D01*
X157711358Y-114642997D01*
X157730291Y-114638837D01*
X157749573Y-114635038D01*
X157769203Y-114631601D01*
X157789183Y-114628526D01*
X157809511Y-114625813D01*
X157830188Y-114623461D01*
X157851214Y-114621471D01*
X157872589Y-114619843D01*
X157894312Y-114618577D01*
X157916384Y-114617673D01*
X157938805Y-114617130D01*
X157961575Y-114616949D01*
X157982460Y-114617153D01*
X158003223Y-114617763D01*
X158023863Y-114618781D01*
X158044380Y-114620205D01*
X158064775Y-114622036D01*
X158085048Y-114624274D01*
X158105198Y-114626920D01*
X158125225Y-114629972D01*
X158145130Y-114633431D01*
X158161790Y-114636770D01*
X158178695Y-114640795D01*
X158195846Y-114645504D01*
X158213244Y-114650899D01*
X158230887Y-114656979D01*
X158248777Y-114663744D01*
X158266912Y-114671195D01*
X158285294Y-114679330D01*
X158303921Y-114688151D01*
X158322794Y-114697656D01*
X158341914Y-114707847D01*
X158359622Y-114717737D01*
X158376916Y-114728108D01*
X158393797Y-114738961D01*
X158410265Y-114750296D01*
X158426319Y-114762113D01*
X158441959Y-114774412D01*
X158457187Y-114787193D01*
X158472001Y-114800456D01*
X158486401Y-114814201D01*
X158500388Y-114828428D01*
X158513962Y-114843137D01*
X158527122Y-114858328D01*
X158537367Y-114871015D01*
X158547378Y-114884378D01*
X158557152Y-114898416D01*
X158566692Y-114913131D01*
X158575997Y-114928523D01*
X158585066Y-114944590D01*
X158593900Y-114961333D01*
X158602499Y-114978753D01*
X158610863Y-114996848D01*
X158618991Y-115015620D01*
X158626885Y-115035068D01*
X158634543Y-115055192D01*
X158641966Y-115075992D01*
X158649154Y-115097468D01*
X158656107Y-115119621D01*
X158661530Y-115137347D01*
X158666661Y-115155367D01*
X158671498Y-115173680D01*
X158676042Y-115192286D01*
X158680293Y-115211185D01*
X158684251Y-115230377D01*
X158687915Y-115249863D01*
X158691287Y-115269641D01*
X158694365Y-115289713D01*
X158697150Y-115310079D01*
X158699642Y-115330737D01*
X158701841Y-115351688D01*
X158703746Y-115372933D01*
X158705359Y-115394471D01*
X158706678Y-115416302D01*
X158707704Y-115438427D01*
X158708437Y-115460844D01*
X158708877Y-115483555D01*
X158709023Y-115506559D01*
X158708866Y-115530333D01*
X158708393Y-115553777D01*
X158707606Y-115576890D01*
X158706503Y-115599674D01*
X158705086Y-115622128D01*
X158703354Y-115644252D01*
X158701306Y-115666046D01*
X158698944Y-115687510D01*
X158696267Y-115708643D01*
X158693274Y-115729447D01*
X158689967Y-115749921D01*
X158686345Y-115770065D01*
X158682407Y-115789878D01*
X158678155Y-115809362D01*
X158673588Y-115828516D01*
X158668706Y-115847339D01*
X158663509Y-115865833D01*
X158657996Y-115883997D01*
X158652169Y-115901830D01*
X158646027Y-115919334D01*
X158639570Y-115936507D01*
X158630889Y-115958270D01*
X158621793Y-115979322D01*
X158612285Y-115999663D01*
X158602363Y-116019295D01*
X158592028Y-116038215D01*
X158581279Y-116056425D01*
X158570117Y-116073925D01*
X158558542Y-116090714D01*
X158546553Y-116106792D01*
X158534150Y-116122160D01*
X158521334Y-116136818D01*
X158508105Y-116150765D01*
X158494463Y-116164001D01*
X158480407Y-116176528D01*
X158465937Y-116188343D01*
X158451055Y-116199448D01*
X158433784Y-116211486D01*
X158416463Y-116223035D01*
X158399091Y-116234094D01*
X158381669Y-116244665D01*
X158364196Y-116254746D01*
X158346672Y-116264338D01*
X158329098Y-116273441D01*
X158311473Y-116282055D01*
X158293798Y-116290180D01*
X158276072Y-116297816D01*
X158258295Y-116304963D01*
X158240468Y-116311620D01*
X158222590Y-116317789D01*
X158204661Y-116323468D01*
X158186809Y-116328479D01*
X158168686Y-116333118D01*
X158150293Y-116337386D01*
X158131631Y-116341283D01*
X158112698Y-116344809D01*
X158093496Y-116347964D01*
X158074023Y-116350748D01*
X158054281Y-116353160D01*
X158034268Y-116355201D01*
X158013986Y-116356872D01*
X157993433Y-116358171D01*
X157972611Y-116359098D01*
X157951519Y-116359655D01*
X157930156Y-116359841D01*
X157909440Y-116359688D01*
X157888815Y-116359228D01*
X157868282Y-116358463D01*
X157847841Y-116357391D01*
X157827492Y-116356013D01*
X157807235Y-116354329D01*
X157787070Y-116352339D01*
X157766996Y-116350043D01*
X157747015Y-116347440D01*
X157727125Y-116344531D01*
X157707327Y-116341316D01*
X157687621Y-116337795D01*
X157668007Y-116333967D01*
X157648485Y-116329834D01*
X157629055Y-116325394D01*
X157609716Y-116320648D01*
X157590470Y-116315596D01*
X157571315Y-116310237D01*
X157571315Y-116976666D01*
X157260430Y-116976666D01*
X157260430Y-116976711D01*
X157260430Y-116976711D01*
G37*
G36*
X159130703Y-115928289D02*
X159408516Y-115177533D01*
X159404110Y-115193094D01*
X159399989Y-115209185D01*
X159396152Y-115225806D01*
X159392599Y-115242956D01*
X159389331Y-115260636D01*
X159386346Y-115278846D01*
X159383646Y-115297586D01*
X159381230Y-115316855D01*
X159379099Y-115336654D01*
X159377251Y-115356982D01*
X159375688Y-115377840D01*
X159374409Y-115399228D01*
X159373414Y-115421146D01*
X159372704Y-115443593D01*
X159372277Y-115466570D01*
X159372135Y-115490077D01*
X159372277Y-115513590D01*
X159372704Y-115536587D01*
X159373414Y-115559066D01*
X159374409Y-115581029D01*
X159375688Y-115602475D01*
X159377251Y-115623404D01*
X159379099Y-115643816D01*
X159381230Y-115663711D01*
X159383646Y-115683090D01*
X159386346Y-115701952D01*
X159389331Y-115720297D01*
X159392599Y-115738125D01*
X159396152Y-115755436D01*
X159399989Y-115772231D01*
X159404110Y-115788509D01*
X159408516Y-115804269D01*
X159415732Y-115826000D01*
X159423549Y-115846691D01*
X159431967Y-115866344D01*
X159440987Y-115884958D01*
X159450608Y-115902534D01*
X159460831Y-115919071D01*
X159471655Y-115934570D01*
X159483080Y-115949030D01*
X159495107Y-115962451D01*
X159507734Y-115974834D01*
X159520964Y-115986179D01*
X159537520Y-115998914D01*
X159554118Y-116010671D01*
X159570757Y-116021448D01*
X159587436Y-116031245D01*
X159604156Y-116040063D01*
X159620917Y-116047901D01*
X159637719Y-116054760D01*
X159654562Y-116060640D01*
X159671445Y-116065539D01*
X159688737Y-116069709D01*
X159706805Y-116073389D01*
X159725648Y-116076577D01*
X159745267Y-116079276D01*
X159765662Y-116081483D01*
X159786833Y-116083200D01*
X159808780Y-116084427D01*
X159831502Y-116085163D01*
X159855000Y-116085408D01*
X159878845Y-116085163D01*
X159901874Y-116084427D01*
X159924086Y-116083200D01*
X159945481Y-116081483D01*
X159966060Y-116079276D01*
X159985822Y-116076577D01*
X160004767Y-116073389D01*
X160022896Y-116069709D01*
X160040208Y-116065539D01*
X160057092Y-116060635D01*
X160073934Y-116054752D01*
X160090736Y-116047891D01*
X160107497Y-116040052D01*
X160124217Y-116031234D01*
X160140897Y-116021438D01*
X160157535Y-116010663D01*
X160174133Y-115998910D01*
X160190690Y-115986179D01*
X160203906Y-115974834D01*
X160216492Y-115962451D01*
X160228451Y-115949030D01*
X160239780Y-115934570D01*
X160250481Y-115919071D01*
X160260553Y-115902534D01*
X160269997Y-115884958D01*
X160278812Y-115866344D01*
X160286998Y-115846691D01*
X160294555Y-115826000D01*
X160301484Y-115804269D01*
X160306090Y-115788509D01*
X160310399Y-115772231D01*
X160314410Y-115755436D01*
X160318124Y-115738125D01*
X160321541Y-115720297D01*
X160324661Y-115701952D01*
X160327484Y-115683090D01*
X160330010Y-115663711D01*
X160332238Y-115643816D01*
X160334170Y-115623404D01*
X160335804Y-115602475D01*
X160337141Y-115581029D01*
X160338181Y-115559066D01*
X160338924Y-115536587D01*
X160339370Y-115513590D01*
X160339518Y-115490077D01*
X160339370Y-115466570D01*
X160338924Y-115443593D01*
X160338181Y-115421146D01*
X160337141Y-115399228D01*
X160335804Y-115377840D01*
X160334170Y-115356982D01*
X160332238Y-115336654D01*
X160330010Y-115316855D01*
X160327484Y-115297586D01*
X160324661Y-115278846D01*
X160321541Y-115260636D01*
X160318124Y-115242956D01*
X160314410Y-115225806D01*
X160310399Y-115209185D01*
X160306090Y-115193094D01*
X160301484Y-115177533D01*
X160294555Y-115155517D01*
X160286998Y-115134566D01*
X160278812Y-115114682D01*
X160269997Y-115095863D01*
X160260553Y-115078110D01*
X160250481Y-115061423D01*
X160239780Y-115045802D01*
X160228451Y-115031247D01*
X160216492Y-115017757D01*
X160203906Y-115005333D01*
X160190690Y-114993976D01*
X160174133Y-114981240D01*
X160157535Y-114969483D01*
X160140897Y-114958707D01*
X160124217Y-114948909D01*
X160107497Y-114940091D01*
X160090736Y-114932253D01*
X160073934Y-114925394D01*
X160057092Y-114919515D01*
X160040208Y-114914615D01*
X160022896Y-114910445D01*
X160004767Y-114906765D01*
X159985822Y-114903577D01*
X159966060Y-114900878D01*
X159945481Y-114898671D01*
X159924086Y-114896954D01*
X159901874Y-114895727D01*
X159878845Y-114894992D01*
X159855000Y-114894746D01*
X159831502Y-114894992D01*
X159808780Y-114895727D01*
X159786833Y-114896954D01*
X159765662Y-114898671D01*
X159745267Y-114900878D01*
X159725648Y-114903577D01*
X159706805Y-114906765D01*
X159688737Y-114910445D01*
X159671445Y-114914615D01*
X159654562Y-114919519D01*
X159637719Y-114925402D01*
X159620917Y-114932263D01*
X159604156Y-114940102D01*
X159587436Y-114948920D01*
X159570757Y-114958717D01*
X159554118Y-114969491D01*
X159537520Y-114981244D01*
X159520964Y-114993976D01*
X159507734Y-115005333D01*
X159495107Y-115017757D01*
X159483080Y-115031247D01*
X159471655Y-115045802D01*
X159460831Y-115061423D01*
X159450608Y-115078110D01*
X159440987Y-115095863D01*
X159431967Y-115114682D01*
X159423549Y-115134566D01*
X159415732Y-115155517D01*
X159408516Y-115177533D01*
X159130703Y-115928289D01*
X159124386Y-115911743D01*
X159118362Y-115894876D01*
X159112633Y-115877688D01*
X159107197Y-115860178D01*
X159102055Y-115842347D01*
X159097207Y-115824195D01*
X159092652Y-115805722D01*
X159088392Y-115786928D01*
X159084425Y-115767812D01*
X159080752Y-115748375D01*
X159077373Y-115728617D01*
X159074288Y-115708538D01*
X159071496Y-115688137D01*
X159068999Y-115667415D01*
X159066795Y-115646372D01*
X159064885Y-115625008D01*
X159063269Y-115603323D01*
X159061947Y-115581316D01*
X159060919Y-115558988D01*
X159060184Y-115536339D01*
X159059743Y-115513369D01*
X159059596Y-115490077D01*
X159059743Y-115466789D01*
X159060184Y-115443829D01*
X159060919Y-115421197D01*
X159061947Y-115398893D01*
X159063269Y-115376917D01*
X159064885Y-115355269D01*
X159066795Y-115333949D01*
X159068999Y-115312957D01*
X159071496Y-115292293D01*
X159074288Y-115271957D01*
X159077373Y-115251949D01*
X159080752Y-115232269D01*
X159084425Y-115212918D01*
X159088392Y-115193894D01*
X159092652Y-115175198D01*
X159097207Y-115156831D01*
X159102055Y-115138791D01*
X159107197Y-115121079D01*
X159112633Y-115103696D01*
X159118362Y-115086640D01*
X159124386Y-115069913D01*
X159130703Y-115053513D01*
X159139246Y-115032623D01*
X159148144Y-115012363D01*
X159157396Y-114992731D01*
X159167003Y-114973729D01*
X159176965Y-114955356D01*
X159187282Y-114937612D01*
X159197953Y-114920497D01*
X159208979Y-114904012D01*
X159220360Y-114888155D01*
X159232096Y-114872928D01*
X159244187Y-114858331D01*
X159256632Y-114844362D01*
X159269432Y-114831023D01*
X159282587Y-114818312D01*
X159296096Y-114806231D01*
X159309961Y-114794780D01*
X159324180Y-114783957D01*
X159341686Y-114771471D01*
X159359244Y-114759524D01*
X159376852Y-114748118D01*
X159394510Y-114737251D01*
X159412219Y-114726925D01*
X159429979Y-114717139D01*
X159447790Y-114707893D01*
X159465651Y-114699186D01*
X159483562Y-114691020D01*
X159501525Y-114683394D01*
X159519538Y-114676308D01*
X159537601Y-114669761D01*
X159555715Y-114663755D01*
X159573880Y-114658289D01*
X159592425Y-114653052D01*
X159611205Y-114648202D01*
X159630222Y-114643740D01*
X159649475Y-114639667D01*
X159668965Y-114635981D01*
X159688690Y-114632683D01*
X159708652Y-114629773D01*
X159728850Y-114627252D01*
X159749285Y-114625118D01*
X159769955Y-114623372D01*
X159790862Y-114622014D01*
X159812005Y-114621044D01*
X159833384Y-114620462D01*
X159855000Y-114620268D01*
X159876835Y-114620462D01*
X159898400Y-114621044D01*
X159919695Y-114622014D01*
X159940720Y-114623372D01*
X159961474Y-114625118D01*
X159981959Y-114627252D01*
X160002174Y-114629773D01*
X160022119Y-114632683D01*
X160041794Y-114635981D01*
X160061199Y-114639667D01*
X160080334Y-114643740D01*
X160099200Y-114648202D01*
X160117795Y-114653052D01*
X160136120Y-114658289D01*
X160154512Y-114663755D01*
X160172837Y-114669761D01*
X160191095Y-114676308D01*
X160209285Y-114683394D01*
X160227408Y-114691020D01*
X160245463Y-114699186D01*
X160263450Y-114707893D01*
X160281371Y-114717139D01*
X160299223Y-114726925D01*
X160317008Y-114737251D01*
X160334726Y-114748118D01*
X160352376Y-114759524D01*
X160369959Y-114771471D01*
X160387474Y-114783957D01*
X160401693Y-114794780D01*
X160415557Y-114806231D01*
X160429067Y-114818312D01*
X160442222Y-114831023D01*
X160455022Y-114844362D01*
X160467467Y-114858331D01*
X160479557Y-114872928D01*
X160491293Y-114888155D01*
X160502674Y-114904012D01*
X160513700Y-114920497D01*
X160524372Y-114937612D01*
X160534689Y-114955356D01*
X160544650Y-114973729D01*
X160554258Y-114992731D01*
X160563510Y-115012363D01*
X160572408Y-115032623D01*
X160580951Y-115053513D01*
X160587268Y-115069913D01*
X160593291Y-115086640D01*
X160599021Y-115103696D01*
X160604457Y-115121079D01*
X160609599Y-115138791D01*
X160614447Y-115156831D01*
X160619001Y-115175198D01*
X160623262Y-115193894D01*
X160627229Y-115212918D01*
X160630901Y-115232269D01*
X160634281Y-115251949D01*
X160637366Y-115271957D01*
X160640157Y-115292293D01*
X160642655Y-115312957D01*
X160644858Y-115333949D01*
X160646768Y-115355269D01*
X160648384Y-115376917D01*
X160649707Y-115398893D01*
X160650735Y-115421197D01*
X160651470Y-115443829D01*
X160651910Y-115466789D01*
X160652057Y-115490077D01*
X160651910Y-115513369D01*
X160651470Y-115536339D01*
X160650735Y-115558988D01*
X160649707Y-115581316D01*
X160648384Y-115603323D01*
X160646768Y-115625008D01*
X160644858Y-115646372D01*
X160642655Y-115667415D01*
X160640157Y-115688137D01*
X160637366Y-115708538D01*
X160634281Y-115728617D01*
X160630901Y-115748375D01*
X160627229Y-115767812D01*
X160623262Y-115786928D01*
X160619001Y-115805722D01*
X160614447Y-115824195D01*
X160609599Y-115842347D01*
X160604457Y-115860178D01*
X160599021Y-115877688D01*
X160593291Y-115894876D01*
X160587268Y-115911743D01*
X160580951Y-115928289D01*
X160572408Y-115948991D01*
X160563510Y-115969074D01*
X160554258Y-115988540D01*
X160544650Y-116007388D01*
X160534689Y-116025618D01*
X160524372Y-116043230D01*
X160513700Y-116060223D01*
X160502674Y-116076599D01*
X160491293Y-116092357D01*
X160479557Y-116107497D01*
X160467467Y-116122019D01*
X160455022Y-116135923D01*
X160442222Y-116149210D01*
X160429067Y-116161878D01*
X160415557Y-116173928D01*
X160401693Y-116185360D01*
X160387474Y-116196174D01*
X160369959Y-116208669D01*
X160352376Y-116220641D01*
X160334726Y-116232090D01*
X160317008Y-116243016D01*
X160299223Y-116253420D01*
X160281371Y-116263300D01*
X160263450Y-116272657D01*
X160245463Y-116281491D01*
X160227408Y-116289802D01*
X160209285Y-116297590D01*
X160191095Y-116304855D01*
X160172837Y-116311598D01*
X160154512Y-116317817D01*
X160136120Y-116323513D01*
X160117795Y-116328524D01*
X160099200Y-116333163D01*
X160080334Y-116337431D01*
X160061199Y-116341328D01*
X160041794Y-116344854D01*
X160022119Y-116348009D01*
X160002174Y-116350793D01*
X159981959Y-116353205D01*
X159961474Y-116355247D01*
X159940720Y-116356917D01*
X159919695Y-116358216D01*
X159898400Y-116359144D01*
X159876835Y-116359700D01*
X159855000Y-116359886D01*
X159833384Y-116359700D01*
X159812005Y-116359144D01*
X159790862Y-116358216D01*
X159769955Y-116356917D01*
X159749285Y-116355247D01*
X159728850Y-116353205D01*
X159708652Y-116350793D01*
X159688690Y-116348009D01*
X159668965Y-116344854D01*
X159649475Y-116341328D01*
X159630222Y-116337431D01*
X159611205Y-116333163D01*
X159592425Y-116328524D01*
X159573880Y-116323513D01*
X159555715Y-116317817D01*
X159537601Y-116311598D01*
X159519538Y-116304855D01*
X159501525Y-116297590D01*
X159483562Y-116289802D01*
X159465651Y-116281491D01*
X159447790Y-116272657D01*
X159429979Y-116263300D01*
X159412219Y-116253420D01*
X159394510Y-116243016D01*
X159376852Y-116232090D01*
X159359244Y-116220641D01*
X159341686Y-116208669D01*
X159324180Y-116196174D01*
X159309961Y-116185360D01*
X159296096Y-116173928D01*
X159282587Y-116161878D01*
X159269432Y-116149210D01*
X159256632Y-116135923D01*
X159244187Y-116122019D01*
X159232096Y-116107497D01*
X159220360Y-116092357D01*
X159208979Y-116076599D01*
X159197953Y-116060223D01*
X159187282Y-116043230D01*
X159176965Y-116025618D01*
X159167003Y-116007388D01*
X159157396Y-115988540D01*
X159148144Y-115969074D01*
X159139246Y-115948991D01*
X159130703Y-115928289D01*
X159130703Y-115928289D01*
G37*
G36*
X161101849Y-116333425D02*
X161101849Y-114000147D01*
X161412734Y-114000147D01*
X161412734Y-116333425D01*
X161101849Y-116333425D01*
X161101849Y-116333425D01*
G37*
G36*
X161783151Y-114643410D02*
X162115534Y-114643410D01*
X162570286Y-115910091D01*
X163016771Y-114643410D01*
X163349154Y-114643410D01*
X162654622Y-116513686D01*
X162645732Y-116537112D01*
X162636648Y-116559960D01*
X162627368Y-116582229D01*
X162617894Y-116603920D01*
X162608225Y-116625033D01*
X162598361Y-116645567D01*
X162588302Y-116665523D01*
X162578049Y-116684900D01*
X162567601Y-116703699D01*
X162556958Y-116721919D01*
X162546120Y-116739561D01*
X162535088Y-116756625D01*
X162523860Y-116773110D01*
X162512438Y-116789017D01*
X162500821Y-116804345D01*
X162489010Y-116819095D01*
X162477003Y-116833266D01*
X162464802Y-116846859D01*
X162452406Y-116859874D01*
X162439816Y-116872310D01*
X162427030Y-116884168D01*
X162414050Y-116895447D01*
X162400875Y-116906148D01*
X162387505Y-116916270D01*
X162373940Y-116925814D01*
X162360181Y-116934780D01*
X162346227Y-116943167D01*
X162332078Y-116950976D01*
X162317734Y-116958206D01*
X162303196Y-116964858D01*
X162288462Y-116970932D01*
X162273534Y-116976427D01*
X162258411Y-116981343D01*
X162243094Y-116985682D01*
X162227581Y-116989441D01*
X162211874Y-116992623D01*
X162195972Y-116995226D01*
X162179876Y-116997250D01*
X162163584Y-116998696D01*
X162147098Y-116999564D01*
X162130417Y-116999853D01*
X162128769Y-116999853D01*
X162109947Y-116999669D01*
X162090964Y-116999118D01*
X162071821Y-116998199D01*
X162052517Y-116996913D01*
X162033052Y-116995259D01*
X162013427Y-116993238D01*
X161993640Y-116990849D01*
X161973693Y-116988093D01*
X161953585Y-116984969D01*
X161933317Y-116981477D01*
X161912887Y-116977618D01*
X161892297Y-116973392D01*
X161892297Y-116695572D01*
X161912356Y-116700617D01*
X161932183Y-116705165D01*
X161951779Y-116709218D01*
X161971143Y-116712775D01*
X161990276Y-116715836D01*
X162009177Y-116718401D01*
X162027847Y-116720471D01*
X162046285Y-116722044D01*
X162064491Y-116723122D01*
X162082466Y-116723704D01*
X162096377Y-116723271D01*
X162110108Y-116721970D01*
X162123659Y-116719801D01*
X162137029Y-116716766D01*
X162150220Y-116712863D01*
X162163230Y-116708093D01*
X162176061Y-116702456D01*
X162188711Y-116695951D01*
X162201182Y-116688579D01*
X162213472Y-116680340D01*
X162225582Y-116671233D01*
X162237512Y-116661260D01*
X162249262Y-116650418D01*
X162260832Y-116638710D01*
X162272222Y-116626134D01*
X162283432Y-116612691D01*
X162294462Y-116598381D01*
X162305312Y-116583204D01*
X162315981Y-116567159D01*
X162326471Y-116550247D01*
X162336780Y-116532467D01*
X162346910Y-116513821D01*
X162356859Y-116494307D01*
X162366629Y-116473925D01*
X162376218Y-116452677D01*
X162385627Y-116430561D01*
X162394857Y-116407578D01*
X162403906Y-116383727D01*
X162412775Y-116359010D01*
X162421464Y-116333425D01*
X161783156Y-114643410D01*
X161783151Y-114643410D01*
X161783151Y-114643410D01*
G37*
G36*
X163574050Y-115121314D02*
X163574422Y-115100470D01*
X163575538Y-115079939D01*
X163577398Y-115059723D01*
X163580003Y-115039821D01*
X163583351Y-115020234D01*
X163587444Y-115000960D01*
X163592281Y-114982001D01*
X163597862Y-114963356D01*
X163604187Y-114945026D01*
X163611257Y-114927010D01*
X163619070Y-114909308D01*
X163627628Y-114891920D01*
X163636929Y-114874847D01*
X163646975Y-114858088D01*
X163657765Y-114841643D01*
X163669300Y-114825513D01*
X163681578Y-114809697D01*
X163694600Y-114794195D01*
X163708367Y-114779007D01*
X163722878Y-114764134D01*
X163735168Y-114752595D01*
X163747960Y-114741526D01*
X163761256Y-114730929D01*
X163775054Y-114720803D01*
X163789354Y-114711147D01*
X163804158Y-114701963D01*
X163819464Y-114693250D01*
X163835273Y-114685007D01*
X163851584Y-114677236D01*
X163868398Y-114669936D01*
X163885715Y-114663106D01*
X163903535Y-114656748D01*
X163921857Y-114650861D01*
X163940683Y-114645444D01*
X163960010Y-114640499D01*
X163979841Y-114636024D01*
X164000174Y-114632021D01*
X164021010Y-114628489D01*
X164042349Y-114625427D01*
X164064190Y-114622837D01*
X164086534Y-114620717D01*
X164109381Y-114619069D01*
X164132730Y-114617891D01*
X164156583Y-114617185D01*
X164180938Y-114616949D01*
X164200913Y-114617159D01*
X164220863Y-114617787D01*
X164240788Y-114618834D01*
X164260688Y-114620300D01*
X164280563Y-114622185D01*
X164300413Y-114624489D01*
X164320238Y-114627211D01*
X164340038Y-114630353D01*
X164359813Y-114633913D01*
X164379563Y-114637892D01*
X164399288Y-114642290D01*
X164418988Y-114647107D01*
X164438663Y-114652343D01*
X164458312Y-114657998D01*
X164477937Y-114664071D01*
X164497537Y-114670564D01*
X164517112Y-114677475D01*
X164536662Y-114684805D01*
X164556187Y-114692554D01*
X164575687Y-114700722D01*
X164595162Y-114709308D01*
X164614612Y-114718314D01*
X164634036Y-114727738D01*
X164634036Y-114995624D01*
X164613147Y-114986247D01*
X164592369Y-114977328D01*
X164571704Y-114968866D01*
X164551152Y-114960862D01*
X164530712Y-114953315D01*
X164510384Y-114946225D01*
X164490169Y-114939593D01*
X164470067Y-114933418D01*
X164450077Y-114927701D01*
X164430199Y-114922441D01*
X164410434Y-114917638D01*
X164390782Y-114913293D01*
X164371242Y-114909405D01*
X164351814Y-114905975D01*
X164332499Y-114903002D01*
X164313297Y-114900486D01*
X164294207Y-114898428D01*
X164275229Y-114896827D01*
X164256364Y-114895684D01*
X164237611Y-114894998D01*
X164218971Y-114894769D01*
X164194566Y-114895066D01*
X164171081Y-114895957D01*
X164148518Y-114897443D01*
X164126875Y-114899523D01*
X164106154Y-114902197D01*
X164086353Y-114905466D01*
X164067473Y-114909328D01*
X164049515Y-114913785D01*
X164032477Y-114918837D01*
X164016360Y-114924482D01*
X164001164Y-114930722D01*
X163986889Y-114937556D01*
X163973535Y-114944985D01*
X163961102Y-114953007D01*
X163949590Y-114961624D01*
X163938999Y-114970835D01*
X163929329Y-114980641D01*
X163920580Y-114991040D01*
X163912752Y-115002034D01*
X163905845Y-115013623D01*
X163899859Y-115025805D01*
X163894793Y-115038582D01*
X163890649Y-115051953D01*
X163887426Y-115065918D01*
X163885123Y-115080478D01*
X163883742Y-115095632D01*
X163883281Y-115111380D01*
X163884384Y-115126898D01*
X163887691Y-115141845D01*
X163893203Y-115156219D01*
X163900920Y-115170022D01*
X163910842Y-115183253D01*
X163922969Y-115195911D01*
X163937300Y-115207998D01*
X163953837Y-115219513D01*
X163972578Y-115230455D01*
X163989115Y-115238793D01*
X164006252Y-115246966D01*
X164023992Y-115254975D01*
X164042332Y-115262819D01*
X164061274Y-115270500D01*
X164080817Y-115278016D01*
X164100961Y-115285368D01*
X164121707Y-115292556D01*
X164143054Y-115299580D01*
X164165002Y-115306440D01*
X164187552Y-115313135D01*
X164206887Y-115318575D01*
X164226222Y-115324211D01*
X164245557Y-115330043D01*
X164264892Y-115336071D01*
X164284227Y-115342294D01*
X164303562Y-115348714D01*
X164322897Y-115355329D01*
X164342232Y-115362140D01*
X164361567Y-115369147D01*
X164380901Y-115376350D01*
X164400236Y-115383749D01*
X164419571Y-115391343D01*
X164438906Y-115399134D01*
X164456902Y-115406574D01*
X164474510Y-115414724D01*
X164491730Y-115423581D01*
X164508562Y-115433148D01*
X164525006Y-115443423D01*
X164541061Y-115454407D01*
X164556729Y-115466099D01*
X164572008Y-115478501D01*
X164586899Y-115491611D01*
X164601402Y-115505429D01*
X164615517Y-115519956D01*
X164629244Y-115535192D01*
X164642583Y-115551137D01*
X164655534Y-115567790D01*
X164666547Y-115582894D01*
X164676850Y-115598437D01*
X164686443Y-115614419D01*
X164695325Y-115630840D01*
X164703496Y-115647700D01*
X164710957Y-115664999D01*
X164717707Y-115682737D01*
X164723747Y-115700914D01*
X164729076Y-115719530D01*
X164733695Y-115738585D01*
X164737603Y-115758080D01*
X164740800Y-115778013D01*
X164743287Y-115798385D01*
X164745063Y-115819197D01*
X164746129Y-115840447D01*
X164746484Y-115862136D01*
X164746100Y-115882336D01*
X164744947Y-115902255D01*
X164743024Y-115921892D01*
X164740333Y-115941249D01*
X164736873Y-115960324D01*
X164732643Y-115979118D01*
X164727645Y-115997632D01*
X164721878Y-116015864D01*
X164715342Y-116033815D01*
X164708037Y-116051485D01*
X164699963Y-116068874D01*
X164691120Y-116085981D01*
X164681509Y-116102808D01*
X164671128Y-116119354D01*
X164659978Y-116135618D01*
X164648059Y-116151601D01*
X164635372Y-116167304D01*
X164621915Y-116182725D01*
X164607690Y-116197865D01*
X164592695Y-116212724D01*
X164580616Y-116223826D01*
X164568038Y-116234494D01*
X164554960Y-116244725D01*
X164541383Y-116254521D01*
X164527308Y-116263882D01*
X164512733Y-116272808D01*
X164497660Y-116281298D01*
X164482087Y-116289353D01*
X164466015Y-116296972D01*
X164449445Y-116304156D01*
X164432375Y-116310905D01*
X164414806Y-116317218D01*
X164396738Y-116323095D01*
X164378172Y-116328538D01*
X164359106Y-116333545D01*
X164339541Y-116338116D01*
X164319477Y-116342253D01*
X164298914Y-116345953D01*
X164277852Y-116349219D01*
X164256291Y-116352049D01*
X164234231Y-116354444D01*
X164211672Y-116356403D01*
X164188614Y-116357927D01*
X164165057Y-116359015D01*
X164141001Y-116359668D01*
X164116445Y-116359886D01*
X164094837Y-116359698D01*
X164073403Y-116359135D01*
X164052144Y-116358195D01*
X164031059Y-116356880D01*
X164010149Y-116355190D01*
X163989414Y-116353123D01*
X163968853Y-116350681D01*
X163948467Y-116347864D01*
X163928255Y-116344670D01*
X163908218Y-116341101D01*
X163888356Y-116337156D01*
X163868668Y-116332836D01*
X163849155Y-116328140D01*
X163829817Y-116323068D01*
X163810653Y-116317620D01*
X163791664Y-116311797D01*
X163772850Y-116305598D01*
X163754210Y-116299023D01*
X163735744Y-116292073D01*
X163717454Y-116284747D01*
X163699338Y-116277045D01*
X163681396Y-116268968D01*
X163663629Y-116260515D01*
X163646037Y-116251686D01*
X163628620Y-116242481D01*
X163628620Y-115961366D01*
X163646997Y-115971485D01*
X163665471Y-115981174D01*
X163684043Y-115990433D01*
X163702712Y-115999261D01*
X163721479Y-116007658D01*
X163740344Y-116015624D01*
X163759307Y-116023160D01*
X163778367Y-116030265D01*
X163797524Y-116036940D01*
X163816779Y-116043184D01*
X163836132Y-116048998D01*
X163855583Y-116054380D01*
X163875131Y-116059333D01*
X163894776Y-116063854D01*
X163914520Y-116067945D01*
X163934361Y-116071605D01*
X163954299Y-116074835D01*
X163974335Y-116077634D01*
X163994469Y-116080003D01*
X164014700Y-116081940D01*
X164035029Y-116083448D01*
X164055456Y-116084524D01*
X164075980Y-116085170D01*
X164096602Y-116085385D01*
X164103217Y-116085385D01*
X164127689Y-116085043D01*
X164151241Y-116084016D01*
X164173874Y-116082304D01*
X164195586Y-116079907D01*
X164216379Y-116076825D01*
X164236252Y-116073059D01*
X164255205Y-116068607D01*
X164273239Y-116063471D01*
X164290353Y-116057650D01*
X164306547Y-116051145D01*
X164321821Y-116043954D01*
X164336175Y-116036079D01*
X164349610Y-116027518D01*
X164365948Y-116015297D01*
X164380566Y-116002447D01*
X164393465Y-115988969D01*
X164404643Y-115974863D01*
X164414102Y-115960129D01*
X164421841Y-115944767D01*
X164427861Y-115928777D01*
X164432160Y-115912159D01*
X164434740Y-115894912D01*
X164435600Y-115877038D01*
X164434862Y-115858435D01*
X164432648Y-115840515D01*
X164428958Y-115823280D01*
X164423792Y-115806728D01*
X164417150Y-115790860D01*
X164409032Y-115775675D01*
X164399438Y-115761174D01*
X164388368Y-115747357D01*
X164375822Y-115734223D01*
X164361801Y-115721773D01*
X164346303Y-115710007D01*
X164331420Y-115699467D01*
X164315986Y-115689340D01*
X164300001Y-115679626D01*
X164283464Y-115670325D01*
X164266377Y-115661438D01*
X164248738Y-115652964D01*
X164230548Y-115644904D01*
X164211806Y-115637257D01*
X164192514Y-115630023D01*
X164172670Y-115623202D01*
X164152275Y-115616795D01*
X164131329Y-115610800D01*
X164111740Y-115605162D01*
X164092150Y-115599446D01*
X164072561Y-115593651D01*
X164052972Y-115587779D01*
X164033382Y-115581829D01*
X164013793Y-115575800D01*
X163994203Y-115569694D01*
X163974614Y-115563509D01*
X163955025Y-115557247D01*
X163935435Y-115550907D01*
X163915846Y-115544488D01*
X163896257Y-115537992D01*
X163876667Y-115531417D01*
X163857548Y-115524214D01*
X163838859Y-115516346D01*
X163820600Y-115507813D01*
X163802772Y-115498614D01*
X163785374Y-115488751D01*
X163768407Y-115478223D01*
X163751871Y-115467029D01*
X163735765Y-115455171D01*
X163720090Y-115442647D01*
X163704845Y-115429459D01*
X163690030Y-115415605D01*
X163675647Y-115401087D01*
X163661693Y-115385903D01*
X163650397Y-115371968D01*
X163639880Y-115357505D01*
X163630142Y-115342511D01*
X163621183Y-115326989D01*
X163613003Y-115310937D01*
X163605602Y-115294357D01*
X163598980Y-115277247D01*
X163593137Y-115259607D01*
X163588073Y-115241439D01*
X163583788Y-115222741D01*
X163580283Y-115203514D01*
X163577556Y-115183758D01*
X163575608Y-115163473D01*
X163574440Y-115142658D01*
X163574050Y-115121314D01*
X163574050Y-115121314D01*
X163574050Y-115121314D01*
G37*
G36*
X164987917Y-114904680D02*
X164987917Y-114643410D01*
X165282266Y-114643410D01*
X165282266Y-114139045D01*
X165591498Y-114139045D01*
X165591498Y-114643410D01*
X166041289Y-114643410D01*
X166041289Y-114904680D01*
X165591498Y-114904680D01*
X165591498Y-115886949D01*
X165592013Y-115904579D01*
X165593561Y-115921389D01*
X165596141Y-115937378D01*
X165599752Y-115952548D01*
X165604395Y-115966898D01*
X165610070Y-115980427D01*
X165616777Y-115993137D01*
X165624516Y-116005027D01*
X165633286Y-116016097D01*
X165643089Y-116026346D01*
X165653923Y-116035776D01*
X165665789Y-116044386D01*
X165678686Y-116052176D01*
X165692616Y-116059146D01*
X165707577Y-116065296D01*
X165723571Y-116070626D01*
X165740596Y-116075136D01*
X165758652Y-116078825D01*
X165777741Y-116081695D01*
X165797862Y-116083745D01*
X165819014Y-116084975D01*
X165841198Y-116085385D01*
X165844506Y-116085385D01*
X165867309Y-116084889D01*
X165889419Y-116083401D01*
X165910833Y-116080921D01*
X165931554Y-116077449D01*
X165951579Y-116072984D01*
X165970910Y-116067528D01*
X165989547Y-116061080D01*
X166007489Y-116053639D01*
X166024737Y-116045207D01*
X166041290Y-116035782D01*
X166041290Y-116313601D01*
X166021997Y-116320994D01*
X166002704Y-116327744D01*
X165983412Y-116333851D01*
X165964119Y-116339315D01*
X165944827Y-116344136D01*
X165925534Y-116348315D01*
X165906242Y-116351850D01*
X165886949Y-116354743D01*
X165867657Y-116356993D01*
X165848364Y-116358600D01*
X165829072Y-116359565D01*
X165809779Y-116359886D01*
X165801511Y-116359886D01*
X165783861Y-116359582D01*
X165765873Y-116358670D01*
X165747548Y-116357149D01*
X165728886Y-116355020D01*
X165709886Y-116352283D01*
X165690548Y-116348938D01*
X165670873Y-116344985D01*
X165655092Y-116341327D01*
X165638617Y-116336976D01*
X165621447Y-116331932D01*
X165603584Y-116326195D01*
X165585026Y-116319766D01*
X165565775Y-116312643D01*
X165545829Y-116304828D01*
X165525189Y-116296319D01*
X165503855Y-116287118D01*
X165486690Y-116278479D01*
X165470071Y-116268801D01*
X165453999Y-116258085D01*
X165438474Y-116246330D01*
X165423496Y-116233537D01*
X165409064Y-116219705D01*
X165395179Y-116204834D01*
X165381840Y-116188925D01*
X165369049Y-116171977D01*
X165356803Y-116153991D01*
X165345105Y-116134966D01*
X165336449Y-116119113D01*
X165328433Y-116102737D01*
X165321060Y-116085838D01*
X165314327Y-116068416D01*
X165308235Y-116050471D01*
X165302785Y-116032003D01*
X165297976Y-116013012D01*
X165293808Y-115993498D01*
X165290282Y-115973462D01*
X165287396Y-115952902D01*
X165285152Y-115931819D01*
X165283549Y-115910213D01*
X165282587Y-115888084D01*
X165282266Y-115865433D01*
X165282266Y-114904658D01*
X164987917Y-114904658D01*
X164987917Y-114904680D01*
X164987917Y-114904680D01*
G37*
G36*
X166353828Y-115800950D02*
X166661405Y-115797586D01*
X166661779Y-115814760D01*
X166662899Y-115831406D01*
X166664767Y-115847523D01*
X166667382Y-115863112D01*
X166670744Y-115878172D01*
X166674853Y-115892704D01*
X166679709Y-115906708D01*
X166685312Y-115920183D01*
X166691663Y-115933129D01*
X166698760Y-115945547D01*
X166706605Y-115957437D01*
X166715196Y-115968798D01*
X166724535Y-115979631D01*
X166734621Y-115989936D01*
X166745454Y-115999712D01*
X166757034Y-116008959D01*
X166769361Y-116017678D01*
X166782436Y-116025869D01*
X166796257Y-116033531D01*
X166810826Y-116040665D01*
X166826141Y-116047270D01*
X166842204Y-116053347D01*
X166859014Y-116058896D01*
X166876570Y-116063916D01*
X166894874Y-116068408D01*
X166913926Y-116072371D01*
X166933724Y-116075806D01*
X166954269Y-116078712D01*
X166975561Y-116081090D01*
X166997601Y-116082940D01*
X167020388Y-116084261D01*
X167043921Y-116085053D01*
X167068202Y-116085318D01*
X167073162Y-116085318D01*
X167096766Y-116085048D01*
X167119620Y-116084239D01*
X167141724Y-116082890D01*
X167163079Y-116081003D01*
X167183685Y-116078576D01*
X167203542Y-116075609D01*
X167222649Y-116072103D01*
X167241007Y-116068058D01*
X167258616Y-116063474D01*
X167275476Y-116058350D01*
X167291586Y-116052687D01*
X167306946Y-116046484D01*
X167321558Y-116039742D01*
X167335420Y-116032461D01*
X167348533Y-116024640D01*
X167360897Y-116016280D01*
X167372511Y-116007381D01*
X167383376Y-115997942D01*
X167393492Y-115987964D01*
X167402858Y-115977447D01*
X167411475Y-115966390D01*
X167419343Y-115954794D01*
X167426461Y-115942659D01*
X167432830Y-115929984D01*
X167438450Y-115916770D01*
X167443321Y-115903016D01*
X167447442Y-115888723D01*
X167450814Y-115873891D01*
X167453436Y-115858520D01*
X167455309Y-115842609D01*
X167456433Y-115826158D01*
X167456808Y-115809169D01*
X167456808Y-115534646D01*
X167439074Y-115531901D01*
X167420833Y-115529342D01*
X167402086Y-115526970D01*
X167382833Y-115524785D01*
X167363073Y-115522787D01*
X167342808Y-115520975D01*
X167322036Y-115519349D01*
X167300758Y-115517910D01*
X167278974Y-115516658D01*
X167256683Y-115515593D01*
X167233887Y-115514714D01*
X167210584Y-115514021D01*
X167186775Y-115513516D01*
X167162459Y-115513197D01*
X167142953Y-115513469D01*
X167123177Y-115514284D01*
X167103131Y-115515643D01*
X167082814Y-115517546D01*
X167062228Y-115519993D01*
X167041372Y-115522983D01*
X167020246Y-115526518D01*
X167001461Y-115529631D01*
X166982315Y-115533213D01*
X166962807Y-115537265D01*
X166942938Y-115541786D01*
X166922706Y-115546776D01*
X166902113Y-115552235D01*
X166881159Y-115558164D01*
X166859842Y-115564561D01*
X166841101Y-115570870D01*
X166823094Y-115578036D01*
X166805823Y-115586060D01*
X166789287Y-115594941D01*
X166773485Y-115604680D01*
X166758418Y-115615276D01*
X166744087Y-115626729D01*
X166730490Y-115639040D01*
X166717629Y-115652208D01*
X166704451Y-115667866D01*
X166693031Y-115684247D01*
X166683367Y-115701352D01*
X166675460Y-115719179D01*
X166669311Y-115737730D01*
X166664918Y-115757004D01*
X166662283Y-115777001D01*
X166661404Y-115797722D01*
X166661405Y-115797586D01*
X166353828Y-115800950D01*
X166354196Y-115780198D01*
X166355298Y-115759830D01*
X166357136Y-115739847D01*
X166359708Y-115720249D01*
X166363015Y-115701035D01*
X166367057Y-115682205D01*
X166371835Y-115663761D01*
X166377347Y-115645701D01*
X166383594Y-115628025D01*
X166390576Y-115610734D01*
X166398293Y-115593828D01*
X166406745Y-115577306D01*
X166415932Y-115561169D01*
X166425854Y-115545417D01*
X166436511Y-115530049D01*
X166447902Y-115515066D01*
X166460029Y-115500467D01*
X166472891Y-115486253D01*
X166486487Y-115472424D01*
X166500819Y-115458979D01*
X166515886Y-115445918D01*
X166531687Y-115433243D01*
X166548224Y-115420952D01*
X166565495Y-115409045D01*
X166579784Y-115399722D01*
X166594430Y-115390715D01*
X166609432Y-115382024D01*
X166624791Y-115373649D01*
X166640506Y-115365590D01*
X166656578Y-115357847D01*
X166673006Y-115350420D01*
X166689790Y-115343309D01*
X166706931Y-115336515D01*
X166724429Y-115330036D01*
X166742283Y-115323873D01*
X166760493Y-115318026D01*
X166779060Y-115312496D01*
X166797983Y-115307281D01*
X166817263Y-115302382D01*
X166836899Y-115297800D01*
X166856891Y-115293533D01*
X166877240Y-115289583D01*
X166897946Y-115285948D01*
X166919008Y-115282630D01*
X166940426Y-115279628D01*
X166962201Y-115276941D01*
X166984332Y-115274571D01*
X167006820Y-115272517D01*
X167029664Y-115270778D01*
X167052865Y-115269356D01*
X167076422Y-115268250D01*
X167100335Y-115267460D01*
X167124605Y-115266986D01*
X167149232Y-115266828D01*
X167170354Y-115266916D01*
X167191389Y-115267181D01*
X167212335Y-115267623D01*
X167233193Y-115268241D01*
X167253963Y-115269036D01*
X167274644Y-115270007D01*
X167295238Y-115271155D01*
X167315743Y-115272479D01*
X167336160Y-115273981D01*
X167356489Y-115275658D01*
X167376729Y-115277513D01*
X167396882Y-115279544D01*
X167416946Y-115281751D01*
X167436922Y-115284136D01*
X167456810Y-115286696D01*
X167455305Y-115262018D01*
X167453125Y-115238175D01*
X167450269Y-115215168D01*
X167446739Y-115192995D01*
X167442533Y-115171658D01*
X167437652Y-115151157D01*
X167432096Y-115131490D01*
X167425865Y-115112659D01*
X167418959Y-115094663D01*
X167411377Y-115077503D01*
X167403120Y-115061178D01*
X167394188Y-115045688D01*
X167384581Y-115031033D01*
X167374299Y-115017214D01*
X167363342Y-115004230D01*
X167351709Y-114992081D01*
X167339401Y-114980768D01*
X167327881Y-114971278D01*
X167315600Y-114962301D01*
X167302558Y-114953837D01*
X167288757Y-114945885D01*
X167274194Y-114938447D01*
X167258872Y-114931522D01*
X167242789Y-114925110D01*
X167225945Y-114919211D01*
X167208342Y-114913825D01*
X167189978Y-114908951D01*
X167170853Y-114904591D01*
X167150968Y-114900744D01*
X167130323Y-114897410D01*
X167108917Y-114894588D01*
X167086751Y-114892280D01*
X167063824Y-114890484D01*
X167040137Y-114889202D01*
X167015690Y-114888433D01*
X166990482Y-114888176D01*
X166971304Y-114888336D01*
X166952020Y-114888814D01*
X166932629Y-114889611D01*
X166913133Y-114890727D01*
X166893530Y-114892161D01*
X166873820Y-114893915D01*
X166854005Y-114895987D01*
X166834083Y-114898378D01*
X166814054Y-114901088D01*
X166793920Y-114904117D01*
X166773679Y-114907465D01*
X166753332Y-114911131D01*
X166732879Y-114915116D01*
X166712319Y-114919421D01*
X166691653Y-114924043D01*
X166670881Y-114928985D01*
X166650003Y-114934246D01*
X166629018Y-114939825D01*
X166607927Y-114945723D01*
X166586730Y-114951940D01*
X166565426Y-114958476D01*
X166544016Y-114965331D01*
X166522500Y-114972504D01*
X166522500Y-114707915D01*
X166541733Y-114700785D01*
X166561066Y-114693946D01*
X166580499Y-114687398D01*
X166600034Y-114681141D01*
X166619668Y-114675176D01*
X166639404Y-114669501D01*
X166659239Y-114664117D01*
X166679176Y-114659024D01*
X166699213Y-114654222D01*
X166719350Y-114649711D01*
X166739588Y-114645492D01*
X166759927Y-114641563D01*
X166780366Y-114637925D01*
X166800905Y-114634578D01*
X166821545Y-114631523D01*
X166842286Y-114628758D01*
X166863127Y-114626284D01*
X166884069Y-114624102D01*
X166905111Y-114622210D01*
X166926254Y-114620610D01*
X166947498Y-114619300D01*
X166968842Y-114618281D01*
X166990286Y-114617554D01*
X167011831Y-114617117D01*
X167033477Y-114616972D01*
X167056780Y-114617176D01*
X167079727Y-114617788D01*
X167102318Y-114618807D01*
X167124552Y-114620235D01*
X167146430Y-114622071D01*
X167167951Y-114624314D01*
X167189116Y-114626966D01*
X167209924Y-114630025D01*
X167230376Y-114633492D01*
X167250472Y-114637367D01*
X167270211Y-114641650D01*
X167289593Y-114646341D01*
X167308619Y-114651440D01*
X167327289Y-114656947D01*
X167345602Y-114662861D01*
X167363559Y-114669184D01*
X167381159Y-114675914D01*
X167398403Y-114683052D01*
X167415291Y-114690599D01*
X167431822Y-114698553D01*
X167447996Y-114706915D01*
X167463814Y-114715685D01*
X167479276Y-114724863D01*
X167494381Y-114734449D01*
X167509129Y-114744442D01*
X167523522Y-114754844D01*
X167537557Y-114765653D01*
X167551237Y-114776871D01*
X167564560Y-114788496D01*
X167577526Y-114800529D01*
X167590527Y-114813265D01*
X167603072Y-114826383D01*
X167615161Y-114839882D01*
X167626793Y-114853762D01*
X167637970Y-114868024D01*
X167648690Y-114882668D01*
X167658954Y-114897692D01*
X167668762Y-114913099D01*
X167678113Y-114928886D01*
X167687009Y-114945055D01*
X167695448Y-114961606D01*
X167703431Y-114978538D01*
X167710958Y-114995851D01*
X167718029Y-115013546D01*
X167724644Y-115031622D01*
X167730802Y-115050080D01*
X167736504Y-115068919D01*
X167741750Y-115088140D01*
X167746540Y-115107742D01*
X167750874Y-115127725D01*
X167754751Y-115148090D01*
X167758173Y-115168836D01*
X167761138Y-115189964D01*
X167763647Y-115211473D01*
X167765700Y-115233363D01*
X167767296Y-115255635D01*
X167768437Y-115278289D01*
X167769121Y-115301324D01*
X167769349Y-115324740D01*
X167769349Y-115812555D01*
X167769028Y-115830746D01*
X167768063Y-115848936D01*
X167766455Y-115867126D01*
X167764204Y-115885316D01*
X167761310Y-115903506D01*
X167757773Y-115921696D01*
X167754297Y-115937458D01*
X167749539Y-115954501D01*
X167743498Y-115972827D01*
X167736174Y-115992434D01*
X167727569Y-116013323D01*
X167717681Y-116035494D01*
X167706511Y-116058947D01*
X167697324Y-116077426D01*
X167687402Y-116095373D01*
X167676745Y-116112790D01*
X167665353Y-116129675D01*
X167653226Y-116146029D01*
X167640365Y-116161851D01*
X167626768Y-116177143D01*
X167612436Y-116191903D01*
X167597370Y-116206131D01*
X167585312Y-116216489D01*
X167572290Y-116226617D01*
X167558303Y-116236515D01*
X167543351Y-116246184D01*
X167527434Y-116255624D01*
X167510554Y-116264833D01*
X167492708Y-116273814D01*
X167473898Y-116282565D01*
X167454123Y-116291086D01*
X167433383Y-116299377D01*
X167411679Y-116307440D01*
X167389011Y-116315272D01*
X167371479Y-116320677D01*
X167353612Y-116325734D01*
X167335409Y-116330442D01*
X167316870Y-116334801D01*
X167297995Y-116338811D01*
X167278785Y-116342472D01*
X167259238Y-116345785D01*
X167239356Y-116348749D01*
X167219137Y-116351365D01*
X167198583Y-116353632D01*
X167177693Y-116355550D01*
X167156467Y-116357119D01*
X167134905Y-116358339D01*
X167113007Y-116359211D01*
X167090773Y-116359734D01*
X167068203Y-116359909D01*
X167045026Y-116359728D01*
X167022211Y-116359185D01*
X166999758Y-116358281D01*
X166977666Y-116357016D01*
X166955936Y-116355389D01*
X166934568Y-116353400D01*
X166913561Y-116351049D01*
X166892917Y-116348337D01*
X166872634Y-116345264D01*
X166852712Y-116341829D01*
X166833153Y-116338032D01*
X166813955Y-116333874D01*
X166795119Y-116329354D01*
X166776645Y-116324472D01*
X166758532Y-116319229D01*
X166740781Y-116313624D01*
X166717837Y-116305525D01*
X166695857Y-116297219D01*
X166674842Y-116288707D01*
X166654792Y-116279988D01*
X166635706Y-116271063D01*
X166617585Y-116261932D01*
X166600428Y-116252595D01*
X166584236Y-116243051D01*
X166569009Y-116233301D01*
X166554746Y-116223344D01*
X166541448Y-116213181D01*
X166529115Y-116202812D01*
X166515174Y-116190014D01*
X166501796Y-116176752D01*
X166488981Y-116163027D01*
X166476727Y-116148839D01*
X166465036Y-116134187D01*
X166453907Y-116119072D01*
X166443340Y-116103494D01*
X166433336Y-116087453D01*
X166423893Y-116070948D01*
X166415013Y-116053980D01*
X166405169Y-116032951D01*
X166396306Y-116012851D01*
X166388426Y-115993682D01*
X166381527Y-115975443D01*
X166375610Y-115958133D01*
X166370675Y-115941754D01*
X166366721Y-115926304D01*
X166363750Y-115911785D01*
X166360718Y-115893084D01*
X166358237Y-115874476D01*
X166356308Y-115855961D01*
X166354930Y-115837539D01*
X166354103Y-115819210D01*
X166353827Y-115800973D01*
X166353828Y-115800950D01*
X166353828Y-115800950D01*
G37*
G36*
X168324974Y-116134989D02*
X168313424Y-116121975D01*
X168302209Y-116108638D01*
X168291329Y-116094977D01*
X168280783Y-116080992D01*
X168270572Y-116066683D01*
X168260696Y-116052049D01*
X168251155Y-116037092D01*
X168241949Y-116021811D01*
X168233077Y-116006206D01*
X168224540Y-115990277D01*
X168216338Y-115974024D01*
X168208471Y-115957447D01*
X168200938Y-115940546D01*
X168193741Y-115923321D01*
X168186878Y-115905772D01*
X168180350Y-115887899D01*
X168174156Y-115869702D01*
X168168297Y-115851182D01*
X168162774Y-115832337D01*
X168157585Y-115813168D01*
X168152730Y-115793675D01*
X168148211Y-115773858D01*
X168144026Y-115753717D01*
X168140176Y-115733253D01*
X168136661Y-115712464D01*
X168133480Y-115691351D01*
X168130635Y-115669915D01*
X168128124Y-115648154D01*
X168125948Y-115626069D01*
X168124107Y-115603661D01*
X168122600Y-115580928D01*
X168121428Y-115557872D01*
X168120592Y-115534491D01*
X168120089Y-115510787D01*
X168119922Y-115486758D01*
X168120089Y-115462731D01*
X168120592Y-115439031D01*
X168121428Y-115415657D01*
X168122600Y-115392610D01*
X168124107Y-115369890D01*
X168125948Y-115347496D01*
X168128124Y-115325429D01*
X168130635Y-115303689D01*
X168133480Y-115282275D01*
X168136661Y-115261189D01*
X168140176Y-115240429D01*
X168144026Y-115219995D01*
X168148211Y-115199889D01*
X168152730Y-115180109D01*
X168157585Y-115160655D01*
X168162774Y-115141529D01*
X168168297Y-115122729D01*
X168174156Y-115104256D01*
X168180350Y-115086109D01*
X168186878Y-115068290D01*
X168193741Y-115050797D01*
X168200938Y-115033630D01*
X168208471Y-115016791D01*
X168216338Y-115000278D01*
X168224540Y-114984092D01*
X168233077Y-114968232D01*
X168241949Y-114952699D01*
X168251155Y-114937493D01*
X168260696Y-114922614D01*
X168270572Y-114908061D01*
X168280783Y-114893835D01*
X168291329Y-114879936D01*
X168302209Y-114866363D01*
X168313424Y-114853117D01*
X168324974Y-114840198D01*
X168337567Y-114826873D01*
X168350491Y-114813958D01*
X168363746Y-114801453D01*
X168377332Y-114789357D01*
X168391249Y-114777672D01*
X168405497Y-114766397D01*
X168420076Y-114755532D01*
X168434986Y-114745077D01*
X168450227Y-114735031D01*
X168465800Y-114725396D01*
X168481703Y-114716171D01*
X168497937Y-114707356D01*
X168514502Y-114698951D01*
X168531399Y-114690956D01*
X168548626Y-114683370D01*
X168566185Y-114676195D01*
X168584074Y-114669430D01*
X168602294Y-114663075D01*
X168620846Y-114657130D01*
X168639729Y-114651595D01*
X168658942Y-114646470D01*
X168678487Y-114641755D01*
X168698362Y-114637450D01*
X168718569Y-114633555D01*
X168739107Y-114630070D01*
X168759975Y-114626994D01*
X168781175Y-114624329D01*
X168802706Y-114622074D01*
X168824568Y-114620229D01*
X168846761Y-114618794D01*
X168869285Y-114617769D01*
X168892140Y-114617154D01*
X168915326Y-114616949D01*
X168935934Y-114617100D01*
X168956484Y-114617553D01*
X168976976Y-114618307D01*
X168997410Y-114619362D01*
X169017786Y-114620720D01*
X169038103Y-114622379D01*
X169058362Y-114624339D01*
X169078563Y-114626602D01*
X169098706Y-114629166D01*
X169118790Y-114632031D01*
X169138817Y-114635198D01*
X169158785Y-114638667D01*
X169178695Y-114642438D01*
X169198546Y-114646510D01*
X169218340Y-114650884D01*
X169238075Y-114655559D01*
X169257752Y-114660536D01*
X169277371Y-114665815D01*
X169296932Y-114671395D01*
X169316434Y-114677277D01*
X169335878Y-114683461D01*
X169355264Y-114689946D01*
X169374592Y-114696733D01*
X169393862Y-114703821D01*
X169413073Y-114711211D01*
X169413073Y-115005558D01*
X169393910Y-114996518D01*
X169374729Y-114987862D01*
X169355531Y-114979592D01*
X169336316Y-114971706D01*
X169317084Y-114964204D01*
X169297835Y-114957088D01*
X169278568Y-114950356D01*
X169259284Y-114944008D01*
X169239983Y-114938046D01*
X169220664Y-114932468D01*
X169201329Y-114927275D01*
X169181976Y-114922466D01*
X169162606Y-114918042D01*
X169143219Y-114914003D01*
X169123814Y-114910349D01*
X169104393Y-114907079D01*
X169084954Y-114904194D01*
X169065497Y-114901693D01*
X169046024Y-114899577D01*
X169026533Y-114897846D01*
X169007026Y-114896500D01*
X168987500Y-114895538D01*
X168967958Y-114894961D01*
X168948399Y-114894769D01*
X168941783Y-114894769D01*
X168918719Y-114895071D01*
X168896159Y-114895976D01*
X168874104Y-114897485D01*
X168852553Y-114899597D01*
X168831506Y-114902313D01*
X168810963Y-114905632D01*
X168790925Y-114909555D01*
X168771392Y-114914081D01*
X168752362Y-114919211D01*
X168733837Y-114924944D01*
X168715817Y-114931281D01*
X168698301Y-114938221D01*
X168681289Y-114945765D01*
X168664781Y-114953912D01*
X168648778Y-114962663D01*
X168633279Y-114972017D01*
X168618285Y-114981975D01*
X168603795Y-114992536D01*
X168589809Y-115003701D01*
X168576328Y-115015470D01*
X168566347Y-115024974D01*
X168556758Y-115035168D01*
X168547560Y-115046052D01*
X168538754Y-115057626D01*
X168530339Y-115069890D01*
X168522315Y-115082843D01*
X168514683Y-115096486D01*
X168507442Y-115110819D01*
X168500593Y-115125841D01*
X168494135Y-115141554D01*
X168488068Y-115157956D01*
X168482393Y-115175048D01*
X168477109Y-115192829D01*
X168472216Y-115211301D01*
X168467715Y-115230462D01*
X168463606Y-115250313D01*
X168459887Y-115270853D01*
X168456561Y-115292084D01*
X168453625Y-115314004D01*
X168451081Y-115336614D01*
X168448928Y-115359913D01*
X168447167Y-115383903D01*
X168445797Y-115408582D01*
X168444819Y-115433951D01*
X168444232Y-115460010D01*
X168444036Y-115486758D01*
X168444205Y-115511396D01*
X168444712Y-115535474D01*
X168445557Y-115558994D01*
X168446741Y-115581956D01*
X168448262Y-115604358D01*
X168450121Y-115626202D01*
X168452319Y-115647487D01*
X168454854Y-115668214D01*
X168457728Y-115688381D01*
X168460940Y-115707990D01*
X168464490Y-115727040D01*
X168468378Y-115745532D01*
X168472604Y-115763465D01*
X168477168Y-115780839D01*
X168482070Y-115797654D01*
X168489586Y-115819384D01*
X168497704Y-115840076D01*
X168506423Y-115859729D01*
X168515744Y-115878343D01*
X168525666Y-115895919D01*
X168536189Y-115912456D01*
X168547314Y-115927955D01*
X168559039Y-115942415D01*
X168571367Y-115955836D01*
X168584295Y-115968219D01*
X168597825Y-115979563D01*
X168615096Y-115992299D01*
X168632368Y-116004055D01*
X168649639Y-116014832D01*
X168666911Y-116024630D01*
X168684182Y-116033448D01*
X168701453Y-116041286D01*
X168718725Y-116048145D01*
X168735996Y-116054024D01*
X168753268Y-116058924D01*
X168769440Y-116062699D01*
X168786208Y-116066077D01*
X168803572Y-116069057D01*
X168821530Y-116071640D01*
X168840084Y-116073825D01*
X168859233Y-116075614D01*
X168878978Y-116077004D01*
X168899318Y-116077998D01*
X168920253Y-116078594D01*
X168941783Y-116078793D01*
X168962015Y-116078606D01*
X168982194Y-116078046D01*
X169002322Y-116077113D01*
X169022399Y-116075807D01*
X169042423Y-116074127D01*
X169062396Y-116072074D01*
X169082317Y-116069648D01*
X169102187Y-116066849D01*
X169122005Y-116063676D01*
X169141771Y-116060131D01*
X169161486Y-116056212D01*
X169181149Y-116051919D01*
X169200760Y-116047254D01*
X169220319Y-116042215D01*
X169239827Y-116036803D01*
X169259283Y-116031018D01*
X169278688Y-116024860D01*
X169298041Y-116018328D01*
X169317342Y-116011423D01*
X169336591Y-116004145D01*
X169355789Y-115996493D01*
X169374935Y-115988469D01*
X169394030Y-115980071D01*
X169413072Y-115971300D01*
X169413072Y-116265646D01*
X169393861Y-116273036D01*
X169374591Y-116280125D01*
X169355264Y-116286912D01*
X169335878Y-116293397D01*
X169316433Y-116299581D01*
X169296931Y-116305463D01*
X169277370Y-116311043D01*
X169257751Y-116316322D01*
X169238074Y-116321299D01*
X169218339Y-116325974D01*
X169198546Y-116330348D01*
X169178694Y-116334420D01*
X169158784Y-116338190D01*
X169138816Y-116341659D01*
X169118790Y-116344827D01*
X169098705Y-116347692D01*
X169078562Y-116350256D01*
X169058361Y-116352518D01*
X169038102Y-116354479D01*
X169017785Y-116356138D01*
X168997409Y-116357495D01*
X168976975Y-116358551D01*
X168956483Y-116359305D01*
X168935933Y-116359758D01*
X168915325Y-116359909D01*
X168892139Y-116359702D01*
X168869284Y-116359082D01*
X168846760Y-116358050D01*
X168824567Y-116356604D01*
X168802705Y-116354746D01*
X168781175Y-116352474D01*
X168759975Y-116349789D01*
X168739106Y-116346691D01*
X168718568Y-116343181D01*
X168698362Y-116339257D01*
X168678486Y-116334920D01*
X168658941Y-116330170D01*
X168639728Y-116325007D01*
X168620845Y-116319431D01*
X168602294Y-116313442D01*
X168584073Y-116307040D01*
X168566184Y-116300225D01*
X168548625Y-116292997D01*
X168531398Y-116285356D01*
X168514502Y-116277302D01*
X168497936Y-116268834D01*
X168481702Y-116259954D01*
X168465799Y-116250661D01*
X168450227Y-116240955D01*
X168434986Y-116230835D01*
X168420075Y-116220303D01*
X168405496Y-116209357D01*
X168391248Y-116197999D01*
X168377331Y-116186228D01*
X168363745Y-116174043D01*
X168350490Y-116161445D01*
X168337566Y-116148435D01*
X168324973Y-116135011D01*
X168324974Y-116134989D01*
X168324974Y-116134989D01*
G37*
G36*
X169781836Y-116333425D02*
X169781836Y-114000147D01*
X170091068Y-114000147D01*
X170091068Y-115351179D01*
X170821979Y-114643410D01*
X171242005Y-114643410D01*
X170507787Y-115347860D01*
X171339570Y-116333425D01*
X170927813Y-116333425D01*
X170301081Y-115547944D01*
X170091068Y-115751347D01*
X170091068Y-116333425D01*
X169781836Y-116333425D01*
X169781836Y-116333425D01*
G37*
D13*
X162291667Y-120328571D02*
X161958333Y-120328571D01*
X161958333Y-120852381D02*
X161958333Y-119852381D01*
X162434524Y-119852381D01*
X162720238Y-119852381D02*
X163339286Y-119852381D01*
X163005952Y-120233333D01*
X163148810Y-120233333D01*
X163244048Y-120280952D01*
X163291667Y-120328571D01*
X163339286Y-120423810D01*
X163339286Y-120661905D01*
X163291667Y-120757143D01*
X163244048Y-120804762D01*
X163148810Y-120852381D01*
X162863095Y-120852381D01*
X162767857Y-120804762D01*
X162720238Y-120757143D01*
X162093334Y-103142381D02*
X161760000Y-102666190D01*
X161521905Y-103142381D02*
X161521905Y-102142381D01*
X161902858Y-102142381D01*
X161998096Y-102190000D01*
X162045715Y-102237619D01*
X162093334Y-102332857D01*
X162093334Y-102475714D01*
X162045715Y-102570952D01*
X161998096Y-102618571D01*
X161902858Y-102666190D01*
X161521905Y-102666190D01*
X163045715Y-103142381D02*
X162474286Y-103142381D01*
X162760000Y-103142381D02*
X162760000Y-102142381D01*
X162664762Y-102285238D01*
X162569524Y-102380476D01*
X162474286Y-102428095D01*
X162123334Y-101142381D02*
X161790000Y-100666190D01*
X161551905Y-101142381D02*
X161551905Y-100142381D01*
X161932858Y-100142381D01*
X162028096Y-100190000D01*
X162075715Y-100237619D01*
X162123334Y-100332857D01*
X162123334Y-100475714D01*
X162075715Y-100570952D01*
X162028096Y-100618571D01*
X161932858Y-100666190D01*
X161551905Y-100666190D01*
X162504286Y-100237619D02*
X162551905Y-100190000D01*
X162647143Y-100142381D01*
X162885239Y-100142381D01*
X162980477Y-100190000D01*
X163028096Y-100237619D01*
X163075715Y-100332857D01*
X163075715Y-100428095D01*
X163028096Y-100570952D01*
X162456667Y-101142381D01*
X163075715Y-101142381D01*
X162291667Y-97928571D02*
X161958333Y-97928571D01*
X161958333Y-98452381D02*
X161958333Y-97452381D01*
X162434524Y-97452381D01*
X162767857Y-97547619D02*
X162815476Y-97500000D01*
X162910714Y-97452381D01*
X163148810Y-97452381D01*
X163244048Y-97500000D01*
X163291667Y-97547619D01*
X163339286Y-97642857D01*
X163339286Y-97738095D01*
X163291667Y-97880952D01*
X162720238Y-98452381D01*
X163339286Y-98452381D01*
X159516667Y-97953571D02*
X159183333Y-97953571D01*
X159183333Y-98477381D02*
X159183333Y-97477381D01*
X159659524Y-97477381D01*
X160564286Y-98477381D02*
X159992857Y-98477381D01*
X160278571Y-98477381D02*
X160278571Y-97477381D01*
X160183333Y-97620238D01*
X160088095Y-97715476D01*
X159992857Y-97763095D01*
M02*
