G04 #@! TF.FileFunction,Legend,Bot*
%FSLAX46Y46*%
G04 Gerber Fmt 4.6, Leading zero omitted, Abs format (unit mm)*
G04 Created by KiCad (PCBNEW 4.0.1-stable) date Tuesday, May 31, 2016 'PMt' 12:19:51 PM*
%MOMM*%
G01*
G04 APERTURE LIST*
%ADD10C,0.100000*%
%ADD11C,0.150000*%
%ADD12C,0.230000*%
%ADD13C,0.250000*%
G04 APERTURE END LIST*
D10*
D11*
X169301905Y-101292381D02*
X169301905Y-100292381D01*
X168920952Y-100292381D01*
X168825714Y-100340000D01*
X168778095Y-100387619D01*
X168730476Y-100482857D01*
X168730476Y-100625714D01*
X168778095Y-100720952D01*
X168825714Y-100768571D01*
X168920952Y-100816190D01*
X169301905Y-100816190D01*
X167778095Y-100340000D02*
X167873333Y-100292381D01*
X168016190Y-100292381D01*
X168159048Y-100340000D01*
X168254286Y-100435238D01*
X168301905Y-100530476D01*
X168349524Y-100720952D01*
X168349524Y-100863810D01*
X168301905Y-101054286D01*
X168254286Y-101149524D01*
X168159048Y-101244762D01*
X168016190Y-101292381D01*
X167920952Y-101292381D01*
X167778095Y-101244762D01*
X167730476Y-101197143D01*
X167730476Y-100863810D01*
X167920952Y-100863810D01*
X169298095Y-103328571D02*
X168964761Y-103328571D01*
X168821904Y-103852381D02*
X169298095Y-103852381D01*
X169298095Y-102852381D01*
X168821904Y-102852381D01*
X168393333Y-103852381D02*
X168393333Y-102852381D01*
X167821904Y-103852381D01*
X167821904Y-102852381D01*
D12*
X164868809Y-105890714D02*
X164690238Y-105950238D01*
X164630714Y-106009762D01*
X164571190Y-106128810D01*
X164571190Y-106307381D01*
X164630714Y-106426429D01*
X164690238Y-106485952D01*
X164809285Y-106545476D01*
X165285476Y-106545476D01*
X165285476Y-105295476D01*
X164868809Y-105295476D01*
X164749762Y-105355000D01*
X164690238Y-105414524D01*
X164630714Y-105533571D01*
X164630714Y-105652619D01*
X164690238Y-105771667D01*
X164749762Y-105831190D01*
X164868809Y-105890714D01*
X165285476Y-105890714D01*
X164095000Y-106188333D02*
X163499762Y-106188333D01*
X164214047Y-106545476D02*
X163797381Y-105295476D01*
X163380714Y-106545476D01*
X163142618Y-105295476D02*
X162428333Y-105295476D01*
X162785476Y-106545476D02*
X162785476Y-105295476D01*
X162190237Y-105295476D02*
X161475952Y-105295476D01*
X161833095Y-106545476D02*
X161833095Y-105295476D01*
X164632381Y-107895000D02*
X164751429Y-107835476D01*
X164930000Y-107835476D01*
X165108572Y-107895000D01*
X165227619Y-108014048D01*
X165287143Y-108133095D01*
X165346667Y-108371190D01*
X165346667Y-108549762D01*
X165287143Y-108787857D01*
X165227619Y-108906905D01*
X165108572Y-109025952D01*
X164930000Y-109085476D01*
X164810952Y-109085476D01*
X164632381Y-109025952D01*
X164572857Y-108966429D01*
X164572857Y-108549762D01*
X164810952Y-108549762D01*
X164037143Y-109085476D02*
X164037143Y-107835476D01*
X163322857Y-109085476D01*
X163322857Y-107835476D01*
X162727619Y-109085476D02*
X162727619Y-107835476D01*
X162430000Y-107835476D01*
X162251428Y-107895000D01*
X162132381Y-108014048D01*
X162072857Y-108133095D01*
X162013333Y-108371190D01*
X162013333Y-108549762D01*
X162072857Y-108787857D01*
X162132381Y-108906905D01*
X162251428Y-109025952D01*
X162430000Y-109085476D01*
X162727619Y-109085476D01*
X169107143Y-111289286D02*
X168154762Y-111289286D01*
X168630952Y-111765476D02*
X168630952Y-110813095D01*
X166964286Y-110515476D02*
X167559524Y-110515476D01*
X167619048Y-111110714D01*
X167559524Y-111051190D01*
X167440476Y-110991667D01*
X167142857Y-110991667D01*
X167023810Y-111051190D01*
X166964286Y-111110714D01*
X166904762Y-111229762D01*
X166904762Y-111527381D01*
X166964286Y-111646429D01*
X167023810Y-111705952D01*
X167142857Y-111765476D01*
X167440476Y-111765476D01*
X167559524Y-111705952D01*
X167619048Y-111646429D01*
X166547619Y-110515476D02*
X166130953Y-111765476D01*
X165714286Y-110515476D01*
D13*
X158516667Y-94816666D02*
X158583333Y-94683333D01*
X158583333Y-94416666D01*
X158516667Y-94283333D01*
X158450000Y-94216666D01*
X158316667Y-94150000D01*
X157916667Y-94150000D01*
X157783333Y-94216666D01*
X157716667Y-94283333D01*
X157650000Y-94416666D01*
X157650000Y-94683333D01*
X157716667Y-94816666D01*
X158583333Y-95416666D02*
X157183333Y-95416666D01*
X158050000Y-95550000D02*
X158583333Y-95950000D01*
X157650000Y-95950000D02*
X158183333Y-95416666D01*
X158583333Y-97149999D02*
X157183333Y-97149999D01*
X158516667Y-97149999D02*
X158583333Y-97016666D01*
X158583333Y-96749999D01*
X158516667Y-96616666D01*
X158450000Y-96549999D01*
X158316667Y-96483333D01*
X157916667Y-96483333D01*
X157783333Y-96549999D01*
X157716667Y-96616666D01*
X157650000Y-96749999D01*
X157650000Y-97016666D01*
X157716667Y-97149999D01*
X158450000Y-97816666D02*
X158516667Y-97883333D01*
X158583333Y-97816666D01*
X158516667Y-97750000D01*
X158450000Y-97816666D01*
X158583333Y-97816666D01*
X157650000Y-98283333D02*
X157650000Y-98816667D01*
X157183333Y-98483333D02*
X158383333Y-98483333D01*
X158516667Y-98550000D01*
X158583333Y-98683333D01*
X158583333Y-98816667D01*
X158516667Y-99816667D02*
X158583333Y-99683333D01*
X158583333Y-99416667D01*
X158516667Y-99283333D01*
X158383333Y-99216667D01*
X157850000Y-99216667D01*
X157716667Y-99283333D01*
X157650000Y-99416667D01*
X157650000Y-99683333D01*
X157716667Y-99816667D01*
X157850000Y-99883333D01*
X157983333Y-99883333D01*
X158116667Y-99216667D01*
X158516667Y-101083333D02*
X158583333Y-100950000D01*
X158583333Y-100683333D01*
X158516667Y-100550000D01*
X158450000Y-100483333D01*
X158316667Y-100416667D01*
X157916667Y-100416667D01*
X157783333Y-100483333D01*
X157716667Y-100550000D01*
X157650000Y-100683333D01*
X157650000Y-100950000D01*
X157716667Y-101083333D01*
X158583333Y-101683333D02*
X157183333Y-101683333D01*
X158583333Y-102283333D02*
X157850000Y-102283333D01*
X157716667Y-102216667D01*
X157650000Y-102083333D01*
X157650000Y-101883333D01*
X157716667Y-101750000D01*
X157783333Y-101683333D01*
X157116667Y-103950000D02*
X158916667Y-102750000D01*
X157650000Y-104416667D02*
X159050000Y-104416667D01*
X157716667Y-104416667D02*
X157650000Y-104550001D01*
X157650000Y-104816667D01*
X157716667Y-104950001D01*
X157783333Y-105016667D01*
X157916667Y-105083334D01*
X158316667Y-105083334D01*
X158450000Y-105016667D01*
X158516667Y-104950001D01*
X158583333Y-104816667D01*
X158583333Y-104550001D01*
X158516667Y-104416667D01*
X158050000Y-105683334D02*
X158050000Y-106750001D01*
X157650000Y-107416667D02*
X159050000Y-107416667D01*
X157716667Y-107416667D02*
X157650000Y-107550001D01*
X157650000Y-107816667D01*
X157716667Y-107950001D01*
X157783333Y-108016667D01*
X157916667Y-108083334D01*
X158316667Y-108083334D01*
X158450000Y-108016667D01*
X158516667Y-107950001D01*
X158583333Y-107816667D01*
X158583333Y-107550001D01*
X158516667Y-107416667D01*
X157116667Y-109683334D02*
X158916667Y-108483334D01*
X157650000Y-110016668D02*
X158583333Y-110350001D01*
X157650000Y-110683335D01*
X157183333Y-111083335D02*
X157183333Y-112016668D01*
X158583333Y-111416668D01*
D10*
G36*
X171499147Y-116260161D02*
X171069142Y-115335727D01*
X171046370Y-115338624D01*
X171024034Y-115341246D01*
X171002135Y-115343591D01*
X170980672Y-115345661D01*
X170959645Y-115347455D01*
X170939055Y-115348972D01*
X170918901Y-115350214D01*
X170899184Y-115351180D01*
X170879903Y-115351870D01*
X170861058Y-115352284D01*
X170842650Y-115352422D01*
X170819825Y-115352027D01*
X170797652Y-115350842D01*
X170776132Y-115348868D01*
X170755264Y-115346104D01*
X170735048Y-115342551D01*
X170715485Y-115338208D01*
X170696574Y-115333075D01*
X170678315Y-115327152D01*
X170660709Y-115320440D01*
X170643755Y-115312938D01*
X170627453Y-115304646D01*
X170611803Y-115295565D01*
X170596806Y-115285694D01*
X170582461Y-115275034D01*
X170568768Y-115263583D01*
X170555728Y-115251343D01*
X170543340Y-115238314D01*
X170534084Y-115227428D01*
X170525259Y-115215819D01*
X170516865Y-115203485D01*
X170508900Y-115190426D01*
X170501367Y-115176644D01*
X170494264Y-115162137D01*
X170487591Y-115146906D01*
X170481349Y-115130951D01*
X170475537Y-115114271D01*
X170470156Y-115096868D01*
X170465205Y-115078740D01*
X170460685Y-115059887D01*
X170456595Y-115040311D01*
X170452936Y-115020010D01*
X170449707Y-114998985D01*
X170446909Y-114977235D01*
X170444541Y-114954762D01*
X170442604Y-114931564D01*
X170441097Y-114907642D01*
X170440021Y-114882995D01*
X170439375Y-114857625D01*
X170439160Y-114831530D01*
X170439321Y-114804811D01*
X170439803Y-114778776D01*
X170440605Y-114753424D01*
X170441730Y-114728755D01*
X170443175Y-114704770D01*
X170444941Y-114681468D01*
X170447029Y-114658850D01*
X170449437Y-114636915D01*
X170452167Y-114615663D01*
X170455218Y-114595095D01*
X170458591Y-114575210D01*
X170462284Y-114556009D01*
X170466298Y-114537491D01*
X170470634Y-114519656D01*
X170475291Y-114502505D01*
X170480269Y-114486037D01*
X170485568Y-114470252D01*
X170491189Y-114455151D01*
X170497130Y-114440734D01*
X170503393Y-114427000D01*
X170509977Y-114413949D01*
X170516882Y-114401581D01*
X170526426Y-114386474D01*
X170536771Y-114372282D01*
X170547918Y-114359005D01*
X170559865Y-114346645D01*
X170572613Y-114335199D01*
X170586163Y-114324670D01*
X170600514Y-114315056D01*
X170615665Y-114306358D01*
X170631618Y-114298575D01*
X170648372Y-114291708D01*
X170665927Y-114285756D01*
X170684283Y-114280721D01*
X170703440Y-114276600D01*
X170723399Y-114273396D01*
X170744158Y-114271107D01*
X170765718Y-114269733D01*
X170788080Y-114269275D01*
X170813963Y-114269619D01*
X170838695Y-114270651D01*
X170862278Y-114272370D01*
X170884710Y-114274777D01*
X170905992Y-114277872D01*
X170926123Y-114281655D01*
X170945104Y-114286125D01*
X170962935Y-114291283D01*
X170979615Y-114297129D01*
X170995145Y-114303663D01*
X171009524Y-114310884D01*
X171022753Y-114318793D01*
X171034832Y-114327390D01*
X171045761Y-114336675D01*
X171055539Y-114346647D01*
X171064166Y-114357307D01*
X171071644Y-114368655D01*
X171077971Y-114380691D01*
X171083147Y-114393414D01*
X171087174Y-114406825D01*
X171090050Y-114420924D01*
X171091775Y-114435710D01*
X171092350Y-114451185D01*
X171092350Y-115332576D01*
X171092350Y-115332553D01*
X171069142Y-115335727D01*
X171499147Y-116260161D01*
X171499147Y-114489115D01*
X171498819Y-114468965D01*
X171497834Y-114449066D01*
X171496193Y-114429416D01*
X171493896Y-114410016D01*
X171490942Y-114390866D01*
X171487331Y-114371967D01*
X171483064Y-114353317D01*
X171478141Y-114334917D01*
X171472561Y-114316768D01*
X171466324Y-114298868D01*
X171459432Y-114281218D01*
X171451882Y-114263819D01*
X171443677Y-114246669D01*
X171434814Y-114229769D01*
X171425296Y-114213120D01*
X171415121Y-114196720D01*
X171404289Y-114180571D01*
X171392801Y-114164671D01*
X171380657Y-114149022D01*
X171367856Y-114133622D01*
X171354399Y-114118473D01*
X171340285Y-114103574D01*
X171325514Y-114088924D01*
X171313204Y-114077492D01*
X171300448Y-114066460D01*
X171287249Y-114055830D01*
X171273605Y-114045601D01*
X171259516Y-114035773D01*
X171244983Y-114026347D01*
X171230006Y-114017321D01*
X171214584Y-114008697D01*
X171198719Y-114000473D01*
X171182408Y-113992651D01*
X171165653Y-113985230D01*
X171148454Y-113978210D01*
X171130811Y-113971591D01*
X171112723Y-113965374D01*
X171094191Y-113959557D01*
X171075214Y-113954142D01*
X171055793Y-113949128D01*
X171035928Y-113944514D01*
X171015618Y-113940303D01*
X170994864Y-113936492D01*
X170973665Y-113933082D01*
X170952022Y-113930074D01*
X170929935Y-113927466D01*
X170907404Y-113925260D01*
X170884428Y-113923455D01*
X170861007Y-113922051D01*
X170837142Y-113921048D01*
X170812833Y-113920446D01*
X170788080Y-113920246D01*
X170767021Y-113920454D01*
X170746015Y-113921078D01*
X170725060Y-113922119D01*
X170704157Y-113923576D01*
X170683306Y-113925449D01*
X170662506Y-113927739D01*
X170641758Y-113930444D01*
X170621061Y-113933567D01*
X170603913Y-113936659D01*
X170586202Y-113940607D01*
X170567930Y-113945412D01*
X170549095Y-113951072D01*
X170529697Y-113957589D01*
X170509738Y-113964962D01*
X170489216Y-113973191D01*
X170468132Y-113982277D01*
X170446486Y-113992218D01*
X170424277Y-114003016D01*
X170405490Y-114012619D01*
X170387162Y-114022681D01*
X170369294Y-114033202D01*
X170351884Y-114044183D01*
X170334935Y-114055622D01*
X170318444Y-114067520D01*
X170302413Y-114079878D01*
X170286841Y-114092695D01*
X170271729Y-114105970D01*
X170257075Y-114119705D01*
X170242882Y-114133899D01*
X170229147Y-114148552D01*
X170218439Y-114160833D01*
X170207922Y-114173863D01*
X170197596Y-114187643D01*
X170187461Y-114202173D01*
X170177517Y-114217452D01*
X170167764Y-114233481D01*
X170158202Y-114250259D01*
X170148831Y-114267787D01*
X170139652Y-114286064D01*
X170130663Y-114305091D01*
X170121866Y-114324868D01*
X170113260Y-114345394D01*
X170104845Y-114366670D01*
X170096620Y-114388695D01*
X170088587Y-114411470D01*
X170082783Y-114428804D01*
X170077276Y-114446411D01*
X170072067Y-114464291D01*
X170067156Y-114482444D01*
X170062542Y-114500870D01*
X170058226Y-114519569D01*
X170054208Y-114538540D01*
X170050487Y-114557785D01*
X170047064Y-114577303D01*
X170043939Y-114597094D01*
X170041111Y-114617157D01*
X170038581Y-114637494D01*
X170036349Y-114658103D01*
X170034414Y-114678986D01*
X170032777Y-114700141D01*
X170031437Y-114721570D01*
X170030396Y-114743271D01*
X170029651Y-114765246D01*
X170029205Y-114787493D01*
X170029056Y-114810013D01*
X170029232Y-114834165D01*
X170029760Y-114857985D01*
X170030640Y-114881473D01*
X170031871Y-114904629D01*
X170033455Y-114927453D01*
X170035390Y-114949946D01*
X170037678Y-114972107D01*
X170040317Y-114993935D01*
X170043308Y-115015432D01*
X170046651Y-115036598D01*
X170050346Y-115057431D01*
X170054393Y-115077933D01*
X170058792Y-115098102D01*
X170063542Y-115117940D01*
X170068645Y-115137446D01*
X170074099Y-115156620D01*
X170079906Y-115175463D01*
X170086064Y-115193973D01*
X170092574Y-115212152D01*
X170099436Y-115229999D01*
X170106650Y-115247514D01*
X170114216Y-115264697D01*
X170122134Y-115281549D01*
X170130403Y-115298068D01*
X170139025Y-115314256D01*
X170147998Y-115330112D01*
X170157324Y-115345636D01*
X170167001Y-115360828D01*
X170177030Y-115375689D01*
X170187411Y-115390217D01*
X170198144Y-115404414D01*
X170209229Y-115418279D01*
X170220666Y-115431812D01*
X170232455Y-115445013D01*
X170244943Y-115458239D01*
X170257753Y-115471057D01*
X170270885Y-115483469D01*
X170284339Y-115495474D01*
X170298114Y-115507071D01*
X170312212Y-115518262D01*
X170326632Y-115529046D01*
X170341373Y-115539423D01*
X170356437Y-115549393D01*
X170371822Y-115558956D01*
X170387530Y-115568112D01*
X170403559Y-115576861D01*
X170419910Y-115585204D01*
X170436583Y-115593139D01*
X170453578Y-115600667D01*
X170470895Y-115607789D01*
X170488534Y-115614503D01*
X170506495Y-115620811D01*
X170524778Y-115626712D01*
X170543382Y-115632205D01*
X170562309Y-115637292D01*
X170581558Y-115641972D01*
X170601128Y-115646245D01*
X170621020Y-115650111D01*
X170641235Y-115653569D01*
X170661771Y-115656622D01*
X170682629Y-115659267D01*
X170703809Y-115661505D01*
X170725311Y-115663336D01*
X170747135Y-115664760D01*
X170769281Y-115665778D01*
X170791748Y-115666388D01*
X170814538Y-115666592D01*
X170834820Y-115666440D01*
X170855035Y-115665984D01*
X170875183Y-115665225D01*
X170895263Y-115664162D01*
X170915275Y-115662796D01*
X170935220Y-115661126D01*
X170955098Y-115659152D01*
X170974908Y-115656875D01*
X170994650Y-115654294D01*
X171014325Y-115651409D01*
X171033933Y-115648221D01*
X171053473Y-115644729D01*
X171072945Y-115640933D01*
X171092350Y-115636834D01*
X171092350Y-116260252D01*
X171499147Y-116260252D01*
X171499147Y-116260161D01*
X171499147Y-116260161D01*
G37*
G36*
X169480046Y-115434989D02*
X169251419Y-114508179D01*
X169255977Y-114527148D01*
X169260138Y-114546963D01*
X169263903Y-114567627D01*
X169267272Y-114589137D01*
X169270244Y-114611495D01*
X169272821Y-114634700D01*
X169275000Y-114658753D01*
X169276784Y-114683653D01*
X169278171Y-114709400D01*
X169279162Y-114735994D01*
X169279756Y-114763436D01*
X169279955Y-114791725D01*
X169279756Y-114819868D01*
X169279162Y-114847170D01*
X169278171Y-114873632D01*
X169276784Y-114899253D01*
X169275000Y-114924034D01*
X169272821Y-114947974D01*
X169270244Y-114971073D01*
X169267272Y-114993332D01*
X169263903Y-115014751D01*
X169260138Y-115035329D01*
X169255977Y-115055067D01*
X169251419Y-115073964D01*
X169246465Y-115092020D01*
X169241114Y-115109237D01*
X169235368Y-115125612D01*
X169229224Y-115141147D01*
X169222685Y-115155842D01*
X169215749Y-115169696D01*
X169208417Y-115182709D01*
X169200689Y-115194882D01*
X169192564Y-115206215D01*
X169184043Y-115216707D01*
X169172210Y-115229169D01*
X169159667Y-115240876D01*
X169146415Y-115251828D01*
X169132454Y-115262025D01*
X169117783Y-115271466D01*
X169102402Y-115280152D01*
X169086312Y-115288083D01*
X169069512Y-115295258D01*
X169052003Y-115301678D01*
X169033784Y-115307343D01*
X169014856Y-115312252D01*
X168995218Y-115316406D01*
X168974871Y-115319805D01*
X168953814Y-115322449D01*
X168932048Y-115324337D01*
X168909572Y-115325470D01*
X168886387Y-115325848D01*
X168863207Y-115325470D01*
X168840748Y-115324337D01*
X168819011Y-115322449D01*
X168797994Y-115319805D01*
X168777698Y-115316406D01*
X168758123Y-115312252D01*
X168739270Y-115307343D01*
X168721137Y-115301678D01*
X168703725Y-115295258D01*
X168687034Y-115288083D01*
X168671064Y-115280152D01*
X168655815Y-115271466D01*
X168641287Y-115262025D01*
X168627480Y-115251828D01*
X168614394Y-115240876D01*
X168602028Y-115229169D01*
X168590384Y-115216707D01*
X168581863Y-115206215D01*
X168573738Y-115194882D01*
X168566010Y-115182709D01*
X168558678Y-115169696D01*
X168551742Y-115155842D01*
X168545203Y-115141147D01*
X168539060Y-115125612D01*
X168533313Y-115109237D01*
X168527963Y-115092020D01*
X168523008Y-115073964D01*
X168518451Y-115055067D01*
X168514289Y-115035329D01*
X168510524Y-115014751D01*
X168507155Y-114993332D01*
X168504183Y-114971073D01*
X168501607Y-114947974D01*
X168499427Y-114924034D01*
X168497643Y-114899253D01*
X168496256Y-114873632D01*
X168495265Y-114847170D01*
X168494671Y-114819868D01*
X168494473Y-114791725D01*
X168494671Y-114763436D01*
X168495265Y-114735994D01*
X168496256Y-114709400D01*
X168497643Y-114683653D01*
X168499427Y-114658753D01*
X168501607Y-114634700D01*
X168504183Y-114611495D01*
X168507155Y-114589137D01*
X168510524Y-114567627D01*
X168514289Y-114546963D01*
X168518451Y-114527148D01*
X168523008Y-114508179D01*
X168527963Y-114490058D01*
X168533313Y-114472784D01*
X168539060Y-114456357D01*
X168545203Y-114440778D01*
X168551742Y-114426046D01*
X168558678Y-114412161D01*
X168566010Y-114399124D01*
X168573738Y-114386934D01*
X168581863Y-114375591D01*
X168590384Y-114365096D01*
X168602028Y-114352442D01*
X168614394Y-114340556D01*
X168627480Y-114329436D01*
X168641287Y-114319084D01*
X168655815Y-114309498D01*
X168671064Y-114300679D01*
X168687034Y-114292627D01*
X168703725Y-114285342D01*
X168721137Y-114278823D01*
X168739270Y-114273072D01*
X168758123Y-114268087D01*
X168777698Y-114263870D01*
X168797994Y-114260419D01*
X168819011Y-114257735D01*
X168840748Y-114255818D01*
X168863207Y-114254667D01*
X168886387Y-114254284D01*
X168909572Y-114254667D01*
X168932048Y-114255818D01*
X168953814Y-114257735D01*
X168974871Y-114260419D01*
X168995218Y-114263870D01*
X169014856Y-114268087D01*
X169033784Y-114273072D01*
X169052003Y-114278823D01*
X169069512Y-114285342D01*
X169086312Y-114292627D01*
X169102402Y-114300679D01*
X169117783Y-114309498D01*
X169132454Y-114319084D01*
X169146415Y-114329436D01*
X169159667Y-114340556D01*
X169172210Y-114352442D01*
X169184043Y-114365096D01*
X169192564Y-114375591D01*
X169200689Y-114386934D01*
X169208417Y-114399124D01*
X169215749Y-114412161D01*
X169222685Y-114426046D01*
X169229224Y-114440778D01*
X169235368Y-114456357D01*
X169241114Y-114472784D01*
X169246465Y-114490058D01*
X169251419Y-114508179D01*
X169480046Y-115434989D01*
X169491689Y-115421978D01*
X169502994Y-115408649D01*
X169513962Y-115395001D01*
X169524593Y-115381035D01*
X169534886Y-115366750D01*
X169544842Y-115352147D01*
X169554460Y-115337225D01*
X169563740Y-115321985D01*
X169572684Y-115306426D01*
X169581289Y-115290548D01*
X169589558Y-115274352D01*
X169597488Y-115257837D01*
X169605082Y-115241004D01*
X169612337Y-115223852D01*
X169619256Y-115206382D01*
X169625837Y-115188593D01*
X169632080Y-115170485D01*
X169637986Y-115152059D01*
X169643554Y-115133315D01*
X169648785Y-115114252D01*
X169653679Y-115094870D01*
X169658234Y-115075170D01*
X169662453Y-115055151D01*
X169666334Y-115034813D01*
X169669878Y-115014157D01*
X169673084Y-114993183D01*
X169675952Y-114971890D01*
X169678483Y-114950278D01*
X169680677Y-114928348D01*
X169682533Y-114906099D01*
X169684052Y-114883532D01*
X169685233Y-114860646D01*
X169686077Y-114837442D01*
X169686583Y-114813919D01*
X169686751Y-114790077D01*
X169686583Y-114766234D01*
X169686077Y-114742710D01*
X169685233Y-114719504D01*
X169684052Y-114696617D01*
X169682533Y-114674049D01*
X169680677Y-114651799D01*
X169678483Y-114629868D01*
X169675952Y-114608255D01*
X169673084Y-114586961D01*
X169669878Y-114565986D01*
X169666334Y-114545329D01*
X169662453Y-114524991D01*
X169658234Y-114504971D01*
X169653679Y-114485270D01*
X169648785Y-114465887D01*
X169643554Y-114446823D01*
X169637986Y-114428078D01*
X169632080Y-114409652D01*
X169625837Y-114391543D01*
X169619256Y-114373754D01*
X169612337Y-114356283D01*
X169605082Y-114339131D01*
X169597488Y-114322297D01*
X169589558Y-114305782D01*
X169581289Y-114289585D01*
X169572684Y-114273707D01*
X169563740Y-114258148D01*
X169554460Y-114242907D01*
X169544842Y-114227985D01*
X169534886Y-114213382D01*
X169524593Y-114199097D01*
X169513962Y-114185130D01*
X169502994Y-114171483D01*
X169491689Y-114158153D01*
X169480046Y-114145143D01*
X169467354Y-114131719D01*
X169454334Y-114118709D01*
X169440987Y-114106111D01*
X169427311Y-114093927D01*
X169413308Y-114082155D01*
X169398976Y-114070797D01*
X169384316Y-114059851D01*
X169369329Y-114049319D01*
X169354013Y-114039200D01*
X169338370Y-114029493D01*
X169322398Y-114020200D01*
X169306098Y-114011320D01*
X169289471Y-114002853D01*
X169272515Y-113994798D01*
X169255232Y-113987157D01*
X169237620Y-113979929D01*
X169219681Y-113973114D01*
X169201413Y-113966712D01*
X169182818Y-113960723D01*
X169163894Y-113955147D01*
X169144643Y-113949984D01*
X169125063Y-113945234D01*
X169105155Y-113940897D01*
X169084920Y-113936974D01*
X169064356Y-113933463D01*
X169043465Y-113930365D01*
X169022245Y-113927680D01*
X169000698Y-113925409D01*
X168978822Y-113923550D01*
X168956619Y-113922104D01*
X168934087Y-113921072D01*
X168911228Y-113920452D01*
X168888040Y-113920246D01*
X168864754Y-113920452D01*
X168841799Y-113921072D01*
X168819175Y-113922104D01*
X168796882Y-113923550D01*
X168774920Y-113925409D01*
X168753289Y-113927680D01*
X168731989Y-113930365D01*
X168711020Y-113933463D01*
X168690382Y-113936974D01*
X168670075Y-113940897D01*
X168650099Y-113945234D01*
X168630454Y-113949984D01*
X168611141Y-113955147D01*
X168592158Y-113960723D01*
X168573506Y-113966712D01*
X168555185Y-113973114D01*
X168537196Y-113979929D01*
X168519537Y-113987157D01*
X168502209Y-113994798D01*
X168485213Y-114002853D01*
X168468547Y-114011320D01*
X168452213Y-114020200D01*
X168436209Y-114029493D01*
X168420537Y-114039200D01*
X168405196Y-114049319D01*
X168390185Y-114059851D01*
X168375506Y-114070797D01*
X168361158Y-114082155D01*
X168347140Y-114093927D01*
X168333454Y-114106111D01*
X168320099Y-114118709D01*
X168307075Y-114131719D01*
X168294381Y-114145143D01*
X168282738Y-114158153D01*
X168271433Y-114171483D01*
X168260465Y-114185130D01*
X168249834Y-114199097D01*
X168239541Y-114213382D01*
X168229586Y-114227985D01*
X168219967Y-114242907D01*
X168210687Y-114258148D01*
X168201744Y-114273707D01*
X168193138Y-114289585D01*
X168184870Y-114305782D01*
X168176939Y-114322297D01*
X168169346Y-114339131D01*
X168162090Y-114356283D01*
X168155172Y-114373754D01*
X168148591Y-114391543D01*
X168142347Y-114409652D01*
X168136441Y-114428078D01*
X168130873Y-114446823D01*
X168125642Y-114465887D01*
X168120749Y-114485270D01*
X168116193Y-114504971D01*
X168111974Y-114524991D01*
X168108093Y-114545329D01*
X168104550Y-114565986D01*
X168101344Y-114586961D01*
X168098475Y-114608255D01*
X168095944Y-114629868D01*
X168093750Y-114651799D01*
X168091894Y-114674049D01*
X168090376Y-114696617D01*
X168089194Y-114719504D01*
X168088351Y-114742710D01*
X168087845Y-114766234D01*
X168087676Y-114790077D01*
X168087845Y-114813919D01*
X168088351Y-114837442D01*
X168089194Y-114860646D01*
X168090376Y-114883532D01*
X168091894Y-114906099D01*
X168093750Y-114928348D01*
X168095944Y-114950278D01*
X168098475Y-114971890D01*
X168101344Y-114993183D01*
X168104550Y-115014157D01*
X168108093Y-115034813D01*
X168111974Y-115055151D01*
X168116193Y-115075170D01*
X168120749Y-115094870D01*
X168125642Y-115114252D01*
X168130873Y-115133315D01*
X168136441Y-115152059D01*
X168142347Y-115170485D01*
X168148591Y-115188593D01*
X168155172Y-115206382D01*
X168162090Y-115223852D01*
X168169346Y-115241004D01*
X168176939Y-115257837D01*
X168184870Y-115274352D01*
X168193138Y-115290548D01*
X168201744Y-115306426D01*
X168210687Y-115321985D01*
X168219967Y-115337225D01*
X168229586Y-115352147D01*
X168239541Y-115366750D01*
X168249834Y-115381035D01*
X168260465Y-115395001D01*
X168271433Y-115408649D01*
X168282738Y-115421978D01*
X168294381Y-115434989D01*
X168307075Y-115448412D01*
X168320099Y-115461423D01*
X168333454Y-115474020D01*
X168347140Y-115486205D01*
X168361158Y-115497976D01*
X168375506Y-115509335D01*
X168390185Y-115520280D01*
X168405196Y-115530813D01*
X168420537Y-115540932D01*
X168436209Y-115550638D01*
X168452213Y-115559932D01*
X168468547Y-115568812D01*
X168485213Y-115577279D01*
X168502209Y-115585333D01*
X168519537Y-115592974D01*
X168537196Y-115600202D01*
X168555185Y-115607018D01*
X168573506Y-115613420D01*
X168592158Y-115619409D01*
X168611141Y-115624985D01*
X168630454Y-115630147D01*
X168650099Y-115634897D01*
X168670075Y-115639234D01*
X168690382Y-115643158D01*
X168711020Y-115646669D01*
X168731989Y-115649767D01*
X168753289Y-115652451D01*
X168774920Y-115654723D01*
X168796882Y-115656582D01*
X168819175Y-115658027D01*
X168841799Y-115659060D01*
X168864754Y-115659679D01*
X168888040Y-115659886D01*
X168911228Y-115659679D01*
X168934087Y-115659060D01*
X168956619Y-115658027D01*
X168978822Y-115656582D01*
X169000698Y-115654723D01*
X169022245Y-115652451D01*
X169043465Y-115649767D01*
X169064356Y-115646669D01*
X169084920Y-115643158D01*
X169105155Y-115639234D01*
X169125063Y-115634897D01*
X169144643Y-115630147D01*
X169163894Y-115624985D01*
X169182818Y-115619409D01*
X169201413Y-115613420D01*
X169219681Y-115607018D01*
X169237620Y-115600202D01*
X169255232Y-115592974D01*
X169272515Y-115585333D01*
X169289471Y-115577279D01*
X169306098Y-115568812D01*
X169322398Y-115559932D01*
X169338370Y-115550638D01*
X169354013Y-115540932D01*
X169369329Y-115530813D01*
X169384316Y-115520280D01*
X169398976Y-115509335D01*
X169413308Y-115497976D01*
X169427311Y-115486205D01*
X169440987Y-115474020D01*
X169454334Y-115461423D01*
X169467354Y-115448412D01*
X169480046Y-115434989D01*
X169480046Y-115434989D01*
G37*
G36*
X167651113Y-115633425D02*
X167651113Y-113300147D01*
X167244317Y-113300147D01*
X167244317Y-115633425D01*
X167651113Y-115633425D01*
X167651113Y-115633425D01*
G37*
G36*
X166877207Y-113943410D02*
X166445606Y-113943410D01*
X166066921Y-115122445D01*
X165694850Y-113943410D01*
X165264902Y-113943410D01*
X165908171Y-115674765D01*
X165917550Y-115699910D01*
X165926984Y-115724480D01*
X165936473Y-115748477D01*
X165946018Y-115771899D01*
X165955617Y-115794748D01*
X165965272Y-115817022D01*
X165974981Y-115838722D01*
X165984746Y-115859848D01*
X165994565Y-115880399D01*
X166004440Y-115900377D01*
X166014370Y-115919781D01*
X166024355Y-115938610D01*
X166034394Y-115956865D01*
X166044489Y-115974546D01*
X166054639Y-115991653D01*
X166064844Y-116008186D01*
X166075104Y-116024145D01*
X166085419Y-116039529D01*
X166095790Y-116054340D01*
X166106215Y-116068576D01*
X166116695Y-116082238D01*
X166127231Y-116095326D01*
X166137821Y-116107840D01*
X166148466Y-116119780D01*
X166159167Y-116131145D01*
X166169923Y-116141937D01*
X166180733Y-116152154D01*
X166191599Y-116161797D01*
X166202520Y-116170866D01*
X166220194Y-116184800D01*
X166237940Y-116197938D01*
X166255758Y-116210279D01*
X166273647Y-116221824D01*
X166291607Y-116232573D01*
X166309639Y-116242526D01*
X166327742Y-116251682D01*
X166345917Y-116260042D01*
X166364163Y-116267606D01*
X166382481Y-116274374D01*
X166400870Y-116280346D01*
X166419331Y-116285521D01*
X166437863Y-116289900D01*
X166456466Y-116293483D01*
X166475141Y-116296270D01*
X166493888Y-116298261D01*
X166512706Y-116299455D01*
X166531595Y-116299853D01*
X166550959Y-116299579D01*
X166570382Y-116298757D01*
X166589864Y-116297387D01*
X166609404Y-116295469D01*
X166629004Y-116293003D01*
X166648661Y-116289989D01*
X166668378Y-116286427D01*
X166688153Y-116282317D01*
X166707987Y-116277659D01*
X166727880Y-116272452D01*
X166747831Y-116266698D01*
X166767841Y-116260396D01*
X166787910Y-116253546D01*
X166787910Y-115914541D01*
X166768430Y-115922395D01*
X166749016Y-115929423D01*
X166729669Y-115935624D01*
X166710387Y-115940998D01*
X166691172Y-115945546D01*
X166672023Y-115949266D01*
X166652940Y-115952160D01*
X166633923Y-115954227D01*
X166614972Y-115955467D01*
X166596087Y-115955881D01*
X166584028Y-115955393D01*
X166572028Y-115953930D01*
X166560087Y-115951492D01*
X166548204Y-115948078D01*
X166536381Y-115943690D01*
X166524617Y-115938326D01*
X166512911Y-115931986D01*
X166501265Y-115924672D01*
X166489678Y-115916382D01*
X166478150Y-115907117D01*
X166466680Y-115896877D01*
X166455270Y-115885661D01*
X166443918Y-115873470D01*
X166432626Y-115860304D01*
X166421393Y-115846162D01*
X166410218Y-115831046D01*
X166399103Y-115814953D01*
X166388046Y-115797886D01*
X166377049Y-115779844D01*
X166366111Y-115760826D01*
X166355231Y-115740833D01*
X166344411Y-115719864D01*
X166333649Y-115697921D01*
X166322947Y-115675002D01*
X166312303Y-115651107D01*
X166301719Y-115626238D01*
X166291193Y-115600393D01*
X166280727Y-115573573D01*
X166270319Y-115545778D01*
X166877207Y-113943410D01*
X166877207Y-113943410D01*
G37*
G36*
X165030085Y-114444456D02*
X165029747Y-114422538D01*
X165028734Y-114401069D01*
X165027046Y-114380050D01*
X165024683Y-114359482D01*
X165021645Y-114339363D01*
X165017931Y-114319695D01*
X165013542Y-114300477D01*
X165008478Y-114281709D01*
X165002739Y-114263391D01*
X164996324Y-114245523D01*
X164989234Y-114228105D01*
X164981469Y-114211137D01*
X164973029Y-114194620D01*
X164963914Y-114178552D01*
X164954123Y-114162935D01*
X164943657Y-114147768D01*
X164932516Y-114133050D01*
X164920700Y-114118783D01*
X164908209Y-114104966D01*
X164895042Y-114091600D01*
X164881200Y-114078683D01*
X164866683Y-114066216D01*
X164851491Y-114054200D01*
X164836318Y-114043000D01*
X164820841Y-114032278D01*
X164805060Y-114022032D01*
X164788974Y-114012262D01*
X164772584Y-114002969D01*
X164755889Y-113994153D01*
X164738891Y-113985813D01*
X164721588Y-113977949D01*
X164703980Y-113970563D01*
X164686069Y-113963652D01*
X164667853Y-113957219D01*
X164649333Y-113951262D01*
X164630508Y-113945781D01*
X164611379Y-113940777D01*
X164591946Y-113936250D01*
X164572208Y-113932199D01*
X164552167Y-113928625D01*
X164531820Y-113925527D01*
X164511170Y-113922906D01*
X164490215Y-113920762D01*
X164468956Y-113919094D01*
X164447393Y-113917902D01*
X164425525Y-113917188D01*
X164403353Y-113916949D01*
X164382478Y-113917159D01*
X164361748Y-113917788D01*
X164341160Y-113918836D01*
X164320717Y-113920303D01*
X164300416Y-113922189D01*
X164280260Y-113924494D01*
X164260246Y-113927219D01*
X164240377Y-113930363D01*
X164220651Y-113933926D01*
X164201068Y-113937908D01*
X164181629Y-113942310D01*
X164162334Y-113947130D01*
X164143182Y-113952370D01*
X164124174Y-113958029D01*
X164105309Y-113964107D01*
X164086588Y-113970604D01*
X164068010Y-113977521D01*
X164049576Y-113984856D01*
X164031285Y-113992611D01*
X164013138Y-114000785D01*
X163995135Y-114009378D01*
X163977275Y-114018390D01*
X163959559Y-114027822D01*
X163941986Y-114037673D01*
X163941986Y-114346898D01*
X163959299Y-114338997D01*
X163976845Y-114331502D01*
X163994621Y-114324412D01*
X164012629Y-114317726D01*
X164030869Y-114311447D01*
X164049340Y-114305572D01*
X164068043Y-114300102D01*
X164086977Y-114295038D01*
X164106143Y-114290378D01*
X164125540Y-114286124D01*
X164145169Y-114282275D01*
X164165029Y-114278831D01*
X164185121Y-114275793D01*
X164205444Y-114273159D01*
X164225999Y-114270931D01*
X164246786Y-114269107D01*
X164267803Y-114267689D01*
X164289053Y-114266677D01*
X164310534Y-114266069D01*
X164332246Y-114265866D01*
X164359304Y-114266189D01*
X164385043Y-114267156D01*
X164409461Y-114268769D01*
X164432560Y-114271026D01*
X164454338Y-114273928D01*
X164474797Y-114277476D01*
X164493936Y-114281668D01*
X164511755Y-114286505D01*
X164528254Y-114291988D01*
X164543433Y-114298115D01*
X164557292Y-114304887D01*
X164569831Y-114312305D01*
X164581050Y-114320367D01*
X164590950Y-114329074D01*
X164599529Y-114338426D01*
X164606789Y-114348423D01*
X164612728Y-114359065D01*
X164617348Y-114370353D01*
X164620648Y-114382285D01*
X164622628Y-114394862D01*
X164623288Y-114408084D01*
X164621996Y-114425393D01*
X164618120Y-114441773D01*
X164611661Y-114457222D01*
X164602617Y-114471742D01*
X164590990Y-114485331D01*
X164576779Y-114497991D01*
X164559984Y-114509721D01*
X164540605Y-114520521D01*
X164525272Y-114527669D01*
X164509337Y-114534681D01*
X164492800Y-114541556D01*
X164475662Y-114548295D01*
X164457923Y-114554897D01*
X164439583Y-114561363D01*
X164420641Y-114567691D01*
X164401098Y-114573884D01*
X164380953Y-114579939D01*
X164360208Y-114585858D01*
X164338861Y-114591641D01*
X164319028Y-114596761D01*
X164299219Y-114602204D01*
X164279433Y-114607968D01*
X164259669Y-114614053D01*
X164239929Y-114620461D01*
X164220212Y-114627190D01*
X164200517Y-114634241D01*
X164180846Y-114641613D01*
X164161197Y-114649307D01*
X164141572Y-114657323D01*
X164121969Y-114665661D01*
X164102389Y-114674321D01*
X164085566Y-114682014D01*
X164069114Y-114690449D01*
X164053033Y-114699627D01*
X164037323Y-114709548D01*
X164021985Y-114720211D01*
X164007018Y-114731616D01*
X163992422Y-114743764D01*
X163978197Y-114756655D01*
X163964344Y-114770288D01*
X163950861Y-114784664D01*
X163937750Y-114799782D01*
X163925010Y-114815643D01*
X163912642Y-114832246D01*
X163900644Y-114849592D01*
X163891014Y-114864420D01*
X163881968Y-114879717D01*
X163873505Y-114895482D01*
X163865626Y-114911717D01*
X163858331Y-114928421D01*
X163851619Y-114945594D01*
X163845491Y-114963236D01*
X163839946Y-114981348D01*
X163834985Y-114999928D01*
X163830608Y-115018977D01*
X163826814Y-115038495D01*
X163823604Y-115058483D01*
X163820978Y-115078939D01*
X163818935Y-115099864D01*
X163817476Y-115121259D01*
X163816600Y-115143123D01*
X163816309Y-115165455D01*
X163816702Y-115185606D01*
X163817883Y-115205427D01*
X163819852Y-115224918D01*
X163822608Y-115244079D01*
X163826152Y-115262910D01*
X163830483Y-115281411D01*
X163835601Y-115299582D01*
X163841507Y-115317424D01*
X163848200Y-115334935D01*
X163855681Y-115352117D01*
X163863949Y-115368968D01*
X163873005Y-115385490D01*
X163882848Y-115401682D01*
X163893479Y-115417544D01*
X163904897Y-115433076D01*
X163917102Y-115448278D01*
X163930095Y-115463150D01*
X163943876Y-115477692D01*
X163958443Y-115491904D01*
X163973799Y-115505787D01*
X163989941Y-115519339D01*
X164004468Y-115530807D01*
X164019385Y-115541788D01*
X164034693Y-115552280D01*
X164050391Y-115562284D01*
X164066480Y-115571800D01*
X164082959Y-115580828D01*
X164099828Y-115589369D01*
X164117088Y-115597421D01*
X164134739Y-115604985D01*
X164152780Y-115612061D01*
X164171211Y-115618649D01*
X164190033Y-115624749D01*
X164209245Y-115630361D01*
X164228847Y-115635485D01*
X164248840Y-115640122D01*
X164269224Y-115644270D01*
X164289998Y-115647930D01*
X164311162Y-115651102D01*
X164332717Y-115653786D01*
X164354662Y-115655982D01*
X164376998Y-115657690D01*
X164399724Y-115658910D01*
X164422841Y-115659642D01*
X164446348Y-115659886D01*
X164467077Y-115659709D01*
X164487689Y-115659177D01*
X164508182Y-115658291D01*
X164528557Y-115657051D01*
X164548815Y-115655457D01*
X164568954Y-115653508D01*
X164588975Y-115651205D01*
X164608877Y-115648547D01*
X164628662Y-115645535D01*
X164648329Y-115642169D01*
X164667877Y-115638449D01*
X164687307Y-115634374D01*
X164706620Y-115629945D01*
X164725814Y-115625161D01*
X164744890Y-115620023D01*
X164763848Y-115614531D01*
X164782687Y-115608685D01*
X164801409Y-115602484D01*
X164820013Y-115595929D01*
X164838498Y-115589019D01*
X164856865Y-115581756D01*
X164875114Y-115574137D01*
X164893245Y-115566165D01*
X164911258Y-115557838D01*
X164929153Y-115549157D01*
X164946930Y-115540121D01*
X164964588Y-115530732D01*
X164982129Y-115520987D01*
X164982129Y-115158840D01*
X164964219Y-115170508D01*
X164946209Y-115181701D01*
X164928098Y-115192417D01*
X164909887Y-115202656D01*
X164891575Y-115212420D01*
X164873163Y-115221707D01*
X164854650Y-115230518D01*
X164836037Y-115238852D01*
X164817323Y-115246711D01*
X164798508Y-115254093D01*
X164779593Y-115260999D01*
X164760577Y-115267428D01*
X164741461Y-115273382D01*
X164722245Y-115278859D01*
X164702927Y-115283859D01*
X164683510Y-115288384D01*
X164663991Y-115292432D01*
X164644372Y-115296004D01*
X164624653Y-115299100D01*
X164604833Y-115301719D01*
X164584913Y-115303862D01*
X164564892Y-115305529D01*
X164544770Y-115306720D01*
X164524548Y-115307434D01*
X164504225Y-115307673D01*
X164475861Y-115307397D01*
X164449196Y-115306570D01*
X164424230Y-115305192D01*
X164400964Y-115303262D01*
X164379398Y-115300782D01*
X164359531Y-115297750D01*
X164341364Y-115294166D01*
X164324897Y-115290032D01*
X164310129Y-115285346D01*
X164297060Y-115280109D01*
X164285691Y-115274321D01*
X164276022Y-115267981D01*
X164263620Y-115257026D01*
X164252871Y-115244830D01*
X164243776Y-115231394D01*
X164236335Y-115216718D01*
X164230547Y-115200801D01*
X164226413Y-115183644D01*
X164223932Y-115165247D01*
X164223105Y-115145609D01*
X164224147Y-115129440D01*
X164227270Y-115114005D01*
X164232476Y-115099305D01*
X164239764Y-115085339D01*
X164249135Y-115072109D01*
X164260588Y-115059613D01*
X164274123Y-115047852D01*
X164289741Y-115036826D01*
X164307441Y-115026534D01*
X164322775Y-115018228D01*
X164338710Y-115010140D01*
X164355247Y-115002270D01*
X164372385Y-114994619D01*
X164390124Y-114987186D01*
X164408464Y-114979972D01*
X164427406Y-114972975D01*
X164446949Y-114966197D01*
X164467093Y-114959638D01*
X164487839Y-114953296D01*
X164509186Y-114947173D01*
X164528766Y-114941305D01*
X164548368Y-114935277D01*
X164567994Y-114929087D01*
X164587642Y-114922737D01*
X164607314Y-114916225D01*
X164627008Y-114909553D01*
X164646726Y-114902720D01*
X164666466Y-114895726D01*
X164686230Y-114888571D01*
X164706016Y-114881256D01*
X164725825Y-114873779D01*
X164745658Y-114866142D01*
X164763525Y-114858665D01*
X164781001Y-114850485D01*
X164798085Y-114841600D01*
X164814778Y-114832010D01*
X164831080Y-114821717D01*
X164846990Y-114810719D01*
X164862509Y-114799017D01*
X164877636Y-114786610D01*
X164892372Y-114773499D01*
X164906717Y-114759684D01*
X164920670Y-114745165D01*
X164934232Y-114729941D01*
X164947402Y-114714013D01*
X164958059Y-114699438D01*
X164967981Y-114684378D01*
X164977168Y-114668833D01*
X164985620Y-114652802D01*
X164993337Y-114636287D01*
X165000319Y-114619287D01*
X165006566Y-114601802D01*
X165012078Y-114583831D01*
X165016856Y-114565376D01*
X165020898Y-114546435D01*
X165024205Y-114527010D01*
X165026777Y-114507099D01*
X165028615Y-114486703D01*
X165029717Y-114465822D01*
X165030085Y-114444456D01*
X165030085Y-114444456D01*
G37*
G36*
X163559993Y-114292327D02*
X163559993Y-113943410D01*
X163275566Y-113943410D01*
X163275566Y-113442342D01*
X162868770Y-113442342D01*
X162868770Y-113943410D01*
X162468587Y-113943410D01*
X162468587Y-114292327D01*
X162868770Y-114292327D01*
X162868770Y-115125763D01*
X162868072Y-115151937D01*
X162865979Y-115175889D01*
X162862491Y-115197618D01*
X162857607Y-115217124D01*
X162851329Y-115234408D01*
X162843655Y-115249470D01*
X162834586Y-115262309D01*
X162824121Y-115272925D01*
X162812974Y-115280910D01*
X162800113Y-115287955D01*
X162785536Y-115294061D01*
X162769245Y-115299227D01*
X162751238Y-115303454D01*
X162731517Y-115306742D01*
X162710081Y-115309090D01*
X162686930Y-115310499D01*
X162662064Y-115310969D01*
X162640484Y-115310605D01*
X162619400Y-115309514D01*
X162598812Y-115307695D01*
X162578720Y-115305149D01*
X162559124Y-115301876D01*
X162540025Y-115297875D01*
X162521421Y-115293146D01*
X162503314Y-115287690D01*
X162485702Y-115281507D01*
X162468587Y-115274596D01*
X162468587Y-115610283D01*
X162487032Y-115617620D01*
X162505731Y-115624371D01*
X162524684Y-115630535D01*
X162543892Y-115636112D01*
X162563354Y-115641101D01*
X162583070Y-115645504D01*
X162603041Y-115649320D01*
X162623267Y-115652548D01*
X162643746Y-115655190D01*
X162664481Y-115657244D01*
X162685469Y-115658712D01*
X162706712Y-115659592D01*
X162728210Y-115659886D01*
X162736478Y-115659886D01*
X162759106Y-115659578D01*
X162781290Y-115658656D01*
X162803030Y-115657118D01*
X162824326Y-115654966D01*
X162845177Y-115652198D01*
X162865585Y-115648816D01*
X162885548Y-115644818D01*
X162905067Y-115640206D01*
X162924142Y-115634978D01*
X162942773Y-115629135D01*
X162960960Y-115622678D01*
X162978702Y-115615605D01*
X162996001Y-115607917D01*
X163012855Y-115599615D01*
X163029265Y-115590697D01*
X163045231Y-115581165D01*
X163060753Y-115571017D01*
X163075830Y-115560254D01*
X163090464Y-115548876D01*
X163104653Y-115536884D01*
X163118398Y-115524276D01*
X163131699Y-115511053D01*
X163143937Y-115497901D01*
X163155631Y-115484323D01*
X163166782Y-115470320D01*
X163177388Y-115455891D01*
X163187451Y-115441037D01*
X163196969Y-115425758D01*
X163205944Y-115410054D01*
X163214375Y-115393925D01*
X163222262Y-115377370D01*
X163229605Y-115360390D01*
X163236404Y-115342985D01*
X163242659Y-115325154D01*
X163248370Y-115306898D01*
X163253537Y-115288217D01*
X163258161Y-115269111D01*
X163262240Y-115249579D01*
X163265776Y-115229622D01*
X163268767Y-115209240D01*
X163271215Y-115188433D01*
X163273119Y-115167200D01*
X163274478Y-115145542D01*
X163275294Y-115123459D01*
X163275566Y-115100950D01*
X163275566Y-114292327D01*
X163559993Y-114292327D01*
X163559993Y-114292327D01*
X163559993Y-114292327D01*
G37*
G36*
X162147780Y-115081105D02*
X161745945Y-115029853D01*
X161745538Y-115048879D01*
X161744317Y-115067213D01*
X161742281Y-115084855D01*
X161739432Y-115101805D01*
X161735768Y-115118064D01*
X161731290Y-115133630D01*
X161725998Y-115148505D01*
X161719892Y-115162688D01*
X161712971Y-115176179D01*
X161705237Y-115188978D01*
X161696688Y-115201085D01*
X161687325Y-115212501D01*
X161677148Y-115223224D01*
X161666157Y-115233256D01*
X161654351Y-115242596D01*
X161641732Y-115251244D01*
X161628298Y-115259201D01*
X161614050Y-115266465D01*
X161598988Y-115273037D01*
X161583112Y-115278918D01*
X161566421Y-115284107D01*
X161548917Y-115288604D01*
X161530598Y-115292409D01*
X161511465Y-115295523D01*
X161491518Y-115297944D01*
X161470756Y-115299674D01*
X161449181Y-115300711D01*
X161426791Y-115301057D01*
X161423484Y-115301057D01*
X161401363Y-115300706D01*
X161380076Y-115299651D01*
X161359624Y-115297893D01*
X161340008Y-115295432D01*
X161321225Y-115292267D01*
X161303278Y-115288399D01*
X161286165Y-115283828D01*
X161269887Y-115278554D01*
X161254444Y-115272577D01*
X161239836Y-115265896D01*
X161226062Y-115258512D01*
X161213124Y-115250425D01*
X161201020Y-115241635D01*
X161189750Y-115232141D01*
X161179316Y-115221945D01*
X161169716Y-115211045D01*
X161160951Y-115199441D01*
X161153021Y-115187135D01*
X161145925Y-115174125D01*
X161139664Y-115160412D01*
X161134238Y-115145996D01*
X161129647Y-115130877D01*
X161125891Y-115115054D01*
X161122969Y-115098529D01*
X161120882Y-115081300D01*
X161119630Y-115063367D01*
X161119213Y-115044732D01*
X161119213Y-114831417D01*
X161142628Y-114828233D01*
X161165469Y-114825302D01*
X161187736Y-114822626D01*
X161209428Y-114820203D01*
X161230547Y-114818035D01*
X161251091Y-114816121D01*
X161271061Y-114814460D01*
X161290457Y-114813054D01*
X161309279Y-114811901D01*
X161327526Y-114811003D01*
X161345200Y-114810358D01*
X161362299Y-114809968D01*
X161388191Y-114810230D01*
X161413178Y-114811014D01*
X161437261Y-114812322D01*
X161460440Y-114814152D01*
X161482714Y-114816506D01*
X161504084Y-114819382D01*
X161524549Y-114822782D01*
X161544109Y-114826705D01*
X161562765Y-114831150D01*
X161580517Y-114836119D01*
X161597364Y-114841611D01*
X161613307Y-114847626D01*
X161628345Y-114854163D01*
X161642479Y-114861224D01*
X161655708Y-114868808D01*
X161668033Y-114876915D01*
X161679453Y-114885545D01*
X161689968Y-114894697D01*
X161699580Y-114904373D01*
X161708286Y-114914572D01*
X161716089Y-114925294D01*
X161722986Y-114936539D01*
X161728979Y-114948307D01*
X161734068Y-114960598D01*
X161738252Y-114973412D01*
X161741532Y-114986749D01*
X161743908Y-115000609D01*
X161745378Y-115014992D01*
X161745945Y-115029898D01*
X161745945Y-115029853D01*
X162147780Y-115081105D01*
X162147383Y-115060537D01*
X162146192Y-115039836D01*
X162144208Y-115019001D01*
X162141431Y-114998033D01*
X162137859Y-114976931D01*
X162134383Y-114960799D01*
X162129624Y-114943588D01*
X162123583Y-114925296D01*
X162116260Y-114905924D01*
X162107654Y-114885472D01*
X162097766Y-114863940D01*
X162086596Y-114841329D01*
X162076674Y-114823567D01*
X162066017Y-114806295D01*
X162054626Y-114789513D01*
X162042499Y-114773221D01*
X162029637Y-114757419D01*
X162016041Y-114742107D01*
X162001709Y-114727285D01*
X161986642Y-114712953D01*
X161970841Y-114699111D01*
X161958232Y-114689040D01*
X161944658Y-114679221D01*
X161930120Y-114669656D01*
X161914617Y-114660343D01*
X161898149Y-114651282D01*
X161880717Y-114642475D01*
X161862320Y-114633920D01*
X161842959Y-114625618D01*
X161822633Y-114617569D01*
X161801342Y-114609772D01*
X161779087Y-114602228D01*
X161755867Y-114594937D01*
X161738958Y-114589840D01*
X161721695Y-114585052D01*
X161704077Y-114580573D01*
X161686105Y-114576403D01*
X161667777Y-114572542D01*
X161649095Y-114568990D01*
X161630058Y-114565746D01*
X161610667Y-114562812D01*
X161590920Y-114560186D01*
X161570819Y-114557869D01*
X161550363Y-114555861D01*
X161529552Y-114554162D01*
X161508387Y-114552772D01*
X161486866Y-114551691D01*
X161464991Y-114550919D01*
X161442761Y-114550456D01*
X161420177Y-114550301D01*
X161401568Y-114550404D01*
X161382782Y-114550712D01*
X161363821Y-114551227D01*
X161344682Y-114551947D01*
X161325368Y-114552872D01*
X161305877Y-114554004D01*
X161286210Y-114555341D01*
X161266366Y-114556884D01*
X161246346Y-114558632D01*
X161226149Y-114560587D01*
X161205776Y-114562746D01*
X161185227Y-114565112D01*
X161164501Y-114567683D01*
X161143599Y-114570461D01*
X161122521Y-114573443D01*
X161122850Y-114554393D01*
X161123839Y-114535930D01*
X161125486Y-114518052D01*
X161127793Y-114500761D01*
X161130758Y-114484055D01*
X161134383Y-114467936D01*
X161138667Y-114452403D01*
X161143610Y-114437456D01*
X161149211Y-114423095D01*
X161155472Y-114409321D01*
X161162392Y-114396132D01*
X161169971Y-114383530D01*
X161178209Y-114371514D01*
X161187105Y-114360084D01*
X161196661Y-114349240D01*
X161206876Y-114338983D01*
X161217750Y-114329311D01*
X161229283Y-114320226D01*
X161241475Y-114311727D01*
X161254326Y-114303814D01*
X161267836Y-114296487D01*
X161282006Y-114289746D01*
X161296834Y-114283591D01*
X161312321Y-114278023D01*
X161328467Y-114273041D01*
X161345272Y-114268645D01*
X161362737Y-114264835D01*
X161380860Y-114261611D01*
X161399642Y-114258973D01*
X161419083Y-114256922D01*
X161439184Y-114255456D01*
X161459943Y-114254577D01*
X161481362Y-114254284D01*
X161503997Y-114254421D01*
X161526394Y-114254834D01*
X161548553Y-114255522D01*
X161570473Y-114256485D01*
X161592156Y-114257724D01*
X161613600Y-114259237D01*
X161634807Y-114261026D01*
X161655775Y-114263090D01*
X161676505Y-114265429D01*
X161696997Y-114268044D01*
X161717251Y-114270933D01*
X161737267Y-114274098D01*
X161757044Y-114277538D01*
X161776584Y-114281253D01*
X161795885Y-114285243D01*
X161814948Y-114289509D01*
X161833774Y-114294050D01*
X161852361Y-114298866D01*
X161870709Y-114303957D01*
X161888820Y-114309323D01*
X161906693Y-114314965D01*
X161924327Y-114320881D01*
X161941724Y-114327073D01*
X161958882Y-114333540D01*
X161975802Y-114340283D01*
X161975802Y-114011211D01*
X161957790Y-114004100D01*
X161939627Y-113997267D01*
X161921312Y-113990714D01*
X161902846Y-113984439D01*
X161884228Y-113978443D01*
X161865458Y-113972726D01*
X161846536Y-113967288D01*
X161827463Y-113962128D01*
X161808238Y-113957248D01*
X161788862Y-113952646D01*
X161769333Y-113948324D01*
X161749654Y-113944280D01*
X161729822Y-113940515D01*
X161709839Y-113937029D01*
X161689704Y-113933822D01*
X161669417Y-113930893D01*
X161648979Y-113928244D01*
X161628389Y-113925873D01*
X161607648Y-113923782D01*
X161586755Y-113921969D01*
X161565710Y-113920435D01*
X161544513Y-113919180D01*
X161523165Y-113918204D01*
X161501665Y-113917507D01*
X161480014Y-113917089D01*
X161458211Y-113916949D01*
X161434257Y-113917155D01*
X161410681Y-113917772D01*
X161387484Y-113918801D01*
X161364666Y-113920242D01*
X161342226Y-113922094D01*
X161320164Y-113924357D01*
X161298481Y-113927033D01*
X161277177Y-113930119D01*
X161256251Y-113933618D01*
X161235703Y-113937528D01*
X161215534Y-113941849D01*
X161195744Y-113946582D01*
X161176332Y-113951727D01*
X161157299Y-113957283D01*
X161138644Y-113963251D01*
X161120367Y-113969630D01*
X161102469Y-113976421D01*
X161084950Y-113983623D01*
X161067809Y-113991237D01*
X161051046Y-113999263D01*
X161034662Y-114007700D01*
X161018657Y-114016549D01*
X161003030Y-114025809D01*
X160987782Y-114035481D01*
X160972912Y-114045564D01*
X160958420Y-114056059D01*
X160944307Y-114066966D01*
X160930573Y-114078284D01*
X160917217Y-114090014D01*
X160904239Y-114102155D01*
X160891664Y-114114576D01*
X160879515Y-114127364D01*
X160867793Y-114140520D01*
X160856497Y-114154043D01*
X160845627Y-114167934D01*
X160835183Y-114182192D01*
X160825166Y-114196818D01*
X160815574Y-114211811D01*
X160806410Y-114227172D01*
X160797671Y-114242900D01*
X160789359Y-114258995D01*
X160781473Y-114275458D01*
X160774013Y-114292289D01*
X160766979Y-114309487D01*
X160760372Y-114327052D01*
X160754191Y-114344985D01*
X160748436Y-114363285D01*
X160743108Y-114381953D01*
X160738206Y-114400988D01*
X160733730Y-114420391D01*
X160729680Y-114440161D01*
X160726057Y-114460299D01*
X160722860Y-114480804D01*
X160720089Y-114501677D01*
X160717745Y-114522917D01*
X160715826Y-114544524D01*
X160714335Y-114566499D01*
X160713269Y-114588842D01*
X160712629Y-114611552D01*
X160712416Y-114634629D01*
X160712416Y-115091039D01*
X160712748Y-115111192D01*
X160713742Y-115131101D01*
X160715398Y-115150766D01*
X160717718Y-115170188D01*
X160720700Y-115189366D01*
X160724345Y-115208300D01*
X160728653Y-115226990D01*
X160733623Y-115245436D01*
X160739256Y-115263639D01*
X160745552Y-115281598D01*
X160752510Y-115299313D01*
X160760131Y-115316784D01*
X160768415Y-115334012D01*
X160777362Y-115350995D01*
X160786971Y-115367735D01*
X160797243Y-115384231D01*
X160808178Y-115400484D01*
X160819775Y-115416492D01*
X160832035Y-115432257D01*
X160844958Y-115447778D01*
X160858544Y-115463055D01*
X160872792Y-115478089D01*
X160887703Y-115492878D01*
X160899902Y-115504197D01*
X160912549Y-115515119D01*
X160925644Y-115525644D01*
X160939188Y-115535772D01*
X160953180Y-115545502D01*
X160967621Y-115554836D01*
X160982509Y-115563772D01*
X160997846Y-115572311D01*
X161013632Y-115580453D01*
X161029865Y-115588198D01*
X161046547Y-115595545D01*
X161063678Y-115602496D01*
X161081256Y-115609049D01*
X161099283Y-115615205D01*
X161117758Y-115620964D01*
X161136682Y-115626326D01*
X161156054Y-115631290D01*
X161175874Y-115635857D01*
X161196142Y-115640028D01*
X161216859Y-115643801D01*
X161238024Y-115647177D01*
X161259638Y-115650155D01*
X161281699Y-115652737D01*
X161304209Y-115654921D01*
X161327168Y-115656709D01*
X161350574Y-115658099D01*
X161374429Y-115659092D01*
X161398733Y-115659687D01*
X161423484Y-115659886D01*
X161448072Y-115659699D01*
X161472226Y-115659136D01*
X161495947Y-115658199D01*
X161519234Y-115656887D01*
X161542087Y-115655200D01*
X161564507Y-115653139D01*
X161586493Y-115650702D01*
X161608046Y-115647891D01*
X161629165Y-115644705D01*
X161649850Y-115641144D01*
X161670102Y-115637208D01*
X161689920Y-115632897D01*
X161709304Y-115628212D01*
X161728255Y-115623151D01*
X161746772Y-115617716D01*
X161764855Y-115611906D01*
X161782505Y-115605721D01*
X161799722Y-115599162D01*
X161816504Y-115592227D01*
X161832853Y-115584918D01*
X161848769Y-115577233D01*
X161864251Y-115569174D01*
X161879299Y-115560740D01*
X161893913Y-115551932D01*
X161908094Y-115542748D01*
X161921842Y-115533190D01*
X161935155Y-115523256D01*
X161948035Y-115512948D01*
X161960482Y-115502265D01*
X161972495Y-115491207D01*
X161987405Y-115476404D01*
X162001654Y-115461325D01*
X162015239Y-115445972D01*
X162028162Y-115430343D01*
X162040422Y-115414439D01*
X162052020Y-115398259D01*
X162062954Y-115381805D01*
X162073226Y-115365075D01*
X162082835Y-115348070D01*
X162091782Y-115330790D01*
X162100066Y-115313235D01*
X162107687Y-115295404D01*
X162114646Y-115277298D01*
X162120941Y-115258917D01*
X162126574Y-115240261D01*
X162131545Y-115221330D01*
X162135852Y-115202123D01*
X162139497Y-115182641D01*
X162142479Y-115162884D01*
X162144799Y-115142852D01*
X162146456Y-115122545D01*
X162147450Y-115101962D01*
X162147781Y-115081105D01*
X162147780Y-115081105D01*
X162147780Y-115081105D01*
G37*
G36*
X160355228Y-114790077D02*
X160355059Y-114766049D01*
X160354553Y-114742344D01*
X160353709Y-114718964D01*
X160352528Y-114695907D01*
X160351009Y-114673174D01*
X160349153Y-114650766D01*
X160346959Y-114628681D01*
X160344428Y-114606921D01*
X160341560Y-114585484D01*
X160338354Y-114564371D01*
X160334810Y-114543582D01*
X160330929Y-114523118D01*
X160326711Y-114502977D01*
X160322155Y-114483160D01*
X160317261Y-114463667D01*
X160312030Y-114444499D01*
X160306462Y-114425654D01*
X160300556Y-114407133D01*
X160294313Y-114388936D01*
X160287732Y-114371063D01*
X160280814Y-114353514D01*
X160273558Y-114336289D01*
X160265965Y-114319388D01*
X160258034Y-114302811D01*
X160249766Y-114286558D01*
X160241160Y-114270629D01*
X160232217Y-114255024D01*
X160222936Y-114239743D01*
X160213318Y-114224786D01*
X160203362Y-114210153D01*
X160193069Y-114195843D01*
X160182439Y-114181858D01*
X160171471Y-114168197D01*
X160160165Y-114154860D01*
X160148522Y-114141847D01*
X160135830Y-114128423D01*
X160122811Y-114115412D01*
X160109463Y-114102815D01*
X160095788Y-114090630D01*
X160081784Y-114078859D01*
X160067452Y-114067500D01*
X160052793Y-114056555D01*
X160037805Y-114046023D01*
X160022490Y-114035903D01*
X160006846Y-114026197D01*
X159990875Y-114016904D01*
X159974575Y-114008023D01*
X159957947Y-113999556D01*
X159940992Y-113991502D01*
X159923708Y-113983861D01*
X159906097Y-113976633D01*
X159888157Y-113969818D01*
X159869890Y-113963416D01*
X159851294Y-113957427D01*
X159832371Y-113951851D01*
X159813119Y-113946688D01*
X159793539Y-113941938D01*
X159773632Y-113937601D01*
X159753396Y-113933677D01*
X159732833Y-113930166D01*
X159711941Y-113927069D01*
X159690722Y-113924384D01*
X159669174Y-113922112D01*
X159647299Y-113920254D01*
X159625095Y-113918808D01*
X159602564Y-113917775D01*
X159579704Y-113917156D01*
X159556517Y-113916949D01*
X159535861Y-113917113D01*
X159515233Y-113917604D01*
X159494634Y-113918422D01*
X159474064Y-113919568D01*
X159453523Y-113921041D01*
X159433010Y-113922841D01*
X159412526Y-113924968D01*
X159392071Y-113927423D01*
X159371644Y-113930205D01*
X159351247Y-113933314D01*
X159330877Y-113936751D01*
X159310537Y-113940515D01*
X159290225Y-113944606D01*
X159269942Y-113949025D01*
X159249688Y-113953770D01*
X159229462Y-113958844D01*
X159209266Y-113964244D01*
X159189097Y-113969972D01*
X159168958Y-113976027D01*
X159148847Y-113982409D01*
X159128765Y-113989119D01*
X159108712Y-113996156D01*
X159088687Y-114003520D01*
X159068691Y-114011211D01*
X159068691Y-114350194D01*
X159087793Y-114342661D01*
X159106984Y-114335495D01*
X159126265Y-114328696D01*
X159145636Y-114322265D01*
X159165098Y-114316201D01*
X159184649Y-114310505D01*
X159204290Y-114305177D01*
X159224021Y-114300216D01*
X159243843Y-114295622D01*
X159263754Y-114291396D01*
X159283755Y-114287537D01*
X159303846Y-114284046D01*
X159324028Y-114280922D01*
X159344299Y-114278166D01*
X159364660Y-114275777D01*
X159385111Y-114273756D01*
X159405653Y-114272103D01*
X159426284Y-114270816D01*
X159447005Y-114269898D01*
X159467816Y-114269346D01*
X159488717Y-114269163D01*
X159512931Y-114269460D01*
X159536485Y-114270354D01*
X159559380Y-114271842D01*
X159581615Y-114273927D01*
X159603190Y-114276607D01*
X159624106Y-114279882D01*
X159644362Y-114283753D01*
X159663958Y-114288219D01*
X159682895Y-114293281D01*
X159701172Y-114298939D01*
X159718789Y-114305192D01*
X159735747Y-114312041D01*
X159752046Y-114319485D01*
X159767684Y-114327524D01*
X159782663Y-114336159D01*
X159796983Y-114345390D01*
X159810642Y-114355216D01*
X159823643Y-114365638D01*
X159835983Y-114376655D01*
X159845973Y-114386694D01*
X159855499Y-114397567D01*
X159864560Y-114409273D01*
X159873156Y-114421813D01*
X159881287Y-114435187D01*
X159888954Y-114449394D01*
X159896157Y-114464434D01*
X159902894Y-114480309D01*
X159909167Y-114497017D01*
X159914975Y-114514558D01*
X159920319Y-114532933D01*
X159925198Y-114552142D01*
X159929612Y-114572184D01*
X159933562Y-114593060D01*
X159937047Y-114614770D01*
X159940067Y-114637313D01*
X159942623Y-114660689D01*
X159944714Y-114684900D01*
X159946340Y-114709944D01*
X159947501Y-114735821D01*
X159948198Y-114762532D01*
X159948431Y-114790077D01*
X159948198Y-114817334D01*
X159947501Y-114843784D01*
X159946340Y-114869428D01*
X159944714Y-114894266D01*
X159942623Y-114918298D01*
X159940067Y-114941523D01*
X159937047Y-114963942D01*
X159933562Y-114985555D01*
X159929612Y-115006362D01*
X159925198Y-115026362D01*
X159920319Y-115045556D01*
X159914975Y-115063944D01*
X159909167Y-115081525D01*
X159902894Y-115098300D01*
X159896157Y-115114269D01*
X159888954Y-115129432D01*
X159881287Y-115143788D01*
X159873156Y-115157338D01*
X159864560Y-115170082D01*
X159855499Y-115182020D01*
X159845973Y-115193151D01*
X159835983Y-115203476D01*
X159823643Y-115214493D01*
X159810642Y-115224915D01*
X159796983Y-115234741D01*
X159782663Y-115243972D01*
X159767684Y-115252607D01*
X159752046Y-115260647D01*
X159735747Y-115268091D01*
X159718789Y-115274940D01*
X159701172Y-115281193D01*
X159682895Y-115286850D01*
X159663958Y-115291912D01*
X159644362Y-115296379D01*
X159624106Y-115300249D01*
X159603190Y-115303525D01*
X159581615Y-115306205D01*
X159559380Y-115308289D01*
X159536485Y-115309778D01*
X159512931Y-115310671D01*
X159488717Y-115310969D01*
X159468716Y-115310778D01*
X159448715Y-115310204D01*
X159428714Y-115309248D01*
X159408712Y-115307909D01*
X159388711Y-115306188D01*
X159368710Y-115304085D01*
X159348709Y-115301599D01*
X159328707Y-115298731D01*
X159308706Y-115295480D01*
X159288705Y-115291847D01*
X159268704Y-115287831D01*
X159248702Y-115283433D01*
X159228701Y-115278653D01*
X159208700Y-115273490D01*
X159188699Y-115267944D01*
X159168698Y-115262017D01*
X159148696Y-115255706D01*
X159128695Y-115249014D01*
X159108694Y-115241939D01*
X159088693Y-115234481D01*
X159068691Y-115226641D01*
X159068691Y-115565624D01*
X159088687Y-115573315D01*
X159108712Y-115580679D01*
X159128765Y-115587716D01*
X159148847Y-115594426D01*
X159168958Y-115600808D01*
X159189097Y-115606863D01*
X159209266Y-115612591D01*
X159229462Y-115617992D01*
X159249688Y-115623065D01*
X159269942Y-115627811D01*
X159290225Y-115632229D01*
X159310537Y-115636320D01*
X159330877Y-115640084D01*
X159351247Y-115643521D01*
X159371644Y-115646630D01*
X159392071Y-115649412D01*
X159412526Y-115651867D01*
X159433010Y-115653995D01*
X159453523Y-115655795D01*
X159474064Y-115657268D01*
X159494634Y-115658413D01*
X159515233Y-115659231D01*
X159535861Y-115659722D01*
X159556517Y-115659886D01*
X159579704Y-115659679D01*
X159602564Y-115659060D01*
X159625095Y-115658027D01*
X159647299Y-115656582D01*
X159669174Y-115654723D01*
X159690722Y-115652451D01*
X159711941Y-115649767D01*
X159732833Y-115646669D01*
X159753396Y-115643158D01*
X159773632Y-115639234D01*
X159793539Y-115634897D01*
X159813119Y-115630147D01*
X159832371Y-115624985D01*
X159851294Y-115619409D01*
X159869890Y-115613420D01*
X159888157Y-115607018D01*
X159906097Y-115600202D01*
X159923708Y-115592974D01*
X159940992Y-115585333D01*
X159957947Y-115577279D01*
X159974575Y-115568812D01*
X159990875Y-115559932D01*
X160006846Y-115550638D01*
X160022490Y-115540932D01*
X160037805Y-115530813D01*
X160052793Y-115520280D01*
X160067452Y-115509335D01*
X160081784Y-115497976D01*
X160095788Y-115486205D01*
X160109463Y-115474020D01*
X160122811Y-115461423D01*
X160135830Y-115448412D01*
X160148522Y-115434989D01*
X160160165Y-115421978D01*
X160171471Y-115408649D01*
X160182439Y-115395001D01*
X160193069Y-115381035D01*
X160203362Y-115366750D01*
X160213318Y-115352147D01*
X160222936Y-115337225D01*
X160232217Y-115321985D01*
X160241160Y-115306426D01*
X160249766Y-115290548D01*
X160258034Y-115274352D01*
X160265965Y-115257837D01*
X160273558Y-115241004D01*
X160280814Y-115223852D01*
X160287732Y-115206382D01*
X160294313Y-115188593D01*
X160300556Y-115170485D01*
X160306462Y-115152059D01*
X160312030Y-115133315D01*
X160317261Y-115114252D01*
X160322155Y-115094870D01*
X160326711Y-115075170D01*
X160330929Y-115055151D01*
X160334810Y-115034813D01*
X160338354Y-115014157D01*
X160341560Y-114993183D01*
X160344428Y-114971890D01*
X160346959Y-114950278D01*
X160349153Y-114928348D01*
X160351009Y-114906099D01*
X160352528Y-114883532D01*
X160353709Y-114860646D01*
X160354553Y-114837442D01*
X160355059Y-114813919D01*
X160355228Y-114790077D01*
X160355228Y-114790077D01*
G37*
G36*
X158693314Y-115633425D02*
X158693314Y-113310059D01*
X158286517Y-113310059D01*
X158286517Y-114563532D01*
X157717663Y-113943410D01*
X157178574Y-113943410D01*
X157914446Y-114695815D01*
X157100853Y-115633425D01*
X157615137Y-115633425D01*
X158174069Y-114967019D01*
X158286517Y-115081105D01*
X158286517Y-115633425D01*
X158693314Y-115633425D01*
X158693314Y-115633425D01*
G37*
M02*
