G04 #@! TF.FileFunction,Legend,Bot*
%FSLAX46Y46*%
G04 Gerber Fmt 4.6, Leading zero omitted, Abs format (unit mm)*
G04 Created by KiCad (PCBNEW 4.0.1-stable) date Friday, March 04, 2016 'AMt' 12:55:25 AM*
%MOMM*%
G01*
G04 APERTURE LIST*
%ADD10C,0.100000*%
%ADD11C,0.300000*%
%ADD12C,0.250000*%
G04 APERTURE END LIST*
D10*
D11*
X167992857Y-101628571D02*
X167992857Y-100128571D01*
X167421429Y-100128571D01*
X167278571Y-100200000D01*
X167207143Y-100271429D01*
X167135714Y-100414286D01*
X167135714Y-100628571D01*
X167207143Y-100771429D01*
X167278571Y-100842857D01*
X167421429Y-100914286D01*
X167992857Y-100914286D01*
X165707143Y-100200000D02*
X165850000Y-100128571D01*
X166064286Y-100128571D01*
X166278571Y-100200000D01*
X166421429Y-100342857D01*
X166492857Y-100485714D01*
X166564286Y-100771429D01*
X166564286Y-100985714D01*
X166492857Y-101271429D01*
X166421429Y-101414286D01*
X166278571Y-101557143D01*
X166064286Y-101628571D01*
X165921429Y-101628571D01*
X165707143Y-101557143D01*
X165635714Y-101485714D01*
X165635714Y-100985714D01*
X165921429Y-100985714D01*
X167997143Y-103322857D02*
X167497143Y-103322857D01*
X167282857Y-104108571D02*
X167997143Y-104108571D01*
X167997143Y-102608571D01*
X167282857Y-102608571D01*
X166640000Y-104108571D02*
X166640000Y-102608571D01*
X165782857Y-104108571D01*
X165782857Y-102608571D01*
X164785714Y-106678571D02*
X164785714Y-105178571D01*
X164071428Y-106678571D02*
X164071428Y-105178571D01*
X163214285Y-106678571D01*
X163214285Y-105178571D01*
X164042857Y-107750000D02*
X164185714Y-107678571D01*
X164400000Y-107678571D01*
X164614285Y-107750000D01*
X164757143Y-107892857D01*
X164828571Y-108035714D01*
X164900000Y-108321429D01*
X164900000Y-108535714D01*
X164828571Y-108821429D01*
X164757143Y-108964286D01*
X164614285Y-109107143D01*
X164400000Y-109178571D01*
X164257143Y-109178571D01*
X164042857Y-109107143D01*
X163971428Y-109035714D01*
X163971428Y-108535714D01*
X164257143Y-108535714D01*
X163328571Y-109178571D02*
X163328571Y-107678571D01*
X162471428Y-109178571D01*
X162471428Y-107678571D01*
X161757142Y-109178571D02*
X161757142Y-107678571D01*
X161399999Y-107678571D01*
X161185714Y-107750000D01*
X161042856Y-107892857D01*
X160971428Y-108035714D01*
X160899999Y-108321429D01*
X160899999Y-108535714D01*
X160971428Y-108821429D01*
X161042856Y-108964286D01*
X161185714Y-109107143D01*
X161399999Y-109178571D01*
X161757142Y-109178571D01*
X168018571Y-111257143D02*
X166875714Y-111257143D01*
X167447143Y-111828571D02*
X167447143Y-110685714D01*
X165447142Y-110328571D02*
X166161428Y-110328571D01*
X166232857Y-111042857D01*
X166161428Y-110971429D01*
X166018571Y-110900000D01*
X165661428Y-110900000D01*
X165518571Y-110971429D01*
X165447142Y-111042857D01*
X165375714Y-111185714D01*
X165375714Y-111542857D01*
X165447142Y-111685714D01*
X165518571Y-111757143D01*
X165661428Y-111828571D01*
X166018571Y-111828571D01*
X166161428Y-111757143D01*
X166232857Y-111685714D01*
X164947143Y-110328571D02*
X164447143Y-111828571D01*
X163947143Y-110328571D01*
D12*
X158426667Y-97516666D02*
X158493333Y-97383333D01*
X158493333Y-97116666D01*
X158426667Y-96983333D01*
X158360000Y-96916666D01*
X158226667Y-96850000D01*
X157826667Y-96850000D01*
X157693333Y-96916666D01*
X157626667Y-96983333D01*
X157560000Y-97116666D01*
X157560000Y-97383333D01*
X157626667Y-97516666D01*
X158493333Y-98116666D02*
X157093333Y-98116666D01*
X157960000Y-98250000D02*
X158493333Y-98650000D01*
X157560000Y-98650000D02*
X158093333Y-98116666D01*
X158493333Y-99849999D02*
X157093333Y-99849999D01*
X158426667Y-99849999D02*
X158493333Y-99716666D01*
X158493333Y-99449999D01*
X158426667Y-99316666D01*
X158360000Y-99249999D01*
X158226667Y-99183333D01*
X157826667Y-99183333D01*
X157693333Y-99249999D01*
X157626667Y-99316666D01*
X157560000Y-99449999D01*
X157560000Y-99716666D01*
X157626667Y-99849999D01*
X158360000Y-100516666D02*
X158426667Y-100583333D01*
X158493333Y-100516666D01*
X158426667Y-100450000D01*
X158360000Y-100516666D01*
X158493333Y-100516666D01*
X157560000Y-100983333D02*
X157560000Y-101516667D01*
X157093333Y-101183333D02*
X158293333Y-101183333D01*
X158426667Y-101250000D01*
X158493333Y-101383333D01*
X158493333Y-101516667D01*
X158426667Y-102516667D02*
X158493333Y-102383333D01*
X158493333Y-102116667D01*
X158426667Y-101983333D01*
X158293333Y-101916667D01*
X157760000Y-101916667D01*
X157626667Y-101983333D01*
X157560000Y-102116667D01*
X157560000Y-102383333D01*
X157626667Y-102516667D01*
X157760000Y-102583333D01*
X157893333Y-102583333D01*
X158026667Y-101916667D01*
X158426667Y-103783333D02*
X158493333Y-103650000D01*
X158493333Y-103383333D01*
X158426667Y-103250000D01*
X158360000Y-103183333D01*
X158226667Y-103116667D01*
X157826667Y-103116667D01*
X157693333Y-103183333D01*
X157626667Y-103250000D01*
X157560000Y-103383333D01*
X157560000Y-103650000D01*
X157626667Y-103783333D01*
X158493333Y-104383333D02*
X157093333Y-104383333D01*
X158493333Y-104983333D02*
X157760000Y-104983333D01*
X157626667Y-104916667D01*
X157560000Y-104783333D01*
X157560000Y-104583333D01*
X157626667Y-104450000D01*
X157693333Y-104383333D01*
X157026667Y-106650000D02*
X158826667Y-105450000D01*
X157560000Y-107116667D02*
X158960000Y-107116667D01*
X157626667Y-107116667D02*
X157560000Y-107250001D01*
X157560000Y-107516667D01*
X157626667Y-107650001D01*
X157693333Y-107716667D01*
X157826667Y-107783334D01*
X158226667Y-107783334D01*
X158360000Y-107716667D01*
X158426667Y-107650001D01*
X158493333Y-107516667D01*
X158493333Y-107250001D01*
X158426667Y-107116667D01*
X157960000Y-108383334D02*
X157960000Y-109450001D01*
X157560000Y-110116667D02*
X158960000Y-110116667D01*
X157626667Y-110116667D02*
X157560000Y-110250001D01*
X157560000Y-110516667D01*
X157626667Y-110650001D01*
X157693333Y-110716667D01*
X157826667Y-110783334D01*
X158226667Y-110783334D01*
X158360000Y-110716667D01*
X158426667Y-110650001D01*
X158493333Y-110516667D01*
X158493333Y-110250001D01*
X158426667Y-110116667D01*
X157026667Y-112383334D02*
X158826667Y-111183334D01*
X157560000Y-112716668D02*
X158493333Y-113050001D01*
X157560000Y-113383335D01*
X157093333Y-114583335D02*
X157093333Y-113916668D01*
X157760000Y-113850002D01*
X157693333Y-113916668D01*
X157626667Y-114050002D01*
X157626667Y-114383335D01*
X157693333Y-114516668D01*
X157760000Y-114583335D01*
X157893333Y-114650002D01*
X158226667Y-114650002D01*
X158360000Y-114583335D01*
X158426667Y-114516668D01*
X158493333Y-114383335D01*
X158493333Y-114050002D01*
X158426667Y-113916668D01*
X158360000Y-113850002D01*
M02*
