G04 #@! TF.FileFunction,Legend,Top*
%FSLAX46Y46*%
G04 Gerber Fmt 4.6, Leading zero omitted, Abs format (unit mm)*
G04 Created by KiCad (PCBNEW 4.0.1-stable) date Friday, March 04, 2016 'AMt' 12:55:25 AM*
%MOMM*%
G01*
G04 APERTURE LIST*
%ADD10C,0.100000*%
%ADD11C,0.200000*%
%ADD12C,0.300000*%
%ADD13C,0.150000*%
%ADD14C,0.010000*%
G04 APERTURE END LIST*
D10*
D11*
X157867619Y-113555476D02*
X157153333Y-113555476D01*
X157510476Y-113555476D02*
X157510476Y-112305476D01*
X157391428Y-112484048D01*
X157272381Y-112603095D01*
X157153333Y-112662619D01*
X158403333Y-113436429D02*
X158462857Y-113495952D01*
X158403333Y-113555476D01*
X158343809Y-113495952D01*
X158403333Y-113436429D01*
X158403333Y-113555476D01*
X159593809Y-112305476D02*
X158998571Y-112305476D01*
X158939047Y-112900714D01*
X158998571Y-112841190D01*
X159117619Y-112781667D01*
X159415238Y-112781667D01*
X159534285Y-112841190D01*
X159593809Y-112900714D01*
X159653333Y-113019762D01*
X159653333Y-113317381D01*
X159593809Y-113436429D01*
X159534285Y-113495952D01*
X159415238Y-113555476D01*
X159117619Y-113555476D01*
X158998571Y-113495952D01*
X158939047Y-113436429D01*
X160189047Y-113555476D02*
X160189047Y-112722143D01*
X160189047Y-112841190D02*
X160248571Y-112781667D01*
X160367618Y-112722143D01*
X160546190Y-112722143D01*
X160665238Y-112781667D01*
X160724761Y-112900714D01*
X160724761Y-113555476D01*
X160724761Y-112900714D02*
X160784285Y-112781667D01*
X160903333Y-112722143D01*
X161081904Y-112722143D01*
X161200952Y-112781667D01*
X161260476Y-112900714D01*
X161260476Y-113555476D01*
X161855714Y-113555476D02*
X161855714Y-112722143D01*
X161855714Y-112841190D02*
X161915238Y-112781667D01*
X162034285Y-112722143D01*
X162212857Y-112722143D01*
X162331905Y-112781667D01*
X162391428Y-112900714D01*
X162391428Y-113555476D01*
X162391428Y-112900714D02*
X162450952Y-112781667D01*
X162570000Y-112722143D01*
X162748571Y-112722143D01*
X162867619Y-112781667D01*
X162927143Y-112900714D01*
X162927143Y-113555476D01*
D12*
X164161429Y-111257143D02*
X165304286Y-111257143D01*
X164732857Y-111828571D02*
X164732857Y-110685714D01*
X166732858Y-110328571D02*
X166018572Y-110328571D01*
X165947143Y-111042857D01*
X166018572Y-110971429D01*
X166161429Y-110900000D01*
X166518572Y-110900000D01*
X166661429Y-110971429D01*
X166732858Y-111042857D01*
X166804286Y-111185714D01*
X166804286Y-111542857D01*
X166732858Y-111685714D01*
X166661429Y-111757143D01*
X166518572Y-111828571D01*
X166161429Y-111828571D01*
X166018572Y-111757143D01*
X165947143Y-111685714D01*
X167232857Y-110328571D02*
X167732857Y-111828571D01*
X168232857Y-110328571D01*
X164892857Y-107750000D02*
X164750000Y-107678571D01*
X164535714Y-107678571D01*
X164321429Y-107750000D01*
X164178571Y-107892857D01*
X164107143Y-108035714D01*
X164035714Y-108321429D01*
X164035714Y-108535714D01*
X164107143Y-108821429D01*
X164178571Y-108964286D01*
X164321429Y-109107143D01*
X164535714Y-109178571D01*
X164678571Y-109178571D01*
X164892857Y-109107143D01*
X164964286Y-109035714D01*
X164964286Y-108535714D01*
X164678571Y-108535714D01*
X163214286Y-106653571D02*
X163214286Y-105153571D01*
X163928572Y-106653571D02*
X163928572Y-105153571D01*
X164785715Y-106653571D01*
X164785715Y-105153571D01*
X165782857Y-103322857D02*
X166282857Y-103322857D01*
X166497143Y-104108571D02*
X165782857Y-104108571D01*
X165782857Y-102608571D01*
X166497143Y-102608571D01*
X167140000Y-104108571D02*
X167140000Y-102608571D01*
X167997143Y-104108571D01*
X167997143Y-102608571D01*
X165707143Y-101628571D02*
X165707143Y-100128571D01*
X166278571Y-100128571D01*
X166421429Y-100200000D01*
X166492857Y-100271429D01*
X166564286Y-100414286D01*
X166564286Y-100628571D01*
X166492857Y-100771429D01*
X166421429Y-100842857D01*
X166278571Y-100914286D01*
X165707143Y-100914286D01*
X167992857Y-100200000D02*
X167850000Y-100128571D01*
X167635714Y-100128571D01*
X167421429Y-100200000D01*
X167278571Y-100342857D01*
X167207143Y-100485714D01*
X167135714Y-100771429D01*
X167135714Y-100985714D01*
X167207143Y-101271429D01*
X167278571Y-101414286D01*
X167421429Y-101557143D01*
X167635714Y-101628571D01*
X167778571Y-101628571D01*
X167992857Y-101557143D01*
X168064286Y-101485714D01*
X168064286Y-100985714D01*
X167778571Y-100985714D01*
D13*
X158680000Y-102015000D02*
X159680000Y-102015000D01*
X159680000Y-103365000D02*
X158680000Y-103365000D01*
X159680000Y-101385000D02*
X158680000Y-101385000D01*
X158680000Y-100035000D02*
X159680000Y-100035000D01*
X157960000Y-104700000D02*
X161340000Y-104700000D01*
X157960000Y-111300000D02*
X161340000Y-111300000D01*
D14*
G36*
X160311343Y-114762173D02*
X160382011Y-114767779D01*
X160453885Y-114777766D01*
X160501382Y-114786682D01*
X160526837Y-114792279D01*
X160552505Y-114798526D01*
X160577782Y-114805225D01*
X160602064Y-114812177D01*
X160624750Y-114819184D01*
X160645234Y-114826047D01*
X160662915Y-114832567D01*
X160677188Y-114838546D01*
X160687451Y-114843786D01*
X160693099Y-114848087D01*
X160694023Y-114850081D01*
X160693536Y-114853499D01*
X160692111Y-114862235D01*
X160689802Y-114875983D01*
X160686660Y-114894442D01*
X160682741Y-114917305D01*
X160678097Y-114944270D01*
X160672780Y-114975033D01*
X160666846Y-115009290D01*
X160660346Y-115046736D01*
X160653334Y-115087068D01*
X160645863Y-115129982D01*
X160637987Y-115175174D01*
X160629758Y-115222340D01*
X160621231Y-115271177D01*
X160612457Y-115321380D01*
X160603492Y-115372645D01*
X160594387Y-115424668D01*
X160585196Y-115477146D01*
X160575972Y-115529775D01*
X160566769Y-115582250D01*
X160557640Y-115634268D01*
X160548637Y-115685525D01*
X160539815Y-115735717D01*
X160531227Y-115784540D01*
X160522925Y-115831690D01*
X160514963Y-115876863D01*
X160507395Y-115919756D01*
X160500273Y-115960063D01*
X160493651Y-115997483D01*
X160487582Y-116031709D01*
X160482119Y-116062440D01*
X160477316Y-116089370D01*
X160473226Y-116112195D01*
X160469902Y-116130613D01*
X160467397Y-116144319D01*
X160465764Y-116153008D01*
X160465375Y-116154977D01*
X160450970Y-116219946D01*
X160434930Y-116282006D01*
X160417410Y-116340722D01*
X160398560Y-116395660D01*
X160378535Y-116446386D01*
X160357487Y-116492464D01*
X160335569Y-116533461D01*
X160327679Y-116546595D01*
X160296411Y-116592499D01*
X160262288Y-116634126D01*
X160225596Y-116671188D01*
X160186624Y-116703397D01*
X160145660Y-116730464D01*
X160141820Y-116732675D01*
X160110174Y-116748664D01*
X160073928Y-116763437D01*
X160034117Y-116776698D01*
X159991776Y-116788152D01*
X159947938Y-116797503D01*
X159903638Y-116804455D01*
X159882510Y-116806853D01*
X159861263Y-116808560D01*
X159836707Y-116809889D01*
X159810329Y-116810814D01*
X159783615Y-116811308D01*
X159758050Y-116811344D01*
X159735122Y-116810895D01*
X159716316Y-116809934D01*
X159715512Y-116809872D01*
X159638839Y-116801108D01*
X159561212Y-116786763D01*
X159531045Y-116779748D01*
X159514287Y-116775460D01*
X159497612Y-116770890D01*
X159482097Y-116766365D01*
X159468821Y-116762210D01*
X159458860Y-116758750D01*
X159453293Y-116756312D01*
X159453109Y-116756196D01*
X159451958Y-116754332D01*
X159451567Y-116750254D01*
X159452003Y-116743284D01*
X159453336Y-116732743D01*
X159455634Y-116717955D01*
X159458942Y-116698380D01*
X159468508Y-116643000D01*
X159651035Y-116641419D01*
X159688914Y-116641074D01*
X159721550Y-116640734D01*
X159749407Y-116640384D01*
X159772951Y-116640010D01*
X159792645Y-116639598D01*
X159808955Y-116639132D01*
X159822345Y-116638598D01*
X159833280Y-116637982D01*
X159842224Y-116637269D01*
X159849642Y-116636445D01*
X159855999Y-116635495D01*
X159859247Y-116634907D01*
X159896448Y-116626777D01*
X159928941Y-116617465D01*
X159957664Y-116606626D01*
X159983556Y-116593913D01*
X160003710Y-116581594D01*
X160017129Y-116571416D01*
X160032624Y-116557726D01*
X160049039Y-116541715D01*
X160065218Y-116524576D01*
X160080002Y-116507500D01*
X160092238Y-116491680D01*
X160095420Y-116487085D01*
X160111533Y-116460628D01*
X160127673Y-116429677D01*
X160143320Y-116395422D01*
X160157955Y-116359050D01*
X160171057Y-116321750D01*
X160178936Y-116296080D01*
X160182337Y-116283606D01*
X160186192Y-116268400D01*
X160190263Y-116251521D01*
X160194315Y-116234029D01*
X160198109Y-116216985D01*
X160201408Y-116201450D01*
X160203977Y-116188483D01*
X160205577Y-116179145D01*
X160206000Y-116175007D01*
X160204304Y-116173844D01*
X160198898Y-116174862D01*
X160189302Y-116178194D01*
X160176747Y-116183259D01*
X160133426Y-116200106D01*
X160090202Y-116214483D01*
X160048315Y-116226027D01*
X160009001Y-116234376D01*
X159993382Y-116236867D01*
X159979180Y-116238324D01*
X159960714Y-116239395D01*
X159939319Y-116240080D01*
X159916327Y-116240378D01*
X159893074Y-116240289D01*
X159870891Y-116239812D01*
X159851113Y-116238945D01*
X159835075Y-116237689D01*
X159829247Y-116236969D01*
X159804748Y-116232711D01*
X159779000Y-116227038D01*
X159754049Y-116220462D01*
X159731938Y-116213494D01*
X159724388Y-116210728D01*
X159694248Y-116196239D01*
X159665440Y-116176844D01*
X159638770Y-116153321D01*
X159615041Y-116126448D01*
X159595059Y-116097001D01*
X159583334Y-116074402D01*
X159567082Y-116032405D01*
X159554393Y-115985963D01*
X159545266Y-115935095D01*
X159539704Y-115879815D01*
X159537708Y-115820141D01*
X159539279Y-115756090D01*
X159539534Y-115752696D01*
X159796448Y-115752696D01*
X159796695Y-115799856D01*
X159799354Y-115844444D01*
X159804398Y-115885594D01*
X159811796Y-115922444D01*
X159812277Y-115924355D01*
X159823204Y-115957702D01*
X159837902Y-115986776D01*
X159856374Y-116011578D01*
X159878625Y-116032110D01*
X159904657Y-116048374D01*
X159934474Y-116060373D01*
X159968081Y-116068107D01*
X160005480Y-116071580D01*
X160046677Y-116070793D01*
X160078947Y-116067556D01*
X160097250Y-116064529D01*
X160117107Y-116060159D01*
X160137717Y-116054733D01*
X160158277Y-116048535D01*
X160177987Y-116041854D01*
X160196045Y-116034974D01*
X160211649Y-116028182D01*
X160223998Y-116021764D01*
X160232291Y-116016007D01*
X160235623Y-116011626D01*
X160236280Y-116008288D01*
X160237862Y-115999674D01*
X160240311Y-115986116D01*
X160243567Y-115967949D01*
X160247573Y-115945504D01*
X160252268Y-115919116D01*
X160257595Y-115889118D01*
X160263495Y-115855842D01*
X160269910Y-115819623D01*
X160276779Y-115780793D01*
X160284046Y-115739686D01*
X160291650Y-115696635D01*
X160299534Y-115651973D01*
X160307639Y-115606033D01*
X160315906Y-115559149D01*
X160324276Y-115511654D01*
X160332691Y-115463881D01*
X160341092Y-115416164D01*
X160349420Y-115368836D01*
X160357617Y-115322229D01*
X160365624Y-115276678D01*
X160373382Y-115232515D01*
X160380832Y-115190074D01*
X160387916Y-115149688D01*
X160394576Y-115111690D01*
X160400751Y-115076414D01*
X160406385Y-115044192D01*
X160411418Y-115015358D01*
X160415791Y-114990246D01*
X160419446Y-114969188D01*
X160422323Y-114952518D01*
X160424366Y-114940569D01*
X160425513Y-114933675D01*
X160425753Y-114932034D01*
X160423015Y-114931080D01*
X160415256Y-114930339D01*
X160403160Y-114929800D01*
X160387408Y-114929454D01*
X160368684Y-114929290D01*
X160347671Y-114929296D01*
X160325050Y-114929464D01*
X160301506Y-114929781D01*
X160277720Y-114930238D01*
X160254376Y-114930824D01*
X160232156Y-114931528D01*
X160211743Y-114932340D01*
X160193820Y-114933249D01*
X160179070Y-114934245D01*
X160168175Y-114935316D01*
X160163273Y-114936093D01*
X160128186Y-114945095D01*
X160097246Y-114956721D01*
X160069241Y-114971641D01*
X160042955Y-114990523D01*
X160017175Y-115014036D01*
X160011850Y-115019480D01*
X159986667Y-115048881D01*
X159962512Y-115083477D01*
X159939605Y-115122812D01*
X159918164Y-115166430D01*
X159898408Y-115213877D01*
X159880557Y-115264697D01*
X159864829Y-115318434D01*
X159861061Y-115333045D01*
X159853746Y-115363889D01*
X159846098Y-115399201D01*
X159838335Y-115437768D01*
X159830675Y-115478376D01*
X159823337Y-115519811D01*
X159816539Y-115560861D01*
X159810500Y-115600311D01*
X159805436Y-115636949D01*
X159803306Y-115654112D01*
X159798642Y-115703827D01*
X159796448Y-115752696D01*
X159539534Y-115752696D01*
X159544419Y-115687679D01*
X159549805Y-115639842D01*
X159558559Y-115576957D01*
X159568864Y-115514010D01*
X159580541Y-115451778D01*
X159593411Y-115391039D01*
X159607295Y-115332569D01*
X159622016Y-115277146D01*
X159637394Y-115225546D01*
X159653251Y-115178546D01*
X159660002Y-115160389D01*
X159682699Y-115105643D01*
X159706909Y-115056038D01*
X159732894Y-115011143D01*
X159760916Y-114970530D01*
X159791238Y-114933770D01*
X159811949Y-114912089D01*
X159847740Y-114879834D01*
X159885488Y-114852096D01*
X159925823Y-114828536D01*
X159969376Y-114808815D01*
X160016778Y-114792593D01*
X160050461Y-114783642D01*
X160111441Y-114771685D01*
X160175572Y-114764123D01*
X160242368Y-114760954D01*
X160311343Y-114762173D01*
X160311343Y-114762173D01*
G37*
X160311343Y-114762173D02*
X160382011Y-114767779D01*
X160453885Y-114777766D01*
X160501382Y-114786682D01*
X160526837Y-114792279D01*
X160552505Y-114798526D01*
X160577782Y-114805225D01*
X160602064Y-114812177D01*
X160624750Y-114819184D01*
X160645234Y-114826047D01*
X160662915Y-114832567D01*
X160677188Y-114838546D01*
X160687451Y-114843786D01*
X160693099Y-114848087D01*
X160694023Y-114850081D01*
X160693536Y-114853499D01*
X160692111Y-114862235D01*
X160689802Y-114875983D01*
X160686660Y-114894442D01*
X160682741Y-114917305D01*
X160678097Y-114944270D01*
X160672780Y-114975033D01*
X160666846Y-115009290D01*
X160660346Y-115046736D01*
X160653334Y-115087068D01*
X160645863Y-115129982D01*
X160637987Y-115175174D01*
X160629758Y-115222340D01*
X160621231Y-115271177D01*
X160612457Y-115321380D01*
X160603492Y-115372645D01*
X160594387Y-115424668D01*
X160585196Y-115477146D01*
X160575972Y-115529775D01*
X160566769Y-115582250D01*
X160557640Y-115634268D01*
X160548637Y-115685525D01*
X160539815Y-115735717D01*
X160531227Y-115784540D01*
X160522925Y-115831690D01*
X160514963Y-115876863D01*
X160507395Y-115919756D01*
X160500273Y-115960063D01*
X160493651Y-115997483D01*
X160487582Y-116031709D01*
X160482119Y-116062440D01*
X160477316Y-116089370D01*
X160473226Y-116112195D01*
X160469902Y-116130613D01*
X160467397Y-116144319D01*
X160465764Y-116153008D01*
X160465375Y-116154977D01*
X160450970Y-116219946D01*
X160434930Y-116282006D01*
X160417410Y-116340722D01*
X160398560Y-116395660D01*
X160378535Y-116446386D01*
X160357487Y-116492464D01*
X160335569Y-116533461D01*
X160327679Y-116546595D01*
X160296411Y-116592499D01*
X160262288Y-116634126D01*
X160225596Y-116671188D01*
X160186624Y-116703397D01*
X160145660Y-116730464D01*
X160141820Y-116732675D01*
X160110174Y-116748664D01*
X160073928Y-116763437D01*
X160034117Y-116776698D01*
X159991776Y-116788152D01*
X159947938Y-116797503D01*
X159903638Y-116804455D01*
X159882510Y-116806853D01*
X159861263Y-116808560D01*
X159836707Y-116809889D01*
X159810329Y-116810814D01*
X159783615Y-116811308D01*
X159758050Y-116811344D01*
X159735122Y-116810895D01*
X159716316Y-116809934D01*
X159715512Y-116809872D01*
X159638839Y-116801108D01*
X159561212Y-116786763D01*
X159531045Y-116779748D01*
X159514287Y-116775460D01*
X159497612Y-116770890D01*
X159482097Y-116766365D01*
X159468821Y-116762210D01*
X159458860Y-116758750D01*
X159453293Y-116756312D01*
X159453109Y-116756196D01*
X159451958Y-116754332D01*
X159451567Y-116750254D01*
X159452003Y-116743284D01*
X159453336Y-116732743D01*
X159455634Y-116717955D01*
X159458942Y-116698380D01*
X159468508Y-116643000D01*
X159651035Y-116641419D01*
X159688914Y-116641074D01*
X159721550Y-116640734D01*
X159749407Y-116640384D01*
X159772951Y-116640010D01*
X159792645Y-116639598D01*
X159808955Y-116639132D01*
X159822345Y-116638598D01*
X159833280Y-116637982D01*
X159842224Y-116637269D01*
X159849642Y-116636445D01*
X159855999Y-116635495D01*
X159859247Y-116634907D01*
X159896448Y-116626777D01*
X159928941Y-116617465D01*
X159957664Y-116606626D01*
X159983556Y-116593913D01*
X160003710Y-116581594D01*
X160017129Y-116571416D01*
X160032624Y-116557726D01*
X160049039Y-116541715D01*
X160065218Y-116524576D01*
X160080002Y-116507500D01*
X160092238Y-116491680D01*
X160095420Y-116487085D01*
X160111533Y-116460628D01*
X160127673Y-116429677D01*
X160143320Y-116395422D01*
X160157955Y-116359050D01*
X160171057Y-116321750D01*
X160178936Y-116296080D01*
X160182337Y-116283606D01*
X160186192Y-116268400D01*
X160190263Y-116251521D01*
X160194315Y-116234029D01*
X160198109Y-116216985D01*
X160201408Y-116201450D01*
X160203977Y-116188483D01*
X160205577Y-116179145D01*
X160206000Y-116175007D01*
X160204304Y-116173844D01*
X160198898Y-116174862D01*
X160189302Y-116178194D01*
X160176747Y-116183259D01*
X160133426Y-116200106D01*
X160090202Y-116214483D01*
X160048315Y-116226027D01*
X160009001Y-116234376D01*
X159993382Y-116236867D01*
X159979180Y-116238324D01*
X159960714Y-116239395D01*
X159939319Y-116240080D01*
X159916327Y-116240378D01*
X159893074Y-116240289D01*
X159870891Y-116239812D01*
X159851113Y-116238945D01*
X159835075Y-116237689D01*
X159829247Y-116236969D01*
X159804748Y-116232711D01*
X159779000Y-116227038D01*
X159754049Y-116220462D01*
X159731938Y-116213494D01*
X159724388Y-116210728D01*
X159694248Y-116196239D01*
X159665440Y-116176844D01*
X159638770Y-116153321D01*
X159615041Y-116126448D01*
X159595059Y-116097001D01*
X159583334Y-116074402D01*
X159567082Y-116032405D01*
X159554393Y-115985963D01*
X159545266Y-115935095D01*
X159539704Y-115879815D01*
X159537708Y-115820141D01*
X159539279Y-115756090D01*
X159539534Y-115752696D01*
X159796448Y-115752696D01*
X159796695Y-115799856D01*
X159799354Y-115844444D01*
X159804398Y-115885594D01*
X159811796Y-115922444D01*
X159812277Y-115924355D01*
X159823204Y-115957702D01*
X159837902Y-115986776D01*
X159856374Y-116011578D01*
X159878625Y-116032110D01*
X159904657Y-116048374D01*
X159934474Y-116060373D01*
X159968081Y-116068107D01*
X160005480Y-116071580D01*
X160046677Y-116070793D01*
X160078947Y-116067556D01*
X160097250Y-116064529D01*
X160117107Y-116060159D01*
X160137717Y-116054733D01*
X160158277Y-116048535D01*
X160177987Y-116041854D01*
X160196045Y-116034974D01*
X160211649Y-116028182D01*
X160223998Y-116021764D01*
X160232291Y-116016007D01*
X160235623Y-116011626D01*
X160236280Y-116008288D01*
X160237862Y-115999674D01*
X160240311Y-115986116D01*
X160243567Y-115967949D01*
X160247573Y-115945504D01*
X160252268Y-115919116D01*
X160257595Y-115889118D01*
X160263495Y-115855842D01*
X160269910Y-115819623D01*
X160276779Y-115780793D01*
X160284046Y-115739686D01*
X160291650Y-115696635D01*
X160299534Y-115651973D01*
X160307639Y-115606033D01*
X160315906Y-115559149D01*
X160324276Y-115511654D01*
X160332691Y-115463881D01*
X160341092Y-115416164D01*
X160349420Y-115368836D01*
X160357617Y-115322229D01*
X160365624Y-115276678D01*
X160373382Y-115232515D01*
X160380832Y-115190074D01*
X160387916Y-115149688D01*
X160394576Y-115111690D01*
X160400751Y-115076414D01*
X160406385Y-115044192D01*
X160411418Y-115015358D01*
X160415791Y-114990246D01*
X160419446Y-114969188D01*
X160422323Y-114952518D01*
X160424366Y-114940569D01*
X160425513Y-114933675D01*
X160425753Y-114932034D01*
X160423015Y-114931080D01*
X160415256Y-114930339D01*
X160403160Y-114929800D01*
X160387408Y-114929454D01*
X160368684Y-114929290D01*
X160347671Y-114929296D01*
X160325050Y-114929464D01*
X160301506Y-114929781D01*
X160277720Y-114930238D01*
X160254376Y-114930824D01*
X160232156Y-114931528D01*
X160211743Y-114932340D01*
X160193820Y-114933249D01*
X160179070Y-114934245D01*
X160168175Y-114935316D01*
X160163273Y-114936093D01*
X160128186Y-114945095D01*
X160097246Y-114956721D01*
X160069241Y-114971641D01*
X160042955Y-114990523D01*
X160017175Y-115014036D01*
X160011850Y-115019480D01*
X159986667Y-115048881D01*
X159962512Y-115083477D01*
X159939605Y-115122812D01*
X159918164Y-115166430D01*
X159898408Y-115213877D01*
X159880557Y-115264697D01*
X159864829Y-115318434D01*
X159861061Y-115333045D01*
X159853746Y-115363889D01*
X159846098Y-115399201D01*
X159838335Y-115437768D01*
X159830675Y-115478376D01*
X159823337Y-115519811D01*
X159816539Y-115560861D01*
X159810500Y-115600311D01*
X159805436Y-115636949D01*
X159803306Y-115654112D01*
X159798642Y-115703827D01*
X159796448Y-115752696D01*
X159539534Y-115752696D01*
X159544419Y-115687679D01*
X159549805Y-115639842D01*
X159558559Y-115576957D01*
X159568864Y-115514010D01*
X159580541Y-115451778D01*
X159593411Y-115391039D01*
X159607295Y-115332569D01*
X159622016Y-115277146D01*
X159637394Y-115225546D01*
X159653251Y-115178546D01*
X159660002Y-115160389D01*
X159682699Y-115105643D01*
X159706909Y-115056038D01*
X159732894Y-115011143D01*
X159760916Y-114970530D01*
X159791238Y-114933770D01*
X159811949Y-114912089D01*
X159847740Y-114879834D01*
X159885488Y-114852096D01*
X159925823Y-114828536D01*
X159969376Y-114808815D01*
X160016778Y-114792593D01*
X160050461Y-114783642D01*
X160111441Y-114771685D01*
X160175572Y-114764123D01*
X160242368Y-114760954D01*
X160311343Y-114762173D01*
G36*
X162798868Y-114481859D02*
X162798157Y-114485611D01*
X162796589Y-114494303D01*
X162794267Y-114507336D01*
X162791296Y-114524108D01*
X162787783Y-114544021D01*
X162783832Y-114566473D01*
X162779548Y-114590864D01*
X162775036Y-114616595D01*
X162770400Y-114643064D01*
X162765747Y-114669673D01*
X162761180Y-114695821D01*
X162756805Y-114720907D01*
X162752727Y-114744331D01*
X162749051Y-114765494D01*
X162745882Y-114783794D01*
X162743325Y-114798633D01*
X162741484Y-114809409D01*
X162740465Y-114815523D01*
X162740292Y-114816703D01*
X162743070Y-114816907D01*
X162751098Y-114817121D01*
X162763920Y-114817340D01*
X162781077Y-114817559D01*
X162802113Y-114817774D01*
X162826570Y-114817981D01*
X162853990Y-114818176D01*
X162883917Y-114818353D01*
X162915894Y-114818509D01*
X162939493Y-114818604D01*
X163138694Y-114819337D01*
X163127457Y-114882590D01*
X163116219Y-114945843D01*
X163105913Y-114948640D01*
X163098615Y-114950624D01*
X163087646Y-114953612D01*
X163074842Y-114957102D01*
X163068253Y-114958899D01*
X163009595Y-114973118D01*
X162948363Y-114984627D01*
X162886274Y-114993193D01*
X162825044Y-114998581D01*
X162766388Y-115000556D01*
X162763432Y-115000561D01*
X162706499Y-115000561D01*
X162704889Y-115008410D01*
X162704097Y-115012716D01*
X162702405Y-115022247D01*
X162699883Y-115036604D01*
X162696599Y-115055385D01*
X162692624Y-115078193D01*
X162688025Y-115104625D01*
X162682873Y-115134284D01*
X162677236Y-115166768D01*
X162671184Y-115201678D01*
X162664785Y-115238613D01*
X162658109Y-115277175D01*
X162651224Y-115316962D01*
X162644201Y-115357576D01*
X162637107Y-115398616D01*
X162630012Y-115439682D01*
X162622986Y-115480374D01*
X162616096Y-115520293D01*
X162609414Y-115559038D01*
X162603006Y-115596210D01*
X162596943Y-115631408D01*
X162591294Y-115664233D01*
X162586128Y-115694285D01*
X162581514Y-115721164D01*
X162577521Y-115744469D01*
X162574218Y-115763802D01*
X162571674Y-115778762D01*
X162569958Y-115788949D01*
X162569142Y-115793955D01*
X162564900Y-115832407D01*
X162563771Y-115870073D01*
X162565672Y-115906109D01*
X162570520Y-115939669D01*
X162578234Y-115969906D01*
X162588728Y-115995976D01*
X162588973Y-115996464D01*
X162597130Y-116009859D01*
X162608096Y-116024112D01*
X162620459Y-116037647D01*
X162632803Y-116048889D01*
X162641585Y-116055096D01*
X162647823Y-116058603D01*
X162653949Y-116061580D01*
X162660484Y-116064074D01*
X162667943Y-116066134D01*
X162676845Y-116067809D01*
X162687707Y-116069146D01*
X162701048Y-116070194D01*
X162717385Y-116071002D01*
X162737235Y-116071618D01*
X162761117Y-116072090D01*
X162789547Y-116072467D01*
X162823045Y-116072797D01*
X162831829Y-116072874D01*
X162973309Y-116074096D01*
X162965304Y-116120245D01*
X162961746Y-116140959D01*
X162958969Y-116156800D01*
X162956649Y-116168494D01*
X162954460Y-116176769D01*
X162952078Y-116182349D01*
X162949177Y-116185962D01*
X162945432Y-116188335D01*
X162940518Y-116190193D01*
X162934110Y-116192263D01*
X162932884Y-116192677D01*
X162904501Y-116201359D01*
X162871507Y-116209713D01*
X162834996Y-116217525D01*
X162796065Y-116224583D01*
X162755807Y-116230673D01*
X162715319Y-116235583D01*
X162708318Y-116236302D01*
X162673926Y-116239322D01*
X162643686Y-116241016D01*
X162616206Y-116241412D01*
X162590091Y-116240534D01*
X162568240Y-116238835D01*
X162523382Y-116232772D01*
X162483216Y-116223585D01*
X162447556Y-116211114D01*
X162416214Y-116195199D01*
X162389004Y-116175679D01*
X162365740Y-116152395D01*
X162346235Y-116125186D01*
X162330302Y-116093892D01*
X162317757Y-116058353D01*
X162308411Y-116018408D01*
X162307816Y-116015134D01*
X162305823Y-115999756D01*
X162304394Y-115980007D01*
X162303541Y-115957196D01*
X162303274Y-115932632D01*
X162303606Y-115907627D01*
X162304548Y-115883489D01*
X162306111Y-115861529D01*
X162306433Y-115858168D01*
X162307205Y-115850604D01*
X162308008Y-115843157D01*
X162308892Y-115835522D01*
X162309907Y-115827397D01*
X162311105Y-115818476D01*
X162312535Y-115808455D01*
X162314246Y-115797032D01*
X162316291Y-115783901D01*
X162318717Y-115768758D01*
X162321577Y-115751300D01*
X162324919Y-115731222D01*
X162328795Y-115708220D01*
X162333254Y-115681990D01*
X162338346Y-115652229D01*
X162344123Y-115618632D01*
X162350633Y-115580895D01*
X162357927Y-115538713D01*
X162366055Y-115491784D01*
X162375068Y-115439803D01*
X162383756Y-115389729D01*
X162391675Y-115344043D01*
X162399321Y-115299852D01*
X162406635Y-115257489D01*
X162413562Y-115217286D01*
X162420044Y-115179575D01*
X162426025Y-115144688D01*
X162431449Y-115112956D01*
X162436258Y-115084712D01*
X162440396Y-115060288D01*
X162443805Y-115040016D01*
X162446431Y-115024228D01*
X162448215Y-115013255D01*
X162449101Y-115007430D01*
X162449191Y-115006589D01*
X162449076Y-115004864D01*
X162448325Y-115003504D01*
X162446333Y-115002466D01*
X162442492Y-115001706D01*
X162436196Y-115001181D01*
X162426838Y-115000848D01*
X162413811Y-115000662D01*
X162396509Y-115000581D01*
X162374324Y-115000562D01*
X162365000Y-115000561D01*
X162339780Y-115000510D01*
X162319779Y-115000342D01*
X162304509Y-115000036D01*
X162293482Y-114999572D01*
X162286210Y-114998929D01*
X162282206Y-114998086D01*
X162280981Y-114997023D01*
X162280981Y-114996994D01*
X162281533Y-114993395D01*
X162283015Y-114984898D01*
X162285296Y-114972214D01*
X162288248Y-114956056D01*
X162291741Y-114937134D01*
X162295645Y-114916159D01*
X162297476Y-114906382D01*
X162313798Y-114819337D01*
X162399466Y-114818582D01*
X162485134Y-114817828D01*
X162514966Y-114646635D01*
X162544798Y-114475443D01*
X162672566Y-114475440D01*
X162800334Y-114475438D01*
X162798868Y-114481859D01*
X162798868Y-114481859D01*
G37*
X162798868Y-114481859D02*
X162798157Y-114485611D01*
X162796589Y-114494303D01*
X162794267Y-114507336D01*
X162791296Y-114524108D01*
X162787783Y-114544021D01*
X162783832Y-114566473D01*
X162779548Y-114590864D01*
X162775036Y-114616595D01*
X162770400Y-114643064D01*
X162765747Y-114669673D01*
X162761180Y-114695821D01*
X162756805Y-114720907D01*
X162752727Y-114744331D01*
X162749051Y-114765494D01*
X162745882Y-114783794D01*
X162743325Y-114798633D01*
X162741484Y-114809409D01*
X162740465Y-114815523D01*
X162740292Y-114816703D01*
X162743070Y-114816907D01*
X162751098Y-114817121D01*
X162763920Y-114817340D01*
X162781077Y-114817559D01*
X162802113Y-114817774D01*
X162826570Y-114817981D01*
X162853990Y-114818176D01*
X162883917Y-114818353D01*
X162915894Y-114818509D01*
X162939493Y-114818604D01*
X163138694Y-114819337D01*
X163127457Y-114882590D01*
X163116219Y-114945843D01*
X163105913Y-114948640D01*
X163098615Y-114950624D01*
X163087646Y-114953612D01*
X163074842Y-114957102D01*
X163068253Y-114958899D01*
X163009595Y-114973118D01*
X162948363Y-114984627D01*
X162886274Y-114993193D01*
X162825044Y-114998581D01*
X162766388Y-115000556D01*
X162763432Y-115000561D01*
X162706499Y-115000561D01*
X162704889Y-115008410D01*
X162704097Y-115012716D01*
X162702405Y-115022247D01*
X162699883Y-115036604D01*
X162696599Y-115055385D01*
X162692624Y-115078193D01*
X162688025Y-115104625D01*
X162682873Y-115134284D01*
X162677236Y-115166768D01*
X162671184Y-115201678D01*
X162664785Y-115238613D01*
X162658109Y-115277175D01*
X162651224Y-115316962D01*
X162644201Y-115357576D01*
X162637107Y-115398616D01*
X162630012Y-115439682D01*
X162622986Y-115480374D01*
X162616096Y-115520293D01*
X162609414Y-115559038D01*
X162603006Y-115596210D01*
X162596943Y-115631408D01*
X162591294Y-115664233D01*
X162586128Y-115694285D01*
X162581514Y-115721164D01*
X162577521Y-115744469D01*
X162574218Y-115763802D01*
X162571674Y-115778762D01*
X162569958Y-115788949D01*
X162569142Y-115793955D01*
X162564900Y-115832407D01*
X162563771Y-115870073D01*
X162565672Y-115906109D01*
X162570520Y-115939669D01*
X162578234Y-115969906D01*
X162588728Y-115995976D01*
X162588973Y-115996464D01*
X162597130Y-116009859D01*
X162608096Y-116024112D01*
X162620459Y-116037647D01*
X162632803Y-116048889D01*
X162641585Y-116055096D01*
X162647823Y-116058603D01*
X162653949Y-116061580D01*
X162660484Y-116064074D01*
X162667943Y-116066134D01*
X162676845Y-116067809D01*
X162687707Y-116069146D01*
X162701048Y-116070194D01*
X162717385Y-116071002D01*
X162737235Y-116071618D01*
X162761117Y-116072090D01*
X162789547Y-116072467D01*
X162823045Y-116072797D01*
X162831829Y-116072874D01*
X162973309Y-116074096D01*
X162965304Y-116120245D01*
X162961746Y-116140959D01*
X162958969Y-116156800D01*
X162956649Y-116168494D01*
X162954460Y-116176769D01*
X162952078Y-116182349D01*
X162949177Y-116185962D01*
X162945432Y-116188335D01*
X162940518Y-116190193D01*
X162934110Y-116192263D01*
X162932884Y-116192677D01*
X162904501Y-116201359D01*
X162871507Y-116209713D01*
X162834996Y-116217525D01*
X162796065Y-116224583D01*
X162755807Y-116230673D01*
X162715319Y-116235583D01*
X162708318Y-116236302D01*
X162673926Y-116239322D01*
X162643686Y-116241016D01*
X162616206Y-116241412D01*
X162590091Y-116240534D01*
X162568240Y-116238835D01*
X162523382Y-116232772D01*
X162483216Y-116223585D01*
X162447556Y-116211114D01*
X162416214Y-116195199D01*
X162389004Y-116175679D01*
X162365740Y-116152395D01*
X162346235Y-116125186D01*
X162330302Y-116093892D01*
X162317757Y-116058353D01*
X162308411Y-116018408D01*
X162307816Y-116015134D01*
X162305823Y-115999756D01*
X162304394Y-115980007D01*
X162303541Y-115957196D01*
X162303274Y-115932632D01*
X162303606Y-115907627D01*
X162304548Y-115883489D01*
X162306111Y-115861529D01*
X162306433Y-115858168D01*
X162307205Y-115850604D01*
X162308008Y-115843157D01*
X162308892Y-115835522D01*
X162309907Y-115827397D01*
X162311105Y-115818476D01*
X162312535Y-115808455D01*
X162314246Y-115797032D01*
X162316291Y-115783901D01*
X162318717Y-115768758D01*
X162321577Y-115751300D01*
X162324919Y-115731222D01*
X162328795Y-115708220D01*
X162333254Y-115681990D01*
X162338346Y-115652229D01*
X162344123Y-115618632D01*
X162350633Y-115580895D01*
X162357927Y-115538713D01*
X162366055Y-115491784D01*
X162375068Y-115439803D01*
X162383756Y-115389729D01*
X162391675Y-115344043D01*
X162399321Y-115299852D01*
X162406635Y-115257489D01*
X162413562Y-115217286D01*
X162420044Y-115179575D01*
X162426025Y-115144688D01*
X162431449Y-115112956D01*
X162436258Y-115084712D01*
X162440396Y-115060288D01*
X162443805Y-115040016D01*
X162446431Y-115024228D01*
X162448215Y-115013255D01*
X162449101Y-115007430D01*
X162449191Y-115006589D01*
X162449076Y-115004864D01*
X162448325Y-115003504D01*
X162446333Y-115002466D01*
X162442492Y-115001706D01*
X162436196Y-115001181D01*
X162426838Y-115000848D01*
X162413811Y-115000662D01*
X162396509Y-115000581D01*
X162374324Y-115000562D01*
X162365000Y-115000561D01*
X162339780Y-115000510D01*
X162319779Y-115000342D01*
X162304509Y-115000036D01*
X162293482Y-114999572D01*
X162286210Y-114998929D01*
X162282206Y-114998086D01*
X162280981Y-114997023D01*
X162280981Y-114996994D01*
X162281533Y-114993395D01*
X162283015Y-114984898D01*
X162285296Y-114972214D01*
X162288248Y-114956056D01*
X162291741Y-114937134D01*
X162295645Y-114916159D01*
X162297476Y-114906382D01*
X162313798Y-114819337D01*
X162399466Y-114818582D01*
X162485134Y-114817828D01*
X162514966Y-114646635D01*
X162544798Y-114475443D01*
X162672566Y-114475440D01*
X162800334Y-114475438D01*
X162798868Y-114481859D01*
G36*
X164036971Y-114191549D02*
X164090019Y-114193652D01*
X164143322Y-114197410D01*
X164195914Y-114202738D01*
X164246832Y-114209553D01*
X164295111Y-114217771D01*
X164339786Y-114227308D01*
X164379893Y-114238081D01*
X164382168Y-114238776D01*
X164395047Y-114242911D01*
X164403233Y-114246061D01*
X164407565Y-114248650D01*
X164408880Y-114251103D01*
X164408719Y-114252248D01*
X164407908Y-114256075D01*
X164406319Y-114264416D01*
X164404133Y-114276249D01*
X164401532Y-114290553D01*
X164398699Y-114306306D01*
X164395816Y-114322487D01*
X164393064Y-114338074D01*
X164390626Y-114352047D01*
X164388684Y-114363383D01*
X164387419Y-114371063D01*
X164387011Y-114374016D01*
X164384230Y-114374229D01*
X164376174Y-114374455D01*
X164363276Y-114374690D01*
X164345971Y-114374928D01*
X164324691Y-114375167D01*
X164299870Y-114375401D01*
X164271941Y-114375626D01*
X164241337Y-114375837D01*
X164208492Y-114376032D01*
X164173840Y-114376204D01*
X164165118Y-114376243D01*
X164122242Y-114376431D01*
X164084631Y-114376621D01*
X164051842Y-114376844D01*
X164023430Y-114377128D01*
X163998954Y-114377502D01*
X163977970Y-114377995D01*
X163960035Y-114378636D01*
X163944705Y-114379454D01*
X163931538Y-114380479D01*
X163920091Y-114381739D01*
X163909919Y-114383264D01*
X163900581Y-114385082D01*
X163891633Y-114387222D01*
X163882631Y-114389714D01*
X163873133Y-114392587D01*
X163862696Y-114395869D01*
X163861888Y-114396125D01*
X163823580Y-114410214D01*
X163789570Y-114427070D01*
X163758880Y-114447281D01*
X163730534Y-114471431D01*
X163721711Y-114480177D01*
X163693766Y-114512872D01*
X163669634Y-114549563D01*
X163649460Y-114589873D01*
X163633391Y-114633423D01*
X163621571Y-114679836D01*
X163614147Y-114728733D01*
X163611587Y-114765783D01*
X163611304Y-114799546D01*
X163613245Y-114829047D01*
X163617736Y-114855405D01*
X163625104Y-114879741D01*
X163635675Y-114903177D01*
X163649777Y-114926832D01*
X163664643Y-114947764D01*
X163678773Y-114965520D01*
X163693806Y-114982301D01*
X163710176Y-114998405D01*
X163728318Y-115014128D01*
X163748665Y-115029765D01*
X163771652Y-115045612D01*
X163797712Y-115061967D01*
X163827279Y-115079125D01*
X163860788Y-115097383D01*
X163898671Y-115117036D01*
X163941364Y-115138381D01*
X163950360Y-115142802D01*
X163981880Y-115158646D01*
X164009182Y-115173318D01*
X164033428Y-115187555D01*
X164055781Y-115202091D01*
X164077402Y-115217660D01*
X164099455Y-115234998D01*
X164110180Y-115243867D01*
X164139547Y-115270005D01*
X164164485Y-115295763D01*
X164186024Y-115322414D01*
X164205198Y-115351232D01*
X164222529Y-115382491D01*
X164237269Y-115413847D01*
X164248487Y-115443922D01*
X164256508Y-115474127D01*
X164261652Y-115505875D01*
X164264245Y-115540577D01*
X164264713Y-115567067D01*
X164262506Y-115622995D01*
X164255888Y-115679387D01*
X164248844Y-115718533D01*
X164234567Y-115780803D01*
X164218052Y-115838005D01*
X164199127Y-115890394D01*
X164177621Y-115938221D01*
X164153362Y-115981740D01*
X164126178Y-116021205D01*
X164095898Y-116056868D01*
X164062349Y-116088983D01*
X164025360Y-116117802D01*
X163984759Y-116143580D01*
X163947133Y-116163360D01*
X163908482Y-116180635D01*
X163869286Y-116195320D01*
X163828604Y-116207661D01*
X163785494Y-116217901D01*
X163739013Y-116226283D01*
X163688219Y-116233053D01*
X163670674Y-116234941D01*
X163656972Y-116236059D01*
X163638816Y-116237122D01*
X163617200Y-116238108D01*
X163593118Y-116238994D01*
X163567563Y-116239757D01*
X163541528Y-116240374D01*
X163516007Y-116240823D01*
X163491994Y-116241080D01*
X163470481Y-116241122D01*
X163452463Y-116240927D01*
X163438933Y-116240472D01*
X163436652Y-116240334D01*
X163397909Y-116237565D01*
X163363736Y-116234759D01*
X163332994Y-116231779D01*
X163304548Y-116228490D01*
X163277260Y-116224756D01*
X163249991Y-116220442D01*
X163221606Y-116215412D01*
X163211191Y-116213457D01*
X163193882Y-116209976D01*
X163175748Y-116206003D01*
X163157726Y-116201778D01*
X163140750Y-116197539D01*
X163125753Y-116193529D01*
X163113671Y-116189985D01*
X163105437Y-116187148D01*
X163102141Y-116185452D01*
X163102129Y-116182320D01*
X163102980Y-116174553D01*
X163104536Y-116163133D01*
X163106640Y-116149041D01*
X163109134Y-116133258D01*
X163111860Y-116116765D01*
X163114662Y-116100545D01*
X163117381Y-116085578D01*
X163119861Y-116072845D01*
X163121295Y-116066118D01*
X163122665Y-116060022D01*
X163347439Y-116058497D01*
X163392237Y-116058178D01*
X163431792Y-116057848D01*
X163466569Y-116057483D01*
X163497033Y-116057060D01*
X163523649Y-116056552D01*
X163546883Y-116055937D01*
X163567198Y-116055190D01*
X163585061Y-116054285D01*
X163600935Y-116053199D01*
X163615287Y-116051908D01*
X163628581Y-116050386D01*
X163641281Y-116048609D01*
X163653854Y-116046553D01*
X163666764Y-116044194D01*
X163680475Y-116041506D01*
X163683997Y-116040797D01*
X163730310Y-116029598D01*
X163771879Y-116015605D01*
X163809019Y-115998670D01*
X163842043Y-115978643D01*
X163871266Y-115955373D01*
X163879206Y-115947869D01*
X163905562Y-115919166D01*
X163928595Y-115887923D01*
X163948550Y-115853630D01*
X163965674Y-115815775D01*
X163980213Y-115773849D01*
X163992411Y-115727340D01*
X163997905Y-115701202D01*
X164000412Y-115684285D01*
X164002124Y-115664303D01*
X164003042Y-115642633D01*
X164003168Y-115620650D01*
X164002500Y-115599732D01*
X164001040Y-115581254D01*
X163998788Y-115566593D01*
X163997859Y-115562786D01*
X163989856Y-115539384D01*
X163978863Y-115516803D01*
X163964284Y-115494053D01*
X163945524Y-115470143D01*
X163934771Y-115457866D01*
X163917688Y-115440801D01*
X163896334Y-115422809D01*
X163870540Y-115403780D01*
X163840132Y-115383604D01*
X163804938Y-115362172D01*
X163764787Y-115339374D01*
X163719506Y-115315101D01*
X163674955Y-115292270D01*
X163642955Y-115275892D01*
X163615292Y-115261077D01*
X163591013Y-115247250D01*
X163569162Y-115233837D01*
X163548783Y-115220266D01*
X163528923Y-115205963D01*
X163520080Y-115199274D01*
X163481719Y-115166722D01*
X163448298Y-115131555D01*
X163419479Y-115093321D01*
X163394922Y-115051570D01*
X163374451Y-115006269D01*
X163362811Y-114970080D01*
X163354658Y-114929815D01*
X163349988Y-114885918D01*
X163348798Y-114838832D01*
X163351087Y-114788998D01*
X163356850Y-114736859D01*
X163366086Y-114682858D01*
X163376805Y-114635258D01*
X163393905Y-114575991D01*
X163414499Y-114521192D01*
X163438655Y-114470763D01*
X163466443Y-114424606D01*
X163497932Y-114382622D01*
X163533191Y-114344714D01*
X163572289Y-114310783D01*
X163615296Y-114280731D01*
X163634296Y-114269382D01*
X163669336Y-114251685D01*
X163708905Y-114235774D01*
X163752029Y-114221932D01*
X163797731Y-114210439D01*
X163845037Y-114201575D01*
X163889000Y-114195998D01*
X163935497Y-114192638D01*
X163985142Y-114191183D01*
X164036971Y-114191549D01*
X164036971Y-114191549D01*
G37*
X164036971Y-114191549D02*
X164090019Y-114193652D01*
X164143322Y-114197410D01*
X164195914Y-114202738D01*
X164246832Y-114209553D01*
X164295111Y-114217771D01*
X164339786Y-114227308D01*
X164379893Y-114238081D01*
X164382168Y-114238776D01*
X164395047Y-114242911D01*
X164403233Y-114246061D01*
X164407565Y-114248650D01*
X164408880Y-114251103D01*
X164408719Y-114252248D01*
X164407908Y-114256075D01*
X164406319Y-114264416D01*
X164404133Y-114276249D01*
X164401532Y-114290553D01*
X164398699Y-114306306D01*
X164395816Y-114322487D01*
X164393064Y-114338074D01*
X164390626Y-114352047D01*
X164388684Y-114363383D01*
X164387419Y-114371063D01*
X164387011Y-114374016D01*
X164384230Y-114374229D01*
X164376174Y-114374455D01*
X164363276Y-114374690D01*
X164345971Y-114374928D01*
X164324691Y-114375167D01*
X164299870Y-114375401D01*
X164271941Y-114375626D01*
X164241337Y-114375837D01*
X164208492Y-114376032D01*
X164173840Y-114376204D01*
X164165118Y-114376243D01*
X164122242Y-114376431D01*
X164084631Y-114376621D01*
X164051842Y-114376844D01*
X164023430Y-114377128D01*
X163998954Y-114377502D01*
X163977970Y-114377995D01*
X163960035Y-114378636D01*
X163944705Y-114379454D01*
X163931538Y-114380479D01*
X163920091Y-114381739D01*
X163909919Y-114383264D01*
X163900581Y-114385082D01*
X163891633Y-114387222D01*
X163882631Y-114389714D01*
X163873133Y-114392587D01*
X163862696Y-114395869D01*
X163861888Y-114396125D01*
X163823580Y-114410214D01*
X163789570Y-114427070D01*
X163758880Y-114447281D01*
X163730534Y-114471431D01*
X163721711Y-114480177D01*
X163693766Y-114512872D01*
X163669634Y-114549563D01*
X163649460Y-114589873D01*
X163633391Y-114633423D01*
X163621571Y-114679836D01*
X163614147Y-114728733D01*
X163611587Y-114765783D01*
X163611304Y-114799546D01*
X163613245Y-114829047D01*
X163617736Y-114855405D01*
X163625104Y-114879741D01*
X163635675Y-114903177D01*
X163649777Y-114926832D01*
X163664643Y-114947764D01*
X163678773Y-114965520D01*
X163693806Y-114982301D01*
X163710176Y-114998405D01*
X163728318Y-115014128D01*
X163748665Y-115029765D01*
X163771652Y-115045612D01*
X163797712Y-115061967D01*
X163827279Y-115079125D01*
X163860788Y-115097383D01*
X163898671Y-115117036D01*
X163941364Y-115138381D01*
X163950360Y-115142802D01*
X163981880Y-115158646D01*
X164009182Y-115173318D01*
X164033428Y-115187555D01*
X164055781Y-115202091D01*
X164077402Y-115217660D01*
X164099455Y-115234998D01*
X164110180Y-115243867D01*
X164139547Y-115270005D01*
X164164485Y-115295763D01*
X164186024Y-115322414D01*
X164205198Y-115351232D01*
X164222529Y-115382491D01*
X164237269Y-115413847D01*
X164248487Y-115443922D01*
X164256508Y-115474127D01*
X164261652Y-115505875D01*
X164264245Y-115540577D01*
X164264713Y-115567067D01*
X164262506Y-115622995D01*
X164255888Y-115679387D01*
X164248844Y-115718533D01*
X164234567Y-115780803D01*
X164218052Y-115838005D01*
X164199127Y-115890394D01*
X164177621Y-115938221D01*
X164153362Y-115981740D01*
X164126178Y-116021205D01*
X164095898Y-116056868D01*
X164062349Y-116088983D01*
X164025360Y-116117802D01*
X163984759Y-116143580D01*
X163947133Y-116163360D01*
X163908482Y-116180635D01*
X163869286Y-116195320D01*
X163828604Y-116207661D01*
X163785494Y-116217901D01*
X163739013Y-116226283D01*
X163688219Y-116233053D01*
X163670674Y-116234941D01*
X163656972Y-116236059D01*
X163638816Y-116237122D01*
X163617200Y-116238108D01*
X163593118Y-116238994D01*
X163567563Y-116239757D01*
X163541528Y-116240374D01*
X163516007Y-116240823D01*
X163491994Y-116241080D01*
X163470481Y-116241122D01*
X163452463Y-116240927D01*
X163438933Y-116240472D01*
X163436652Y-116240334D01*
X163397909Y-116237565D01*
X163363736Y-116234759D01*
X163332994Y-116231779D01*
X163304548Y-116228490D01*
X163277260Y-116224756D01*
X163249991Y-116220442D01*
X163221606Y-116215412D01*
X163211191Y-116213457D01*
X163193882Y-116209976D01*
X163175748Y-116206003D01*
X163157726Y-116201778D01*
X163140750Y-116197539D01*
X163125753Y-116193529D01*
X163113671Y-116189985D01*
X163105437Y-116187148D01*
X163102141Y-116185452D01*
X163102129Y-116182320D01*
X163102980Y-116174553D01*
X163104536Y-116163133D01*
X163106640Y-116149041D01*
X163109134Y-116133258D01*
X163111860Y-116116765D01*
X163114662Y-116100545D01*
X163117381Y-116085578D01*
X163119861Y-116072845D01*
X163121295Y-116066118D01*
X163122665Y-116060022D01*
X163347439Y-116058497D01*
X163392237Y-116058178D01*
X163431792Y-116057848D01*
X163466569Y-116057483D01*
X163497033Y-116057060D01*
X163523649Y-116056552D01*
X163546883Y-116055937D01*
X163567198Y-116055190D01*
X163585061Y-116054285D01*
X163600935Y-116053199D01*
X163615287Y-116051908D01*
X163628581Y-116050386D01*
X163641281Y-116048609D01*
X163653854Y-116046553D01*
X163666764Y-116044194D01*
X163680475Y-116041506D01*
X163683997Y-116040797D01*
X163730310Y-116029598D01*
X163771879Y-116015605D01*
X163809019Y-115998670D01*
X163842043Y-115978643D01*
X163871266Y-115955373D01*
X163879206Y-115947869D01*
X163905562Y-115919166D01*
X163928595Y-115887923D01*
X163948550Y-115853630D01*
X163965674Y-115815775D01*
X163980213Y-115773849D01*
X163992411Y-115727340D01*
X163997905Y-115701202D01*
X164000412Y-115684285D01*
X164002124Y-115664303D01*
X164003042Y-115642633D01*
X164003168Y-115620650D01*
X164002500Y-115599732D01*
X164001040Y-115581254D01*
X163998788Y-115566593D01*
X163997859Y-115562786D01*
X163989856Y-115539384D01*
X163978863Y-115516803D01*
X163964284Y-115494053D01*
X163945524Y-115470143D01*
X163934771Y-115457866D01*
X163917688Y-115440801D01*
X163896334Y-115422809D01*
X163870540Y-115403780D01*
X163840132Y-115383604D01*
X163804938Y-115362172D01*
X163764787Y-115339374D01*
X163719506Y-115315101D01*
X163674955Y-115292270D01*
X163642955Y-115275892D01*
X163615292Y-115261077D01*
X163591013Y-115247250D01*
X163569162Y-115233837D01*
X163548783Y-115220266D01*
X163528923Y-115205963D01*
X163520080Y-115199274D01*
X163481719Y-115166722D01*
X163448298Y-115131555D01*
X163419479Y-115093321D01*
X163394922Y-115051570D01*
X163374451Y-115006269D01*
X163362811Y-114970080D01*
X163354658Y-114929815D01*
X163349988Y-114885918D01*
X163348798Y-114838832D01*
X163351087Y-114788998D01*
X163356850Y-114736859D01*
X163366086Y-114682858D01*
X163376805Y-114635258D01*
X163393905Y-114575991D01*
X163414499Y-114521192D01*
X163438655Y-114470763D01*
X163466443Y-114424606D01*
X163497932Y-114382622D01*
X163533191Y-114344714D01*
X163572289Y-114310783D01*
X163615296Y-114280731D01*
X163634296Y-114269382D01*
X163669336Y-114251685D01*
X163708905Y-114235774D01*
X163752029Y-114221932D01*
X163797731Y-114210439D01*
X163845037Y-114201575D01*
X163889000Y-114195998D01*
X163935497Y-114192638D01*
X163985142Y-114191183D01*
X164036971Y-114191549D01*
G36*
X165053413Y-114481859D02*
X165052686Y-114485639D01*
X165051101Y-114494363D01*
X165048765Y-114507428D01*
X165045783Y-114524233D01*
X165042258Y-114544176D01*
X165038298Y-114566657D01*
X165034007Y-114591073D01*
X165029490Y-114616822D01*
X165024852Y-114643303D01*
X165020199Y-114669915D01*
X165015636Y-114696056D01*
X165011268Y-114721124D01*
X165007201Y-114744518D01*
X165003539Y-114765636D01*
X165000388Y-114783876D01*
X164997853Y-114798638D01*
X164996039Y-114809318D01*
X164995052Y-114815317D01*
X164994899Y-114816407D01*
X164997677Y-114816661D01*
X165005705Y-114816921D01*
X165018526Y-114817183D01*
X165035682Y-114817442D01*
X165056717Y-114817692D01*
X165081172Y-114817929D01*
X165108590Y-114818147D01*
X165138514Y-114818341D01*
X165170485Y-114818507D01*
X165193991Y-114818604D01*
X165393082Y-114819337D01*
X165381869Y-114882612D01*
X165370657Y-114945886D01*
X165360435Y-114948662D01*
X165353178Y-114950636D01*
X165342243Y-114953614D01*
X165329461Y-114957098D01*
X165322860Y-114958899D01*
X165264202Y-114973118D01*
X165202970Y-114984627D01*
X165140881Y-114993193D01*
X165079651Y-114998581D01*
X165020995Y-115000556D01*
X165018039Y-115000561D01*
X164961105Y-115000561D01*
X164959446Y-115008410D01*
X164958010Y-115015749D01*
X164955720Y-115028176D01*
X164952642Y-115045290D01*
X164948847Y-115066687D01*
X164944402Y-115091968D01*
X164939377Y-115120730D01*
X164933839Y-115152572D01*
X164927858Y-115187093D01*
X164921501Y-115223891D01*
X164914838Y-115262564D01*
X164907937Y-115302711D01*
X164900866Y-115343930D01*
X164893695Y-115385821D01*
X164886491Y-115427981D01*
X164879324Y-115470009D01*
X164872261Y-115511503D01*
X164865372Y-115552063D01*
X164858724Y-115591285D01*
X164852387Y-115628770D01*
X164846430Y-115664115D01*
X164840919Y-115696919D01*
X164835925Y-115726781D01*
X164831516Y-115753298D01*
X164827759Y-115776070D01*
X164824725Y-115794695D01*
X164822481Y-115808771D01*
X164821096Y-115817897D01*
X164820680Y-115821067D01*
X164818261Y-115861292D01*
X164819426Y-115899086D01*
X164824060Y-115934084D01*
X164832045Y-115965924D01*
X164843261Y-115994241D01*
X164857593Y-116018672D01*
X164874922Y-116038854D01*
X164895131Y-116054422D01*
X164896477Y-116055228D01*
X164902643Y-116058707D01*
X164908724Y-116061660D01*
X164915237Y-116064135D01*
X164922699Y-116066180D01*
X164931626Y-116067842D01*
X164942536Y-116069170D01*
X164955943Y-116070212D01*
X164972366Y-116071015D01*
X164992321Y-116071628D01*
X165016324Y-116072099D01*
X165044893Y-116072475D01*
X165078543Y-116072805D01*
X165086380Y-116072874D01*
X165227804Y-116074096D01*
X165218454Y-116127254D01*
X165215456Y-116144110D01*
X165212727Y-116159100D01*
X165210443Y-116171289D01*
X165208779Y-116179741D01*
X165207910Y-116183522D01*
X165207902Y-116183542D01*
X165204714Y-116185693D01*
X165196976Y-116188908D01*
X165185678Y-116192880D01*
X165171812Y-116197305D01*
X165156367Y-116201878D01*
X165140336Y-116206292D01*
X165124709Y-116210242D01*
X165111910Y-116213128D01*
X165056727Y-116223652D01*
X165003770Y-116231763D01*
X164953601Y-116237410D01*
X164906780Y-116240544D01*
X164863865Y-116241114D01*
X164825418Y-116239070D01*
X164824164Y-116238951D01*
X164779643Y-116232953D01*
X164739818Y-116223968D01*
X164704473Y-116211918D01*
X164673392Y-116196720D01*
X164646358Y-116178295D01*
X164635168Y-116168664D01*
X164621464Y-116154991D01*
X164610344Y-116141328D01*
X164600407Y-116125756D01*
X164591509Y-116108914D01*
X164578307Y-116077772D01*
X164568298Y-116043864D01*
X164561450Y-116006847D01*
X164557733Y-115966376D01*
X164557117Y-115922109D01*
X164559571Y-115873700D01*
X164565065Y-115820806D01*
X164565540Y-115817098D01*
X164566545Y-115810292D01*
X164568470Y-115798222D01*
X164571253Y-115781248D01*
X164574834Y-115759727D01*
X164579150Y-115734019D01*
X164584142Y-115704483D01*
X164589748Y-115671478D01*
X164595907Y-115635364D01*
X164602558Y-115596498D01*
X164609640Y-115555240D01*
X164617092Y-115511949D01*
X164624853Y-115466984D01*
X164632862Y-115420704D01*
X164636816Y-115397898D01*
X164644829Y-115351675D01*
X164652568Y-115306951D01*
X164659978Y-115264053D01*
X164667002Y-115223308D01*
X164673584Y-115185046D01*
X164679669Y-115149592D01*
X164685201Y-115117275D01*
X164690122Y-115088422D01*
X164694379Y-115063360D01*
X164697913Y-115042417D01*
X164700670Y-115025921D01*
X164702594Y-115014199D01*
X164703628Y-115007579D01*
X164703798Y-115006196D01*
X164703616Y-115004586D01*
X164702668Y-115003315D01*
X164700348Y-115002345D01*
X164696052Y-115001634D01*
X164689174Y-115001142D01*
X164679111Y-115000830D01*
X164665257Y-115000655D01*
X164647007Y-115000579D01*
X164623757Y-115000562D01*
X164619274Y-115000561D01*
X164534751Y-115000561D01*
X164536256Y-114992713D01*
X164537140Y-114987969D01*
X164538905Y-114978389D01*
X164541409Y-114964750D01*
X164544509Y-114947831D01*
X164548062Y-114928411D01*
X164551925Y-114907268D01*
X164552998Y-114901388D01*
X164568236Y-114817911D01*
X164653899Y-114817910D01*
X164739562Y-114817910D01*
X164769438Y-114646674D01*
X164799315Y-114475438D01*
X165054940Y-114475438D01*
X165053413Y-114481859D01*
X165053413Y-114481859D01*
G37*
X165053413Y-114481859D02*
X165052686Y-114485639D01*
X165051101Y-114494363D01*
X165048765Y-114507428D01*
X165045783Y-114524233D01*
X165042258Y-114544176D01*
X165038298Y-114566657D01*
X165034007Y-114591073D01*
X165029490Y-114616822D01*
X165024852Y-114643303D01*
X165020199Y-114669915D01*
X165015636Y-114696056D01*
X165011268Y-114721124D01*
X165007201Y-114744518D01*
X165003539Y-114765636D01*
X165000388Y-114783876D01*
X164997853Y-114798638D01*
X164996039Y-114809318D01*
X164995052Y-114815317D01*
X164994899Y-114816407D01*
X164997677Y-114816661D01*
X165005705Y-114816921D01*
X165018526Y-114817183D01*
X165035682Y-114817442D01*
X165056717Y-114817692D01*
X165081172Y-114817929D01*
X165108590Y-114818147D01*
X165138514Y-114818341D01*
X165170485Y-114818507D01*
X165193991Y-114818604D01*
X165393082Y-114819337D01*
X165381869Y-114882612D01*
X165370657Y-114945886D01*
X165360435Y-114948662D01*
X165353178Y-114950636D01*
X165342243Y-114953614D01*
X165329461Y-114957098D01*
X165322860Y-114958899D01*
X165264202Y-114973118D01*
X165202970Y-114984627D01*
X165140881Y-114993193D01*
X165079651Y-114998581D01*
X165020995Y-115000556D01*
X165018039Y-115000561D01*
X164961105Y-115000561D01*
X164959446Y-115008410D01*
X164958010Y-115015749D01*
X164955720Y-115028176D01*
X164952642Y-115045290D01*
X164948847Y-115066687D01*
X164944402Y-115091968D01*
X164939377Y-115120730D01*
X164933839Y-115152572D01*
X164927858Y-115187093D01*
X164921501Y-115223891D01*
X164914838Y-115262564D01*
X164907937Y-115302711D01*
X164900866Y-115343930D01*
X164893695Y-115385821D01*
X164886491Y-115427981D01*
X164879324Y-115470009D01*
X164872261Y-115511503D01*
X164865372Y-115552063D01*
X164858724Y-115591285D01*
X164852387Y-115628770D01*
X164846430Y-115664115D01*
X164840919Y-115696919D01*
X164835925Y-115726781D01*
X164831516Y-115753298D01*
X164827759Y-115776070D01*
X164824725Y-115794695D01*
X164822481Y-115808771D01*
X164821096Y-115817897D01*
X164820680Y-115821067D01*
X164818261Y-115861292D01*
X164819426Y-115899086D01*
X164824060Y-115934084D01*
X164832045Y-115965924D01*
X164843261Y-115994241D01*
X164857593Y-116018672D01*
X164874922Y-116038854D01*
X164895131Y-116054422D01*
X164896477Y-116055228D01*
X164902643Y-116058707D01*
X164908724Y-116061660D01*
X164915237Y-116064135D01*
X164922699Y-116066180D01*
X164931626Y-116067842D01*
X164942536Y-116069170D01*
X164955943Y-116070212D01*
X164972366Y-116071015D01*
X164992321Y-116071628D01*
X165016324Y-116072099D01*
X165044893Y-116072475D01*
X165078543Y-116072805D01*
X165086380Y-116072874D01*
X165227804Y-116074096D01*
X165218454Y-116127254D01*
X165215456Y-116144110D01*
X165212727Y-116159100D01*
X165210443Y-116171289D01*
X165208779Y-116179741D01*
X165207910Y-116183522D01*
X165207902Y-116183542D01*
X165204714Y-116185693D01*
X165196976Y-116188908D01*
X165185678Y-116192880D01*
X165171812Y-116197305D01*
X165156367Y-116201878D01*
X165140336Y-116206292D01*
X165124709Y-116210242D01*
X165111910Y-116213128D01*
X165056727Y-116223652D01*
X165003770Y-116231763D01*
X164953601Y-116237410D01*
X164906780Y-116240544D01*
X164863865Y-116241114D01*
X164825418Y-116239070D01*
X164824164Y-116238951D01*
X164779643Y-116232953D01*
X164739818Y-116223968D01*
X164704473Y-116211918D01*
X164673392Y-116196720D01*
X164646358Y-116178295D01*
X164635168Y-116168664D01*
X164621464Y-116154991D01*
X164610344Y-116141328D01*
X164600407Y-116125756D01*
X164591509Y-116108914D01*
X164578307Y-116077772D01*
X164568298Y-116043864D01*
X164561450Y-116006847D01*
X164557733Y-115966376D01*
X164557117Y-115922109D01*
X164559571Y-115873700D01*
X164565065Y-115820806D01*
X164565540Y-115817098D01*
X164566545Y-115810292D01*
X164568470Y-115798222D01*
X164571253Y-115781248D01*
X164574834Y-115759727D01*
X164579150Y-115734019D01*
X164584142Y-115704483D01*
X164589748Y-115671478D01*
X164595907Y-115635364D01*
X164602558Y-115596498D01*
X164609640Y-115555240D01*
X164617092Y-115511949D01*
X164624853Y-115466984D01*
X164632862Y-115420704D01*
X164636816Y-115397898D01*
X164644829Y-115351675D01*
X164652568Y-115306951D01*
X164659978Y-115264053D01*
X164667002Y-115223308D01*
X164673584Y-115185046D01*
X164679669Y-115149592D01*
X164685201Y-115117275D01*
X164690122Y-115088422D01*
X164694379Y-115063360D01*
X164697913Y-115042417D01*
X164700670Y-115025921D01*
X164702594Y-115014199D01*
X164703628Y-115007579D01*
X164703798Y-115006196D01*
X164703616Y-115004586D01*
X164702668Y-115003315D01*
X164700348Y-115002345D01*
X164696052Y-115001634D01*
X164689174Y-115001142D01*
X164679111Y-115000830D01*
X164665257Y-115000655D01*
X164647007Y-115000579D01*
X164623757Y-115000562D01*
X164619274Y-115000561D01*
X164534751Y-115000561D01*
X164536256Y-114992713D01*
X164537140Y-114987969D01*
X164538905Y-114978389D01*
X164541409Y-114964750D01*
X164544509Y-114947831D01*
X164548062Y-114928411D01*
X164551925Y-114907268D01*
X164552998Y-114901388D01*
X164568236Y-114817911D01*
X164653899Y-114817910D01*
X164739562Y-114817910D01*
X164769438Y-114646674D01*
X164799315Y-114475438D01*
X165054940Y-114475438D01*
X165053413Y-114481859D01*
G36*
X166203239Y-114762728D02*
X166232204Y-114763545D01*
X166258852Y-114764818D01*
X166282038Y-114766544D01*
X166292011Y-114767582D01*
X166336768Y-114773724D01*
X166382380Y-114781677D01*
X166427769Y-114791174D01*
X166471859Y-114801951D01*
X166513573Y-114813742D01*
X166551833Y-114826284D01*
X166585562Y-114839310D01*
X166588335Y-114840495D01*
X166596353Y-114844257D01*
X166600176Y-114847361D01*
X166600964Y-114851128D01*
X166600453Y-114854293D01*
X166599816Y-114857787D01*
X166598240Y-114866656D01*
X166595769Y-114880652D01*
X166592445Y-114899527D01*
X166588314Y-114923034D01*
X166583417Y-114950925D01*
X166577798Y-114982951D01*
X166571502Y-115018866D01*
X166564570Y-115058422D01*
X166557047Y-115101370D01*
X166548976Y-115147463D01*
X166540401Y-115196453D01*
X166531364Y-115248093D01*
X166521909Y-115302134D01*
X166512080Y-115358329D01*
X166501920Y-115416430D01*
X166491473Y-115476189D01*
X166481824Y-115531393D01*
X166471157Y-115592417D01*
X166460740Y-115651996D01*
X166450615Y-115709882D01*
X166440827Y-115765830D01*
X166431417Y-115819590D01*
X166422431Y-115870918D01*
X166413910Y-115919564D01*
X166405899Y-115965283D01*
X166398441Y-116007828D01*
X166391578Y-116046950D01*
X166385355Y-116082403D01*
X166379814Y-116113941D01*
X166375000Y-116141315D01*
X166370955Y-116164279D01*
X166367722Y-116182586D01*
X166365345Y-116195988D01*
X166363868Y-116204239D01*
X166363342Y-116207061D01*
X166361824Y-116213483D01*
X166150742Y-116213483D01*
X166150742Y-116127865D01*
X166143479Y-116127865D01*
X166137678Y-116129633D01*
X166128298Y-116134643D01*
X166116119Y-116142449D01*
X166108518Y-116147769D01*
X166064088Y-116176223D01*
X166017115Y-116199637D01*
X165967854Y-116217945D01*
X165916560Y-116231083D01*
X165863488Y-116238983D01*
X165808894Y-116241582D01*
X165753384Y-116238847D01*
X165710587Y-116232913D01*
X165670659Y-116223733D01*
X165634122Y-116211496D01*
X165601503Y-116196388D01*
X165573326Y-116178598D01*
X165563776Y-116171076D01*
X165539364Y-116147970D01*
X165518037Y-116122085D01*
X165499631Y-116093043D01*
X165483986Y-116060467D01*
X165470941Y-116023978D01*
X165460335Y-115983200D01*
X165452005Y-115937755D01*
X165446806Y-115897168D01*
X165443983Y-115857873D01*
X165443350Y-115813739D01*
X165443693Y-115802714D01*
X165702649Y-115802714D01*
X165705419Y-115848808D01*
X165711001Y-115890466D01*
X165719388Y-115927532D01*
X165730573Y-115959854D01*
X165737621Y-115974985D01*
X165749810Y-115994748D01*
X165765163Y-116013656D01*
X165782361Y-116030335D01*
X165800083Y-116043413D01*
X165807309Y-116047474D01*
X165834181Y-116058352D01*
X165864974Y-116066086D01*
X165898781Y-116070574D01*
X165934692Y-116071714D01*
X165971800Y-116069405D01*
X165986641Y-116067513D01*
X166031070Y-116058501D01*
X166075845Y-116044589D01*
X166113945Y-116028831D01*
X166141361Y-116016085D01*
X166150505Y-115964239D01*
X166151987Y-115955837D01*
X166154404Y-115942141D01*
X166157698Y-115923477D01*
X166161811Y-115900173D01*
X166166686Y-115872555D01*
X166172264Y-115840951D01*
X166178489Y-115805686D01*
X166185303Y-115767087D01*
X166192647Y-115725482D01*
X166200464Y-115681198D01*
X166208697Y-115634560D01*
X166217287Y-115585896D01*
X166226178Y-115535533D01*
X166235311Y-115483797D01*
X166244629Y-115431016D01*
X166246054Y-115422943D01*
X166255231Y-115370912D01*
X166264124Y-115320392D01*
X166272685Y-115271672D01*
X166280862Y-115225038D01*
X166288607Y-115180776D01*
X166295870Y-115139173D01*
X166302600Y-115100516D01*
X166308748Y-115065092D01*
X166314265Y-115033188D01*
X166319101Y-115005089D01*
X166323205Y-114981084D01*
X166326529Y-114961458D01*
X166329022Y-114946499D01*
X166330635Y-114936493D01*
X166331318Y-114931727D01*
X166331331Y-114931353D01*
X166328239Y-114930726D01*
X166320179Y-114930214D01*
X166307891Y-114929816D01*
X166292112Y-114929528D01*
X166273582Y-114929349D01*
X166253040Y-114929276D01*
X166231225Y-114929305D01*
X166208876Y-114929435D01*
X166186730Y-114929663D01*
X166165529Y-114929986D01*
X166146009Y-114930402D01*
X166128910Y-114930908D01*
X166114972Y-114931502D01*
X166105355Y-114932142D01*
X166066584Y-114937323D01*
X166031842Y-114945850D01*
X166000282Y-114958106D01*
X165971054Y-114974475D01*
X165943310Y-114995339D01*
X165922400Y-115014735D01*
X165909579Y-115028378D01*
X165896343Y-115043793D01*
X165884379Y-115058953D01*
X165877177Y-115069056D01*
X165867690Y-115084332D01*
X165856784Y-115103624D01*
X165845108Y-115125629D01*
X165833313Y-115149043D01*
X165822047Y-115172563D01*
X165811963Y-115194887D01*
X165803709Y-115214709D01*
X165801088Y-115221587D01*
X165787729Y-115261039D01*
X165774665Y-115305995D01*
X165761943Y-115356256D01*
X165749608Y-115411621D01*
X165737705Y-115471892D01*
X165726280Y-115536871D01*
X165719825Y-115577056D01*
X165711279Y-115639354D01*
X165705572Y-115697832D01*
X165702698Y-115752337D01*
X165702649Y-115802714D01*
X165443693Y-115802714D01*
X165444864Y-115765181D01*
X165448481Y-115712613D01*
X165454156Y-115656449D01*
X165461846Y-115597102D01*
X165471507Y-115534987D01*
X165483093Y-115470518D01*
X165496563Y-115404108D01*
X165501791Y-115380134D01*
X165519973Y-115305191D01*
X165540054Y-115235599D01*
X165562052Y-115171318D01*
X165585987Y-115112311D01*
X165611877Y-115058539D01*
X165639741Y-115009963D01*
X165669596Y-114966545D01*
X165701461Y-114928245D01*
X165734747Y-114895563D01*
X165769137Y-114867675D01*
X165805110Y-114843489D01*
X165843255Y-114822763D01*
X165884161Y-114805253D01*
X165928415Y-114790717D01*
X165976606Y-114778912D01*
X166029321Y-114769594D01*
X166044846Y-114767414D01*
X166063694Y-114765487D01*
X166087087Y-114764020D01*
X166113882Y-114763011D01*
X166142935Y-114762459D01*
X166173102Y-114762365D01*
X166203239Y-114762728D01*
X166203239Y-114762728D01*
G37*
X166203239Y-114762728D02*
X166232204Y-114763545D01*
X166258852Y-114764818D01*
X166282038Y-114766544D01*
X166292011Y-114767582D01*
X166336768Y-114773724D01*
X166382380Y-114781677D01*
X166427769Y-114791174D01*
X166471859Y-114801951D01*
X166513573Y-114813742D01*
X166551833Y-114826284D01*
X166585562Y-114839310D01*
X166588335Y-114840495D01*
X166596353Y-114844257D01*
X166600176Y-114847361D01*
X166600964Y-114851128D01*
X166600453Y-114854293D01*
X166599816Y-114857787D01*
X166598240Y-114866656D01*
X166595769Y-114880652D01*
X166592445Y-114899527D01*
X166588314Y-114923034D01*
X166583417Y-114950925D01*
X166577798Y-114982951D01*
X166571502Y-115018866D01*
X166564570Y-115058422D01*
X166557047Y-115101370D01*
X166548976Y-115147463D01*
X166540401Y-115196453D01*
X166531364Y-115248093D01*
X166521909Y-115302134D01*
X166512080Y-115358329D01*
X166501920Y-115416430D01*
X166491473Y-115476189D01*
X166481824Y-115531393D01*
X166471157Y-115592417D01*
X166460740Y-115651996D01*
X166450615Y-115709882D01*
X166440827Y-115765830D01*
X166431417Y-115819590D01*
X166422431Y-115870918D01*
X166413910Y-115919564D01*
X166405899Y-115965283D01*
X166398441Y-116007828D01*
X166391578Y-116046950D01*
X166385355Y-116082403D01*
X166379814Y-116113941D01*
X166375000Y-116141315D01*
X166370955Y-116164279D01*
X166367722Y-116182586D01*
X166365345Y-116195988D01*
X166363868Y-116204239D01*
X166363342Y-116207061D01*
X166361824Y-116213483D01*
X166150742Y-116213483D01*
X166150742Y-116127865D01*
X166143479Y-116127865D01*
X166137678Y-116129633D01*
X166128298Y-116134643D01*
X166116119Y-116142449D01*
X166108518Y-116147769D01*
X166064088Y-116176223D01*
X166017115Y-116199637D01*
X165967854Y-116217945D01*
X165916560Y-116231083D01*
X165863488Y-116238983D01*
X165808894Y-116241582D01*
X165753384Y-116238847D01*
X165710587Y-116232913D01*
X165670659Y-116223733D01*
X165634122Y-116211496D01*
X165601503Y-116196388D01*
X165573326Y-116178598D01*
X165563776Y-116171076D01*
X165539364Y-116147970D01*
X165518037Y-116122085D01*
X165499631Y-116093043D01*
X165483986Y-116060467D01*
X165470941Y-116023978D01*
X165460335Y-115983200D01*
X165452005Y-115937755D01*
X165446806Y-115897168D01*
X165443983Y-115857873D01*
X165443350Y-115813739D01*
X165443693Y-115802714D01*
X165702649Y-115802714D01*
X165705419Y-115848808D01*
X165711001Y-115890466D01*
X165719388Y-115927532D01*
X165730573Y-115959854D01*
X165737621Y-115974985D01*
X165749810Y-115994748D01*
X165765163Y-116013656D01*
X165782361Y-116030335D01*
X165800083Y-116043413D01*
X165807309Y-116047474D01*
X165834181Y-116058352D01*
X165864974Y-116066086D01*
X165898781Y-116070574D01*
X165934692Y-116071714D01*
X165971800Y-116069405D01*
X165986641Y-116067513D01*
X166031070Y-116058501D01*
X166075845Y-116044589D01*
X166113945Y-116028831D01*
X166141361Y-116016085D01*
X166150505Y-115964239D01*
X166151987Y-115955837D01*
X166154404Y-115942141D01*
X166157698Y-115923477D01*
X166161811Y-115900173D01*
X166166686Y-115872555D01*
X166172264Y-115840951D01*
X166178489Y-115805686D01*
X166185303Y-115767087D01*
X166192647Y-115725482D01*
X166200464Y-115681198D01*
X166208697Y-115634560D01*
X166217287Y-115585896D01*
X166226178Y-115535533D01*
X166235311Y-115483797D01*
X166244629Y-115431016D01*
X166246054Y-115422943D01*
X166255231Y-115370912D01*
X166264124Y-115320392D01*
X166272685Y-115271672D01*
X166280862Y-115225038D01*
X166288607Y-115180776D01*
X166295870Y-115139173D01*
X166302600Y-115100516D01*
X166308748Y-115065092D01*
X166314265Y-115033188D01*
X166319101Y-115005089D01*
X166323205Y-114981084D01*
X166326529Y-114961458D01*
X166329022Y-114946499D01*
X166330635Y-114936493D01*
X166331318Y-114931727D01*
X166331331Y-114931353D01*
X166328239Y-114930726D01*
X166320179Y-114930214D01*
X166307891Y-114929816D01*
X166292112Y-114929528D01*
X166273582Y-114929349D01*
X166253040Y-114929276D01*
X166231225Y-114929305D01*
X166208876Y-114929435D01*
X166186730Y-114929663D01*
X166165529Y-114929986D01*
X166146009Y-114930402D01*
X166128910Y-114930908D01*
X166114972Y-114931502D01*
X166105355Y-114932142D01*
X166066584Y-114937323D01*
X166031842Y-114945850D01*
X166000282Y-114958106D01*
X165971054Y-114974475D01*
X165943310Y-114995339D01*
X165922400Y-115014735D01*
X165909579Y-115028378D01*
X165896343Y-115043793D01*
X165884379Y-115058953D01*
X165877177Y-115069056D01*
X165867690Y-115084332D01*
X165856784Y-115103624D01*
X165845108Y-115125629D01*
X165833313Y-115149043D01*
X165822047Y-115172563D01*
X165811963Y-115194887D01*
X165803709Y-115214709D01*
X165801088Y-115221587D01*
X165787729Y-115261039D01*
X165774665Y-115305995D01*
X165761943Y-115356256D01*
X165749608Y-115411621D01*
X165737705Y-115471892D01*
X165726280Y-115536871D01*
X165719825Y-115577056D01*
X165711279Y-115639354D01*
X165705572Y-115697832D01*
X165702698Y-115752337D01*
X165702649Y-115802714D01*
X165443693Y-115802714D01*
X165444864Y-115765181D01*
X165448481Y-115712613D01*
X165454156Y-115656449D01*
X165461846Y-115597102D01*
X165471507Y-115534987D01*
X165483093Y-115470518D01*
X165496563Y-115404108D01*
X165501791Y-115380134D01*
X165519973Y-115305191D01*
X165540054Y-115235599D01*
X165562052Y-115171318D01*
X165585987Y-115112311D01*
X165611877Y-115058539D01*
X165639741Y-115009963D01*
X165669596Y-114966545D01*
X165701461Y-114928245D01*
X165734747Y-114895563D01*
X165769137Y-114867675D01*
X165805110Y-114843489D01*
X165843255Y-114822763D01*
X165884161Y-114805253D01*
X165928415Y-114790717D01*
X165976606Y-114778912D01*
X166029321Y-114769594D01*
X166044846Y-114767414D01*
X166063694Y-114765487D01*
X166087087Y-114764020D01*
X166113882Y-114763011D01*
X166142935Y-114762459D01*
X166173102Y-114762365D01*
X166203239Y-114762728D01*
G36*
X167474673Y-114762664D02*
X167501267Y-114763237D01*
X167526169Y-114764216D01*
X167548148Y-114765593D01*
X167565975Y-114767361D01*
X167566932Y-114767485D01*
X167595864Y-114771671D01*
X167626437Y-114776726D01*
X167656831Y-114782316D01*
X167685227Y-114788105D01*
X167709805Y-114793758D01*
X167710416Y-114793910D01*
X167726010Y-114797978D01*
X167741823Y-114802415D01*
X167756788Y-114806888D01*
X167769835Y-114811062D01*
X167779896Y-114814603D01*
X167785901Y-114817177D01*
X167786893Y-114817827D01*
X167787136Y-114821153D01*
X167786470Y-114829198D01*
X167785006Y-114841069D01*
X167782856Y-114855869D01*
X167780132Y-114872704D01*
X167779818Y-114874551D01*
X167770469Y-114929213D01*
X167631993Y-114929238D01*
X167602791Y-114929303D01*
X167574010Y-114929478D01*
X167546421Y-114929751D01*
X167520798Y-114930110D01*
X167497916Y-114930543D01*
X167478547Y-114931037D01*
X167463465Y-114931580D01*
X167454696Y-114932063D01*
X167409925Y-114937442D01*
X167368937Y-114946952D01*
X167331399Y-114960765D01*
X167296978Y-114979058D01*
X167265344Y-115002004D01*
X167236162Y-115029778D01*
X167210980Y-115060031D01*
X167190377Y-115089610D01*
X167171239Y-115121624D01*
X167153444Y-115156427D01*
X167136873Y-115194374D01*
X167121404Y-115235820D01*
X167106916Y-115281119D01*
X167093290Y-115330626D01*
X167080404Y-115384696D01*
X167068138Y-115443683D01*
X167056371Y-115507943D01*
X167054103Y-115521245D01*
X167046929Y-115564967D01*
X167040995Y-115603888D01*
X167036229Y-115638758D01*
X167032559Y-115670333D01*
X167029911Y-115699363D01*
X167028215Y-115726602D01*
X167027396Y-115752804D01*
X167027384Y-115778719D01*
X167027762Y-115795382D01*
X167030173Y-115837671D01*
X167034725Y-115875083D01*
X167041559Y-115908084D01*
X167050819Y-115937144D01*
X167062647Y-115962731D01*
X167077184Y-115985312D01*
X167090164Y-116000786D01*
X167108705Y-116018829D01*
X167127624Y-116033213D01*
X167148165Y-116044598D01*
X167171570Y-116053646D01*
X167199082Y-116061018D01*
X167206328Y-116062589D01*
X167218985Y-116064929D01*
X167233215Y-116066938D01*
X167249477Y-116068639D01*
X167268233Y-116070050D01*
X167289944Y-116071191D01*
X167315071Y-116072084D01*
X167344074Y-116072748D01*
X167377416Y-116073202D01*
X167415556Y-116073469D01*
X167457486Y-116073566D01*
X167595545Y-116073640D01*
X167594062Y-116081488D01*
X167593099Y-116086871D01*
X167591383Y-116096756D01*
X167589106Y-116110018D01*
X167586461Y-116125533D01*
X167584497Y-116137122D01*
X167576415Y-116184908D01*
X167559225Y-116190583D01*
X167538845Y-116196679D01*
X167513920Y-116203107D01*
X167485582Y-116209639D01*
X167454966Y-116216045D01*
X167423206Y-116222096D01*
X167391435Y-116227564D01*
X167360788Y-116232218D01*
X167339405Y-116235015D01*
X167325859Y-116236323D01*
X167308281Y-116237542D01*
X167287820Y-116238637D01*
X167265620Y-116239573D01*
X167242830Y-116240316D01*
X167220596Y-116240831D01*
X167200066Y-116241083D01*
X167182385Y-116241036D01*
X167168702Y-116240657D01*
X167163888Y-116240347D01*
X167117471Y-116235740D01*
X167076142Y-116230130D01*
X167039343Y-116223323D01*
X167006513Y-116215130D01*
X166977091Y-116205360D01*
X166950518Y-116193821D01*
X166926232Y-116180323D01*
X166903673Y-116164674D01*
X166882282Y-116146684D01*
X166878329Y-116143009D01*
X166854848Y-116118093D01*
X166834578Y-116090491D01*
X166817302Y-116059722D01*
X166802801Y-116025304D01*
X166790857Y-115986754D01*
X166781251Y-115943591D01*
X166777164Y-115919528D01*
X166774590Y-115898215D01*
X166772641Y-115872483D01*
X166771339Y-115843587D01*
X166770699Y-115812783D01*
X166770741Y-115781327D01*
X166771484Y-115750475D01*
X166772945Y-115721483D01*
X166774051Y-115706910D01*
X166779310Y-115655675D01*
X166786465Y-115600554D01*
X166795268Y-115542952D01*
X166805474Y-115484274D01*
X166816835Y-115425925D01*
X166829104Y-115369309D01*
X166842036Y-115315832D01*
X166844229Y-115307359D01*
X166864712Y-115235868D01*
X166887412Y-115169626D01*
X166912339Y-115108618D01*
X166939502Y-115052830D01*
X166968909Y-115002248D01*
X167000568Y-114956858D01*
X167034490Y-114916645D01*
X167070682Y-114881595D01*
X167109154Y-114851693D01*
X167135339Y-114835039D01*
X167169094Y-114817653D01*
X167207491Y-114802053D01*
X167249668Y-114788504D01*
X167294767Y-114777270D01*
X167341925Y-114768616D01*
X167359382Y-114766165D01*
X167375982Y-114764590D01*
X167397041Y-114763461D01*
X167421330Y-114762768D01*
X167447617Y-114762505D01*
X167474673Y-114762664D01*
X167474673Y-114762664D01*
G37*
X167474673Y-114762664D02*
X167501267Y-114763237D01*
X167526169Y-114764216D01*
X167548148Y-114765593D01*
X167565975Y-114767361D01*
X167566932Y-114767485D01*
X167595864Y-114771671D01*
X167626437Y-114776726D01*
X167656831Y-114782316D01*
X167685227Y-114788105D01*
X167709805Y-114793758D01*
X167710416Y-114793910D01*
X167726010Y-114797978D01*
X167741823Y-114802415D01*
X167756788Y-114806888D01*
X167769835Y-114811062D01*
X167779896Y-114814603D01*
X167785901Y-114817177D01*
X167786893Y-114817827D01*
X167787136Y-114821153D01*
X167786470Y-114829198D01*
X167785006Y-114841069D01*
X167782856Y-114855869D01*
X167780132Y-114872704D01*
X167779818Y-114874551D01*
X167770469Y-114929213D01*
X167631993Y-114929238D01*
X167602791Y-114929303D01*
X167574010Y-114929478D01*
X167546421Y-114929751D01*
X167520798Y-114930110D01*
X167497916Y-114930543D01*
X167478547Y-114931037D01*
X167463465Y-114931580D01*
X167454696Y-114932063D01*
X167409925Y-114937442D01*
X167368937Y-114946952D01*
X167331399Y-114960765D01*
X167296978Y-114979058D01*
X167265344Y-115002004D01*
X167236162Y-115029778D01*
X167210980Y-115060031D01*
X167190377Y-115089610D01*
X167171239Y-115121624D01*
X167153444Y-115156427D01*
X167136873Y-115194374D01*
X167121404Y-115235820D01*
X167106916Y-115281119D01*
X167093290Y-115330626D01*
X167080404Y-115384696D01*
X167068138Y-115443683D01*
X167056371Y-115507943D01*
X167054103Y-115521245D01*
X167046929Y-115564967D01*
X167040995Y-115603888D01*
X167036229Y-115638758D01*
X167032559Y-115670333D01*
X167029911Y-115699363D01*
X167028215Y-115726602D01*
X167027396Y-115752804D01*
X167027384Y-115778719D01*
X167027762Y-115795382D01*
X167030173Y-115837671D01*
X167034725Y-115875083D01*
X167041559Y-115908084D01*
X167050819Y-115937144D01*
X167062647Y-115962731D01*
X167077184Y-115985312D01*
X167090164Y-116000786D01*
X167108705Y-116018829D01*
X167127624Y-116033213D01*
X167148165Y-116044598D01*
X167171570Y-116053646D01*
X167199082Y-116061018D01*
X167206328Y-116062589D01*
X167218985Y-116064929D01*
X167233215Y-116066938D01*
X167249477Y-116068639D01*
X167268233Y-116070050D01*
X167289944Y-116071191D01*
X167315071Y-116072084D01*
X167344074Y-116072748D01*
X167377416Y-116073202D01*
X167415556Y-116073469D01*
X167457486Y-116073566D01*
X167595545Y-116073640D01*
X167594062Y-116081488D01*
X167593099Y-116086871D01*
X167591383Y-116096756D01*
X167589106Y-116110018D01*
X167586461Y-116125533D01*
X167584497Y-116137122D01*
X167576415Y-116184908D01*
X167559225Y-116190583D01*
X167538845Y-116196679D01*
X167513920Y-116203107D01*
X167485582Y-116209639D01*
X167454966Y-116216045D01*
X167423206Y-116222096D01*
X167391435Y-116227564D01*
X167360788Y-116232218D01*
X167339405Y-116235015D01*
X167325859Y-116236323D01*
X167308281Y-116237542D01*
X167287820Y-116238637D01*
X167265620Y-116239573D01*
X167242830Y-116240316D01*
X167220596Y-116240831D01*
X167200066Y-116241083D01*
X167182385Y-116241036D01*
X167168702Y-116240657D01*
X167163888Y-116240347D01*
X167117471Y-116235740D01*
X167076142Y-116230130D01*
X167039343Y-116223323D01*
X167006513Y-116215130D01*
X166977091Y-116205360D01*
X166950518Y-116193821D01*
X166926232Y-116180323D01*
X166903673Y-116164674D01*
X166882282Y-116146684D01*
X166878329Y-116143009D01*
X166854848Y-116118093D01*
X166834578Y-116090491D01*
X166817302Y-116059722D01*
X166802801Y-116025304D01*
X166790857Y-115986754D01*
X166781251Y-115943591D01*
X166777164Y-115919528D01*
X166774590Y-115898215D01*
X166772641Y-115872483D01*
X166771339Y-115843587D01*
X166770699Y-115812783D01*
X166770741Y-115781327D01*
X166771484Y-115750475D01*
X166772945Y-115721483D01*
X166774051Y-115706910D01*
X166779310Y-115655675D01*
X166786465Y-115600554D01*
X166795268Y-115542952D01*
X166805474Y-115484274D01*
X166816835Y-115425925D01*
X166829104Y-115369309D01*
X166842036Y-115315832D01*
X166844229Y-115307359D01*
X166864712Y-115235868D01*
X166887412Y-115169626D01*
X166912339Y-115108618D01*
X166939502Y-115052830D01*
X166968909Y-115002248D01*
X167000568Y-114956858D01*
X167034490Y-114916645D01*
X167070682Y-114881595D01*
X167109154Y-114851693D01*
X167135339Y-114835039D01*
X167169094Y-114817653D01*
X167207491Y-114802053D01*
X167249668Y-114788504D01*
X167294767Y-114777270D01*
X167341925Y-114768616D01*
X167359382Y-114766165D01*
X167375982Y-114764590D01*
X167397041Y-114763461D01*
X167421330Y-114762768D01*
X167447617Y-114762505D01*
X167474673Y-114762664D01*
G36*
X158295590Y-114226432D02*
X158294729Y-114231161D01*
X158293058Y-114240749D01*
X158290708Y-114254429D01*
X158287810Y-114271430D01*
X158284497Y-114290984D01*
X158280898Y-114312321D01*
X158279624Y-114319898D01*
X158275970Y-114341584D01*
X158272563Y-114361673D01*
X158269532Y-114379412D01*
X158267007Y-114394049D01*
X158265117Y-114404829D01*
X158263993Y-114410999D01*
X158263803Y-114411938D01*
X158262363Y-114418359D01*
X157550171Y-114418359D01*
X157488151Y-114764398D01*
X157480330Y-114808070D01*
X157472795Y-114850204D01*
X157465607Y-114890458D01*
X157458827Y-114928489D01*
X157452516Y-114963952D01*
X157446734Y-114996505D01*
X157441543Y-115025803D01*
X157437004Y-115051504D01*
X157433177Y-115073264D01*
X157430123Y-115090738D01*
X157427903Y-115103585D01*
X157426578Y-115111460D01*
X157426201Y-115114005D01*
X157427262Y-115114598D01*
X157430603Y-115115125D01*
X157436496Y-115115591D01*
X157445214Y-115115998D01*
X157457031Y-115116350D01*
X157472219Y-115116650D01*
X157491050Y-115116901D01*
X157513798Y-115117107D01*
X157540736Y-115117271D01*
X157572136Y-115117395D01*
X157608271Y-115117484D01*
X157649414Y-115117541D01*
X157695838Y-115117569D01*
X157724506Y-115117573D01*
X157774017Y-115117585D01*
X157818094Y-115117625D01*
X157857008Y-115117695D01*
X157891033Y-115117799D01*
X157920441Y-115117940D01*
X157945505Y-115118121D01*
X157966499Y-115118346D01*
X157983695Y-115118617D01*
X157997365Y-115118939D01*
X158007783Y-115119313D01*
X158015222Y-115119745D01*
X158019953Y-115120236D01*
X158022251Y-115120790D01*
X158022576Y-115121140D01*
X158022063Y-115124716D01*
X158020682Y-115133232D01*
X158018550Y-115146003D01*
X158015781Y-115162346D01*
X158012492Y-115181577D01*
X158008798Y-115203014D01*
X158006047Y-115218887D01*
X157989684Y-115313067D01*
X157390692Y-115315921D01*
X157330173Y-115662674D01*
X157322145Y-115708674D01*
X157314126Y-115754622D01*
X157306200Y-115800032D01*
X157298453Y-115844419D01*
X157290969Y-115887297D01*
X157283833Y-115928181D01*
X157277130Y-115966586D01*
X157270945Y-116002026D01*
X157265361Y-116034015D01*
X157260465Y-116062068D01*
X157256340Y-116085700D01*
X157253071Y-116104424D01*
X157251844Y-116111455D01*
X157234032Y-116213483D01*
X156978888Y-116213483D01*
X156982714Y-116192792D01*
X156983494Y-116188429D01*
X156985224Y-116178653D01*
X156987866Y-116163672D01*
X156991385Y-116143694D01*
X156995744Y-116118928D01*
X157000905Y-116089583D01*
X157006833Y-116055867D01*
X157013490Y-116017989D01*
X157020841Y-115976156D01*
X157028848Y-115930579D01*
X157037474Y-115881464D01*
X157046685Y-115829021D01*
X157056441Y-115773459D01*
X157066708Y-115714985D01*
X157077448Y-115653808D01*
X157088625Y-115590137D01*
X157100201Y-115524181D01*
X157112142Y-115456147D01*
X157124409Y-115386245D01*
X157136966Y-115314682D01*
X157149777Y-115241668D01*
X157156528Y-115203191D01*
X157169431Y-115129649D01*
X157182088Y-115057517D01*
X157194462Y-114987002D01*
X157206518Y-114918307D01*
X157218220Y-114851638D01*
X157229531Y-114787199D01*
X157240416Y-114725196D01*
X157250839Y-114665833D01*
X157260763Y-114609316D01*
X157270153Y-114555848D01*
X157278973Y-114505635D01*
X157287187Y-114458883D01*
X157294758Y-114415795D01*
X157301651Y-114376577D01*
X157307830Y-114341433D01*
X157313258Y-114310569D01*
X157317900Y-114284190D01*
X157321720Y-114262500D01*
X157324682Y-114245704D01*
X157326749Y-114234007D01*
X157327887Y-114227614D01*
X157328103Y-114226432D01*
X157329690Y-114218584D01*
X158297173Y-114218584D01*
X158295590Y-114226432D01*
X158295590Y-114226432D01*
G37*
X158295590Y-114226432D02*
X158294729Y-114231161D01*
X158293058Y-114240749D01*
X158290708Y-114254429D01*
X158287810Y-114271430D01*
X158284497Y-114290984D01*
X158280898Y-114312321D01*
X158279624Y-114319898D01*
X158275970Y-114341584D01*
X158272563Y-114361673D01*
X158269532Y-114379412D01*
X158267007Y-114394049D01*
X158265117Y-114404829D01*
X158263993Y-114410999D01*
X158263803Y-114411938D01*
X158262363Y-114418359D01*
X157550171Y-114418359D01*
X157488151Y-114764398D01*
X157480330Y-114808070D01*
X157472795Y-114850204D01*
X157465607Y-114890458D01*
X157458827Y-114928489D01*
X157452516Y-114963952D01*
X157446734Y-114996505D01*
X157441543Y-115025803D01*
X157437004Y-115051504D01*
X157433177Y-115073264D01*
X157430123Y-115090738D01*
X157427903Y-115103585D01*
X157426578Y-115111460D01*
X157426201Y-115114005D01*
X157427262Y-115114598D01*
X157430603Y-115115125D01*
X157436496Y-115115591D01*
X157445214Y-115115998D01*
X157457031Y-115116350D01*
X157472219Y-115116650D01*
X157491050Y-115116901D01*
X157513798Y-115117107D01*
X157540736Y-115117271D01*
X157572136Y-115117395D01*
X157608271Y-115117484D01*
X157649414Y-115117541D01*
X157695838Y-115117569D01*
X157724506Y-115117573D01*
X157774017Y-115117585D01*
X157818094Y-115117625D01*
X157857008Y-115117695D01*
X157891033Y-115117799D01*
X157920441Y-115117940D01*
X157945505Y-115118121D01*
X157966499Y-115118346D01*
X157983695Y-115118617D01*
X157997365Y-115118939D01*
X158007783Y-115119313D01*
X158015222Y-115119745D01*
X158019953Y-115120236D01*
X158022251Y-115120790D01*
X158022576Y-115121140D01*
X158022063Y-115124716D01*
X158020682Y-115133232D01*
X158018550Y-115146003D01*
X158015781Y-115162346D01*
X158012492Y-115181577D01*
X158008798Y-115203014D01*
X158006047Y-115218887D01*
X157989684Y-115313067D01*
X157390692Y-115315921D01*
X157330173Y-115662674D01*
X157322145Y-115708674D01*
X157314126Y-115754622D01*
X157306200Y-115800032D01*
X157298453Y-115844419D01*
X157290969Y-115887297D01*
X157283833Y-115928181D01*
X157277130Y-115966586D01*
X157270945Y-116002026D01*
X157265361Y-116034015D01*
X157260465Y-116062068D01*
X157256340Y-116085700D01*
X157253071Y-116104424D01*
X157251844Y-116111455D01*
X157234032Y-116213483D01*
X156978888Y-116213483D01*
X156982714Y-116192792D01*
X156983494Y-116188429D01*
X156985224Y-116178653D01*
X156987866Y-116163672D01*
X156991385Y-116143694D01*
X156995744Y-116118928D01*
X157000905Y-116089583D01*
X157006833Y-116055867D01*
X157013490Y-116017989D01*
X157020841Y-115976156D01*
X157028848Y-115930579D01*
X157037474Y-115881464D01*
X157046685Y-115829021D01*
X157056441Y-115773459D01*
X157066708Y-115714985D01*
X157077448Y-115653808D01*
X157088625Y-115590137D01*
X157100201Y-115524181D01*
X157112142Y-115456147D01*
X157124409Y-115386245D01*
X157136966Y-115314682D01*
X157149777Y-115241668D01*
X157156528Y-115203191D01*
X157169431Y-115129649D01*
X157182088Y-115057517D01*
X157194462Y-114987002D01*
X157206518Y-114918307D01*
X157218220Y-114851638D01*
X157229531Y-114787199D01*
X157240416Y-114725196D01*
X157250839Y-114665833D01*
X157260763Y-114609316D01*
X157270153Y-114555848D01*
X157278973Y-114505635D01*
X157287187Y-114458883D01*
X157294758Y-114415795D01*
X157301651Y-114376577D01*
X157307830Y-114341433D01*
X157313258Y-114310569D01*
X157317900Y-114284190D01*
X157321720Y-114262500D01*
X157324682Y-114245704D01*
X157326749Y-114234007D01*
X157327887Y-114227614D01*
X157328103Y-114226432D01*
X157329690Y-114218584D01*
X158297173Y-114218584D01*
X158295590Y-114226432D01*
G36*
X158711048Y-114218601D02*
X158736294Y-114218664D01*
X158756791Y-114218790D01*
X158773018Y-114218994D01*
X158785455Y-114219294D01*
X158794581Y-114219706D01*
X158800876Y-114220247D01*
X158804818Y-114220933D01*
X158806887Y-114221782D01*
X158807562Y-114222809D01*
X158807573Y-114222989D01*
X158807087Y-114225967D01*
X158805657Y-114234322D01*
X158803326Y-114247810D01*
X158800136Y-114266186D01*
X158796132Y-114289206D01*
X158791355Y-114316625D01*
X158785848Y-114348199D01*
X158779654Y-114383683D01*
X158772817Y-114422832D01*
X158765378Y-114465403D01*
X158757381Y-114511150D01*
X158748869Y-114559829D01*
X158739884Y-114611196D01*
X158730469Y-114665006D01*
X158720668Y-114721013D01*
X158710522Y-114778975D01*
X158700076Y-114838646D01*
X158689371Y-114899782D01*
X158678451Y-114962138D01*
X158667358Y-115025469D01*
X158656135Y-115089532D01*
X158644826Y-115154081D01*
X158633472Y-115218873D01*
X158622117Y-115283661D01*
X158610804Y-115348203D01*
X158599575Y-115412253D01*
X158588474Y-115475567D01*
X158577543Y-115537901D01*
X158566825Y-115599009D01*
X158556362Y-115658647D01*
X158546199Y-115716572D01*
X158536377Y-115772537D01*
X158526939Y-115826299D01*
X158517929Y-115877613D01*
X158509389Y-115926235D01*
X158501362Y-115971919D01*
X158493891Y-116014422D01*
X158487018Y-116053499D01*
X158480787Y-116088906D01*
X158475241Y-116120397D01*
X158470421Y-116147729D01*
X158466372Y-116170656D01*
X158463136Y-116188934D01*
X158460755Y-116202320D01*
X158460418Y-116204207D01*
X158458758Y-116213483D01*
X158332076Y-116213483D01*
X158301780Y-116213469D01*
X158276705Y-116213416D01*
X158256362Y-116213305D01*
X158240263Y-116213118D01*
X158227921Y-116212837D01*
X158218848Y-116212444D01*
X158212556Y-116211920D01*
X158208558Y-116211246D01*
X158206365Y-116210405D01*
X158205490Y-116209379D01*
X158205394Y-116208738D01*
X158205882Y-116205601D01*
X158207324Y-116197045D01*
X158209684Y-116183271D01*
X158212927Y-116164480D01*
X158217017Y-116140875D01*
X158221920Y-116112656D01*
X158227600Y-116080026D01*
X158234022Y-116043186D01*
X158241150Y-116002338D01*
X158248949Y-115957684D01*
X158257385Y-115909426D01*
X158266421Y-115857764D01*
X158276023Y-115802902D01*
X158286155Y-115745040D01*
X158296782Y-115684380D01*
X158307868Y-115621124D01*
X158319379Y-115555474D01*
X158331279Y-115487631D01*
X158343533Y-115417797D01*
X158356106Y-115346174D01*
X158368961Y-115272963D01*
X158379483Y-115213063D01*
X158392537Y-115138753D01*
X158405337Y-115065885D01*
X158417846Y-114994658D01*
X158430030Y-114925273D01*
X158441853Y-114857932D01*
X158453281Y-114792835D01*
X158464278Y-114730183D01*
X158474808Y-114670177D01*
X158484837Y-114613018D01*
X158494330Y-114558907D01*
X158503250Y-114508044D01*
X158511564Y-114460632D01*
X158519235Y-114416869D01*
X158526228Y-114376959D01*
X158532509Y-114341100D01*
X158538042Y-114309495D01*
X158542791Y-114282344D01*
X158546722Y-114259848D01*
X158549799Y-114242208D01*
X158551987Y-114229625D01*
X158553251Y-114222300D01*
X158553573Y-114220358D01*
X158556332Y-114219991D01*
X158564225Y-114219649D01*
X158576681Y-114219341D01*
X158593126Y-114219074D01*
X158612989Y-114218858D01*
X158635695Y-114218699D01*
X158660672Y-114218606D01*
X158680573Y-114218584D01*
X158711048Y-114218601D01*
X158711048Y-114218601D01*
G37*
X158711048Y-114218601D02*
X158736294Y-114218664D01*
X158756791Y-114218790D01*
X158773018Y-114218994D01*
X158785455Y-114219294D01*
X158794581Y-114219706D01*
X158800876Y-114220247D01*
X158804818Y-114220933D01*
X158806887Y-114221782D01*
X158807562Y-114222809D01*
X158807573Y-114222989D01*
X158807087Y-114225967D01*
X158805657Y-114234322D01*
X158803326Y-114247810D01*
X158800136Y-114266186D01*
X158796132Y-114289206D01*
X158791355Y-114316625D01*
X158785848Y-114348199D01*
X158779654Y-114383683D01*
X158772817Y-114422832D01*
X158765378Y-114465403D01*
X158757381Y-114511150D01*
X158748869Y-114559829D01*
X158739884Y-114611196D01*
X158730469Y-114665006D01*
X158720668Y-114721013D01*
X158710522Y-114778975D01*
X158700076Y-114838646D01*
X158689371Y-114899782D01*
X158678451Y-114962138D01*
X158667358Y-115025469D01*
X158656135Y-115089532D01*
X158644826Y-115154081D01*
X158633472Y-115218873D01*
X158622117Y-115283661D01*
X158610804Y-115348203D01*
X158599575Y-115412253D01*
X158588474Y-115475567D01*
X158577543Y-115537901D01*
X158566825Y-115599009D01*
X158556362Y-115658647D01*
X158546199Y-115716572D01*
X158536377Y-115772537D01*
X158526939Y-115826299D01*
X158517929Y-115877613D01*
X158509389Y-115926235D01*
X158501362Y-115971919D01*
X158493891Y-116014422D01*
X158487018Y-116053499D01*
X158480787Y-116088906D01*
X158475241Y-116120397D01*
X158470421Y-116147729D01*
X158466372Y-116170656D01*
X158463136Y-116188934D01*
X158460755Y-116202320D01*
X158460418Y-116204207D01*
X158458758Y-116213483D01*
X158332076Y-116213483D01*
X158301780Y-116213469D01*
X158276705Y-116213416D01*
X158256362Y-116213305D01*
X158240263Y-116213118D01*
X158227921Y-116212837D01*
X158218848Y-116212444D01*
X158212556Y-116211920D01*
X158208558Y-116211246D01*
X158206365Y-116210405D01*
X158205490Y-116209379D01*
X158205394Y-116208738D01*
X158205882Y-116205601D01*
X158207324Y-116197045D01*
X158209684Y-116183271D01*
X158212927Y-116164480D01*
X158217017Y-116140875D01*
X158221920Y-116112656D01*
X158227600Y-116080026D01*
X158234022Y-116043186D01*
X158241150Y-116002338D01*
X158248949Y-115957684D01*
X158257385Y-115909426D01*
X158266421Y-115857764D01*
X158276023Y-115802902D01*
X158286155Y-115745040D01*
X158296782Y-115684380D01*
X158307868Y-115621124D01*
X158319379Y-115555474D01*
X158331279Y-115487631D01*
X158343533Y-115417797D01*
X158356106Y-115346174D01*
X158368961Y-115272963D01*
X158379483Y-115213063D01*
X158392537Y-115138753D01*
X158405337Y-115065885D01*
X158417846Y-114994658D01*
X158430030Y-114925273D01*
X158441853Y-114857932D01*
X158453281Y-114792835D01*
X158464278Y-114730183D01*
X158474808Y-114670177D01*
X158484837Y-114613018D01*
X158494330Y-114558907D01*
X158503250Y-114508044D01*
X158511564Y-114460632D01*
X158519235Y-114416869D01*
X158526228Y-114376959D01*
X158532509Y-114341100D01*
X158538042Y-114309495D01*
X158542791Y-114282344D01*
X158546722Y-114259848D01*
X158549799Y-114242208D01*
X158551987Y-114229625D01*
X158553251Y-114222300D01*
X158553573Y-114220358D01*
X158556332Y-114219991D01*
X158564225Y-114219649D01*
X158576681Y-114219341D01*
X158593126Y-114219074D01*
X158612989Y-114218858D01*
X158635695Y-114218699D01*
X158660672Y-114218606D01*
X158680573Y-114218584D01*
X158711048Y-114218601D01*
G36*
X159171424Y-114789774D02*
X159194202Y-114789840D01*
X159219228Y-114789948D01*
X159238950Y-114790054D01*
X159365849Y-114790797D01*
X159240935Y-115500000D01*
X159229881Y-115562767D01*
X159219087Y-115624063D01*
X159208597Y-115683651D01*
X159198451Y-115741292D01*
X159188692Y-115796749D01*
X159179361Y-115849783D01*
X159170501Y-115900158D01*
X159162152Y-115947634D01*
X159154357Y-115991975D01*
X159147157Y-116032942D01*
X159140595Y-116070298D01*
X159134711Y-116103804D01*
X159129549Y-116133224D01*
X159125149Y-116158318D01*
X159121554Y-116178850D01*
X159118805Y-116194581D01*
X159116945Y-116205273D01*
X159116014Y-116210690D01*
X159115910Y-116211342D01*
X159113128Y-116211786D01*
X159105211Y-116212198D01*
X159092734Y-116212570D01*
X159076269Y-116212891D01*
X159056390Y-116213152D01*
X159033670Y-116213344D01*
X159008683Y-116213456D01*
X158988798Y-116213483D01*
X158956998Y-116213447D01*
X158930522Y-116213334D01*
X158908989Y-116213133D01*
X158892015Y-116212834D01*
X158879219Y-116212425D01*
X158870216Y-116211897D01*
X158864626Y-116211240D01*
X158862064Y-116210442D01*
X158861798Y-116210026D01*
X158862284Y-116206952D01*
X158863708Y-116198557D01*
X158866020Y-116185131D01*
X158869169Y-116166962D01*
X158873103Y-116144339D01*
X158877772Y-116117553D01*
X158883125Y-116086891D01*
X158889112Y-116052643D01*
X158895681Y-116015099D01*
X158902781Y-115974547D01*
X158910362Y-115931277D01*
X158918374Y-115885577D01*
X158926764Y-115837738D01*
X158935482Y-115788047D01*
X158944478Y-115736795D01*
X158953701Y-115684271D01*
X158963099Y-115630763D01*
X158972622Y-115576561D01*
X158982219Y-115521954D01*
X158991839Y-115467232D01*
X159001432Y-115412682D01*
X159010946Y-115358596D01*
X159020331Y-115305261D01*
X159029536Y-115252967D01*
X159038510Y-115202003D01*
X159047202Y-115152659D01*
X159055562Y-115105223D01*
X159063538Y-115059984D01*
X159071079Y-115017233D01*
X159078136Y-114977257D01*
X159084657Y-114940347D01*
X159090590Y-114906791D01*
X159095886Y-114876878D01*
X159100494Y-114850898D01*
X159104362Y-114829140D01*
X159107440Y-114811894D01*
X159109677Y-114799447D01*
X159111023Y-114792090D01*
X159111426Y-114790054D01*
X159114317Y-114789916D01*
X159122339Y-114789819D01*
X159134916Y-114789763D01*
X159151469Y-114789748D01*
X159171424Y-114789774D01*
X159171424Y-114789774D01*
G37*
X159171424Y-114789774D02*
X159194202Y-114789840D01*
X159219228Y-114789948D01*
X159238950Y-114790054D01*
X159365849Y-114790797D01*
X159240935Y-115500000D01*
X159229881Y-115562767D01*
X159219087Y-115624063D01*
X159208597Y-115683651D01*
X159198451Y-115741292D01*
X159188692Y-115796749D01*
X159179361Y-115849783D01*
X159170501Y-115900158D01*
X159162152Y-115947634D01*
X159154357Y-115991975D01*
X159147157Y-116032942D01*
X159140595Y-116070298D01*
X159134711Y-116103804D01*
X159129549Y-116133224D01*
X159125149Y-116158318D01*
X159121554Y-116178850D01*
X159118805Y-116194581D01*
X159116945Y-116205273D01*
X159116014Y-116210690D01*
X159115910Y-116211342D01*
X159113128Y-116211786D01*
X159105211Y-116212198D01*
X159092734Y-116212570D01*
X159076269Y-116212891D01*
X159056390Y-116213152D01*
X159033670Y-116213344D01*
X159008683Y-116213456D01*
X158988798Y-116213483D01*
X158956998Y-116213447D01*
X158930522Y-116213334D01*
X158908989Y-116213133D01*
X158892015Y-116212834D01*
X158879219Y-116212425D01*
X158870216Y-116211897D01*
X158864626Y-116211240D01*
X158862064Y-116210442D01*
X158861798Y-116210026D01*
X158862284Y-116206952D01*
X158863708Y-116198557D01*
X158866020Y-116185131D01*
X158869169Y-116166962D01*
X158873103Y-116144339D01*
X158877772Y-116117553D01*
X158883125Y-116086891D01*
X158889112Y-116052643D01*
X158895681Y-116015099D01*
X158902781Y-115974547D01*
X158910362Y-115931277D01*
X158918374Y-115885577D01*
X158926764Y-115837738D01*
X158935482Y-115788047D01*
X158944478Y-115736795D01*
X158953701Y-115684271D01*
X158963099Y-115630763D01*
X158972622Y-115576561D01*
X158982219Y-115521954D01*
X158991839Y-115467232D01*
X159001432Y-115412682D01*
X159010946Y-115358596D01*
X159020331Y-115305261D01*
X159029536Y-115252967D01*
X159038510Y-115202003D01*
X159047202Y-115152659D01*
X159055562Y-115105223D01*
X159063538Y-115059984D01*
X159071079Y-115017233D01*
X159078136Y-114977257D01*
X159084657Y-114940347D01*
X159090590Y-114906791D01*
X159095886Y-114876878D01*
X159100494Y-114850898D01*
X159104362Y-114829140D01*
X159107440Y-114811894D01*
X159109677Y-114799447D01*
X159111023Y-114792090D01*
X159111426Y-114790054D01*
X159114317Y-114789916D01*
X159122339Y-114789819D01*
X159134916Y-114789763D01*
X159151469Y-114789748D01*
X159171424Y-114789774D01*
G36*
X161427618Y-114218987D02*
X161439056Y-114219053D01*
X161445795Y-114219159D01*
X161447423Y-114219268D01*
X161446932Y-114222119D01*
X161445511Y-114230229D01*
X161443225Y-114243236D01*
X161440138Y-114260776D01*
X161436312Y-114282490D01*
X161431813Y-114308013D01*
X161426703Y-114336984D01*
X161421047Y-114369041D01*
X161414909Y-114403822D01*
X161408352Y-114440965D01*
X161401441Y-114480107D01*
X161394238Y-114520886D01*
X161393444Y-114525382D01*
X161386222Y-114566315D01*
X161379296Y-114605650D01*
X161372732Y-114643025D01*
X161366590Y-114678078D01*
X161360934Y-114710447D01*
X161355827Y-114739770D01*
X161351333Y-114765684D01*
X161347513Y-114787828D01*
X161344431Y-114805840D01*
X161342149Y-114819357D01*
X161340732Y-114828017D01*
X161340241Y-114831459D01*
X161340246Y-114831503D01*
X161343018Y-114830832D01*
X161349525Y-114828344D01*
X161357625Y-114824895D01*
X161371562Y-114819187D01*
X161389555Y-114812492D01*
X161410150Y-114805299D01*
X161431891Y-114798098D01*
X161453321Y-114791379D01*
X161472985Y-114785631D01*
X161480281Y-114783648D01*
X161523133Y-114773996D01*
X161567724Y-114767077D01*
X161613265Y-114762855D01*
X161658966Y-114761293D01*
X161704040Y-114762356D01*
X161747696Y-114766007D01*
X161789146Y-114772209D01*
X161827600Y-114780928D01*
X161862271Y-114792125D01*
X161885540Y-114802240D01*
X161913552Y-114818968D01*
X161939428Y-114840022D01*
X161961979Y-114864304D01*
X161978633Y-114888320D01*
X161991095Y-114914013D01*
X162001108Y-114944155D01*
X162008570Y-114977991D01*
X162013383Y-115014768D01*
X162015446Y-115053733D01*
X162014659Y-115094131D01*
X162011155Y-115133354D01*
X162010377Y-115138508D01*
X162008676Y-115148939D01*
X162006114Y-115164303D01*
X162002749Y-115184254D01*
X161998642Y-115208448D01*
X161993852Y-115236538D01*
X161988439Y-115268180D01*
X161982464Y-115303029D01*
X161975985Y-115340739D01*
X161969063Y-115380966D01*
X161961757Y-115423364D01*
X161954127Y-115467588D01*
X161946234Y-115513293D01*
X161938136Y-115560134D01*
X161929894Y-115607766D01*
X161921568Y-115655842D01*
X161913217Y-115704020D01*
X161904901Y-115751952D01*
X161896680Y-115799294D01*
X161888614Y-115845701D01*
X161880762Y-115890828D01*
X161873185Y-115934329D01*
X161865942Y-115975859D01*
X161859093Y-116015074D01*
X161852697Y-116051628D01*
X161846816Y-116085176D01*
X161841507Y-116115372D01*
X161836833Y-116141872D01*
X161832851Y-116164330D01*
X161829622Y-116182401D01*
X161827205Y-116195741D01*
X161825662Y-116204003D01*
X161825338Y-116205634D01*
X161823727Y-116213483D01*
X161569451Y-116213483D01*
X161571381Y-116201353D01*
X161572071Y-116197303D01*
X161573698Y-116187920D01*
X161576211Y-116173494D01*
X161579558Y-116154317D01*
X161583690Y-116130676D01*
X161588556Y-116102863D01*
X161594104Y-116071166D01*
X161600284Y-116035876D01*
X161607046Y-115997283D01*
X161614338Y-115955676D01*
X161622110Y-115911345D01*
X161630311Y-115864579D01*
X161638890Y-115815669D01*
X161647797Y-115764905D01*
X161656980Y-115712575D01*
X161661982Y-115684078D01*
X161672973Y-115621453D01*
X161683019Y-115564185D01*
X161692161Y-115512008D01*
X161700445Y-115464658D01*
X161707913Y-115421870D01*
X161714607Y-115383380D01*
X161720573Y-115348922D01*
X161725853Y-115318231D01*
X161730489Y-115291043D01*
X161734527Y-115267093D01*
X161738008Y-115246116D01*
X161740976Y-115227847D01*
X161743475Y-115212021D01*
X161745547Y-115198373D01*
X161747236Y-115186639D01*
X161748586Y-115176554D01*
X161749640Y-115167852D01*
X161750440Y-115160270D01*
X161751030Y-115153541D01*
X161751454Y-115147402D01*
X161751755Y-115141587D01*
X161751976Y-115135832D01*
X161752066Y-115133032D01*
X161752532Y-115114760D01*
X161752585Y-115100812D01*
X161752132Y-115089815D01*
X161751082Y-115080395D01*
X161749343Y-115071176D01*
X161747418Y-115063111D01*
X161743562Y-115049625D01*
X161738939Y-115036040D01*
X161734455Y-115024993D01*
X161733827Y-115023668D01*
X161725480Y-115010084D01*
X161713597Y-114995281D01*
X161699652Y-114980779D01*
X161685118Y-114968096D01*
X161671469Y-114958751D01*
X161670108Y-114958004D01*
X161648316Y-114948672D01*
X161622175Y-114941265D01*
X161592737Y-114935859D01*
X161561053Y-114932530D01*
X161528174Y-114931353D01*
X161495152Y-114932406D01*
X161463038Y-114935763D01*
X161434892Y-114941023D01*
X161410673Y-114947429D01*
X161385170Y-114955474D01*
X161360437Y-114964444D01*
X161338525Y-114973625D01*
X161331347Y-114977030D01*
X161310840Y-114987168D01*
X161307656Y-115005994D01*
X161306861Y-115010607D01*
X161305132Y-115020573D01*
X161302517Y-115035621D01*
X161299063Y-115055482D01*
X161294816Y-115079886D01*
X161289823Y-115108562D01*
X161284132Y-115141241D01*
X161277790Y-115177651D01*
X161270843Y-115217524D01*
X161263339Y-115260589D01*
X161255325Y-115306576D01*
X161246848Y-115355214D01*
X161237955Y-115406234D01*
X161228693Y-115459366D01*
X161219109Y-115514339D01*
X161209250Y-115570884D01*
X161200958Y-115618438D01*
X161097445Y-116212056D01*
X160969801Y-116212799D01*
X160842158Y-116213542D01*
X160843874Y-116204237D01*
X160844492Y-116200754D01*
X160846062Y-116191853D01*
X160848547Y-116177736D01*
X160851912Y-116158608D01*
X160856122Y-116134671D01*
X160861140Y-116106129D01*
X160866931Y-116073185D01*
X160873460Y-116036042D01*
X160880690Y-115994904D01*
X160888585Y-115949974D01*
X160897111Y-115901455D01*
X160906231Y-115849551D01*
X160915910Y-115794464D01*
X160926111Y-115736400D01*
X160936799Y-115675559D01*
X160947939Y-115612147D01*
X160959495Y-115546365D01*
X160971430Y-115478419D01*
X160983710Y-115408510D01*
X160996298Y-115336842D01*
X161009159Y-115263619D01*
X161019020Y-115207471D01*
X161192449Y-114220011D01*
X161319955Y-114219268D01*
X161346313Y-114219130D01*
X161370830Y-114219034D01*
X161392934Y-114218977D01*
X161412054Y-114218962D01*
X161427618Y-114218987D01*
X161427618Y-114218987D01*
G37*
X161427618Y-114218987D02*
X161439056Y-114219053D01*
X161445795Y-114219159D01*
X161447423Y-114219268D01*
X161446932Y-114222119D01*
X161445511Y-114230229D01*
X161443225Y-114243236D01*
X161440138Y-114260776D01*
X161436312Y-114282490D01*
X161431813Y-114308013D01*
X161426703Y-114336984D01*
X161421047Y-114369041D01*
X161414909Y-114403822D01*
X161408352Y-114440965D01*
X161401441Y-114480107D01*
X161394238Y-114520886D01*
X161393444Y-114525382D01*
X161386222Y-114566315D01*
X161379296Y-114605650D01*
X161372732Y-114643025D01*
X161366590Y-114678078D01*
X161360934Y-114710447D01*
X161355827Y-114739770D01*
X161351333Y-114765684D01*
X161347513Y-114787828D01*
X161344431Y-114805840D01*
X161342149Y-114819357D01*
X161340732Y-114828017D01*
X161340241Y-114831459D01*
X161340246Y-114831503D01*
X161343018Y-114830832D01*
X161349525Y-114828344D01*
X161357625Y-114824895D01*
X161371562Y-114819187D01*
X161389555Y-114812492D01*
X161410150Y-114805299D01*
X161431891Y-114798098D01*
X161453321Y-114791379D01*
X161472985Y-114785631D01*
X161480281Y-114783648D01*
X161523133Y-114773996D01*
X161567724Y-114767077D01*
X161613265Y-114762855D01*
X161658966Y-114761293D01*
X161704040Y-114762356D01*
X161747696Y-114766007D01*
X161789146Y-114772209D01*
X161827600Y-114780928D01*
X161862271Y-114792125D01*
X161885540Y-114802240D01*
X161913552Y-114818968D01*
X161939428Y-114840022D01*
X161961979Y-114864304D01*
X161978633Y-114888320D01*
X161991095Y-114914013D01*
X162001108Y-114944155D01*
X162008570Y-114977991D01*
X162013383Y-115014768D01*
X162015446Y-115053733D01*
X162014659Y-115094131D01*
X162011155Y-115133354D01*
X162010377Y-115138508D01*
X162008676Y-115148939D01*
X162006114Y-115164303D01*
X162002749Y-115184254D01*
X161998642Y-115208448D01*
X161993852Y-115236538D01*
X161988439Y-115268180D01*
X161982464Y-115303029D01*
X161975985Y-115340739D01*
X161969063Y-115380966D01*
X161961757Y-115423364D01*
X161954127Y-115467588D01*
X161946234Y-115513293D01*
X161938136Y-115560134D01*
X161929894Y-115607766D01*
X161921568Y-115655842D01*
X161913217Y-115704020D01*
X161904901Y-115751952D01*
X161896680Y-115799294D01*
X161888614Y-115845701D01*
X161880762Y-115890828D01*
X161873185Y-115934329D01*
X161865942Y-115975859D01*
X161859093Y-116015074D01*
X161852697Y-116051628D01*
X161846816Y-116085176D01*
X161841507Y-116115372D01*
X161836833Y-116141872D01*
X161832851Y-116164330D01*
X161829622Y-116182401D01*
X161827205Y-116195741D01*
X161825662Y-116204003D01*
X161825338Y-116205634D01*
X161823727Y-116213483D01*
X161569451Y-116213483D01*
X161571381Y-116201353D01*
X161572071Y-116197303D01*
X161573698Y-116187920D01*
X161576211Y-116173494D01*
X161579558Y-116154317D01*
X161583690Y-116130676D01*
X161588556Y-116102863D01*
X161594104Y-116071166D01*
X161600284Y-116035876D01*
X161607046Y-115997283D01*
X161614338Y-115955676D01*
X161622110Y-115911345D01*
X161630311Y-115864579D01*
X161638890Y-115815669D01*
X161647797Y-115764905D01*
X161656980Y-115712575D01*
X161661982Y-115684078D01*
X161672973Y-115621453D01*
X161683019Y-115564185D01*
X161692161Y-115512008D01*
X161700445Y-115464658D01*
X161707913Y-115421870D01*
X161714607Y-115383380D01*
X161720573Y-115348922D01*
X161725853Y-115318231D01*
X161730489Y-115291043D01*
X161734527Y-115267093D01*
X161738008Y-115246116D01*
X161740976Y-115227847D01*
X161743475Y-115212021D01*
X161745547Y-115198373D01*
X161747236Y-115186639D01*
X161748586Y-115176554D01*
X161749640Y-115167852D01*
X161750440Y-115160270D01*
X161751030Y-115153541D01*
X161751454Y-115147402D01*
X161751755Y-115141587D01*
X161751976Y-115135832D01*
X161752066Y-115133032D01*
X161752532Y-115114760D01*
X161752585Y-115100812D01*
X161752132Y-115089815D01*
X161751082Y-115080395D01*
X161749343Y-115071176D01*
X161747418Y-115063111D01*
X161743562Y-115049625D01*
X161738939Y-115036040D01*
X161734455Y-115024993D01*
X161733827Y-115023668D01*
X161725480Y-115010084D01*
X161713597Y-114995281D01*
X161699652Y-114980779D01*
X161685118Y-114968096D01*
X161671469Y-114958751D01*
X161670108Y-114958004D01*
X161648316Y-114948672D01*
X161622175Y-114941265D01*
X161592737Y-114935859D01*
X161561053Y-114932530D01*
X161528174Y-114931353D01*
X161495152Y-114932406D01*
X161463038Y-114935763D01*
X161434892Y-114941023D01*
X161410673Y-114947429D01*
X161385170Y-114955474D01*
X161360437Y-114964444D01*
X161338525Y-114973625D01*
X161331347Y-114977030D01*
X161310840Y-114987168D01*
X161307656Y-115005994D01*
X161306861Y-115010607D01*
X161305132Y-115020573D01*
X161302517Y-115035621D01*
X161299063Y-115055482D01*
X161294816Y-115079886D01*
X161289823Y-115108562D01*
X161284132Y-115141241D01*
X161277790Y-115177651D01*
X161270843Y-115217524D01*
X161263339Y-115260589D01*
X161255325Y-115306576D01*
X161246848Y-115355214D01*
X161237955Y-115406234D01*
X161228693Y-115459366D01*
X161219109Y-115514339D01*
X161209250Y-115570884D01*
X161200958Y-115618438D01*
X161097445Y-116212056D01*
X160969801Y-116212799D01*
X160842158Y-116213542D01*
X160843874Y-116204237D01*
X160844492Y-116200754D01*
X160846062Y-116191853D01*
X160848547Y-116177736D01*
X160851912Y-116158608D01*
X160856122Y-116134671D01*
X160861140Y-116106129D01*
X160866931Y-116073185D01*
X160873460Y-116036042D01*
X160880690Y-115994904D01*
X160888585Y-115949974D01*
X160897111Y-115901455D01*
X160906231Y-115849551D01*
X160915910Y-115794464D01*
X160926111Y-115736400D01*
X160936799Y-115675559D01*
X160947939Y-115612147D01*
X160959495Y-115546365D01*
X160971430Y-115478419D01*
X160983710Y-115408510D01*
X160996298Y-115336842D01*
X161009159Y-115263619D01*
X161019020Y-115207471D01*
X161192449Y-114220011D01*
X161319955Y-114219268D01*
X161346313Y-114219130D01*
X161370830Y-114219034D01*
X161392934Y-114218977D01*
X161412054Y-114218962D01*
X161427618Y-114218987D01*
G36*
X168402584Y-114218987D02*
X168414027Y-114219052D01*
X168420772Y-114219159D01*
X168422406Y-114219268D01*
X168421909Y-114222107D01*
X168420464Y-114230311D01*
X168418115Y-114243625D01*
X168414907Y-114261792D01*
X168410886Y-114284557D01*
X168406096Y-114311665D01*
X168400584Y-114342860D01*
X168394393Y-114377885D01*
X168387569Y-114416486D01*
X168380158Y-114458407D01*
X168372204Y-114503393D01*
X168363753Y-114551186D01*
X168354850Y-114601533D01*
X168345541Y-114654177D01*
X168335869Y-114708863D01*
X168325882Y-114765335D01*
X168315623Y-114823337D01*
X168314311Y-114830752D01*
X168304026Y-114888934D01*
X168294016Y-114945621D01*
X168284326Y-115000559D01*
X168275002Y-115053490D01*
X168266087Y-115104159D01*
X168257627Y-115152310D01*
X168249666Y-115197688D01*
X168242249Y-115240036D01*
X168235421Y-115279098D01*
X168229225Y-115314620D01*
X168223708Y-115346344D01*
X168218914Y-115374016D01*
X168214887Y-115397379D01*
X168211673Y-115416177D01*
X168209315Y-115430154D01*
X168207859Y-115439056D01*
X168207350Y-115442625D01*
X168207355Y-115442683D01*
X168209370Y-115442683D01*
X168211241Y-115440365D01*
X168216500Y-115433853D01*
X168224947Y-115423394D01*
X168236384Y-115409234D01*
X168250612Y-115391620D01*
X168267431Y-115370798D01*
X168286643Y-115347015D01*
X168308048Y-115320516D01*
X168331447Y-115291550D01*
X168356642Y-115260361D01*
X168383433Y-115227196D01*
X168411621Y-115192303D01*
X168441007Y-115155926D01*
X168471392Y-115118314D01*
X168473719Y-115115432D01*
X168737126Y-114789370D01*
X168878384Y-114789370D01*
X168910412Y-114789379D01*
X168937183Y-114789417D01*
X168959150Y-114789499D01*
X168976765Y-114789642D01*
X168990479Y-114789862D01*
X169000743Y-114790176D01*
X169008010Y-114790600D01*
X169012731Y-114791149D01*
X169015358Y-114791841D01*
X169016344Y-114792691D01*
X169016138Y-114793716D01*
X169015726Y-114794303D01*
X169013471Y-114797026D01*
X169007757Y-114803880D01*
X168998787Y-114814619D01*
X168986769Y-114829000D01*
X168971905Y-114846776D01*
X168954402Y-114867704D01*
X168934465Y-114891537D01*
X168912298Y-114918031D01*
X168888106Y-114946941D01*
X168862095Y-114978021D01*
X168834470Y-115011027D01*
X168805435Y-115045714D01*
X168775195Y-115081837D01*
X168743956Y-115119149D01*
X168739259Y-115124760D01*
X168707897Y-115162218D01*
X168677509Y-115198516D01*
X168648299Y-115233410D01*
X168620472Y-115266653D01*
X168594233Y-115298003D01*
X168569786Y-115327214D01*
X168547335Y-115354042D01*
X168527086Y-115378242D01*
X168509244Y-115399571D01*
X168494011Y-115417782D01*
X168481595Y-115432632D01*
X168472198Y-115443877D01*
X168466025Y-115451271D01*
X168463282Y-115454570D01*
X168463179Y-115454697D01*
X168463012Y-115455989D01*
X168463623Y-115458723D01*
X168465119Y-115463128D01*
X168467609Y-115469433D01*
X168471200Y-115477868D01*
X168476002Y-115488663D01*
X168482122Y-115502046D01*
X168489669Y-115518249D01*
X168498751Y-115537499D01*
X168509476Y-115560027D01*
X168521953Y-115586063D01*
X168536290Y-115615835D01*
X168552596Y-115649573D01*
X168570978Y-115687508D01*
X168591546Y-115729868D01*
X168614407Y-115776883D01*
X168639669Y-115828782D01*
X168640821Y-115831147D01*
X168661927Y-115874502D01*
X168682359Y-115916493D01*
X168701974Y-115956831D01*
X168720633Y-115995226D01*
X168738194Y-116031385D01*
X168754517Y-116065020D01*
X168769462Y-116095840D01*
X168782886Y-116123554D01*
X168794650Y-116147872D01*
X168804612Y-116168503D01*
X168812632Y-116185156D01*
X168818569Y-116197542D01*
X168822283Y-116205370D01*
X168823627Y-116208333D01*
X168823778Y-116209502D01*
X168823117Y-116210479D01*
X168821182Y-116211283D01*
X168817513Y-116211929D01*
X168811647Y-116212434D01*
X168803124Y-116212817D01*
X168791482Y-116213094D01*
X168776259Y-116213281D01*
X168756994Y-116213397D01*
X168733226Y-116213457D01*
X168704493Y-116213480D01*
X168684314Y-116213483D01*
X168543367Y-116213483D01*
X168374084Y-115846039D01*
X168354149Y-115802784D01*
X168334851Y-115760943D01*
X168316327Y-115720810D01*
X168298712Y-115682679D01*
X168282144Y-115646844D01*
X168266759Y-115613600D01*
X168252692Y-115583241D01*
X168240081Y-115556060D01*
X168229062Y-115532353D01*
X168219771Y-115512412D01*
X168212344Y-115496533D01*
X168206918Y-115485009D01*
X168203629Y-115478134D01*
X168202622Y-115476173D01*
X168202267Y-115475597D01*
X168201971Y-115474948D01*
X168201682Y-115474504D01*
X168201350Y-115474541D01*
X168200926Y-115475339D01*
X168200358Y-115477175D01*
X168199596Y-115480328D01*
X168198591Y-115485076D01*
X168197291Y-115491696D01*
X168195646Y-115500467D01*
X168193606Y-115511667D01*
X168191120Y-115525573D01*
X168188138Y-115542465D01*
X168184610Y-115562620D01*
X168180485Y-115586316D01*
X168175713Y-115613831D01*
X168170243Y-115645444D01*
X168164025Y-115681432D01*
X168157010Y-115722074D01*
X168149145Y-115767647D01*
X168140381Y-115818430D01*
X168135739Y-115845325D01*
X168128081Y-115889674D01*
X168120674Y-115932527D01*
X168113579Y-115973540D01*
X168106855Y-116012371D01*
X168100561Y-116048676D01*
X168094758Y-116082113D01*
X168089505Y-116112339D01*
X168084862Y-116139009D01*
X168080887Y-116161782D01*
X168077642Y-116180314D01*
X168075185Y-116194261D01*
X168073577Y-116203281D01*
X168072876Y-116207031D01*
X168072869Y-116207061D01*
X168071330Y-116213483D01*
X167944384Y-116213483D01*
X167918089Y-116213436D01*
X167893639Y-116213303D01*
X167871606Y-116213093D01*
X167852563Y-116212816D01*
X167837083Y-116212481D01*
X167825736Y-116212098D01*
X167819096Y-116211677D01*
X167817549Y-116211342D01*
X167818046Y-116208403D01*
X167819496Y-116200043D01*
X167821864Y-116186463D01*
X167825115Y-116167863D01*
X167829214Y-116144444D01*
X167834125Y-116116406D01*
X167839813Y-116083950D01*
X167846243Y-116047278D01*
X167853380Y-116006588D01*
X167861189Y-115962083D01*
X167869634Y-115913962D01*
X167878680Y-115862426D01*
X167888292Y-115807677D01*
X167898435Y-115749914D01*
X167909073Y-115689338D01*
X167920172Y-115626150D01*
X167931696Y-115560550D01*
X167943610Y-115492739D01*
X167955878Y-115422918D01*
X167968466Y-115351288D01*
X167981338Y-115278048D01*
X167992489Y-115214606D01*
X168167318Y-114220011D01*
X168294895Y-114219268D01*
X168321259Y-114219130D01*
X168345782Y-114219034D01*
X168367891Y-114218977D01*
X168387015Y-114218962D01*
X168402584Y-114218987D01*
X168402584Y-114218987D01*
G37*
X168402584Y-114218987D02*
X168414027Y-114219052D01*
X168420772Y-114219159D01*
X168422406Y-114219268D01*
X168421909Y-114222107D01*
X168420464Y-114230311D01*
X168418115Y-114243625D01*
X168414907Y-114261792D01*
X168410886Y-114284557D01*
X168406096Y-114311665D01*
X168400584Y-114342860D01*
X168394393Y-114377885D01*
X168387569Y-114416486D01*
X168380158Y-114458407D01*
X168372204Y-114503393D01*
X168363753Y-114551186D01*
X168354850Y-114601533D01*
X168345541Y-114654177D01*
X168335869Y-114708863D01*
X168325882Y-114765335D01*
X168315623Y-114823337D01*
X168314311Y-114830752D01*
X168304026Y-114888934D01*
X168294016Y-114945621D01*
X168284326Y-115000559D01*
X168275002Y-115053490D01*
X168266087Y-115104159D01*
X168257627Y-115152310D01*
X168249666Y-115197688D01*
X168242249Y-115240036D01*
X168235421Y-115279098D01*
X168229225Y-115314620D01*
X168223708Y-115346344D01*
X168218914Y-115374016D01*
X168214887Y-115397379D01*
X168211673Y-115416177D01*
X168209315Y-115430154D01*
X168207859Y-115439056D01*
X168207350Y-115442625D01*
X168207355Y-115442683D01*
X168209370Y-115442683D01*
X168211241Y-115440365D01*
X168216500Y-115433853D01*
X168224947Y-115423394D01*
X168236384Y-115409234D01*
X168250612Y-115391620D01*
X168267431Y-115370798D01*
X168286643Y-115347015D01*
X168308048Y-115320516D01*
X168331447Y-115291550D01*
X168356642Y-115260361D01*
X168383433Y-115227196D01*
X168411621Y-115192303D01*
X168441007Y-115155926D01*
X168471392Y-115118314D01*
X168473719Y-115115432D01*
X168737126Y-114789370D01*
X168878384Y-114789370D01*
X168910412Y-114789379D01*
X168937183Y-114789417D01*
X168959150Y-114789499D01*
X168976765Y-114789642D01*
X168990479Y-114789862D01*
X169000743Y-114790176D01*
X169008010Y-114790600D01*
X169012731Y-114791149D01*
X169015358Y-114791841D01*
X169016344Y-114792691D01*
X169016138Y-114793716D01*
X169015726Y-114794303D01*
X169013471Y-114797026D01*
X169007757Y-114803880D01*
X168998787Y-114814619D01*
X168986769Y-114829000D01*
X168971905Y-114846776D01*
X168954402Y-114867704D01*
X168934465Y-114891537D01*
X168912298Y-114918031D01*
X168888106Y-114946941D01*
X168862095Y-114978021D01*
X168834470Y-115011027D01*
X168805435Y-115045714D01*
X168775195Y-115081837D01*
X168743956Y-115119149D01*
X168739259Y-115124760D01*
X168707897Y-115162218D01*
X168677509Y-115198516D01*
X168648299Y-115233410D01*
X168620472Y-115266653D01*
X168594233Y-115298003D01*
X168569786Y-115327214D01*
X168547335Y-115354042D01*
X168527086Y-115378242D01*
X168509244Y-115399571D01*
X168494011Y-115417782D01*
X168481595Y-115432632D01*
X168472198Y-115443877D01*
X168466025Y-115451271D01*
X168463282Y-115454570D01*
X168463179Y-115454697D01*
X168463012Y-115455989D01*
X168463623Y-115458723D01*
X168465119Y-115463128D01*
X168467609Y-115469433D01*
X168471200Y-115477868D01*
X168476002Y-115488663D01*
X168482122Y-115502046D01*
X168489669Y-115518249D01*
X168498751Y-115537499D01*
X168509476Y-115560027D01*
X168521953Y-115586063D01*
X168536290Y-115615835D01*
X168552596Y-115649573D01*
X168570978Y-115687508D01*
X168591546Y-115729868D01*
X168614407Y-115776883D01*
X168639669Y-115828782D01*
X168640821Y-115831147D01*
X168661927Y-115874502D01*
X168682359Y-115916493D01*
X168701974Y-115956831D01*
X168720633Y-115995226D01*
X168738194Y-116031385D01*
X168754517Y-116065020D01*
X168769462Y-116095840D01*
X168782886Y-116123554D01*
X168794650Y-116147872D01*
X168804612Y-116168503D01*
X168812632Y-116185156D01*
X168818569Y-116197542D01*
X168822283Y-116205370D01*
X168823627Y-116208333D01*
X168823778Y-116209502D01*
X168823117Y-116210479D01*
X168821182Y-116211283D01*
X168817513Y-116211929D01*
X168811647Y-116212434D01*
X168803124Y-116212817D01*
X168791482Y-116213094D01*
X168776259Y-116213281D01*
X168756994Y-116213397D01*
X168733226Y-116213457D01*
X168704493Y-116213480D01*
X168684314Y-116213483D01*
X168543367Y-116213483D01*
X168374084Y-115846039D01*
X168354149Y-115802784D01*
X168334851Y-115760943D01*
X168316327Y-115720810D01*
X168298712Y-115682679D01*
X168282144Y-115646844D01*
X168266759Y-115613600D01*
X168252692Y-115583241D01*
X168240081Y-115556060D01*
X168229062Y-115532353D01*
X168219771Y-115512412D01*
X168212344Y-115496533D01*
X168206918Y-115485009D01*
X168203629Y-115478134D01*
X168202622Y-115476173D01*
X168202267Y-115475597D01*
X168201971Y-115474948D01*
X168201682Y-115474504D01*
X168201350Y-115474541D01*
X168200926Y-115475339D01*
X168200358Y-115477175D01*
X168199596Y-115480328D01*
X168198591Y-115485076D01*
X168197291Y-115491696D01*
X168195646Y-115500467D01*
X168193606Y-115511667D01*
X168191120Y-115525573D01*
X168188138Y-115542465D01*
X168184610Y-115562620D01*
X168180485Y-115586316D01*
X168175713Y-115613831D01*
X168170243Y-115645444D01*
X168164025Y-115681432D01*
X168157010Y-115722074D01*
X168149145Y-115767647D01*
X168140381Y-115818430D01*
X168135739Y-115845325D01*
X168128081Y-115889674D01*
X168120674Y-115932527D01*
X168113579Y-115973540D01*
X168106855Y-116012371D01*
X168100561Y-116048676D01*
X168094758Y-116082113D01*
X168089505Y-116112339D01*
X168084862Y-116139009D01*
X168080887Y-116161782D01*
X168077642Y-116180314D01*
X168075185Y-116194261D01*
X168073577Y-116203281D01*
X168072876Y-116207031D01*
X168072869Y-116207061D01*
X168071330Y-116213483D01*
X167944384Y-116213483D01*
X167918089Y-116213436D01*
X167893639Y-116213303D01*
X167871606Y-116213093D01*
X167852563Y-116212816D01*
X167837083Y-116212481D01*
X167825736Y-116212098D01*
X167819096Y-116211677D01*
X167817549Y-116211342D01*
X167818046Y-116208403D01*
X167819496Y-116200043D01*
X167821864Y-116186463D01*
X167825115Y-116167863D01*
X167829214Y-116144444D01*
X167834125Y-116116406D01*
X167839813Y-116083950D01*
X167846243Y-116047278D01*
X167853380Y-116006588D01*
X167861189Y-115962083D01*
X167869634Y-115913962D01*
X167878680Y-115862426D01*
X167888292Y-115807677D01*
X167898435Y-115749914D01*
X167909073Y-115689338D01*
X167920172Y-115626150D01*
X167931696Y-115560550D01*
X167943610Y-115492739D01*
X167955878Y-115422918D01*
X167968466Y-115351288D01*
X167981338Y-115278048D01*
X167992489Y-115214606D01*
X168167318Y-114220011D01*
X168294895Y-114219268D01*
X168321259Y-114219130D01*
X168345782Y-114219034D01*
X168367891Y-114218977D01*
X168387015Y-114218962D01*
X168402584Y-114218987D01*
G36*
X159259895Y-114276066D02*
X159282672Y-114276132D01*
X159307695Y-114276240D01*
X159327393Y-114276346D01*
X159454262Y-114277089D01*
X159433584Y-114396955D01*
X159428908Y-114424061D01*
X159424292Y-114450823D01*
X159419880Y-114476406D01*
X159415815Y-114499976D01*
X159412243Y-114520696D01*
X159409306Y-114537733D01*
X159407149Y-114550251D01*
X159406639Y-114553207D01*
X159400372Y-114589595D01*
X159273782Y-114589595D01*
X159243558Y-114589584D01*
X159218551Y-114589537D01*
X159198269Y-114589435D01*
X159182221Y-114589259D01*
X159169917Y-114588990D01*
X159160863Y-114588607D01*
X159154570Y-114588092D01*
X159150547Y-114587425D01*
X159148301Y-114586587D01*
X159147342Y-114585558D01*
X159147171Y-114584601D01*
X159147633Y-114581069D01*
X159148957Y-114572604D01*
X159151033Y-114559831D01*
X159153757Y-114543375D01*
X159157021Y-114523861D01*
X159160717Y-114501914D01*
X159164740Y-114478160D01*
X159168981Y-114453224D01*
X159173335Y-114427730D01*
X159177693Y-114402304D01*
X159181950Y-114377571D01*
X159185999Y-114354156D01*
X159189731Y-114332684D01*
X159193041Y-114313781D01*
X159195822Y-114298071D01*
X159197966Y-114286180D01*
X159199367Y-114278732D01*
X159199902Y-114276346D01*
X159202793Y-114276208D01*
X159210814Y-114276111D01*
X159223389Y-114276055D01*
X159239942Y-114276040D01*
X159259895Y-114276066D01*
X159259895Y-114276066D01*
G37*
X159259895Y-114276066D02*
X159282672Y-114276132D01*
X159307695Y-114276240D01*
X159327393Y-114276346D01*
X159454262Y-114277089D01*
X159433584Y-114396955D01*
X159428908Y-114424061D01*
X159424292Y-114450823D01*
X159419880Y-114476406D01*
X159415815Y-114499976D01*
X159412243Y-114520696D01*
X159409306Y-114537733D01*
X159407149Y-114550251D01*
X159406639Y-114553207D01*
X159400372Y-114589595D01*
X159273782Y-114589595D01*
X159243558Y-114589584D01*
X159218551Y-114589537D01*
X159198269Y-114589435D01*
X159182221Y-114589259D01*
X159169917Y-114588990D01*
X159160863Y-114588607D01*
X159154570Y-114588092D01*
X159150547Y-114587425D01*
X159148301Y-114586587D01*
X159147342Y-114585558D01*
X159147171Y-114584601D01*
X159147633Y-114581069D01*
X159148957Y-114572604D01*
X159151033Y-114559831D01*
X159153757Y-114543375D01*
X159157021Y-114523861D01*
X159160717Y-114501914D01*
X159164740Y-114478160D01*
X159168981Y-114453224D01*
X159173335Y-114427730D01*
X159177693Y-114402304D01*
X159181950Y-114377571D01*
X159185999Y-114354156D01*
X159189731Y-114332684D01*
X159193041Y-114313781D01*
X159195822Y-114298071D01*
X159197966Y-114286180D01*
X159199367Y-114278732D01*
X159199902Y-114276346D01*
X159202793Y-114276208D01*
X159210814Y-114276111D01*
X159223389Y-114276055D01*
X159239942Y-114276040D01*
X159259895Y-114276066D01*
D13*
X162291667Y-120328571D02*
X161958333Y-120328571D01*
X161958333Y-120852381D02*
X161958333Y-119852381D01*
X162434524Y-119852381D01*
X162720238Y-119852381D02*
X163339286Y-119852381D01*
X163005952Y-120233333D01*
X163148810Y-120233333D01*
X163244048Y-120280952D01*
X163291667Y-120328571D01*
X163339286Y-120423810D01*
X163339286Y-120661905D01*
X163291667Y-120757143D01*
X163244048Y-120804762D01*
X163148810Y-120852381D01*
X162863095Y-120852381D01*
X162767857Y-120804762D01*
X162720238Y-120757143D01*
X162093334Y-103142381D02*
X161760000Y-102666190D01*
X161521905Y-103142381D02*
X161521905Y-102142381D01*
X161902858Y-102142381D01*
X161998096Y-102190000D01*
X162045715Y-102237619D01*
X162093334Y-102332857D01*
X162093334Y-102475714D01*
X162045715Y-102570952D01*
X161998096Y-102618571D01*
X161902858Y-102666190D01*
X161521905Y-102666190D01*
X163045715Y-103142381D02*
X162474286Y-103142381D01*
X162760000Y-103142381D02*
X162760000Y-102142381D01*
X162664762Y-102285238D01*
X162569524Y-102380476D01*
X162474286Y-102428095D01*
X162123334Y-101142381D02*
X161790000Y-100666190D01*
X161551905Y-101142381D02*
X161551905Y-100142381D01*
X161932858Y-100142381D01*
X162028096Y-100190000D01*
X162075715Y-100237619D01*
X162123334Y-100332857D01*
X162123334Y-100475714D01*
X162075715Y-100570952D01*
X162028096Y-100618571D01*
X161932858Y-100666190D01*
X161551905Y-100666190D01*
X162504286Y-100237619D02*
X162551905Y-100190000D01*
X162647143Y-100142381D01*
X162885239Y-100142381D01*
X162980477Y-100190000D01*
X163028096Y-100237619D01*
X163075715Y-100332857D01*
X163075715Y-100428095D01*
X163028096Y-100570952D01*
X162456667Y-101142381D01*
X163075715Y-101142381D01*
X162291667Y-97928571D02*
X161958333Y-97928571D01*
X161958333Y-98452381D02*
X161958333Y-97452381D01*
X162434524Y-97452381D01*
X162767857Y-97547619D02*
X162815476Y-97500000D01*
X162910714Y-97452381D01*
X163148810Y-97452381D01*
X163244048Y-97500000D01*
X163291667Y-97547619D01*
X163339286Y-97642857D01*
X163339286Y-97738095D01*
X163291667Y-97880952D01*
X162720238Y-98452381D01*
X163339286Y-98452381D01*
X159516667Y-97953571D02*
X159183333Y-97953571D01*
X159183333Y-98477381D02*
X159183333Y-97477381D01*
X159659524Y-97477381D01*
X160564286Y-98477381D02*
X159992857Y-98477381D01*
X160278571Y-98477381D02*
X160278571Y-97477381D01*
X160183333Y-97620238D01*
X160088095Y-97715476D01*
X159992857Y-97763095D01*
M02*
