G04 #@! TF.FileFunction,Soldermask,Bot*
%FSLAX46Y46*%
G04 Gerber Fmt 4.6, Leading zero omitted, Abs format (unit mm)*
G04 Created by KiCad (PCBNEW 4.0.1-stable) date Friday, March 04, 2016 'AMt' 12:55:25 AM*
%MOMM*%
G01*
G04 APERTURE LIST*
%ADD10C,0.100000*%
%ADD11C,0.010000*%
%ADD12O,2.432000X2.432000*%
%ADD13C,2.432000*%
%ADD14R,2.432000X2.432000*%
%ADD15R,3.400000X2.432000*%
%ADD16O,3.400000X2.432000*%
G04 APERTURE END LIST*
D10*
D11*
G36*
X163558969Y-116723103D02*
X163521134Y-116724878D01*
X163485237Y-116727950D01*
X163449588Y-116732451D01*
X163412501Y-116738512D01*
X163387463Y-116743226D01*
X163350495Y-116750873D01*
X163315230Y-116759056D01*
X163280622Y-116768108D01*
X163245624Y-116778364D01*
X163209191Y-116790156D01*
X163170278Y-116803818D01*
X163127839Y-116819684D01*
X163080827Y-116838088D01*
X163045263Y-116852406D01*
X162998042Y-116871805D01*
X162950102Y-116891943D01*
X162901041Y-116913011D01*
X162850453Y-116935199D01*
X162797934Y-116958695D01*
X162743079Y-116983689D01*
X162685486Y-117010372D01*
X162624749Y-117038932D01*
X162560464Y-117069559D01*
X162492227Y-117102442D01*
X162419635Y-117137772D01*
X162342281Y-117175737D01*
X162259764Y-117216528D01*
X162171677Y-117260333D01*
X162113915Y-117289177D01*
X162032201Y-117329964D01*
X161956268Y-117367698D01*
X161885642Y-117402596D01*
X161819851Y-117434875D01*
X161758423Y-117464752D01*
X161700885Y-117492444D01*
X161646765Y-117518167D01*
X161595591Y-117542138D01*
X161546889Y-117564575D01*
X161500189Y-117585695D01*
X161455018Y-117605714D01*
X161410903Y-117624848D01*
X161367371Y-117643316D01*
X161323951Y-117661334D01*
X161280171Y-117679119D01*
X161235557Y-117696888D01*
X161189637Y-117714857D01*
X161172458Y-117721509D01*
X161148476Y-117730793D01*
X161126212Y-117739455D01*
X161106652Y-117747109D01*
X161090781Y-117753366D01*
X161079586Y-117757840D01*
X161074216Y-117760070D01*
X161064168Y-117764573D01*
X161079302Y-117783849D01*
X161091111Y-117797902D01*
X161107080Y-117815482D01*
X161126079Y-117835449D01*
X161146977Y-117856663D01*
X161168643Y-117877986D01*
X161189945Y-117898277D01*
X161209754Y-117916397D01*
X161218319Y-117923920D01*
X161293898Y-117985039D01*
X161375648Y-118043238D01*
X161463253Y-118098375D01*
X161556399Y-118150306D01*
X161654769Y-118198886D01*
X161758048Y-118243973D01*
X161865921Y-118285422D01*
X161978072Y-118323091D01*
X162094186Y-118356835D01*
X162213946Y-118386510D01*
X162253722Y-118395281D01*
X162312747Y-118407567D01*
X162366586Y-118418013D01*
X162416795Y-118426877D01*
X162464926Y-118434413D01*
X162512531Y-118440877D01*
X162561165Y-118446526D01*
X162571222Y-118447588D01*
X162591268Y-118449185D01*
X162616488Y-118450438D01*
X162645561Y-118451348D01*
X162677167Y-118451913D01*
X162709986Y-118452134D01*
X162742697Y-118452011D01*
X162773980Y-118451543D01*
X162802515Y-118450730D01*
X162826981Y-118449572D01*
X162846059Y-118448069D01*
X162849917Y-118447629D01*
X162920413Y-118436359D01*
X162985332Y-118420777D01*
X163044686Y-118400875D01*
X163098489Y-118376642D01*
X163146754Y-118348071D01*
X163189494Y-118315152D01*
X163226725Y-118277875D01*
X163258458Y-118236233D01*
X163284708Y-118190216D01*
X163304186Y-118143556D01*
X163313436Y-118115336D01*
X163320050Y-118089790D01*
X163324389Y-118064670D01*
X163326811Y-118037726D01*
X163327677Y-118006710D01*
X163327689Y-117996690D01*
X163327494Y-117939783D01*
X163350459Y-117937430D01*
X163373423Y-117935078D01*
X163423181Y-117969010D01*
X163422739Y-118018359D01*
X163418754Y-118076590D01*
X163407973Y-118133341D01*
X163390573Y-118188195D01*
X163366733Y-118240732D01*
X163336631Y-118290536D01*
X163300446Y-118337188D01*
X163275226Y-118364155D01*
X163234590Y-118401000D01*
X163190860Y-118433371D01*
X163143528Y-118461491D01*
X163092089Y-118485584D01*
X163036034Y-118505873D01*
X162974857Y-118522584D01*
X162908052Y-118535938D01*
X162874611Y-118541113D01*
X162853545Y-118543389D01*
X162826697Y-118545185D01*
X162795325Y-118546500D01*
X162760685Y-118547334D01*
X162724034Y-118547688D01*
X162686631Y-118547562D01*
X162649731Y-118546956D01*
X162614593Y-118545870D01*
X162582474Y-118544303D01*
X162554630Y-118542257D01*
X162543000Y-118541088D01*
X162428753Y-118525915D01*
X162313621Y-118506055D01*
X162198476Y-118481770D01*
X162084191Y-118453321D01*
X161971641Y-118420969D01*
X161861697Y-118384975D01*
X161755234Y-118345600D01*
X161653124Y-118303106D01*
X161556240Y-118257754D01*
X161501392Y-118229498D01*
X161418282Y-118182751D01*
X161339342Y-118133631D01*
X161265019Y-118082487D01*
X161195759Y-118029668D01*
X161132007Y-117975522D01*
X161074209Y-117920397D01*
X161022812Y-117864643D01*
X161001120Y-117838480D01*
X160986411Y-117820572D01*
X160975353Y-117808259D01*
X160967679Y-117801267D01*
X160963122Y-117799322D01*
X160962894Y-117799373D01*
X160948318Y-117803012D01*
X160927871Y-117807139D01*
X160902704Y-117811588D01*
X160873971Y-117816193D01*
X160842826Y-117820787D01*
X160810421Y-117825204D01*
X160777909Y-117829276D01*
X160746444Y-117832837D01*
X160717179Y-117835720D01*
X160703264Y-117836893D01*
X160673004Y-117838630D01*
X160639491Y-117839311D01*
X160602279Y-117838909D01*
X160560925Y-117837398D01*
X160514983Y-117834750D01*
X160464009Y-117830938D01*
X160407559Y-117825937D01*
X160345188Y-117819719D01*
X160276452Y-117812256D01*
X160255236Y-117809853D01*
X160157304Y-117798039D01*
X160052890Y-117784253D01*
X159942274Y-117768544D01*
X159825733Y-117750962D01*
X159703546Y-117731559D01*
X159575989Y-117710386D01*
X159443343Y-117687492D01*
X159305883Y-117662928D01*
X159163890Y-117636746D01*
X159017640Y-117608995D01*
X158867412Y-117579727D01*
X158713483Y-117548991D01*
X158556133Y-117516840D01*
X158395639Y-117483322D01*
X158232279Y-117448489D01*
X158066331Y-117412392D01*
X158038028Y-117406166D01*
X158006495Y-117399268D01*
X157976427Y-117392787D01*
X157948674Y-117386899D01*
X157924087Y-117381780D01*
X157903516Y-117377607D01*
X157887814Y-117374556D01*
X157877830Y-117372804D01*
X157875750Y-117372520D01*
X157848371Y-117372603D01*
X157819403Y-117378198D01*
X157790663Y-117388640D01*
X157763968Y-117403263D01*
X157741137Y-117421400D01*
X157740423Y-117422097D01*
X157729666Y-117434458D01*
X157716441Y-117452584D01*
X157701127Y-117475782D01*
X157684102Y-117503362D01*
X157665747Y-117534633D01*
X157646438Y-117568902D01*
X157626556Y-117605479D01*
X157606479Y-117643671D01*
X157586585Y-117682789D01*
X157567253Y-117722139D01*
X157548863Y-117761031D01*
X157531792Y-117798774D01*
X157523062Y-117818888D01*
X157495582Y-117887828D01*
X157473705Y-117952753D01*
X157457436Y-118013631D01*
X157446780Y-118070428D01*
X157441742Y-118123112D01*
X157442326Y-118171650D01*
X157448538Y-118216008D01*
X157459697Y-118254355D01*
X157469279Y-118274617D01*
X157482842Y-118296530D01*
X157498641Y-118317628D01*
X157514928Y-118335441D01*
X157520911Y-118340860D01*
X157536300Y-118352771D01*
X157552919Y-118363287D01*
X157571311Y-118372518D01*
X157592022Y-118380574D01*
X157615594Y-118387565D01*
X157642573Y-118393602D01*
X157673502Y-118398794D01*
X157708926Y-118403252D01*
X157749388Y-118407086D01*
X157795433Y-118410405D01*
X157847604Y-118413321D01*
X157888097Y-118415182D01*
X157907868Y-118415961D01*
X157933696Y-118416876D01*
X157964584Y-118417897D01*
X157999536Y-118418994D01*
X158037554Y-118420137D01*
X158077643Y-118421294D01*
X158118805Y-118422437D01*
X158160044Y-118423534D01*
X158180903Y-118424070D01*
X158286868Y-118426865D01*
X158386377Y-118429728D01*
X158480029Y-118432688D01*
X158568424Y-118435774D01*
X158652160Y-118439016D01*
X158731838Y-118442444D01*
X158808056Y-118446086D01*
X158881413Y-118449972D01*
X158952509Y-118454132D01*
X159021944Y-118458595D01*
X159090317Y-118463390D01*
X159158226Y-118468548D01*
X159226271Y-118474096D01*
X159262167Y-118477168D01*
X159414575Y-118491484D01*
X159561084Y-118507501D01*
X159702686Y-118525426D01*
X159840371Y-118545462D01*
X159975131Y-118567813D01*
X160107958Y-118592686D01*
X160239844Y-118620283D01*
X160371779Y-118650811D01*
X160504756Y-118684473D01*
X160639766Y-118721474D01*
X160777801Y-118762018D01*
X160919851Y-118806311D01*
X161027819Y-118841516D01*
X161084471Y-118860415D01*
X161136899Y-118878181D01*
X161185676Y-118895079D01*
X161231373Y-118911377D01*
X161274563Y-118927340D01*
X161315816Y-118943235D01*
X161355705Y-118959327D01*
X161394801Y-118975884D01*
X161433675Y-118993170D01*
X161472901Y-119011452D01*
X161513048Y-119030997D01*
X161554690Y-119052071D01*
X161598398Y-119074939D01*
X161644743Y-119099869D01*
X161694297Y-119127125D01*
X161747632Y-119156975D01*
X161805320Y-119189684D01*
X161867932Y-119225519D01*
X161932694Y-119262815D01*
X161982887Y-119291743D01*
X162027657Y-119317450D01*
X162067661Y-119340298D01*
X162103555Y-119360648D01*
X162135994Y-119378863D01*
X162165635Y-119395303D01*
X162193134Y-119410330D01*
X162219147Y-119424307D01*
X162244330Y-119437594D01*
X162269338Y-119450554D01*
X162294828Y-119463549D01*
X162317222Y-119474820D01*
X162382539Y-119506741D01*
X162443326Y-119534702D01*
X162500631Y-119559064D01*
X162555499Y-119580188D01*
X162608978Y-119598436D01*
X162662115Y-119614169D01*
X162715957Y-119627748D01*
X162771551Y-119639537D01*
X162819025Y-119648094D01*
X162878301Y-119657475D01*
X162932886Y-119664849D01*
X162984804Y-119670377D01*
X163036074Y-119674223D01*
X163088721Y-119676550D01*
X163144766Y-119677522D01*
X163183292Y-119677509D01*
X163209880Y-119677309D01*
X163234924Y-119677051D01*
X163257330Y-119676751D01*
X163276003Y-119676426D01*
X163289851Y-119676092D01*
X163297777Y-119675767D01*
X163297944Y-119675755D01*
X163388991Y-119666740D01*
X163478800Y-119653096D01*
X163566515Y-119635042D01*
X163651282Y-119612798D01*
X163732244Y-119586583D01*
X163808545Y-119556619D01*
X163866209Y-119529817D01*
X163952043Y-119482919D01*
X164035670Y-119429377D01*
X164117012Y-119369273D01*
X164195994Y-119302690D01*
X164272539Y-119229708D01*
X164346571Y-119150411D01*
X164418015Y-119064879D01*
X164486793Y-118973196D01*
X164552829Y-118875442D01*
X164616048Y-118771701D01*
X164676373Y-118662053D01*
X164680700Y-118653746D01*
X164717707Y-118578734D01*
X164752221Y-118500989D01*
X164784600Y-118419580D01*
X164815202Y-118333574D01*
X164844388Y-118242039D01*
X164860890Y-118185758D01*
X164868457Y-118159169D01*
X165114194Y-118060044D01*
X165153671Y-118044069D01*
X165191187Y-118028791D01*
X165226234Y-118014422D01*
X165258306Y-118001173D01*
X165286898Y-117989257D01*
X165311502Y-117978887D01*
X165331612Y-117970274D01*
X165346722Y-117963630D01*
X165356326Y-117959168D01*
X165359917Y-117957101D01*
X165359931Y-117957055D01*
X165357356Y-117954178D01*
X165349885Y-117946965D01*
X165337902Y-117935762D01*
X165321787Y-117920917D01*
X165301922Y-117902776D01*
X165278690Y-117881686D01*
X165252471Y-117857994D01*
X165223649Y-117832048D01*
X165192605Y-117804193D01*
X165159720Y-117774778D01*
X165134153Y-117751966D01*
X164908375Y-117550741D01*
X164893997Y-117511022D01*
X164865662Y-117440948D01*
X164832414Y-117374045D01*
X164793848Y-117309707D01*
X164749555Y-117247324D01*
X164699130Y-117186287D01*
X164642165Y-117125990D01*
X164625776Y-117109917D01*
X164558462Y-117049739D01*
X164485870Y-116994059D01*
X164408266Y-116943010D01*
X164325914Y-116896722D01*
X164239079Y-116855330D01*
X164148026Y-116818964D01*
X164053021Y-116787758D01*
X163954329Y-116761842D01*
X163908250Y-116751834D01*
X163863853Y-116743197D01*
X163824131Y-116736427D01*
X163787021Y-116731295D01*
X163750460Y-116727572D01*
X163712386Y-116725029D01*
X163670735Y-116723439D01*
X163647194Y-116722916D01*
X163600426Y-116722493D01*
X163558969Y-116723103D01*
X163558969Y-116723103D01*
G37*
X163558969Y-116723103D02*
X163521134Y-116724878D01*
X163485237Y-116727950D01*
X163449588Y-116732451D01*
X163412501Y-116738512D01*
X163387463Y-116743226D01*
X163350495Y-116750873D01*
X163315230Y-116759056D01*
X163280622Y-116768108D01*
X163245624Y-116778364D01*
X163209191Y-116790156D01*
X163170278Y-116803818D01*
X163127839Y-116819684D01*
X163080827Y-116838088D01*
X163045263Y-116852406D01*
X162998042Y-116871805D01*
X162950102Y-116891943D01*
X162901041Y-116913011D01*
X162850453Y-116935199D01*
X162797934Y-116958695D01*
X162743079Y-116983689D01*
X162685486Y-117010372D01*
X162624749Y-117038932D01*
X162560464Y-117069559D01*
X162492227Y-117102442D01*
X162419635Y-117137772D01*
X162342281Y-117175737D01*
X162259764Y-117216528D01*
X162171677Y-117260333D01*
X162113915Y-117289177D01*
X162032201Y-117329964D01*
X161956268Y-117367698D01*
X161885642Y-117402596D01*
X161819851Y-117434875D01*
X161758423Y-117464752D01*
X161700885Y-117492444D01*
X161646765Y-117518167D01*
X161595591Y-117542138D01*
X161546889Y-117564575D01*
X161500189Y-117585695D01*
X161455018Y-117605714D01*
X161410903Y-117624848D01*
X161367371Y-117643316D01*
X161323951Y-117661334D01*
X161280171Y-117679119D01*
X161235557Y-117696888D01*
X161189637Y-117714857D01*
X161172458Y-117721509D01*
X161148476Y-117730793D01*
X161126212Y-117739455D01*
X161106652Y-117747109D01*
X161090781Y-117753366D01*
X161079586Y-117757840D01*
X161074216Y-117760070D01*
X161064168Y-117764573D01*
X161079302Y-117783849D01*
X161091111Y-117797902D01*
X161107080Y-117815482D01*
X161126079Y-117835449D01*
X161146977Y-117856663D01*
X161168643Y-117877986D01*
X161189945Y-117898277D01*
X161209754Y-117916397D01*
X161218319Y-117923920D01*
X161293898Y-117985039D01*
X161375648Y-118043238D01*
X161463253Y-118098375D01*
X161556399Y-118150306D01*
X161654769Y-118198886D01*
X161758048Y-118243973D01*
X161865921Y-118285422D01*
X161978072Y-118323091D01*
X162094186Y-118356835D01*
X162213946Y-118386510D01*
X162253722Y-118395281D01*
X162312747Y-118407567D01*
X162366586Y-118418013D01*
X162416795Y-118426877D01*
X162464926Y-118434413D01*
X162512531Y-118440877D01*
X162561165Y-118446526D01*
X162571222Y-118447588D01*
X162591268Y-118449185D01*
X162616488Y-118450438D01*
X162645561Y-118451348D01*
X162677167Y-118451913D01*
X162709986Y-118452134D01*
X162742697Y-118452011D01*
X162773980Y-118451543D01*
X162802515Y-118450730D01*
X162826981Y-118449572D01*
X162846059Y-118448069D01*
X162849917Y-118447629D01*
X162920413Y-118436359D01*
X162985332Y-118420777D01*
X163044686Y-118400875D01*
X163098489Y-118376642D01*
X163146754Y-118348071D01*
X163189494Y-118315152D01*
X163226725Y-118277875D01*
X163258458Y-118236233D01*
X163284708Y-118190216D01*
X163304186Y-118143556D01*
X163313436Y-118115336D01*
X163320050Y-118089790D01*
X163324389Y-118064670D01*
X163326811Y-118037726D01*
X163327677Y-118006710D01*
X163327689Y-117996690D01*
X163327494Y-117939783D01*
X163350459Y-117937430D01*
X163373423Y-117935078D01*
X163423181Y-117969010D01*
X163422739Y-118018359D01*
X163418754Y-118076590D01*
X163407973Y-118133341D01*
X163390573Y-118188195D01*
X163366733Y-118240732D01*
X163336631Y-118290536D01*
X163300446Y-118337188D01*
X163275226Y-118364155D01*
X163234590Y-118401000D01*
X163190860Y-118433371D01*
X163143528Y-118461491D01*
X163092089Y-118485584D01*
X163036034Y-118505873D01*
X162974857Y-118522584D01*
X162908052Y-118535938D01*
X162874611Y-118541113D01*
X162853545Y-118543389D01*
X162826697Y-118545185D01*
X162795325Y-118546500D01*
X162760685Y-118547334D01*
X162724034Y-118547688D01*
X162686631Y-118547562D01*
X162649731Y-118546956D01*
X162614593Y-118545870D01*
X162582474Y-118544303D01*
X162554630Y-118542257D01*
X162543000Y-118541088D01*
X162428753Y-118525915D01*
X162313621Y-118506055D01*
X162198476Y-118481770D01*
X162084191Y-118453321D01*
X161971641Y-118420969D01*
X161861697Y-118384975D01*
X161755234Y-118345600D01*
X161653124Y-118303106D01*
X161556240Y-118257754D01*
X161501392Y-118229498D01*
X161418282Y-118182751D01*
X161339342Y-118133631D01*
X161265019Y-118082487D01*
X161195759Y-118029668D01*
X161132007Y-117975522D01*
X161074209Y-117920397D01*
X161022812Y-117864643D01*
X161001120Y-117838480D01*
X160986411Y-117820572D01*
X160975353Y-117808259D01*
X160967679Y-117801267D01*
X160963122Y-117799322D01*
X160962894Y-117799373D01*
X160948318Y-117803012D01*
X160927871Y-117807139D01*
X160902704Y-117811588D01*
X160873971Y-117816193D01*
X160842826Y-117820787D01*
X160810421Y-117825204D01*
X160777909Y-117829276D01*
X160746444Y-117832837D01*
X160717179Y-117835720D01*
X160703264Y-117836893D01*
X160673004Y-117838630D01*
X160639491Y-117839311D01*
X160602279Y-117838909D01*
X160560925Y-117837398D01*
X160514983Y-117834750D01*
X160464009Y-117830938D01*
X160407559Y-117825937D01*
X160345188Y-117819719D01*
X160276452Y-117812256D01*
X160255236Y-117809853D01*
X160157304Y-117798039D01*
X160052890Y-117784253D01*
X159942274Y-117768544D01*
X159825733Y-117750962D01*
X159703546Y-117731559D01*
X159575989Y-117710386D01*
X159443343Y-117687492D01*
X159305883Y-117662928D01*
X159163890Y-117636746D01*
X159017640Y-117608995D01*
X158867412Y-117579727D01*
X158713483Y-117548991D01*
X158556133Y-117516840D01*
X158395639Y-117483322D01*
X158232279Y-117448489D01*
X158066331Y-117412392D01*
X158038028Y-117406166D01*
X158006495Y-117399268D01*
X157976427Y-117392787D01*
X157948674Y-117386899D01*
X157924087Y-117381780D01*
X157903516Y-117377607D01*
X157887814Y-117374556D01*
X157877830Y-117372804D01*
X157875750Y-117372520D01*
X157848371Y-117372603D01*
X157819403Y-117378198D01*
X157790663Y-117388640D01*
X157763968Y-117403263D01*
X157741137Y-117421400D01*
X157740423Y-117422097D01*
X157729666Y-117434458D01*
X157716441Y-117452584D01*
X157701127Y-117475782D01*
X157684102Y-117503362D01*
X157665747Y-117534633D01*
X157646438Y-117568902D01*
X157626556Y-117605479D01*
X157606479Y-117643671D01*
X157586585Y-117682789D01*
X157567253Y-117722139D01*
X157548863Y-117761031D01*
X157531792Y-117798774D01*
X157523062Y-117818888D01*
X157495582Y-117887828D01*
X157473705Y-117952753D01*
X157457436Y-118013631D01*
X157446780Y-118070428D01*
X157441742Y-118123112D01*
X157442326Y-118171650D01*
X157448538Y-118216008D01*
X157459697Y-118254355D01*
X157469279Y-118274617D01*
X157482842Y-118296530D01*
X157498641Y-118317628D01*
X157514928Y-118335441D01*
X157520911Y-118340860D01*
X157536300Y-118352771D01*
X157552919Y-118363287D01*
X157571311Y-118372518D01*
X157592022Y-118380574D01*
X157615594Y-118387565D01*
X157642573Y-118393602D01*
X157673502Y-118398794D01*
X157708926Y-118403252D01*
X157749388Y-118407086D01*
X157795433Y-118410405D01*
X157847604Y-118413321D01*
X157888097Y-118415182D01*
X157907868Y-118415961D01*
X157933696Y-118416876D01*
X157964584Y-118417897D01*
X157999536Y-118418994D01*
X158037554Y-118420137D01*
X158077643Y-118421294D01*
X158118805Y-118422437D01*
X158160044Y-118423534D01*
X158180903Y-118424070D01*
X158286868Y-118426865D01*
X158386377Y-118429728D01*
X158480029Y-118432688D01*
X158568424Y-118435774D01*
X158652160Y-118439016D01*
X158731838Y-118442444D01*
X158808056Y-118446086D01*
X158881413Y-118449972D01*
X158952509Y-118454132D01*
X159021944Y-118458595D01*
X159090317Y-118463390D01*
X159158226Y-118468548D01*
X159226271Y-118474096D01*
X159262167Y-118477168D01*
X159414575Y-118491484D01*
X159561084Y-118507501D01*
X159702686Y-118525426D01*
X159840371Y-118545462D01*
X159975131Y-118567813D01*
X160107958Y-118592686D01*
X160239844Y-118620283D01*
X160371779Y-118650811D01*
X160504756Y-118684473D01*
X160639766Y-118721474D01*
X160777801Y-118762018D01*
X160919851Y-118806311D01*
X161027819Y-118841516D01*
X161084471Y-118860415D01*
X161136899Y-118878181D01*
X161185676Y-118895079D01*
X161231373Y-118911377D01*
X161274563Y-118927340D01*
X161315816Y-118943235D01*
X161355705Y-118959327D01*
X161394801Y-118975884D01*
X161433675Y-118993170D01*
X161472901Y-119011452D01*
X161513048Y-119030997D01*
X161554690Y-119052071D01*
X161598398Y-119074939D01*
X161644743Y-119099869D01*
X161694297Y-119127125D01*
X161747632Y-119156975D01*
X161805320Y-119189684D01*
X161867932Y-119225519D01*
X161932694Y-119262815D01*
X161982887Y-119291743D01*
X162027657Y-119317450D01*
X162067661Y-119340298D01*
X162103555Y-119360648D01*
X162135994Y-119378863D01*
X162165635Y-119395303D01*
X162193134Y-119410330D01*
X162219147Y-119424307D01*
X162244330Y-119437594D01*
X162269338Y-119450554D01*
X162294828Y-119463549D01*
X162317222Y-119474820D01*
X162382539Y-119506741D01*
X162443326Y-119534702D01*
X162500631Y-119559064D01*
X162555499Y-119580188D01*
X162608978Y-119598436D01*
X162662115Y-119614169D01*
X162715957Y-119627748D01*
X162771551Y-119639537D01*
X162819025Y-119648094D01*
X162878301Y-119657475D01*
X162932886Y-119664849D01*
X162984804Y-119670377D01*
X163036074Y-119674223D01*
X163088721Y-119676550D01*
X163144766Y-119677522D01*
X163183292Y-119677509D01*
X163209880Y-119677309D01*
X163234924Y-119677051D01*
X163257330Y-119676751D01*
X163276003Y-119676426D01*
X163289851Y-119676092D01*
X163297777Y-119675767D01*
X163297944Y-119675755D01*
X163388991Y-119666740D01*
X163478800Y-119653096D01*
X163566515Y-119635042D01*
X163651282Y-119612798D01*
X163732244Y-119586583D01*
X163808545Y-119556619D01*
X163866209Y-119529817D01*
X163952043Y-119482919D01*
X164035670Y-119429377D01*
X164117012Y-119369273D01*
X164195994Y-119302690D01*
X164272539Y-119229708D01*
X164346571Y-119150411D01*
X164418015Y-119064879D01*
X164486793Y-118973196D01*
X164552829Y-118875442D01*
X164616048Y-118771701D01*
X164676373Y-118662053D01*
X164680700Y-118653746D01*
X164717707Y-118578734D01*
X164752221Y-118500989D01*
X164784600Y-118419580D01*
X164815202Y-118333574D01*
X164844388Y-118242039D01*
X164860890Y-118185758D01*
X164868457Y-118159169D01*
X165114194Y-118060044D01*
X165153671Y-118044069D01*
X165191187Y-118028791D01*
X165226234Y-118014422D01*
X165258306Y-118001173D01*
X165286898Y-117989257D01*
X165311502Y-117978887D01*
X165331612Y-117970274D01*
X165346722Y-117963630D01*
X165356326Y-117959168D01*
X165359917Y-117957101D01*
X165359931Y-117957055D01*
X165357356Y-117954178D01*
X165349885Y-117946965D01*
X165337902Y-117935762D01*
X165321787Y-117920917D01*
X165301922Y-117902776D01*
X165278690Y-117881686D01*
X165252471Y-117857994D01*
X165223649Y-117832048D01*
X165192605Y-117804193D01*
X165159720Y-117774778D01*
X165134153Y-117751966D01*
X164908375Y-117550741D01*
X164893997Y-117511022D01*
X164865662Y-117440948D01*
X164832414Y-117374045D01*
X164793848Y-117309707D01*
X164749555Y-117247324D01*
X164699130Y-117186287D01*
X164642165Y-117125990D01*
X164625776Y-117109917D01*
X164558462Y-117049739D01*
X164485870Y-116994059D01*
X164408266Y-116943010D01*
X164325914Y-116896722D01*
X164239079Y-116855330D01*
X164148026Y-116818964D01*
X164053021Y-116787758D01*
X163954329Y-116761842D01*
X163908250Y-116751834D01*
X163863853Y-116743197D01*
X163824131Y-116736427D01*
X163787021Y-116731295D01*
X163750460Y-116727572D01*
X163712386Y-116725029D01*
X163670735Y-116723439D01*
X163647194Y-116722916D01*
X163600426Y-116722493D01*
X163558969Y-116723103D01*
D12*
X171130000Y-100820000D03*
D13*
X171130000Y-103360000D03*
X171130000Y-105900000D03*
D14*
X171130000Y-108440000D03*
D13*
X171130000Y-110980000D03*
D15*
X167610000Y-108440000D03*
D16*
X167610000Y-105900000D03*
M02*
